<svg width="566" height="276" viewBox="0 0 566 276" fill="none" xmlns="http://www.w3.org/2000/svg">
<path d="M351.946 49.4539C351.946 49.4539 349.305 49.1159 347.606 49.0693C346.47 49.0568 345.342 48.8842 344.254 48.5565L342.649 47.9387C342.649 47.9387 340.24 49.4073 340.473 50.771C340.705 52.1347 341.415 53.5683 342.695 53.7081C343.992 53.6487 345.268 53.3607 346.465 52.8573C347.641 52.5177 348.844 52.2798 350.061 52.1463C351.481 52.0065 351.667 52.0531 351.946 51.7267C352.226 51.4004 352.377 51.7267 352.284 50.8293C352.251 50.3547 352.137 49.8894 351.946 49.4539Z" fill="#1D1D1B"/>
<path d="M364.839 49.9435C364.682 49.8233 364.574 49.6489 364.537 49.4539C364.537 49.2908 364.444 48.9994 364.688 48.9061C364.856 48.8242 365.038 48.7767 365.223 48.7663C365.386 48.7663 365.317 48.6264 365.456 48.4865C365.596 48.3467 365.852 47.9854 365.922 47.9387C365.992 47.8921 366.306 48.032 366.538 47.9387C366.757 47.8761 366.964 47.7819 367.155 47.659C367.295 47.5308 367.365 47.2744 367.528 47.4376C367.69 47.6007 367.912 47.5541 367.772 47.7056C367.632 47.8572 367.225 47.8688 367.132 47.9387C367.013 48.0616 366.904 48.1942 366.806 48.335C366.735 48.4894 366.677 48.6492 366.632 48.8129C366.632 48.9528 366.492 49.1859 366.469 49.3141C366.393 49.4707 366.291 49.6127 366.166 49.7337C366.073 49.8269 365.735 49.7337 365.666 49.8269C365.552 49.9203 365.415 49.9806 365.269 50.0011C365.123 50.0217 364.975 50.0017 364.839 49.9435Z" fill="#1D1D1B"/>
<path d="M352.191 50.2348L352.179 50.1998L363.734 49.4772L351.795 49.687V49.652L364.537 49.4305V49.4655L352.191 50.2348Z" fill="#1D1D1B"/>
<path d="M352.179 51.5635V51.5285L364.316 49.5354L352.284 50.8525V50.8175L364.968 49.4305V49.4655L352.179 51.5635Z" fill="#1D1D1B"/>
<path d="M333.63 51.1323L333.037 50.8292C332.899 50.8938 332.783 50.9982 332.704 51.1289C332.626 51.2597 332.587 51.411 332.595 51.5635C332.595 52.123 332.35 52.7291 332.595 52.5892C332.951 52.4451 333.297 52.2777 333.63 52.088C333.735 51.9831 333.63 51.5635 333.63 51.5635V51.1323Z" fill="#1D1D1B"/>
<path d="M335.376 51.7384C334.787 51.7228 334.2 51.6683 333.619 51.5752C334.272 51.6853 334.934 51.736 335.597 51.7267C336.596 51.6093 337.579 51.3826 338.529 51.0507C338.836 50.9155 339.166 50.8457 339.501 50.8457C339.836 50.8457 340.167 50.9155 340.473 51.0507C340.473 51.0507 339.798 50.6428 338.518 51.0507C337.564 51.3844 336.577 51.6112 335.574 51.7267L335.376 51.7384Z" fill="#1D1D1B"/>
<path d="M376.255 52.9738L367.644 52.2628C367.373 52.3173 367.117 52.4285 366.893 52.5892C366.668 52.7499 366.48 52.9565 366.341 53.1952C366.015 53.8596 364.63 56.1324 365.061 56.7968C365.491 57.4611 365.445 58.4635 367.33 58.6849C369.215 58.9064 369.413 59.0346 370.157 58.4985C370.902 57.9623 372.892 57.3329 373.951 56.7968C374.68 56.3982 375.464 56.1114 376.278 55.9459C376.662 55.876 376.918 55.8527 376.662 55.5613C376.406 55.2699 376.313 55.2 376.313 55.0251C376.313 54.8503 376.488 54.7105 376.488 54.4191C376.481 54.1962 376.457 53.9742 376.418 53.7547C376.418 53.7547 376.779 53.0088 376.255 52.9738Z" fill="#1D1D1B"/>
<path d="M389.009 53.7897C389.009 53.7897 388.892 53.5566 388.846 53.4284C388.799 53.3002 388.764 53.3118 388.648 53.3002C388.531 53.2885 388.543 52.9505 388.543 52.9505C388.543 52.9505 388.718 52.9505 388.718 52.8806C388.718 52.8106 388.718 52.6125 389.009 52.6009C389.299 52.5892 389.672 52.6708 389.707 52.4027C389.753 52.1522 389.884 51.9255 390.079 51.7617C390.207 51.6917 391.487 51.412 391.499 51.6568C391.51 51.9015 391.778 51.9948 391.359 52.0647C390.94 52.1346 390.777 51.9365 390.754 52.1346C390.731 52.3328 390.754 52.6475 390.754 52.8107C390.754 52.9035 390.725 52.994 390.67 53.0693C390.616 53.1446 390.539 53.2009 390.451 53.2302C390.277 53.2302 389.974 53.8247 389.835 53.8946C389.556 53.8998 389.277 53.8645 389.009 53.7897Z" fill="#1D1D1B"/>
<path d="M376.395 53.7664V53.7315L388.345 53.207H376.523V53.172H389.16V53.207L376.395 53.7664Z" fill="#1D1D1B"/>
<path d="M376.732 55.8177L376.72 55.7827L388.438 53.5682L376.313 55.165V55.13L389.055 53.4517L389.067 53.4866L376.732 55.8177Z" fill="#1D1D1B"/>
<path d="M376.313 54.6522V54.6172L387.787 53.5682L376.313 54.3025V54.2675L389.067 53.4517V53.4866L376.313 54.6522Z" fill="#1D1D1B"/>
<path d="M359.219 57.7642H358.277L357.59 58.0206V58.7782L358.125 59.0346C358.125 59.0346 358.125 58.6849 358.253 58.6383C358.534 58.5796 358.817 58.5368 359.103 58.5101L359.219 57.7642Z" fill="#1D1D1B"/>
<path d="M358.893 58.277C359.792 58.1932 360.676 57.9934 361.523 57.6826C361.874 57.4774 362.284 57.3953 362.687 57.4495C363.005 57.4672 363.323 57.4672 363.641 57.4495C364.343 57.3883 365.011 57.1206 365.561 56.6802C365.631 56.6802 365.666 56.5986 365.689 56.5986L365.573 56.6919C365.014 57.1341 364.339 57.4017 363.629 57.4611C363.308 57.4788 362.985 57.4788 362.664 57.4611C362.26 57.4042 361.85 57.4864 361.5 57.6942C360.661 58.0054 359.784 58.2014 358.893 58.277Z" fill="#1D1D1B"/>
<path d="M391.871 43.7078C392.153 43.3985 392.46 43.1138 392.79 42.8569C392.895 42.8569 395.118 42.2508 395.118 42.2508C395.547 42.2131 395.967 42.1069 396.363 41.9362C396.642 41.7264 397.317 41.4 397.527 41.2601C397.736 41.1203 399.132 40.7939 399.272 40.7939C399.412 40.7939 400.866 40.1529 401.157 40.013C401.65 39.8683 402.157 39.7822 402.67 39.7566C402.996 39.7566 403.45 39.8615 403.45 40.048V40.2228C403.462 40.4926 403.525 40.7576 403.636 41.0037C403.636 41.0037 403.415 41.2835 403.31 41.3184C403.205 41.3534 402.961 41.738 402.705 41.7613C402.449 41.7846 402.181 41.5282 401.82 41.7613C401.46 41.9944 401.262 41.9595 401.076 42.0993C400.695 42.2217 400.306 42.319 399.912 42.3907C399.421 42.4468 398.935 42.5404 398.457 42.6704C398.073 42.8802 397.433 43.09 397.294 43.2416C396.775 43.4022 396.241 43.5077 395.7 43.5563C395.444 43.5563 394.664 44.0574 394.245 44.1623C393.826 44.2672 392.511 44.0225 392.372 44.1623C392.232 44.3022 391.871 43.7078 391.871 43.7078Z" fill="#1D1D1B"/>
<path d="M415.749 38.1248C415.749 38.1248 415.074 37.9966 415.005 37.9966C414.736 38.1259 414.456 38.2274 414.167 38.2997C413.922 38.2997 413.934 37.7519 414.074 37.647C414.213 37.5421 414.411 37.4838 414.772 37.2856C415.133 37.0875 415.412 36.7378 415.749 36.6329C416.087 36.528 416.343 36.2017 416.471 36.6329C416.599 37.0642 416.226 37.1924 416.61 37.3556C416.933 37.4681 417.239 37.625 417.518 37.8218C417.634 37.95 417.518 38.3346 417.332 38.2997C417.146 38.2647 416.773 38.1015 416.75 38.1598C416.716 38.3213 416.693 38.4848 416.68 38.6493C416.68 38.7775 416.098 39.0456 415.959 39.0456C415.819 39.0456 415.749 38.1248 415.749 38.1248Z" fill="#1D1D1B"/>
<path d="M403.612 40.9687L403.543 40.6657L403.45 40.351L412.922 38.3346L403.287 40.0596L413.981 38.1481L403.508 40.386L403.589 40.6657L414.062 38.1948L403.612 40.9687ZM403.612 40.6657L403.682 40.9221L412.829 38.4745L403.612 40.6657Z" fill="#1D1D1B"/>
<path d="M385.587 43.766C385.424 43.6961 385.041 43.4746 384.738 43.6028C384.435 43.7311 384.191 43.6028 384.156 44.0341C384.121 44.4653 383.958 44.8966 384.156 45.0714C384.354 45.2463 384.889 45.5493 384.947 45.4327C385.006 45.3162 384.61 44.815 385.017 44.7218C385.425 44.6285 385.727 44.7218 386.099 44.5936C386.472 44.4653 386.879 44.3838 386.611 44.1273C386.301 43.9322 385.951 43.8088 385.587 43.766Z" fill="#1D1D1B"/>
<path d="M389.509 44.7101C389.366 44.709 389.223 44.6814 389.09 44.6285C388.883 44.5694 388.681 44.4954 388.485 44.4071C388.401 44.3543 388.307 44.3198 388.209 44.3058C388.11 44.2917 388.01 44.2984 387.915 44.3255L387.624 44.4071C387.418 44.482 387.202 44.5252 386.984 44.5353L386.309 44.3488C386.309 44.3488 386.856 44.4887 386.972 44.5353C387.187 44.5259 387.399 44.4826 387.601 44.4071L387.892 44.3255C387.993 44.2983 388.098 44.2915 388.202 44.3055C388.306 44.3195 388.406 44.354 388.497 44.4071C388.689 44.4958 388.887 44.5699 389.09 44.6285C389.315 44.7104 389.56 44.7208 389.791 44.6582C390.022 44.5957 390.229 44.4632 390.382 44.2789L390.731 44.0108C390.894 43.8848 391.082 43.7948 391.283 43.7466C391.483 43.6984 391.692 43.6931 391.894 43.7311C391.701 43.6979 391.503 43.7057 391.312 43.7538C391.122 43.802 390.944 43.8895 390.789 44.0108L390.428 44.2789C390.184 44.5294 389.857 44.6826 389.509 44.7101Z" fill="#1D1D1B"/>
<path d="M426.152 37.1691C426.152 37.1691 427.118 37.2973 427.176 37.4605C427.234 37.6236 427.095 38.1948 427.863 37.95C428.631 37.7052 429.236 36.9943 429.841 37.2041C430.374 37.3359 430.896 37.5114 431.4 37.7285C431.517 37.8684 431.063 38.4862 430.749 38.591C430.294 38.6365 429.835 38.613 429.387 38.5211C429.387 38.5211 429.003 37.9383 428.503 38.2764C428.068 38.5999 427.574 38.8336 427.048 38.964C426.685 38.7739 426.355 38.5259 426.071 38.2297C426.013 38.0666 425.815 37.1108 426.152 37.1691Z" fill="#1D1D1B"/>
<path d="M440.454 40.1995C440.454 40.1995 440 39.9781 440.791 39.745C441.209 39.5776 441.676 39.5776 442.094 39.745C442.094 39.745 442.176 40.1645 442.432 40.0014C442.688 39.8382 443.339 39.4885 443.142 40.0014C442.944 40.5142 442.257 40.5375 442.257 40.5375L442.106 40.8639C441.948 40.8585 441.791 40.8311 441.641 40.7823L441.326 40.5375L440.989 40.2928L440.454 40.1995Z" fill="#1D1D1B"/>
<path d="M420.986 35.0944C420.986 35.0944 420.113 34.6165 420.171 34.4883C420.229 34.3601 420.334 33.9056 420.613 33.8823C420.799 33.8688 420.986 33.8688 421.172 33.8823V34.2086L420.986 35.0944Z" fill="#1D1D1B"/>
<path d="M426.164 37.1574C425.883 36.7403 425.475 36.4255 425 36.2599C424.081 35.9103 420.916 34.3834 420.881 34.3718C420.881 34.3718 424.081 35.9103 425 36.2599C425.478 36.42 425.887 36.7361 426.164 37.1574Z" fill="#1D1D1B"/>
<path d="M440.5 39.978L430.807 38.4046V38.3696L439.895 39.8382L431.109 37.9034L431.121 37.8684L440.512 39.9431L440.5 39.978Z" fill="#1D1D1B"/>
<path d="M440.5 39.978L430.958 38.1132V38.0782L440.512 39.9431L440.5 39.978Z" fill="#1D1D1B"/>
<path d="M296.731 64.8273C296.066 64.5632 295.417 64.2596 294.788 63.9182C294.788 63.8133 294.846 63.7084 294.439 63.3005C294.031 62.8925 293.403 62.3447 293.449 62.0766C293.554 61.7456 293.69 61.4255 293.857 61.1209C293.938 60.9577 293.671 60.8761 293.961 60.3983C294.252 59.9204 295.509 58.3469 295.719 57.9623C295.928 57.5777 296.417 56.6103 296.417 56.6103L298.197 55.3282C298.197 55.3282 298.86 55.0601 299.082 55.0018C299.251 54.9634 299.426 54.9634 299.595 55.0017C299.764 55.0401 299.923 55.1157 300.059 55.2233C300.307 55.466 300.567 55.6956 300.839 55.9109C301.153 56.2023 302.119 56.7618 302.782 57.193C303.445 57.6243 304.33 58.0206 304.783 58.3586C305.237 58.6966 305.761 58.8131 305.947 59.1628C306.133 59.5125 306.552 59.4542 306.424 60.2001C306.335 60.7792 306.032 61.3035 305.575 61.6687C305.307 61.8319 304.9 61.8086 304.714 62.2049C304.223 63.1256 303.781 64.0709 303.387 65.0371C303.311 65.3069 303.184 65.56 303.015 65.7831C302.682 66.1462 302.325 66.4851 301.944 66.7971C301.626 66.9574 301.295 67.09 300.955 67.1934C300.261 67.1757 299.575 67.0336 298.93 66.7738C298.802 66.6106 298.104 65.9462 298.104 65.9462L297.522 66.6922C297.625 66.8557 297.715 67.0272 297.79 67.205C297.844 67.3665 297.872 67.5358 297.871 67.7062C297.871 67.8577 297.58 68.0442 297.58 68.0442C297.593 68.1311 297.587 68.2196 297.563 68.3041C297.539 68.3885 297.497 68.4668 297.441 68.5337C297.327 68.6041 297.2 68.6497 297.068 68.6678C296.936 68.6859 296.801 68.6759 296.673 68.6386C296.591 68.557 296.568 68.1841 296.568 68.1841C296.461 68.0524 296.371 67.9075 296.3 67.7528C296.3 67.6712 296.219 67.0302 296.428 66.902L296.906 66.6339L296.987 65.9695L296.731 64.8273Z" fill="#1D1D1B"/>
<path d="M322.936 59.1978C322.982 59.3772 323.079 59.5394 323.216 59.664L324.31 60.0253C324.31 60.0253 324.984 60.1768 325.171 59.8038C325.357 59.4309 325.287 59.0462 325.473 58.8947C325.598 58.8128 325.693 58.6921 325.744 58.5512C325.794 58.4103 325.797 58.2567 325.752 58.1138C325.671 57.6476 324.915 57.9856 324.822 57.8108C324.728 57.6359 324.298 57.9739 324.182 58.0672H324.112L323.274 58.277C323.23 58.289 323.19 58.3145 323.161 58.35C323.132 58.3855 323.114 58.4292 323.111 58.4751L322.936 59.1978Z" fill="#1D1D1B"/>
<path d="M319.143 59.4426C319.513 58.7608 319.839 58.0562 320.12 57.333C320.583 56.373 320.71 55.2853 320.481 54.2443C320.086 53.0788 320.109 51.2139 319.608 50.5495C319.108 49.8852 317.921 48.6147 317.77 48.4166C317.619 48.2185 317.688 47.8105 316.92 48.1369C316.044 48.4424 315.145 48.6801 314.232 48.8478C313.324 49.1952 312.454 49.6366 311.637 50.1649C311.633 51.0401 311.707 51.9138 311.858 52.7757C312.08 53.6382 312.65 55.8527 313.348 56.3772C314.046 56.9017 315.873 58.3703 315.873 58.3703L317.572 58.9298L319.143 59.4426Z" fill="#1D1D1B"/>
<path d="M320.411 56.1674L323.251 59.0929H323.204L319.062 59.326V59.291L323.169 59.0696L320.388 56.1907L320.411 56.1674Z" fill="#1D1D1B"/>
<path d="M320.12 57.0299L323.297 59.1279L323.204 59.0929L319.608 58.2071L319.62 58.1721L323.123 59.0463L320.109 57.0649L320.12 57.0299Z" fill="#1D1D1B"/>
<path d="M277.252 74.5946L272.876 73.8137C272.876 73.8137 267.442 69.0583 267.256 68.4755C267.076 68.012 266.996 67.5153 267.023 67.0186C267.278 65.6506 267.667 64.3114 268.187 63.0208C268.891 62.0592 269.772 61.2405 270.782 60.6081C270.782 60.6081 274.668 59.1046 277.484 59.8272C280.3 60.5498 281.092 65.6549 281.243 66.3309C281.421 66.908 281.503 67.5104 281.487 68.1142C281.394 68.4405 279.963 71.9954 279.916 72.1586C279.823 72.6892 279.674 73.2087 279.474 73.7088C279.381 73.7088 278.171 73.4174 277.81 73.8137C277.59 74.0476 277.402 74.3102 277.252 74.5946Z" fill="#1D1D1B"/>
<path d="M271.619 55.5263C271.225 55.4483 270.836 55.3432 270.456 55.2116C270.27 55.1067 269.641 54.9785 269.746 54.6289C269.851 54.2792 269.816 54.0694 269.955 53.8829C270.095 53.6964 270.025 53.4284 270.758 53.5799C271.491 53.7314 272.539 53.7897 272.271 54.0111C271.979 54.4806 271.76 54.9914 271.619 55.5263Z" fill="#1D1D1B"/>
<path d="M284.408 86.7162C284.28 86.7162 283.081 86.8794 282.674 86.553C282.267 86.2267 281.801 85.4807 281.976 85.1311C282.15 84.7814 282.511 85.1311 282.639 84.7931C282.767 84.4551 282.511 83.8257 282.441 83.476C282.372 83.1264 281.976 82.6019 282.441 82.5785C282.907 82.5552 283.5 82.5785 283.465 82.8699C283.47 83.0217 283.506 83.1709 283.572 83.3075C283.639 83.4442 283.733 83.5652 283.849 83.6625C284.314 83.7482 284.768 83.8891 285.199 84.0821C285.266 84.276 285.285 84.4834 285.255 84.6864C285.225 84.8893 285.146 85.0819 285.025 85.2476C284.749 85.7047 284.541 86.1994 284.408 86.7162Z" fill="#1D1D1B"/>
<path d="M283.093 84.7464L276.099 73.8369L276.134 73.8253L282.988 84.5249L279.428 73.0677L279.462 73.056L283.093 84.7464Z" fill="#1D1D1B"/>
<path d="M282.872 84.1521L277.275 73.7788L277.31 73.7671L282.756 83.8723L278.392 73.2426L278.427 73.231L282.907 84.1404L282.872 84.1521Z" fill="#1D1D1B"/>
<path d="M273.051 60.8179C272.28 59.6658 271.658 58.4204 271.201 57.1114C271.139 56.3772 271.022 55.6486 270.851 54.9319C271.016 55.6538 271.132 56.3858 271.201 57.1231C271.665 58.4198 272.282 59.6563 273.039 60.8062L273.051 60.8179Z" fill="#1D1D1B"/>
<path d="M65.9325 184.155C65.3739 180.507 62.4415 172.5 61.5921 169.691C60.7322 166.946 59.5895 164.297 58.1826 161.789C57.624 161.089 55.3782 161.089 52.4341 160.949C49.4901 160.81 36.7365 162.488 35.4797 162.488H30.476C28.8031 162.631 27.1975 163.214 25.8214 164.178C24.8323 164.877 18.6766 167.127 16.5704 168.106C14.4642 169.085 9.42556 170.635 8.42482 171.195C7.42408 171.754 1.04727 173.864 1.04727 173.864C-0.384018 174.33 0.0698064 180.6 0.0698064 181.44C0.0698064 182.279 0.907635 187.897 1.04727 188.736C1.18691 189.575 2.21092 195.053 2.30402 196.184C2.76597 197.713 3.42719 199.175 4.27059 200.531C4.54986 200.951 7.21463 206.569 7.63354 207.268C8.93953 209.07 10.3912 210.762 11.974 212.326C12.4045 212.466 16.4657 214.285 17.0242 214.18C17.5828 214.075 20.8061 214.424 21.6788 214.18C22.5515 213.935 25.8912 214.32 26.3334 214.18C26.7756 214.04 31.9422 212.501 32.1517 212.222C32.3611 211.942 38.5285 209.972 39.506 209.692C40.7626 209.551 42.0312 209.551 43.2878 209.692H46.93L58.008 206.883C59.9104 205.902 61.7349 204.776 63.4655 203.515C65.0988 201.174 66.3153 198.567 67.0612 195.811C67.6198 193.375 66.491 187.757 65.9325 184.155ZM12.8002 210.147C11.7412 209.727 9.99575 206.65 9.47211 205.485C9.03727 204.745 8.827 203.895 8.86701 203.037C8.98528 202.254 9.4025 201.548 10.0307 201.067C12.0554 200.927 15.2787 211.103 15.2787 211.103L12.8002 210.147ZM62.3368 198.492C62.267 199.202 59.2531 201.93 59.2531 201.93V189.983L60.8008 191.032C60.8008 191.032 62.5462 193.002 62.3368 193.491C62.1273 193.981 62.3601 197.792 62.2902 198.492H62.3368Z" fill="black"/>
<path d="M34.3974 228.341L35.7705 226.709V225.765H33.1406L35.3981 224.343L37.5043 223.609L36.9225 222.443H42.6477L45.9059 220.87L45.231 222.129C45.571 222.277 45.921 222.402 46.2782 222.502L49.5365 222.443L47.8026 223.714L50.223 225.241L47.3837 225.917L48.8732 227.712L46.5459 227.129L47.3255 228.026L43.2877 227.817L40.9604 228.341L38.0861 229.611L37.9232 228.306L36.5618 229.611L37.0854 227.875L34.7581 229.145L34.3974 228.341Z" fill="#1D1D1B"/>
<path d="M40.1343 232.374H40.7277L43.3809 236.71C43.3809 236.71 43.4856 235.87 43.3809 235.789C43.2761 235.707 43.5903 235.311 43.858 235.241C44.1776 235.123 44.5216 235.087 44.8587 235.136C45.1729 235.206 45.4405 235.765 45.4405 236.232L46.1154 231.185L46.5925 231.838L46.3831 236.71C46.3831 236.71 48.0355 238.528 48.0355 238.609C48.0171 238.936 47.9381 239.256 47.8027 239.554C47.6398 239.74 47.5118 239.892 47.5118 239.973C47.5118 240.055 47.6398 242.374 47.6398 242.549C47.6398 242.724 48.0587 243.4 48.0355 243.61C48.0122 243.819 48.5126 244.402 48.5591 244.577C48.667 244.836 48.73 245.112 48.7453 245.393C48.7453 245.661 48.0355 246.034 47.9307 246.034C47.826 246.034 47.2442 246.209 47.2442 246.034C47.2442 245.747 47.2091 245.461 47.1395 245.183C47.1395 245.101 46.5344 244.507 46.4878 244.425C46.4413 244.344 45.8245 243.843 45.8245 243.843C45.8245 243.843 45.8245 243.342 45.4056 243.295C44.9867 243.248 44.0907 242.316 43.8347 242.129C43.4899 241.793 43.2064 241.398 42.9969 240.964C42.9969 240.882 43.5205 240.672 42.6245 240.195C42.2984 239.937 42.0747 239.571 41.9937 239.163C41.9126 238.755 41.9795 238.331 42.1823 237.968C42.4018 237.715 42.5787 237.428 42.7059 237.118L42.8339 236.861L40.1343 232.374Z" fill="#1D1D1B"/>
<path d="M52.0034 267.678L52.5387 267.993C52.4215 268.53 52.4215 269.087 52.5387 269.624C52.7482 270.149 53.1089 271.361 53.1089 271.361L54.5286 272.154L54.9009 272.736C54.9009 272.736 55.9017 272.573 56.0646 272.736C56.2198 272.943 56.3452 273.171 56.437 273.412H55.2733C55.0366 273.516 54.8346 273.686 54.6915 273.902C54.704 274.219 54.739 274.534 54.7962 274.846C54.7336 275.117 54.6479 275.382 54.5402 275.639L52.0616 274.578L50.9562 274.951C50.9562 274.951 50.7467 275.953 50.5954 275.953C50.4441 275.953 50.5954 274.531 50.5954 274.531C50.5104 274.276 50.4865 274.005 50.5256 273.739C50.5758 273.321 50.5758 272.898 50.5256 272.48C50.5256 272.317 50.8747 272.212 51.4565 271.792L52.3525 271.163L52.2944 270.324C51.9749 269.481 51.8748 268.57 52.0034 267.678Z" fill="#1D1D1B"/>
<path d="M52.0849 268.144C52.0849 268.144 51.6776 263.634 51.4798 263.214C50.6218 261.336 50.132 259.31 50.0369 257.246C49.5389 253.235 48.8359 249.251 47.9307 245.311H47.9889C47.9889 245.405 49.9438 254.193 50.0834 257.246C50.1887 259.309 50.6905 261.331 51.5613 263.202C51.7707 263.622 52.1547 267.958 52.178 268.144H52.0849Z" fill="#1D1D1B"/>
<path d="M39.343 206.359C39.4477 206.709 42.3918 223.924 42.3918 223.924L39.343 206.359Z" fill="#1D1D1B"/>
<path d="M40.7162 232.828L40.7046 232.817L36.6551 229.285L22.9822 213.445L36.6551 229.274L40.7046 232.805L36.0151 208.772V208.76L40.7162 232.828Z" fill="#1D1D1B"/>
<path d="M40.7045 233.341L32.6404 210.24H32.652L40.7161 233.341H40.7045Z" fill="#1D1D1B"/>
<path d="M233.999 89.7466C234.625 86.412 235.076 83.0467 235.349 79.6647C235.59 77.7316 235.633 75.7788 235.477 73.837C235.325 73.2542 233.952 72.6714 232.183 71.7157C230.415 70.7599 222.118 68.3006 221.338 67.9393L218.243 66.5407C217.183 66.1665 216.043 66.0781 214.938 66.2843C214.135 66.4358 209.737 66.0978 208.166 66.1211C206.595 66.1444 203.08 65.6782 202.347 65.7481C201.614 65.818 197.041 65.3169 197.041 65.3169C196.029 65.212 194.574 69.1748 194.341 69.6993C194.109 70.2238 193.061 73.8952 192.91 74.4547C192.759 75.0142 191.84 78.639 191.619 79.3733C191.478 80.4409 191.478 81.5225 191.619 82.5902C191.619 82.9165 191.747 87.1125 191.805 87.6603C192.098 89.1644 192.515 90.6419 193.05 92.0777C193.84 92.9937 194.704 93.8434 195.633 94.6186C196.554 95.0976 197.502 95.5218 198.472 95.889C199.44 96.2723 200.388 96.7041 201.312 97.1827C201.614 97.1827 205.222 97.7072 205.443 97.6023C207.184 97.6769 208.92 97.8403 210.644 98.0919C211.457 98.3571 212.238 98.7129 212.972 99.1525L215.206 100.167L222.781 101.53C224.224 101.456 225.66 101.273 227.075 100.982C228.743 100.005 230.228 98.7423 231.462 97.2527C232.463 95.9473 233.335 92.1942 233.999 89.7466ZM194.12 90.9121C193.597 90.3527 193.364 88.0216 193.364 87.1358C193.313 86.5605 193.426 85.9826 193.69 85.4691C193.981 85.0218 194.437 84.7076 194.958 84.5949C196.25 85.0728 195.4 92.2175 195.4 92.2175L194.12 90.9121ZM227.773 97.5674C226.883 98.109 225.924 98.5285 224.922 98.8145L228.239 91.4949L228.89 92.5672C228.89 92.5672 229.426 94.2572 229.158 94.502C228.89 94.7468 228.006 97.1944 227.773 97.614V97.5674Z" fill="black"/>
<path d="M199.857 121.146L201.021 120.61L201.242 120.109L199.857 119.48L201.393 119.27L202.673 119.386V118.629L204.675 119.538L205.699 120.004H207.805L207.142 120.505C207.285 120.669 207.44 120.82 207.607 120.96L209.353 121.706L208.189 121.962L209.097 123.349L207.433 123.034L207.817 124.34L206.653 123.466L206.851 124.13L204.768 123.046L203.441 122.778H201.579L201.812 122.044L200.776 122.417L201.475 121.624L199.915 121.717L199.857 121.146Z" fill="#1D1D1B"/>
<path d="M201.521 125.202L201.87 125.354L202.301 128.769C202.301 128.769 202.592 128.279 202.557 128.198C202.522 128.116 202.813 127.965 202.999 127.988C203.228 128.007 203.448 128.083 203.639 128.209C203.814 128.338 203.814 128.757 203.639 129.049L205.466 126.135L205.571 126.671L204.093 129.596C204.093 129.596 204.605 131.17 204.582 131.228C204.477 131.422 204.339 131.596 204.174 131.741C204.063 131.778 203.96 131.838 203.872 131.916C203.872 131.916 203.29 133.419 203.243 133.536C203.197 133.653 203.243 134.165 203.243 134.294C203.243 134.422 203.325 134.911 203.243 135.04C203.236 135.227 203.197 135.413 203.127 135.587C203.034 135.739 202.522 135.774 202.452 135.751C202.382 135.727 201.987 135.669 202.033 135.564C202.104 135.386 202.162 135.203 202.208 135.016C202.208 134.946 202.022 134.422 202.01 134.364C201.998 134.305 201.765 133.827 201.765 133.827C201.765 133.827 201.87 133.501 201.661 133.361C201.451 133.221 201.125 132.405 201.009 132.196C200.896 131.881 200.833 131.551 200.823 131.217C200.823 131.217 201.23 131.217 200.823 130.645C200.688 130.395 200.649 130.104 200.713 129.828C200.778 129.551 200.941 129.307 201.172 129.142C201.379 129.051 201.568 128.925 201.731 128.769L201.882 128.652L201.521 125.202Z" fill="#1D1D1B"/>
<path d="M211.505 96.0405C211.505 96.2853 205.256 120.645 205.256 120.645L211.505 96.0405Z" fill="#1D1D1B"/>
<path d="M201.754 125.645L201.742 125.634L200.241 122.335L199.485 95.8307H199.496L200.253 122.335L201.754 125.622L208.782 96.5883H208.794L201.754 125.645Z" fill="#1D1D1B"/>
<path d="M206.313 96.5723L201.603 125.964L201.614 125.966L206.325 96.5741L206.313 96.5723Z" fill="#1D1D1B"/>
<path d="M164.075 119.643C163.54 118.745 161.398 113.908 160.852 113.733C160.305 113.559 152.264 109.794 151.729 109.794C151.193 109.794 142.605 107.812 141.535 107.812C140.464 107.812 127.397 108.535 126.151 108.896C124.906 109.258 119.891 112.836 118.82 113.908C117.75 114.981 111.478 119.643 111.478 119.643C109.686 123.046 112.374 139.352 113.095 140.972C113.817 142.592 116.493 143.839 117.389 145.086C118.285 146.334 127.943 145.809 129.91 145.086C131.877 144.364 137.067 144.376 138.847 144.189C140.627 144.003 145.468 145.086 148.156 145.086H154.952C154.952 145.086 160.677 142.219 161.398 140.972C162.594 138.959 163.496 136.785 164.075 134.515C164.424 132.37 164.599 120.54 164.075 119.643ZM112.874 130.669C112.7 130.133 112.071 124.305 112.071 124.305C112.071 124.305 114.759 125.832 115.108 127.347C115.63 128.931 116.05 130.546 116.365 132.184C116.365 133.175 116.726 134.433 116.365 134.165C115.096 133.11 113.928 131.94 112.874 130.669ZM116.098 138.909H118.425L119.495 141.951L116.098 138.909ZM156.709 141.951L157.954 137.569L159.932 138.909L156.709 141.951ZM161.27 124.934C160.209 126.717 158.982 128.395 157.605 129.946C157.605 129.946 159.118 122.149 159.572 121.612C160.025 121.076 162.248 119.013 162.248 119.013L162.969 120.54C162.518 122.044 161.958 123.512 161.294 124.934H161.27Z" fill="black"/>
<path d="M137.718 182.99C137.852 182.645 137.942 182.285 137.986 181.918L137.369 179.715H137.671L138.439 182.046C138.439 182.046 138.439 181.172 138.882 181.113C139.324 181.055 139.603 180.997 139.731 181.113C139.859 181.23 140.138 181.218 140.231 181.428C140.325 181.638 140.499 181.801 140.476 182.069C140.439 182.277 140.36 182.476 140.243 182.652L140.476 182.57L141.081 179.074H141.372C141.372 179.074 140.825 182.069 140.825 182.36C140.825 182.652 140.825 182.815 140.825 183.083C140.873 183.333 140.873 183.59 140.825 183.841C140.75 184.074 140.727 184.32 140.755 184.563C140.755 184.785 140.93 184.493 140.93 185.484C140.996 186.053 140.961 186.629 140.825 187.186C140.685 187.337 140.825 188.456 140.755 188.654C140.685 188.852 140.325 190.251 140.266 190.426L139.522 192.337C139.522 192.337 139.207 192.71 139.149 192.71C139.091 192.71 138.207 192.314 138.207 192.314L138.335 191.51C138.199 190.962 138.102 190.405 138.044 189.843C138.044 189.529 138.044 187.652 138.044 187.652C137.878 187.281 137.765 186.889 137.706 186.486C137.706 186.125 137.869 185.321 137.706 185.123C137.526 184.796 137.432 184.428 137.434 184.055C137.436 183.681 137.534 183.315 137.718 182.99Z" fill="#1D1D1B"/>
<path d="M132.936 171.16C132.936 171.16 134.506 169.097 134.634 169.015C135.505 168.612 136.424 168.326 137.369 168.164C138.032 168.164 144.025 168.794 144.025 168.794L145.189 170.67L143.49 169.994L142.687 170.402C142.687 170.402 143.269 171.789 143.001 171.568C142.733 171.346 139.51 170.262 139.51 170.262H138.253C138.253 170.262 135.705 171.521 135.926 171.078C136.07 170.697 136.19 170.308 136.287 169.912L134.146 170.612L132.936 171.16Z" fill="#1D1D1B"/>
<path d="M137.695 180.134L119.495 145.751L119.554 145.716L137.52 179.68L129.677 143.839L129.747 143.828L137.695 180.134Z" fill="#1D1D1B"/>
<path d="M141.116 179.423L145.689 143.828L145.759 143.839L141.244 178.875L154.638 143.828L154.707 143.851L141.116 179.423Z" fill="#1D1D1B"/>
<path d="M139.766 168.863H137.334V168.84L132.901 143.839L132.97 143.828L137.392 168.794H139.708L140.779 143.385H140.837L139.766 168.863Z" fill="#1D1D1B"/>
<path d="M559.262 25.3622L563.521 38.5211L566 39.4186L565.104 40.0363L551.827 41.6215C551.827 41.6215 555.318 41.4816 556.924 43.2066L558.332 43.9642H560.391C560.391 43.9642 561.671 45.2113 561.671 45.7242C561.671 46.237 562.288 49.314 559.984 50.1998C558.954 50.5936 557.845 50.7374 556.749 50.6194C555.799 50.7181 554.839 50.655 553.91 50.4329C553.91 50.4329 551.489 53.9296 550.244 54.3608C547.445 55.2237 544.538 55.6867 541.61 55.7361C538.666 55.6313 529.17 55.8644 529.17 55.8644C529.17 55.8644 518.535 56.4471 517.185 56.1674C515.835 55.8877 511.716 55.2 511.611 55.165C511.506 55.1301 492.224 51.1323 489.42 50.1182C486.616 49.1042 481.647 47.2277 481.379 47.1578C481.112 47.0878 476.562 45.3046 476.562 45.3046L475.398 45.9223L466.322 43.2998L465.274 41.9595L454.988 38.0432V37.1108L464.297 36.2133L465.088 35.4907L470.01 35.5956L469.289 35.211L465.228 34.6981L453.033 19.6394L450.065 20.9797H448.076C447.866 20.9797 445.667 20.7 445.667 20.7L443.805 20.9098L449.623 14.9073L448.11 13.462L445.422 12.6345L443.77 10.3617L444.457 9.91875H449.414L443.945 0H449.076L449.518 0.512838L451.718 0.897466L463.354 10.4083L466.322 10.8162C466.765 10.8965 467.201 11.0134 467.625 11.1659C467.73 11.2708 468.591 11.7137 468.87 12.2032C469.149 12.6927 470.034 14.5343 470.034 14.5343C470.034 14.5343 484.824 35.4091 486.581 36.5164C486.581 36.5164 517.127 40.8172 519.396 41.097C521.665 41.3767 527.937 41.2368 527.937 41.2368C527.937 41.2368 537.432 40.5492 537.77 40.4093C538.107 40.2694 543.96 39.5118 543.96 39.5118L556.691 38.3463L555.248 37.7985L558.204 37.6586L557.657 25.3971L559.262 25.3622Z" fill="#1D1D1B"/>
</svg>
