<svg width="34" height="34" viewBox="0 0 34 34" fill="none" xmlns="http://www.w3.org/2000/svg">
<path d="M29.0195 0L4.98047 0C2.23447 0 0 2.23447 0 4.98047L0 29.0195C0 31.7655 2.23447 34 4.98047 34H15.0078L15.0078 21.9805L11.0234 21.9805L11.0234 16.0039L15.0078 16.0039V11.9531C15.0078 8.65746 17.6887 5.97656 20.9844 5.97656L27.0273 5.97656L27.0273 11.9531H20.9844V16.0039H27.0273L26.0312 21.9805H20.9844L20.9844 34L29.0195 34C31.7655 34 34 31.7655 34 29.0195L34 4.98047C34 2.23447 31.7655 0 29.0195 0Z" fill="white"/>
</svg>
