<svg width="28" height="28" viewBox="0 0 28 28" fill="none" xmlns="http://www.w3.org/2000/svg">
<path d="M25.1997 24.2037L23.5964 6.14969C23.562 5.74888 23.2242 5.4454 22.8291 5.4454H19.531C19.4851 2.43354 17.023 0 13.9997 0C10.9764 0 8.51419 2.43354 8.46838 5.4454H5.17022C4.76941 5.4454 4.4373 5.74888 4.40294 6.14969L2.79967 24.2037C2.79967 24.2266 2.79395 24.2495 2.79395 24.2724C2.79395 26.328 4.67779 28 6.99681 28H21.0025C23.3215 28 25.2054 26.328 25.2054 24.2724C25.2054 24.2495 25.2054 24.2266 25.1997 24.2037ZM13.9997 1.54601C16.1698 1.54601 17.9391 3.28671 17.9849 5.4454H10.0144C10.0602 3.28671 11.8295 1.54601 13.9997 1.54601ZM21.0025 26.454H6.99681C5.54241 26.454 4.36286 25.492 4.33996 24.3067L5.87452 6.99714H8.46266V9.34478C8.46266 9.77423 8.80621 10.1178 9.23566 10.1178C9.66511 10.1178 10.0087 9.77423 10.0087 9.34478V6.99714H17.9849V9.34478C17.9849 9.77423 18.3285 10.1178 18.7579 10.1178C19.1874 10.1178 19.531 9.77423 19.531 9.34478V6.99714H22.1191L23.6594 24.3067C23.6365 25.492 22.4512 26.454 21.0025 26.454Z" fill="white"/>
</svg>
