<svg width="27" height="27" viewBox="0 0 27 27" fill="none" xmlns="http://www.w3.org/2000/svg">
<g clip-path="url(#clip0)">
<path d="M13.1323 0.572366L1.47978 6.19765C1.33371 6.26815 1.24084 6.41613 1.24084 6.57834V20.4203C1.24084 20.5825 1.33371 20.7304 1.47978 20.801L13.1323 26.4264C13.3646 26.5386 13.6352 26.5386 13.8675 26.4264L25.52 20.8011C25.6661 20.7306 25.759 20.5826 25.759 20.4204V6.57839C25.759 6.41618 25.6661 6.26826 25.52 6.1977L13.8675 0.572366C13.6352 0.460253 13.3646 0.460253 13.1323 0.572366Z" fill="#FFE17D"/>
<path d="M1.31114 6.34766C1.26668 6.41531 1.24084 6.49494 1.24084 6.57905V20.421C1.24084 20.5833 1.33371 20.7312 1.47978 20.8017L13.1323 26.4272C13.2485 26.4832 13.3742 26.5113 13.4999 26.5113V12.2319L1.31114 6.34766Z" fill="#FFC350"/>
<path d="M25.6888 6.34766C25.7332 6.41531 25.7591 6.49494 25.7591 6.57905V20.421C25.7591 20.5833 25.6662 20.7312 25.5201 20.8017L13.8676 26.4272C13.7514 26.4832 13.6257 26.5113 13.5 26.5113V12.2319L25.6888 6.34766Z" fill="#FFD164"/>
<path d="M21.5588 8.33477L9.32719 2.42578L6.10291 3.98862L18.3619 9.90684L21.5588 8.33477Z" fill="#FF8087"/>
<path d="M18.3611 9.90605V14.4908C18.3611 14.6466 18.524 14.7489 18.6644 14.6811L21.319 13.3995C21.4651 13.329 21.5579 13.1811 21.5579 13.0189V8.33398L18.3611 9.90605Z" fill="#E6646E"/>
<path d="M25.9315 5.95738L13.6725 0.0393135C13.5638 -0.0131045 13.4372 -0.0131045 13.3286 0.0393135L1.06949 5.95738C0.932801 6.02335 0.845947 6.16177 0.845947 6.31354V20.6862C0.845947 20.838 0.932801 20.9764 1.06949 21.0424L13.3285 26.9606C13.3829 26.9868 13.4417 26.9999 13.5005 26.9999C13.5593 26.9999 13.6181 26.9868 13.6725 26.9606L25.9315 21.0424C26.0682 20.9764 26.1551 20.838 26.1551 20.6862V6.3136C26.1551 6.16177 26.0682 6.0234 25.9315 5.95738ZM13.5005 0.834653L24.8498 6.3136L21.5599 7.90185C21.5391 7.88598 21.5171 7.87132 21.4929 7.85966L10.2207 2.418L13.5005 0.834653ZM9.32748 2.86519L20.6603 8.33617L18.3392 9.45672L7.01107 3.98791L9.32748 2.86519ZM18.7574 10.1332L20.9255 9.08653V13.2286L18.7574 14.2753V10.1332ZM13.896 25.9743V12.48L16.6315 11.1594C16.8282 11.0644 16.9107 10.828 16.8157 10.6313C16.7207 10.4346 16.4843 10.352 16.2876 10.4471L13.5005 11.7926L12.4038 11.2631C12.2071 11.1681 11.9707 11.2506 11.8757 11.4473C11.7807 11.644 11.8632 11.8805 12.0599 11.9755L13.105 12.48V25.9743L1.63696 20.438V6.94367L10.3698 11.1595C10.4252 11.1863 10.4838 11.199 10.5414 11.199C10.6884 11.199 10.8297 11.1166 10.8979 10.9753C10.9928 10.7786 10.9104 10.5422 10.7137 10.4472L2.15118 6.31354L6.08015 4.41679L17.9609 10.1524C17.9626 10.1548 17.9646 10.157 17.9664 10.1594V14.9054C17.9664 15.0415 18.0363 15.168 18.1516 15.2404C18.2156 15.2806 18.2887 15.3009 18.3619 15.3009C18.4206 15.3009 18.4794 15.2879 18.5338 15.2616L21.4929 13.833C21.6296 13.7671 21.7165 13.6287 21.7165 13.4769V8.70468L25.3641 6.94377V20.4381L13.896 25.9743Z" fill="black"/>
<path d="M4.90005 18.9041L3.10101 18.0356C2.90421 17.9405 2.66785 18.0231 2.57288 18.2198C2.4779 18.4165 2.56038 18.6529 2.75708 18.7479L4.55611 19.6164C4.61154 19.6432 4.67013 19.6558 4.72776 19.6558C4.87479 19.6558 5.01601 19.5735 5.0842 19.4322C5.17922 19.2354 5.09675 18.999 4.90005 18.9041Z" fill="black"/>
<path d="M6.55616 17.8271L3.10391 16.1605C2.90716 16.0655 2.67075 16.148 2.57578 16.3448C2.48085 16.5415 2.56333 16.7779 2.76003 16.8729L6.21228 18.5395C6.26771 18.5663 6.3263 18.579 6.38393 18.579C6.53096 18.579 6.67218 18.4966 6.74037 18.3553C6.83534 18.1586 6.75286 17.9221 6.55616 17.8271Z" fill="black"/>
</g>
<defs>
<clipPath id="clip0">
<rect width="27" height="27" fill="white"/>
</clipPath>
</defs>
</svg>
