<svg width="33" height="33" viewBox="0 0 33 33" fill="none" xmlns="http://www.w3.org/2000/svg">
<g clip-path="url(#clip0_506_423)">
<path d="M13.1199 22.2364L17.6773 8.5638C17.8461 8.05727 17.5724 7.50974 17.0659 7.34087C16.5594 7.17207 16.0118 7.4458 15.8429 7.95234L11.2855 21.625C11.1166 22.1315 11.3904 22.679 11.8969 22.8479C11.9983 22.8817 12.1014 22.8977 12.2027 22.8977C12.6075 22.8978 12.9848 22.6416 13.1199 22.2364Z" fill="black"/>
<path d="M19.9504 17.9961C21.5497 17.9961 22.8508 16.695 22.8508 15.0957C22.8508 13.4964 21.5497 12.1953 19.9504 12.1953C18.3512 12.1953 17.05 13.4964 17.05 15.0957C17.05 16.695 18.3512 17.9961 19.9504 17.9961ZM19.9504 14.1289C20.4835 14.1289 20.9172 14.5626 20.9172 15.0957C20.9172 15.6288 20.4835 16.0625 19.9504 16.0625C19.4173 16.0625 18.9836 15.6288 18.9836 15.0957C18.9836 14.5626 19.4173 14.1289 19.9504 14.1289Z" fill="black"/>
<path d="M9.01221 12.1953C7.41293 12.1953 6.11182 13.4964 6.11182 15.0957C6.11182 16.695 7.41293 17.9961 9.01221 17.9961C10.6115 17.9961 11.9126 16.695 11.9126 15.0957C11.9126 13.4964 10.6115 12.1953 9.01221 12.1953ZM9.01221 16.0625C8.47911 16.0625 8.04541 15.6288 8.04541 15.0957C8.04541 14.5626 8.47911 14.1289 9.01221 14.1289C9.5453 14.1289 9.979 14.5626 9.979 15.0957C9.979 15.6288 9.54536 16.0625 9.01221 16.0625Z" fill="black"/>
<path d="M32.8069 11.9883L29.4355 7.49311L29.5671 6.57253C29.6101 6.27127 29.5088 5.96731 29.2936 5.75217L27.2427 3.70127L29.2935 1.65037C29.6711 1.27287 29.6711 0.660693 29.2935 0.283126C28.916 -0.0943755 28.3038 -0.0943755 27.9263 0.283126L25.8754 2.33402L23.8246 0.283126C23.6094 0.0679175 23.3054 -0.0330161 23.0042 0.00965184L13.4334 1.3769C13.2263 1.40648 13.0344 1.50245 12.8865 1.65037L1.03689 13.4999C-0.345305 14.8821 -0.345305 17.1311 1.03689 18.5132L11.0634 28.5398C11.2685 28.7449 11.4931 28.9189 11.7307 29.0631V29.4551C11.7307 31.4097 13.3209 33 15.2756 33H29.4553C31.41 33 33.0002 31.4097 33.0002 29.4551V12.5683C33.0002 12.3592 32.9324 12.1556 32.8069 11.9883ZM2.40414 17.146C1.77585 16.5177 1.77585 15.4955 2.40414 14.8672L14.0258 3.24552L22.799 1.99223L24.5081 3.70133L23.1409 5.06858L22.4572 4.38492C22.0797 4.00742 21.4676 4.00742 21.09 4.38492C20.7124 4.76242 20.7124 5.3746 21.09 5.75217L23.8246 8.48672C24.0133 8.6755 24.2608 8.76993 24.5081 8.76993C24.7555 8.76993 25.003 8.6755 25.1917 8.48672C25.5693 8.10922 25.5693 7.49704 25.1917 7.11948L24.5081 6.43582L25.8753 5.06858L27.5844 6.77768L26.3311 15.5509L14.7095 27.1726C14.4051 27.4769 14.0005 27.6445 13.5701 27.6445C13.1396 27.6445 12.735 27.4769 12.4307 27.1726L2.40414 17.146ZM31.0666 29.4551C31.0666 30.3435 30.3438 31.0664 29.4553 31.0664H15.2756C14.4272 31.0664 13.7303 30.4072 13.6691 29.574C14.5436 29.5498 15.4108 29.2058 16.0766 28.5398L27.9262 16.6903C28.0741 16.5423 28.1701 16.3505 28.1997 16.1434L29.0487 10.2001L31.0666 12.8906V29.4551Z" fill="black"/>
</g>
<defs>
<clipPath id="clip0_506_423">
<rect width="33" height="33" fill="white"/>
</clipPath>
</defs>
</svg>
