<svg width="21" height="21" viewBox="0 0 21 21" fill="none" xmlns="http://www.w3.org/2000/svg">
<path d="M18.0392 6.9732H13.7158V4.00809C13.7158 2.58553 13.2916 1.55288 12.4517 0.940149C11.132 -0.0282253 9.33667 0.515949 9.25954 0.541658C8.95532 0.635925 8.74536 0.923009 8.74536 1.24437V4.82221C8.74536 7.47025 5.63028 8.39149 5.49745 8.42577C5.48888 8.43005 5.48031 8.43005 5.47603 8.43433L5.12038 8.54574C4.71761 8.16439 4.17772 7.93301 3.58641 7.93301H2.23669C1.00265 7.92872 0 8.93138 0 10.1654V17.861C0 19.095 1.00265 20.0977 2.23669 20.0977H3.58641C4.15629 20.0977 4.67905 19.8834 5.07325 19.5278C5.63885 20.2005 6.48725 20.6333 7.4342 20.6333H16.1924C18.2234 20.6333 19.5731 19.5192 19.8088 17.6553L20.8972 10.821L20.9572 10.4525C20.9829 10.2811 21 10.1054 21 9.92974C20.9957 8.3015 19.6674 6.9732 18.0392 6.9732ZM4.3534 17.8653C4.3534 18.2895 4.01061 18.6323 3.58641 18.6323H2.23669C1.81249 18.6323 1.4697 18.2895 1.4697 17.8653V10.1654C1.4697 9.74121 1.81249 9.39842 2.23669 9.39842H3.58641C4.01061 9.39842 4.3534 9.74121 4.3534 10.1654V17.8653ZM19.5046 10.2254L18.3563 17.4411C18.3563 17.4496 18.352 17.4582 18.352 17.4668C18.3005 17.8867 18.1463 19.1679 16.1924 19.1679H7.4342C6.54724 19.1679 5.8231 18.4437 5.8231 17.5568V10.1654C5.8231 10.0669 5.81453 9.96831 5.80167 9.86976L5.90879 9.83548C6.22159 9.7455 10.2151 8.52003 10.2151 4.81793V1.84853C10.6393 1.80569 11.1963 1.83568 11.5862 2.12705C12.0233 2.4527 12.2461 3.08257 12.2461 4.00809V7.7102C12.2461 8.11726 12.576 8.44719 12.9831 8.44719H18.0392C18.8619 8.44719 19.526 9.11562 19.526 9.93403C19.526 10.0283 19.5174 10.1268 19.5046 10.2254Z" fill="white"/>
</svg>
