<svg width="20" height="20" viewBox="0 0 20 20" fill="none" xmlns="http://www.w3.org/2000/svg">
<path d="M14.0129 6.56611C13.4295 6.56611 12.8587 6.64915 12.3084 6.81267C12.3302 6.60228 12.3415 6.3888 12.3415 6.17275C12.3415 5.18411 12.1146 4.23946 11.6671 3.36512C11.5688 3.17309 11.3335 3.09712 11.1415 3.19536C10.9495 3.29368 10.8735 3.52895 10.9717 3.72098C11.3623 4.48407 11.5603 5.30896 11.5603 6.17271C11.5603 9.14459 9.14252 11.5623 6.17068 11.5623C5.47786 11.5623 4.80309 11.4326 4.16524 11.1766C4.02012 11.1185 3.85423 11.1524 3.74364 11.263L2.89008 12.1166V10.6375C2.89008 10.5208 2.83786 10.4101 2.74774 10.3359C1.49793 9.30705 0.781095 7.78962 0.781095 6.17271C0.781095 3.20083 3.19887 0.783087 6.17071 0.783087C6.88802 0.783087 7.58443 0.921603 8.24064 1.19481C8.45236 1.28293 8.66068 1.38586 8.85978 1.50075C9.04658 1.60848 9.28541 1.54446 9.39322 1.35762C9.50099 1.17082 9.43693 0.931955 9.2501 0.824181C9.02205 0.692658 8.78341 0.574689 8.54088 0.473712C7.78908 0.160703 6.99165 0.00195312 6.17075 0.00195312C2.76821 0.00195312 0 2.77016 0 6.17271C0 7.96166 0.766212 9.64416 2.10899 10.8182V13.0594C2.10899 13.2174 2.20418 13.3598 2.35008 13.4203C2.3984 13.4403 2.44915 13.45 2.49946 13.45C2.6011 13.45 2.70098 13.4103 2.77571 13.3356L4.11794 11.9934C4.77606 12.2258 5.46532 12.3434 6.17075 12.3434C6.82482 12.3434 7.45525 12.2408 8.04724 12.0514C8.0333 12.2182 8.02588 12.3857 8.02588 12.5531C8.02588 13.4674 8.2267 14.3451 8.62275 15.1621C8.69029 15.3012 8.82947 15.3823 8.97443 15.3823C9.03162 15.3823 9.08967 15.3697 9.14455 15.3431C9.33861 15.249 9.41967 15.0153 9.32556 14.8212C8.98142 14.1115 8.80693 13.3484 8.80693 12.5531C8.80693 12.2738 8.8297 11.9941 8.87404 11.7189C10.4842 10.9309 11.7028 9.46217 12.1525 7.6899C12.7454 7.46263 13.3702 7.3472 14.0129 7.3472C16.8835 7.3472 19.2189 9.6826 19.2189 12.5531C19.2189 14.1478 18.5023 15.633 17.2529 16.6279C17.1598 16.702 17.1056 16.8144 17.1056 16.9334V18.6649L16.0358 17.5951C15.9316 17.4909 15.7777 17.4543 15.6378 17.5002C15.1144 17.672 14.5677 17.7591 14.0129 17.7591C13.2191 17.7591 12.4572 17.5852 11.7484 17.2422C11.5544 17.1483 11.3207 17.2295 11.2267 17.4237C11.1328 17.6178 11.214 17.8514 11.4082 17.9453C12.2239 18.34 13.1003 18.5402 14.0129 18.5402C14.5691 18.5402 15.1185 18.4639 15.6494 18.3132L17.22 19.8839C17.2948 19.9586 17.3946 19.9982 17.4963 19.9982C17.5466 19.9982 17.5974 19.9885 17.6457 19.9685C17.7916 19.908 17.8868 19.7657 17.8868 19.6077V17.1178C19.2323 15.9763 20 14.3234 20 12.5531C20 9.25189 17.3142 6.56611 14.0129 6.56611Z" fill="black"/>
<path d="M10.3867 16.2892C10.3747 16.2777 10.3628 16.266 10.351 16.2543C10.1979 16.1024 9.95053 16.1036 9.79869 16.2567C9.64686 16.4099 9.64799 16.6572 9.80116 16.809C9.81494 16.8227 9.82877 16.8362 9.84268 16.8497C9.91858 16.9234 10.0167 16.96 10.1147 16.96C10.2166 16.96 10.3184 16.9203 10.395 16.8415C10.5452 16.6867 10.5415 16.4394 10.3867 16.2892Z" fill="black"/>
<path d="M10.7001 1.98074C10.5305 1.79976 10.2843 1.82648 10.1442 1.95695C10.0042 2.0873 9.95995 2.33101 10.1284 2.51308C10.1295 2.51433 10.1307 2.51562 10.1319 2.51687C10.2162 2.60558 10.3187 2.64359 10.4178 2.64359C10.5195 2.64359 10.6174 2.60347 10.688 2.53699C10.8271 2.40566 10.8697 2.16168 10.7001 1.98074Z" fill="black"/>
<path d="M4.47137 4.8249C4.39871 4.75225 4.29832 4.71045 4.19524 4.71045C4.0925 4.71045 3.99176 4.75225 3.9191 4.8249C3.84648 4.89752 3.80469 4.99826 3.80469 5.101C3.80469 5.20373 3.84648 5.30447 3.9191 5.37713C3.99176 5.44979 4.0925 5.49154 4.19524 5.49154C4.29797 5.49154 4.39871 5.44979 4.47137 5.37713C4.54442 5.30447 4.58578 5.20373 4.58578 5.101C4.58578 4.99826 4.54438 4.89748 4.47137 4.8249Z" fill="black"/>
<path d="M8.42254 4.8249C8.34992 4.75225 8.24918 4.71045 8.14641 4.71045C8.04328 4.71045 7.94254 4.75225 7.86992 4.8249C7.79727 4.89752 7.75586 4.99826 7.75586 5.101C7.75586 5.20373 7.7973 5.30447 7.86992 5.37713C7.94293 5.44979 8.04367 5.49154 8.14641 5.49154C8.24914 5.49154 8.34949 5.44979 8.42254 5.37713C8.4952 5.30447 8.53695 5.20373 8.53695 5.101C8.53695 4.99826 8.49524 4.89748 8.42254 4.8249Z" fill="black"/>
<path d="M7.6654 7.13205C7.45689 7.07623 7.24294 7.20021 7.18728 7.40857C7.06431 7.869 6.64599 8.19057 6.17001 8.19057C5.69403 8.19057 5.27575 7.869 5.15274 7.40857C5.09708 7.20017 4.88305 7.07619 4.67462 7.13205C4.46622 7.18775 4.34243 7.40177 4.39809 7.61017C4.61227 8.41182 5.34087 8.97166 6.17001 8.97166C6.99911 8.97166 7.72775 8.41182 7.94193 7.61017C7.99759 7.40173 7.8738 7.18771 7.6654 7.13205Z" fill="black"/>
<path d="M12.3795 11.2321C12.3069 11.1594 12.2066 11.1177 12.1034 11.1177C12.0007 11.1177 11.9 11.1594 11.8273 11.2321C11.7546 11.3048 11.7129 11.4055 11.7129 11.5082C11.7129 11.6113 11.7546 11.7117 11.8273 11.7843C11.9 11.857 12.0007 11.8988 12.1034 11.8988C12.2066 11.8988 12.3069 11.857 12.3795 11.7843C12.4526 11.7117 12.494 11.611 12.494 11.5082C12.494 11.4055 12.4526 11.3047 12.3795 11.2321Z" fill="black"/>
<path d="M16.1979 11.2321C16.1253 11.1594 16.0249 11.1177 15.9218 11.1177C15.8191 11.1177 15.7183 11.1594 15.6457 11.2321C15.573 11.3047 15.5312 11.4055 15.5312 11.5082C15.5312 11.6113 15.573 11.7117 15.6457 11.7843C15.7183 11.857 15.8191 11.8988 15.9218 11.8988C16.0249 11.8987 16.1253 11.8569 16.1979 11.7843C16.2705 11.7117 16.3123 11.611 16.3123 11.5082C16.3123 11.4055 16.2706 11.3047 16.1979 11.2321Z" fill="black"/>
<path d="M15.7397 14.7721C15.5312 13.9915 14.8216 13.4463 14.0142 13.4463C13.2069 13.4463 12.4973 13.9915 12.2887 14.7721C12.233 14.9805 12.3569 15.1945 12.5653 15.2502C12.7738 15.3061 12.9877 15.1821 13.0434 14.9737C13.1608 14.5343 13.5601 14.2274 14.0142 14.2274C14.4685 14.2274 14.8677 14.5343 14.9851 14.9737C15.0317 15.1484 15.1896 15.2636 15.3621 15.2636C15.3955 15.2636 15.4294 15.2593 15.4632 15.2502C15.6716 15.1945 15.7954 14.9805 15.7397 14.7721Z" fill="black"/>
</svg>
