<svg width="33" height="33" viewBox="0 0 33 33" fill="none" xmlns="http://www.w3.org/2000/svg">
<g clip-path="url(#clip0_514_513)">
<path d="M33 4.10078C33 3.8333 32.7831 3.61644 32.5157 3.61644H0.484344C0.216857 3.61644 0 3.8333 0 4.10078V12.3669C0 12.6344 0.216857 12.8513 0.484344 12.8513H14.5055L0.262192 20.2027C0.103004 20.2849 0 20.4538 0 20.6331V28.8992C0 29.1667 0.216857 29.3836 0.484344 29.3836H24.5387C24.8062 29.3836 25.023 29.1667 25.023 28.8992C25.023 28.6317 24.8062 28.4149 24.5387 28.4149H0.968689V21.1174H3.61644V22.6996C3.61644 22.9671 3.8333 23.184 4.10078 23.184C4.36827 23.184 4.58513 22.9671 4.58513 22.6996V21.1174H9.81605V24.7661C9.81605 25.0336 10.0329 25.2505 10.3004 25.2505C10.5679 25.2505 10.7847 25.0336 10.7847 24.7661V21.1174H16.0157V22.6996C16.0157 22.9671 16.2325 23.184 16.5 23.184C16.7675 23.184 16.9843 22.9671 16.9843 22.6996V21.1174H22.2153V24.7661C22.2153 25.0336 22.4321 25.2505 22.6996 25.2505C22.9671 25.2505 23.184 25.0336 23.184 24.7661V21.1174H28.4149V22.6996C28.4149 22.9671 28.6317 23.184 28.8992 23.184C29.1667 23.184 29.3836 22.9671 29.3836 22.6996V21.1174H32.0313V28.4149H26.8973C26.6298 28.4149 26.4129 28.6317 26.4129 28.8992C26.4129 29.1667 26.6298 29.3836 26.8973 29.3836H32.5157C32.7831 29.3836 33 29.1667 33 28.8992V20.6331C33 20.3656 32.7831 20.1487 32.5157 20.1487H18.4945L32.7378 12.7973C32.8968 12.7149 33 12.5463 33 12.3669V4.10078ZM32.0313 11.8826H5.6184V10.3004C5.6184 10.0329 5.40154 9.81605 5.13405 9.81605C4.26165 9.81605 3.55186 9.10626 3.55186 8.23386C3.55186 7.36146 4.26165 6.65167 5.13405 6.65167C5.40154 6.65167 5.6184 6.43481 5.6184 6.16732V4.58513H9.81605V6.16732C9.81605 6.43481 10.0329 6.65167 10.3004 6.65167C10.5679 6.65167 10.7847 6.43481 10.7847 6.16732V4.58513H16.0157V8.23386C16.0157 8.50134 16.2325 8.7182 16.5 8.7182C16.7675 8.7182 16.9843 8.50134 16.9843 8.23386V4.58513H22.2153V6.16732C22.2153 6.43481 22.4321 6.65167 22.6996 6.65167C22.9671 6.65167 23.184 6.43481 23.184 6.16732V4.58513H28.4149V8.23386C28.4149 8.50134 28.6317 8.7182 28.8992 8.7182C29.1667 8.7182 29.3836 8.50134 29.3836 8.23386V4.58513H32.0313V11.8826ZM0.968689 11.8826V4.58513H4.64971V5.72909C3.47391 5.95595 2.58317 6.99277 2.58317 8.23386C2.58317 9.47494 3.47391 10.5118 4.64971 10.7386V11.8826H0.968689ZM30.5212 12.8513C30.5212 12.8513 16.5021 20.1017 16.4624 20.1487H2.47881L16.6177 12.8513H30.5212Z" fill="black"/>
</g>
<defs>
<clipPath id="clip0_514_513">
<rect width="33" height="33" fill="white"/>
</clipPath>
</defs>
</svg>
