<svg width="64" height="64" viewBox="0 0 64 64" fill="none" xmlns="http://www.w3.org/2000/svg">
<path d="M32 0C14.3552 0 0 14.3552 0 32C0 39.728 2.75413 46.8245 7.33227 52.3605C7.344 52.3765 7.34507 52.3968 7.35787 52.4117C10.6635 56.3979 14.8149 59.4539 19.4411 61.4283C19.4944 61.4507 19.5467 61.4752 19.6 61.4976C19.9744 61.6555 20.3531 61.8016 20.7328 61.9445C20.8821 62.0011 21.0315 62.0587 21.1829 62.1131C21.5104 62.2304 21.84 62.3413 22.1717 62.448C22.384 62.5163 22.5963 62.5835 22.8107 62.6475C23.104 62.7349 23.3984 62.8192 23.6949 62.8992C23.9552 62.9696 24.2176 63.0347 24.48 63.0976C24.7456 63.1616 25.0123 63.2256 25.28 63.2821C25.5787 63.3461 25.8805 63.4027 26.1835 63.4581C26.4267 63.5029 26.6688 63.5499 26.9141 63.5893C27.2501 63.6437 27.5883 63.6864 27.9275 63.7301C28.1461 63.7579 28.3637 63.7899 28.5835 63.8133C28.9675 63.8539 29.3547 63.8827 29.7429 63.9093C29.9232 63.9221 30.1024 63.9413 30.2837 63.9509C30.8501 63.9829 31.4229 64 32 64C32.5771 64 33.1499 63.9829 33.7184 63.9531C33.8997 63.9435 34.0789 63.9243 34.2592 63.9115C34.6475 63.8837 35.0347 63.856 35.4187 63.8155C35.6384 63.792 35.856 63.76 36.0747 63.7323C36.4139 63.6885 36.752 63.6459 37.088 63.5915C37.3323 63.552 37.5755 63.5051 37.8187 63.4603C38.1205 63.4048 38.4224 63.3483 38.7221 63.2843C38.9899 63.2267 39.2555 63.1637 39.5221 63.0997C39.7845 63.0357 40.0469 62.9707 40.3072 62.9013C40.6037 62.8224 40.8981 62.7371 41.1915 62.6496C41.4059 62.5856 41.6181 62.5184 41.8304 62.4501C42.1621 62.3435 42.4917 62.2325 42.8192 62.1152C42.9696 62.0608 43.1189 62.0032 43.2693 61.9467C43.6501 61.8037 44.0277 61.6565 44.4021 61.4997C44.4555 61.4773 44.5077 61.4528 44.5611 61.4304C49.1861 59.456 53.3387 56.4 56.6443 52.4139C56.6571 52.3989 56.6581 52.3776 56.6699 52.3627C61.2459 46.8245 64 39.728 64 32C64 14.3552 49.6448 0 32 0ZM44.9675 58.9013C44.9515 58.9088 44.9365 58.9173 44.9205 58.9248C44.5397 59.1083 44.1525 59.2811 43.7621 59.4496C43.6736 59.4869 43.5861 59.5253 43.4976 59.5627C43.1563 59.7056 42.8107 59.8411 42.4629 59.9712C42.3179 60.0256 42.1728 60.0789 42.0267 60.1301C41.7184 60.24 41.4091 60.3456 41.0965 60.4459C40.9024 60.5077 40.7072 60.5664 40.512 60.624C40.2347 60.7072 39.9563 60.7872 39.6747 60.8619C39.4379 60.9248 39.1989 60.9824 38.96 61.0389C38.7093 61.0987 38.4597 61.1595 38.2069 61.2128C37.9307 61.2715 37.6523 61.3216 37.3749 61.3717C37.1499 61.4133 36.9259 61.4571 36.6987 61.4933C36.3861 61.5424 36.0704 61.5819 35.7557 61.6213C35.5563 61.6469 35.3579 61.6768 35.1563 61.6981C34.7968 61.7365 34.4341 61.7611 34.0725 61.7867C33.9115 61.7973 33.7515 61.8155 33.5883 61.824C33.0603 61.8517 32.5312 61.8667 32 61.8667C31.4688 61.8667 30.9397 61.8517 30.4128 61.824C30.2507 61.8155 30.0907 61.7984 29.9285 61.7867C29.5659 61.7621 29.2043 61.7365 28.8448 61.6981C28.6432 61.6768 28.4448 61.6469 28.2453 61.6213C27.9307 61.5819 27.6149 61.5424 27.3024 61.4933C27.0752 61.4571 26.8512 61.4133 26.6261 61.3717C26.3477 61.3216 26.0693 61.2704 25.7941 61.2128C25.5413 61.1595 25.2907 61.0987 25.0411 61.0389C24.8021 60.9813 24.5632 60.9248 24.3264 60.8619C24.0459 60.7872 23.7664 60.7061 23.4891 60.624C23.2939 60.5664 23.0987 60.5077 22.9045 60.4459C22.592 60.3456 22.2816 60.24 21.9744 60.1301C21.8283 60.0779 21.6832 60.0245 21.5381 59.9712C21.1904 59.8411 20.8448 59.7056 20.5035 59.5627C20.4149 59.5264 20.3285 59.488 20.24 59.4507C19.8496 59.2832 19.4624 59.1093 19.0805 58.9259C19.0645 58.9184 19.0496 58.9109 19.0336 58.9024C15.312 57.1019 12.0245 54.5461 9.3568 51.4421C11.4187 43.8496 17.2555 37.7291 24.7648 35.2939C24.9131 35.3845 25.0677 35.4656 25.2203 35.5509C25.3099 35.6011 25.3984 35.6544 25.4891 35.7024C25.8069 35.8709 26.1291 36.0288 26.4587 36.1707C26.7115 36.2816 26.9728 36.3755 27.2331 36.4715C27.2843 36.4896 27.3355 36.5099 27.3867 36.528C28.8331 37.04 30.3808 37.3333 32 37.3333C33.6192 37.3333 35.1669 37.04 36.6123 36.528C36.6635 36.5099 36.7147 36.4896 36.7659 36.4715C37.0261 36.3755 37.2875 36.2816 37.5403 36.1707C37.8699 36.0288 38.192 35.8709 38.5099 35.7024C38.6005 35.6533 38.6891 35.6011 38.7787 35.5509C38.9312 35.4656 39.0869 35.3845 39.2363 35.2928C46.7456 37.7291 52.5813 43.8496 54.6443 51.4411C51.9765 54.544 48.6891 57.0997 44.9675 58.9013ZM20.2667 23.4667C20.2667 16.9973 25.5307 11.7333 32 11.7333C38.4693 11.7333 43.7333 16.9973 43.7333 23.4667C43.7333 27.5819 41.5989 31.2032 38.3829 33.2981C37.9627 33.5712 37.5253 33.8155 37.0763 34.0288C37.0229 34.0544 36.9707 34.0811 36.9173 34.1056C33.8283 35.5104 30.1717 35.5104 27.0827 34.1056C27.0293 34.0811 26.976 34.0544 26.9237 34.0288C26.4736 33.8155 26.0373 33.5712 25.6171 33.2981C22.4011 31.2032 20.2667 27.5819 20.2667 23.4667ZM56.2443 49.4112C53.8261 42.2709 48.3093 36.5003 41.2608 33.7589C44.08 31.2192 45.8667 27.552 45.8667 23.4667C45.8667 15.8208 39.6459 9.6 32 9.6C24.3541 9.6 18.1333 15.8208 18.1333 23.4667C18.1333 27.552 19.92 31.2192 22.7403 33.7589C15.6917 36.5013 10.1749 42.2709 7.7568 49.4112C4.22293 44.5056 2.13333 38.4939 2.13333 32C2.13333 15.5317 15.5317 2.13333 32 2.13333C48.4683 2.13333 61.8667 15.5317 61.8667 32C61.8667 38.4939 59.7771 44.5056 56.2443 49.4112Z" fill="black"/>
</svg>
