<svg width="33" height="33" viewBox="0 0 33 33" fill="none" xmlns="http://www.w3.org/2000/svg">
<g clip-path="url(#clip0_461_431)">
<path d="M16.3462 21.5195C15.4222 21.5195 14.6705 22.2712 14.6705 23.1952C14.6705 24.1192 15.4223 24.871 16.3462 24.871C17.2702 24.871 18.0219 24.1192 18.0219 23.1952C18.0219 22.2712 17.2703 21.5195 16.3462 21.5195ZM16.3462 23.582C16.1329 23.582 15.9595 23.4085 15.9595 23.1952C15.9595 22.982 16.1329 22.8085 16.3462 22.8085C16.5595 22.8085 16.7329 22.982 16.7329 23.1952C16.7329 23.4085 16.5595 23.582 16.3462 23.582Z" fill="black"/>
<path d="M21.5195 19.3842C21.3996 19.2643 21.2333 19.1953 21.0638 19.1953C20.8943 19.1953 20.728 19.2643 20.6081 19.3842C20.4876 19.504 20.4193 19.6703 20.4193 19.8398C20.4193 20.0094 20.4876 20.1757 20.6081 20.2955C20.728 20.4155 20.8943 20.4844 21.0638 20.4844C21.2333 20.4844 21.3996 20.4155 21.5195 20.2955C21.6394 20.1757 21.7083 20.0094 21.7083 19.8398C21.7083 19.6703 21.6394 19.504 21.5195 19.3842Z" fill="black"/>
<path d="M29.7775 9.2804H29.0826L19.9912 0.188963C19.7395 -0.0627263 19.3313 -0.0627263 19.0797 0.188963L16.7506 2.51811L7.4356 0.0221585C7.09174 -0.070074 6.73828 0.134049 6.64617 0.477907L4.2877 9.2804H2.70796C1.21535 9.2804 0.000991821 10.4947 0.000991821 11.9874C0.000991821 12.0231 0.00234534 12.0587 0.00369885 12.0941C0.00221643 12.1118 0.000991821 12.1296 0.000991821 12.1477V29.7775C0.000991821 31.5543 1.44668 33 3.22358 33H26.2971C26.3071 33 26.3169 32.9993 26.3269 32.9992H29.7774C31.5543 32.9992 33 31.5536 33 29.7766V12.5029C33 10.726 31.5544 9.2804 29.7775 9.2804ZM29.2017 10.5694H29.7775C30.8437 10.5694 31.711 11.4368 31.711 12.5029V17.6684C31.711 18.5107 31.0257 19.196 30.1834 19.196H29.5197V16.6278C29.5197 14.8733 28.1102 13.4428 26.3641 13.4069L29.2017 10.5694ZM17.399 3.6927C17.3991 3.69263 17.3991 3.69251 17.3992 3.69244L19.5355 1.55614L27.9638 9.98442L24.5639 13.3843H23.3848L24.927 11.842C25.1787 11.5903 25.1787 11.1822 24.927 10.9305C24.4053 10.4088 24.4053 9.55993 24.927 9.03818C25.1787 8.78649 25.1787 8.37838 24.927 8.12662L21.3932 4.59292C21.1415 4.34123 20.7334 4.34123 20.4816 4.59292C19.9599 5.11473 19.111 5.11473 18.5893 4.59292C18.3376 4.34123 17.9294 4.34123 17.6778 4.59292L8.88637 13.3844H7.70726L17.399 3.6927ZM15.5022 10.9629C14.0309 10.9629 12.7982 12.0018 12.4975 13.3844H10.7092L18.1901 5.90357C19.0158 6.39573 20.0551 6.39573 20.8808 5.90357L23.6163 8.63902C23.1242 9.46467 23.1242 10.5042 23.6163 11.3298L21.5617 13.3844H18.507C18.2063 12.0017 16.9736 10.9629 15.5022 10.9629ZM17.1642 13.3844H13.8405C14.102 12.722 14.7482 12.2519 15.5024 12.2519C16.2565 12.2519 16.9026 12.722 17.1642 13.3844ZM7.02606 12.2426L8.73291 5.8725C9.2009 5.88005 9.66645 5.76055 10.0834 5.51969C10.5004 5.27896 10.8359 4.93665 11.0642 4.52653L13.9649 5.30377L9.75539 9.51327L7.02606 12.2426ZM7.72454 1.43407L15.6981 3.57056L15.0174 4.25131L10.8518 3.13512C10.6866 3.09084 10.5107 3.11404 10.3627 3.1995C10.2147 3.28497 10.1067 3.42573 10.0624 3.59086C9.96989 3.93607 9.7485 4.22463 9.43899 4.40336C9.12942 4.58209 8.76881 4.62953 8.42353 4.53704C8.0798 4.44487 7.72628 4.64893 7.63417 4.99278L5.37999 13.4053H4.51684L7.72454 1.43407ZM2.70796 10.5694H3.94217L3.18227 13.4053H2.70789C1.92601 13.4053 1.28999 12.7692 1.28999 11.9874C1.29005 11.2055 1.92621 10.5694 2.70796 10.5694ZM31.711 29.7766C31.711 30.8428 30.8436 31.7102 29.7775 31.7102H28.874C29.2792 31.1713 29.5197 30.502 29.5197 29.7774V27.1879H29.9064C30.5796 27.1879 31.2026 26.9712 31.711 26.6047V29.7766ZM31.711 24.0943C31.711 25.0894 30.9014 25.8989 29.9064 25.8989H16.3716C14.879 25.8989 13.6647 24.6846 13.6647 23.192C13.6647 21.6993 14.879 20.485 16.3716 20.485H18.325C18.6809 20.485 18.9695 20.1964 18.9695 19.8405C18.9695 19.4846 18.6809 19.1959 18.325 19.1959H16.3716C14.1682 19.1959 12.3757 20.9885 12.3757 23.1919C12.3757 25.3953 14.1682 27.1879 16.3716 27.1879H28.2307V29.7773C28.2307 30.8335 27.3793 31.6948 26.3269 31.7109H4.38368V24.4529C4.38368 24.0969 4.09512 23.8083 3.73914 23.8083C3.38317 23.8083 3.09461 24.0969 3.09461 24.4529V31.7062C2.08837 31.6396 1.28999 30.8002 1.28999 29.7775V14.292C1.70268 14.5468 2.18834 14.6943 2.70789 14.6943H26.297C27.3632 14.6943 28.2306 15.5617 28.2306 16.6278V19.196H23.5704C23.2144 19.196 22.9259 19.4846 22.9259 19.8405C22.9259 20.1964 23.2144 20.4851 23.5704 20.4851H30.1834C30.7463 20.4851 31.2707 20.3184 31.711 20.0329V24.0943Z" fill="black"/>
<path d="M4.19436 21.4838C4.07448 21.364 3.90819 21.2949 3.73868 21.2949C3.56917 21.2949 3.40288 21.3639 3.28299 21.4838C3.16311 21.6037 3.09415 21.7699 3.09415 21.9395C3.09415 22.109 3.16311 22.2753 3.28299 22.3951C3.40288 22.515 3.56917 22.584 3.73868 22.584C3.90819 22.584 4.07448 22.515 4.19436 22.3951C4.31424 22.2753 4.38321 22.109 4.38321 21.9395C4.38314 21.7699 4.31418 21.6037 4.19436 21.4838Z" fill="black"/>
</g>
<defs>
<clipPath id="clip0_461_431">
<rect width="33" height="33" fill="white"/>
</clipPath>
</defs>
</svg>
