<svg width="30" height="30" viewBox="0 0 30 30" fill="none" xmlns="http://www.w3.org/2000/svg">
<g clip-path="url(#clip0_614_712)">
<path d="M14.8917 16.1648C14.9228 16.1648 14.9539 16.1648 14.9911 16.1648C15.0036 16.1648 15.016 16.1648 15.0284 16.1648C15.047 16.1648 15.0719 16.1648 15.0905 16.1648C16.9108 16.1338 18.3831 15.4939 19.4703 14.27C21.8621 11.5738 21.4645 6.95175 21.421 6.51066C21.2657 3.19942 19.7002 1.61524 18.408 0.875958C17.4451 0.323048 16.3206 0.0248499 15.0657 0H15.0222C15.016 0 15.0036 0 14.9973 0H14.9601C14.2705 0 12.9162 0.111824 11.6178 0.851108C10.3131 1.59039 8.72275 3.17457 8.56744 6.51066C8.52396 6.95175 8.12636 11.5738 10.5182 14.27C11.5991 15.4939 13.0715 16.1338 14.8917 16.1648ZM10.2262 6.66598C10.2262 6.64734 10.2324 6.6287 10.2324 6.61628C10.4374 2.16194 13.5995 1.68358 14.9539 1.68358H14.9787C14.9911 1.68358 15.0098 1.68358 15.0284 1.68358C16.7058 1.72085 19.5573 2.40422 19.7499 6.61628C19.7499 6.63491 19.7499 6.65355 19.7561 6.66598C19.7623 6.70946 20.1972 10.9339 18.2216 13.158C17.4388 14.0402 16.3952 14.475 15.0222 14.4875C15.0098 14.4875 15.0036 14.4875 14.9911 14.4875C14.9787 14.4875 14.9725 14.4875 14.9601 14.4875C13.5933 14.475 12.5434 14.0402 11.7669 13.158C9.79751 10.9464 10.22 6.70325 10.2262 6.66598Z" fill="black"/>
<path d="M27.7575 23.8904C27.7575 23.8842 27.7575 23.8779 27.7575 23.8717C27.7575 23.822 27.7513 23.7723 27.7513 23.7164C27.714 22.4863 27.6333 19.61 24.937 18.6905C24.9184 18.6843 24.8936 18.6781 24.8749 18.6719C22.0731 17.9575 19.7434 16.3422 19.7186 16.3236C19.3396 16.0564 18.8178 16.1496 18.5506 16.5286C18.2835 16.9076 18.3767 17.4294 18.7556 17.6965C18.8613 17.7711 21.3338 19.4919 24.4276 20.2871C25.8751 20.8028 26.0367 22.3497 26.0801 23.7661C26.0801 23.822 26.0801 23.8717 26.0864 23.9214C26.0926 24.4805 26.0553 25.3441 25.9559 25.8411C24.9495 26.4126 21.0046 28.3882 15.0033 28.3882C9.02692 28.3882 5.05715 26.4064 4.04452 25.8349C3.94512 25.3379 3.90163 24.4743 3.91406 23.9152C3.91406 23.8655 3.92027 23.8158 3.92027 23.7599C3.96376 22.3435 4.12528 20.7966 5.57278 20.2809C8.66659 19.4857 11.1392 17.7587 11.2448 17.6903C11.6237 17.4232 11.7169 16.9013 11.4498 16.5224C11.1826 16.1434 10.6608 16.0502 10.2818 16.3174C10.257 16.336 7.93973 17.9512 5.12549 18.6657C5.10064 18.6719 5.082 18.6781 5.06336 18.6843C2.36715 19.61 2.28639 22.4863 2.24911 23.7102C2.24911 23.7661 2.24911 23.8158 2.2429 23.8655C2.2429 23.8717 2.2429 23.8779 2.2429 23.8842C2.23669 24.2072 2.23048 25.8659 2.55974 26.6984C2.62186 26.8599 2.73369 26.9966 2.88279 27.0898C3.06916 27.214 7.53592 30.0593 15.0095 30.0593C22.4831 30.0593 26.9499 27.2078 27.1363 27.0898C27.2791 26.9966 27.3972 26.8599 27.4593 26.6984C27.7699 25.8721 27.7637 24.2134 27.7575 23.8904Z" fill="black"/>
</g>
<defs>
<clipPath id="clip0_614_712">
<rect width="30" height="30" fill="white"/>
</clipPath>
</defs>
</svg>
