<svg width="30" height="30" viewBox="0 0 30 30" fill="none" xmlns="http://www.w3.org/2000/svg">
<path d="M27.0003 25.9325L25.2825 6.58896C25.2457 6.15951 24.8837 5.83436 24.4604 5.83436H20.9267C20.8776 2.60736 18.2395 0 15.0003 0C11.761 0 9.12297 2.60736 9.07389 5.83436H5.54015C5.1107 5.83436 4.75488 6.15951 4.71807 6.58896L3.00028 25.9325C3.00028 25.9571 2.99414 25.9816 2.99414 26.0061C2.99414 28.2086 5.01254 30 7.49721 30H22.5033C24.988 30 27.0064 28.2086 27.0064 26.0061C27.0064 25.9816 27.0064 25.9571 27.0003 25.9325ZM15.0003 1.65644C17.3254 1.65644 19.2211 3.52147 19.2702 5.83436H10.7303C10.7794 3.52147 12.6751 1.65644 15.0003 1.65644ZM22.5033 28.3436H7.49721C5.93892 28.3436 4.67512 27.3129 4.65058 26.0429L6.29475 7.49693H9.06776V10.0123C9.06776 10.4724 9.43586 10.8405 9.89598 10.8405C10.3561 10.8405 10.7242 10.4724 10.7242 10.0123V7.49693H19.2702V10.0123C19.2702 10.4724 19.6383 10.8405 20.0984 10.8405C20.5586 10.8405 20.9267 10.4724 20.9267 10.0123V7.49693H23.6997L25.35 26.0429C25.3254 27.3129 24.0555 28.3436 22.5033 28.3436Z" fill="black"/>
</svg>
