<svg width="19" height="19" viewBox="0 0 19 19" fill="none" xmlns="http://www.w3.org/2000/svg">
<path d="M8.55481 1.58325C8.14552 1.58325 7.75448 1.745 7.46473 2.03475L7.12456 2.37492H3.16622C3.06132 2.37344 2.95716 2.39282 2.85981 2.43194C2.76246 2.47105 2.67386 2.52913 2.59915 2.60279C2.52444 2.67645 2.46512 2.76423 2.42462 2.86101C2.38413 2.9578 2.36328 3.06167 2.36328 3.16659C2.36328 3.2715 2.38413 3.37537 2.42462 3.47216C2.46512 3.56894 2.52444 3.65672 2.59915 3.73038C2.67386 3.80404 2.76246 3.86212 2.85981 3.90124C2.95716 3.94035 3.06132 3.95974 3.16622 3.95825H15.8329C15.9378 3.95974 16.0419 3.94035 16.1393 3.90124C16.2366 3.86212 16.3253 3.80404 16.4 3.73038C16.4747 3.65672 16.534 3.56894 16.5745 3.47216C16.615 3.37537 16.6358 3.2715 16.6358 3.16659C16.6358 3.06167 16.615 2.9578 16.5745 2.86101C16.534 2.76423 16.4747 2.67645 16.4 2.60279C16.3253 2.52913 16.2366 2.47105 16.1393 2.43194C16.0419 2.39282 15.9378 2.37344 15.8329 2.37492H11.8746L11.5344 2.03475C11.2454 1.745 10.8536 1.58325 10.4443 1.58325H8.55481ZM3.45537 5.54159L4.66451 16.042C4.76901 16.8257 5.44385 17.4166 6.23393 17.4166H12.7636C13.5537 17.4166 14.2293 16.8267 14.3346 16.0358L15.5437 5.54159H3.45537Z" fill="#BEBEBE"/>
</svg>
