<svg width="82" height="84" viewBox="0 0 82 84" fill="none" xmlns="http://www.w3.org/2000/svg">
<g clip-path="url(#clip0_138_29)">
<path fill-rule="evenodd" clip-rule="evenodd" d="M66.9621 0C69.2128 0 71.0406 1.83203 71.0406 4.08789C71.0406 6.34375 69.2128 8.17578 66.9621 8.17578C64.7114 8.17578 62.8836 6.34375 62.8836 4.08789C62.8904 1.83203 64.7114 0 66.9621 0ZM68.0534 35.6016C71.5726 40.8652 76.0262 42.4785 81.8098 38.917C82.0008 40.8994 82.0485 42.9229 81.9462 44.9736C80.8073 67.6416 61.5537 85.0937 38.9377 83.9521C16.3285 82.8037 -1.08362 63.5059 0.0553659 40.8447C1.18753 18.1768 21.1095 0.533203 43.7187 1.6748C41.7135 7.96387 43.4118 13.5488 48.5133 15.4492C43.8892 30.3379 54.2151 40.0791 68.0534 35.6016ZM20.482 32.6689C23.8717 32.6689 26.6135 35.4238 26.6135 38.8145C26.6135 42.2051 23.8649 44.96 20.482 44.96C17.0924 44.96 14.3506 42.2051 14.3506 38.8145C14.3506 35.4238 17.0992 32.6689 20.482 32.6689ZM39.797 40.5029C41.7476 40.5029 43.3299 42.0889 43.3299 44.0439C43.3299 45.999 41.7476 47.585 39.797 47.585C37.8464 47.585 36.2641 45.999 36.2641 44.0439C36.2573 42.0889 37.8396 40.5029 39.797 40.5029ZM24.4651 55.0908C26.8453 55.0908 28.7755 57.0254 28.7755 59.4111C28.7755 61.7969 26.8453 63.7314 24.4651 63.7314C22.0848 63.7314 20.1547 61.7969 20.1547 59.4111C20.1547 57.0186 22.0848 55.0908 24.4651 55.0908ZM33.7543 22.0322C35.623 22.0322 37.1303 23.5498 37.1303 25.416C37.1303 27.2891 35.6162 28.7998 33.7543 28.7998C31.8855 28.7998 30.3782 27.2822 30.3782 25.416C30.3782 23.5498 31.8923 22.0322 33.7543 22.0322ZM52.1008 56.6016C55.2313 56.6016 57.7616 59.1445 57.7616 62.2754C57.7616 65.4131 55.2245 67.9492 52.1008 67.9492C48.9703 67.9492 46.44 65.4062 46.44 62.2754C46.44 59.1445 48.9771 56.6016 52.1008 56.6016ZM64.0226 15.791C66.1232 15.791 67.8283 17.5 67.8283 19.6055C67.8283 21.7109 66.1232 23.4199 64.0226 23.4199C61.922 23.4199 60.2169 21.7109 60.2169 19.6055C60.2169 17.5 61.922 15.791 64.0226 15.791Z" fill="white"/>
</g>
<defs>
<clipPath id="clip0_138_29">
<rect width="82" height="84" fill="white"/>
</clipPath>
</defs>
</svg>
