<svg width="26" height="27" viewBox="0 0 26 27" fill="none" xmlns="http://www.w3.org/2000/svg">
<path d="M23.2166 26.207L23.4271 26.4207L23.6372 26.2067L25.2104 24.6053L25.4133 24.3988L25.2107 24.1921L18.1242 16.9611C19.4945 15.2444 20.3132 13.0587 20.3132 10.6797C20.3132 5.18146 15.9231 0.705 10.5091 0.705C5.09508 0.705 0.705 5.18146 0.705 10.6797C0.705 16.178 5.09508 20.6544 10.5091 20.6544C12.5594 20.6544 14.4609 20.0106 16.0345 18.9134L23.2166 26.207ZM10.5091 2.43379C14.9822 2.43379 18.6045 6.11347 18.6045 10.6797C18.6045 15.246 14.9822 18.9256 10.5091 18.9256C6.03602 18.9256 2.41372 15.246 2.41372 10.6797C2.41372 6.11347 6.03602 2.43379 10.5091 2.43379Z" fill="white" stroke="white" stroke-width="0.59"/>
</svg>
