<svg width="37" height="30" viewBox="0 0 37 30" fill="none" xmlns="http://www.w3.org/2000/svg">
<g clip-path="url(#clip0)">
<path d="M36.2709 29.5933V29.6704H36.3399C36.3529 29.6706 36.3657 29.6672 36.3769 29.6606C36.3814 29.6573 36.3851 29.6528 36.3875 29.6477C36.3899 29.6425 36.391 29.6368 36.3908 29.6311C36.391 29.6254 36.3899 29.6199 36.3875 29.6148C36.385 29.6098 36.3814 29.6055 36.3769 29.6023C36.3658 29.5954 36.3529 29.5919 36.3399 29.5925H36.2709V29.5933ZM36.3407 29.5387C36.3703 29.5368 36.3995 29.5457 36.4236 29.5638C36.4332 29.572 36.4408 29.5825 36.4459 29.5943C36.4509 29.6062 36.4532 29.6191 36.4526 29.632C36.453 29.6432 36.4512 29.6543 36.4472 29.6646C36.4431 29.675 36.4371 29.6843 36.4293 29.692C36.4108 29.7088 36.3875 29.7189 36.3631 29.7207L36.4556 29.8306H36.3843L36.2992 29.7215H36.2717V29.8306H36.2121V29.5389H36.3416L36.3407 29.5387ZM36.3222 29.9313C36.3534 29.9316 36.3844 29.925 36.413 29.912C36.4406 29.8996 36.4657 29.8819 36.487 29.8597C36.5083 29.8376 36.5253 29.8114 36.5371 29.7826C36.5614 29.7215 36.5614 29.6528 36.5371 29.5917C36.5252 29.563 36.5082 29.5369 36.487 29.5146C36.4657 29.4925 36.4406 29.4748 36.413 29.4624C36.3842 29.4501 36.3533 29.4439 36.3222 29.4442C36.2905 29.4439 36.2591 29.4501 36.2297 29.4624C36.2015 29.4745 36.1758 29.4923 36.154 29.5146C36.1213 29.5496 36.0992 29.5938 36.0904 29.6418C36.0816 29.6898 36.0865 29.7395 36.1046 29.7845C36.1159 29.8135 36.1327 29.8397 36.154 29.8617C36.1758 29.884 36.2015 29.9017 36.2297 29.9139C36.2589 29.9269 36.2904 29.9335 36.3222 29.9332V29.9313ZM36.3222 29.3741C36.4035 29.374 36.4816 29.4072 36.5396 29.4666C36.5675 29.4951 36.5898 29.5291 36.605 29.5667C36.6209 29.6052 36.629 29.6467 36.629 29.6886C36.629 29.7305 36.6209 29.772 36.605 29.8106C36.5894 29.8479 36.5672 29.8818 36.5396 29.9106C36.5112 29.939 36.4781 29.9618 36.4421 29.9781C36.4042 29.9949 36.3634 30.0034 36.3222 30.0032C36.2805 30.0035 36.2392 29.995 36.2008 29.9781C36.1643 29.9622 36.131 29.9393 36.1026 29.9106C36.0749 29.8808 36.053 29.8457 36.038 29.8073C36.0222 29.7687 36.0141 29.7273 36.0141 29.6853C36.0141 29.6434 36.0222 29.6019 36.038 29.5634C36.0533 29.5259 36.0755 29.4918 36.1035 29.4633C36.1315 29.4341 36.1649 29.4112 36.2017 29.3959C36.2401 29.379 36.2814 29.3705 36.3231 29.3708L36.3222 29.3741ZM7.99498 28.2475C7.99498 27.6913 8.34463 27.2343 8.91609 27.2343C9.46221 27.2343 9.83073 27.6716 9.83073 28.2475C9.83073 28.8234 9.46221 29.2607 8.91609 29.2607C8.34463 29.2607 7.99498 28.8038 7.99498 28.2475ZM10.4533 28.2475V26.6646H9.79299V27.0502C9.58357 26.7653 9.26593 26.5865 8.83395 26.5865C7.98295 26.5865 7.3151 27.2822 7.3151 28.2483C7.3151 29.2144 7.98258 29.9101 8.83395 29.9101C9.26574 29.9101 9.58357 29.7311 9.79299 29.4464V29.8306H10.4525V28.2475H10.4533ZM32.7628 28.2475C32.7628 27.6913 33.1124 27.2343 33.6841 27.2343C34.2308 27.2343 34.5987 27.6716 34.5987 28.2475C34.5987 28.8234 34.2308 29.2607 33.6841 29.2607C33.1126 29.2607 32.7628 28.8038 32.7628 28.2475ZM35.2218 28.2475V25.394H34.561V27.0502C34.3516 26.7653 34.0339 26.5865 33.6019 26.5865C32.7509 26.5865 32.0831 27.2822 32.0831 28.2483C32.0831 29.2144 32.7506 29.9101 33.6019 29.9101C34.0339 29.9101 34.3516 29.7311 34.561 29.4464V29.8306H35.2218V28.2475ZM18.648 27.2018C19.0735 27.2018 19.3468 27.4798 19.4165 27.9693H17.841C17.9115 27.5124 18.1777 27.2018 18.6482 27.2018H18.648ZM18.6613 26.5848C17.7715 26.5848 17.149 27.2596 17.149 28.2466C17.149 29.2528 17.7965 29.9083 18.7056 29.9083C19.1629 29.9083 19.5817 29.7894 19.9502 29.4649L19.6267 28.9549C19.3721 29.167 19.048 29.286 18.7433 29.286C18.3178 29.286 17.9304 29.0806 17.8351 28.5109H20.0897C20.0962 28.4253 20.1029 28.3389 20.1029 28.2464C20.0962 27.2598 19.5109 26.5846 18.661 26.5846L18.6613 26.5848ZM26.6326 28.2464C26.6326 27.6901 26.9823 27.2332 27.5537 27.2332C28.0999 27.2332 28.4684 27.6705 28.4684 28.2464C28.4684 28.8223 28.0999 29.2595 27.5537 29.2595C26.9823 29.2595 26.6324 28.8026 26.6324 28.2464H26.6326ZM29.0907 28.2464V26.6646H28.4308V27.0502C28.2207 26.7653 27.9037 26.5865 27.4718 26.5865C26.6208 26.5865 25.9529 27.2822 25.9529 28.2483C25.9529 29.2144 26.6204 29.9101 27.4718 29.9101C27.9037 29.9101 28.2207 29.7311 28.4308 29.4464V29.8306H29.0909V28.2475L29.0907 28.2464ZM22.9039 28.2464C22.9039 29.2063 23.5452 29.9081 24.5238 29.9081C24.9811 29.9081 25.2858 29.8021 25.6153 29.5308L25.2982 28.9746C25.0503 29.1602 24.79 29.2595 24.5027 29.2595C23.9756 29.2528 23.5881 28.8556 23.5881 28.2464C23.5881 27.6371 23.9756 27.2401 24.5027 27.2332C24.7893 27.2332 25.0496 27.3325 25.2982 27.5181L25.6153 26.9619C25.2853 26.6906 24.9806 26.5846 24.5238 26.5846C23.5452 26.5846 22.9039 27.2862 22.9039 28.2464ZM31.4158 26.5846C31.0349 26.5846 30.7868 26.7703 30.6153 27.0483V26.6646H29.961V29.8289H30.622V28.0551C30.622 27.5315 30.8378 27.2405 31.2695 27.2405C31.4108 27.2384 31.5511 27.2654 31.6824 27.3201L31.8859 26.6716C31.7397 26.6116 31.5492 26.5852 31.4154 26.5852L31.4158 26.5846ZM13.7176 26.9162C13.3999 26.698 12.9622 26.5852 12.4794 26.5852C11.7101 26.5852 11.2149 26.9694 11.2149 27.5982C11.2149 28.1141 11.5836 28.4324 12.2626 28.5317L12.5745 28.578C12.9365 28.631 13.1075 28.7303 13.1075 28.909C13.1075 29.1537 12.867 29.2933 12.4154 29.2933C11.958 29.2933 11.628 29.141 11.4055 28.9622L11.0952 29.4988C11.4573 29.7768 11.9146 29.9095 12.4098 29.9095C13.2867 29.9095 13.7949 29.4791 13.7949 28.8766C13.7949 28.3204 13.3949 28.0295 12.7341 27.9302L12.423 27.8831C12.1371 27.8446 11.9081 27.7846 11.9081 27.5725C11.9081 27.3412 12.124 27.202 12.4862 27.202C12.8738 27.202 13.249 27.3543 13.4329 27.4732L13.7187 26.917L13.7176 26.9162ZM22.237 26.5858C21.8561 26.5858 21.608 26.7714 21.4373 27.0494V26.6646H20.7829V29.8289H21.4432V28.0551C21.4432 27.5315 21.6591 27.2405 22.0907 27.2405C22.232 27.2384 22.3724 27.2654 22.5036 27.3201L22.7071 26.6716C22.561 26.6116 22.3704 26.5852 22.2366 26.5852L22.237 26.5858ZM16.6027 26.6646H15.523V25.7046H14.8555V26.6646H14.2397V27.2935H14.8555V28.737C14.8555 29.4712 15.1289 29.9085 15.91 29.9085C16.1966 29.9085 16.5266 29.816 16.736 29.6638L16.5453 29.0746C16.3483 29.1936 16.1324 29.2536 15.9607 29.2536C15.6307 29.2536 15.523 29.0415 15.523 28.7239V27.2941H16.6027V26.6646ZM6.73124 29.8297V27.8438C6.73124 27.0959 6.27392 26.5927 5.5367 26.5859C5.14912 26.5792 4.74934 26.7049 4.46943 27.1489C4.26001 26.798 3.92997 26.5859 3.46599 26.5859C3.14169 26.5859 2.82478 26.6852 2.5767 27.0558V26.6646H1.91588V29.8289H2.58188V28.0744C2.58188 27.5251 2.87418 27.2332 3.32558 27.2332C3.76403 27.2332 3.98584 27.5311 3.98584 28.0674V29.8285H4.65332V28.074C4.65332 27.5247 4.95802 27.2328 5.39628 27.2328C5.84713 27.2328 6.06228 27.5307 6.06228 28.0671V29.8281L6.73124 29.8297Z" fill="white"/>
<path d="M36.6474 19.3038V18.8411H36.5318L36.398 19.1586L36.265 18.8411H36.149V19.3038H36.2311V18.9552L36.3562 19.256H36.4413L36.5664 18.9544V19.3038H36.6478H36.6474ZM35.9139 19.3038V18.9203H36.0619V18.8422H35.6837V18.9203H35.8317V19.3038H35.9131H35.9139Z" fill="#F79410"/>
<path d="M23.5056 21.2882H13.4997V2.54785H23.5058L23.5056 21.2882Z" fill="#FF5F00"/>
<path d="M14.134 11.9177C14.134 8.11625 15.8419 4.72987 18.5015 2.54754C16.4883 0.893201 13.9984 -0.00466726 11.4347 -0.000719459C5.11932 -0.000719459 0 5.33527 0 11.9177C0 18.5002 5.11932 23.8362 11.4347 23.8362C13.9984 23.8402 16.4885 22.9423 18.5017 21.2879C15.8423 19.106 14.134 15.7194 14.134 11.9177Z" fill="#EB001B"/>
<path d="M37.0045 11.9185C37.0045 18.5009 31.8852 23.8369 25.5699 23.8369C23.0059 23.8408 20.5156 22.943 18.502 21.2886C21.1623 19.1063 22.8702 15.7201 22.8702 11.9185C22.8702 8.11679 21.1623 4.7306 18.502 2.54828C20.5155 0.893984 23.0057 -0.00386564 25.5697 1.25108e-05C31.885 1.25108e-05 37.0044 5.336 37.0044 11.9185" fill="#F79E1B"/>
</g>
<defs>
<clipPath id="clip0">
<rect width="37" height="30" fill="white"/>
</clipPath>
</defs>
</svg>
