<svg width="27" height="27" viewBox="0 0 27 27" fill="none" xmlns="http://www.w3.org/2000/svg">
<path d="M21.3384 16.7253C20.7856 16.1498 20.1189 15.8421 19.4123 15.8421C18.7114 15.8421 18.039 16.1441 17.4634 16.7196L15.6627 18.5147C15.5145 18.4349 15.3663 18.3608 15.2239 18.2867C15.0187 18.1842 14.825 18.0873 14.6597 17.9847C12.973 16.9134 11.4401 15.5172 9.96983 13.7108C9.25751 12.8104 8.77883 12.0525 8.43122 11.2832C8.8985 10.8558 9.33159 10.4113 9.75328 9.98396C9.91284 9.8244 10.0724 9.65914 10.232 9.49958C11.4287 8.30289 11.4287 6.75289 10.232 5.5562L8.67626 4.0005C8.49961 3.82384 8.31725 3.64149 8.1463 3.45914C7.80438 3.10583 7.44538 2.74112 7.07497 2.39921C6.52221 1.85215 5.86118 1.56152 5.16596 1.56152C4.47074 1.56152 3.79831 1.85215 3.22846 2.39921C3.22276 2.40491 3.22276 2.40491 3.21706 2.41061L1.27956 4.3652C0.550149 5.09462 0.134156 5.98359 0.0429799 7.01502C-0.093785 8.679 0.396289 10.229 0.772392 11.2433C1.69556 13.7336 3.0746 16.0415 5.13177 18.5147C7.62773 21.495 10.6309 23.8485 14.0614 25.5068C15.372 26.1279 17.1215 26.863 19.0761 26.9884C19.1958 26.9941 19.3211 26.9998 19.4351 26.9998C20.7515 26.9998 21.857 26.5268 22.7232 25.5866C22.7288 25.5752 22.7402 25.5695 22.7459 25.5581C23.0423 25.1991 23.3842 24.8742 23.7432 24.5266C23.9882 24.293 24.239 24.0479 24.484 23.7915C25.0482 23.2046 25.3445 22.5207 25.3445 21.8198C25.3445 21.1132 25.0425 20.4351 24.4669 19.8652L21.3384 16.7253ZM23.3785 22.7259C23.3728 22.7259 23.3728 22.7316 23.3785 22.7259C23.1562 22.9652 22.9283 23.1818 22.6833 23.4211C22.3129 23.7744 21.9368 24.1448 21.5834 24.5608C21.0079 25.1763 20.3298 25.4669 19.4408 25.4669C19.3553 25.4669 19.2641 25.4669 19.1787 25.4612C17.4862 25.3529 15.9134 24.6919 14.7338 24.1277C11.5084 22.5663 8.67626 20.3496 6.32277 17.5402C4.37957 15.1981 3.0803 13.0327 2.21982 10.7077C1.68986 9.28874 1.49611 8.18322 1.58158 7.14039C1.63857 6.47366 1.895 5.9209 2.36798 5.44793L4.31118 3.50472C4.59041 3.24259 4.88673 3.10013 5.17736 3.10013C5.53637 3.10013 5.82699 3.31667 6.00935 3.49903C6.01505 3.50472 6.02074 3.51042 6.02644 3.51612C6.37405 3.84094 6.70457 4.17715 7.05218 4.53616C7.22883 4.71851 7.41119 4.90087 7.59354 5.08892L9.14924 6.64462C9.75328 7.24866 9.75328 7.80712 9.14924 8.41116C8.98398 8.57642 8.82442 8.74168 8.65916 8.90124C8.18049 9.39131 7.72461 9.84719 7.22883 10.2917C7.21744 10.3031 7.20604 10.3088 7.20034 10.3202C6.71027 10.8102 6.80144 11.2889 6.90402 11.6137C6.90971 11.6308 6.91541 11.6479 6.92111 11.665C7.32571 12.6452 7.89556 13.5683 8.76174 14.6682L8.76744 14.6739C10.3402 16.6114 11.9985 18.1215 13.8277 19.2783C14.0614 19.4264 14.3007 19.5461 14.5287 19.6601C14.7338 19.7626 14.9276 19.8595 15.0928 19.9621C15.1156 19.9735 15.1384 19.9906 15.1612 20.002C15.3549 20.0989 15.5373 20.1444 15.7253 20.1444C16.1983 20.1444 16.4947 19.8481 16.5915 19.7512L18.5404 17.8024C18.7342 17.6086 19.0419 17.375 19.4009 17.375C19.7542 17.375 20.0448 17.5972 20.2215 17.791C20.2272 17.7967 20.2272 17.7967 20.2329 17.8024L23.3728 20.9422C23.9597 21.5235 23.9597 22.1218 23.3785 22.7259Z" fill="black"/>
<path d="M14.5922 6.42259C16.0852 6.67333 17.4415 7.37995 18.5242 8.46267C19.6069 9.54539 20.3078 10.9016 20.5643 12.3947C20.627 12.7708 20.9518 13.0329 21.3222 13.0329C21.3678 13.0329 21.4077 13.0272 21.4533 13.0215C21.8749 12.9531 22.1542 12.5542 22.0858 12.1325C21.7781 10.3261 20.9233 8.67921 19.6183 7.37425C18.3134 6.06929 16.6665 5.2145 14.8601 4.90678C14.4384 4.8384 14.0452 5.11763 13.9711 5.53362C13.897 5.94962 14.1705 6.35421 14.5922 6.42259Z" fill="black"/>
<path d="M26.9679 11.9103C26.4607 8.93564 25.0589 6.22883 22.9048 4.07478C20.7508 1.92074 18.044 0.518898 15.0693 0.0117284C14.6534 -0.0623525 14.2602 0.222574 14.1861 0.638567C14.1177 1.06026 14.3969 1.45346 14.8186 1.52754C17.4741 1.97772 19.896 3.2371 21.8221 5.15751C23.7482 7.08361 25.0019 9.50549 25.4521 12.161C25.5148 12.5371 25.8396 12.7992 26.21 12.7992C26.2556 12.7992 26.2955 12.7935 26.3411 12.7878C26.757 12.7252 27.042 12.3263 26.9679 11.9103Z" fill="black"/>
</svg>
