<svg width="170" height="22" viewBox="0 0 170 22" fill="none" xmlns="http://www.w3.org/2000/svg">
<path d="M148.12 0C144.744 0 142 2.74359 142 6.12C142 9.49641 144.744 12.24 148.12 12.24C149.456 12.24 150.691 11.8097 151.697 11.0812L156.434 15.8062L157.446 14.7937L152.766 10.1025C153.686 9.03094 154.24 7.64016 154.24 6.12C154.24 2.74359 151.496 0 148.12 0ZM148.12 0.72C151.107 0.72 153.52 3.13312 153.52 6.12C153.52 9.10687 151.107 11.52 148.12 11.52C145.133 11.52 142.72 9.10687 142.72 6.12C142.72 3.13312 145.133 0.72 148.12 0.72Z" fill="black"/>
<line x1="170" y1="21.5" x2="-4.37114e-08" y2="21.5" stroke="black"/>
<path d="M1.512 5.6H2.124V12.968L7.848 5.6H8.388V14H7.776V6.644L2.052 14H1.512V5.6ZM14.9303 14.048C14.3223 14.048 13.7783 13.912 13.2983 13.64C12.8183 13.368 12.4423 12.992 12.1703 12.512C11.8983 12.024 11.7623 11.476 11.7623 10.868C11.7623 10.252 11.8983 9.704 12.1703 9.224C12.4423 8.736 12.8183 8.36 13.2983 8.096C13.7783 7.824 14.3223 7.688 14.9303 7.688C15.4343 7.688 15.8903 7.788 16.2983 7.988C16.7143 8.18 17.0503 8.464 17.3063 8.84L16.8623 9.164C16.6383 8.852 16.3583 8.62 16.0223 8.468C15.6943 8.308 15.3303 8.228 14.9303 8.228C14.4423 8.228 14.0023 8.34 13.6103 8.564C13.2263 8.78 12.9223 9.088 12.6983 9.488C12.4823 9.888 12.3743 10.348 12.3743 10.868C12.3743 11.388 12.4823 11.848 12.6983 12.248C12.9223 12.648 13.2263 12.96 13.6103 13.184C14.0023 13.4 14.4423 13.508 14.9303 13.508C15.3303 13.508 15.6943 13.432 16.0223 13.28C16.3583 13.12 16.6383 12.884 16.8623 12.572L17.3063 12.896C17.0503 13.272 16.7143 13.56 16.2983 13.76C15.8903 13.952 15.4343 14.048 14.9303 14.048ZM22.402 11.096H20.878V14H20.278V7.736H20.878V10.58H22.402L24.766 7.736H25.426L22.882 10.772L25.618 14H24.898L22.402 11.096ZM30.2572 7.688C31.0332 7.688 31.6292 7.888 32.0452 8.288C32.4612 8.68 32.6692 9.26 32.6692 10.028V14H32.0932V12.884C31.8932 13.252 31.6012 13.54 31.2172 13.748C30.8332 13.948 30.3732 14.048 29.8372 14.048C29.1412 14.048 28.5892 13.884 28.1812 13.556C27.7812 13.228 27.5812 12.796 27.5812 12.26C27.5812 11.74 27.7652 11.32 28.1332 11C28.5092 10.672 29.1052 10.508 29.9212 10.508H32.0692V10.004C32.0692 9.42 31.9092 8.976 31.5892 8.672C31.2772 8.368 30.8172 8.216 30.2092 8.216C29.7932 8.216 29.3932 8.288 29.0092 8.432C28.6332 8.576 28.3132 8.768 28.0492 9.008L27.7492 8.576C28.0612 8.296 28.4372 8.08 28.8772 7.928C29.3172 7.768 29.7772 7.688 30.2572 7.688ZM29.9212 13.556C30.4412 13.556 30.8812 13.436 31.2412 13.196C31.6092 12.956 31.8852 12.608 32.0692 12.152V10.976H29.9332C29.3172 10.976 28.8692 11.088 28.5892 11.312C28.3172 11.536 28.1812 11.844 28.1812 12.236C28.1812 12.644 28.3332 12.968 28.6372 13.208C28.9412 13.44 29.3692 13.556 29.9212 13.556ZM40.4949 8.276H38.0469V14H37.4469V8.276H34.9989V7.736H40.4949V8.276ZM45.4876 10.016C46.2636 10.024 46.8556 10.196 47.2636 10.532C47.6716 10.86 47.8756 11.344 47.8756 11.984C47.8756 12.648 47.6596 13.156 47.2276 13.508C46.7956 13.86 46.1676 14.032 45.3436 14.024L42.9796 14V7.736H43.5796V9.992L45.4876 10.016ZM45.3316 13.544C45.9636 13.552 46.4436 13.424 46.7716 13.16C47.0996 12.896 47.2636 12.504 47.2636 11.984C47.2636 11.48 47.1036 11.108 46.7836 10.868C46.4636 10.62 45.9796 10.488 45.3316 10.472L43.5796 10.46V13.52L45.3316 13.544ZM59.2824 8.276H56.8344V14H56.2344V8.276H53.7864V7.736H59.2824V8.276ZM63.9701 14.048C63.3781 14.048 62.8421 13.912 62.3621 13.64C61.8901 13.368 61.5181 12.992 61.2461 12.512C60.9741 12.024 60.8381 11.476 60.8381 10.868C60.8381 10.26 60.9741 9.716 61.2461 9.236C61.5181 8.748 61.8901 8.368 62.3621 8.096C62.8421 7.824 63.3781 7.688 63.9701 7.688C64.5621 7.688 65.0941 7.824 65.5661 8.096C66.0461 8.368 66.4221 8.748 66.6941 9.236C66.9661 9.716 67.1021 10.26 67.1021 10.868C67.1021 11.476 66.9661 12.024 66.6941 12.512C66.4221 12.992 66.0461 13.368 65.5661 13.64C65.0941 13.912 64.5621 14.048 63.9701 14.048ZM63.9701 13.508C64.4501 13.508 64.8781 13.396 65.2541 13.172C65.6381 12.948 65.9381 12.636 66.1541 12.236C66.3781 11.836 66.4901 11.38 66.4901 10.868C66.4901 10.356 66.3781 9.9 66.1541 9.5C65.9381 9.1 65.6381 8.788 65.2541 8.564C64.8781 8.34 64.4501 8.228 63.9701 8.228C63.4901 8.228 63.0581 8.34 62.6741 8.564C62.2981 8.788 61.9981 9.1 61.7741 9.5C61.5581 9.9 61.4501 10.356 61.4501 10.868C61.4501 11.38 61.5581 11.836 61.7741 12.236C61.9981 12.636 62.2981 12.948 62.6741 13.172C63.0581 13.396 63.4901 13.508 63.9701 13.508ZM73.9642 10.772C74.8842 10.932 75.3442 11.448 75.3442 12.32C75.3442 12.864 75.1442 13.28 74.7442 13.568C74.3522 13.856 73.7602 14 72.9682 14H70.2562V7.736H72.8962C73.5922 7.736 74.1362 7.876 74.5282 8.156C74.9282 8.428 75.1282 8.82 75.1282 9.332C75.1282 9.7 75.0242 10.008 74.8162 10.256C74.6162 10.496 74.3322 10.668 73.9642 10.772ZM70.8442 10.592H72.8602C73.3962 10.592 73.8082 10.492 74.0962 10.292C74.3842 10.084 74.5282 9.788 74.5282 9.404C74.5282 9.012 74.3842 8.72 74.0962 8.528C73.8162 8.328 73.4042 8.228 72.8602 8.228H70.8442V10.592ZM72.9562 13.508C74.1482 13.508 74.7442 13.104 74.7442 12.296C74.7442 11.872 74.6082 11.56 74.3362 11.36C74.0642 11.16 73.6362 11.06 73.0522 11.06H70.8442V13.508H72.9562ZM80.7509 7.688C81.5269 7.688 82.1229 7.888 82.5389 8.288C82.9549 8.68 83.1629 9.26 83.1629 10.028V14H82.5869V12.884C82.3869 13.252 82.0949 13.54 81.7109 13.748C81.3269 13.948 80.8669 14.048 80.3309 14.048C79.6349 14.048 79.0829 13.884 78.6749 13.556C78.2749 13.228 78.0749 12.796 78.0749 12.26C78.0749 11.74 78.2589 11.32 78.6269 11C79.0029 10.672 79.5989 10.508 80.4149 10.508H82.5629V10.004C82.5629 9.42 82.4029 8.976 82.0829 8.672C81.7709 8.368 81.3109 8.216 80.7029 8.216C80.2869 8.216 79.8869 8.288 79.5029 8.432C79.1269 8.576 78.8069 8.768 78.5429 9.008L78.2429 8.576C78.5549 8.296 78.9309 8.08 79.3709 7.928C79.8109 7.768 80.2709 7.688 80.7509 7.688ZM80.4149 13.556C80.9349 13.556 81.3749 13.436 81.7349 13.196C82.1029 12.956 82.3789 12.608 82.5629 12.152V10.976H80.4269C79.8109 10.976 79.3629 11.088 79.0829 11.312C78.8109 11.536 78.6749 11.844 78.6749 12.236C78.6749 12.644 78.8269 12.968 79.1309 13.208C79.4349 13.44 79.8629 13.556 80.4149 13.556ZM89.9567 7.688C90.5407 7.688 91.0687 7.824 91.5407 8.096C92.0127 8.368 92.3807 8.744 92.6447 9.224C92.9167 9.704 93.0527 10.252 93.0527 10.868C93.0527 11.484 92.9167 12.036 92.6447 12.524C92.3807 13.004 92.0127 13.38 91.5407 13.652C91.0687 13.916 90.5407 14.048 89.9567 14.048C89.4047 14.048 88.9047 13.92 88.4567 13.664C88.0087 13.4 87.6607 13.036 87.4127 12.572V16.328H86.8127V7.736H87.3887V9.212C87.6367 8.732 87.9847 8.36 88.4327 8.096C88.8887 7.824 89.3967 7.688 89.9567 7.688ZM89.9207 13.508C90.4007 13.508 90.8327 13.396 91.2167 13.172C91.6007 12.948 91.9007 12.636 92.1167 12.236C92.3407 11.836 92.4527 11.38 92.4527 10.868C92.4527 10.356 92.3407 9.9 92.1167 9.5C91.9007 9.1 91.6007 8.788 91.2167 8.564C90.8327 8.34 90.4007 8.228 89.9207 8.228C89.4407 8.228 89.0087 8.34 88.6247 8.564C88.2487 8.788 87.9487 9.1 87.7247 9.5C87.5087 9.9 87.4007 10.356 87.4007 10.868C87.4007 11.38 87.5087 11.836 87.7247 12.236C87.9487 12.636 88.2487 12.948 88.6247 13.172C89.0087 13.396 89.4407 13.508 89.9207 13.508Z" fill="black"/>
</svg>
