<svg width="18" height="18" viewBox="0 0 18 18" fill="none" xmlns="http://www.w3.org/2000/svg">
<path d="M7.55994 1.08008C4.18354 1.08008 1.43994 3.82367 1.43994 7.20008C1.43994 10.5765 4.18354 13.3201 7.55994 13.3201C8.89588 13.3201 10.1306 12.8898 11.1374 12.1613L15.8737 16.8863L16.8862 15.8738L12.2062 11.1826C13.1259 10.111 13.6799 8.72023 13.6799 7.20008C13.6799 3.82367 10.9363 1.08008 7.55994 1.08008ZM7.55994 1.80008C10.5468 1.80008 12.9599 4.2132 12.9599 7.20008C12.9599 10.187 10.5468 12.6001 7.55994 12.6001C4.57307 12.6001 2.15994 10.187 2.15994 7.20008C2.15994 4.2132 4.57307 1.80008 7.55994 1.80008Z" fill="black"/>
</svg>
