<?xml version="1.0" standalone="no"?>
<!DOCTYPE svg PUBLIC "-//W3C//DTD SVG 1.1//EN" "http://www.w3.org/Graphics/SVG/1.1/DTD/svg11.dtd" >
<svg xmlns="http://www.w3.org/2000/svg" xmlns:xlink="http://www.w3.org/1999/xlink" version="1.1">
<metadata>
Created by FontForge 20170731 at Sat Aug 27 19:35:14 2022
 By Aleksey,,,
https://plan.diia.gov.ua
</metadata>
<defs>
<font id="e-Ukraine-Light" horiz-adv-x="1440" >
  <font-face 
    font-family="e-Ukraine Light"
    font-weight="300"
    font-stretch="normal"
    units-per-em="2048"
    panose-1="0 0 4 0 0 0 0 0 0 0"
    ascent="1638"
    descent="-410"
    x-height="1200"
    cap-height="1520"
    bbox="-1368 -616 2960 2000"
    underline-thickness="128"
    underline-position="-384"
    unicode-range="U+000D-2646"
  />
<missing-glyph horiz-adv-x="2232" 
d="M1116 -584l692 304q91 41 143.5 125t52.5 179v1888h-1776v-1888q0 -95 52.5 -179t143.5 -125zM1116 -448q-21 43 -68 76q-88 67 -147.5 163t-80.5 209h-372v1608q150 -75 249 -226t111 -322l56 -452l-28 4q-44 0 -78 -34.5t-34 -77.5q0 -38 26 -68.5t66 -39.5l68 -16
q176 333 176 624q0 99 -13 285t-15 271q0 123 84 220q84 -97 84 -220q0 -94 -14 -279t-14 -277q0 -291 176 -624l68 16q40 9 66 39.5t26 68.5q0 43 -34 77.5t-78 34.5l-28 -4l56 452q22 175 117.5 325t242.5 223v-1608h-372q-21 -115 -80 -212.5t-148 -159.5
q-47 -33 -68 -76zM560 556h64q12 44 42.5 82t73.5 62l-44 372q-24 173 -136 304v-820zM1608 556h64v820q-119 -139 -136 -304l-44 -372q43 -24 73.5 -62t42.5 -82zM1116 268q57 64 120 80q-85 156 -120 276q-35 -120 -120 -276q63 -16 120 -80zM560 112h252q0 73 20 160
l-52 12q-57 18 -99 60.5t-57 99.5h-64v-332zM1420 112h252v332h-64q-15 -57 -57 -99.5t-99 -60.5l-52 -12q20 -87 20 -160zM920 112h140q0 51 -34.5 90.5t-85.5 45.5q-20 -73 -20 -136zM1172 112h140q0 63 -20 136q-51 -6 -85.5 -45.5t-34.5 -90.5zM1060 -236v236h-124
q29 -129 124 -236zM1172 -236q95 107 124 236h-124v-236z" />
    <glyph glyph-name="uni20B4" unicode="&#x3c;&#x433;&#x440;&#x43d;&#x3e;" 
d="M1320 848h-384l-212 -176h596v-144h-748q-92 -74 -92 -176q0 -93 68.5 -142.5t199.5 -49.5q205 0 352 200l152 -104q-97 -135 -231 -205.5t-281 -70.5q-207 0 -333.5 93.5t-126.5 246.5q0 116 80 208h-240v144h360l212 176h-572v144h732q51 51 73.5 93.5t22.5 90.5
q0 84 -68 136t-176 52q-95 0 -176.5 -53.5t-139.5 -150.5l-160 108q79 130 201 201t271 71q203 0 325.5 -95t122.5 -249q0 -117 -68 -204h240v-144z" />
    <glyph glyph-name="arrowleft" unicode="&#x3c;&#x2d;" horiz-adv-x="1600" 
d="M1600 852v-184h-1252l404 -404l-128 -128l-624 624l624 624l128 -128l-404 -404h1252z" />
    <glyph glyph-name="arrowup" unicode="&#x2d;^" horiz-adv-x="1600" 
d="M1424 976l-128 -128l-404 404v-1252h-184v1252l-404 -404l-128 128l624 624z" />
    <glyph glyph-name="arrowright" unicode="&#x2d;&#x3e;" horiz-adv-x="1600" 
d="M976 1384l624 -624l-624 -624l-128 128l404 404h-1252v184h1252l-404 404z" />
    <glyph glyph-name="arrowdown" unicode="^&#x2d;" horiz-adv-x="1600" 
d="M1296 672l128 -128l-624 -624l-624 624l128 128l404 -404v1252h184v-1252z" />
    <glyph glyph-name="uni2196" unicode="&#x3c;\" horiz-adv-x="1600" 
d="M1460 216l-132 -132l-884 888v-572h-180v880h880v-180h-572z" />
    <glyph glyph-name="uni2197" unicode="&#x2f;&#x3e;" horiz-adv-x="1600" 
d="M456 1280h880v-880h-180v572l-884 -888l-132 132l888 884h-572v180z" />
    <glyph glyph-name="uni2198" unicode="\&#x3e;" horiz-adv-x="1600" 
d="M1156 1052h180v-880h-880v180h572l-888 884l132 132l884 -888v572z" />
    <glyph glyph-name="uni2199" unicode="&#x3c;&#x2f;" horiz-adv-x="1600" 
d="M1460 1236l-888 -884h572v-180h-880v880h180v-572l884 888z" />
    <glyph glyph-name="uni2646" unicode="&#x3c;&#x433;&#x435;&#x440;&#x431;&#x3e;" horiz-adv-x="2232" 
d="M1116 -616l-704 312q-96 42 -154 132.5t-58 195.5v1916h1832v-1916q0 -105 -58 -195.5t-154 -132.5zM1116 -584l692 304q91 41 143.5 125t52.5 179v1888h-1776v-1888q0 -95 52.5 -179t143.5 -125zM1116 -448q-21 43 -68 76q-88 67 -147.5 163t-80.5 209h-372v1608
q150 -75 249 -226t111 -322l56 -452l-28 4q-44 0 -78 -34.5t-34 -77.5q0 -38 26 -68.5t66 -39.5l68 -16q176 333 176 624q0 99 -13 285t-15 271q0 123 84 220q84 -97 84 -220q0 -94 -14 -279t-14 -277q0 -291 176 -624l68 16q40 9 66 39.5t26 68.5q0 43 -34 77.5t-78 34.5
l-28 -4l56 452q22 175 117.5 325t242.5 223v-1608h-372q-21 -115 -80 -212.5t-148 -159.5q-47 -33 -68 -76zM560 556h64q12 44 42.5 82t73.5 62l-44 372q-24 173 -136 304v-820zM1608 556h64v820q-119 -139 -136 -304l-44 -372q43 -24 73.5 -62t42.5 -82zM1116 268
q57 64 120 80q-85 156 -120 276q-35 -120 -120 -276q63 -16 120 -80zM560 112h252q0 73 20 160l-52 12q-57 18 -99 60.5t-57 99.5h-64v-332zM1420 112h252v332h-64q-15 -57 -57 -99.5t-99 -60.5l-52 -12q20 -87 20 -160zM920 112h140q0 51 -34.5 90.5t-85.5 45.5
q-20 -73 -20 -136zM1172 112h140q0 63 -20 136q-51 -6 -85.5 -45.5t-34.5 -90.5zM1060 -236v236h-124q29 -129 124 -236zM1172 -236q95 107 124 236h-124v-236z" />
    <glyph glyph-name="I_I.liga" unicode="II" horiz-adv-x="1376" 
d="M240 0v1520h208v-1520h-208zM928 0v1520h208v-1520h-208z" />
    <glyph glyph-name="dotlessi_dotlessi.liga" unicode="&#x131;&#x131;" horiz-adv-x="1280" 
d="M220 0v1200h200v-1200h-200zM860 0v1200h200v-1200h-200z" />
    <glyph glyph-name="uni04070407.liga" unicode="&#x407;&#x407;" horiz-adv-x="1376" 
d="M40 1696v224h224v-224h-224zM396 1696v224h224v-224h-224zM756 1696v224h224v-224h-224zM1112 1696v224h224v-224h-224zM240 0v1520h208v-1520h-208zM928 0v1520h208v-1520h-208z" />
    <glyph glyph-name="uni04570457.liga" unicode="&#x457;&#x457;" horiz-adv-x="1280" 
d="M-8 1376v224h224v-224h-224zM348 1376v224h224v-224h-224zM708 1376v224h224v-224h-224zM1064 1376v224h224v-224h-224zM220 0v1200h200v-1200h-200zM860 0v1200h200v-1200h-200z" />
    <glyph glyph-name="uni2019_uni0457.liga" unicode="&#x2019;&#x457;" horiz-adv-x="1192" 
d="M80 1096v136h40q53 0 76.5 29.5t23.5 90.5v24h-140v224h280v-224q0 -140 -64 -210t-176 -70h-40zM568 1376v224h224v-224h-224zM952 1376v224h224v-224h-224zM772 0v1200h200v-1200h-200z" />
    <glyph glyph-name="ampersand.ss08" unicode="&#x3c;&#x442;&#x430;&#x3e;" horiz-adv-x="1380" 
d="M1256 176h44v-176q-16 -8 -68 -8q-112 0 -161.5 42.5t-58.5 149.5q-76 -97 -205 -150.5t-295 -53.5q-182 0 -297 85t-115 227q0 72 28 128.5t71 92t108.5 62.5t127.5 40.5t141 24.5v300q-97 -9 -186.5 -52.5t-157.5 -111.5l-116 124q177 177 460 208v240h-456v172h1076
v-172h-452v-236q203 -12 317.5 -108t114.5 -252v-496q0 -42 19 -61t61 -19zM992 784q0 69 -65.5 111.5t-182.5 48.5v-280q45 6 68 10t57.5 11t52 15t36.5 20t26.5 27.5t7.5 36.5zM744 180q116 39 188 115.5t72 184.5v112q-79 -59 -260 -88v-324zM288 300q0 -78 63.5 -119
t164.5 -41q40 0 60 4v340q-54 -8 -90.5 -16t-77 -22.5t-64.5 -32.5t-40 -47t-16 -66z" />
    <glyph glyph-name="trident.ss01" unicode="&#x3c;&#x442;&#x440;&#x438;&#x437;&#x443;&#x431;&#x3e;" horiz-adv-x="2232" 
d="M1116 -448q-21 43 -68 76q-88 67 -147.5 163t-80.5 209h-372v1608q150 -75 249 -226t111 -322l56 -452l-28 4q-44 0 -78 -34.5t-34 -77.5q0 -38 26 -68.5t66 -39.5l68 -16q176 333 176 624q0 99 -13 285t-15 271q0 123 84 220q84 -97 84 -220q0 -94 -14 -279t-14 -277
q0 -291 176 -624l68 16q40 9 66 39.5t26 68.5q0 43 -34 77.5t-78 34.5l-28 -4l56 452q22 175 117.5 325t242.5 223v-1608h-372q-21 -115 -80 -212.5t-148 -159.5q-47 -33 -68 -76zM560 556h64q12 44 42.5 82t73.5 62l-44 372q-24 173 -136 304v-820zM1608 556h64v820
q-119 -139 -136 -304l-44 -372q43 -24 73.5 -62t42.5 -82zM1116 268q57 64 120 80q-85 156 -120 276q-35 -120 -120 -276q63 -16 120 -80zM560 112h252q0 73 20 160l-52 12q-57 18 -99 60.5t-57 99.5h-64v-332zM1420 112h252v332h-64q-15 -57 -57 -99.5t-99 -60.5l-52 -12
q20 -87 20 -160zM920 112h140q0 51 -34.5 90.5t-85.5 45.5q-20 -73 -20 -136zM1172 112h140q0 63 -20 136q-51 -6 -85.5 -45.5t-34.5 -90.5zM1060 -236v236h-124q29 -129 124 -236zM1172 -236q95 107 124 236h-124v-236z" />
    <glyph glyph-name=".notdef" horiz-adv-x="2232" 
d="M1116 -584l692 304q91 41 143.5 125t52.5 179v1888h-1776v-1888q0 -95 52.5 -179t143.5 -125zM1116 -448q-21 43 -68 76q-88 67 -147.5 163t-80.5 209h-372v1608q150 -75 249 -226t111 -322l56 -452l-28 4q-44 0 -78 -34.5t-34 -77.5q0 -38 26 -68.5t66 -39.5l68 -16
q176 333 176 624q0 99 -13 285t-15 271q0 123 84 220q84 -97 84 -220q0 -94 -14 -279t-14 -277q0 -291 176 -624l68 16q40 9 66 39.5t26 68.5q0 43 -34 77.5t-78 34.5l-28 -4l56 452q22 175 117.5 325t242.5 223v-1608h-372q-21 -115 -80 -212.5t-148 -159.5
q-47 -33 -68 -76zM560 556h64q12 44 42.5 82t73.5 62l-44 372q-24 173 -136 304v-820zM1608 556h64v820q-119 -139 -136 -304l-44 -372q43 -24 73.5 -62t42.5 -82zM1116 268q57 64 120 80q-85 156 -120 276q-35 -120 -120 -276q63 -16 120 -80zM560 112h252q0 73 20 160
l-52 12q-57 18 -99 60.5t-57 99.5h-64v-332zM1420 112h252v332h-64q-15 -57 -57 -99.5t-99 -60.5l-52 -12q20 -87 20 -160zM920 112h140q0 51 -34.5 90.5t-85.5 45.5q-20 -73 -20 -136zM1172 112h140q0 63 -20 136q-51 -6 -85.5 -45.5t-34.5 -90.5zM1060 -236v236h-124
q29 -129 124 -236zM1172 -236q95 107 124 236h-124v-236z" />
    <glyph glyph-name=".null" horiz-adv-x="0" 
 />
    <glyph glyph-name="nonmarkingreturn" horiz-adv-x="682" 
 />
    <glyph glyph-name="CR" unicode="&#xd;" horiz-adv-x="640" 
 />
    <glyph glyph-name="space" unicode=" " horiz-adv-x="640" 
 />
    <glyph glyph-name="exclam" unicode="!" horiz-adv-x="688" 
d="M268 480l-44 1040h240l-44 -1040h-152zM204 0v280h280v-280h-280z" />
    <glyph glyph-name="quotedbl" unicode="&#x22;" horiz-adv-x="816" 
d="M124 1000l-24 520h216l-24 -520h-168zM524 1000l-24 520h216l-24 -520h-168z" />
    <glyph glyph-name="numbersign" unicode="#" 
d="M1340 936h-260v-352h260v-200h-260v-384h-176v384h-368v-384h-176v384h-260v200h260v352h-260v200h260v384h176v-384h368v384h176v-384h260v-200zM904 584v352h-368v-352h368z" />
    <glyph glyph-name="dollar" unicode="$" horiz-adv-x="1404" 
d="M1280 432q0 -189 -134.5 -308t-369.5 -140v-160h-152v156q-314 18 -528 220l128 160q167 -161 400 -192v524q-89 27 -153.5 51.5t-129 61t-104 78.5t-64.5 101.5t-25 131.5q0 177 128 289.5t348 130.5v144h152v-144q258 -12 468 -172l-124 -164q-149 130 -344 152v-492
q273 -72 388.5 -170.5t115.5 -257.5zM356 1128q0 -79 60 -131.5t208 -96.5v452q-124 -12 -196 -72t-72 -152zM776 168q139 12 217.5 75.5t78.5 164.5q0 83 -62.5 135t-233.5 105v-480z" />
    <glyph glyph-name="percent" unicode="%" horiz-adv-x="2136" 
d="M520 620q-183 0 -291.5 125t-108.5 335t108.5 335t291.5 125t291.5 -125t108.5 -335t-108.5 -335t-291.5 -125zM500 0l964 1520h172l-964 -1520h-172zM520 768q105 0 168.5 85.5t63.5 226.5t-63.5 226.5t-168.5 85.5t-168.5 -85.5t-63.5 -226.5t63.5 -226.5t168.5 -85.5z
M1616 -20q-183 0 -291.5 125t-108.5 335t108.5 335t291.5 125t291.5 -125t108.5 -335t-108.5 -335t-291.5 -125zM1616 128q105 0 168.5 85.5t63.5 226.5t-63.5 226.5t-168.5 85.5t-168.5 -85.5t-63.5 -226.5t63.5 -226.5t168.5 -85.5z" />
    <glyph glyph-name="ampersand" unicode="&#x26;" horiz-adv-x="1928" 
d="M1680 340l172 -40q-12 -150 -92 -235t-212 -85q-147 0 -376 172q-236 -172 -524 -172q-255 0 -401.5 110.5t-146.5 305.5q0 156 91 259t289 169q-90 114 -127 194.5t-37 161.5q0 159 119.5 259.5t308.5 100.5q201 0 324.5 -96t123.5 -252q0 -137 -105.5 -251.5
t-290.5 -184.5q183 -194 372 -356q167 180 216 448l192 -44q-66 -305 -260 -524q167 -124 240 -124q55 0 83 45t41 139zM744 1372q-102 0 -169 -61t-67 -151q0 -57 34.5 -114t133.5 -162q148 39 230 115t82 177q0 90 -66.5 143t-177.5 53zM664 164q198 0 360 112
q-189 164 -424 416q-292 -83 -292 -296q0 -105 98 -168.5t258 -63.5z" />
    <glyph glyph-name="quotesingle" unicode="'" horiz-adv-x="416" 
d="M124 1000l-24 520h216l-24 -520h-168z" />
    <glyph glyph-name="parenleft" unicode="(" horiz-adv-x="920" 
d="M724 -296q-246 138 -391 401t-145 575t145 575t391 401l76 -100q-192 -150 -300 -381t-108 -495t108 -495t300 -381z" />
    <glyph glyph-name="parenright" unicode=")" horiz-adv-x="920" 
d="M264 -296l-76 100q192 150 300 381t108 495t-108 495t-300 381l76 100q246 -138 391 -401t145 -575t-145 -575t-391 -401z" />
    <glyph glyph-name="asterisk" unicode="*" horiz-adv-x="952" 
d="M852 1276l-272 -88l168 -228l-104 -76l-168 228l-168 -228l-104 76l168 232l-272 88l40 124l272 -88v284h128v-284l272 88z" />
    <glyph glyph-name="plus" unicode="+" 
d="M1260 848v-176h-448v-452h-184v452h-448v176h448v452h184v-452h448z" />
    <glyph glyph-name="comma" unicode="," horiz-adv-x="600" 
d="M160 -280v136h40q53 0 76.5 29.5t23.5 90.5v24h-140v280h280v-280q0 -140 -64 -210t-176 -70h-40z" />
    <glyph glyph-name="hyphen" unicode="-" horiz-adv-x="960" 
d="M140 580v200h680v-200h-680z" />
    <glyph glyph-name="period" unicode="." horiz-adv-x="600" 
d="M160 0v280h280v-280h-280z" />
    <glyph glyph-name="slash" unicode="/" horiz-adv-x="920" 
d="M-80 -80l888 1680h192l-888 -1680h-192z" />
    <glyph glyph-name="zero" unicode="0" 
d="M720 -20q-273 0 -436.5 213t-163.5 567t163.5 567t436.5 213t436.5 -213t163.5 -567t-163.5 -567t-436.5 -213zM720 160q180 0 288 163.5t108 436.5t-108 436.5t-288 163.5t-288 -163.5t-108 -436.5t108 -436.5t288 -163.5z" />
    <glyph glyph-name="one" unicode="1" horiz-adv-x="900" 
d="M420 0v1108h-360v156h60q137 0 209.5 23t106.5 76.5t44 156.5h140v-1520h-200z" />
    <glyph glyph-name="two" unicode="2" horiz-adv-x="1204" 
d="M360 188h764v-188h-1064v128l524 480q157 145 226.5 257.5t69.5 222.5q0 123 -79 199.5t-205 76.5q-151 0 -241.5 -90.5t-102.5 -257.5l-188 40q21 224 167.5 354t372.5 130q213 0 346.5 -122.5t133.5 -317.5q0 -144 -96.5 -289t-311.5 -339z" />
    <glyph glyph-name="three" unicode="3" horiz-adv-x="1220" 
d="M676 932q192 0 318 -126.5t126 -321.5q0 -216 -157.5 -360t-394.5 -144q-192 0 -335.5 83.5t-212.5 236.5l156 96q111 -240 376 -240q171 0 267.5 87.5t96.5 240.5q0 135 -79.5 217.5t-208.5 82.5q-104 0 -176 -48l-108 112l464 488h-724v184h992v-144l-428 -444h28z" />
    <glyph glyph-name="four" unicode="4" horiz-adv-x="1280" 
d="M1260 560v-172h-252v-388h-200v388h-748v156l708 976h240v-960h252zM272 560h536v740z" />
    <glyph glyph-name="five" unicode="5" horiz-adv-x="1248" 
d="M628 1020q225 0 372.5 -145.5t147.5 -370.5q0 -231 -158 -377.5t-410 -146.5q-174 0 -310 75.5t-206 204.5l144 104q52 -92 153 -150t219 -58q165 0 266.5 96t101.5 252t-94 252t-250 96q-103 0 -183.5 -44t-128.5 -128l-156 48l68 792h832v-184h-672l-36 -424
q114 108 300 108z" />
    <glyph glyph-name="six" unicode="6" horiz-adv-x="1304" 
d="M740 968q145 0 260.5 -56.5t183.5 -167t68 -256.5t-76 -263.5t-200 -181t-268 -63.5q-123 0 -223.5 42t-167 113.5t-112 169.5t-65.5 206.5t-20 228.5q0 126 21.5 240t69.5 217.5t119 178.5t177.5 119.5t236.5 44.5q140 0 263.5 -53.5t204.5 -158.5l-136 -128
q-120 168 -332 168q-98 0 -176 -36t-127 -95t-81 -139t-44.5 -163.5t-11.5 -174.5v-24q66 111 180.5 171.5t255.5 60.5zM708 152q145 0 248.5 90.5t103.5 233.5q0 147 -96.5 235.5t-243.5 88.5q-148 0 -250 -87.5t-102 -228.5q0 -149 94.5 -240.5t245.5 -91.5z" />
    <glyph glyph-name="seven" unicode="7" horiz-adv-x="1116" 
d="M20 1520h1096v-144q-261 -240 -412.5 -604.5t-151.5 -771.5h-208q0 386 153.5 747.5t386.5 588.5h-864v184z" />
    <glyph glyph-name="eight" unicode="8" horiz-adv-x="1296" 
d="M920 768q131 -49 203.5 -143.5t72.5 -224.5q0 -189 -150 -304.5t-398 -115.5t-398 115.5t-150 304.5q0 130 72.5 224.5t203.5 143.5q-111 48 -171.5 138t-60.5 210q0 193 137 308.5t367 115.5t367 -115.5t137 -308.5q0 -120 -60.5 -210t-171.5 -138zM648 1380
q-141 0 -224.5 -74.5t-83.5 -197.5t83.5 -195.5t224.5 -72.5t224.5 72.5t83.5 195.5t-83.5 197.5t-224.5 74.5zM648 140q159 0 255.5 74.5t96.5 197.5t-96 195.5t-256 72.5t-256 -72.5t-96 -195.5t96.5 -197.5t255.5 -74.5z" />
    <glyph glyph-name="nine" unicode="9" horiz-adv-x="1304" 
d="M596 1540q123 0 223.5 -42t167 -113.5t112 -169.5t65.5 -206.5t20 -228.5q0 -126 -21.5 -240t-69.5 -217.5t-119 -178.5t-177.5 -119.5t-236.5 -44.5q-140 0 -263.5 53.5t-204.5 158.5l136 128q120 -168 332 -168q98 0 176 36t127 95t81 139t44.5 163.5t11.5 174.5v24
q-66 -111 -180.5 -171.5t-255.5 -60.5q-145 0 -260.5 56.5t-183.5 167t-68 256.5t76 263.5t200 181t268 63.5zM584 720q148 0 250 87.5t102 228.5q0 149 -94.5 240.5t-245.5 91.5q-145 0 -248.5 -90.5t-103.5 -233.5q0 -147 96.5 -235.5t243.5 -88.5z" />
    <glyph glyph-name="colon" unicode=":" horiz-adv-x="600" 
d="M160 920v280h280v-280h-280zM160 0v280h280v-280h-280z" />
    <glyph glyph-name="semicolon" unicode=";" horiz-adv-x="600" 
d="M160 920v280h280v-280h-280zM160 -280v136h40q53 0 76.5 29.5t23.5 90.5v24h-140v280h280v-280q0 -140 -64 -210t-176 -70h-40z" />
    <glyph glyph-name="less" unicode="&#x3c;" 
d="M1260 1288v-188l-836 -332l836 -336v-200l-1080 432v192z" />
    <glyph glyph-name="equal" unicode="=" 
d="M180 936v176h1080v-176h-1080zM180 408v176h1080v-176h-1080z" />
    <glyph glyph-name="greater" unicode="&#x3e;" 
d="M180 1288l1080 -432v-192l-1080 -432v188l836 336l-836 332v200z" />
    <glyph glyph-name="question" unicode="?" horiz-adv-x="1220" 
d="M508 440q-6 114 31.5 183.5t160.5 168.5q114 93 155 156t41 144q0 128 -75.5 200t-208.5 72q-147 0 -239.5 -94.5t-104.5 -253.5l-188 40q21 219 168 351.5t372 132.5q216 0 348 -120.5t132 -315.5q0 -123 -61.5 -223t-202.5 -205q-91 -70 -129.5 -119t-38.5 -97v-20
h-160zM456 0v280h280v-280h-280z" />
    <glyph glyph-name="at" unicode="@" horiz-adv-x="1716" 
d="M1592 176h44v-176q-7 -3 -36 -7t-32 -1q-111 0 -161 44t-59 152q-66 -96 -181 -152t-247 -56q-174 0 -283 98.5t-109 257.5q0 66 20 120t50 91.5t80.5 68.5t93 48.5t108 33.5t107 22.5t105.5 15.5q57 9 86 15t63 15.5t48.5 21.5t14.5 28q0 95 -111.5 167.5t-292.5 72.5
q-273 0 -440.5 -176.5t-167.5 -467.5q0 -300 178.5 -476t481.5 -176q223 0 388 112l80 -144q-219 -128 -476 -128q-179 0 -332.5 60.5t-261.5 167t-169 257.5t-61 327q0 173 59.5 323.5t163 256.5t249 167t312.5 61q279 0 443.5 -144.5t164.5 -387.5v-432q0 -42 19 -61
t61 -19zM944 148q150 0 263 90.5t113 213.5v196q-57 -37 -236 -68q-48 -8 -76 -13t-70.5 -15.5t-68 -21.5t-56 -29t-46.5 -39.5t-27.5 -52.5t-11.5 -69q0 -92 56.5 -142t159.5 -50z" />
    <glyph glyph-name="A" unicode="A" horiz-adv-x="1560" 
d="M1308 0l-152 380h-756l-152 -380h-216l624 1520h248l624 -1520h-220zM472 564h608l-304 760z" />
    <glyph glyph-name="B" unicode="B" horiz-adv-x="1520" 
d="M1180 780q106 -51 163 -145t57 -219q0 -189 -128 -302.5t-344 -113.5h-688v1520h668q210 0 335 -110.5t125 -293.5q0 -229 -188 -336zM876 1336h-436v-464h436q288 0 288 232t-288 232zM880 184q312 0 312 252t-312 252h-440v-504h440z" />
    <glyph glyph-name="C" unicode="C" horiz-adv-x="1540" 
d="M832 -20q-324 0 -518 213t-194 567q0 227 90 405t252 276.5t370 98.5q232 0 395.5 -116.5t232.5 -331.5l-192 -68q-48 162 -159.5 247t-276.5 85q-223 0 -361.5 -163.5t-138.5 -432.5q0 -275 135.5 -435.5t364.5 -160.5q165 0 276.5 85t159.5 247l192 -68
q-66 -209 -232.5 -328.5t-395.5 -119.5z" />
    <glyph glyph-name="D" unicode="D" horiz-adv-x="1640" 
d="M780 1520q352 0 546 -205t194 -555q0 -224 -87.5 -395.5t-256 -268t-396.5 -96.5h-540v1520h540zM780 184q244 0 386 156.5t142 419.5t-142 419.5t-386 156.5h-332v-1152h332z" />
    <glyph glyph-name="E" unicode="E" horiz-adv-x="1360" 
d="M448 188h832v-188h-1040v1520h1020v-188h-812v-460h632v-184h-632v-500z" />
    <glyph glyph-name="F" unicode="F" horiz-adv-x="1312" 
d="M1272 1332h-824v-460h644v-184h-644v-688h-208v1520h1032v-188z" />
    <glyph glyph-name="G" unicode="G" horiz-adv-x="1664" 
d="M900 760h604v-760h-156l-20 228q-88 -119 -215.5 -183.5t-284.5 -64.5q-321 0 -514.5 213t-193.5 567q0 228 92.5 405.5t260.5 276t383 98.5q229 0 393 -106t239 -306l-192 -72q-51 146 -164 223t-276 77q-235 0 -379.5 -163.5t-144.5 -432.5q0 -275 135.5 -435.5
t364.5 -160.5q85 0 164 26t147.5 76t116.5 133t64 189h-424v172z" />
    <glyph glyph-name="H" unicode="H" horiz-adv-x="1720" 
d="M1272 1520h208v-1520h-208v684h-824v-684h-208v1520h208v-644h824v644z" />
    <glyph glyph-name="I" unicode="I" horiz-adv-x="688" 
d="M240 0v1520h208v-1520h-208z" />
    <glyph glyph-name="J" unicode="J" horiz-adv-x="1056" 
d="M392 -20q-142 0 -246.5 76t-145.5 220l180 76q16 -90 72 -141t152 -51q108 0 166 69.5t58 198.5v1092h208v-1088q0 -211 -120.5 -331.5t-323.5 -120.5z" />
    <glyph glyph-name="K" unicode="K" horiz-adv-x="1552" 
d="M1256 0l-572 752l-236 -232v-520h-208v1520h208v-760l760 760h260l-636 -624l680 -896h-256z" />
    <glyph glyph-name="L" unicode="L" horiz-adv-x="1340" 
d="M448 192h832v-192h-1040v1520h208v-1328z" />
    <glyph glyph-name="M" unicode="M" horiz-adv-x="2120" 
d="M1880 1520v-1520h-200v1300l-500 -1300h-240l-500 1300v-1300h-200v1520h332l492 -1288l488 1288h328z" />
    <glyph glyph-name="N" unicode="N" horiz-adv-x="1720" 
d="M1284 1520h196v-1520h-204l-840 1196v-1196h-196v1520h208l836 -1188v1188z" />
    <glyph glyph-name="O" unicode="O" horiz-adv-x="1680" 
d="M840 -20q-327 0 -523.5 213t-196.5 567q0 227 91 405t255 276.5t374 98.5q327 0 523.5 -213t196.5 -567q0 -227 -91 -405t-255 -276.5t-374 -98.5zM840 164q231 0 369.5 163t138.5 433t-138.5 433t-369.5 163t-369.5 -163t-138.5 -433t138.5 -433t369.5 -163z" />
    <glyph glyph-name="P" unicode="P" horiz-adv-x="1472" 
d="M868 1520q240 0 382 -125t142 -335t-142 -335t-382 -125h-420v-600h-208v1520h628zM844 788q336 0 336 272t-336 272h-396v-544h396z" />
    <glyph glyph-name="Q" unicode="Q" horiz-adv-x="1680" 
d="M1560 760q0 -316 -171 -527.5t-449 -244.5v-88q0 -128 144 -128q40 0 102 2t90 2v-172q-96 -12 -200 -12q-158 0 -245 74.5t-87 245.5v72q-286 33 -455 241.5t-169 534.5q0 227 91 405t255 276.5t374 98.5q327 0 523.5 -213t196.5 -567zM332 760q0 -270 138.5 -433
t369.5 -163t369.5 163t138.5 433t-138.5 433t-369.5 163t-369.5 -163t-138.5 -433z" />
    <glyph glyph-name="R" unicode="R" horiz-adv-x="1536" 
d="M1216 0l-372 608h-400v-608h-204v1520h608q237 0 378.5 -124.5t141.5 -331.5q0 -155 -81.5 -265.5t-226.5 -158.5l396 -640h-240zM444 1332v-544h376q336 0 336 272t-336 272h-376z" />
    <glyph glyph-name="S" unicode="S" horiz-adv-x="1392" 
d="M684 -20q-172 0 -323.5 56.5t-264.5 163.5l128 160q99 -96 224.5 -146t263.5 -50q168 0 264 65t96 179q0 62 -31.5 104t-109 79t-223.5 77q-77 22 -129 38.5t-116 41t-105.5 48t-85 57.5t-68.5 71t-40.5 86t-15.5 106q0 194 154 309t410 115q301 0 532 -176l-124 -164
q-175 156 -428 156q-153 0 -244.5 -61.5t-91.5 -166.5q0 -93 84 -149.5t300 -110.5q294 -72 417 -171.5t123 -264.5q0 -208 -160.5 -330t-435.5 -122z" />
    <glyph glyph-name="T" unicode="T" horiz-adv-x="1400" 
d="M1360 1520v-192h-556v-1328h-208v1328h-556v192h1320z" />
    <glyph glyph-name="U" unicode="U" horiz-adv-x="1680" 
d="M840 -20q-282 0 -451 166.5t-169 445.5v928h208v-928q0 -195 111.5 -311.5t300.5 -116.5t300.5 116.5t111.5 311.5v928h208v-928q0 -279 -169 -445.5t-451 -166.5z" />
    <glyph glyph-name="V" unicode="V" horiz-adv-x="1536" 
d="M1260 1520h216l-588 -1520h-240l-588 1520h220l492 -1288z" />
    <glyph glyph-name="W" unicode="W" horiz-adv-x="2216" 
d="M1932 1520h204l-440 -1520h-220l-372 1264l-368 -1264h-216l-440 1520h212l352 -1212l348 1212h232l352 -1220z" />
    <glyph glyph-name="X" unicode="X" horiz-adv-x="1488" 
d="M1448 0h-248l-456 632l-460 -632h-244l580 780l-540 740h248l420 -588l420 588h240l-536 -732z" />
    <glyph glyph-name="Y" unicode="Y" horiz-adv-x="1448" 
d="M1428 1520l-600 -908v-612h-208v612l-600 908h240l468 -716l464 716h236z" />
    <glyph glyph-name="Z" unicode="Z" horiz-adv-x="1412" 
d="M1312 1520v-172l-944 -1156h944v-192h-1212v172l944 1156h-900v192h1168z" />
    <glyph glyph-name="bracketleft" unicode="[" horiz-adv-x="920" 
d="M760 1440h-336v-1520h336v-160h-520v1840h520v-160z" />
    <glyph glyph-name="backslash" unicode="\" horiz-adv-x="920" 
d="M1000 -80h-192l-888 1680h192z" />
    <glyph glyph-name="bracketright" unicode="]" horiz-adv-x="960" 
d="M800 1600v-1840h-520v160h336v1520h-336v160h520z" />
    <glyph glyph-name="asciicircum" unicode="^" 
d="M1208 760h-196l-292 580l-296 -580h-192l392 760h192z" />
    <glyph glyph-name="underscore" unicode="_" horiz-adv-x="1000" 
d="M0 -48h1000v-192h-1000v192z" />
    <glyph glyph-name="grave" unicode="`" horiz-adv-x="640" 
d="M500 1320h-148l-228 280h260z" />
    <glyph glyph-name="a" unicode="a" horiz-adv-x="1268" 
d="M1144 176h44v-176q-16 -8 -68 -8q-111 0 -161 44t-59 152q-67 -95 -181 -151.5t-247 -56.5q-174 0 -283 98.5t-109 257.5q0 60 17 110.5t43.5 87t68.5 66.5t84 49.5t98 35.5t101.5 25t103.5 18q172 27 226 50.5t54 93.5q0 80 -73.5 128t-194.5 48q-105 0 -203 -43
t-173 -121l-124 128q208 208 508 208q208 0 328 -104.5t120 -287.5v-572q0 -42 19 -61t61 -19zM496 148q150 0 263 90.5t113 213.5v184q-30 -22 -82 -34.5t-166 -29.5q-39 -6 -57 -9.5t-53.5 -11t-54 -13t-47.5 -16.5t-44.5 -22t-35 -27.5t-29 -35.5t-16.5 -43.5t-7 -53.5
q0 -92 56.5 -142t159.5 -50z" />
    <glyph glyph-name="b" unicode="b" horiz-adv-x="1448" 
d="M808 1220q240 0 386 -169.5t146 -450.5q0 -274 -150 -447t-382 -173q-274 0 -424 212l-16 -192h-168v1600h200v-580q72 96 177.5 148t230.5 52zM760 156q171 0 273.5 121.5t102.5 322.5t-102.5 322.5t-273.5 121.5t-273.5 -121.5t-102.5 -322.5t102.5 -322.5
t273.5 -121.5z" />
    <glyph glyph-name="c" unicode="c" horiz-adv-x="1304" 
d="M700 -20q-262 0 -427 172.5t-165 447.5t165 447.5t427 172.5q192 0 334.5 -95.5t189.5 -264.5l-188 -60q-42 115 -129.5 179.5t-206.5 64.5q-179 0 -283.5 -121t-104.5 -323t104.5 -323t283.5 -121q119 0 208.5 64.5t131.5 179.5l184 -60q-50 -169 -192.5 -264.5
t-331.5 -95.5z" />
    <glyph glyph-name="d" unicode="d" horiz-adv-x="1448" 
d="M1048 1600h200v-1600h-168l-16 200q-72 -105 -182 -162.5t-242 -57.5q-240 0 -386 169.5t-146 450.5q0 274 150 447t382 173q129 0 234 -49.5t174 -142.5v572zM688 156q171 0 273.5 121.5t102.5 322.5t-102.5 322.5t-273.5 121.5t-273.5 -121.5t-102.5 -322.5
t102.5 -322.5t273.5 -121.5z" />
    <glyph glyph-name="e" unicode="e" horiz-adv-x="1364" 
d="M312 536q18 -175 124 -277.5t276 -102.5q258 0 372 164l144 -124q-73 -96 -201 -156t-311 -60q-189 0 -328.5 81t-209.5 220.5t-70 318.5q0 275 164.5 447.5t423.5 172.5q258 0 413 -169t155 -451q0 -44 -4 -64h-948zM696 1048q-155 0 -255.5 -94.5t-124.5 -257.5h740
q-21 163 -117.5 257.5t-242.5 94.5z" />
    <glyph glyph-name="f" unicode="f" horiz-adv-x="908" 
d="M668 1444q-74 0 -115 -39t-41 -109v-96h348v-172h-348v-1028h-200v1028h-252v172h252v104q0 147 98.5 231.5t269.5 84.5q170 0 308 -96l-96 -156q-94 76 -224 76z" />
    <glyph glyph-name="g" unicode="g" horiz-adv-x="1448" 
d="M1080 1200h168l-4 -1092q0 -234 -154 -381t-414 -147q-306 0 -476 176l120 140q70 -76 154.5 -108t201.5 -32q103 0 178.5 28t118.5 79t63 113.5t20 139.5v128q-73 -94 -181 -147t-235 -53q-240 0 -386 160.5t-146 427.5q0 260 150 424t382 164q136 0 245 -53.5
t179 -150.5zM688 216q171 0 273.5 113.5t102.5 302.5q0 186 -102.5 299t-273.5 113t-273.5 -113t-102.5 -299q0 -189 102.5 -302.5t273.5 -113.5z" />
    <glyph glyph-name="h" unicode="h" horiz-adv-x="1436" 
d="M816 1220q196 0 318 -127t122 -333v-760h-200v700q0 164 -76 254t-212 90q-155 0 -261.5 -99t-106.5 -253v-692h-200v1600h200v-576q70 92 178 144t238 52z" />
    <glyph glyph-name="i" unicode="i" horiz-adv-x="640" 
d="M208 1376v224h224v-224h-224zM220 0v1200h200v-1200h-200z" />
    <glyph glyph-name="j" unicode="j" horiz-adv-x="620" 
d="M208 1376v224h224v-224h-224zM112 -408q-48 0 -112 8v184q32 -4 92 -4q65 0 96.5 31t31.5 101v1288h200v-1296q0 -166 -80.5 -239t-227.5 -73z" />
    <glyph glyph-name="k" unicode="k" horiz-adv-x="1264" 
d="M1016 0l-436 580l-180 -168v-412h-200v1600h200v-956l584 556h256l-516 -484l540 -716h-248z" />
    <glyph glyph-name="l" unicode="l" horiz-adv-x="600" 
d="M200 0v1600h200v-1600h-200z" />
    <glyph glyph-name="m" unicode="m" horiz-adv-x="2228" 
d="M1620 1220q194 0 311 -126t117 -334v-760h-200v700q0 166 -69 255t-203 89q-154 0 -253 -98.5t-99 -253.5v-692h-200v700q0 166 -69 255t-203 89q-154 0 -253 -98.5t-99 -253.5v-692h-200v1200h168l16 -192q64 100 172 156t244 56t233.5 -63.5t146.5 -176.5
q64 112 179.5 176t260.5 64z" />
    <glyph glyph-name="n" unicode="n" 
d="M820 1220q196 0 318 -127t122 -333v-760h-200v700q0 164 -76 254t-212 90q-158 0 -265 -99t-107 -253v-692h-200v1200h168l16 -200q67 103 181.5 161.5t254.5 58.5z" />
    <glyph glyph-name="o" unicode="o" horiz-adv-x="1416" 
d="M708 -20q-273 0 -436.5 169t-163.5 451q0 275 167.5 447.5t432.5 172.5q273 0 436.5 -169t163.5 -451q0 -275 -167.5 -447.5t-432.5 -172.5zM708 156q180 0 288 121.5t108 322.5t-108 322.5t-288 121.5t-288 -121.5t-108 -322.5t108 -322.5t288 -121.5z" />
    <glyph glyph-name="p" unicode="p" horiz-adv-x="1448" 
d="M808 1220q240 0 386 -169.5t146 -450.5q0 -274 -150 -447t-382 -173q-129 0 -234 49.5t-174 142.5v-572h-200v1600h168l16 -200q72 105 182 162.5t242 57.5zM760 156q171 0 273.5 121.5t102.5 322.5t-102.5 322.5t-273.5 121.5t-273.5 -121.5t-102.5 -322.5t102.5 -322.5
t273.5 -121.5z" />
    <glyph glyph-name="q" unicode="q" horiz-adv-x="1448" 
d="M1080 1200h168v-1600h-200v580q-72 -96 -177.5 -148t-230.5 -52q-240 0 -386 169.5t-146 450.5q0 274 150 447t382 173q274 0 424 -212zM688 156q171 0 273.5 121.5t102.5 322.5t-102.5 322.5t-273.5 121.5t-273.5 -121.5t-102.5 -322.5t102.5 -322.5t273.5 -121.5z" />
    <glyph glyph-name="r" unicode="r" horiz-adv-x="940" 
d="M816 1220q28 0 84 -8v-196q-44 4 -140 4q-152 0 -256 -96t-104 -244v-680h-200v1200h168l16 -200q66 103 180.5 161.5t251.5 58.5z" />
    <glyph glyph-name="s" unicode="s" horiz-adv-x="1152" 
d="M584 -20q-304 0 -504 188l116 140q152 -152 392 -152q129 0 200.5 43t71.5 121q0 69 -64.5 111.5t-235.5 84.5q-234 60 -331 140.5t-97 215.5q0 156 126 252t330 96q249 0 440 -148l-120 -156q-134 128 -328 128q-115 0 -183.5 -42t-68.5 -114q0 -63 63.5 -104.5
t224.5 -83.5q240 -66 338 -147.5t98 -216.5q0 -162 -127.5 -259t-340.5 -97z" />
    <glyph glyph-name="t" unicode="t" horiz-adv-x="976" 
d="M872 1028h-380v-688q0 -99 41.5 -135.5t138.5 -36.5t200 28v-188q-112 -28 -232 -28q-170 0 -259 83.5t-89 240.5v724h-236v172h236l32 320h168v-320h380v-172z" />
    <glyph glyph-name="u" unicode="u" 
d="M1040 1200h200v-1200h-168l-16 200q-67 -103 -181.5 -161.5t-254.5 -58.5q-196 0 -318 127t-122 333v760h200v-700q0 -164 76 -254t212 -90q158 0 265 99t107 253v692z" />
    <glyph glyph-name="v" unicode="v" horiz-adv-x="1264" 
d="M1012 1200h212l-480 -1200h-224l-480 1200h220l376 -988z" />
    <glyph glyph-name="w" unicode="w" horiz-adv-x="1872" 
d="M1616 1200h196l-376 -1200h-216l-284 940l-284 -940h-216l-376 1200h204l284 -956l288 956h204l292 -960z" />
    <glyph glyph-name="x" unicode="x" horiz-adv-x="1304" 
d="M1244 0h-244l-348 476l-356 -476h-236l468 612l-440 588h244l328 -444l332 444h232l-440 -584z" />
    <glyph glyph-name="y" unicode="y" horiz-adv-x="1284" 
d="M1052 1200h208l-460 -1264q-27 -74 -62 -135.5t-81 -112.5t-107 -79.5t-130 -28.5q-155 0 -237 95t-79 241l180 32q-8 -184 136 -184q55 0 97 36.5t79 111.5l-564 1288h220l440 -1052z" />
    <glyph glyph-name="z" unicode="z" horiz-adv-x="1176" 
d="M328 172h768v-172h-1016v176l752 852h-716v172h960v-176z" />
    <glyph glyph-name="braceleft" unicode="{" horiz-adv-x="920" 
d="M484 920q0 -191 -128 -240q128 -49 128 -240v-440q0 -80 80 -80h196v-160h-220q-117 0 -178.5 61.5t-61.5 178.5v428q0 89 -27 130.5t-89 41.5h-64v160h64q62 0 89 41.5t27 130.5v428q0 117 61.5 178.5t178.5 61.5h220v-160h-196q-80 0 -80 -80v-440z" />
    <glyph glyph-name="bar" unicode="|" horiz-adv-x="664" 
d="M240 -240v1840h184v-1840h-184z" />
    <glyph glyph-name="braceright" unicode="}" horiz-adv-x="920" 
d="M696 760h64v-160h-64q-62 0 -89 -41.5t-27 -130.5v-428q0 -117 -61.5 -178.5t-178.5 -61.5h-220v160h196q80 0 80 80v440q0 191 128 240q-128 49 -128 240v440q0 80 -80 80h-196v160h220q117 0 178.5 -61.5t61.5 -178.5v-428q0 -89 27 -130.5t89 -41.5z" />
    <glyph glyph-name="asciitilde" unicode="~" 
d="M268 608l-128 112q134 212 336 212q60 0 115 -17.5t98 -42t84.5 -49t91 -42t99.5 -17.5q113 0 208 148l128 -112q-134 -212 -336 -212q-60 0 -115 17.5t-98 42t-84.5 49t-91 42t-99.5 17.5q-113 0 -208 -148z" />
    <glyph glyph-name="exclamdown" unicode="&#xa1;" horiz-adv-x="688" 
d="M204 1200h280v-280h-280v280zM268 720h152l44 -1040h-240z" />
    <glyph glyph-name="cent" unicode="&#xa2;" horiz-adv-x="1316" 
d="M764 320q97 18 168.5 80t107.5 160l184 -60q-47 -154 -170 -247.5t-290 -108.5v-144h-152v144q-227 30 -365.5 198t-138.5 418t138.5 418t365.5 198v144h152v-144q170 -15 293 -108.5t167 -247.5l-188 -60q-36 99 -106 160.5t-166 79.5v-880zM312 760q0 -174 79.5 -290
t220.5 -146v872q-141 -30 -220.5 -146t-79.5 -290z" />
    <glyph glyph-name="sterling" unicode="&#xa3;" 
d="M1148 336l188 -28q-9 -166 -83 -247t-217 -81q-67 0 -128 16t-120.5 50t-96 60t-95.5 74q-49 -94 -127 -147t-173 -53q-113 0 -184.5 69t-71.5 175q0 117 78 182.5t202 65.5q79 0 156 -32q-5 125 -60 248h-292v144h220q-39 78 -59.5 145t-20.5 147q0 193 132 304.5
t348 111.5q206 0 336.5 -111.5t155.5 -292.5l-188 -52q-18 135 -96.5 209.5t-211.5 74.5q-126 0 -205 -66.5t-79 -181.5q0 -45 15 -98.5t30.5 -89t46.5 -100.5h420v-144h-356q48 -130 48 -244q0 -36 -8 -100q24 -16 73 -52t76 -53.5t66.5 -40t73.5 -32.5t67 -10
q66 0 100 43.5t40 136.5zM304 132q117 0 156 144q-75 44 -148 44q-55 0 -87.5 -25.5t-32.5 -70.5t33 -68.5t79 -23.5z" />
    <glyph glyph-name="currency" unicode="&#xa4;" 
d="M1160 760q0 -141 -80 -252l212 -212l-108 -108l-212 212q-111 -80 -252 -80t-252 80l-212 -212l-108 108l212 212q-80 111 -80 252t80 252l-212 212l108 108l212 -212q111 80 252 80t252 -80l212 212l108 -108l-212 -212q80 -111 80 -252zM448 760q0 -114 79 -193
t193 -79t193 79t79 193t-79 193t-193 79t-193 -79t-79 -193z" />
    <glyph glyph-name="yen" unicode="&#xa5;" horiz-adv-x="1488" 
d="M1428 1520l-512 -776h252v-144h-340v-176h340v-144h-340v-280h-208v280h-300v144h300v176h-300v144h212l-512 776h240l468 -716l464 716h236z" />
    <glyph glyph-name="brokenbar" unicode="&#xa6;" horiz-adv-x="664" 
d="M240 880v720h184v-720h-184zM424 480v-720h-184v720h184z" />
    <glyph glyph-name="section" unicode="&#xa7;" horiz-adv-x="1176" 
d="M840 348q101 -35 158.5 -103.5t57.5 -172.5q0 -147 -130.5 -239.5t-337.5 -92.5q-307 0 -520 184l116 144q152 -152 408 -152q45 0 87.5 7t86.5 23.5t71 51t27 82.5q0 41 -21.5 71.5t-76.5 55.5t-92 37.5t-124 36.5q-7 2 -10 3h-1l-1 1h-1h-1l-1 1h-1h-1l-2 1
q-186 56 -264 98q-172 100 -175 263q0 212 268 292q-110 46 -167 108.5t-57 163.5q0 150 124.5 239t331.5 89q118 0 233 -38.5t207 -109.5l-112 -160q-66 63 -154.5 97.5t-181.5 34.5q-49 0 -90.5 -7.5t-79.5 -24t-60 -48.5t-22 -76q0 -53 46.5 -92.5t93 -55.5t150.5 -45
q7 -2 10 -3h1q186 -49 267 -90q181 -92 188 -267v-15q0 -112 -71 -187t-177 -105zM288 652q0 -53 37.5 -92.5t95.5 -59t112 -28t103 -8.5q44 0 85.5 7.5t83 24.5t66.5 51t25 81q0 53 -37.5 92.5t-95.5 59t-112 28t-103 8.5q-44 0 -85.5 -7.5t-83 -24.5t-66.5 -51t-25 -81z
" />
    <glyph glyph-name="dieresis" unicode="&#xa8;" horiz-adv-x="640" 
d="M136 1376v224h224v-224h-224zM520 1376v224h224v-224h-224z" />
    <glyph glyph-name="copyright" unicode="&#xa9;" horiz-adv-x="1800" 
d="M900 -20q-167 0 -312 58.5t-248 161.5t-161.5 248t-58.5 312t58.5 312t161.5 248t248 161.5t312 58.5t312 -58.5t248 -161.5t161.5 -248t58.5 -312t-58.5 -312t-161.5 -248t-248 -161.5t-312 -58.5zM900 116q184 0 329 82t226 229t81 333t-81 333t-226 229t-329 82
t-329 -82t-226 -229t-81 -333t81 -333t226 -229t329 -82zM912 336q-180 0 -294 119t-114 305t114 305t294 119q131 0 227.5 -66t132.5 -178l-172 -64q-24 66 -73 103t-115 37q-102 0 -161 -69.5t-59 -186.5t59 -186.5t161 -69.5q66 0 115 37t73 103l172 -64
q-36 -112 -132.5 -178t-227.5 -66z" />
    <glyph glyph-name="guillemotleft" unicode="&#xab;" horiz-adv-x="1360" 
d="M160 576v208l480 344v-224l-304 -220l304 -220v-232zM1160 1128v-224l-304 -220l304 -220v-232l-480 344v208z" />
    <glyph glyph-name="logicalnot" unicode="&#xac;" 
d="M1260 848v-628h-184v452h-896v176h1080z" />
    <glyph glyph-name="registered" unicode="&#xae;" horiz-adv-x="1120" 
d="M560 1540q174 0 287 -113t113 -287t-113 -287t-287 -113t-287 113t-113 287t113 287t287 113zM560 836q132 0 218 86t86 218t-86 218t-218 86t-218 -86t-86 -218t86 -218t218 -86zM712 1060q0 -20 20 -20h8v-100h-48q-39 0 -61.5 22.5t-22.5 61.5v20q0 18 -7 25t-25 7
h-76v-136h-104v408h184q64 0 106 -36t42 -92q0 -71 -56 -96q40 -13 40 -60v-4zM572 1248h-72v-72h72q48 0 48 36t-48 36z" />
    <glyph glyph-name="macron" unicode="&#xaf;" horiz-adv-x="640" 
d="M120 1440v160h640v-160h-640z" />
    <glyph glyph-name="degree" unicode="&#xb0;" horiz-adv-x="868" 
d="M432 904q-132 0 -226 92t-94 224q0 134 93.5 227t226.5 93q135 0 227.5 -92.5t92.5 -227.5q0 -132 -92.5 -224t-227.5 -92zM432 1048q75 0 125.5 48.5t50.5 123.5t-50.5 125.5t-125.5 50.5q-72 0 -122 -50.5t-50 -125.5q0 -74 49.5 -123t122.5 -49z" />
    <glyph glyph-name="plusminus" unicode="&#xb1;" 
d="M812 920h448v-176h-448v-452h-184v452h-448v176h448v452h184v-452zM180 0v176h1080v-176h-1080z" />
    <glyph glyph-name="uni00B2" unicode="&#xb2;" horiz-adv-x="936" 
d="M384 1096h448v-152h-716v112l340 264q90 72 135 133.5t45 122.5q0 60 -45 96t-123 36q-87 0 -138.5 -48t-57.5 -132l-156 24q12 139 108.5 219.5t251.5 80.5q147 0 237.5 -71.5t90.5 -188.5q0 -90 -63 -176.5t-213 -203.5z" />
    <glyph glyph-name="uni00B3" unicode="&#xb3;" horiz-adv-x="936" 
d="M532 1496q126 -3 203 -74.5t77 -185.5q0 -128 -104.5 -216t-255.5 -88q-125 0 -224 54.5t-144 145.5l124 84q33 -68 96 -104t148 -36q90 0 145 43.5t55 112.5q0 70 -49.5 111t-126.5 41q-56 0 -104 -24l-76 84l264 248h-432v148h656v-116z" />
    <glyph glyph-name="acute" unicode="&#xb4;" horiz-adv-x="640" 
d="M380 1320l116 280h260l-228 -280h-148z" />
    <glyph glyph-name="paragraph" unicode="&#xb6;" horiz-adv-x="1476" 
d="M836 1520v-1920h-208v1168h-36q-198 0 -315 102.5t-117 273.5t117 273.5t315 102.5h244zM1028 1520h208v-1920h-208v1920z" />
    <glyph glyph-name="periodcentered" unicode="&#xb7;" horiz-adv-x="600" 
d="M160 540v280h280v-280h-280z" />
    <glyph glyph-name="cedilla" unicode="&#xb8;" horiz-adv-x="640" 
d="M532 -92q87 0 141.5 -44.5t54.5 -123.5q0 -78 -76 -129t-196 -51q-69 0 -137 22.5t-119 61.5l72 108q102 -68 188 -68q51 0 79.5 17t28.5 47q0 26 -23 41t-57 15q-44 0 -84 -20l-108 60l96 156h148l-60 -96q20 4 52 4z" />
    <glyph glyph-name="uni00B9" unicode="&#xb9;" horiz-adv-x="760" 
d="M524 1840v-896h-164v608h-244v136h56q128 0 175.5 32t56.5 120h120z" />
    <glyph glyph-name="guillemotright" unicode="&#xbb;" horiz-adv-x="1360" 
d="M200 896v232l480 -344v-208l-480 -344v224l304 220zM720 1128l480 -344v-208l-480 -344v224l304 220l-304 220v232z" />
    <glyph glyph-name="onequarter" unicode="&#xbc;" horiz-adv-x="1776" 
d="M360 624v608h-244v136h56q128 0 175.5 32t56.5 120h120v-896h-164zM1260 1520h172l-964 -1520h-172zM1712 352v-144h-156v-208h-156v208h-484v132l448 556h192v-544h156zM1092 352h308v388z" />
    <glyph glyph-name="onehalf" unicode="&#xbd;" horiz-adv-x="1776" 
d="M360 624v608h-244v136h56q128 0 175.5 32t56.5 120h120v-896h-164zM1196 1520h172l-964 -1520h-172zM1224 152h448v-152h-716v112l340 264q90 72 135 133.5t45 122.5q0 60 -45 96t-123 36q-87 0 -138.5 -48t-57.5 -132l-156 24q12 139 108.5 219.5t251.5 80.5
q147 0 237.5 -71.5t90.5 -188.5q0 -90 -63 -176.5t-213 -203.5z" />
    <glyph glyph-name="threequarters" unicode="&#xbe;" horiz-adv-x="1952" 
d="M812 916q0 -128 -104.5 -216t-255.5 -88q-125 0 -224 54.5t-144 145.5l124 84q33 -68 96 -104t148 -36q90 0 145 43.5t55 112.5q0 70 -49.5 111t-126.5 41q-56 0 -104 -24l-76 84l264 248h-432v148h656v-116l-252 -228q126 -3 203 -74.5t77 -185.5zM1440 1520h172
l-964 -1520h-172zM1888 352v-144h-156v-208h-156v208h-484v132l448 556h192v-544h156zM1268 352h308v388z" />
    <glyph glyph-name="questiondown" unicode="&#xbf;" horiz-adv-x="1220" 
d="M764 1200v-280h-280v280h280zM712 760q6 -114 -31.5 -183.5t-160.5 -168.5q-114 -93 -155 -156t-41 -144q0 -128 75.5 -200t208.5 -72q147 0 239.5 94.5t104.5 253.5l188 -40q-21 -219 -168 -351.5t-372 -132.5q-216 0 -348 120.5t-132 315.5q0 123 61.5 223t202.5 205
q91 70 129.5 119t38.5 97v20h160z" />
    <glyph glyph-name="Agrave" unicode="&#xc0;" horiz-adv-x="1560" 
d="M840 1640h-148l-228 280h260zM1308 0l-152 380h-756l-152 -380h-216l624 1520h248l624 -1520h-220zM472 564h608l-304 760z" />
    <glyph glyph-name="Aacute" unicode="&#xc1;" horiz-adv-x="1560" 
d="M1096 1920l-228 -280h-148l116 280h260zM1308 0l-152 380h-756l-152 -380h-216l624 1520h248l624 -1520h-220zM472 564h608l-304 760z" />
    <glyph glyph-name="Acircumflex" unicode="&#xc2;" horiz-adv-x="1560" 
d="M784 1792l-148 -152h-188l228 280h216l228 -280h-188zM1308 0l-152 380h-756l-152 -380h-216l624 1520h248l624 -1520h-220zM472 564h608l-304 760z" />
    <glyph glyph-name="Atilde" unicode="&#xc3;" horiz-adv-x="1560" 
d="M660 1780q-64 0 -104 -96l-128 72q36 89 93.5 134.5t130.5 45.5q50 0 98.5 -25t88.5 -50t69 -25q64 0 104 96l128 -72q-36 -89 -93.5 -134.5t-130.5 -45.5q-50 0 -98.5 25t-88.5 50t-69 25zM1308 0l-152 380h-756l-152 -380h-216l624 1520h248l624 -1520h-220zM472 564
h608l-304 760z" />
    <glyph glyph-name="Adieresis" unicode="&#xc4;" horiz-adv-x="1560" 
d="M700 1920v-224h-224v224h224zM1084 1920v-224h-224v224h224zM1308 0l-152 380h-756l-152 -380h-216l624 1520h248l624 -1520h-220zM472 564h608l-304 760z" />
    <glyph glyph-name="Aring" unicode="&#xc5;" horiz-adv-x="1560" 
d="M1308 0l-152 380h-756l-152 -380h-216l616 1500q-55 31 -87.5 86.5t-32.5 125.5q0 108 72 178t180 70t180 -70t72 -178q0 -70 -32.5 -125.5t-87.5 -86.5l616 -1500h-220zM780 1828q-51 0 -83.5 -32.5t-32.5 -83.5t32.5 -83.5t83.5 -32.5t83.5 32.5t32.5 83.5t-32.5 83.5
t-83.5 32.5zM472 564h608l-304 760z" />
    <glyph glyph-name="AE" unicode="&#xc6;" horiz-adv-x="1944" 
d="M1332 188h532v-188h-676l-140 380h-668l-140 -380h-208l572 1520h1240v-188h-940l172 -460h612v-184h-544zM448 564h532l-268 720z" />
    <glyph glyph-name="Ccedilla" unicode="&#xc7;" horiz-adv-x="1540" 
d="M832 164q165 0 276.5 85t159.5 247l192 -68q-60 -193 -207 -309.5t-353 -134.5l-48 -80q20 4 52 4q87 0 141.5 -44.5t54.5 -123.5q0 -78 -76 -129t-196 -51q-69 0 -137 22.5t-119 61.5l72 108q102 -68 188 -68q51 0 79.5 17t28.5 47q0 26 -23 41t-57 15q-44 0 -84 -20
l-108 60l84 140q-289 27 -460.5 236t-171.5 540q0 227 90 405t252 276.5t370 98.5q232 0 395.5 -116.5t232.5 -331.5l-192 -68q-48 162 -159.5 247t-276.5 85q-223 0 -361.5 -163.5t-138.5 -432.5q0 -275 135.5 -435.5t364.5 -160.5z" />
    <glyph glyph-name="Egrave" unicode="&#xc8;" horiz-adv-x="1360" 
d="M800 1640h-148l-228 280h260zM448 188h832v-188h-1040v1520h1020v-188h-812v-460h632v-184h-632v-500z" />
    <glyph glyph-name="Eacute" unicode="&#xc9;" horiz-adv-x="1360" 
d="M1056 1920l-228 -280h-148l116 280h260zM448 188h832v-188h-1040v1520h1020v-188h-812v-460h632v-184h-632v-500z" />
    <glyph glyph-name="Ecircumflex" unicode="&#xca;" horiz-adv-x="1360" 
d="M744 1792l-148 -152h-188l228 280h216l228 -280h-188zM448 188h832v-188h-1040v1520h1020v-188h-812v-460h632v-184h-632v-500z" />
    <glyph glyph-name="Edieresis" unicode="&#xcb;" horiz-adv-x="1360" 
d="M660 1920v-224h-224v224h224zM1044 1920v-224h-224v224h224zM448 188h832v-188h-1040v1520h1020v-188h-812v-460h632v-184h-632v-500z" />
    <glyph glyph-name="Igrave" unicode="&#xcc;" horiz-adv-x="688" 
d="M404 1640h-148l-228 280h260zM240 0v1520h208v-1520h-208z" />
    <glyph glyph-name="Iacute" unicode="&#xcd;" horiz-adv-x="688" 
d="M284 1640l116 280h260l-228 -280h-148zM240 0v1520h208v-1520h-208z" />
    <glyph glyph-name="Icircumflex" unicode="&#xce;" horiz-adv-x="688" 
d="M456 1920l228 -280h-188l-148 152l-148 -152h-188l228 280h216zM240 0v1520h208v-1520h-208z" />
    <glyph glyph-name="Idieresis" unicode="&#xcf;" horiz-adv-x="688" 
d="M40 1696v224h224v-224h-224zM424 1696v224h224v-224h-224zM240 0v1520h208v-1520h-208z" />
    <glyph glyph-name="Eth" unicode="&#xd0;" horiz-adv-x="1640" 
d="M780 1520q352 0 546 -205t194 -555q0 -224 -87.5 -395.5t-256 -268t-396.5 -96.5h-540v692h-152v176h152v652h540zM780 184q244 0 386 156.5t142 419.5t-142 419.5t-386 156.5h-332v-468h280v-176h-280v-508h332z" />
    <glyph glyph-name="Ntilde" unicode="&#xd1;" horiz-adv-x="1720" 
d="M740 1780q-64 0 -104 -96l-128 72q36 89 93.5 134.5t130.5 45.5q50 0 98.5 -25t88.5 -50t69 -25q64 0 104 96l128 -72q-36 -89 -93.5 -134.5t-130.5 -45.5q-50 0 -98.5 25t-88.5 50t-69 25zM1284 1520h196v-1520h-204l-840 1196v-1196h-196v1520h208l836 -1188v1188z" />
    <glyph glyph-name="Ograve" unicode="&#xd2;" horiz-adv-x="1680" 
d="M900 1640h-148l-228 280h260zM840 -20q-327 0 -523.5 213t-196.5 567q0 227 91 405t255 276.5t374 98.5q327 0 523.5 -213t196.5 -567q0 -227 -91 -405t-255 -276.5t-374 -98.5zM840 164q231 0 369.5 163t138.5 433t-138.5 433t-369.5 163t-369.5 -163t-138.5 -433
t138.5 -433t369.5 -163z" />
    <glyph glyph-name="Oacute" unicode="&#xd3;" horiz-adv-x="1680" 
d="M780 1640l116 280h260l-228 -280h-148zM840 -20q-327 0 -523.5 213t-196.5 567q0 227 91 405t255 276.5t374 98.5q327 0 523.5 -213t196.5 -567q0 -227 -91 -405t-255 -276.5t-374 -98.5zM840 164q231 0 369.5 163t138.5 433t-138.5 433t-369.5 163t-369.5 -163
t-138.5 -433t138.5 -433t369.5 -163z" />
    <glyph glyph-name="Ocircumflex" unicode="&#xd4;" horiz-adv-x="1680" 
d="M844 1792l-148 -152h-188l228 280h216l228 -280h-188zM840 1540q327 0 523.5 -213t196.5 -567q0 -227 -91 -405t-255 -276.5t-374 -98.5q-327 0 -523.5 213t-196.5 567q0 227 91 405t255 276.5t374 98.5zM840 164q231 0 369.5 163t138.5 433t-138.5 433t-369.5 163
t-369.5 -163t-138.5 -433t138.5 -433t369.5 -163z" />
    <glyph glyph-name="Otilde" unicode="&#xd5;" horiz-adv-x="1680" 
d="M1200 1860q-36 -89 -93.5 -134.5t-130.5 -45.5q-50 0 -98.5 25t-88.5 50t-69 25q-64 0 -104 -96l-128 72q36 89 93.5 134.5t130.5 45.5q50 0 98.5 -25t88.5 -50t69 -25q64 0 104 96zM840 -20q-327 0 -523.5 213t-196.5 567q0 227 91 405t255 276.5t374 98.5
q327 0 523.5 -213t196.5 -567q0 -227 -91 -405t-255 -276.5t-374 -98.5zM840 164q231 0 369.5 163t138.5 433t-138.5 433t-369.5 163t-369.5 -163t-138.5 -433t138.5 -433t369.5 -163z" />
    <glyph glyph-name="Odieresis" unicode="&#xd6;" horiz-adv-x="1680" 
d="M536 1696v224h224v-224h-224zM920 1696v224h224v-224h-224zM840 -20q-327 0 -523.5 213t-196.5 567q0 227 91 405t255 276.5t374 98.5q327 0 523.5 -213t196.5 -567q0 -227 -91 -405t-255 -276.5t-374 -98.5zM840 164q231 0 369.5 163t138.5 433t-138.5 433t-369.5 163
t-369.5 -163t-138.5 -433t138.5 -433t369.5 -163z" />
    <glyph glyph-name="multiply" unicode="&#xd7;" 
d="M1208 1120l-360 -360l360 -360l-128 -128l-360 360l-360 -360l-128 128l360 360l-360 360l128 128l360 -360l360 360z" />
    <glyph glyph-name="Oslash" unicode="&#xd8;" horiz-adv-x="1680" 
d="M1372 1316q188 -213 188 -556q0 -227 -91 -405t-255 -276.5t-374 -98.5q-239 0 -416 120l-96 -120h-196l176 224q-188 213 -188 556q0 227 91 405t255 276.5t374 98.5q239 0 416 -120l96 120h196zM332 760q0 -235 104 -388l700 892q-123 92 -296 92q-231 0 -369.5 -163
t-138.5 -433zM840 164q231 0 369.5 163t138.5 433q0 235 -104 388l-700 -892q123 -92 296 -92z" />
    <glyph glyph-name="Ugrave" unicode="&#xd9;" horiz-adv-x="1680" 
d="M900 1640h-148l-228 280h260zM840 -20q-282 0 -451 166.5t-169 445.5v928h208v-928q0 -195 111.5 -311.5t300.5 -116.5t300.5 116.5t111.5 311.5v928h208v-928q0 -279 -169 -445.5t-451 -166.5z" />
    <glyph glyph-name="Uacute" unicode="&#xda;" horiz-adv-x="1680" 
d="M780 1640l116 280h260l-228 -280h-148zM840 -20q-282 0 -451 166.5t-169 445.5v928h208v-928q0 -195 111.5 -311.5t300.5 -116.5t300.5 116.5t111.5 311.5v928h208v-928q0 -279 -169 -445.5t-451 -166.5z" />
    <glyph glyph-name="Ucircumflex" unicode="&#xdb;" horiz-adv-x="1680" 
d="M844 1792l-148 -152h-188l228 280h216l228 -280h-188zM1252 1520h208v-928q0 -279 -169 -445.5t-451 -166.5t-451 166.5t-169 445.5v928h208v-928q0 -195 111.5 -311.5t300.5 -116.5t300.5 116.5t111.5 311.5v928z" />
    <glyph glyph-name="Udieresis" unicode="&#xdc;" horiz-adv-x="1680" 
d="M536 1696v224h224v-224h-224zM920 1696v224h224v-224h-224zM840 -20q-282 0 -451 166.5t-169 445.5v928h208v-928q0 -195 111.5 -311.5t300.5 -116.5t300.5 116.5t111.5 311.5v928h208v-928q0 -279 -169 -445.5t-451 -166.5z" />
    <glyph glyph-name="Yacute" unicode="&#xdd;" horiz-adv-x="1448" 
d="M1040 1920l-228 -280h-148l116 280h260zM1428 1520l-600 -908v-612h-208v612l-600 908h240l468 -716l464 716h236z" />
    <glyph glyph-name="Thorn" unicode="&#xde;" horiz-adv-x="1492" 
d="M868 1240q240 0 382 -125t142 -335t-142 -335t-382 -125h-420v-320h-208v1520h208v-280h420zM844 508q336 0 336 272t-336 272h-396v-544h396z" />
    <glyph glyph-name="germandbls" unicode="&#xdf;" horiz-adv-x="1500" 
d="M1016 -20q-132 0 -248.5 40.5t-203.5 115.5l108 140q69 -63 161.5 -97.5t194.5 -34.5q99 0 157.5 39t58.5 105q0 54 -54.5 89.5t-193.5 74.5q-209 63 -286.5 123t-77.5 181q0 37 9 70.5t20 57t35 47.5t40 37.5t50 32.5t49 26t53 25q50 20 74 31.5t57 32.5t47 47.5
t14 60.5q0 102 -85.5 161t-230.5 59q-180 0 -272 -77t-92 -227v-1140h-200v1140q0 222 148.5 351t403.5 129q231 0 379.5 -105t148.5 -267q0 -60 -19 -109.5t-45 -82t-70 -61.5t-78 -44.5t-84 -34.5q-103 -43 -135 -67q-45 -36 -45 -85q0 -44 45.5 -69t178.5 -59
q227 -63 319.5 -139t92.5 -197q0 -144 -117.5 -232t-306.5 -88z" />
    <glyph glyph-name="agrave" unicode="&#xe0;" horiz-adv-x="1268" 
d="M676 1320h-148l-228 280h260zM1144 176h44v-176q-16 -8 -68 -8q-111 0 -161 44t-59 152q-67 -95 -181 -151.5t-247 -56.5q-174 0 -283 98.5t-109 257.5q0 60 17 110.5t43.5 87t68.5 66.5t84 49.5t98 35.5t101.5 25t103.5 18q172 27 226 50.5t54 93.5q0 80 -73.5 128
t-194.5 48q-105 0 -203 -43t-173 -121l-124 128q208 208 508 208q208 0 328 -104.5t120 -287.5v-572q0 -42 19 -61t61 -19zM496 148q150 0 263 90.5t113 213.5v184q-30 -22 -82 -34.5t-166 -29.5q-39 -6 -57 -9.5t-53.5 -11t-54 -13t-47.5 -16.5t-44.5 -22t-35 -27.5
t-29 -35.5t-16.5 -43.5t-7 -53.5q0 -92 56.5 -142t159.5 -50z" />
    <glyph glyph-name="aacute" unicode="&#xe1;" horiz-adv-x="1268" 
d="M932 1600l-228 -280h-148l116 280h260zM1144 176h44v-176q-16 -8 -68 -8q-111 0 -161 44t-59 152q-67 -95 -181 -151.5t-247 -56.5q-174 0 -283 98.5t-109 257.5q0 60 17 110.5t43.5 87t68.5 66.5t84 49.5t98 35.5t101.5 25t103.5 18q172 27 226 50.5t54 93.5
q0 80 -73.5 128t-194.5 48q-105 0 -203 -43t-173 -121l-124 128q208 208 508 208q208 0 328 -104.5t120 -287.5v-572q0 -42 19 -61t61 -19zM496 148q150 0 263 90.5t113 213.5v184q-30 -22 -82 -34.5t-166 -29.5q-39 -6 -57 -9.5t-53.5 -11t-54 -13t-47.5 -16.5t-44.5 -22
t-35 -27.5t-29 -35.5t-16.5 -43.5t-7 -53.5q0 -92 56.5 -142t159.5 -50z" />
    <glyph glyph-name="acircumflex" unicode="&#xe2;" horiz-adv-x="1268" 
d="M620 1472l-148 -152h-188l228 280h216l228 -280h-188zM1144 176h44v-176q-16 -8 -68 -8q-111 0 -161 44t-59 152q-67 -95 -181 -151.5t-247 -56.5q-174 0 -283 98.5t-109 257.5q0 60 17 110.5t43.5 87t68.5 66.5t84 49.5t98 35.5t101.5 25t103.5 18q172 27 226 50.5
t54 93.5q0 80 -73.5 128t-194.5 48q-105 0 -203 -43t-173 -121l-124 128q208 208 508 208q208 0 328 -104.5t120 -287.5v-572q0 -42 19 -61t61 -19zM496 148q150 0 263 90.5t113 213.5v184q-30 -22 -82 -34.5t-166 -29.5q-39 -6 -57 -9.5t-53.5 -11t-54 -13t-47.5 -16.5
t-44.5 -22t-35 -27.5t-29 -35.5t-16.5 -43.5t-7 -53.5q0 -92 56.5 -142t159.5 -50z" />
    <glyph glyph-name="atilde" unicode="&#xe3;" horiz-adv-x="1268" 
d="M496 1460q-64 0 -104 -96l-128 72q36 89 93.5 134.5t130.5 45.5q50 0 98.5 -25t88.5 -50t69 -25q64 0 104 96l128 -72q-36 -89 -93.5 -134.5t-130.5 -45.5q-50 0 -98.5 25t-88.5 50t-69 25zM1144 176h44v-176q-16 -8 -68 -8q-111 0 -161 44t-59 152q-67 -95 -181 -151.5
t-247 -56.5q-174 0 -283 98.5t-109 257.5q0 60 17 110.5t43.5 87t68.5 66.5t84 49.5t98 35.5t101.5 25t103.5 18q172 27 226 50.5t54 93.5q0 80 -73.5 128t-194.5 48q-105 0 -203 -43t-173 -121l-124 128q208 208 508 208q208 0 328 -104.5t120 -287.5v-572q0 -42 19 -61
t61 -19zM496 148q150 0 263 90.5t113 213.5v184q-30 -22 -82 -34.5t-166 -29.5q-39 -6 -57 -9.5t-53.5 -11t-54 -13t-47.5 -16.5t-44.5 -22t-35 -27.5t-29 -35.5t-16.5 -43.5t-7 -53.5q0 -92 56.5 -142t159.5 -50z" />
    <glyph glyph-name="adieresis" unicode="&#xe4;" horiz-adv-x="1268" 
d="M536 1600v-224h-224v224h224zM920 1600v-224h-224v224h224zM1144 176h44v-176q-16 -8 -68 -8q-111 0 -161 44t-59 152q-67 -95 -181 -151.5t-247 -56.5q-174 0 -283 98.5t-109 257.5q0 60 17 110.5t43.5 87t68.5 66.5t84 49.5t98 35.5t101.5 25t103.5 18q172 27 226 50.5
t54 93.5q0 80 -73.5 128t-194.5 48q-105 0 -203 -43t-173 -121l-124 128q208 208 508 208q208 0 328 -104.5t120 -287.5v-572q0 -42 19 -61t61 -19zM496 148q150 0 263 90.5t113 213.5v184q-30 -22 -82 -34.5t-166 -29.5q-39 -6 -57 -9.5t-53.5 -11t-54 -13t-47.5 -16.5
t-44.5 -22t-35 -27.5t-29 -35.5t-16.5 -43.5t-7 -53.5q0 -92 56.5 -142t159.5 -50z" />
    <glyph glyph-name="aring" unicode="&#xe5;" horiz-adv-x="1268" 
d="M616 1320q-108 0 -180 70t-72 178t72 178t180 70t180 -70t72 -178t-72 -178t-180 -70zM616 1684q-51 0 -83.5 -32.5t-32.5 -83.5t32.5 -83.5t83.5 -32.5t83.5 32.5t32.5 83.5t-32.5 83.5t-83.5 32.5zM1144 176h44v-176q-16 -8 -68 -8q-111 0 -161 44t-59 152
q-67 -95 -181 -151.5t-247 -56.5q-174 0 -283 98.5t-109 257.5q0 60 17 110.5t43.5 87t68.5 66.5t84 49.5t98 35.5t101.5 25t103.5 18q172 27 226 50.5t54 93.5q0 80 -73.5 128t-194.5 48q-105 0 -203 -43t-173 -121l-124 128q208 208 508 208q208 0 328 -104.5t120 -287.5
v-572q0 -42 19 -61t61 -19zM496 148q150 0 263 90.5t113 213.5v184q-30 -22 -82 -34.5t-166 -29.5q-39 -6 -57 -9.5t-53.5 -11t-54 -13t-47.5 -16.5t-44.5 -22t-35 -27.5t-29 -35.5t-16.5 -43.5t-7 -53.5q0 -92 56.5 -142t159.5 -50z" />
    <glyph glyph-name="ae" unicode="&#xe6;" horiz-adv-x="2072" 
d="M1076 536q15 -174 116 -277t260 -103q239 0 348 160l136 -124q-69 -95 -190 -153.5t-290 -58.5q-164 0 -284.5 70.5t-191.5 197.5q-28 -52 -66 -96.5t-92.5 -85t-130.5 -63.5t-163 -23q-192 0 -310 98.5t-118 257.5q0 162 128.5 262.5t379.5 133.5q181 25 209 32
q58 15 72 50q7 18 7 50q0 74 -75.5 129t-192.5 55q-105 0 -203 -43t-173 -121l-124 128q208 208 508 208q143 0 242 -56.5t138 -159.5q73 104 180 160t240 56q243 0 389.5 -169t146.5 -451q0 -44 -4 -64h-892zM1436 1048q-144 0 -239.5 -95t-116.5 -257h688
q-21 163 -109.5 257.5t-222.5 94.5zM528 148q93 0 174 38.5t135.5 121.5t54.5 196v140q-9 -6 -20 -11t-21.5 -9t-28 -8t-29 -6.5t-35.5 -6.5t-37.5 -6t-44.5 -6.5t-48 -6.5q-177 -27 -256.5 -84.5t-79.5 -159.5q0 -92 62 -142t174 -50z" />
    <glyph glyph-name="ccedilla" unicode="&#xe7;" horiz-adv-x="1304" 
d="M700 156q119 0 208.5 64.5t131.5 179.5l184 -60q-44 -150 -165 -244t-283 -112l-52 -80q20 4 52 4q87 0 141.5 -44.5t54.5 -123.5q0 -78 -76.5 -129t-195.5 -51q-69 0 -137 22.5t-119 61.5l72 108q102 -68 188 -68q51 0 79.5 17t28.5 47q0 26 -23 41t-57 15
q-44 0 -84 -20l-108 60l88 140q-234 24 -377 192.5t-143 423.5q0 275 165 447.5t427 172.5q192 0 334.5 -95.5t189.5 -264.5l-188 -60q-42 115 -129.5 179.5t-206.5 64.5q-179 0 -283.5 -121t-104.5 -323t104.5 -323t283.5 -121z" />
    <glyph glyph-name="egrave" unicode="&#xe8;" horiz-adv-x="1364" 
d="M744 1320h-148l-228 280h260zM312 536q18 -175 124 -277.5t276 -102.5q258 0 372 164l144 -124q-73 -96 -201 -156t-311 -60q-189 0 -328.5 81t-209.5 220.5t-70 318.5q0 275 164.5 447.5t423.5 172.5q258 0 413 -169t155 -451q0 -44 -4 -64h-948zM696 1048
q-155 0 -255.5 -94.5t-124.5 -257.5h740q-21 163 -117.5 257.5t-242.5 94.5z" />
    <glyph glyph-name="eacute" unicode="&#xe9;" horiz-adv-x="1364" 
d="M1000 1600l-228 -280h-148l116 280h260zM312 536q18 -175 124 -277.5t276 -102.5q258 0 372 164l144 -124q-73 -96 -201 -156t-311 -60q-189 0 -328.5 81t-209.5 220.5t-70 318.5q0 275 164.5 447.5t423.5 172.5q258 0 413 -169t155 -451q0 -44 -4 -64h-948zM696 1048
q-155 0 -255.5 -94.5t-124.5 -257.5h740q-21 163 -117.5 257.5t-242.5 94.5z" />
    <glyph glyph-name="ecircumflex" unicode="&#xea;" horiz-adv-x="1364" 
d="M688 1472l-148 -152h-188l228 280h216l228 -280h-188zM312 536q18 -175 124 -277.5t276 -102.5q258 0 372 164l144 -124q-73 -96 -201 -156t-311 -60q-189 0 -328.5 81t-209.5 220.5t-70 318.5q0 275 164.5 447.5t423.5 172.5q258 0 413 -169t155 -451q0 -44 -4 -64h-948
zM696 1048q-155 0 -255.5 -94.5t-124.5 -257.5h740q-21 163 -117.5 257.5t-242.5 94.5z" />
    <glyph glyph-name="edieresis" unicode="&#xeb;" horiz-adv-x="1364" 
d="M604 1600v-224h-224v224h224zM988 1600v-224h-224v224h224zM312 536q18 -175 124 -277.5t276 -102.5q258 0 372 164l144 -124q-73 -96 -201 -156t-311 -60q-189 0 -328.5 81t-209.5 220.5t-70 318.5q0 275 164.5 447.5t423.5 172.5q258 0 413 -169t155 -451q0 -44 -4 -64
h-948zM696 1048q-155 0 -255.5 -94.5t-124.5 -257.5h740q-21 163 -117.5 257.5t-242.5 94.5z" />
    <glyph glyph-name="igrave" unicode="&#xec;" horiz-adv-x="640" 
d="M380 1320h-148l-228 280h260zM220 0v1200h200v-1200h-200z" />
    <glyph glyph-name="iacute" unicode="&#xed;" horiz-adv-x="640" 
d="M260 1320l116 280h260l-228 -280h-148zM220 0v1200h200v-1200h-200z" />
    <glyph glyph-name="icircumflex" unicode="&#xee;" horiz-adv-x="640" 
d="M432 1600l228 -280h-188l-148 152l-148 -152h-188l228 280h216zM220 0v1200h200v-1200h-200z" />
    <glyph glyph-name="idieresis" unicode="&#xef;" horiz-adv-x="640" 
d="M16 1376v224h224v-224h-224zM400 1376v224h224v-224h-224zM220 0v1200h200v-1200h-200z" />
    <glyph glyph-name="eth" unicode="&#xf0;" horiz-adv-x="1372" 
d="M916 1416q150 -144 233 -343t83 -449q0 -294 -156 -469t-408 -175q-255 0 -407.5 160.5t-152.5 427.5q0 260 150.5 424t385.5 164q86 0 168.5 -30.5t147.5 -89.5q-68 165 -208 292l-248 -136l-76 124l192 104q-83 51 -164 80l84 152q148 -61 256 -136l224 124l76 -128z
M668 156q162 0 259 113t97 299t-97 299t-259 113t-259 -113t-97 -299t97 -299t259 -113z" />
    <glyph glyph-name="ntilde" unicode="&#xf1;" 
d="M604 1460q-64 0 -104 -96l-128 72q36 89 93.5 134.5t130.5 45.5q50 0 98.5 -25t88.5 -50t69 -25q64 0 104 96l128 -72q-36 -89 -93.5 -134.5t-130.5 -45.5q-50 0 -98.5 25t-88.5 50t-69 25zM820 1220q196 0 318 -127t122 -333v-760h-200v700q0 164 -76 254t-212 90
q-158 0 -265 -99t-107 -253v-692h-200v1200h168l16 -200q67 103 181.5 161.5t254.5 58.5z" />
    <glyph glyph-name="ograve" unicode="&#xf2;" horiz-adv-x="1416" 
d="M768 1320h-148l-228 280h260zM708 -20q-273 0 -436.5 169t-163.5 451q0 275 167.5 447.5t432.5 172.5q273 0 436.5 -169t163.5 -451q0 -275 -167.5 -447.5t-432.5 -172.5zM708 156q180 0 288 121.5t108 322.5t-108 322.5t-288 121.5t-288 -121.5t-108 -322.5t108 -322.5
t288 -121.5z" />
    <glyph glyph-name="oacute" unicode="&#xf3;" horiz-adv-x="1416" 
d="M648 1320l116 280h260l-228 -280h-148zM708 -20q-273 0 -436.5 169t-163.5 451q0 275 167.5 447.5t432.5 172.5q273 0 436.5 -169t163.5 -451q0 -275 -167.5 -447.5t-432.5 -172.5zM708 156q180 0 288 121.5t108 322.5t-108 322.5t-288 121.5t-288 -121.5t-108 -322.5
t108 -322.5t288 -121.5z" />
    <glyph glyph-name="ocircumflex" unicode="&#xf4;" horiz-adv-x="1416" 
d="M712 1472l-148 -152h-188l228 280h216l228 -280h-188zM708 1220q273 0 436.5 -169t163.5 -451q0 -275 -167.5 -447.5t-432.5 -172.5q-273 0 -436.5 169t-163.5 451q0 275 167.5 447.5t432.5 172.5zM708 156q180 0 288 121.5t108 322.5t-108 322.5t-288 121.5t-288 -121.5
t-108 -322.5t108 -322.5t288 -121.5z" />
    <glyph glyph-name="otilde" unicode="&#xf5;" horiz-adv-x="1416" 
d="M1068 1540q-36 -89 -93.5 -134.5t-130.5 -45.5q-50 0 -98.5 25t-88.5 50t-69 25q-64 0 -104 -96l-128 72q36 89 93.5 134.5t130.5 45.5q50 0 98.5 -25t88.5 -50t69 -25q64 0 104 96zM708 -20q-273 0 -436.5 169t-163.5 451q0 275 167.5 447.5t432.5 172.5
q273 0 436.5 -169t163.5 -451q0 -275 -167.5 -447.5t-432.5 -172.5zM708 156q180 0 288 121.5t108 322.5t-108 322.5t-288 121.5t-288 -121.5t-108 -322.5t108 -322.5t288 -121.5z" />
    <glyph glyph-name="odieresis" unicode="&#xf6;" horiz-adv-x="1416" 
d="M404 1376v224h224v-224h-224zM788 1376v224h224v-224h-224zM708 -20q-273 0 -436.5 169t-163.5 451q0 275 167.5 447.5t432.5 172.5q273 0 436.5 -169t163.5 -451q0 -275 -167.5 -447.5t-432.5 -172.5zM708 156q180 0 288 121.5t108 322.5t-108 322.5t-288 121.5
t-288 -121.5t-108 -322.5t108 -322.5t288 -121.5z" />
    <glyph glyph-name="divide" unicode="&#xf7;" 
d="M608 1076v224h224v-224h-224zM180 672v176h1080v-176h-1080zM608 220v224h224v-224h-224z" />
    <glyph glyph-name="oslash" unicode="&#xf8;" horiz-adv-x="1416" 
d="M1312 1220l-152 -184q148 -167 148 -436q0 -275 -167.5 -447.5t-432.5 -172.5q-206 0 -344 96l-80 -96h-176l152 184q-152 165 -152 436q0 275 167.5 447.5t432.5 172.5q204 0 348 -96l80 96h176zM312 600q0 -166 76 -280l548 656q-99 68 -228 68q-180 0 -288 -121.5
t-108 -322.5zM1104 600q0 160 -76 280l-544 -660q96 -64 224 -64q180 0 288 121.5t108 322.5z" />
    <glyph glyph-name="ugrave" unicode="&#xf9;" 
d="M772 1320h-148l-228 280h260zM1040 1200h200v-1200h-168l-16 200q-67 -103 -181.5 -161.5t-254.5 -58.5q-196 0 -318 127t-122 333v760h200v-700q0 -164 76 -254t212 -90q158 0 265 99t107 253v692z" />
    <glyph glyph-name="uacute" unicode="&#xfa;" 
d="M1028 1600l-228 -280h-148l116 280h260zM1040 1200h200v-1200h-168l-16 200q-67 -103 -181.5 -161.5t-254.5 -58.5q-196 0 -318 127t-122 333v760h200v-700q0 -164 76 -254t212 -90q158 0 265 99t107 253v692z" />
    <glyph glyph-name="ucircumflex" unicode="&#xfb;" 
d="M716 1472l-148 -152h-188l228 280h216l228 -280h-188zM1040 1200h200v-1200h-168l-16 200q-67 -103 -181.5 -161.5t-254.5 -58.5q-196 0 -318 127t-122 333v760h200v-700q0 -164 76 -254t212 -90q158 0 265 99t107 253v692z" />
    <glyph glyph-name="udieresis" unicode="&#xfc;" 
d="M632 1600v-224h-224v224h224zM1016 1600v-224h-224v224h224zM1040 1200h200v-1200h-168l-16 200q-67 -103 -181.5 -161.5t-254.5 -58.5q-196 0 -318 127t-122 333v760h200v-700q0 -164 76 -254t212 -90q158 0 265 99t107 253v692z" />
    <glyph glyph-name="yacute" unicode="&#xfd;" horiz-adv-x="1284" 
d="M964 1600l-228 -280h-148l116 280h260zM1052 1200h208l-460 -1264q-27 -74 -62 -135.5t-81 -112.5t-107 -79.5t-130 -28.5q-155 0 -237 95t-79 241l180 32q-8 -184 136 -184q55 0 97 36.5t79 111.5l-564 1288h220l440 -1052z" />
    <glyph glyph-name="thorn" unicode="&#xfe;" horiz-adv-x="1448" 
d="M808 1220q240 0 386 -169.5t146 -450.5q0 -274 -150 -447t-382 -173q-129 0 -234 49.5t-174 142.5v-572h-200v2000h200v-580q72 96 177.5 148t230.5 52zM760 156q171 0 273.5 121.5t102.5 322.5t-102.5 322.5t-273.5 121.5t-273.5 -121.5t-102.5 -322.5t102.5 -322.5
t273.5 -121.5z" />
    <glyph glyph-name="ydieresis" unicode="&#xff;" horiz-adv-x="1284" 
d="M568 1600v-224h-224v224h224zM952 1600v-224h-224v224h224zM1052 1200h208l-460 -1264q-27 -74 -62 -135.5t-81 -112.5t-107 -79.5t-130 -28.5q-155 0 -237 95t-79 241l180 32q-8 -184 136 -184q55 0 97 36.5t79 111.5l-564 1288h220l440 -1052z" />
    <glyph glyph-name="Amacron" unicode="&#x100;" horiz-adv-x="1560" 
d="M1100 1920v-160h-640v160h640zM1308 0l-152 380h-756l-152 -380h-216l624 1520h248l624 -1520h-220zM472 564h608l-304 760z" />
    <glyph glyph-name="amacron" unicode="&#x101;" horiz-adv-x="1268" 
d="M936 1600v-160h-640v160h640zM1144 176h44v-176q-16 -8 -68 -8q-111 0 -161 44t-59 152q-67 -95 -181 -151.5t-247 -56.5q-174 0 -283 98.5t-109 257.5q0 60 17 110.5t43.5 87t68.5 66.5t84 49.5t98 35.5t101.5 25t103.5 18q172 27 226 50.5t54 93.5q0 80 -73.5 128
t-194.5 48q-105 0 -203 -43t-173 -121l-124 128q208 208 508 208q208 0 328 -104.5t120 -287.5v-572q0 -42 19 -61t61 -19zM496 148q150 0 263 90.5t113 213.5v184q-30 -22 -82 -34.5t-166 -29.5q-39 -6 -57 -9.5t-53.5 -11t-54 -13t-47.5 -16.5t-44.5 -22t-35 -27.5
t-29 -35.5t-16.5 -43.5t-7 -53.5q0 -92 56.5 -142t159.5 -50z" />
    <glyph glyph-name="Abreve" unicode="&#x102;" horiz-adv-x="1560" 
d="M780 1640q-138 0 -227.5 75.5t-104.5 204.5l164 12q18 -140 168 -140t168 140l164 -12q-15 -129 -104.5 -204.5t-227.5 -75.5zM1308 0l-152 380h-756l-152 -380h-216l624 1520h248l624 -1520h-220zM472 564h608l-304 760z" />
    <glyph glyph-name="abreve" unicode="&#x103;" horiz-adv-x="1268" 
d="M616 1320q-138 0 -227.5 75.5t-104.5 204.5l164 12q18 -140 168 -140t168 140l164 -12q-15 -129 -104.5 -204.5t-227.5 -75.5zM1144 176h44v-176q-16 -8 -68 -8q-111 0 -161 44t-59 152q-67 -95 -181 -151.5t-247 -56.5q-174 0 -283 98.5t-109 257.5q0 60 17 110.5
t43.5 87t68.5 66.5t84 49.5t98 35.5t101.5 25t103.5 18q172 27 226 50.5t54 93.5q0 80 -73.5 128t-194.5 48q-105 0 -203 -43t-173 -121l-124 128q208 208 508 208q208 0 328 -104.5t120 -287.5v-572q0 -42 19 -61t61 -19zM496 148q150 0 263 90.5t113 213.5v184
q-30 -22 -82 -34.5t-166 -29.5q-39 -6 -57 -9.5t-53.5 -11t-54 -13t-47.5 -16.5t-44.5 -22t-35 -27.5t-29 -35.5t-16.5 -43.5t-7 -53.5q0 -92 56.5 -142t159.5 -50z" />
    <glyph glyph-name="Aogonek" unicode="&#x104;" horiz-adv-x="1560" 
d="M1480 -220l68 -124q-87 -56 -188 -56t-162.5 56t-61.5 144q0 64 45.5 123.5t122.5 88.5l-148 368h-756l-152 -380h-216l624 1520h248l624 -1520q-236 -70 -236 -180q0 -36 22.5 -56t61.5 -20q56 0 104 36zM472 564h608l-304 760z" />
    <glyph glyph-name="aogonek" unicode="&#x105;" horiz-adv-x="1268" 
d="M1140 -220l68 -124q-87 -56 -188 -56t-162.5 56t-61.5 144q0 71 50 131t138 89q-78 42 -84 168q-67 -95 -181 -151.5t-247 -56.5q-174 0 -283 98.5t-109 257.5q0 60 17 110.5t43.5 87t68.5 66.5t84 49.5t98 35.5t101.5 25t103.5 18q172 27 226 50.5t54 93.5
q0 80 -73.5 128t-194.5 48q-105 0 -203 -43t-173 -121l-124 128q208 208 508 208q208 0 328 -104.5t120 -287.5v-572q0 -42 19 -61t61 -19h44v-176q-4 0 -8 -4q-228 -69 -228 -176q0 -36 22.5 -56t61.5 -20q56 0 104 36zM496 148q150 0 263 90.5t113 213.5v184
q-30 -22 -82 -34.5t-166 -29.5q-39 -6 -57 -9.5t-53.5 -11t-54 -13t-47.5 -16.5t-44.5 -22t-35 -27.5t-29 -35.5t-16.5 -43.5t-7 -53.5q0 -92 56.5 -142t159.5 -50z" />
    <glyph glyph-name="Cacute" unicode="&#x106;" horiz-adv-x="1540" 
d="M752 1640l116 280h260l-228 -280h-148zM832 -20q-324 0 -518 213t-194 567q0 227 90 405t252 276.5t370 98.5q232 0 395.5 -116.5t232.5 -331.5l-192 -68q-48 162 -159.5 247t-276.5 85q-223 0 -361.5 -163.5t-138.5 -432.5q0 -275 135.5 -435.5t364.5 -160.5
q165 0 276.5 85t159.5 247l192 -68q-66 -209 -232.5 -328.5t-395.5 -119.5z" />
    <glyph glyph-name="cacute" unicode="&#x107;" horiz-adv-x="1304" 
d="M624 1320l116 280h260l-228 -280h-148zM700 -20q-262 0 -427 172.5t-165 447.5t165 447.5t427 172.5q192 0 334.5 -95.5t189.5 -264.5l-188 -60q-42 115 -129.5 179.5t-206.5 64.5q-179 0 -283.5 -121t-104.5 -323t104.5 -323t283.5 -121q119 0 208.5 64.5t131.5 179.5
l184 -60q-50 -169 -192.5 -264.5t-331.5 -95.5z" />
    <glyph glyph-name="Cdotaccent" unicode="&#x10a;" horiz-adv-x="1540" 
d="M700 1696v224h224v-224h-224zM832 -20q-324 0 -518 213t-194 567q0 227 90 405t252 276.5t370 98.5q232 0 395.5 -116.5t232.5 -331.5l-192 -68q-48 162 -159.5 247t-276.5 85q-223 0 -361.5 -163.5t-138.5 -432.5q0 -275 135.5 -435.5t364.5 -160.5q165 0 276.5 85
t159.5 247l192 -68q-66 -209 -232.5 -328.5t-395.5 -119.5z" />
    <glyph glyph-name="cdotaccent" unicode="&#x10b;" horiz-adv-x="1304" 
d="M572 1376v224h224v-224h-224zM700 -20q-262 0 -427 172.5t-165 447.5t165 447.5t427 172.5q192 0 334.5 -95.5t189.5 -264.5l-188 -60q-42 115 -129.5 179.5t-206.5 64.5q-179 0 -283.5 -121t-104.5 -323t104.5 -323t283.5 -121q119 0 208.5 64.5t131.5 179.5l184 -60
q-50 -169 -192.5 -264.5t-331.5 -95.5z" />
    <glyph glyph-name="Ccaron" unicode="&#x10c;" horiz-adv-x="1540" 
d="M924 1640h-216l-228 280h188l148 -152l148 152h188zM832 164q165 0 276.5 85t159.5 247l192 -68q-66 -209 -232.5 -328.5t-395.5 -119.5q-324 0 -518 213t-194 567q0 227 90 405t252 276.5t370 98.5q232 0 395.5 -116.5t232.5 -331.5l-192 -68q-48 162 -159.5 247
t-276.5 85q-223 0 -361.5 -163.5t-138.5 -432.5q0 -275 135.5 -435.5t364.5 -160.5z" />
    <glyph glyph-name="ccaron" unicode="&#x10d;" horiz-adv-x="1304" 
d="M796 1320h-216l-228 280h188l148 -152l148 152h188zM700 156q119 0 208.5 64.5t131.5 179.5l184 -60q-50 -169 -192.5 -264.5t-331.5 -95.5q-262 0 -427 172.5t-165 447.5t165 447.5t427 172.5q192 0 334.5 -95.5t189.5 -264.5l-188 -60q-42 115 -129.5 179.5
t-206.5 64.5q-179 0 -283.5 -121t-104.5 -323t104.5 -323t283.5 -121z" />
    <glyph glyph-name="Dcaron" unicode="&#x10e;" horiz-adv-x="1640" 
d="M856 1640h-216l-228 280h188l148 -152l148 152h188zM780 1520q352 0 546 -205t194 -555q0 -224 -87.5 -395.5t-256 -268t-396.5 -96.5h-540v1520h540zM780 184q244 0 386 156.5t142 419.5t-142 419.5t-386 156.5h-332v-1152h332z" />
    <glyph glyph-name="dcaron" unicode="&#x10f;" horiz-adv-x="1448" 
d="M1048 1028v572h200v-1600h-168l-16 200q-72 -105 -182 -162.5t-242 -57.5q-240 0 -386 169.5t-146 450.5q0 274 150 447t382 173q129 0 234 -49.5t174 -142.5zM1420 1600h216l-80 -320h-136v320zM688 156q171 0 273.5 121.5t102.5 322.5t-102.5 322.5t-273.5 121.5
t-273.5 -121.5t-102.5 -322.5t102.5 -322.5t273.5 -121.5z" />
    <glyph glyph-name="Dcroat" unicode="&#x110;" horiz-adv-x="1640" 
d="M780 1520q352 0 546 -205t194 -555q0 -224 -87.5 -395.5t-256 -268t-396.5 -96.5h-540v692h-152v176h152v652h540zM780 184q244 0 386 156.5t142 419.5t-142 419.5t-386 156.5h-332v-468h280v-176h-280v-508h332z" />
    <glyph glyph-name="dcroat" unicode="&#x111;" horiz-adv-x="1448" 
d="M1448 1460v-164h-200v-1296h-168l-16 200q-72 -105 -182 -162.5t-242 -57.5q-240 0 -386 169.5t-146 450.5q0 274 150 447t382 173q129 0 234 -49.5t174 -142.5v268h-240v164h240v140h200v-140h200zM688 156q171 0 273.5 121.5t102.5 322.5t-102.5 322.5t-273.5 121.5
t-273.5 -121.5t-102.5 -322.5t102.5 -322.5t273.5 -121.5z" />
    <glyph glyph-name="Emacron" unicode="&#x112;" horiz-adv-x="1360" 
d="M1060 1920v-160h-640v160h640zM448 188h832v-188h-1040v1520h1020v-188h-812v-460h632v-184h-632v-500z" />
    <glyph glyph-name="emacron" unicode="&#x113;" horiz-adv-x="1364" 
d="M1004 1600v-160h-640v160h640zM312 536q18 -175 124 -277.5t276 -102.5q258 0 372 164l144 -124q-73 -96 -201 -156t-311 -60q-189 0 -328.5 81t-209.5 220.5t-70 318.5q0 275 164.5 447.5t423.5 172.5q258 0 413 -169t155 -451q0 -44 -4 -64h-948zM696 1048
q-155 0 -255.5 -94.5t-124.5 -257.5h740q-21 163 -117.5 257.5t-242.5 94.5z" />
    <glyph glyph-name="Edotaccent" unicode="&#x116;" horiz-adv-x="1360" 
d="M852 1920v-224h-224v224h224zM448 188h832v-188h-1040v1520h1020v-188h-812v-460h632v-184h-632v-500z" />
    <glyph glyph-name="edotaccent" unicode="&#x117;" horiz-adv-x="1364" 
d="M796 1600v-224h-224v224h224zM312 536q18 -175 124 -277.5t276 -102.5q258 0 372 164l144 -124q-73 -96 -201 -156t-311 -60q-189 0 -328.5 81t-209.5 220.5t-70 318.5q0 275 164.5 447.5t423.5 172.5q258 0 413 -169t155 -451q0 -44 -4 -64h-948zM696 1048
q-155 0 -255.5 -94.5t-124.5 -257.5h740q-21 163 -117.5 257.5t-242.5 94.5z" />
    <glyph glyph-name="Eogonek" unicode="&#x118;" horiz-adv-x="1360" 
d="M1232 -220l68 -124q-87 -56 -188 -56t-162.5 56t-61.5 144q0 58 37.5 113t102.5 87h-788v1520h1020v-188h-812v-460h632v-184h-632v-500h832v-188q-236 -70 -236 -180q0 -36 22.5 -56t61.5 -20q56 0 104 36z" />
    <glyph glyph-name="eogonek" unicode="&#x119;" horiz-adv-x="1372" 
d="M312 536q18 -175 124 -277.5t276 -102.5q258 0 372 164l144 -124q-57 -76 -144 -128l12 4q-45 -34 -104.5 -71t-90.5 -56.5t-54 -49.5t-23 -67q0 -33 22.5 -52.5t61.5 -19.5q52 0 112 40l68 -120q-90 -64 -196 -64q-101 0 -162.5 50.5t-61.5 129.5q0 57 31.5 108t88.5 84
q-24 -4 -72 -4q-189 0 -328.5 81t-209.5 220.5t-70 318.5q0 275 164.5 447.5t423.5 172.5q258 0 413 -169t155 -451q0 -44 -4 -64h-948zM696 1048q-155 0 -255.5 -94.5t-124.5 -257.5h740q-21 163 -117.5 257.5t-242.5 94.5z" />
    <glyph glyph-name="Ecaron" unicode="&#x11a;" horiz-adv-x="1360" 
d="M852 1640h-216l-228 280h188l148 -152l148 152h188zM448 188h832v-188h-1040v1520h1020v-188h-812v-460h632v-184h-632v-500z" />
    <glyph glyph-name="ecaron" unicode="&#x11b;" horiz-adv-x="1364" 
d="M796 1320h-216l-228 280h188l148 -152l148 152h188zM312 536q18 -175 124 -277.5t276 -102.5q258 0 372 164l144 -124q-73 -96 -201 -156t-311 -60q-189 0 -328.5 81t-209.5 220.5t-70 318.5q0 275 164.5 447.5t423.5 172.5q258 0 413 -169t155 -451q0 -44 -4 -64h-948z
M696 1048q-155 0 -255.5 -94.5t-124.5 -257.5h740q-21 163 -117.5 257.5t-242.5 94.5z" />
    <glyph glyph-name="Gbreve" unicode="&#x11e;" horiz-adv-x="1664" 
d="M848 1640q-138 0 -227.5 75.5t-104.5 204.5l164 12q18 -140 168 -140t168 140l164 -12q-15 -129 -104.5 -204.5t-227.5 -75.5zM900 760h604v-760h-156l-20 228q-88 -119 -215.5 -183.5t-284.5 -64.5q-321 0 -514.5 213t-193.5 567q0 228 92.5 405.5t260.5 276t383 98.5
q229 0 393 -106t239 -306l-192 -72q-51 146 -164 223t-276 77q-235 0 -379.5 -163.5t-144.5 -432.5q0 -275 135.5 -435.5t364.5 -160.5q85 0 164 26t147.5 76t116.5 133t64 189h-424v172z" />
    <glyph glyph-name="gbreve" unicode="&#x11f;" horiz-adv-x="1448" 
d="M688 1320q-138 0 -227.5 75.5t-104.5 204.5l164 12q18 -140 168 -140t168 140l164 -12q-15 -129 -104.5 -204.5t-227.5 -75.5zM1080 1200h168l-4 -1092q0 -234 -154 -381t-414 -147q-306 0 -476 176l120 140q70 -76 154.5 -108t201.5 -32q103 0 178.5 28t118.5 79
t63 113.5t20 139.5v128q-73 -94 -181 -147t-235 -53q-240 0 -386 160.5t-146 427.5q0 260 150 424t382 164q136 0 245 -53.5t179 -150.5zM688 216q171 0 273.5 113.5t102.5 302.5q0 186 -102.5 299t-273.5 113t-273.5 -113t-102.5 -299q0 -189 102.5 -302.5t273.5 -113.5z
" />
    <glyph glyph-name="Gdotaccent" unicode="&#x120;" horiz-adv-x="1664" 
d="M960 1920v-224h-224v224h224zM900 760h604v-760h-156l-20 228q-88 -119 -215.5 -183.5t-284.5 -64.5q-321 0 -514.5 213t-193.5 567q0 228 92.5 405.5t260.5 276t383 98.5q229 0 393 -106t239 -306l-192 -72q-51 146 -164 223t-276 77q-235 0 -379.5 -163.5
t-144.5 -432.5q0 -275 135.5 -435.5t364.5 -160.5q85 0 164 26t147.5 76t116.5 133t64 189h-424v172z" />
    <glyph glyph-name="gdotaccent" unicode="&#x121;" horiz-adv-x="1448" 
d="M800 1600v-224h-224v224h224zM1080 1200h168l-4 -1092q0 -234 -154 -381t-414 -147q-306 0 -476 176l120 140q70 -76 154.5 -108t201.5 -32q103 0 178.5 28t118.5 79t63 113.5t20 139.5v128q-73 -94 -181 -147t-235 -53q-240 0 -386 160.5t-146 427.5q0 260 150 424
t382 164q136 0 245 -53.5t179 -150.5zM688 216q171 0 273.5 113.5t102.5 302.5q0 186 -102.5 299t-273.5 113t-273.5 -113t-102.5 -299q0 -189 102.5 -302.5t273.5 -113.5z" />
    <glyph glyph-name="uni0122" unicode="&#x122;" horiz-adv-x="1664" 
d="M900 760h604v-760h-156l-20 228q-88 -119 -215.5 -183.5t-284.5 -64.5q-321 0 -514.5 213t-193.5 567q0 228 92.5 405.5t260.5 276t383 98.5q229 0 393 -106t239 -306l-192 -72q-51 146 -164 223t-276 77q-235 0 -379.5 -163.5t-144.5 -432.5q0 -275 135.5 -435.5
t364.5 -160.5q85 0 164 26t147.5 76t116.5 133t64 189h-424v172zM752 -296v176h224v-148q0 -110 -52.5 -167t-139.5 -57h-32v108h32q39 0 58 21.5t22 66.5h-112z" />
    <glyph glyph-name="uni0123" unicode="&#x123;" horiz-adv-x="1448" 
d="M800 1552v-216h-224v216q0 110 52.5 167t139.5 57h32v-108h-32q-80 0 -80 -96v-20h112zM1080 1200h168l-4 -1092q0 -234 -154 -381t-414 -147q-306 0 -476 176l120 140q70 -76 154.5 -108t201.5 -32q103 0 178.5 28t118.5 79t63 113.5t20 139.5v128q-73 -94 -181 -147
t-235 -53q-240 0 -386 160.5t-146 427.5q0 260 150 424t382 164q136 0 245 -53.5t179 -150.5zM688 216q171 0 273.5 113.5t102.5 302.5q0 186 -102.5 299t-273.5 113t-273.5 -113t-102.5 -299q0 -189 102.5 -302.5t273.5 -113.5z" />
    <glyph glyph-name="Hbar" unicode="&#x126;" horiz-adv-x="1720" 
d="M1628 1280v-176h-148v-1104h-208v684h-824v-684h-208v1104h-148v176h148v240h208v-240h824v240h208v-240h148zM1272 876v228h-824v-228h824z" />
    <glyph glyph-name="hbar" unicode="&#x127;" horiz-adv-x="1436" 
d="M816 1220q196 0 318 -127t122 -333v-760h-200v700q0 164 -76 254t-212 90q-155 0 -261.5 -99t-106.5 -253v-692h-200v1296h-152v164h152v140h200v-140h288v-164h-288v-272q70 92 178 144t238 52z" />
    <glyph glyph-name="Imacron" unicode="&#x12a;" horiz-adv-x="688" 
d="M24 1760v160h640v-160h-640zM240 0v1520h208v-1520h-208z" />
    <glyph glyph-name="imacron" unicode="&#x12b;" horiz-adv-x="640" 
d="M0 1440v160h640v-160h-640zM220 0v1200h200v-1200h-200z" />
    <glyph glyph-name="Iogonek" unicode="&#x12e;" horiz-adv-x="688" 
d="M400 -220l68 -124q-87 -56 -188 -56t-162.5 56t-61.5 144q0 68 49.5 129t134.5 87v1504h208v-1520q-236 -70 -236 -180q0 -36 22.5 -56t61.5 -20q56 0 104 36z" />
    <glyph glyph-name="iogonek" unicode="&#x12f;" horiz-adv-x="640" 
d="M432 1600v-224h-224v224h224zM372 -220l68 -124q-87 -56 -188 -56t-162.5 56t-61.5 144q0 71 52 132.5t140 87.5v1180h200v-1200q-236 -70 -236 -180q0 -36 22.5 -56t61.5 -20q56 0 104 36z" />
    <glyph glyph-name="Idotaccent" unicode="&#x130;" horiz-adv-x="688" 
d="M232 1696v224h224v-224h-224zM240 0v1520h208v-1520h-208z" />
    <glyph glyph-name="dotlessi" unicode="&#x131;" horiz-adv-x="640" 
d="M220 0v1200h200v-1200h-200z" />
    <glyph glyph-name="uni0136" unicode="&#x136;" horiz-adv-x="1552" 
d="M832 896l680 -896h-256l-572 752l-236 -232v-520h-208v1520h208v-760l760 760h260zM716 -296v176h224v-148q0 -110 -52.5 -167t-139.5 -57h-32v108h32q39 0 58 21.5t22 66.5h-112z" />
    <glyph glyph-name="uni0137" unicode="&#x137;" horiz-adv-x="1264" 
d="M724 716l540 -716h-248l-436 580l-180 -168v-412h-200v1600h200v-956l584 556h256zM556 -296v176h224v-148q0 -110 -52.5 -167t-139.5 -57h-32v108h32q39 0 58 21.5t22 66.5h-112z" />
    <glyph glyph-name="kgreenlandic" unicode="&#x138;" horiz-adv-x="1264" 
d="M1016 0l-436 580l-180 -168v-412h-200v1200h200v-556l584 556h256l-516 -484l540 -716h-248z" />
    <glyph glyph-name="Lacute" unicode="&#x139;" horiz-adv-x="1340" 
d="M660 2000l-228 -280h-148l116 280h260zM448 192h832v-192h-1040v1520h208v-1328z" />
    <glyph glyph-name="lacute" unicode="&#x13a;" horiz-adv-x="600" 
d="M240 1720l116 280h260l-228 -280h-148zM200 0v1600h200v-1600h-200z" />
    <glyph glyph-name="uni013B" unicode="&#x13b;" horiz-adv-x="1340" 
d="M448 192h832v-192h-1040v1520h208v-1328zM644 -296v176h224v-148q0 -110 -52.5 -167t-139.5 -57h-32v108h32q39 0 58 21.5t22 66.5h-112z" />
    <glyph glyph-name="uni013C" unicode="&#x13c;" horiz-adv-x="600" 
d="M400 1600v-1600h-200v1600h200zM188 -120h224v-148q0 -110 -52.5 -167t-139.5 -57h-32v108h32q39 0 58 21.5t22 66.5h-112v176z" />
    <glyph glyph-name="Lcaron" unicode="&#x13d;" horiz-adv-x="1340" 
d="M448 192h832v-192h-1040v1520h208v-1328zM824 1520l-80 -320h-136v320h216z" />
    <glyph glyph-name="lcaron" unicode="&#x13e;" horiz-adv-x="600" 
d="M200 0v1600h200v-1600h-200zM560 1280v320h216l-80 -320h-136z" />
    <glyph glyph-name="Lslash" unicode="&#x141;" horiz-adv-x="1340" 
d="M448 192h832v-192h-1040v568l-156 -48v172l156 48v780h208v-716l424 132v-172l-424 -132v-440z" />
    <glyph glyph-name="lslash" unicode="&#x142;" horiz-adv-x="640" 
d="M580 956v-168l-160 -48v-740h-200v676l-160 -48v168l160 48v756h200v-692z" />
    <glyph glyph-name="Nacute" unicode="&#x143;" horiz-adv-x="1720" 
d="M1176 1920l-228 -280h-148l116 280h260zM1284 1520h196v-1520h-204l-840 1196v-1196h-196v1520h208l836 -1188v1188z" />
    <glyph glyph-name="nacute" unicode="&#x144;" 
d="M1040 1600l-228 -280h-148l116 280h260zM820 1220q196 0 318 -127t122 -333v-760h-200v700q0 164 -76 254t-212 90q-158 0 -265 -99t-107 -253v-692h-200v1200h168l16 -200q67 103 181.5 161.5t254.5 58.5z" />
    <glyph glyph-name="uni0145" unicode="&#x145;" horiz-adv-x="1720" 
d="M1284 1520h196v-1520h-204l-840 1196v-1196h-196v1520h208l836 -1188v1188zM748 -296v176h224v-148q0 -110 -52.5 -167t-139.5 -57h-32v108h32q39 0 58 21.5t22 66.5h-112z" />
    <glyph glyph-name="uni0146" unicode="&#x146;" 
d="M820 1220q196 0 318 -127t122 -333v-760h-200v700q0 164 -76 254t-212 90q-158 0 -265 -99t-107 -253v-692h-200v1200h168l16 -200q67 103 181.5 161.5t254.5 58.5zM612 -296v176h224v-148q0 -110 -52.5 -167t-139.5 -57h-32v108h32q39 0 58 21.5t22 66.5h-112z" />
    <glyph glyph-name="Ncaron" unicode="&#x147;" horiz-adv-x="1720" 
d="M972 1640h-216l-228 280h188l148 -152l148 152h188zM1284 1520h196v-1520h-204l-840 1196v-1196h-196v1520h208l836 -1188v1188z" />
    <glyph glyph-name="ncaron" unicode="&#x148;" 
d="M836 1320h-216l-228 280h188l148 -152l148 152h188zM820 1220q196 0 318 -127t122 -333v-760h-200v700q0 164 -76 254t-212 90q-158 0 -265 -99t-107 -253v-692h-200v1200h168l16 -200q67 103 181.5 161.5t254.5 58.5z" />
    <glyph glyph-name="Eng" unicode="&#x14a;" horiz-adv-x="1720" 
d="M1284 1520h196v-1616q0 -166 -80.5 -239t-227.5 -73q-48 0 -112 8v180h92q65 0 96.5 31t31.5 101v80l-844 1204v-1196h-196v1520h208l836 -1188v1188z" />
    <glyph glyph-name="eng" unicode="&#x14b;" horiz-adv-x="1436" 
d="M816 1220q196 0 318 -127t122 -333v-856q0 -166 -80.5 -239t-227.5 -73q-48 0 -112 8v180h92q65 0 96.5 31t31.5 101v788q0 164 -76 254t-212 90q-155 0 -261.5 -99t-106.5 -253v-692h-200v1200h168l16 -200q66 103 180.5 161.5t251.5 58.5z" />
    <glyph glyph-name="Omacron" unicode="&#x14c;" horiz-adv-x="1680" 
d="M520 1760v160h640v-160h-640zM840 -20q-327 0 -523.5 213t-196.5 567q0 227 91 405t255 276.5t374 98.5q327 0 523.5 -213t196.5 -567q0 -227 -91 -405t-255 -276.5t-374 -98.5zM840 164q231 0 369.5 163t138.5 433t-138.5 433t-369.5 163t-369.5 -163t-138.5 -433
t138.5 -433t369.5 -163z" />
    <glyph glyph-name="omacron" unicode="&#x14d;" horiz-adv-x="1416" 
d="M388 1440v160h640v-160h-640zM708 -20q-273 0 -436.5 169t-163.5 451q0 275 167.5 447.5t432.5 172.5q273 0 436.5 -169t163.5 -451q0 -275 -167.5 -447.5t-432.5 -172.5zM708 156q180 0 288 121.5t108 322.5t-108 322.5t-288 121.5t-288 -121.5t-108 -322.5t108 -322.5
t288 -121.5z" />
    <glyph glyph-name="Ohungarumlaut" unicode="&#x150;" horiz-adv-x="1680" 
d="M536 1696v224h224v-224h-224zM920 1696v224h224v-224h-224zM840 -20q-327 0 -523.5 213t-196.5 567q0 227 91 405t255 276.5t374 98.5q327 0 523.5 -213t196.5 -567q0 -227 -91 -405t-255 -276.5t-374 -98.5zM840 164q231 0 369.5 163t138.5 433t-138.5 433t-369.5 163
t-369.5 -163t-138.5 -433t138.5 -433t369.5 -163z" />
    <glyph glyph-name="ohungarumlaut" unicode="&#x151;" horiz-adv-x="1416" 
d="M452 1320l116 280h260l-228 -280h-148zM812 1320l116 280h260l-228 -280h-148zM708 -20q-273 0 -436.5 169t-163.5 451q0 275 167.5 447.5t432.5 172.5q273 0 436.5 -169t163.5 -451q0 -275 -167.5 -447.5t-432.5 -172.5zM708 156q180 0 288 121.5t108 322.5t-108 322.5
t-288 121.5t-288 -121.5t-108 -322.5t108 -322.5t288 -121.5z" />
    <glyph glyph-name="OE" unicode="&#x152;" horiz-adv-x="2084" 
d="M1268 188h736v-188h-1144q-352 0 -546 205t-194 555q0 224 87.5 395.5t256 268t396.5 96.5h1124v-188h-716v-460h536v-184h-536v-500zM860 184h200v1152h-200q-244 0 -386 -156.5t-142 -419.5t142 -419.5t386 -156.5z" />
    <glyph glyph-name="oe" unicode="&#x153;" horiz-adv-x="2244" 
d="M1248 536q15 -174 116 -277t260 -103q239 0 348 160l136 -124q-69 -95 -190 -153.5t-290 -58.5q-166 0 -287.5 73t-192.5 203q-73 -130 -198 -203t-282 -73q-255 0 -407.5 169t-152.5 451q0 275 156.5 447.5t403.5 172.5q164 0 289.5 -71t194.5 -201q70 128 189 200
t267 72q243 0 389.5 -169t146.5 -451q0 -44 -4 -64h-892zM1608 1048q-144 0 -239.5 -95t-116.5 -257h688q-21 163 -109.5 257.5t-222.5 94.5zM688 156q171 0 273.5 121.5t102.5 322.5t-102.5 322.5t-273.5 121.5t-273.5 -121.5t-102.5 -322.5t102.5 -322.5t273.5 -121.5z
" />
    <glyph glyph-name="Racute" unicode="&#x154;" horiz-adv-x="1536" 
d="M1040 1920l-228 -280h-148l116 280h260zM1216 0l-372 608h-400v-608h-204v1520h608q237 0 378.5 -124.5t141.5 -331.5q0 -155 -81.5 -265.5t-226.5 -158.5l396 -640h-240zM444 1332v-544h376q336 0 336 272t-336 272h-376z" />
    <glyph glyph-name="racute" unicode="&#x155;" horiz-adv-x="940" 
d="M852 1600l-228 -280h-148l116 280h260zM816 1220q28 0 84 -8v-196q-44 4 -140 4q-152 0 -256 -96t-104 -244v-680h-200v1200h168l16 -200q66 103 180.5 161.5t251.5 58.5z" />
    <glyph glyph-name="uni0156" unicode="&#x156;" horiz-adv-x="1536" 
d="M1060 640l396 -640h-240l-372 608h-400v-608h-204v1520h608q237 0 378.5 -124.5t141.5 -331.5q0 -155 -81.5 -265.5t-226.5 -158.5zM444 1332v-544h376q336 0 336 272t-336 272h-376zM732 -296v176h224v-148q0 -110 -52.5 -167t-139.5 -57h-32v108h32q39 0 58 21.5
t22 66.5h-112z" />
    <glyph glyph-name="uni0157" unicode="&#x157;" horiz-adv-x="940" 
d="M816 1220q28 0 84 -8v-196q-44 4 -140 4q-152 0 -256 -96t-104 -244v-680h-200v1200h168l16 -200q66 103 180.5 161.5t251.5 58.5zM188 -296v176h224v-148q0 -110 -52.5 -167t-139.5 -57h-32v108h32q39 0 58 21.5t22 66.5h-112z" />
    <glyph glyph-name="Rcaron" unicode="&#x158;" horiz-adv-x="1536" 
d="M836 1640h-216l-228 280h188l148 -152l148 152h188zM1216 0l-372 608h-400v-608h-204v1520h608q237 0 378.5 -124.5t141.5 -331.5q0 -155 -81.5 -265.5t-226.5 -158.5l396 -640h-240zM444 1332v-544h376q336 0 336 272t-336 272h-376z" />
    <glyph glyph-name="rcaron" unicode="&#x159;" horiz-adv-x="940" 
d="M648 1320h-216l-228 280h188l148 -152l148 152h188zM816 1220q28 0 84 -8v-196q-44 4 -140 4q-152 0 -256 -96t-104 -244v-680h-200v1200h168l16 -200q66 103 180.5 161.5t251.5 58.5z" />
    <glyph glyph-name="Sacute" unicode="&#x15a;" horiz-adv-x="1392" 
d="M628 1640l116 280h260l-228 -280h-148zM684 -20q-172 0 -323.5 56.5t-264.5 163.5l128 160q99 -96 224.5 -146t263.5 -50q168 0 264 65t96 179q0 62 -31.5 104t-109 79t-223.5 77q-77 22 -129 38.5t-116 41t-105.5 48t-85 57.5t-68.5 71t-40.5 86t-15.5 106
q0 194 154 309t410 115q301 0 532 -176l-124 -164q-175 156 -428 156q-153 0 -244.5 -61.5t-91.5 -166.5q0 -93 84 -149.5t300 -110.5q294 -72 417 -171.5t123 -264.5q0 -208 -160.5 -330t-435.5 -122z" />
    <glyph glyph-name="sacute" unicode="&#x15b;" horiz-adv-x="1152" 
d="M504 1320l116 280h260l-228 -280h-148zM584 -20q-304 0 -504 188l116 140q152 -152 392 -152q129 0 200.5 43t71.5 121q0 69 -64.5 111.5t-235.5 84.5q-234 60 -331 140.5t-97 215.5q0 156 126 252t330 96q249 0 440 -148l-120 -156q-134 128 -328 128q-115 0 -183.5 -42
t-68.5 -114q0 -63 63.5 -104.5t224.5 -83.5q240 -66 338 -147.5t98 -216.5q0 -162 -127.5 -259t-340.5 -97z" />
    <glyph glyph-name="Scedilla" unicode="&#x15e;" horiz-adv-x="1392" 
d="M1280 432q0 -189 -133 -308t-367 -140l-52 -80q20 4 52 4q87 0 141.5 -44.5t54.5 -123.5q0 -78 -76 -129t-196 -51q-69 0 -137 22.5t-119 61.5l72 108q102 -68 188 -68q51 0 79.5 17t28.5 47q0 26 -23 41t-57 15q-44 0 -84 -20l-108 60l84 136q-154 9 -291 65.5
t-241 154.5l128 160q99 -96 224.5 -146t263.5 -50q168 0 264 65t96 179q0 62 -31.5 104t-109 79t-223.5 77q-77 22 -129 38.5t-116 41t-105.5 48t-85 57.5t-68.5 71t-40.5 86t-15.5 106q0 194 154 309t410 115q301 0 532 -176l-124 -164q-175 156 -428 156
q-153 0 -244.5 -61.5t-91.5 -166.5q0 -93 84 -149.5t300 -110.5q294 -72 417 -171.5t123 -264.5z" />
    <glyph glyph-name="scedilla" unicode="&#x15f;" horiz-adv-x="1152" 
d="M1052 336q0 -147 -108.5 -242t-291.5 -110l-48 -80q20 4 52 4q87 0 141.5 -44.5t54.5 -123.5q0 -78 -76.5 -129t-195.5 -51q-69 0 -137 22.5t-119 61.5l72 108q102 -68 188 -68q51 0 79.5 17t28.5 47q0 26 -23 41t-57 15q-44 0 -84 -20l-108 60l84 140q-245 18 -424 184
l116 140q152 -152 392 -152q129 0 200.5 43t71.5 121q0 69 -64.5 111.5t-235.5 84.5q-234 60 -331 140.5t-97 215.5q0 156 126 252t330 96q249 0 440 -148l-120 -156q-134 128 -328 128q-115 0 -183.5 -42t-68.5 -114q0 -63 63.5 -104.5t224.5 -83.5q240 -66 338 -147.5
t98 -216.5z" />
    <glyph glyph-name="Scaron" unicode="&#x160;" horiz-adv-x="1392" 
d="M800 1640h-216l-228 280h188l148 -152l148 152h188zM740 868q294 -72 417 -171.5t123 -264.5q0 -208 -160.5 -330t-435.5 -122q-172 0 -323.5 56.5t-264.5 163.5l128 160q99 -96 224.5 -146t263.5 -50q168 0 264 65t96 179q0 62 -31.5 104t-109 79t-223.5 77
q-77 22 -129 38.5t-116 41t-105.5 48t-85 57.5t-68.5 71t-40.5 86t-15.5 106q0 194 154 309t410 115q301 0 532 -176l-124 -164q-175 156 -428 156q-153 0 -244.5 -61.5t-91.5 -166.5q0 -93 84 -149.5t300 -110.5z" />
    <glyph glyph-name="scaron" unicode="&#x161;" horiz-adv-x="1152" 
d="M676 1320h-216l-228 280h188l148 -152l148 152h188zM616 700q240 -66 338 -147.5t98 -216.5q0 -162 -127.5 -259t-340.5 -97q-304 0 -504 188l116 140q152 -152 392 -152q129 0 200.5 43t71.5 121q0 69 -64.5 111.5t-235.5 84.5q-234 60 -331 140.5t-97 215.5
q0 156 126 252t330 96q249 0 440 -148l-120 -156q-134 128 -328 128q-115 0 -183.5 -42t-68.5 -114q0 -63 63.5 -104.5t224.5 -83.5z" />
    <glyph glyph-name="uni0162" unicode="&#x162;" horiz-adv-x="1400" 
d="M804 0h-4l-60 -96q20 4 52 4q87 0 141.5 -44.5t54.5 -123.5q0 -78 -76 -129t-196 -51q-69 0 -137 22.5t-119 61.5l72 108q102 -68 188 -68q51 0 79.5 17t28.5 47q0 26 -23 41t-57 15q-44 0 -84 -20l-108 60l96 156h-56v1328h-556v192h1320v-192h-556v-1328z" />
    <glyph glyph-name="uni0163" unicode="&#x163;" horiz-adv-x="976" 
d="M680 -92q87 0 141.5 -44.5t54.5 -123.5q0 -78 -76.5 -129t-195.5 -51q-69 0 -137 22.5t-119 61.5l72 108q102 -68 188 -68q51 0 79.5 17t28.5 47q0 26 -23 41t-57 15q-44 0 -84 -20l-108 60l88 144q-117 24 -178.5 105.5t-61.5 210.5v724h-236v172h236l32 320h168v-320
h380v-172h-380v-688q0 -99 41.5 -135.5t138.5 -36.5t200 28v-188q-91 -21 -196 -28l-48 -76q20 4 52 4z" />
    <glyph glyph-name="Tcaron" unicode="&#x164;" horiz-adv-x="1400" 
d="M812 1640h-216l-228 280h188l148 -152l148 152h188zM1360 1520v-192h-556v-1328h-208v1328h-556v192h1320z" />
    <glyph glyph-name="tcaron" unicode="&#x165;" horiz-adv-x="976" 
d="M868 1600l-80 -320h-136v320h216zM872 1028h-380v-688q0 -99 41.5 -135.5t138.5 -36.5t200 28v-188q-112 -28 -232 -28q-170 0 -259 83.5t-89 240.5v724h-236v172h236l32 320h168v-320h380v-172z" />
    <glyph glyph-name="Tbar" unicode="&#x166;" horiz-adv-x="1400" 
d="M1360 1328h-556v-460h308v-176h-308v-692h-208v692h-308v176h308v460h-556v192h1320v-192z" />
    <glyph glyph-name="tbar" unicode="&#x167;" horiz-adv-x="976" 
d="M872 1028h-380v-328h308v-176h-308v-184q0 -99 41.5 -135.5t138.5 -36.5t200 28v-188q-112 -28 -232 -28q-170 0 -259 83.5t-89 240.5v220h-228v176h228v328h-236v172h236l32 320h168v-320h380v-172z" />
    <glyph glyph-name="Umacron" unicode="&#x16a;" horiz-adv-x="1680" 
d="M520 1760v160h640v-160h-640zM840 -20q-282 0 -451 166.5t-169 445.5v928h208v-928q0 -195 111.5 -311.5t300.5 -116.5t300.5 116.5t111.5 311.5v928h208v-928q0 -279 -169 -445.5t-451 -166.5z" />
    <glyph glyph-name="umacron" unicode="&#x16b;" 
d="M1032 1600v-160h-640v160h640zM1040 1200h200v-1200h-168l-16 200q-67 -103 -181.5 -161.5t-254.5 -58.5q-196 0 -318 127t-122 333v760h200v-700q0 -164 76 -254t212 -90q158 0 265 99t107 253v692z" />
    <glyph glyph-name="Uring" unicode="&#x16e;" horiz-adv-x="1680" 
d="M840 1464q-108 0 -180 70t-72 178t72 178t180 70t180 -70t72 -178t-72 -178t-180 -70zM840 1596q51 0 83.5 32.5t32.5 83.5t-32.5 83.5t-83.5 32.5t-83.5 -32.5t-32.5 -83.5t32.5 -83.5t83.5 -32.5zM840 -20q-282 0 -451 166.5t-169 445.5v928h208v-928
q0 -195 111.5 -311.5t300.5 -116.5t300.5 116.5t111.5 311.5v928h208v-928q0 -279 -169 -445.5t-451 -166.5z" />
    <glyph glyph-name="uring" unicode="&#x16f;" 
d="M712 1320q-108 0 -180 70t-72 178t72 178t180 70t180 -70t72 -178t-72 -178t-180 -70zM712 1684q-51 0 -83.5 -32.5t-32.5 -83.5t32.5 -83.5t83.5 -32.5t83.5 32.5t32.5 83.5t-32.5 83.5t-83.5 32.5zM1040 1200h200v-1200h-168l-16 200q-67 -103 -181.5 -161.5
t-254.5 -58.5q-196 0 -318 127t-122 333v760h200v-700q0 -164 76 -254t212 -90q158 0 265 99t107 253v692z" />
    <glyph glyph-name="Uhungarumlaut" unicode="&#x170;" horiz-adv-x="1680" 
d="M584 1640l116 280h260l-228 -280h-148zM944 1640l116 280h260l-228 -280h-148zM840 -20q-282 0 -451 166.5t-169 445.5v928h208v-928q0 -195 111.5 -311.5t300.5 -116.5t300.5 116.5t111.5 311.5v928h208v-928q0 -279 -169 -445.5t-451 -166.5z" />
    <glyph glyph-name="uhungarumlaut" unicode="&#x171;" 
d="M832 1600l-228 -280h-148l116 280h260zM964 1320h-148l116 280h260zM1040 1200h200v-1200h-168l-16 200q-67 -103 -181.5 -161.5t-254.5 -58.5q-196 0 -318 127t-122 333v760h200v-700q0 -164 76 -254t212 -90q158 0 265 99t107 253v692z" />
    <glyph glyph-name="Uogonek" unicode="&#x172;" horiz-adv-x="1680" 
d="M1252 1520h208v-928q0 -175 -68.5 -308t-195.5 -212q-21 -15 -77.5 -47t-96 -56.5t-73 -63t-33.5 -77.5q0 -33 22.5 -52.5t61.5 -19.5q52 0 112 40l68 -120q-90 -64 -196 -64q-101 0 -162.5 51t-61.5 133q0 120 116 184h-36q-282 0 -451 166.5t-169 445.5v928h208v-928
q0 -195 111.5 -311.5t300.5 -116.5t300.5 116.5t111.5 311.5v928z" />
    <glyph glyph-name="uogonek" unicode="&#x173;" 
d="M1192 -220l68 -124q-87 -56 -188 -56t-162.5 56t-61.5 144q0 77 60 140.5t160 87.5l-12 172q-67 -103 -181.5 -161.5t-254.5 -58.5q-196 0 -318 127t-122 333v760h200v-700q0 -164 76 -254t212 -90q158 0 265 99t107 253v692h200v-1200q-236 -70 -236 -180
q0 -36 22.5 -56t61.5 -20q56 0 104 36z" />
    <glyph glyph-name="Wcircumflex" unicode="&#x174;" horiz-adv-x="2216" 
d="M1112 1792l-148 -152h-188l228 280h216l228 -280h-188zM1932 1520h204l-440 -1520h-220l-372 1264l-368 -1264h-216l-440 1520h212l352 -1212l348 1212h232l352 -1220z" />
    <glyph glyph-name="wcircumflex" unicode="&#x175;" horiz-adv-x="1872" 
d="M940 1472l-148 -152h-188l228 280h216l228 -280h-188zM1616 1200h196l-376 -1200h-216l-284 940l-284 -940h-216l-376 1200h204l284 -956l288 956h204l292 -960z" />
    <glyph glyph-name="Ycircumflex" unicode="&#x176;" horiz-adv-x="1448" 
d="M728 1792l-148 -152h-188l228 280h216l228 -280h-188zM1428 1520l-600 -908v-612h-208v612l-600 908h240l468 -716l464 716h236z" />
    <glyph glyph-name="ycircumflex" unicode="&#x177;" horiz-adv-x="1284" 
d="M652 1472l-148 -152h-188l228 280h216l228 -280h-188zM1052 1200h208l-460 -1264q-27 -74 -62 -135.5t-81 -112.5t-107 -79.5t-130 -28.5q-155 0 -237 95t-79 241l180 32q-8 -184 136 -184q55 0 97 36.5t79 111.5l-564 1288h220l440 -1052z" />
    <glyph glyph-name="Ydieresis" unicode="&#x178;" horiz-adv-x="1448" 
d="M644 1920v-224h-224v224h224zM1028 1920v-224h-224v224h224zM1428 1520l-600 -908v-612h-208v612l-600 908h240l468 -716l464 716h236z" />
    <glyph glyph-name="Zacute" unicode="&#x179;" horiz-adv-x="1412" 
d="M1024 1920l-228 -280h-148l116 280h260zM1312 1520v-172l-944 -1156h944v-192h-1212v172l944 1156h-900v192h1168z" />
    <glyph glyph-name="zacute" unicode="&#x17a;" horiz-adv-x="1176" 
d="M908 1600l-228 -280h-148l116 280h260zM328 172h768v-172h-1016v176l752 852h-716v172h960v-176z" />
    <glyph glyph-name="Zdotaccent" unicode="&#x17b;" horiz-adv-x="1412" 
d="M820 1920v-224h-224v224h224zM1312 1520v-172l-944 -1156h944v-192h-1212v172l944 1156h-900v192h1168z" />
    <glyph glyph-name="zdotaccent" unicode="&#x17c;" horiz-adv-x="1176" 
d="M704 1600v-224h-224v224h224zM328 172h768v-172h-1016v176l752 852h-716v172h960v-176z" />
    <glyph glyph-name="Zcaron" unicode="&#x17d;" horiz-adv-x="1412" 
d="M820 1640h-216l-228 280h188l148 -152l148 152h188zM1312 1520v-172l-944 -1156h944v-192h-1212v172l944 1156h-900v192h1168z" />
    <glyph glyph-name="zcaron" unicode="&#x17e;" horiz-adv-x="1176" 
d="M704 1320h-216l-228 280h188l148 -152l148 152h188zM328 172h768v-172h-1016v176l752 852h-716v172h960v-176z" />
    <glyph glyph-name="uni0218" unicode="&#x218;" horiz-adv-x="1392" 
d="M740 868q294 -72 417 -171.5t123 -264.5q0 -208 -160.5 -330t-435.5 -122q-172 0 -323.5 56.5t-264.5 163.5l128 160q99 -96 224.5 -146t263.5 -50q168 0 264 65t96 179q0 62 -31.5 104t-109 79t-223.5 77q-77 22 -129 38.5t-116 41t-105.5 48t-85 57.5t-68.5 71
t-40.5 86t-15.5 106q0 194 154 309t410 115q301 0 532 -176l-124 -164q-175 156 -428 156q-153 0 -244.5 -61.5t-91.5 -166.5q0 -93 84 -149.5t300 -110.5zM576 -296v176h224v-148q0 -110 -52.5 -167t-139.5 -57h-32v108h32q39 0 58 21.5t22 66.5h-112z" />
    <glyph glyph-name="uni0219" unicode="&#x219;" horiz-adv-x="1152" 
d="M616 700q240 -66 338 -147.5t98 -216.5q0 -162 -127.5 -259t-340.5 -97q-304 0 -504 188l116 140q152 -152 392 -152q129 0 200.5 43t71.5 121q0 69 -64.5 111.5t-235.5 84.5q-234 60 -331 140.5t-97 215.5q0 156 126 252t330 96q249 0 440 -148l-120 -156
q-134 128 -328 128q-115 0 -183.5 -42t-68.5 -114q0 -63 63.5 -104.5t224.5 -83.5zM452 -296v176h224v-148q0 -110 -52.5 -167t-139.5 -57h-32v108h32q39 0 58 21.5t22 66.5h-112z" />
    <glyph glyph-name="uni021A" unicode="&#x21a;" horiz-adv-x="1400" 
d="M1360 1520v-192h-556v-1328h-208v1328h-556v192h1320zM588 -296v176h224v-148q0 -110 -52.5 -167t-139.5 -57h-32v108h32q39 0 58 21.5t22 66.5h-112z" />
    <glyph glyph-name="uni021B" unicode="&#x21b;" horiz-adv-x="976" 
d="M872 1028h-380v-688q0 -99 41.5 -135.5t138.5 -36.5t200 28v-188q-112 -28 -232 -28q-170 0 -259 83.5t-89 240.5v724h-236v172h236l32 320h168v-320h380v-172zM476 -296v176h224v-148q0 -110 -52.5 -167t-139.5 -57h-32v108h32q39 0 58 21.5t22 66.5h-112z" />
    <glyph glyph-name="uni0237" unicode="&#x237;" horiz-adv-x="620" 
d="M112 -408q-48 0 -112 8v184q32 -4 92 -4q65 0 96.5 31t31.5 101v1288h200v-1296q0 -166 -80.5 -239t-227.5 -73z" />
    <glyph glyph-name="uni02BC" unicode="&#x2bc;" horiz-adv-x="440" 
d="M80 1016v136h40q53 0 76.5 29.5t23.5 90.5v24h-140v224h280v-224q0 -140 -64 -210t-176 -70h-40z" />
    <glyph glyph-name="circumflex" unicode="&#x2c6;" horiz-adv-x="640" 
d="M780 1320h-188l-148 152l-148 -152h-188l228 280h216z" />
    <glyph glyph-name="caron" unicode="&#x2c7;" horiz-adv-x="640" 
d="M592 1600h188l-228 -280h-216l-228 280h188l148 -152z" />
    <glyph glyph-name="breve" unicode="&#x2d8;" horiz-adv-x="640" 
d="M440 1320q-138 0 -227.5 75.5t-104.5 204.5l164 12q18 -140 168 -140t168 140l164 -12q-15 -129 -104.5 -204.5t-227.5 -75.5z" />
    <glyph glyph-name="dotaccent" unicode="&#x2d9;" horiz-adv-x="640" 
d="M328 1376v224h224v-224h-224z" />
    <glyph glyph-name="ring" unicode="&#x2da;" horiz-adv-x="640" 
d="M440 1320q-108 0 -180 70t-72 178t72 178t180 70t180 -70t72 -178t-72 -178t-180 -70zM440 1452q51 0 83.5 32.5t32.5 83.5t-32.5 83.5t-83.5 32.5t-83.5 -32.5t-32.5 -83.5t32.5 -83.5t83.5 -32.5z" />
    <glyph glyph-name="ogonek" unicode="&#x2db;" horiz-adv-x="640" 
d="M420 36l112 -36q-236 -70 -236 -180q0 -36 22.5 -56t61.5 -20q56 0 104 36l68 -124q-87 -56 -188 -56t-162.5 56t-61.5 144t78 157.5t202 78.5z" />
    <glyph glyph-name="tilde" unicode="&#x2dc;" horiz-adv-x="640" 
d="M800 1540q-36 -89 -93.5 -134.5t-130.5 -45.5q-50 0 -98.5 25t-88.5 50t-69 25q-64 0 -104 -96l-128 72q36 89 93.5 134.5t130.5 45.5q50 0 98.5 -25t88.5 -50t69 -25q64 0 104 96z" />
    <glyph glyph-name="hungarumlaut" unicode="&#x2dd;" horiz-adv-x="640" 
d="M184 1320l116 280h260l-228 -280h-148zM544 1320l116 280h260l-228 -280h-148z" />
    <glyph glyph-name="gravecomb" unicode="&#x300;" horiz-adv-x="0" 
d="M-660 1320h-148l-228 280h260z" />
    <glyph glyph-name="acutecomb" unicode="&#x301;" horiz-adv-x="0" 
d="M-780 1320l116 280h260l-228 -280h-148z" />
    <glyph glyph-name="uni0302" unicode="&#x302;" horiz-adv-x="0" 
d="M-380 1320h-188l-148 152l-148 -152h-188l228 280h216z" />
    <glyph glyph-name="tildecomb" unicode="&#x303;" horiz-adv-x="0" 
d="M-360 1540q-36 -89 -93.5 -134.5t-130.5 -45.5q-50 0 -98.5 25t-88.5 50t-69 25q-64 0 -104 -96l-128 72q36 89 93.5 134.5t130.5 45.5q50 0 98.5 -25t88.5 -50t69 -25q64 0 104 96z" />
    <glyph glyph-name="uni0304" unicode="&#x304;" horiz-adv-x="0" 
d="M-1040 1440v160h640v-160h-640z" />
    <glyph glyph-name="uni0306" unicode="&#x306;" horiz-adv-x="0" 
d="M-720 1320q-138 0 -227.5 75.5t-104.5 204.5l164 12q18 -140 168 -140t168 140l164 -12q-15 -129 -104.5 -204.5t-227.5 -75.5z" />
    <glyph glyph-name="uni0307" unicode="&#x307;" horiz-adv-x="0" 
d="M-832 1376v224h224v-224h-224z" />
    <glyph glyph-name="uni0308" unicode="&#x308;" horiz-adv-x="0" 
d="M-1024 1376v224h224v-224h-224zM-640 1376v224h224v-224h-224z" />
    <glyph glyph-name="uni030A" unicode="&#x30a;" horiz-adv-x="0" 
d="M-720 1320q-108 0 -180 70t-72 178t72 178t180 70t180 -70t72 -178t-72 -178t-180 -70zM-720 1452q51 0 83.5 32.5t32.5 83.5t-32.5 83.5t-83.5 32.5t-83.5 -32.5t-32.5 -83.5t32.5 -83.5t83.5 -32.5z" />
    <glyph glyph-name="uni030B" unicode="&#x30b;" horiz-adv-x="0" 
d="M-976 1320l116 280h260l-228 -280h-148zM-616 1320l116 280h260l-228 -280h-148z" />
    <glyph glyph-name="uni030C" unicode="&#x30c;" horiz-adv-x="0" 
d="M-568 1600h188l-228 -280h-216l-228 280h188l148 -152z" />
    <glyph glyph-name="uni0312" unicode="&#x312;" horiz-adv-x="0" 
d="M-640 1668q-80 0 -80 -96v-20h112v-216h-224v216q0 110 52.5 167t139.5 57h32v-108h-32z" />
    <glyph glyph-name="uni0326" unicode="&#x326;" horiz-adv-x="0" 
d="M-832 -120h224v-148q0 -110 -52.5 -167t-139.5 -57h-32v108h32q39 0 58 21.5t22 66.5h-112v176z" />
    <glyph glyph-name="uni0327" unicode="&#x327;" horiz-adv-x="0" 
d="M-628 -92q87 0 141.5 -44.5t54.5 -123.5q0 -78 -76 -129t-196 -51q-69 0 -137 22.5t-119 61.5l72 108q102 -68 188 -68q51 0 79.5 17t28.5 47q0 26 -23 41t-57 15q-44 0 -84 -20l-108 60l96 156h148l-60 -96q20 4 52 4z" />
    <glyph glyph-name="uni0328" unicode="&#x328;" horiz-adv-x="0" 
d="M-740 36l112 -36q-236 -70 -236 -180q0 -36 22.5 -56t61.5 -20q56 0 104 36l68 -124q-87 -56 -188 -56t-162.5 56t-61.5 144t78 157.5t202 78.5z" />
    <glyph glyph-name="dieresistonos" unicode="&#x385;" 
d="M552 1376l116 280h260l-228 -280h-148zM308 1376v224h224v-224h-224zM908 1376v224h224v-224h-224z" />
    <glyph glyph-name="uni0401" unicode="&#x401;" horiz-adv-x="1360" 
d="M660 1920v-224h-224v224h224zM1044 1920v-224h-224v224h224zM448 188h832v-188h-1040v1520h1020v-188h-812v-460h632v-184h-632v-500z" />
    <glyph glyph-name="uni0404" unicode="&#x404;" horiz-adv-x="1540" 
d="M832 164q165 0 276.5 85t159.5 247l192 -68q-66 -209 -232.5 -328.5t-395.5 -119.5q-324 0 -518 213t-194 567q0 227 90 405t252 276.5t370 98.5q232 0 395.5 -116.5t232.5 -331.5l-192 -68q-48 162 -159.5 247t-276.5 85q-201 0 -337 -131t-163 -353h648v-184h-652
q18 -243 153 -383.5t351 -140.5z" />
    <glyph glyph-name="uni0406" unicode="&#x406;" horiz-adv-x="688" 
d="M240 0v1520h208v-1520h-208z" />
    <glyph glyph-name="uni0407" unicode="&#x407;" horiz-adv-x="688" 
d="M40 1696v224h224v-224h-224zM424 1696v224h224v-224h-224zM240 0v1520h208v-1520h-208z" />
    <glyph glyph-name="uni040E" unicode="&#x40e;" horiz-adv-x="1536" 
d="M764 1632q-148 0 -238.5 72.5t-105.5 203.5l160 32q6 -81 54.5 -124.5t129.5 -43.5t129.5 43.5t54.5 124.5l160 -32q-15 -131 -105.5 -203.5t-238.5 -72.5zM1252 1520h224l-524 -1252q-117 -288 -356 -288q-140 0 -225 88t-91 236l184 44q6 -95 38.5 -141.5t97.5 -46.5
q108 0 148 100l-696 1260h240l548 -1048z" />
    <glyph glyph-name="uni0410" unicode="&#x410;" horiz-adv-x="1560" 
d="M1308 0l-152 380h-756l-152 -380h-216l624 1520h248l624 -1520h-220zM472 564h608l-304 760z" />
    <glyph glyph-name="uni0411" unicode="&#x411;" horiz-adv-x="1500" 
d="M876 920q240 0 382 -125t142 -335t-142 -335t-382 -125h-636v1520h1040v-188h-832v-412h428zM848 184q340 0 340 276t-340 276h-400v-552h400z" />
    <glyph glyph-name="uni0412" unicode="&#x412;" horiz-adv-x="1520" 
d="M1180 780q106 -51 163 -145t57 -219q0 -189 -128 -302.5t-344 -113.5h-688v1520h668q210 0 335 -110.5t125 -293.5q0 -229 -188 -336zM876 1336h-436v-464h436q288 0 288 232t-288 232zM880 184q312 0 312 252t-312 252h-440v-504h440z" />
    <glyph glyph-name="uni0413" unicode="&#x413;" horiz-adv-x="1280" 
d="M1240 1520v-192h-792v-1328h-208v1520h1000z" />
    <glyph glyph-name="uni0414" unicode="&#x414;" horiz-adv-x="1688" 
d="M1608 192v-512h-200v320h-1136v-320h-200v512h152q56 174 56 652v676h1152v-1328h176zM428 192h796v1136h-736v-484q0 -392 -60 -652z" />
    <glyph glyph-name="uni0415" unicode="&#x415;" horiz-adv-x="1360" 
d="M448 188h832v-188h-1040v1520h1020v-188h-812v-460h632v-184h-632v-500z" />
    <glyph glyph-name="uni0416" unicode="&#x416;" horiz-adv-x="2264" 
d="M1972 0l-512 760l-224 -224v-536h-208v536l-224 224l-512 -760h-252l616 908l-608 612h260l720 -736v736h208v-736l720 736h260l-608 -612l616 -908h-252z" />
    <glyph glyph-name="uni0417" unicode="&#x417;" horiz-adv-x="1376" 
d="M1020 784q123 -46 189.5 -136t66.5 -220q0 -204 -160.5 -326t-427.5 -122q-224 0 -384.5 100t-231.5 272l180 96q51 -133 166.5 -208.5t273.5 -75.5q172 0 274 75.5t102 204.5q0 112 -90.5 178t-245.5 66h-200v184h204q121 0 198.5 59.5t77.5 164.5q0 121 -85 190.5
t-239 69.5q-151 0 -253 -72t-155 -200l-192 68q66 178 229 283t375 105q243 0 387.5 -116.5t144.5 -311.5q0 -110 -53.5 -194.5t-150.5 -133.5z" />
    <glyph glyph-name="uni0418" unicode="&#x418;" horiz-adv-x="1720" 
d="M1272 1520h208v-1520h-208v1208l-828 -1208h-204v1520h208v-1200z" />
    <glyph glyph-name="uni0419" unicode="&#x419;" horiz-adv-x="1720" 
d="M860 1632q-148 0 -238.5 72.5t-105.5 203.5l160 32q6 -81 54.5 -124.5t129.5 -43.5t129.5 43.5t54.5 124.5l160 -32q-15 -131 -105.5 -203.5t-238.5 -72.5zM1272 1520h208v-1520h-208v1208l-828 -1208h-204v1520h208v-1200z" />
    <glyph glyph-name="uni041A" unicode="&#x41a;" horiz-adv-x="1552" 
d="M1256 0l-572 752l-236 -232v-520h-208v1520h208v-760l760 760h260l-636 -624l680 -896h-256z" />
    <glyph glyph-name="uni041B" unicode="&#x41b;" horiz-adv-x="1720" 
d="M1480 1520v-1520h-208v1328h-704v-484q0 -170 -5 -286t-18 -217t-35.5 -162t-60 -104.5t-88 -61t-121.5 -17.5q-88 0 -128 4v200h64q29 0 46 2t37 8t31 19.5t23.5 35t18.5 56.5t13 81t9.5 112.5t4 146.5t1.5 187v672h1120z" />
    <glyph glyph-name="uni041C" unicode="&#x41c;" horiz-adv-x="2120" 
d="M1880 1520v-1520h-200v1300l-500 -1300h-240l-500 1300v-1300h-200v1520h332l492 -1288l488 1288h328z" />
    <glyph glyph-name="uni041D" unicode="&#x41d;" horiz-adv-x="1720" 
d="M1272 1520h208v-1520h-208v684h-824v-684h-208v1520h208v-644h824v644z" />
    <glyph glyph-name="uni041E" unicode="&#x41e;" horiz-adv-x="1680" 
d="M840 -20q-327 0 -523.5 213t-196.5 567q0 227 91 405t255 276.5t374 98.5q327 0 523.5 -213t196.5 -567q0 -227 -91 -405t-255 -276.5t-374 -98.5zM840 164q231 0 369.5 163t138.5 433t-138.5 433t-369.5 163t-369.5 -163t-138.5 -433t138.5 -433t369.5 -163z" />
    <glyph glyph-name="uni041F" unicode="&#x41f;" horiz-adv-x="1720" 
d="M1480 1520v-1520h-208v1328h-824v-1328h-208v1520h1240z" />
    <glyph glyph-name="uni0420" unicode="&#x420;" horiz-adv-x="1472" 
d="M868 1520q240 0 382 -125t142 -335t-142 -335t-382 -125h-420v-600h-208v1520h628zM844 788q336 0 336 272t-336 272h-396v-544h396z" />
    <glyph glyph-name="uni0421" unicode="&#x421;" horiz-adv-x="1540" 
d="M832 -20q-324 0 -518 213t-194 567q0 227 90 405t252 276.5t370 98.5q232 0 395.5 -116.5t232.5 -331.5l-192 -68q-48 162 -159.5 247t-276.5 85q-223 0 -361.5 -163.5t-138.5 -432.5q0 -275 135.5 -435.5t364.5 -160.5q165 0 276.5 85t159.5 247l192 -68
q-66 -209 -232.5 -328.5t-395.5 -119.5z" />
    <glyph glyph-name="uni0422" unicode="&#x422;" horiz-adv-x="1400" 
d="M1360 1520v-192h-556v-1328h-208v1328h-556v192h1320z" />
    <glyph glyph-name="uni0423" unicode="&#x423;" horiz-adv-x="1536" 
d="M1252 1520h224l-524 -1252q-117 -288 -356 -288q-140 0 -225 88t-91 236l184 44q6 -95 38.5 -141.5t97.5 -46.5q108 0 148 100l-696 1260h240l548 -1048z" />
    <glyph glyph-name="uni0424" unicode="&#x424;" horiz-adv-x="1928" 
d="M1164 1380q316 0 490 -161.5t174 -438.5q0 -132 -45 -242.5t-129 -189.5t-209.5 -123.5t-280.5 -44.5h-96v-204h-208v204h-96q-316 0 -490 161.5t-174 438.5q0 132 45 242.5t129 189.5t209.5 123.5t280.5 44.5h96v164h208v-164h96zM768 360h92v840h-92
q-217 0 -336.5 -110t-119.5 -310q0 -209 115 -314.5t341 -105.5zM1160 360q217 0 336.5 110t119.5 310q0 209 -115 314.5t-341 105.5h-92v-840h92z" />
    <glyph glyph-name="uni0425" unicode="&#x425;" horiz-adv-x="1488" 
d="M1448 0h-248l-456 632l-460 -632h-244l580 780l-540 740h248l420 -588l420 588h240l-536 -732z" />
    <glyph glyph-name="uni0426" unicode="&#x426;" horiz-adv-x="1696" 
d="M1616 192v-512h-200v320h-1176v1520h208v-1328h784v1328h208v-1328h176z" />
    <glyph glyph-name="uni0427" unicode="&#x427;" horiz-adv-x="1584" 
d="M1136 1520h208v-1520h-208v612h-452q-254 0 -389 119t-135 349v440h208v-440q0 -140 81 -208t247 -68h440v716z" />
    <glyph glyph-name="uni0428" unicode="&#x428;" horiz-adv-x="2384" 
d="M1936 1520h208v-1520h-1904v1520h208v-1328h640v1328h208v-1328h640v1328z" />
    <glyph glyph-name="uni0429" unicode="&#x429;" horiz-adv-x="2400" 
d="M2320 192v-512h-200v320h-1880v1520h208v-1328h640v1328h208v-1328h640v1328h208v-1328h176z" />
    <glyph glyph-name="uni042A" unicode="&#x42a;" horiz-adv-x="1700" 
d="M1076 920q240 0 382 -125t142 -335t-142 -335t-382 -125h-636v1328h-400v192h608v-600h428zM1052 188q336 0 336 272t-336 272h-404v-544h404z" />
    <glyph glyph-name="uni042B" unicode="&#x42b;" horiz-adv-x="2108" 
d="M876 920q240 0 382 -125t142 -335t-142 -335t-382 -125h-636v1520h208v-600h428zM1660 1520h208v-1520h-208v1520zM852 188q336 0 336 272t-336 272h-404v-544h404z" />
    <glyph glyph-name="uni042C" unicode="&#x42c;" horiz-adv-x="1500" 
d="M876 920q240 0 382 -125t142 -335t-142 -335t-382 -125h-636v1520h208v-600h428zM852 188q336 0 336 272t-336 272h-404v-544h404z" />
    <glyph glyph-name="uni042D" unicode="&#x42d;" horiz-adv-x="1520" 
d="M688 1540q324 0 518 -213t194 -567q0 -227 -90 -405t-252 -276.5t-370 -98.5q-229 0 -395.5 119.5t-232.5 328.5l192 68q48 -162 159.5 -247t276.5 -85q211 0 348.5 142.5t155.5 381.5h-652v184h648q-27 225 -160 354.5t-340 129.5q-165 0 -276.5 -85t-159.5 -247
l-192 68q68 213 236.5 330.5t391.5 117.5z" />
    <glyph glyph-name="uni042E" unicode="&#x42e;" horiz-adv-x="2280" 
d="M1460 1540q318 0 509 -213t191 -567q0 -227 -88.5 -405t-248 -276.5t-363.5 -98.5q-299 0 -487 191t-209 513h-316v-684h-208v1520h208v-644h320q33 298 222 481t470 183zM1460 164q222 0 355 163t133 433t-133 433t-355 163t-355 -163t-133 -433t133 -433t355 -163z" />
    <glyph glyph-name="uni042F" unicode="&#x42f;" horiz-adv-x="1540" 
d="M1300 1520v-1520h-208v608h-400l-372 -608h-240l396 640q-145 48 -226.5 158.5t-81.5 265.5q0 207 141.5 331.5t378.5 124.5h612zM716 788h376v544h-376q-336 0 -336 -272t336 -272z" />
    <glyph glyph-name="uni0430" unicode="&#x430;" horiz-adv-x="1268" 
d="M1144 176h44v-176q-16 -8 -68 -8q-111 0 -161 44t-59 152q-67 -95 -181 -151.5t-247 -56.5q-174 0 -283 98.5t-109 257.5q0 60 17 110.5t43.5 87t68.5 66.5t84 49.5t98 35.5t101.5 25t103.5 18q172 27 226 50.5t54 93.5q0 80 -73.5 128t-194.5 48q-105 0 -203 -43
t-173 -121l-124 128q208 208 508 208q208 0 328 -104.5t120 -287.5v-572q0 -42 19 -61t61 -19zM496 148q150 0 263 90.5t113 213.5v184q-30 -22 -82 -34.5t-166 -29.5q-39 -6 -57 -9.5t-53.5 -11t-54 -13t-47.5 -16.5t-44.5 -22t-35 -27.5t-29 -35.5t-16.5 -43.5t-7 -53.5
q0 -92 56.5 -142t159.5 -50z" />
    <glyph glyph-name="uni0431" unicode="&#x431;" horiz-adv-x="1372" 
d="M1268 536q3 -243 -156 -399.5t-408 -156.5q-263 0 -419.5 185t-156.5 495q0 357 126.5 544t405.5 244l284 60q34 6 52 26t24 58l4 28l192 -36l-4 -36q-12 -175 -208 -224l-344 -68q-304 -61 -340 -360q66 93 179 142.5t257 49.5q219 0 364 -156t148 -396zM704 156
q162 0 261 102.5t99 273.5q0 176 -98.5 280t-261.5 104q-168 0 -268 -100.5t-100 -271.5t103 -279.5t265 -108.5z" />
    <glyph glyph-name="uni0432" unicode="&#x432;" horiz-adv-x="1292" 
d="M972 616q200 -75 200 -292q0 -157 -106.5 -240.5t-297.5 -83.5h-568v1200h524q196 0 306 -77.5t110 -234.5q0 -194 -168 -272zM396 1032v-336h328q114 0 163 39.5t49 132.5q0 80 -51 122t-145 42h-344zM752 168q102 0 159 48t57 132q0 87 -62.5 137.5t-173.5 50.5h-336
v-368h356z" />
    <glyph glyph-name="uni0433" unicode="&#x433;" horiz-adv-x="1080" 
d="M1040 1200v-184h-640v-1016h-200v1200h840z" />
    <glyph glyph-name="uni0434" unicode="&#x434;" 
d="M1204 176h156v-456h-188v280h-912v-280h-188v456h132q44 132 44 524v500h956v-1024zM400 176h604v848h-560v-336q0 -317 -44 -512z" />
    <glyph glyph-name="uni0435" unicode="&#x435;" horiz-adv-x="1364" 
d="M312 536q18 -175 124 -277.5t276 -102.5q258 0 372 164l144 -124q-73 -96 -201 -156t-311 -60q-189 0 -328.5 81t-209.5 220.5t-70 318.5q0 275 164.5 447.5t423.5 172.5q258 0 413 -169t155 -451q0 -44 -4 -64h-948zM696 1048q-155 0 -255.5 -94.5t-124.5 -257.5h740
q-21 163 -117.5 257.5t-242.5 94.5z" />
    <glyph glyph-name="uni0436" unicode="&#x436;" horiz-adv-x="1888" 
d="M1620 0l-404 584l-172 -168v-416h-200v416l-172 172l-404 -588h-248l512 724l-488 476h256l544 -548v548h200v-548l544 548h256l-488 -476l512 -724h-248z" />
    <glyph glyph-name="uni0437" unicode="&#x437;" horiz-adv-x="1120" 
d="M836 620q102 -30 157 -103t55 -181q0 -159 -135.5 -257.5t-356.5 -98.5q-188 0 -321 87t-187 241l184 68q44 -110 129.5 -167t198.5 -57q129 0 204.5 50.5t75.5 137.5t-68.5 135.5t-191.5 48.5h-148v176h140q107 0 163.5 45t56.5 127q0 87 -59.5 133.5t-168.5 46.5
q-105 0 -178.5 -52.5t-109.5 -151.5l-188 72q55 139 181.5 219.5t298.5 80.5q189 0 305 -94t119 -250q0 -178 -156 -256z" />
    <glyph glyph-name="uni0438" unicode="&#x438;" 
d="M1028 1200h212v-1200h-196v932l-632 -932h-212v1200h196v-932z" />
    <glyph glyph-name="uni0439" unicode="&#x439;" 
d="M720 1312q-148 0 -238.5 72.5t-105.5 203.5l160 32q6 -81 54.5 -124.5t129.5 -43.5t129.5 43.5t54.5 124.5l160 -32q-15 -131 -105.5 -203.5t-238.5 -72.5zM1028 1200h212v-1200h-196v932l-632 -932h-212v1200h196v-932z" />
    <glyph glyph-name="uni043A" unicode="&#x43a;" horiz-adv-x="1264" 
d="M1016 0l-436 580l-180 -168v-412h-200v1200h200v-556l584 556h256l-516 -484l540 -716h-248z" />
    <glyph glyph-name="uni043B" unicode="&#x43b;" horiz-adv-x="1408" 
d="M1208 1200v-1200h-200v1024h-544v-472q0 -219 -32 -341.5t-96 -170.5t-176 -48q-60 0 -100 8v184h56q33 0 52 3t38.5 16t29 37.5t18 69t11.5 108.5t3 158v624h940z" />
    <glyph glyph-name="uni043C" unicode="&#x43c;" horiz-adv-x="1760" 
d="M1560 1200v-1200h-196v1004l-372 -1004h-224l-372 1004v-1004h-196v1200h320l364 -984l360 984h316z" />
    <glyph glyph-name="uni043D" unicode="&#x43d;" 
d="M1040 1200h200v-1200h-200v520h-640v-520h-200v1200h200v-496h640v496z" />
    <glyph glyph-name="uni043E" unicode="&#x43e;" horiz-adv-x="1416" 
d="M708 -20q-273 0 -436.5 169t-163.5 451q0 275 167.5 447.5t432.5 172.5q273 0 436.5 -169t163.5 -451q0 -275 -167.5 -447.5t-432.5 -172.5zM708 156q180 0 288 121.5t108 322.5t-108 322.5t-288 121.5t-288 -121.5t-108 -322.5t108 -322.5t288 -121.5z" />
    <glyph glyph-name="uni043F" unicode="&#x43f;" 
d="M1240 1200v-1200h-200v1024h-640v-1024h-200v1200h1040z" />
    <glyph glyph-name="uni0440" unicode="&#x440;" horiz-adv-x="1448" 
d="M808 1220q240 0 386 -169.5t146 -450.5q0 -274 -150 -447t-382 -173q-129 0 -234 49.5t-174 142.5v-572h-200v1600h168l16 -200q72 105 182 162.5t242 57.5zM760 156q171 0 273.5 121.5t102.5 322.5t-102.5 322.5t-273.5 121.5t-273.5 -121.5t-102.5 -322.5t102.5 -322.5
t273.5 -121.5z" />
    <glyph glyph-name="uni0441" unicode="&#x441;" horiz-adv-x="1304" 
d="M700 -20q-262 0 -427 172.5t-165 447.5t165 447.5t427 172.5q192 0 334.5 -95.5t189.5 -264.5l-188 -60q-42 115 -129.5 179.5t-206.5 64.5q-179 0 -283.5 -121t-104.5 -323t104.5 -323t283.5 -121q119 0 208.5 64.5t131.5 179.5l184 -60q-50 -169 -192.5 -264.5
t-331.5 -95.5z" />
    <glyph glyph-name="uni0442" unicode="&#x442;" horiz-adv-x="1160" 
d="M1120 1200v-176h-440v-1024h-200v1024h-440v176h1080z" />
    <glyph glyph-name="uni0443" unicode="&#x443;" horiz-adv-x="1284" 
d="M1052 1200h208l-460 -1264q-27 -74 -62 -135.5t-81 -112.5t-107 -79.5t-130 -28.5q-155 0 -237 95t-79 241l180 32q-8 -184 136 -184q55 0 97 36.5t79 111.5l-564 1288h220l440 -1052z" />
    <glyph glyph-name="uni0444" unicode="&#x444;" horiz-adv-x="2056" 
d="M1476 1212q214 0 343 -167t129 -445q0 -271 -133 -441.5t-339 -170.5q-229 0 -348 172v-560h-200v568q-130 -180 -348 -180q-214 0 -343 167t-129 445q0 271 133 441.5t339 170.5q228 0 348 -168v556h200v-568q126 180 348 180zM628 156q141 0 226.5 121.5t85.5 322.5
t-85.5 322.5t-226.5 121.5q-144 0 -230 -121.5t-86 -322.5t86 -322.5t230 -121.5zM1432 156q141 0 226.5 121.5t85.5 322.5t-85.5 322.5t-226.5 121.5q-144 0 -230 -121.5t-86 -322.5t86 -322.5t230 -121.5z" />
    <glyph glyph-name="uni0445" unicode="&#x445;" horiz-adv-x="1304" 
d="M1244 0h-244l-348 476l-356 -476h-236l468 612l-440 588h244l328 -444l332 444h232l-440 -584z" />
    <glyph glyph-name="uni0446" unicode="&#x446;" horiz-adv-x="1456" 
d="M1220 176h156v-456h-188v280h-988v1200h200v-1024h620v1024h200v-1024z" />
    <glyph glyph-name="uni0447" unicode="&#x447;" horiz-adv-x="1312" 
d="M912 1200h200v-1200h-200v468h-328q-223 0 -343.5 106t-120.5 294v332h200v-332q0 -112 62 -164t202 -52h328v548z" />
    <glyph glyph-name="uni0448" unicode="&#x448;" horiz-adv-x="2000" 
d="M1600 1200h200v-1200h-1600v1200h200v-1024h500v1024h200v-1024h500v1024z" />
    <glyph glyph-name="uni0449" unicode="&#x449;" horiz-adv-x="2036" 
d="M1800 176h156v-456h-188v280h-1568v1200h200v-1024h500v1024h200v-1024h500v1024h200v-1024z" />
    <glyph glyph-name="uni044A" unicode="&#x44a;" horiz-adv-x="1432" 
d="M936 728q189 0 302.5 -99.5t113.5 -264.5t-113.5 -264.5t-302.5 -99.5h-556v1016h-340v184h540v-472h356zM924 176q108 0 166 49t58 139t-58 139t-166 49h-344v-376h344z" />
    <glyph glyph-name="uni044B" unicode="&#x44b;" horiz-adv-x="1780" 
d="M756 728q189 0 302.5 -99.5t113.5 -264.5t-113.5 -264.5t-302.5 -99.5h-556v1200h200v-472h356zM1380 1200h200v-1200h-200v1200zM744 176q108 0 166 49t58 139t-58 139t-166 49h-344v-376h344z" />
    <glyph glyph-name="uni044C" unicode="&#x44c;" horiz-adv-x="1252" 
d="M756 728q189 0 302.5 -99.5t113.5 -264.5t-113.5 -264.5t-302.5 -99.5h-556v1200h200v-472h356zM744 176q108 0 166 49t58 139t-58 139t-166 49h-344v-376h344z" />
    <glyph glyph-name="uni044D" unicode="&#x44d;" horiz-adv-x="1308" 
d="M608 1220q262 0 427 -172.5t165 -447.5t-165 -447.5t-427 -172.5q-191 0 -334.5 95t-193.5 261l184 60q42 -112 133.5 -176t210.5 -64q164 0 267 99t121 269h-548v176h544q-24 160 -125 252t-259 92q-122 0 -214 -64t-134 -176l-180 56q56 168 200.5 264t327.5 96z" />
    <glyph glyph-name="uni044E" unicode="&#x44e;" horiz-adv-x="1928" 
d="M1240 1220q264 0 422 -169t158 -451q0 -275 -162 -447.5t-418 -172.5q-246 0 -400.5 145.5t-175.5 394.5h-264v-520h-200v1200h200v-496h268q30 234 185.5 375t386.5 141zM1240 156q171 0 273.5 121.5t102.5 322.5t-102.5 322.5t-273.5 121.5t-273.5 -121.5
t-102.5 -322.5t102.5 -322.5t273.5 -121.5z" />
    <glyph glyph-name="uni044F" unicode="&#x44f;" horiz-adv-x="1276" 
d="M1076 1200v-1200h-200v472h-292l-308 -472h-228l328 500q-114 36 -179 121.5t-65 202.5q0 169 116.5 272.5t307.5 103.5h520zM572 628h304v400h-304q-113 0 -176.5 -52.5t-63.5 -143.5q0 -96 63 -150t177 -54z" />
    <glyph glyph-name="uni0451" unicode="&#x451;" horiz-adv-x="1364" 
d="M604 1600v-224h-224v224h224zM988 1600v-224h-224v224h224zM312 536q18 -175 124 -277.5t276 -102.5q258 0 372 164l144 -124q-73 -96 -201 -156t-311 -60q-189 0 -328.5 81t-209.5 220.5t-70 318.5q0 275 164.5 447.5t423.5 172.5q258 0 413 -169t155 -451q0 -44 -4 -64
h-948zM696 1048q-155 0 -255.5 -94.5t-124.5 -257.5h740q-21 163 -117.5 257.5t-242.5 94.5z" />
    <glyph glyph-name="uni0454" unicode="&#x454;" horiz-adv-x="1308" 
d="M700 156q119 0 210.5 64t133.5 176l184 -60q-50 -166 -193.5 -261t-334.5 -95q-262 0 -427 172.5t-165 447.5t165 447.5t427 172.5q194 0 335.5 -94.5t192.5 -261.5l-188 -60q-42 112 -131.5 176t-208.5 64q-158 0 -259 -92t-125 -252h544v-176h-548q18 -170 121 -269
t267 -99z" />
    <glyph glyph-name="uni0456" unicode="&#x456;" horiz-adv-x="640" 
d="M208 1376v224h224v-224h-224zM220 0v1200h200v-1200h-200z" />
    <glyph glyph-name="uni0457" unicode="&#x457;" horiz-adv-x="640" 
d="M16 1376v224h224v-224h-224zM400 1376v224h224v-224h-224zM220 0v1200h200v-1200h-200z" />
    <glyph glyph-name="uni045E" unicode="&#x45e;" horiz-adv-x="1284" 
d="M648 1312q-148 0 -238.5 72.5t-105.5 203.5l160 32q6 -81 54.5 -124.5t129.5 -43.5t129.5 43.5t54.5 124.5l160 -32q-15 -131 -105.5 -203.5t-238.5 -72.5zM1052 1200h208l-460 -1264q-27 -74 -62 -135.5t-81 -112.5t-107 -79.5t-130 -28.5q-155 0 -237 95t-79 241
l180 32q-8 -184 136 -184q55 0 97 36.5t79 111.5l-564 1288h220l440 -1052z" />
    <glyph glyph-name="uni0490" unicode="&#x490;" horiz-adv-x="1280" 
d="M1040 1840h200v-512h-792v-1328h-208v1520h800v320z" />
    <glyph glyph-name="uni0491" unicode="&#x491;" horiz-adv-x="1080" 
d="M852 1520h188v-504h-640v-1016h-200v1200h652v320z" />
    <glyph glyph-name="Wgrave" unicode="&#x1e80;" horiz-adv-x="2216" 
d="M1168 1640h-148l-228 280h260zM1932 1520h204l-440 -1520h-220l-372 1264l-368 -1264h-216l-440 1520h212l352 -1212l348 1212h232l352 -1220z" />
    <glyph glyph-name="wgrave" unicode="&#x1e81;" horiz-adv-x="1872" 
d="M996 1320h-148l-228 280h260zM1616 1200h196l-376 -1200h-216l-284 940l-284 -940h-216l-376 1200h204l284 -956l288 956h204l292 -960z" />
    <glyph glyph-name="Wacute" unicode="&#x1e82;" horiz-adv-x="2216" 
d="M1424 1920l-228 -280h-148l116 280h260zM1932 1520h204l-440 -1520h-220l-372 1264l-368 -1264h-216l-440 1520h212l352 -1212l348 1212h232l352 -1220z" />
    <glyph glyph-name="wacute" unicode="&#x1e83;" horiz-adv-x="1872" 
d="M1252 1600l-228 -280h-148l116 280h260zM1616 1200h196l-376 -1200h-216l-284 940l-284 -940h-216l-376 1200h204l284 -956l288 956h204l292 -960z" />
    <glyph glyph-name="Wdieresis" unicode="&#x1e84;" horiz-adv-x="2216" 
d="M1028 1920v-224h-224v224h224zM1412 1920v-224h-224v224h224zM1932 1520h204l-440 -1520h-220l-372 1264l-368 -1264h-216l-440 1520h212l352 -1212l348 1212h232l352 -1220z" />
    <glyph glyph-name="wdieresis" unicode="&#x1e85;" horiz-adv-x="1872" 
d="M856 1600v-224h-224v224h224zM1240 1600v-224h-224v224h224zM1616 1200h196l-376 -1200h-216l-284 940l-284 -940h-216l-376 1200h204l284 -956l288 956h204l292 -960z" />
    <glyph glyph-name="uni1E9E" unicode="&#x1e9e;" horiz-adv-x="1716" 
d="M1128 900q211 0 343.5 -124t132.5 -324q0 -132 -65 -239t-189 -170t-286 -63q-139 0 -253 50t-183 142l128 128q51 -69 130.5 -106.5t177.5 -37.5q149 0 240.5 78t91.5 214q0 129 -84 212.5t-228 83.5q-127 0 -220 -64l-108 136l480 516h-788v-1332h-208v1520h1260v-160
l-428 -464q20 4 56 4z" />
    <glyph glyph-name="Ygrave" unicode="&#x1ef2;" horiz-adv-x="1448" 
d="M784 1640h-148l-228 280h260zM1428 1520l-600 -908v-612h-208v612l-600 908h240l468 -716l464 716h236z" />
    <glyph glyph-name="ygrave" unicode="&#x1ef3;" horiz-adv-x="1284" 
d="M708 1320h-148l-228 280h260zM1052 1200h208l-460 -1264q-27 -74 -62 -135.5t-81 -112.5t-107 -79.5t-130 -28.5q-155 0 -237 95t-79 241l180 32q-8 -184 136 -184q55 0 97 36.5t79 111.5l-564 1288h220l440 -1052z" />
    <glyph glyph-name="endash" unicode="&#x2013;" horiz-adv-x="1280" 
d="M140 584v192h1000v-192h-1000z" />
    <glyph glyph-name="emdash" unicode="&#x2014;" horiz-adv-x="1760" 
d="M140 584v192h1480v-192h-1480z" />
    <glyph glyph-name="quoteleft" unicode="&#x2018;" horiz-adv-x="560" 
d="M400 1600v-136h-40q-53 0 -76.5 -29.5t-23.5 -90.5v-24h140v-280h-280v280q0 140 64 210t176 70h40z" />
    <glyph glyph-name="quoteright" unicode="&#x2019;" horiz-adv-x="560" 
d="M160 960v136h40q53 0 76.5 29.5t23.5 90.5v24h-140v280h280v-280q0 -140 -64 -210t-176 -70h-40z" />
    <glyph glyph-name="quotesinglbase" unicode="&#x201a;" horiz-adv-x="600" 
d="M160 -280v136h40q53 0 76.5 29.5t23.5 90.5v24h-140v280h280v-280q0 -140 -64 -210t-176 -70h-40z" />
    <glyph glyph-name="quotedblleft" unicode="&#x201c;" horiz-adv-x="1000" 
d="M400 1600v-136h-40q-53 0 -76.5 -29.5t-23.5 -90.5v-24h140v-280h-280v280q0 140 64 210t176 70h40zM840 1600v-136h-40q-53 0 -76.5 -29.5t-23.5 -90.5v-24h140v-280h-280v280q0 140 64 210t176 70h40z" />
    <glyph glyph-name="quotedblright" unicode="&#x201d;" horiz-adv-x="1000" 
d="M160 960v136h40q53 0 76.5 29.5t23.5 90.5v24h-140v280h280v-280q0 -140 -64 -210t-176 -70h-40zM600 960v136h40q53 0 76.5 29.5t23.5 90.5v24h-140v280h280v-280q0 -140 -64 -210t-176 -70h-40z" />
    <glyph glyph-name="quotedblbase" unicode="&#x201e;" horiz-adv-x="1040" 
d="M160 -280v136h40q53 0 76.5 29.5t23.5 90.5v24h-140v280h280v-280q0 -140 -64 -210t-176 -70h-40zM600 -280v136h40q53 0 76.5 29.5t23.5 90.5v24h-140v280h280v-280q0 -140 -64 -210t-176 -70h-40z" />
    <glyph glyph-name="dagger" unicode="&#x2020;" horiz-adv-x="928" 
d="M768 1392v-128h-232v-352h-144v352h-232v128h232v208h144v-208h232z" />
    <glyph glyph-name="daggerdbl" unicode="&#x2021;" horiz-adv-x="928" 
d="M768 1312h-232v-112h232v-128h-232v-160h-144v160h-232v128h232v112h-232v128h232v160h144v-160h232v-128z" />
    <glyph glyph-name="bullet" unicode="&#x2022;" 
d="M720 380q-129 0 -214.5 85.5t-85.5 214.5t85.5 214.5t214.5 85.5t214.5 -85.5t85.5 -214.5t-85.5 -214.5t-214.5 -85.5z" />
    <glyph glyph-name="ellipsis" unicode="&#x2026;" horiz-adv-x="1720" 
d="M160 0v280h280v-280h-280zM720 0v280h280v-280h-280zM1280 0v280h280v-280h-280z" />
    <glyph glyph-name="perthousand" unicode="&#x2030;" horiz-adv-x="3040" 
d="M520 620q-183 0 -291.5 125t-108.5 335t108.5 335t291.5 125t291.5 -125t108.5 -335t-108.5 -335t-291.5 -125zM500 0l964 1520h172l-964 -1520h-172zM520 768q105 0 168.5 85.5t63.5 226.5t-63.5 226.5t-168.5 85.5t-168.5 -85.5t-63.5 -226.5t63.5 -226.5t168.5 -85.5z
M1616 -20q-183 0 -291.5 125t-108.5 335t108.5 335t291.5 125t291.5 -125t108.5 -335t-108.5 -335t-291.5 -125zM2560 -20q-183 0 -291.5 125t-108.5 335t108.5 335t291.5 125t291.5 -125t108.5 -335t-108.5 -335t-291.5 -125zM1616 128q105 0 168.5 85.5t63.5 226.5
t-63.5 226.5t-168.5 85.5t-168.5 -85.5t-63.5 -226.5t63.5 -226.5t168.5 -85.5zM2560 128q105 0 168.5 85.5t63.5 226.5t-63.5 226.5t-168.5 85.5t-168.5 -85.5t-63.5 -226.5t63.5 -226.5t168.5 -85.5z" />
    <glyph glyph-name="prime" unicode="&#x2032;" horiz-adv-x="1200" 
d="M660 1320l116 280h260l-228 -280h-148z" />
    <glyph glyph-name="guilsinglleft" unicode="&#x2039;" horiz-adv-x="840" 
d="M640 1128v-224l-304 -220l304 -220v-232l-480 344v208z" />
    <glyph glyph-name="guilsinglright" unicode="&#x203a;" horiz-adv-x="840" 
d="M200 1128l480 -344v-208l-480 -344v224l304 220l-304 220v232z" />
    <glyph glyph-name="fraction" unicode="&#x2044;" horiz-adv-x="80" 
d="M-528 0l964 1520h172l-964 -1520h-172z" />
    <glyph glyph-name="uni2070" unicode="&#x2070;" horiz-adv-x="936" 
d="M468 932q-180 0 -288 126t-108 334t108 334t288 126t288 -126t108 -334t-108 -334t-288 -126zM468 1080q105 0 168.5 85.5t63.5 226.5t-63.5 228.5t-168.5 87.5q-102 0 -167 -87.5t-65 -228.5q0 -140 64.5 -226t167.5 -86z" />
    <glyph glyph-name="uni2074" unicode="&#x2074;" horiz-adv-x="936" 
d="M872 1296v-144h-156v-208h-156v208h-484v132l448 556h192v-544h156zM252 1296h308v388z" />
    <glyph glyph-name="uni2075" unicode="&#x2075;" horiz-adv-x="936" 
d="M484 1548q144 0 234 -81.5t90 -210.5q0 -141 -105 -232.5t-267 -91.5q-115 0 -204.5 46.5t-135.5 125.5l112 88q34 -53 95 -84.5t137 -31.5q91 0 149.5 48t58.5 128q0 76 -55.5 120t-144.5 44q-59 0 -108.5 -21.5t-75.5 -62.5l-120 40l44 468h556v-144h-428l-20 -196
q78 48 188 48z" />
    <glyph glyph-name="uni2076" unicode="&#x2076;" horiz-adv-x="936" 
d="M524 1528q150 0 243 -81.5t93 -210.5q0 -134 -101.5 -219t-258.5 -85q-95 0 -170 36.5t-122 100t-71.5 145t-24.5 174.5q0 95 26 177.5t76 147t130 102t180 37.5q95 0 174.5 -30.5t129.5 -89.5l-116 -112q-33 39 -84.5 61.5t-111.5 22.5q-118 0 -185.5 -84.5
t-70.5 -211.5q88 120 264 120zM500 1072q86 0 143 43.5t57 116.5q0 70 -55 117t-141 47t-145 -45.5t-59 -118.5q0 -70 55.5 -115t144.5 -45z" />
    <glyph glyph-name="uni2077" unicode="&#x2077;" horiz-adv-x="816" 
d="M24 1840h760v-120q-169 -133 -266.5 -338.5t-97.5 -437.5h-172q0 204 91.5 404t236.5 336h-552v156z" />
    <glyph glyph-name="uni2078" unicode="&#x2078;" horiz-adv-x="936" 
d="M660 1404q81 -30 126.5 -87.5t45.5 -132.5q0 -115 -98.5 -183.5t-265.5 -68.5t-265.5 68.5t-98.5 183.5q0 75 45.5 132.5t126.5 87.5q-69 27 -106.5 79t-37.5 121q0 111 92 179.5t244 68.5t244 -68.5t92 -179.5q0 -69 -37.5 -121t-106.5 -79zM468 1728q-85 0 -134.5 -37
t-49.5 -103q0 -55 50.5 -89.5t133.5 -34.5t133.5 34.5t50.5 89.5q0 66 -49.5 103t-134.5 37zM468 1060q93 0 150.5 36t57.5 96q0 62 -56.5 97t-151.5 35t-151.5 -35t-56.5 -97q0 -60 57.5 -96t150.5 -36z" />
    <glyph glyph-name="uni2079" unicode="&#x2079;" horiz-adv-x="936" 
d="M436 1852q95 0 170 -36.5t122 -100t71.5 -145t24.5 -174.5q0 -95 -26 -177.5t-76 -147t-130 -102t-180 -37.5q-95 0 -174.5 30.5t-129.5 89.5l116 112q33 -39 84.5 -61.5t111.5 -22.5q118 0 185.5 84.5t70.5 211.5q-88 -120 -264 -120q-150 0 -243 81.5t-93 210.5
q0 134 101.5 219t258.5 85zM432 1388q86 0 145 45.5t59 118.5q0 70 -55.5 115t-144.5 45q-86 0 -143 -43.5t-57 -116.5q0 -70 55 -117t141 -47z" />
    <glyph glyph-name="uni2080" unicode="&#x2080;" horiz-adv-x="936" 
d="M468 -332q-180 0 -288 126t-108 334t108 334t288 126t288 -126t108 -334t-108 -334t-288 -126zM468 -184q105 0 168.5 85.5t63.5 226.5t-63.5 228.5t-168.5 87.5q-102 0 -167 -87.5t-65 -228.5q0 -140 64.5 -226t167.5 -86z" />
    <glyph glyph-name="uni2081" unicode="&#x2081;" horiz-adv-x="760" 
d="M524 576v-896h-164v608h-244v136h56q128 0 175.5 32t56.5 120h120z" />
    <glyph glyph-name="uni2082" unicode="&#x2082;" horiz-adv-x="936" 
d="M384 -168h448v-152h-716v112l340 264q90 72 135 133.5t45 122.5q0 60 -45 96t-123 36q-87 0 -138.5 -48t-57.5 -132l-156 24q12 139 108.5 219.5t251.5 80.5q147 0 237.5 -71.5t90.5 -188.5q0 -90 -63 -176.5t-213 -203.5z" />
    <glyph glyph-name="uni2083" unicode="&#x2083;" horiz-adv-x="936" 
d="M532 232q126 -3 203 -74.5t77 -185.5q0 -128 -104.5 -216t-255.5 -88q-125 0 -224 54.5t-144 145.5l124 84q33 -68 96 -104t148 -36q90 0 145 43.5t55 112.5q0 70 -49.5 111t-126.5 41q-56 0 -104 -24l-76 84l264 248h-432v148h656v-116z" />
    <glyph glyph-name="uni2084" unicode="&#x2084;" horiz-adv-x="936" 
d="M872 32v-144h-156v-208h-156v208h-484v132l448 556h192v-544h156zM252 32h308v388z" />
    <glyph glyph-name="uni2085" unicode="&#x2085;" horiz-adv-x="936" 
d="M484 284q144 0 234 -81.5t90 -210.5q0 -141 -105 -232.5t-267 -91.5q-115 0 -204.5 46.5t-135.5 125.5l112 88q34 -53 95 -84.5t137 -31.5q91 0 149.5 48t58.5 128q0 76 -55.5 120t-144.5 44q-59 0 -108.5 -21.5t-75.5 -62.5l-120 40l44 468h556v-144h-428l-20 -196
q78 48 188 48z" />
    <glyph glyph-name="uni2086" unicode="&#x2086;" horiz-adv-x="936" 
d="M524 264q150 0 243 -81.5t93 -210.5q0 -134 -101.5 -219t-258.5 -85q-95 0 -170 36.5t-122 100t-71.5 145t-24.5 174.5q0 95 26 177.5t76 147t130 102t180 37.5q95 0 174.5 -30.5t129.5 -89.5l-116 -112q-33 39 -84.5 61.5t-111.5 22.5q-118 0 -185.5 -84.5t-70.5 -211.5
q88 120 264 120zM500 -192q86 0 143 43.5t57 116.5q0 70 -55 117t-141 47t-145 -45.5t-59 -118.5q0 -70 55.5 -115t144.5 -45z" />
    <glyph glyph-name="uni2087" unicode="&#x2087;" horiz-adv-x="816" 
d="M24 576h760v-120q-169 -133 -266.5 -338.5t-97.5 -437.5h-172q0 204 91.5 404t236.5 336h-552v156z" />
    <glyph glyph-name="uni2088" unicode="&#x2088;" horiz-adv-x="936" 
d="M660 140q81 -30 126.5 -87.5t45.5 -132.5q0 -115 -98.5 -183.5t-265.5 -68.5t-265.5 68.5t-98.5 183.5q0 75 45.5 132.5t126.5 87.5q-69 27 -106.5 79t-37.5 121q0 111 92 179.5t244 68.5t244 -68.5t92 -179.5q0 -69 -37.5 -121t-106.5 -79zM468 464q-85 0 -134.5 -37.5
t-49.5 -102.5q0 -55 50.5 -89.5t133.5 -34.5t133.5 34.5t50.5 89.5q0 65 -49.5 102.5t-134.5 37.5zM468 -204q93 0 150.5 36t57.5 96q0 62 -56.5 97t-151.5 35t-151.5 -35t-56.5 -97q0 -60 57.5 -96t150.5 -36z" />
    <glyph glyph-name="uni2089" unicode="&#x2089;" horiz-adv-x="936" 
d="M436 588q95 0 170 -36.5t122 -100t71.5 -145t24.5 -174.5q0 -95 -26 -177.5t-76 -147t-130 -102t-180 -37.5q-95 0 -174.5 30.5t-129.5 89.5l116 112q33 -39 84.5 -61.5t111.5 -22.5q118 0 185.5 84.5t70.5 211.5q-88 -120 -264 -120q-150 0 -243 81.5t-93 210.5
q0 134 101.5 219t258.5 85zM432 124q86 0 145 45.5t59 118.5q0 70 -55.5 115t-144.5 45q-86 0 -143 -43.5t-57 -116.5q0 -70 55 -117t141 -47z" />
    <glyph glyph-name="Euro" unicode="&#x20ac;" 
d="M764 160q113 0 198.5 67.5t137.5 192.5l184 -88q-73 -170 -206 -261t-314 -91q-224 0 -376.5 145.5t-203.5 402.5h-140v144h124q-4 28 -4 88t4 88h-124v144h140q51 257 203.5 402.5t376.5 145.5q181 0 314 -91t206 -261l-184 -88q-52 125 -137.5 192.5t-198.5 67.5
q-137 0 -235 -98t-137 -270h468v-144h-488q-4 -28 -4 -88t4 -88h488v-144h-468q39 -172 137 -270t235 -98z" />
    <glyph glyph-name="uni20BD" unicode="&#x20bd;" horiz-adv-x="1384" 
d="M740 600h-240v-176h564v-144h-564v-280h-200v280h-200v144h200v176h-200v144h200v776h440q240 0 382 -125t142 -335t-142 -335t-382 -125zM684 1352h-184v-608h184q186 0 281 77.5t95 230.5q0 147 -95 223.5t-281 76.5z" />
    <glyph glyph-name="uni2116" unicode="&#x2116;" horiz-adv-x="2492" 
d="M1284 332v1188h196v-1520h-204l-840 1196v-1196h-196v1520h208zM2060 872q-141 0 -232.5 91.5t-91.5 232.5t91.5 232.5t232.5 91.5q143 0 233.5 -91t90.5 -233t-90.5 -233t-233.5 -91zM2060 1396q-84 0 -136 -55t-52 -145t52 -145t136 -55q85 0 138.5 55.5t53.5 144.5
t-53.5 144.5t-138.5 55.5zM1772 572v144h576v-144h-576z" />
    <glyph glyph-name="trademark" unicode="&#x2122;" horiz-adv-x="1940" 
d="M756 1520v-148h-260v-612h-156v612h-260v148h676zM1740 1520v-760h-148v564l-208 -564h-164l-208 564v-564h-148v760h224l216 -564l212 564h224z" />
    <glyph glyph-name="oneeighth" unicode="&#x215b;" horiz-adv-x="1776" 
d="M360 624v608h-244v136h56q128 0 175.5 32t56.5 120h120v-896h-164zM1196 1520h172l-964 -1520h-172zM1500 460q81 -30 126.5 -87.5t45.5 -132.5q0 -115 -98.5 -183.5t-265.5 -68.5t-265.5 68.5t-98.5 183.5q0 75 45.5 132.5t126.5 87.5q-69 27 -106.5 79t-37.5 121
q0 111 92 179.5t244 68.5t244 -68.5t92 -179.5q0 -69 -37.5 -121t-106.5 -79zM1308 784q-85 0 -134.5 -37t-49.5 -103q0 -55 50.5 -89.5t133.5 -34.5t133.5 34.5t50.5 89.5q0 66 -49.5 103t-134.5 37zM1308 116q93 0 150.5 36t57.5 96q0 62 -56.5 97t-151.5 35t-151.5 -35
t-56.5 -97q0 -60 57.5 -96t150.5 -36z" />
    <glyph glyph-name="threeeighths" unicode="&#x215c;" horiz-adv-x="1952" 
d="M812 916q0 -128 -104.5 -216t-255.5 -88q-125 0 -224 54.5t-144 145.5l124 84q33 -68 96 -104t148 -36q90 0 145 43.5t55 112.5q0 70 -49.5 111t-126.5 41q-56 0 -104 -24l-76 84l264 248h-432v148h656v-116l-252 -228q126 -3 203 -74.5t77 -185.5zM1372 1520h172
l-964 -1520h-172zM1676 460q81 -30 126.5 -87.5t45.5 -132.5q0 -115 -98.5 -183.5t-265.5 -68.5t-265.5 68.5t-98.5 183.5q0 75 45.5 132.5t126.5 87.5q-69 27 -106.5 79t-37.5 121q0 111 92 179.5t244 68.5t244 -68.5t92 -179.5q0 -69 -37.5 -121t-106.5 -79zM1484 784
q-85 0 -134.5 -37t-49.5 -103q0 -55 50.5 -89.5t133.5 -34.5t133.5 34.5t50.5 89.5q0 66 -49.5 103t-134.5 37zM1484 116q93 0 150.5 36t57.5 96q0 62 -56.5 97t-151.5 35t-151.5 -35t-56.5 -97q0 -60 57.5 -96t150.5 -36z" />
    <glyph glyph-name="fiveeighths" unicode="&#x215d;" horiz-adv-x="1952" 
d="M808 936q0 -141 -105 -232.5t-267 -91.5q-115 0 -204.5 46.5t-135.5 125.5l112 88q34 -53 95 -84.5t137 -31.5q91 0 149.5 48t58.5 128q0 76 -55.5 120t-144.5 44q-59 0 -108.5 -21.5t-75.5 -62.5l-120 40l44 468h556v-144h-428l-20 -196q78 48 188 48q144 0 234 -81.5
t90 -210.5zM1372 1520h172l-964 -1520h-172zM1676 460q81 -30 126.5 -87.5t45.5 -132.5q0 -115 -98.5 -183.5t-265.5 -68.5t-265.5 68.5t-98.5 183.5q0 75 45.5 132.5t126.5 87.5q-69 27 -106.5 79t-37.5 121q0 111 92 179.5t244 68.5t244 -68.5t92 -179.5q0 -69 -37.5 -121
t-106.5 -79zM1484 784q-85 0 -134.5 -37t-49.5 -103q0 -55 50.5 -89.5t133.5 -34.5t133.5 34.5t50.5 89.5q0 66 -49.5 103t-134.5 37zM1484 116q93 0 150.5 36t57.5 96q0 62 -56.5 97t-151.5 35t-151.5 -35t-56.5 -97q0 -60 57.5 -96t150.5 -36z" />
    <glyph glyph-name="seveneighths" unicode="&#x215e;" horiz-adv-x="1832" 
d="M248 624q0 204 91.5 404t236.5 336h-552v156h760v-120q-169 -133 -266.5 -338.5t-97.5 -437.5h-172zM1200 1520h172l-964 -1520h-172zM1556 460q81 -30 126.5 -87.5t45.5 -132.5q0 -115 -98.5 -183.5t-265.5 -68.5t-265.5 68.5t-98.5 183.5q0 75 45.5 132.5t126.5 87.5
q-69 27 -106.5 79t-37.5 121q0 111 92 179.5t244 68.5t244 -68.5t92 -179.5q0 -69 -37.5 -121t-106.5 -79zM1364 784q-85 0 -134.5 -37t-49.5 -103q0 -55 50.5 -89.5t133.5 -34.5t133.5 34.5t50.5 89.5q0 66 -49.5 103t-134.5 37zM1364 116q93 0 150.5 36t57.5 96
q0 62 -56.5 97t-151.5 35t-151.5 -35t-56.5 -97q0 -60 57.5 -96t150.5 -36z" />
    <glyph glyph-name="arrowboth" unicode="&#x2194;" horiz-adv-x="1600" 
d="M1076 1324l564 -564l-564 -564l-128 128l344 344h-984l344 -344l-128 -128l-564 564l564 564l128 -128l-344 -344h984l-344 344z" />
    <glyph glyph-name="arrowupdn" unicode="&#x2195;" horiz-adv-x="1600" 
d="M892 268l344 344l128 -128l-564 -564l-564 564l128 128l344 -344v984l-344 -344l-128 128l564 564l564 -564l-128 -128l-344 344v-984z" />
    <glyph glyph-name="minus" unicode="&#x2212;" 
d="M180 672v176h1080v-176h-1080z" />
    <glyph glyph-name="approxequal" unicode="&#x2248;" 
d="M268 872l-128 112q134 212 336 212q60 0 115 -17.5t98 -42t84.5 -49t91 -42t99.5 -17.5q113 0 208 148l128 -112q-134 -212 -336 -212q-60 0 -115 17.5t-98 42t-84.5 49t-91 42t-99.5 17.5q-113 0 -208 -148zM268 344l-128 112q134 212 336 212q60 0 115 -17.5t98 -42
t84.5 -49t91 -42t99.5 -17.5q113 0 208 148l128 -112q-134 -212 -336 -212q-60 0 -115 17.5t-98 42t-84.5 49t-91 42t-99.5 17.5q-113 0 -208 -148z" />
    <glyph glyph-name="notequal" unicode="&#x2260;" 
d="M1260 936h-356l-184 -352h540v-176h-632l-96 -188h-184l96 188h-264v176h356l184 352h-540v176h632l96 188h184l-96 -188h264v-176z" />
    <glyph glyph-name="lessequal" unicode="&#x2264;" 
d="M1260 1368v-188l-836 -332l836 -336v-200l-1080 432v192zM180 0v176h1080v-176h-1080z" />
    <glyph glyph-name="greaterequal" unicode="&#x2265;" 
d="M180 1368l1080 -432v-192l-1080 -432v188l836 336l-836 332v200zM180 0v176h1080v-176h-1080z" />
    <glyph glyph-name="male" unicode="&#x2642;" horiz-adv-x="2024" 
d="M1012 -256q294 0 449 13t245 46t158 101t101 158t46 245t13 449t-13 449t-46 245t-101 158t-158 101t-245 46t-449 13t-449 -13t-245 -46t-158 -101t-101 -158t-46 -245t-13 -449t13 -449t46 -245t101 -158t158 -101t245 -46t449 -13zM1100 1032q-33 0 -46.5 13t-13.5 43
q0 27 13.5 39.5t46.5 12.5q30 0 43 -12.5t13 -39.5q0 -30 -13 -43t-43 -13zM788 1052v-440h60v-188h-84v112h-312v-112h-84v188h44q44 73 44 228v212h332zM536 844q0 -165 -40 -232h204v360h-164v-128zM1040 608l128 84l40 -60l-132 -92q-30 -12 -52 -12q-39 0 -60 28
t-12 64l76 260h-116l24 76h196l-96 -344zM1596 956v-420h-88v148h-72l-96 -148h-96l108 164q-43 12 -67.5 44.5t-24.5 79.5q0 58 39 95t101 37h196zM1408 756h100v128h-100q-27 0 -45.5 -18.5t-18.5 -45.5t18.5 -45.5t45.5 -18.5z" />
    <glyph glyph-name="uni2643" unicode="&#x2643;" horiz-adv-x="2024" 
d="M1012 -256q-294 0 -449 13t-245 46t-158 101t-101 158t-46 245t-13 449t13 449t46 245t101 158t158 101t245 46t449 13t449 -13t245 -46t158 -101t101 -158t46 -245t13 -449t-13 -449t-46 -245t-101 -158t-158 -101t-245 -46t-449 -13zM1012 -224q288 0 440.5 13t238 44
t149.5 95t95 149.5t44 238t13 440.5t-13 440.5t-44 238t-95 149.5t-149.5 95t-238 44t-440.5 13t-440.5 -13t-238 -44t-149.5 -95t-95 -149.5t-44 -238t-13 -440.5t13 -440.5t44 -238t95 -149.5t149.5 -95t238 -44t440.5 -13zM1100 1032q-33 0 -46.5 13t-13.5 43t13.5 43
t46.5 13t48.5 -13t15.5 -43t-15.5 -43t-48.5 -13zM792 1056v-440h60v-196h-88v112h-308v-112h-88v196h44q40 67 40 224v216h340zM544 844q0 -71 -12 -133t-28 -95h196v352h-156v-124zM1044 612l128 88l44 -68l-136 -92q-27 -16 -56 -16q-40 0 -62 28.5t-10 67.5l72 256h-112
l20 84h204l-96 -348h4zM1600 960v-428h-92v148h-72l-96 -148h-100l108 164q-42 15 -65 49t-23 79q0 60 38.5 98t101.5 38h200zM1412 760h96v120h-96q-27 0 -45.5 -16.5t-18.5 -43.5t18.5 -43.5t45.5 -16.5z" />
    <glyph glyph-name="uni2644" unicode="&#x2644;" horiz-adv-x="2024" 
d="M1012 -256q-294 0 -449 13t-245 46t-158 101t-101 158t-46 245t-13 449t13 449t46 245t101 158t158 101t245 46t449 13t449 -13t245 -46t158 -101t101 -158t46 -245t13 -449t-13 -449t-46 -245t-101 -158t-158 -101t-245 -46t-449 -13zM1012 -224q288 0 440.5 13t238 44
t149.5 95t95 149.5t44 238t13 440.5t-13 440.5t-44 238t-95 149.5t-149.5 95t-238 44t-440.5 13t-440.5 -13t-238 -44t-149.5 -95t-95 -149.5t-44 -238t-13 -440.5t13 -440.5t44 -238t95 -149.5t149.5 -95t238 -44t440.5 -13zM1012 4q-20 34 -44 48q-120 94 -144 236h-236
v1024q95 -48 157 -143.5t71 -204.5l36 -288l-20 4q-27 0 -47.5 -22.5t-20.5 -49.5t16 -46t40 -22l44 -12q112 212 112 396q0 57 -8 176.5t-8 179.5q0 78 52 136q52 -58 52 -136q0 -60 -8 -179.5t-8 -176.5q0 -184 112 -396l44 12q24 3 40 22t16 46q0 28 -21.5 50t-50.5 22
l-16 -4l36 288q12 111 73 206t155 142v-1024h-236q-25 -148 -144 -236q-24 -14 -44 -48zM660 644h40q11 52 72 92l-28 236q-12 107 -84 192v-520zM1324 644h40v520q-72 -85 -84 -192l-28 -236q61 -40 72 -92zM1012 460q35 42 76 52q-56 99 -76 172q-20 -73 -76 -172
q41 -10 76 -52zM660 360h160q0 50 12 104l-32 4q-36 12 -63.5 40t-36.5 64h-40v-212zM1204 360h160v212h-40q-9 -36 -36.5 -64t-63.5 -40l-32 -4q12 -54 12 -104zM888 360h88q0 33 -21.5 57.5t-54.5 30.5q-12 -42 -12 -88zM1048 360h88q0 46 -12 88q-33 -6 -54.5 -30.5
t-21.5 -57.5zM976 140v148h-80q22 -77 80 -148zM1048 140q58 71 80 148h-80v-148z" />
    <glyph glyph-name="uni2645" unicode="&#x2645;" horiz-adv-x="2232" 
d="M1116 -448q-21 43 -68 76q-88 67 -147.5 163t-80.5 209h-372v1608q150 -75 249 -226t111 -322l56 -452l-28 4q-44 0 -78 -34.5t-34 -77.5q0 -38 26 -68.5t66 -39.5l68 -16q176 333 176 624q0 99 -13 285t-15 271q0 123 84 220q84 -97 84 -220q0 -94 -14 -279t-14 -277
q0 -291 176 -624l68 16q40 9 66 39.5t26 68.5q0 43 -34 77.5t-78 34.5l-28 -4l56 452q22 175 117.5 325t242.5 223v-1608h-372q-21 -115 -80 -212.5t-148 -159.5q-47 -33 -68 -76zM560 556h64q12 44 42.5 82t73.5 62l-44 372q-24 173 -136 304v-820zM1608 556h64v820
q-119 -139 -136 -304l-44 -372q43 -24 73.5 -62t42.5 -82zM1116 268q57 64 120 80q-85 156 -120 276q-35 -120 -120 -276q63 -16 120 -80zM560 112h252q0 73 20 160l-52 12q-57 18 -99 60.5t-57 99.5h-64v-332zM1420 112h252v332h-64q-15 -57 -57 -99.5t-99 -60.5l-52 -12
q20 -87 20 -160zM920 112h140q0 51 -34.5 90.5t-85.5 45.5q-20 -73 -20 -136zM1172 112h140q0 63 -20 136q-51 -6 -85.5 -45.5t-34.5 -90.5zM1060 -236v236h-124q29 -129 124 -236zM1172 -236q95 107 124 236h-124v-236z" />
    <glyph glyph-name="K.ss01" horiz-adv-x="1556" 
d="M1396 192h48v-192h-104q-109 0 -170.5 64.5t-61.5 183.5v436h-660v-684h-208v1520h208v-644h336l404 644h232l-420 -644h316v-604q0 -36 22 -58t58 -22z" />
    <glyph glyph-name="uni0136.ss01" horiz-adv-x="1556" 
d="M1396 192h48v-192h-104q-109 0 -170.5 64.5t-61.5 183.5v436h-660v-684h-208v1520h208v-644h336l404 644h232l-420 -644h316v-604q0 -36 22 -58t58 -22zM716 -296v176h224v-148q0 -110 -52.5 -167t-139.5 -57h-32v108h32q39 0 58 21.5t22 66.5h-112z" />
    <glyph glyph-name="R.ss01" horiz-adv-x="1556" 
d="M1404 192h48v-192h-104q-109 0 -170.5 64.5t-61.5 183.5v356h-668v-604h-208v1520h604q240 0 382 -119.5t142 -320.5q0 -125 -63 -216.5t-181 -139.5h200v-452q0 -36 22 -58t58 -22zM824 1332h-376v-544h376q336 0 336 272t-336 272z" />
    <glyph glyph-name="Racute.ss01" horiz-adv-x="1556" 
d="M1044 1920l-228 -280h-148l116 280h260zM1404 192h48v-192h-104q-109 0 -170.5 64.5t-61.5 183.5v356h-668v-604h-208v1520h604q240 0 382 -119.5t142 -320.5q0 -125 -63 -216.5t-181 -139.5h200v-452q0 -36 22 -58t58 -22zM824 1332h-376v-544h376q336 0 336 272
t-336 272z" />
    <glyph glyph-name="Rcaron.ss01" horiz-adv-x="1556" 
d="M840 1640h-216l-228 280h188l148 -152l148 152h188zM1404 192h48v-192h-104q-109 0 -170.5 64.5t-61.5 183.5v356h-668v-604h-208v1520h604q240 0 382 -119.5t142 -320.5q0 -125 -63 -216.5t-181 -139.5h200v-452q0 -36 22 -58t58 -22zM824 1332h-376v-544h376
q336 0 336 272t-336 272z" />
    <glyph glyph-name="uni0156.ss01" horiz-adv-x="1556" 
d="M1404 192h48v-192h-104q-109 0 -170.5 64.5t-61.5 183.5v356h-668v-604h-208v1520h604q240 0 382 -119.5t142 -320.5q0 -125 -63 -216.5t-181 -139.5h200v-452q0 -36 22 -58t58 -22zM824 1332h-376v-544h376q336 0 336 272t-336 272zM736 -296v176h224v-148
q0 -110 -52.5 -167t-139.5 -57h-32v108h32q39 0 58 21.5t22 66.5h-112z" />
    <glyph glyph-name="Y.ss01" horiz-adv-x="1536" 
d="M1224 1520h224l-432 -1176q-136 -364 -432 -364q-159 0 -257.5 96t-98.5 252q0 97 39 178t113 134h172l-504 880h240l484 -880h140zM592 164q79 0 131.5 49.5t92.5 154.5l36 100h-372q-52 -58 -52 -132q0 -78 44.5 -125t119.5 -47z" />
    <glyph glyph-name="Yacute.ss01" horiz-adv-x="1536" 
d="M1056 1920l-228 -280h-148l116 280h260zM1224 1520h224l-432 -1176q-136 -364 -432 -364q-159 0 -257.5 96t-98.5 252q0 97 39 178t113 134h172l-504 880h240l484 -880h140zM592 164q79 0 131.5 49.5t92.5 154.5l36 100h-372q-52 -58 -52 -132q0 -78 44.5 -125t119.5 -47
z" />
    <glyph glyph-name="Ycircumflex.ss01" horiz-adv-x="1536" 
d="M744 1792l-148 -152h-188l228 280h216l228 -280h-188zM1224 1520h224l-432 -1176q-136 -364 -432 -364q-159 0 -257.5 96t-98.5 252q0 97 39 178t113 134h172l-504 880h240l484 -880h140zM592 164q79 0 131.5 49.5t92.5 154.5l36 100h-372q-52 -58 -52 -132
q0 -78 44.5 -125t119.5 -47z" />
    <glyph glyph-name="Ydieresis.ss01" horiz-adv-x="1536" 
d="M660 1920v-224h-224v224h224zM1044 1920v-224h-224v224h224zM1224 1520h224l-432 -1176q-136 -364 -432 -364q-159 0 -257.5 96t-98.5 252q0 97 39 178t113 134h172l-504 880h240l484 -880h140zM592 164q79 0 131.5 49.5t92.5 154.5l36 100h-372q-52 -58 -52 -132
q0 -78 44.5 -125t119.5 -47z" />
    <glyph glyph-name="Ygrave.ss01" horiz-adv-x="1536" 
d="M800 1640h-148l-228 280h260zM1224 1520h224l-432 -1176q-136 -364 -432 -364q-159 0 -257.5 96t-98.5 252q0 97 39 178t113 134h172l-504 880h240l484 -880h140zM592 164q79 0 131.5 49.5t92.5 154.5l36 100h-372q-52 -58 -52 -132q0 -78 44.5 -125t119.5 -47z" />
    <glyph glyph-name="K.ss02" horiz-adv-x="1552" 
d="M1256 0l-572 752l-236 -232v-520h-208v1520h208v-760l760 760h260l-636 -624l680 -896h-256z" />
    <glyph glyph-name="uni0136.ss02" horiz-adv-x="1552" 
d="M832 896l680 -896h-256l-572 752l-236 -232v-520h-208v1520h208v-760l760 760h260zM716 -296v176h224v-148q0 -110 -52.5 -167t-139.5 -57h-32v108h32q39 0 58 21.5t22 66.5h-112z" />
    <glyph glyph-name="R.ss02" horiz-adv-x="1536" 
d="M1216 0l-372 608h-400v-608h-204v1520h608q237 0 378.5 -124.5t141.5 -331.5q0 -155 -81.5 -265.5t-226.5 -158.5l396 -640h-240zM444 1332v-544h376q336 0 336 272t-336 272h-376z" />
    <glyph glyph-name="Racute.ss02" horiz-adv-x="1536" 
d="M1040 1920l-228 -280h-148l116 280h260zM1216 0l-372 608h-400v-608h-204v1520h608q237 0 378.5 -124.5t141.5 -331.5q0 -155 -81.5 -265.5t-226.5 -158.5l396 -640h-240zM444 1332v-544h376q336 0 336 272t-336 272h-376z" />
    <glyph glyph-name="Rcaron.ss02" horiz-adv-x="1536" 
d="M836 1640h-216l-228 280h188l148 -152l148 152h188zM1216 0l-372 608h-400v-608h-204v1520h608q237 0 378.5 -124.5t141.5 -331.5q0 -155 -81.5 -265.5t-226.5 -158.5l396 -640h-240zM444 1332v-544h376q336 0 336 272t-336 272h-376z" />
    <glyph glyph-name="uni0156.ss02" horiz-adv-x="1536" 
d="M1060 640l396 -640h-240l-372 608h-400v-608h-204v1520h608q237 0 378.5 -124.5t141.5 -331.5q0 -155 -81.5 -265.5t-226.5 -158.5zM444 1332v-544h376q336 0 336 272t-336 272h-376zM732 -296v176h224v-148q0 -110 -52.5 -167t-139.5 -57h-32v108h32q39 0 58 21.5
t22 66.5h-112z" />
    <glyph glyph-name="Y.ss02" horiz-adv-x="1448" 
d="M1428 1520l-600 -908v-612h-208v612l-600 908h240l468 -716l464 716h236z" />
    <glyph glyph-name="Yacute.ss02" horiz-adv-x="1448" 
d="M1040 1920l-228 -280h-148l116 280h260zM1428 1520l-600 -908v-612h-208v612l-600 908h240l468 -716l464 716h236z" />
    <glyph glyph-name="Ycircumflex.ss02" horiz-adv-x="1448" 
d="M728 1792l-148 -152h-188l228 280h216l228 -280h-188zM1428 1520l-600 -908v-612h-208v612l-600 908h240l468 -716l464 716h236z" />
    <glyph glyph-name="Ydieresis.ss02" horiz-adv-x="1448" 
d="M644 1920v-224h-224v224h224zM1028 1920v-224h-224v224h224zM1428 1520l-600 -908v-612h-208v612l-600 908h240l468 -716l464 716h236z" />
    <glyph glyph-name="Ygrave.ss02" horiz-adv-x="1448" 
d="M784 1640h-148l-228 280h260zM1428 1520l-600 -908v-612h-208v612l-600 908h240l468 -716l464 716h236z" />
    <glyph glyph-name="K.ss03" horiz-adv-x="1556" 
d="M1396 192h48v-192h-104q-109 0 -170.5 64.5t-61.5 183.5v436h-660v-684h-208v1520h208v-644h336l404 644h232l-420 -644h316v-604q0 -36 22 -58t58 -22z" />
    <glyph glyph-name="uni0136.ss03" horiz-adv-x="1556" 
d="M1396 192h48v-192h-104q-109 0 -170.5 64.5t-61.5 183.5v436h-660v-684h-208v1520h208v-644h336l404 644h232l-420 -644h316v-604q0 -36 22 -58t58 -22zM716 -296v176h224v-148q0 -110 -52.5 -167t-139.5 -57h-32v108h32q39 0 58 21.5t22 66.5h-112z" />
    <glyph glyph-name="R.ss03" horiz-adv-x="1556" 
d="M1404 192h48v-192h-104q-109 0 -170.5 64.5t-61.5 183.5v356h-668v-604h-208v1520h604q240 0 382 -119.5t142 -320.5q0 -125 -63 -216.5t-181 -139.5h200v-452q0 -36 22 -58t58 -22zM824 1332h-376v-544h376q336 0 336 272t-336 272z" />
    <glyph glyph-name="Racute.ss03" horiz-adv-x="1556" 
d="M1044 1920l-228 -280h-148l116 280h260zM1404 192h48v-192h-104q-109 0 -170.5 64.5t-61.5 183.5v356h-668v-604h-208v1520h604q240 0 382 -119.5t142 -320.5q0 -125 -63 -216.5t-181 -139.5h200v-452q0 -36 22 -58t58 -22zM824 1332h-376v-544h376q336 0 336 272
t-336 272z" />
    <glyph glyph-name="Rcaron.ss03" horiz-adv-x="1556" 
d="M840 1640h-216l-228 280h188l148 -152l148 152h188zM1404 192h48v-192h-104q-109 0 -170.5 64.5t-61.5 183.5v356h-668v-604h-208v1520h604q240 0 382 -119.5t142 -320.5q0 -125 -63 -216.5t-181 -139.5h200v-452q0 -36 22 -58t58 -22zM824 1332h-376v-544h376
q336 0 336 272t-336 272z" />
    <glyph glyph-name="uni0156.ss03" horiz-adv-x="1556" 
d="M1404 192h48v-192h-104q-109 0 -170.5 64.5t-61.5 183.5v356h-668v-604h-208v1520h604q240 0 382 -119.5t142 -320.5q0 -125 -63 -216.5t-181 -139.5h200v-452q0 -36 22 -58t58 -22zM824 1332h-376v-544h376q336 0 336 272t-336 272zM736 -296v176h224v-148
q0 -110 -52.5 -167t-139.5 -57h-32v108h32q39 0 58 21.5t22 66.5h-112z" />
    <glyph glyph-name="Y.ss03" horiz-adv-x="1536" 
d="M1224 1520h224l-432 -1176q-136 -364 -432 -364q-159 0 -257.5 96t-98.5 252q0 97 39 178t113 134h172l-504 880h240l484 -880h140zM592 164q79 0 131.5 49.5t92.5 154.5l36 100h-372q-52 -58 -52 -132q0 -78 44.5 -125t119.5 -47z" />
    <glyph glyph-name="Yacute.ss03" horiz-adv-x="1536" 
d="M1040 1920l-228 -280h-148l116 280h260zM1224 1520h224l-432 -1176q-136 -364 -432 -364q-159 0 -257.5 96t-98.5 252q0 97 39 178t113 134h172l-504 880h240l484 -880h140zM592 164q79 0 131.5 49.5t92.5 154.5l36 100h-372q-52 -58 -52 -132q0 -78 44.5 -125t119.5 -47
z" />
    <glyph glyph-name="Ycircumflex.ss03" horiz-adv-x="1536" 
d="M728 1792l-148 -152h-188l228 280h216l228 -280h-188zM1224 1520h224l-432 -1176q-136 -364 -432 -364q-159 0 -257.5 96t-98.5 252q0 97 39 178t113 134h172l-504 880h240l484 -880h140zM592 164q79 0 131.5 49.5t92.5 154.5l36 100h-372q-52 -58 -52 -132
q0 -78 44.5 -125t119.5 -47z" />
    <glyph glyph-name="Ydieresis.ss03" horiz-adv-x="1536" 
d="M644 1920v-224h-224v224h224zM1028 1920v-224h-224v224h224zM1224 1520h224l-432 -1176q-136 -364 -432 -364q-159 0 -257.5 96t-98.5 252q0 97 39 178t113 134h172l-504 880h240l484 -880h140zM592 164q79 0 131.5 49.5t92.5 154.5l36 100h-372q-52 -58 -52 -132
q0 -78 44.5 -125t119.5 -47z" />
    <glyph glyph-name="Ygrave.ss03" horiz-adv-x="1536" 
d="M784 1640h-148l-228 280h260zM1224 1520h224l-432 -1176q-136 -364 -432 -364q-159 0 -257.5 96t-98.5 252q0 97 39 178t113 134h172l-504 880h240l484 -880h140zM592 164q79 0 131.5 49.5t92.5 154.5l36 100h-372q-52 -58 -52 -132q0 -78 44.5 -125t119.5 -47z" />
    <glyph glyph-name="K.ss04" horiz-adv-x="1556" 
d="M1396 192h48v-192h-104q-109 0 -170.5 64.5t-61.5 183.5v260q0 82 -43.5 129t-120.5 47h-496v-684h-208v1520h208v-644h400l352 644h220l-364 -664q127 -18 193.5 -108t66.5 -248v-228q0 -36 22 -58t58 -22z" />
    <glyph glyph-name="uni0136.ss04" horiz-adv-x="1556" 
d="M1396 192h48v-192h-104q-109 0 -170.5 64.5t-61.5 183.5v260q0 82 -43.5 129t-120.5 47h-496v-684h-208v1520h208v-644h400l352 644h220l-364 -664q127 -18 193.5 -108t66.5 -248v-228q0 -36 22 -58t58 -22zM716 -296v176h224v-148q0 -110 -52.5 -167t-139.5 -57h-32v108
h32q39 0 58 21.5t22 66.5h-112z" />
    <glyph glyph-name="R.ss04" horiz-adv-x="1556" 
d="M1408 192h48v-192h-104q-109 0 -170.5 64.5t-61.5 183.5v180q0 82 -43.5 129t-120.5 47h-508v-604h-208v1520h604q240 0 382 -125t142 -335q0 -242 -208 -352q81 -33 124.5 -110t43.5 -190v-136q0 -36 22 -58t58 -22zM824 1332h-376v-544h376q336 0 336 272t-336 272z
" />
    <glyph glyph-name="Racute.ss04" horiz-adv-x="1556" 
d="M1044 1920l-228 -280h-148l116 280h260zM1408 192h48v-192h-104q-109 0 -170.5 64.5t-61.5 183.5v180q0 82 -43.5 129t-120.5 47h-508v-604h-208v1520h604q240 0 382 -125t142 -335q0 -242 -208 -352q81 -33 124.5 -110t43.5 -190v-136q0 -36 22 -58t58 -22zM824 1332
h-376v-544h376q336 0 336 272t-336 272z" />
    <glyph glyph-name="Rcaron.ss04" horiz-adv-x="1556" 
d="M840 1640h-216l-228 280h188l148 -152l148 152h188zM1408 192h48v-192h-104q-109 0 -170.5 64.5t-61.5 183.5v180q0 82 -43.5 129t-120.5 47h-508v-604h-208v1520h604q240 0 382 -125t142 -335q0 -242 -208 -352q81 -33 124.5 -110t43.5 -190v-136q0 -36 22 -58t58 -22z
M824 1332h-376v-544h376q336 0 336 272t-336 272z" />
    <glyph glyph-name="uni0156.ss04" horiz-adv-x="1556" 
d="M1408 192h48v-192h-104q-109 0 -170.5 64.5t-61.5 183.5v180q0 82 -43.5 129t-120.5 47h-508v-604h-208v1520h604q240 0 382 -125t142 -335q0 -242 -208 -352q81 -33 124.5 -110t43.5 -190v-136q0 -36 22 -58t58 -22zM824 1332h-376v-544h376q336 0 336 272t-336 272z
M736 -296v176h224v-148q0 -110 -52.5 -167t-139.5 -57h-32v108h32q39 0 58 21.5t22 66.5h-112z" />
    <glyph glyph-name="K.ss05" horiz-adv-x="1556" 
d="M1396 192h48v-192h-104q-109 0 -170.5 64.5t-61.5 183.5v260q0 82 -43.5 129t-120.5 47h-496v-684h-208v1520h208v-644h400l352 644h220l-364 -664q127 -18 193.5 -108t66.5 -248v-228q0 -36 22 -58t58 -22z" />
    <glyph glyph-name="uni0136.ss05" horiz-adv-x="1556" 
d="M1396 192h48v-192h-104q-109 0 -170.5 64.5t-61.5 183.5v260q0 82 -43.5 129t-120.5 47h-496v-684h-208v1520h208v-644h400l352 644h220l-364 -664q127 -18 193.5 -108t66.5 -248v-228q0 -36 22 -58t58 -22zM716 -296v176h224v-148q0 -110 -52.5 -167t-139.5 -57h-32v108
h32q39 0 58 21.5t22 66.5h-112z" />
    <glyph glyph-name="R.ss05" horiz-adv-x="1556" 
d="M1408 192h48v-192h-104q-109 0 -170.5 64.5t-61.5 183.5v180q0 82 -43.5 129t-120.5 47h-508v-604h-208v1520h604q240 0 382 -125t142 -335q0 -242 -208 -352q81 -33 124.5 -110t43.5 -190v-136q0 -36 22 -58t58 -22zM824 1332h-376v-544h376q336 0 336 272t-336 272z
" />
    <glyph glyph-name="Racute.ss05" horiz-adv-x="1556" 
d="M1044 1920l-228 -280h-148l116 280h260zM1408 192h48v-192h-104q-109 0 -170.5 64.5t-61.5 183.5v180q0 82 -43.5 129t-120.5 47h-508v-604h-208v1520h604q240 0 382 -125t142 -335q0 -242 -208 -352q81 -33 124.5 -110t43.5 -190v-136q0 -36 22 -58t58 -22zM824 1332
h-376v-544h376q336 0 336 272t-336 272z" />
    <glyph glyph-name="Rcaron.ss05" horiz-adv-x="1556" 
d="M840 1640h-216l-228 280h188l148 -152l148 152h188zM1408 192h48v-192h-104q-109 0 -170.5 64.5t-61.5 183.5v180q0 82 -43.5 129t-120.5 47h-508v-604h-208v1520h604q240 0 382 -125t142 -335q0 -242 -208 -352q81 -33 124.5 -110t43.5 -190v-136q0 -36 22 -58t58 -22z
M824 1332h-376v-544h376q336 0 336 272t-336 272z" />
    <glyph glyph-name="uni0156.ss05" horiz-adv-x="1556" 
d="M1408 192h48v-192h-104q-109 0 -170.5 64.5t-61.5 183.5v180q0 82 -43.5 129t-120.5 47h-508v-604h-208v1520h604q240 0 382 -125t142 -335q0 -242 -208 -352q81 -33 124.5 -110t43.5 -190v-136q0 -36 22 -58t58 -22zM824 1332h-376v-544h376q336 0 336 272t-336 272z
M736 -296v176h224v-148q0 -110 -52.5 -167t-139.5 -57h-32v108h32q39 0 58 21.5t22 66.5h-112z" />
    <glyph glyph-name="i.loclTRK" horiz-adv-x="640" 
d="M208 1376v224h224v-224h-224zM220 0v1200h200v-1200h-200z" />
    <glyph glyph-name="k.ss01" horiz-adv-x="1316" 
d="M1168 176h44v-176h-96q-96 0 -150 54t-54 150v316h-512v-520h-200v1600h200v-896h284l288 496h216l-304 -512h224v-452q0 -27 16.5 -43.5t43.5 -16.5z" />
    <glyph glyph-name="uni0137.ss01" horiz-adv-x="1316" 
d="M1168 176h44v-176h-96q-96 0 -150 54t-54 150v316h-512v-520h-200v1600h200v-896h284l288 496h216l-304 -512h224v-452q0 -27 16.5 -43.5t43.5 -16.5zM532 -296v176h224v-148q0 -110 -52.5 -167t-139.5 -57h-32v108h32q39 0 58 21.5t22 66.5h-112z" />
    <glyph glyph-name="y.ss01" horiz-adv-x="1284" 
d="M1040 1200h212l-408 -1200q-75 -219 -175 -319.5t-241 -100.5q-138 0 -223 88.5t-85 235.5q0 158 120 272h172l-400 1024h220l368 -1024h108zM436 -248q53 0 99 44t73 120l32 84h-304q-36 -48 -36 -100q0 -66 38 -107t98 -41z" />
    <glyph glyph-name="yacute.ss01" horiz-adv-x="1284" 
d="M964 1600l-228 -280h-148l116 280h260zM1040 1200h212l-408 -1200q-75 -219 -175 -319.5t-241 -100.5q-138 0 -223 88.5t-85 235.5q0 158 120 272h172l-400 1024h220l368 -1024h108zM436 -248q53 0 99 44t73 120l32 84h-304q-36 -48 -36 -100q0 -66 38 -107t98 -41z" />
    <glyph glyph-name="ycircumflex.ss01" horiz-adv-x="1284" 
d="M652 1472l-148 -152h-188l228 280h216l228 -280h-188zM1040 1200h212l-408 -1200q-75 -219 -175 -319.5t-241 -100.5q-138 0 -223 88.5t-85 235.5q0 158 120 272h172l-400 1024h220l368 -1024h108zM436 -248q53 0 99 44t73 120l32 84h-304q-36 -48 -36 -100
q0 -66 38 -107t98 -41z" />
    <glyph glyph-name="ydieresis.ss01" horiz-adv-x="1284" 
d="M568 1600v-224h-224v224h224zM952 1600v-224h-224v224h224zM1040 1200h212l-408 -1200q-75 -219 -175 -319.5t-241 -100.5q-138 0 -223 88.5t-85 235.5q0 158 120 272h172l-400 1024h220l368 -1024h108zM436 -248q53 0 99 44t73 120l32 84h-304q-36 -48 -36 -100
q0 -66 38 -107t98 -41z" />
    <glyph glyph-name="ygrave.ss01" horiz-adv-x="1284" 
d="M708 1320h-148l-228 280h260zM1040 1200h212l-408 -1200q-75 -219 -175 -319.5t-241 -100.5q-138 0 -223 88.5t-85 235.5q0 158 120 272h172l-400 1024h220l368 -1024h108zM436 -248q53 0 99 44t73 120l32 84h-304q-36 -48 -36 -100q0 -66 38 -107t98 -41z" />
    <glyph glyph-name="k.ss02" horiz-adv-x="1264" 
d="M1016 0l-436 580l-180 -168v-412h-200v1600h200v-956l584 556h256l-516 -484l540 -716h-248z" />
    <glyph glyph-name="uni0137.ss02" horiz-adv-x="1264" 
d="M724 716l540 -716h-248l-436 580l-180 -168v-412h-200v1600h200v-956l584 556h256zM556 -296v176h224v-148q0 -110 -52.5 -167t-139.5 -57h-32v108h32q39 0 58 21.5t22 66.5h-112z" />
    <glyph glyph-name="k.ss03" horiz-adv-x="1316" 
d="M1168 176h44v-176h-96q-96 0 -150 54t-54 150v316h-512v-520h-200v1600h200v-896h284l288 496h216l-304 -512h224v-452q0 -27 16.5 -43.5t43.5 -16.5z" />
    <glyph glyph-name="uni0137.ss03" horiz-adv-x="1316" 
d="M1168 176h44v-176h-96q-96 0 -150 54t-54 150v316h-512v-520h-200v1600h200v-896h284l288 496h216l-304 -512h224v-452q0 -27 16.5 -43.5t43.5 -16.5zM532 -296v176h224v-148q0 -110 -52.5 -167t-139.5 -57h-32v108h32q39 0 58 21.5t22 66.5h-112z" />
    <glyph glyph-name="y.ss03" horiz-adv-x="1284" 
d="M1040 1200h212l-408 -1200q-75 -219 -175 -319.5t-241 -100.5q-138 0 -223 88.5t-85 235.5q0 158 120 272h172l-400 1024h220l368 -1024h108zM436 -248q53 0 99 44t73 120l32 84h-304q-36 -48 -36 -100q0 -66 38 -107t98 -41z" />
    <glyph glyph-name="yacute.ss03" horiz-adv-x="1284" 
d="M964 1600l-228 -280h-148l116 280h260zM1040 1200h212l-408 -1200q-75 -219 -175 -319.5t-241 -100.5q-138 0 -223 88.5t-85 235.5q0 158 120 272h172l-400 1024h220l368 -1024h108zM436 -248q53 0 99 44t73 120l32 84h-304q-36 -48 -36 -100q0 -66 38 -107t98 -41z" />
    <glyph glyph-name="ycircumflex.ss03" horiz-adv-x="1284" 
d="M652 1472l-148 -152h-188l228 280h216l228 -280h-188zM1040 1200h212l-408 -1200q-75 -219 -175 -319.5t-241 -100.5q-138 0 -223 88.5t-85 235.5q0 158 120 272h172l-400 1024h220l368 -1024h108zM436 -248q53 0 99 44t73 120l32 84h-304q-36 -48 -36 -100
q0 -66 38 -107t98 -41z" />
    <glyph glyph-name="ydieresis.ss03" horiz-adv-x="1284" 
d="M568 1600v-224h-224v224h224zM952 1600v-224h-224v224h224zM1040 1200h212l-408 -1200q-75 -219 -175 -319.5t-241 -100.5q-138 0 -223 88.5t-85 235.5q0 158 120 272h172l-400 1024h220l368 -1024h108zM436 -248q53 0 99 44t73 120l32 84h-304q-36 -48 -36 -100
q0 -66 38 -107t98 -41z" />
    <glyph glyph-name="ygrave.ss03" horiz-adv-x="1284" 
d="M708 1320h-148l-228 280h260zM1040 1200h212l-408 -1200q-75 -219 -175 -319.5t-241 -100.5q-138 0 -223 88.5t-85 235.5q0 158 120 272h172l-400 1024h220l368 -1024h108zM436 -248q53 0 99 44t73 120l32 84h-304q-36 -48 -36 -100q0 -66 38 -107t98 -41z" />
    <glyph glyph-name="k.ss04" horiz-adv-x="1316" 
d="M1160 176h44v-176h-96q-96 0 -150 54t-54 150v172q0 66 -37 103t-103 37h-364v-516h-200v1600h200v-908h288l284 508h216l-304 -528q216 -36 216 -288v-148q0 -27 16.5 -43.5t43.5 -16.5z" />
    <glyph glyph-name="uni0137.ss04" horiz-adv-x="1316" 
d="M1160 176h44v-176h-96q-96 0 -150 54t-54 150v172q0 66 -37 103t-103 37h-364v-516h-200v1600h200v-908h288l284 508h216l-304 -528q216 -36 216 -288v-148q0 -27 16.5 -43.5t43.5 -16.5zM580 -296v176h224v-148q0 -110 -52.5 -167t-139.5 -57h-32v108h32q39 0 58 21.5
t22 66.5h-112z" />
    <glyph glyph-name="k.ss05" horiz-adv-x="1316" 
d="M1160 176h44v-176h-96q-96 0 -150 54t-54 150v172q0 66 -37 103t-103 37h-364v-516h-200v1600h200v-908h288l284 508h216l-304 -528q216 -36 216 -288v-148q0 -27 16.5 -43.5t43.5 -16.5z" />
    <glyph glyph-name="uni0137.ss05" horiz-adv-x="1316" 
d="M1160 176h44v-176h-96q-96 0 -150 54t-54 150v172q0 66 -37 103t-103 37h-364v-516h-200v1600h200v-908h288l284 508h216l-304 -528q216 -36 216 -288v-148q0 -27 16.5 -43.5t43.5 -16.5zM580 -296v176h224v-148q0 -110 -52.5 -167t-139.5 -57h-32v108h32q39 0 58 21.5
t22 66.5h-112z" />
    <glyph glyph-name="f.ss06" horiz-adv-x="908" 
d="M656 1428q-70 0 -107 -39t-37 -113v-76h348v-172h-348v-1028h-200v1028h-252v172h252v52q0 348 348 348h200v-172h-204z" />
    <glyph glyph-name="t.ss06" horiz-adv-x="992" 
d="M876 1028h-380v-704q0 -74 37 -113t107 -39h236v-172h-232q-348 0 -348 348v680h-236v172h236l32 320h168v-320h380v-172z" />
    <glyph glyph-name="tbar.ss06" horiz-adv-x="992" 
d="M876 1028h-380v-328h308v-176h-308v-200q0 -74 37 -113t107 -39h236v-172h-232q-348 0 -348 348v176h-228v176h228v328h-236v172h236l32 320h168v-320h380v-172z" />
    <glyph glyph-name="tcaron.ss06" horiz-adv-x="992" 
d="M872 1600l-80 -320h-136v320h216zM876 1028h-380v-704q0 -74 37 -113t107 -39h236v-172h-232q-348 0 -348 348v680h-236v172h236l32 320h168v-320h380v-172z" />
    <glyph glyph-name="uni0163.ss06" horiz-adv-x="992" 
d="M684 -92q87 0 141.5 -44.5t54.5 -123.5q0 -78 -76 -129t-196 -51q-69 0 -137 22.5t-119 61.5l72 108q102 -68 188 -68q51 0 79.5 17t28.5 47q0 26 -23 41t-57 15q-44 0 -84 -20l-108 60l96 156h100q-348 0 -348 348v680h-236v172h236l32 320h168v-320h380v-172h-380v-704
q0 -74 37 -113t107 -39h236v-172h-184l-60 -96q20 4 52 4z" />
    <glyph glyph-name="uni021B.ss06" horiz-adv-x="992" 
d="M876 1028h-380v-704q0 -74 37 -113t107 -39h236v-172h-232q-348 0 -348 348v680h-236v172h236l32 320h168v-320h380v-172zM480 -296v176h224v-148q0 -110 -52.5 -167t-139.5 -57h-32v108h32q39 0 58 21.5t22 66.5h-112z" />
    <glyph glyph-name="y.ss06" horiz-adv-x="1284" 
d="M1028 1200h216l-548 -1412q-70 -188 -276 -188h-228v176h208q85 0 116 80l48 132l-504 1212h220l388 -968z" />
    <glyph glyph-name="yacute.ss06" horiz-adv-x="1284" 
d="M964 1600l-228 -280h-148l116 280h260zM1028 1200h216l-548 -1412q-70 -188 -276 -188h-228v176h208q85 0 116 80l48 132l-504 1212h220l388 -968z" />
    <glyph glyph-name="ycircumflex.ss06" horiz-adv-x="1284" 
d="M652 1472l-148 -152h-188l228 280h216l228 -280h-188zM1028 1200h216l-548 -1412q-70 -188 -276 -188h-228v176h208q85 0 116 80l48 132l-504 1212h220l388 -968z" />
    <glyph glyph-name="ydieresis.ss06" horiz-adv-x="1284" 
d="M568 1600v-224h-224v224h224zM952 1600v-224h-224v224h224zM1028 1200h216l-548 -1412q-70 -188 -276 -188h-228v176h208q85 0 116 80l48 132l-504 1212h220l388 -968z" />
    <glyph glyph-name="ygrave.ss06" horiz-adv-x="1284" 
d="M708 1320h-148l-228 280h260zM1028 1200h216l-548 -1412q-70 -188 -276 -188h-228v176h208q85 0 116 80l48 132l-504 1212h220l388 -968z" />
    <glyph glyph-name="uni0416.ss01" horiz-adv-x="2184" 
d="M2024 192h48v-192h-104q-109 0 -170.5 64.5t-61.5 183.5v436h-540v-684h-208v684h-540v-436q0 -119 -61.5 -183.5t-170.5 -64.5h-104v192h48q36 0 58 22t22 58v604h316l-420 644h224l412 -644h216v644h208v-644h216l412 644h224l-420 -644h316v-604q0 -36 22 -58t58 -22z
" />
    <glyph glyph-name="uni041A.ss01" horiz-adv-x="1556" 
d="M1396 192h48v-192h-104q-109 0 -170.5 64.5t-61.5 183.5v436h-660v-684h-208v1520h208v-644h336l404 644h232l-420 -644h316v-604q0 -36 22 -58t58 -22z" />
    <glyph glyph-name="uni0423.ss01" horiz-adv-x="1536" 
d="M1224 1520h224l-432 -1176q-136 -364 -432 -364q-159 0 -257.5 96t-98.5 252q0 97 39 178t113 134h172l-504 880h240l484 -880h140zM592 164q79 0 131.5 49.5t92.5 154.5l36 100h-372q-52 -58 -52 -132q0 -78 44.5 -125t119.5 -47z" />
    <glyph glyph-name="uni040E.ss01" horiz-adv-x="1536" 
d="M740 1632q-148 0 -238.5 72.5t-105.5 203.5l160 32q6 -81 54.5 -124.5t129.5 -43.5t129.5 43.5t54.5 124.5l160 -32q-15 -131 -105.5 -203.5t-238.5 -72.5zM1224 1520h224l-432 -1176q-136 -364 -432 -364q-159 0 -257.5 96t-98.5 252q0 97 39 178t113 134h172l-504 880
h240l484 -880h140zM592 164q79 0 131.5 49.5t92.5 154.5l36 100h-372q-52 -58 -52 -132q0 -78 44.5 -125t119.5 -47z" />
    <glyph glyph-name="uni042F.ss01" horiz-adv-x="1556" 
d="M1316 1520v-1520h-208v604h-668v-356q0 -119 -61.5 -183.5t-170.5 -64.5h-104v192h48q36 0 58 22t22 58v452h200q-118 48 -181 139.5t-63 216.5q0 201 142 320.5t382 119.5h604zM732 1332q-336 0 -336 -272t336 -272h376v544h-376z" />
    <glyph glyph-name="uni0416.ss02" horiz-adv-x="2264" 
d="M1972 0l-512 760l-224 -224v-536h-208v536l-224 224l-512 -760h-252l616 908l-608 612h260l720 -736v736h208v-736l720 736h260l-608 -612l616 -908h-252z" />
    <glyph glyph-name="uni041A.ss02" horiz-adv-x="1552" 
d="M1256 0l-572 752l-236 -232v-520h-208v1520h208v-760l760 760h260l-636 -624l680 -896h-256z" />
    <glyph glyph-name="uni042F.ss02" horiz-adv-x="1540" 
d="M1300 1520v-1520h-208v608h-400l-372 -608h-240l396 640q-145 48 -226.5 158.5t-81.5 265.5q0 207 141.5 331.5t378.5 124.5h612zM716 788h376v544h-376q-336 0 -336 -272t336 -272z" />
    <glyph glyph-name="uni0416.ss03" horiz-adv-x="2184" 
d="M2024 192h48v-192h-104q-109 0 -170.5 64.5t-61.5 183.5v436h-540v-684h-208v684h-540v-436q0 -119 -61.5 -183.5t-170.5 -64.5h-104v192h48q36 0 58 22t22 58v604h316l-420 644h224l412 -644h216v644h208v-644h216l412 644h224l-420 -644h316v-604q0 -36 22 -58t58 -22z
" />
    <glyph glyph-name="uni041A.ss03" horiz-adv-x="1556" 
d="M1396 192h48v-192h-104q-109 0 -170.5 64.5t-61.5 183.5v436h-660v-684h-208v1520h208v-644h336l404 644h232l-420 -644h316v-604q0 -36 22 -58t58 -22z" />
    <glyph glyph-name="uni0423.ss03" horiz-adv-x="1536" 
d="M1224 1520h224l-432 -1176q-136 -364 -432 -364q-159 0 -257.5 96t-98.5 252q0 97 39 178t113 134h172l-504 880h240l484 -880h140zM592 164q79 0 131.5 49.5t92.5 154.5l36 100h-372q-52 -58 -52 -132q0 -78 44.5 -125t119.5 -47z" />
    <glyph glyph-name="uni040E.ss03" horiz-adv-x="1536" 
d="M740 1632q-148 0 -238.5 72.5t-105.5 203.5l160 32q6 -81 54.5 -124.5t129.5 -43.5t129.5 43.5t54.5 124.5l160 -32q-15 -131 -105.5 -203.5t-238.5 -72.5zM1224 1520h224l-432 -1176q-136 -364 -432 -364q-159 0 -257.5 96t-98.5 252q0 97 39 178t113 134h172l-504 880
h240l484 -880h140zM592 164q79 0 131.5 49.5t92.5 154.5l36 100h-372q-52 -58 -52 -132q0 -78 44.5 -125t119.5 -47z" />
    <glyph glyph-name="uni042F.ss03" horiz-adv-x="1556" 
d="M1316 1520v-1520h-208v604h-668v-356q0 -119 -61.5 -183.5t-170.5 -64.5h-104v192h48q36 0 58 22t22 58v452h200q-118 48 -181 139.5t-63 216.5q0 201 142 320.5t382 119.5h604zM732 1332q-336 0 -336 -272t336 -272h376v544h-376z" />
    <glyph glyph-name="uni0416.ss04" horiz-adv-x="2200" 
d="M2040 192h48v-192h-104q-109 0 -170.5 64.5t-61.5 183.5v256q0 82 -43.5 129t-120.5 47h-384v-680h-208v680h-384q-77 0 -120.5 -47t-43.5 -129v-256q0 -119 -61.5 -183.5t-170.5 -64.5h-104v192h48q36 0 58 22t22 58v224q0 158 69 249.5t199 106.5l-364 668h228
l344 -648h280v648h208v-648h280l344 648h228l-364 -668q130 -15 199 -106.5t69 -249.5v-224q0 -36 22 -58t58 -22z" />
    <glyph glyph-name="uni041A.ss04" horiz-adv-x="1556" 
d="M1396 192h48v-192h-104q-109 0 -170.5 64.5t-61.5 183.5v260q0 82 -43.5 129t-120.5 47h-496v-684h-208v1520h208v-644h400l352 644h220l-364 -664q127 -18 193.5 -108t66.5 -248v-228q0 -36 22 -58t58 -22z" />
    <glyph glyph-name="uni042F.ss04" horiz-adv-x="1556" 
d="M1316 1520v-1520h-208v604h-508q-77 0 -120.5 -47t-43.5 -129v-180q0 -119 -61.5 -183.5t-170.5 -64.5h-104v192h48q36 0 58 22t22 58v136q0 113 43.5 190t124.5 110q-208 110 -208 352q0 210 142 335t382 125h604zM732 1332q-336 0 -336 -272t336 -272h376v544h-376z
" />
    <glyph glyph-name="uni0416.ss05" horiz-adv-x="2200" 
d="M2040 192h48v-192h-104q-109 0 -170.5 64.5t-61.5 183.5v256q0 82 -43.5 129t-120.5 47h-384v-680h-208v680h-384q-77 0 -120.5 -47t-43.5 -129v-256q0 -119 -61.5 -183.5t-170.5 -64.5h-104v192h48q36 0 58 22t22 58v224q0 158 69 249.5t199 106.5l-364 668h228
l344 -648h280v648h208v-648h280l344 648h228l-364 -668q130 -15 199 -106.5t69 -249.5v-224q0 -36 22 -58t58 -22z" />
    <glyph glyph-name="uni041A.ss05" horiz-adv-x="1556" 
d="M1396 192h48v-192h-104q-109 0 -170.5 64.5t-61.5 183.5v260q0 82 -43.5 129t-120.5 47h-496v-684h-208v1520h208v-644h400l352 644h220l-364 -664q127 -18 193.5 -108t66.5 -248v-228q0 -36 22 -58t58 -22z" />
    <glyph glyph-name="uni042F.ss05" horiz-adv-x="1556" 
d="M1316 1520v-1520h-208v604h-508q-77 0 -120.5 -47t-43.5 -129v-180q0 -119 -61.5 -183.5t-170.5 -64.5h-104v192h48q36 0 58 22t22 58v136q0 113 43.5 190t124.5 110q-208 110 -208 352q0 210 142 335t382 125h604zM732 1332q-336 0 -336 -272t336 -272h376v544h-376z
" />
    <glyph glyph-name="uni0423.ss06" horiz-adv-x="1536" 
d="M1288 1520h216l-584 -1308q-56 -123 -133.5 -167.5t-190.5 -44.5h-272v192h264q54 0 83.5 22t56.5 82v4l-660 1220h236l544 -1036z" />
    <glyph glyph-name="uni040E.ss06" horiz-adv-x="1536" 
d="M764 1632q-148 0 -238.5 72.5t-105.5 203.5l160 32q6 -81 54.5 -124.5t129.5 -43.5t129.5 43.5t54.5 124.5l160 -32q-15 -131 -105.5 -203.5t-238.5 -72.5zM1288 1520h216l-584 -1308q-56 -123 -133.5 -167.5t-190.5 -44.5h-272v192h264q54 0 83.5 22t56.5 82v4
l-660 1220h236l544 -1036z" />
    <glyph glyph-name="uni041D.ss07" horiz-adv-x="1720" 
d="M1284 1520h196v-1520h-204l-840 1196v-1196h-196v1520h208l836 -1188v1188z" />
    <glyph glyph-name="uni0410.stress" horiz-adv-x="1560" 
d="M1096 1920l-228 -280h-148l116 280h260zM1308 0l-152 380h-756l-152 -380h-216l624 1520h248l624 -1520h-220zM472 564h608l-304 760z" />
    <glyph glyph-name="uni0415.stress" horiz-adv-x="1360" 
d="M1056 1920l-228 -280h-148l116 280h260zM448 188h832v-188h-1040v1520h1020v-188h-812v-460h632v-184h-632v-500z" />
    <glyph glyph-name="uni0401.stress" horiz-adv-x="1360" 
d="M948 1976l-228 -280h-148l116 280h260zM552 1920v-224h-224v224h224zM928 1696v224h224v-224h-224zM448 188h832v-188h-1040v1520h1020v-188h-812v-460h632v-184h-632v-500z" />
    <glyph glyph-name="uni0418.stress" horiz-adv-x="1720" 
d="M1176 1920l-228 -280h-148l116 280h260zM1272 1520h208v-1520h-208v1208l-828 -1208h-204v1520h208v-1200z" />
    <glyph glyph-name="uni041E.stress" horiz-adv-x="1680" 
d="M780 1640l116 280h260l-228 -280h-148zM840 -20q-327 0 -523.5 213t-196.5 567q0 227 91 405t255 276.5t374 98.5q327 0 523.5 -213t196.5 -567q0 -227 -91 -405t-255 -276.5t-374 -98.5zM840 164q231 0 369.5 163t138.5 433t-138.5 433t-369.5 163t-369.5 -163
t-138.5 -433t138.5 -433t369.5 -163z" />
    <glyph glyph-name="uni0423.stress" horiz-adv-x="1536" 
d="M1080 1920l-228 -280h-148l116 280h260zM1252 1520h224l-524 -1252q-117 -288 -356 -288q-140 0 -225 88t-91 236l184 44q6 -95 38.5 -141.5t97.5 -46.5q108 0 148 100l-696 1260h240l548 -1048z" />
    <glyph glyph-name="uni042B.stress" horiz-adv-x="2108" 
d="M1372 1920l-228 -280h-148l116 280h260zM876 920q240 0 382 -125t142 -335t-142 -335t-382 -125h-636v1520h208v-600h428zM1660 1520h208v-1520h-208v1520zM852 188q336 0 336 272t-336 272h-404v-544h404z" />
    <glyph glyph-name="uni0404.stress" horiz-adv-x="1540" 
d="M1148 1920l-228 -280h-148l116 280h260zM832 164q165 0 276.5 85t159.5 247l192 -68q-66 -209 -232.5 -328.5t-395.5 -119.5q-324 0 -518 213t-194 567q0 227 90 405t252 276.5t370 98.5q232 0 395.5 -116.5t232.5 -331.5l-192 -68q-48 162 -159.5 247t-276.5 85
q-201 0 -337 -131t-163 -353h648v-184h-652q18 -243 153 -383.5t351 -140.5z" />
    <glyph glyph-name="uni042D.stress" horiz-adv-x="1520" 
d="M1004 1920l-228 -280h-148l116 280h260zM688 1540q324 0 518 -213t194 -567q0 -227 -90 -405t-252 -276.5t-370 -98.5q-229 0 -395.5 119.5t-232.5 328.5l192 68q48 -162 159.5 -247t276.5 -85q211 0 348.5 142.5t155.5 381.5h-652v184h648q-27 225 -160 354.5
t-340 129.5q-165 0 -276.5 -85t-159.5 -247l-192 68q68 213 236.5 330.5t391.5 117.5z" />
    <glyph glyph-name="uni0406.stress" horiz-adv-x="688" 
d="M284 1640l116 280h260l-228 -280h-148zM240 0v1520h208v-1520h-208z" />
    <glyph glyph-name="uni0407.stress" horiz-adv-x="688" 
d="M176 1696l116 280h260l-228 -280h-148zM-68 1696v224h224v-224h-224zM532 1696v224h224v-224h-224zM240 0v1520h208v-1520h-208z" />
    <glyph glyph-name="uni042E.stress" horiz-adv-x="2280" 
d="M1348 1920l-228 -280h-148l116 280h260zM1460 1540q318 0 509 -213t191 -567q0 -227 -88.5 -405t-248 -276.5t-363.5 -98.5q-299 0 -487 191t-209 513h-316v-684h-208v1520h208v-644h320q33 298 222 481t470 183zM1460 164q222 0 355 163t133 433t-133 433t-355 163
t-355 -163t-133 -433t133 -433t355 -163z" />
    <glyph glyph-name="uni042F.stress" horiz-adv-x="1540" 
d="M1148 1920l-228 -280h-148l116 280h260zM1300 1520v-1520h-208v608h-400l-372 -608h-240l396 640q-145 48 -226.5 158.5t-81.5 265.5q0 207 141.5 331.5t378.5 124.5h612zM716 788h376v544h-376q-336 0 -336 -272t336 -272z" />
    <glyph glyph-name="uni0423.ss03.stress" horiz-adv-x="1536" 
d="M1056 1920l-228 -280h-148l116 280h260zM1224 1520h224l-432 -1176q-136 -364 -432 -364q-159 0 -257.5 96t-98.5 252q0 97 39 178t113 134h172l-504 880h240l484 -880h140zM592 164q79 0 131.5 49.5t92.5 154.5l36 100h-372q-52 -58 -52 -132q0 -78 44.5 -125t119.5 -47
z" />
    <glyph glyph-name="uni042F.ss03.stress" horiz-adv-x="1556" 
d="M1108 1920l-228 -280h-148l116 280h260zM1316 1520v-1520h-208v604h-668v-356q0 -119 -61.5 -183.5t-170.5 -64.5h-104v192h48q36 0 58 22t22 58v452h200q-118 48 -181 139.5t-63 216.5q0 201 142 320.5t382 119.5h604zM732 1332q-336 0 -336 -272t336 -272h376v544h-376
z" />
    <glyph glyph-name="uni042F.ss04.stress" horiz-adv-x="1556" 
d="M1128 1920l-228 -280h-148l116 280h260zM1316 1520v-1520h-208v604h-508q-77 0 -120.5 -47t-43.5 -129v-180q0 -119 -61.5 -183.5t-170.5 -64.5h-104v192h48q36 0 58 22t22 58v136q0 113 43.5 190t124.5 110q-208 110 -208 352q0 210 142 335t382 125h604zM732 1332
q-336 0 -336 -272t336 -272h376v544h-376z" />
    <glyph glyph-name="uni0423.ss06.stress" horiz-adv-x="1536" 
d="M1080 1920l-228 -280h-148l116 280h260zM1288 1520h216l-584 -1308q-56 -123 -133.5 -167.5t-190.5 -44.5h-272v192h264q54 0 83.5 22t56.5 82v4l-660 1220h236l544 -1036z" />
    <glyph glyph-name="uni0436.ss01" horiz-adv-x="1872" 
d="M1724 176h44v-176h-96q-96 0 -150 54t-54 150v316h-432v-520h-200v520h-432v-316q0 -96 -54 -150t-150 -54h-96v176h44q27 0 43.5 16.5t16.5 43.5v452h224l-304 512h216l288 -500h204v900h200v-900h204l288 500h216l-304 -512h224v-452q0 -27 16.5 -43.5t43.5 -16.5z" />
    <glyph glyph-name="uni043A.ss01" horiz-adv-x="1316" 
d="M1168 176h44v-176h-96q-96 0 -150 54t-54 150v316h-512v-520h-200v1600h200v-896h284l288 496h216l-304 -512h224v-452q0 -27 16.5 -43.5t43.5 -16.5z" />
    <glyph glyph-name="uni0443.ss01" horiz-adv-x="1284" 
d="M1040 1200h212l-408 -1200q-75 -219 -175 -319.5t-241 -100.5q-138 0 -223 88.5t-85 235.5q0 158 120 272h172l-400 1024h220l368 -1024h108zM436 -248q53 0 99 44t73 120l32 84h-304q-36 -48 -36 -100q0 -66 38 -107t98 -41z" />
    <glyph glyph-name="uni045E.ss01" horiz-adv-x="1284" 
d="M648 1312q-148 0 -238.5 72.5t-105.5 203.5l160 32q6 -81 54.5 -124.5t129.5 -43.5t129.5 43.5t54.5 124.5l160 -32q-15 -131 -105.5 -203.5t-238.5 -72.5zM1040 1200h212l-408 -1200q-75 -219 -175 -319.5t-241 -100.5q-138 0 -223 88.5t-85 235.5q0 158 120 272h172
l-400 1024h220l368 -1024h108zM436 -248q53 0 99 44t73 120l32 84h-304q-36 -48 -36 -100q0 -66 38 -107t98 -41z" />
    <glyph glyph-name="uni044F.ss01" horiz-adv-x="1320" 
d="M1120 1200v-1200h-200v460h-516v-256q0 -96 -54 -150t-150 -54h-96v176h44q27 0 43.5 16.5t16.5 43.5v320h188q-107 40 -167.5 116t-60.5 176q0 157 114 254.5t302 97.5h536zM608 1032q-113 0 -176.5 -53.5t-63.5 -146.5q0 -90 73.5 -147t190.5 -57h288v404h-312z" />
    <glyph glyph-name="uni0436.ss02" horiz-adv-x="1888" 
d="M1620 0l-404 584l-172 -168v-416h-200v416l-172 172l-404 -588h-248l512 724l-488 476h256l544 -548v948h200v-948l544 548h256l-488 -476l512 -724h-248z" />
    <glyph glyph-name="uni043A.ss02" horiz-adv-x="1264" 
d="M1016 0l-436 580l-180 -168v-412h-200v1600h200v-956l584 556h256l-516 -484l540 -716h-248z" />
    <glyph glyph-name="uni044F.ss02" horiz-adv-x="1276" 
d="M1076 1200v-1200h-200v472h-292l-308 -472h-228l328 500q-114 36 -179 121.5t-65 202.5q0 169 116.5 272.5t307.5 103.5h520zM572 628h304v400h-304q-113 0 -176.5 -52.5t-63.5 -143.5q0 -96 63 -150t177 -54z" />
    <glyph glyph-name="uni0436.ss03" horiz-adv-x="1872" 
d="M1724 176h44v-176h-96q-96 0 -150 54t-54 150v316h-432v-520h-200v520h-432v-316q0 -96 -54 -150t-150 -54h-96v176h44q27 0 43.5 16.5t16.5 43.5v452h224l-304 512h216l288 -500h204v500h200v-500h204l288 500h216l-304 -512h224v-452q0 -27 16.5 -43.5t43.5 -16.5z" />
    <glyph glyph-name="uni043A.ss03" horiz-adv-x="1316" 
d="M1168 176h44v-176h-96q-96 0 -150 54t-54 150v316h-512v-520h-200v1200h200v-496h284l288 496h216l-304 -512h224v-452q0 -27 16.5 -43.5t43.5 -16.5z" />
    <glyph glyph-name="uni0443.ss03" horiz-adv-x="1284" 
d="M1040 1200h212l-408 -1200q-75 -219 -175 -319.5t-241 -100.5q-138 0 -223 88.5t-85 235.5q0 158 120 272h172l-400 1024h220l368 -1024h108zM436 -248q53 0 99 44t73 120l32 84h-304q-36 -48 -36 -100q0 -66 38 -107t98 -41z" />
    <glyph glyph-name="uni045E.ss03" horiz-adv-x="1284" 
d="M648 1312q-148 0 -238.5 72.5t-105.5 203.5l160 32q6 -81 54.5 -124.5t129.5 -43.5t129.5 43.5t54.5 124.5l160 -32q-15 -131 -105.5 -203.5t-238.5 -72.5zM1040 1200h212l-408 -1200q-75 -219 -175 -319.5t-241 -100.5q-138 0 -223 88.5t-85 235.5q0 158 120 272h172
l-400 1024h220l368 -1024h108zM436 -248q53 0 99 44t73 120l32 84h-304q-36 -48 -36 -100q0 -66 38 -107t98 -41z" />
    <glyph glyph-name="uni044F.ss03" horiz-adv-x="1320" 
d="M1120 1200v-1200h-200v460h-516v-256q0 -96 -54 -150t-150 -54h-96v176h44q27 0 43.5 16.5t16.5 43.5v320h188q-107 40 -167.5 116t-60.5 176q0 157 114 254.5t302 97.5h536zM608 1032q-113 0 -176.5 -53.5t-63.5 -146.5q0 -90 73.5 -147t190.5 -57h288v404h-312z" />
    <glyph glyph-name="uni0436.ss04" horiz-adv-x="1896" 
d="M1740 176h44v-176h-92q-96 0 -150 54t-54 150v172q0 66 -37 103t-103 37h-300v-516h-200v516h-300q-66 0 -103 -37t-37 -103v-172q0 -96 -54 -150t-150 -54h-92v176h44q27 0 43.5 16.5t16.5 43.5v148q0 252 216 288l-304 528h216l272 -508h232v908h200v-908h232l272 508
h216l-304 -528q216 -36 216 -288v-148q0 -27 16.5 -43.5t43.5 -16.5z" />
    <glyph glyph-name="uni043A.ss04" horiz-adv-x="1316" 
d="M1160 176h44v-176h-96q-96 0 -150 54t-54 150v172q0 66 -37 103t-103 37h-364v-516h-200v1600h200v-908h288l284 508h216l-304 -528q216 -36 216 -288v-148q0 -27 16.5 -43.5t43.5 -16.5z" />
    <glyph glyph-name="uni044F.ss04" horiz-adv-x="1320" 
d="M1120 1200v-1200h-200v460h-388q-66 0 -103 -37t-37 -103v-116q0 -96 -54 -150t-150 -54h-88v176h44q27 0 43.5 16.5t16.5 43.5v96q0 94 32.5 146t99.5 70q-79 43 -123.5 116t-44.5 168q0 166 114 267t302 101h536zM608 1028q-113 0 -176.5 -52.5t-63.5 -143.5
q0 -96 63 -150t177 -54h312v400h-312z" />
    <glyph glyph-name="uni0436.ss05" horiz-adv-x="1896" 
d="M1740 176h44v-176h-92q-96 0 -150 54t-54 150v172q0 66 -37 103t-103 37h-300v-516h-200v516h-300q-66 0 -103 -37t-37 -103v-172q0 -96 -54 -150t-150 -54h-92v176h44q27 0 43.5 16.5t16.5 43.5v148q0 252 216 288l-304 528h216l272 -508h232v508h200v-508h232l272 508
h216l-304 -528q216 -36 216 -288v-148q0 -27 16.5 -43.5t43.5 -16.5z" />
    <glyph glyph-name="uni043A.ss05" horiz-adv-x="1316" 
d="M1160 176h44v-176h-96q-96 0 -150 54t-54 150v172q0 66 -37 103t-103 37h-364v-516h-200v1200h200v-508h288l284 508h216l-304 -528q216 -36 216 -288v-148q0 -27 16.5 -43.5t43.5 -16.5z" />
    <glyph glyph-name="uni044F.ss05" horiz-adv-x="1320" 
d="M1120 1200v-1200h-200v460h-388q-66 0 -103 -37t-37 -103v-116q0 -96 -54 -150t-150 -54h-88v176h44q27 0 43.5 16.5t16.5 43.5v96q0 94 32.5 146t99.5 70q-79 43 -123.5 116t-44.5 168q0 166 114 267t302 101h536zM608 1028q-113 0 -176.5 -52.5t-63.5 -143.5
q0 -96 63 -150t177 -54h312v400h-312z" />
    <glyph glyph-name="uni0443.ss06" horiz-adv-x="1284" 
d="M1028 1200h216l-548 -1412q-70 -188 -276 -188h-228v176h208q85 0 116 80l48 132l-504 1212h220l388 -968z" />
    <glyph glyph-name="uni045E.ss06" horiz-adv-x="1284" 
d="M648 1312q-148 0 -238.5 72.5t-105.5 203.5l160 32q6 -81 54.5 -124.5t129.5 -43.5t129.5 43.5t54.5 124.5l160 -32q-15 -131 -105.5 -203.5t-238.5 -72.5zM1028 1200h216l-548 -1412q-70 -188 -276 -188h-228v176h208q85 0 116 80l48 132l-504 1212h220l388 -968z" />
    <glyph glyph-name="uni043D.ss07" 
d="M1048 1200h192v-1200h-212l-636 896v-896h-192v1200h212l636 -896v896z" />
    <glyph glyph-name="uni0430.stress" horiz-adv-x="1268" 
d="M932 1600l-228 -280h-148l116 280h260zM1144 176h44v-176q-16 -8 -68 -8q-111 0 -161 44t-59 152q-67 -95 -181 -151.5t-247 -56.5q-174 0 -283 98.5t-109 257.5q0 60 17 110.5t43.5 87t68.5 66.5t84 49.5t98 35.5t101.5 25t103.5 18q172 27 226 50.5t54 93.5
q0 80 -73.5 128t-194.5 48q-105 0 -203 -43t-173 -121l-124 128q208 208 508 208q208 0 328 -104.5t120 -287.5v-572q0 -42 19 -61t61 -19zM496 148q150 0 263 90.5t113 213.5v184q-30 -22 -82 -34.5t-166 -29.5q-39 -6 -57 -9.5t-53.5 -11t-54 -13t-47.5 -16.5t-44.5 -22
t-35 -27.5t-29 -35.5t-16.5 -43.5t-7 -53.5q0 -92 56.5 -142t159.5 -50z" />
    <glyph glyph-name="uni0435.stress" horiz-adv-x="1364" 
d="M1000 1600l-228 -280h-148l116 280h260zM312 536q18 -175 124 -277.5t276 -102.5q258 0 372 164l144 -124q-73 -96 -201 -156t-311 -60q-189 0 -328.5 81t-209.5 220.5t-70 318.5q0 275 164.5 447.5t423.5 172.5q258 0 413 -169t155 -451q0 -44 -4 -64h-948zM696 1048
q-155 0 -255.5 -94.5t-124.5 -257.5h740q-21 163 -117.5 257.5t-242.5 94.5z" />
    <glyph glyph-name="uni0451.stress" horiz-adv-x="1364" 
d="M892 1656l-228 -280h-148l116 280h260zM496 1600v-224h-224v224h224zM872 1376v224h224v-224h-224zM312 536q18 -175 124 -277.5t276 -102.5q258 0 372 164l144 -124q-73 -96 -201 -156t-311 -60q-189 0 -328.5 81t-209.5 220.5t-70 318.5q0 275 164.5 447.5t423.5 172.5
q258 0 413 -169t155 -451q0 -44 -4 -64h-948zM696 1048q-155 0 -255.5 -94.5t-124.5 -257.5h740q-21 163 -117.5 257.5t-242.5 94.5z" />
    <glyph glyph-name="uni0438.stress" 
d="M1036 1600l-228 -280h-148l116 280h260zM1028 1200h212v-1200h-196v932l-632 -932h-212v1200h196v-932z" />
    <glyph glyph-name="uni043E.stress" horiz-adv-x="1416" 
d="M648 1320l116 280h260l-228 -280h-148zM708 -20q-273 0 -436.5 169t-163.5 451q0 275 167.5 447.5t432.5 172.5q273 0 436.5 -169t163.5 -451q0 -275 -167.5 -447.5t-432.5 -172.5zM708 156q180 0 288 121.5t108 322.5t-108 322.5t-288 121.5t-288 -121.5t-108 -322.5
t108 -322.5t288 -121.5z" />
    <glyph glyph-name="uni0443.stress" horiz-adv-x="1284" 
d="M964 1600l-228 -280h-148l116 280h260zM1052 1200h208l-460 -1264q-27 -74 -62 -135.5t-81 -112.5t-107 -79.5t-130 -28.5q-155 0 -237 95t-79 241l180 32q-8 -184 136 -184q55 0 97 36.5t79 111.5l-564 1288h220l440 -1052z" />
    <glyph glyph-name="uni044B.stress" horiz-adv-x="1780" 
d="M832 1320l116 280h260l-228 -280h-148zM756 728q189 0 302.5 -99.5t113.5 -264.5t-113.5 -264.5t-302.5 -99.5h-556v1200h200v-472h356zM1380 1200h200v-1200h-200v1200zM744 176q108 0 166 49t58 139t-58 139t-166 49h-344v-376h344z" />
    <glyph glyph-name="uni0454.stress" horiz-adv-x="1308" 
d="M1012 1600l-228 -280h-148l116 280h260zM700 156q119 0 210.5 64t133.5 176l184 -60q-50 -166 -193.5 -261t-334.5 -95q-262 0 -427 172.5t-165 447.5t165 447.5t427 172.5q194 0 335.5 -94.5t192.5 -261.5l-188 -60q-42 112 -131.5 176t-208.5 64q-158 0 -259 -92
t-125 -252h544v-176h-548q18 -170 121 -269t267 -99z" />
    <glyph glyph-name="uni044D.stress" horiz-adv-x="1308" 
d="M920 1600l-228 -280h-148l116 280h260zM608 1220q262 0 427 -172.5t165 -447.5t-165 -447.5t-427 -172.5q-191 0 -334.5 95t-193.5 261l184 60q42 -112 133.5 -176t210.5 -64q164 0 267 99t121 269h-548v176h544q-24 160 -125 252t-259 92q-122 0 -214 -64t-134 -176
l-180 56q56 168 200.5 264t327.5 96z" />
    <glyph glyph-name="uni0456.stress" horiz-adv-x="640" 
d="M260 1320l116 280h260l-228 -280h-148zM220 0v1200h200v-1200h-200z" />
    <glyph glyph-name="uni0457.stress" horiz-adv-x="640" 
d="M152 1376l116 280h260l-228 -280h-148zM-92 1376v224h224v-224h-224zM508 1376v224h224v-224h-224zM220 0v1200h200v-1200h-200z" />
    <glyph glyph-name="uni044E.stress" horiz-adv-x="1928" 
d="M1180 1600l-228 -280h-148l116 280h260zM1240 1220q264 0 422 -169t158 -451q0 -275 -162 -447.5t-418 -172.5q-246 0 -400.5 145.5t-175.5 394.5h-264v-520h-200v1200h200v-496h268q30 234 185.5 375t386.5 141zM1240 156q171 0 273.5 121.5t102.5 322.5t-102.5 322.5
t-273.5 121.5t-273.5 -121.5t-102.5 -322.5t102.5 -322.5t273.5 -121.5z" />
    <glyph glyph-name="uni044F.stress" horiz-adv-x="1276" 
d="M976 1600l-228 -280h-148l116 280h260zM1076 1200v-1200h-200v472h-292l-308 -472h-228l328 500q-114 36 -179 121.5t-65 202.5q0 169 116.5 272.5t307.5 103.5h520zM572 628h304v400h-304q-113 0 -176.5 -52.5t-63.5 -143.5q0 -96 63 -150t177 -54z" />
    <glyph glyph-name="uni0443.ss03.stress" horiz-adv-x="1284" 
d="M964 1600l-228 -280h-148l116 280h260zM1040 1200h212l-408 -1200q-75 -219 -175 -319.5t-241 -100.5q-138 0 -223 88.5t-85 235.5q0 158 120 272h172l-400 1024h220l368 -1024h108zM436 -248q53 0 99 44t73 120l32 84h-304q-36 -48 -36 -100q0 -66 38 -107t98 -41z" />
    <glyph glyph-name="uni044F.ss03.stress" horiz-adv-x="1320" 
d="M960 1600l-228 -280h-148l116 280h260zM1120 1200v-1200h-200v460h-516v-256q0 -96 -54 -150t-150 -54h-96v176h44q27 0 43.5 16.5t16.5 43.5v320h188q-107 40 -167.5 116t-60.5 176q0 157 114 254.5t302 97.5h536zM608 1032q-113 0 -176.5 -53.5t-63.5 -146.5
q0 -90 73.5 -147t190.5 -57h288v404h-312z" />
    <glyph glyph-name="uni044F.ss04.stress" horiz-adv-x="1320" 
d="M996 1600l-228 -280h-148l116 280h260zM1120 1200v-1200h-200v460h-388q-66 0 -103 -37t-37 -103v-116q0 -96 -54 -150t-150 -54h-88v176h44q27 0 43.5 16.5t16.5 43.5v96q0 94 32.5 146t99.5 70q-79 43 -123.5 116t-44.5 168q0 166 114 267t302 101h536zM608 1028
q-113 0 -176.5 -52.5t-63.5 -143.5q0 -96 63 -150t177 -54h312v400h-312z" />
    <glyph glyph-name="uni0443.ss06.stress" horiz-adv-x="1284" 
d="M964 1600l-228 -280h-148l116 280h260zM1028 1200h216l-548 -1412q-70 -188 -276 -188h-228v176h208q85 0 116 80l48 132l-504 1212h220l388 -968z" />
    <glyph glyph-name="zero.zero" 
d="M720 1540q273 0 436.5 -213t163.5 -567t-163.5 -567t-436.5 -213t-436.5 213t-163.5 567t163.5 567t436.5 213zM720 1368q-192 0 -300 -160t-108 -448q0 -224 68 -372l584 888q-98 92 -244 92zM720 152q192 0 300 160t108 448q0 224 -68 372l-584 -888q98 -92 244 -92z
" />
    <glyph glyph-name="zero.lf" 
d="M720 -20q-273 0 -436.5 213t-163.5 567t163.5 567t436.5 213t436.5 -213t163.5 -567t-163.5 -567t-436.5 -213zM720 160q180 0 288 163.5t108 436.5t-108 436.5t-288 163.5t-288 -163.5t-108 -436.5t108 -436.5t288 -163.5z" />
    <glyph glyph-name="one.lf" horiz-adv-x="900" 
d="M420 0v1108h-360v156h60q137 0 209.5 23t106.5 76.5t44 156.5h140v-1520h-200z" />
    <glyph glyph-name="two.lf" horiz-adv-x="1204" 
d="M360 188h764v-188h-1064v128l524 480q157 145 226.5 257.5t69.5 222.5q0 123 -79 199.5t-205 76.5q-151 0 -241.5 -90.5t-102.5 -257.5l-188 40q21 224 167.5 354t372.5 130q213 0 346.5 -122.5t133.5 -317.5q0 -144 -96.5 -289t-311.5 -339z" />
    <glyph glyph-name="three.lf" horiz-adv-x="1220" 
d="M676 932q192 0 318 -126.5t126 -321.5q0 -216 -157.5 -360t-394.5 -144q-192 0 -335.5 83.5t-212.5 236.5l156 96q111 -240 376 -240q171 0 267.5 87.5t96.5 240.5q0 135 -79.5 217.5t-208.5 82.5q-104 0 -176 -48l-108 112l464 488h-724v184h992v-144l-428 -444h28z" />
    <glyph glyph-name="four.lf" horiz-adv-x="1280" 
d="M1260 560v-172h-252v-388h-200v388h-748v156l708 976h240v-960h252zM272 560h536v740z" />
    <glyph glyph-name="five.lf" horiz-adv-x="1264" 
d="M628 1020q225 0 372.5 -145.5t147.5 -370.5q0 -231 -158 -377.5t-410 -146.5q-174 0 -310 75.5t-206 204.5l144 104q52 -92 153 -150t219 -58q165 0 266.5 96t101.5 252t-94 252t-250 96q-103 0 -183.5 -44t-128.5 -128l-156 48l68 792h832v-184h-672l-36 -424
q114 108 300 108z" />
    <glyph glyph-name="six.lf" horiz-adv-x="1304" 
d="M740 968q145 0 260.5 -56.5t183.5 -167t68 -256.5t-76 -263.5t-200 -181t-268 -63.5q-123 0 -223.5 42t-167 113.5t-112 169.5t-65.5 206.5t-20 228.5q0 126 21.5 240t69.5 217.5t119 178.5t177.5 119.5t236.5 44.5q140 0 263.5 -53.5t204.5 -158.5l-136 -128
q-120 168 -332 168q-98 0 -176 -36t-127 -95t-81 -139t-44.5 -163.5t-11.5 -174.5v-24q66 111 180.5 171.5t255.5 60.5zM708 152q145 0 248.5 90.5t103.5 233.5q0 147 -96.5 235.5t-243.5 88.5q-148 0 -250 -87.5t-102 -228.5q0 -149 94.5 -240.5t245.5 -91.5z" />
    <glyph glyph-name="seven.lf" horiz-adv-x="1116" 
d="M20 1520h1096v-144q-261 -240 -412.5 -604.5t-151.5 -771.5h-208q0 386 153.5 747.5t386.5 588.5h-864v184z" />
    <glyph glyph-name="eight.lf" horiz-adv-x="1296" 
d="M920 768q131 -49 203.5 -143.5t72.5 -224.5q0 -189 -150 -304.5t-398 -115.5t-398 115.5t-150 304.5q0 130 72.5 224.5t203.5 143.5q-111 48 -171.5 138t-60.5 210q0 193 137 308.5t367 115.5t367 -115.5t137 -308.5q0 -120 -60.5 -210t-171.5 -138zM648 1380
q-141 0 -224.5 -74.5t-83.5 -197.5t83.5 -195.5t224.5 -72.5t224.5 72.5t83.5 195.5t-83.5 197.5t-224.5 74.5zM648 140q159 0 255.5 74.5t96.5 197.5t-96 195.5t-256 72.5t-256 -72.5t-96 -195.5t96.5 -197.5t255.5 -74.5z" />
    <glyph glyph-name="nine.lf" horiz-adv-x="1304" 
d="M596 1540q123 0 223.5 -42t167 -113.5t112 -169.5t65.5 -206.5t20 -228.5q0 -126 -21.5 -240t-69.5 -217.5t-119 -178.5t-177.5 -119.5t-236.5 -44.5q-140 0 -263.5 53.5t-204.5 158.5l136 128q120 -168 332 -168q98 0 176 36t127 95t81 139t44.5 163.5t11.5 174.5v24
q-66 -111 -180.5 -171.5t-255.5 -60.5q-145 0 -260.5 56.5t-183.5 167t-68 256.5t76 263.5t200 181t268 63.5zM584 720q148 0 250 87.5t102 228.5q0 149 -94.5 240.5t-245.5 91.5q-145 0 -248.5 -90.5t-103.5 -233.5q0 -147 96.5 -235.5t243.5 -88.5z" />
    <glyph glyph-name="zero.lf.zero" 
d="M720 1540q273 0 436.5 -213t163.5 -567t-163.5 -567t-436.5 -213t-436.5 213t-163.5 567t163.5 567t436.5 213zM720 1368q-192 0 -300 -160t-108 -448q0 -224 68 -372l584 888q-98 92 -244 92zM720 152q192 0 300 160t108 448q0 224 -68 372l-584 -888q98 -92 244 -92z
" />
    <glyph glyph-name="zero.osf" 
d="M720 -20q-273 0 -436.5 180t-163.5 480q0 293 167.5 476.5t432.5 183.5q273 0 436.5 -180t163.5 -480q0 -293 -167.5 -476.5t-432.5 -183.5zM720 160q180 0 288 130.5t108 349.5t-108 349.5t-288 130.5t-288 -130.5t-108 -349.5t108 -349.5t288 -130.5z" />
    <glyph glyph-name="one.osf" horiz-adv-x="900" 
d="M428 0v888h-360v156h60q137 0 209.5 23t106.5 76.5t44 156.5h140v-1300h-200z" />
    <glyph glyph-name="two.osf" horiz-adv-x="1200" 
d="M436 192h756v-192h-1132v128l508 352q191 131 255.5 213t64.5 191t-74.5 174.5t-205.5 65.5q-150 0 -241 -79t-119 -221l-176 32q32 206 183 325t365 119q206 0 335 -109.5t129 -290.5q0 -145 -87.5 -260t-332.5 -288z" />
    <glyph glyph-name="three.osf" horiz-adv-x="1200" 
d="M676 692q192 0 318 -126.5t126 -321.5q0 -216 -157.5 -360t-394.5 -144q-192 0 -335.5 83.5t-212.5 236.5l156 96q111 -240 376 -240q171 0 267.5 87.5t96.5 240.5q0 135 -79.5 217.5t-208.5 82.5q-104 0 -176 -48l-108 112l464 488h-724v184h992v-144l-428 -444h28z" />
    <glyph glyph-name="four.osf" horiz-adv-x="1280" 
d="M1240 320v-172h-252v-388h-200v388h-748v156l708 976h240v-960h252zM252 320h536v740z" />
    <glyph glyph-name="five.osf" horiz-adv-x="1264" 
d="M664 780q225 0 372.5 -145.5t147.5 -370.5q0 -231 -158 -377.5t-410 -146.5q-174 0 -310 75.5t-206 204.5l144 104q52 -92 153 -150t219 -58q165 0 266.5 96t101.5 252t-94 252t-250 96q-103 0 -183.5 -44t-128.5 -128l-156 48l68 792h832v-184h-672l-36 -424
q114 108 300 108z" />
    <glyph glyph-name="six.osf" horiz-adv-x="1344" 
d="M752 968q145 0 260.5 -56.5t183.5 -167t68 -256.5t-76 -263.5t-200 -181t-268 -63.5q-123 0 -223.5 42t-167 113.5t-112 169.5t-65.5 206.5t-20 228.5q0 126 21.5 240t69.5 217.5t119 178.5t177.5 119.5t236.5 44.5q140 0 263.5 -53.5t204.5 -158.5l-136 -128
q-120 168 -332 168q-98 0 -176 -36t-127 -95t-81 -139t-44.5 -163.5t-11.5 -174.5v-24q66 111 180.5 171.5t255.5 60.5zM720 152q145 0 248.5 90.5t103.5 233.5q0 147 -96.5 235.5t-243.5 88.5q-148 0 -250 -87.5t-102 -228.5q0 -149 94.5 -240.5t245.5 -91.5z" />
    <glyph glyph-name="seven.osf" horiz-adv-x="1116" 
d="M8 1280h1096v-144q-261 -240 -412.5 -604.5t-151.5 -771.5h-208q0 386 153.5 747.5t386.5 588.5h-864v184z" />
    <glyph glyph-name="eight.osf" horiz-adv-x="1296" 
d="M920 768q131 -49 203.5 -143.5t72.5 -224.5q0 -189 -150 -304.5t-398 -115.5t-398 115.5t-150 304.5q0 130 72.5 224.5t203.5 143.5q-111 48 -171.5 138t-60.5 210q0 193 137 308.5t367 115.5t367 -115.5t137 -308.5q0 -120 -60.5 -210t-171.5 -138zM648 1380
q-141 0 -224.5 -74.5t-83.5 -197.5t83.5 -195.5t224.5 -72.5t224.5 72.5t83.5 195.5t-83.5 197.5t-224.5 74.5zM648 140q159 0 255.5 74.5t96.5 197.5t-96 195.5t-256 72.5t-256 -72.5t-96 -195.5t96.5 -197.5t255.5 -74.5z" />
    <glyph glyph-name="nine.osf" horiz-adv-x="1312" 
d="M604 1300q123 0 223.5 -42t167 -113.5t112 -169.5t65.5 -206.5t20 -228.5q0 -126 -21.5 -240t-69.5 -217.5t-119 -178.5t-177.5 -119.5t-236.5 -44.5q-140 0 -263.5 53.5t-204.5 158.5l136 128q120 -168 332 -168q98 0 176 36t127 95t81 139t44.5 163.5t11.5 174.5v24
q-66 -111 -180.5 -171.5t-255.5 -60.5q-145 0 -260.5 56.5t-183.5 167t-68 256.5t76 263.5t200 181t268 63.5zM592 480q148 0 250 87.5t102 228.5q0 149 -94.5 240.5t-245.5 91.5q-145 0 -248.5 -90.5t-103.5 -233.5q0 -147 96.5 -235.5t243.5 -88.5z" />
    <glyph glyph-name="zero.osf.zero" 
d="M720 1300q273 0 436.5 -180t163.5 -480q0 -293 -167.5 -476.5t-432.5 -183.5q-273 0 -436.5 180t-163.5 480q0 293 167.5 476.5t432.5 183.5zM720 1136q-188 0 -300 -135t-112 -361q0 -180 72 -300l568 728q-93 68 -228 68zM720 148q189 0 300.5 133.5t111.5 358.5
q0 178 -72 304l-568 -728q99 -68 228 -68z" />
    <glyph glyph-name="zero.tf" 
d="M720 -20q-273 0 -436.5 213t-163.5 567t163.5 567t436.5 213t436.5 -213t163.5 -567t-163.5 -567t-436.5 -213zM720 160q180 0 288 163.5t108 436.5t-108 436.5t-288 163.5t-288 -163.5t-108 -436.5t108 -436.5t288 -163.5z" />
    <glyph glyph-name="one.tf" 
d="M864 172h456v-172h-1120v172h464v936h-408v156h108q137 0 209.5 23t106.5 76.5t44 156.5h140v-1348z" />
    <glyph glyph-name="two.tf" 
d="M488 188h764v-188h-1064v128l524 480q157 145 226.5 257.5t69.5 222.5q0 123 -79 199.5t-205 76.5q-151 0 -241.5 -90.5t-102.5 -257.5l-188 40q21 224 167.5 354t372.5 130q213 0 346.5 -122.5t133.5 -317.5q0 -144 -96.5 -289t-311.5 -339z" />
    <glyph glyph-name="three.tf" 
d="M796 932q192 0 318 -126.5t126 -321.5q0 -216 -157.5 -360t-394.5 -144q-192 0 -335.5 83.5t-212.5 236.5l156 96q111 -240 376 -240q171 0 267.5 87.5t96.5 240.5q0 135 -79.5 217.5t-208.5 82.5q-104 0 -176 -48l-108 112l464 488h-724v184h992v-144l-428 -444h28z" />
    <glyph glyph-name="four.tf" 
d="M1332 560v-172h-252v-388h-200v388h-748v156l708 976h240v-960h252zM344 560h536v740z" />
    <glyph glyph-name="five.tf" 
d="M720 1020q225 0 372.5 -145.5t147.5 -370.5q0 -231 -158 -377.5t-410 -146.5q-174 0 -310 75.5t-206 204.5l144 104q52 -92 153 -150t219 -58q165 0 266.5 96t101.5 252t-94 252t-250 96q-103 0 -183.5 -44t-128.5 -128l-156 48l68 792h832v-184h-672l-36 -424
q114 108 300 108z" />
    <glyph glyph-name="six.tf" 
d="M800 968q145 0 260.5 -56.5t183.5 -167t68 -256.5t-76 -263.5t-200 -181t-268 -63.5q-123 0 -223.5 42t-167 113.5t-112 169.5t-65.5 206.5t-20 228.5q0 126 21.5 240t69.5 217.5t119 178.5t177.5 119.5t236.5 44.5q140 0 263.5 -53.5t204.5 -158.5l-136 -128
q-120 168 -332 168q-98 0 -176 -36t-127 -95t-81 -139t-44.5 -163.5t-11.5 -174.5v-24q66 111 180.5 171.5t255.5 60.5zM768 152q145 0 248.5 90.5t103.5 233.5q0 147 -96.5 235.5t-243.5 88.5q-148 0 -250 -87.5t-102 -228.5q0 -149 94.5 -240.5t245.5 -91.5z" />
    <glyph glyph-name="seven.tf" 
d="M164 1520h1160v-144q-276 -240 -436 -604.5t-160 -771.5h-216q0 248 79.5 507t209 471t287.5 358h-924v184z" />
    <glyph glyph-name="eight.tf" 
d="M992 768q131 -49 203.5 -143.5t72.5 -224.5q0 -189 -150 -304.5t-398 -115.5t-398 115.5t-150 304.5q0 130 72.5 224.5t203.5 143.5q-111 48 -171.5 138t-60.5 210q0 193 137 308.5t367 115.5t367 -115.5t137 -308.5q0 -120 -60.5 -210t-171.5 -138zM720 1380
q-141 0 -224.5 -74.5t-83.5 -197.5t83.5 -195.5t224.5 -72.5t224.5 72.5t83.5 195.5t-83.5 197.5t-224.5 74.5zM720 140q159 0 255.5 74.5t96.5 197.5t-96 195.5t-256 72.5t-256 -72.5t-96 -195.5t96.5 -197.5t255.5 -74.5z" />
    <glyph glyph-name="nine.tf" 
d="M672 1540q123 0 223.5 -42t167 -113.5t112 -169.5t65.5 -206.5t20 -228.5q0 -126 -21.5 -240t-69.5 -217.5t-119 -178.5t-177.5 -119.5t-236.5 -44.5q-140 0 -263.5 53.5t-204.5 158.5l136 128q120 -168 332 -168q98 0 176 36t127 95t81 139t44.5 163.5t11.5 174.5v24
q-66 -111 -180.5 -171.5t-255.5 -60.5q-145 0 -260.5 56.5t-183.5 167t-68 256.5t76 263.5t200 181t268 63.5zM660 720q148 0 250 87.5t102 228.5q0 149 -94.5 240.5t-245.5 91.5q-145 0 -248.5 -90.5t-103.5 -233.5q0 -147 96.5 -235.5t243.5 -88.5z" />
    <glyph glyph-name="zero.tf.zero" 
d="M720 1540q273 0 436.5 -213t163.5 -567t-163.5 -567t-436.5 -213t-436.5 213t-163.5 567t163.5 567t436.5 213zM720 1368q-192 0 -300 -160t-108 -448q0 -224 68 -372l584 888q-98 92 -244 92zM720 152q192 0 300 160t108 448q0 224 -68 372l-584 -888q98 -92 244 -92z
" />
    <glyph glyph-name="zero.tosf" 
d="M720 -20q-273 0 -436.5 180t-163.5 480q0 293 167.5 476.5t432.5 183.5q273 0 436.5 -180t163.5 -480q0 -293 -167.5 -476.5t-432.5 -183.5zM720 160q180 0 288 130.5t108 349.5t-108 349.5t-288 130.5t-288 -130.5t-108 -349.5t108 -349.5t288 -130.5z" />
    <glyph glyph-name="one.tosf" 
d="M864 172h456v-172h-1120v172h464v696h-408v156h108q137 0 209.5 23t106.5 76.5t44 156.5h140v-1108z" />
    <glyph glyph-name="two.tosf" 
d="M504 192h756v-192h-1132v128l508 352q191 131 255.5 213t64.5 191t-74.5 174.5t-205.5 65.5q-150 0 -241 -79t-119 -221l-176 32q32 206 183 325t365 119q206 0 335 -109.5t129 -290.5q0 -145 -87.5 -260t-332.5 -288z" />
    <glyph glyph-name="three.tosf" 
d="M796 692q192 0 318 -126.5t126 -321.5q0 -216 -157.5 -360t-394.5 -144q-192 0 -335.5 83.5t-212.5 236.5l156 96q111 -240 376 -240q171 0 267.5 87.5t96.5 240.5q0 135 -79.5 217.5t-208.5 82.5q-104 0 -176 -48l-108 112l464 488h-724v184h992v-144l-428 -444h28z" />
    <glyph glyph-name="four.tosf" 
d="M1332 320v-172h-252v-388h-200v388h-748v156l708 976h240v-960h252zM344 320h536v740z" />
    <glyph glyph-name="five.tosf" 
d="M720 780q225 0 372.5 -145.5t147.5 -370.5q0 -231 -158 -377.5t-410 -146.5q-174 0 -310 75.5t-206 204.5l144 104q52 -92 153 -150t219 -58q165 0 266.5 96t101.5 252t-94 252t-250 96q-103 0 -183.5 -44t-128.5 -128l-156 48l68 792h832v-184h-672l-36 -424
q114 108 300 108z" />
    <glyph glyph-name="six.tosf" 
d="M800 968q145 0 260.5 -56.5t183.5 -167t68 -256.5t-76 -263.5t-200 -181t-268 -63.5q-123 0 -223.5 42t-167 113.5t-112 169.5t-65.5 206.5t-20 228.5q0 126 21.5 240t69.5 217.5t119 178.5t177.5 119.5t236.5 44.5q140 0 263.5 -53.5t204.5 -158.5l-136 -128
q-120 168 -332 168q-98 0 -176 -36t-127 -95t-81 -139t-44.5 -163.5t-11.5 -174.5v-24q66 111 180.5 171.5t255.5 60.5zM768 152q145 0 248.5 90.5t103.5 233.5q0 147 -96.5 235.5t-243.5 88.5q-148 0 -250 -87.5t-102 -228.5q0 -149 94.5 -240.5t245.5 -91.5z" />
    <glyph glyph-name="seven.tosf" 
d="M164 1280h1160v-144q-276 -240 -436 -604.5t-160 -771.5h-216q0 248 79.5 507t209 471t287.5 358h-924v184z" />
    <glyph glyph-name="eight.tosf" 
d="M992 768q131 -49 203.5 -143.5t72.5 -224.5q0 -189 -150 -304.5t-398 -115.5t-398 115.5t-150 304.5q0 130 72.5 224.5t203.5 143.5q-111 48 -171.5 138t-60.5 210q0 193 137 308.5t367 115.5t367 -115.5t137 -308.5q0 -120 -60.5 -210t-171.5 -138zM720 1380
q-141 0 -224.5 -74.5t-83.5 -197.5t83.5 -195.5t224.5 -72.5t224.5 72.5t83.5 195.5t-83.5 197.5t-224.5 74.5zM720 140q159 0 255.5 74.5t96.5 197.5t-96 195.5t-256 72.5t-256 -72.5t-96 -195.5t96.5 -197.5t255.5 -74.5z" />
    <glyph glyph-name="nine.tosf" 
d="M672 1300q123 0 223.5 -42t167 -113.5t112 -169.5t65.5 -206.5t20 -228.5q0 -126 -21.5 -240t-69.5 -217.5t-119 -178.5t-177.5 -119.5t-236.5 -44.5q-140 0 -263.5 53.5t-204.5 158.5l136 128q120 -168 332 -168q98 0 176 36t127 95t81 139t44.5 163.5t11.5 174.5v24
q-66 -111 -180.5 -171.5t-255.5 -60.5q-145 0 -260.5 56.5t-183.5 167t-68 256.5t76 263.5t200 181t268 63.5zM660 480q148 0 250 87.5t102 228.5q0 149 -94.5 240.5t-245.5 91.5q-145 0 -248.5 -90.5t-103.5 -233.5q0 -147 96.5 -235.5t243.5 -88.5z" />
    <glyph glyph-name="zero.tosf.zero" 
d="M720 1300q273 0 436.5 -180t163.5 -480q0 -293 -167.5 -476.5t-432.5 -183.5q-273 0 -436.5 180t-163.5 480q0 293 167.5 476.5t432.5 183.5zM720 1136q-188 0 -300 -135t-112 -361q0 -180 72 -300l568 728q-93 68 -228 68zM720 148q189 0 300.5 133.5t111.5 358.5
q0 178 -72 304l-568 -728q99 -68 228 -68z" />
    <glyph glyph-name="zero.dnom" horiz-adv-x="936" 
d="M468 -12q-180 0 -288 126t-108 334q0 207 108 333.5t288 126.5t288 -126.5t108 -333.5q0 -208 -108 -334t-288 -126zM468 136q105 0 168.5 85.5t63.5 226.5t-63.5 228.5t-168.5 87.5q-102 0 -167 -87.5t-65 -228.5q0 -140 64.5 -226t167.5 -86z" />
    <glyph glyph-name="one.dnom" horiz-adv-x="760" 
d="M524 896v-896h-164v608h-244v136h56q128 0 175.5 32t56.5 120h120z" />
    <glyph glyph-name="two.dnom" horiz-adv-x="936" 
d="M384 152h448v-152h-716v112l340 264q90 72 135 133.5t45 122.5q0 60 -45 96t-123 36q-87 0 -138.5 -48t-57.5 -132l-156 24q12 139 108.5 219.5t251.5 80.5q147 0 237.5 -71.5t90.5 -188.5q0 -90 -63 -176.5t-213 -203.5z" />
    <glyph glyph-name="three.dnom" horiz-adv-x="936" 
d="M532 552q126 -3 203 -74.5t77 -185.5q0 -128 -104.5 -216t-255.5 -88q-125 0 -224 54.5t-144 145.5l124 84q33 -68 96 -104t148 -36q90 0 145 43.5t55 112.5q0 70 -49.5 111t-126.5 41q-56 0 -104 -24l-76 84l264 248h-432v148h656v-116z" />
    <glyph glyph-name="four.dnom" horiz-adv-x="936" 
d="M872 352v-144h-156v-208h-156v208h-484v132l448 556h192v-544h156zM252 352h308v388z" />
    <glyph glyph-name="five.dnom" horiz-adv-x="936" 
d="M484 604q144 0 234 -81.5t90 -210.5q0 -141 -105 -232.5t-267 -91.5q-115 0 -204.5 46.5t-135.5 125.5l112 88q34 -53 95 -84.5t137 -31.5q91 0 149.5 48t58.5 128q0 76 -55.5 120t-144.5 44q-59 0 -108.5 -21.5t-75.5 -62.5l-120 40l44 468h556v-144h-428l-20 -196
q78 48 188 48z" />
    <glyph glyph-name="six.dnom" horiz-adv-x="936" 
d="M524 584q150 0 243 -81.5t93 -210.5q0 -134 -101.5 -219t-258.5 -85q-95 0 -170 36.5t-122 100t-71.5 145t-24.5 174.5q0 95 26 177.5t76 147t130 102t180 37.5q95 0 174.5 -30.5t129.5 -89.5l-116 -112q-33 39 -84.5 61.5t-111.5 22.5q-118 0 -185.5 -84.5t-70.5 -211.5
q88 120 264 120zM500 128q86 0 143 43.5t57 116.5q0 70 -55 117t-141 47t-145 -45.5t-59 -118.5q0 -70 55.5 -115t144.5 -45z" />
    <glyph glyph-name="seven.dnom" horiz-adv-x="816" 
d="M24 896h760v-120q-169 -133 -266.5 -338.5t-97.5 -437.5h-172q0 204 91.5 404t236.5 336h-552v156z" />
    <glyph glyph-name="eight.dnom" horiz-adv-x="936" 
d="M660 460q81 -30 126.5 -87.5t45.5 -132.5q0 -115 -98.5 -183.5t-265.5 -68.5t-265.5 68.5t-98.5 183.5q0 75 45.5 132.5t126.5 87.5q-69 27 -106.5 79t-37.5 121q0 111 92 179.5t244 68.5t244 -68.5t92 -179.5q0 -69 -37.5 -121t-106.5 -79zM468 784q-85 0 -134.5 -37
t-49.5 -103q0 -55 50.5 -89.5t133.5 -34.5t133.5 34.5t50.5 89.5q0 66 -49.5 103t-134.5 37zM468 116q93 0 150.5 36t57.5 96q0 62 -56.5 97t-151.5 35t-151.5 -35t-56.5 -97q0 -60 57.5 -96t150.5 -36z" />
    <glyph glyph-name="nine.dnom" horiz-adv-x="936" 
d="M436 908q95 0 170 -36.5t122 -100t71.5 -145t24.5 -174.5q0 -95 -26 -177.5t-76 -147t-130 -102t-180 -37.5q-95 0 -174.5 30.5t-129.5 89.5l116 112q33 -39 84.5 -61.5t111.5 -22.5q118 0 185.5 84.5t70.5 211.5q-88 -120 -264 -120q-150 0 -243 81.5t-93 210.5
q0 134 101.5 219t258.5 85zM432 444q86 0 145 45.5t59 118.5q0 70 -55.5 115t-144.5 45q-86 0 -143 -43.5t-57 -116.5q0 -70 55 -117t141 -47z" />
    <glyph glyph-name="zero.numr" horiz-adv-x="936" 
d="M468 612q-180 0 -288 126t-108 334q0 207 108 333.5t288 126.5t288 -126.5t108 -333.5q0 -208 -108 -334t-288 -126zM468 760q105 0 168.5 85.5t63.5 226.5t-63.5 228.5t-168.5 87.5q-102 0 -167 -87.5t-65 -228.5q0 -140 64.5 -226t167.5 -86z" />
    <glyph glyph-name="one.numr" horiz-adv-x="760" 
d="M524 1520v-896h-164v608h-244v136h56q128 0 175.5 32t56.5 120h120z" />
    <glyph glyph-name="two.numr" horiz-adv-x="936" 
d="M384 776h448v-152h-716v112l340 264q90 72 135 133.5t45 122.5q0 60 -45 96t-123 36q-87 0 -138.5 -48t-57.5 -132l-156 24q12 139 108.5 219.5t251.5 80.5q147 0 237.5 -71.5t90.5 -188.5q0 -90 -63 -176.5t-213 -203.5z" />
    <glyph glyph-name="three.numr" horiz-adv-x="936" 
d="M532 1176q126 -3 203 -74.5t77 -185.5q0 -128 -104.5 -216t-255.5 -88q-125 0 -224 54.5t-144 145.5l124 84q33 -68 96 -104t148 -36q90 0 145 43.5t55 112.5q0 70 -49.5 111t-126.5 41q-56 0 -104 -24l-76 84l264 248h-432v148h656v-116z" />
    <glyph glyph-name="four.numr" horiz-adv-x="936" 
d="M872 976v-144h-156v-208h-156v208h-484v132l448 556h192v-544h156zM252 976h308v388z" />
    <glyph glyph-name="five.numr" horiz-adv-x="936" 
d="M484 1228q144 0 234 -81.5t90 -210.5q0 -141 -105 -232.5t-267 -91.5q-115 0 -204.5 46.5t-135.5 125.5l112 88q34 -53 95 -84.5t137 -31.5q91 0 149.5 48t58.5 128q0 76 -55.5 120t-144.5 44q-59 0 -108.5 -21.5t-75.5 -62.5l-120 40l44 468h556v-144h-428l-20 -196
q78 48 188 48z" />
    <glyph glyph-name="six.numr" horiz-adv-x="936" 
d="M524 1208q150 0 243 -81.5t93 -210.5q0 -134 -101.5 -219t-258.5 -85q-95 0 -170 36.5t-122 100t-71.5 145t-24.5 174.5q0 95 26 177.5t76 147t130 102t180 37.5q95 0 174.5 -30.5t129.5 -89.5l-116 -112q-33 39 -84.5 61.5t-111.5 22.5q-118 0 -185.5 -84.5
t-70.5 -211.5q88 120 264 120zM500 752q86 0 143 43.5t57 116.5q0 70 -55 117t-141 47t-145 -45.5t-59 -118.5q0 -70 55.5 -115t144.5 -45z" />
    <glyph glyph-name="seven.numr" horiz-adv-x="816" 
d="M24 1520h760v-120q-169 -133 -266.5 -338.5t-97.5 -437.5h-172q0 204 91.5 404t236.5 336h-552v156z" />
    <glyph glyph-name="eight.numr" horiz-adv-x="936" 
d="M660 1084q81 -30 126.5 -87.5t45.5 -132.5q0 -115 -98.5 -183.5t-265.5 -68.5t-265.5 68.5t-98.5 183.5q0 75 45.5 132.5t126.5 87.5q-69 27 -106.5 79t-37.5 121q0 111 92 179.5t244 68.5t244 -68.5t92 -179.5q0 -69 -37.5 -121t-106.5 -79zM468 1408q-85 0 -134.5 -37
t-49.5 -103q0 -55 50.5 -89.5t133.5 -34.5t133.5 34.5t50.5 89.5q0 66 -49.5 103t-134.5 37zM468 740q93 0 150.5 36t57.5 96q0 62 -56.5 97t-151.5 35t-151.5 -35t-56.5 -97q0 -60 57.5 -96t150.5 -36z" />
    </font>
</defs>
</svg>
