<?xml version="1.0" standalone="no"?>
<!DOCTYPE svg PUBLIC "-//W3C//DTD SVG 1.1//EN" "http://www.w3.org/Graphics/SVG/1.1/DTD/svg11.dtd" >
<svg xmlns="http://www.w3.org/2000/svg" xmlns:xlink="http://www.w3.org/1999/xlink" version="1.1">
<metadata>
Created by FontForge 20170731 at Sat Aug 27 19:35:14 2022
 By Aleksey,,,
https://plan.diia.gov.ua
</metadata>
<defs>
<font id="e-Ukraine-UltraLight" horiz-adv-x="1440" >
  <font-face 
    font-family="e-Ukraine UltraLight"
    font-weight="200"
    font-stretch="normal"
    units-per-em="2048"
    panose-1="0 0 3 0 0 0 0 0 0 0"
    ascent="1638"
    descent="-410"
    x-height="1200"
    cap-height="1520"
    bbox="-1324 -616 2928 2000"
    underline-thickness="112"
    underline-position="-376"
    unicode-range="U+000D-2646"
  />
<missing-glyph horiz-adv-x="2232" 
d="M1116 -584l692 304q91 41 143.5 125t52.5 179v1888h-1776v-1888q0 -95 52.5 -179t143.5 -125zM1116 -448q-21 43 -68 76q-88 67 -147.5 163t-80.5 209h-372v1608q150 -75 249 -226t111 -322l56 -452l-28 4q-44 0 -78 -34.5t-34 -77.5q0 -38 26 -68.5t66 -39.5l68 -16
q176 333 176 624q0 99 -13 285t-15 271q0 123 84 220q84 -97 84 -220q0 -94 -14 -279t-14 -277q0 -291 176 -624l68 16q40 9 66 39.5t26 68.5q0 43 -34 77.5t-78 34.5l-28 -4l56 452q22 175 117.5 325t242.5 223v-1608h-372q-21 -115 -80 -212.5t-148 -159.5
q-47 -33 -68 -76zM560 556h64q12 44 42.5 82t73.5 62l-44 372q-24 173 -136 304v-820zM1608 556h64v820q-119 -139 -136 -304l-44 -372q43 -24 73.5 -62t42.5 -82zM1116 268q57 64 120 80q-85 156 -120 276q-35 -120 -120 -276q63 -16 120 -80zM560 112h252q0 73 20 160
l-52 12q-57 18 -99 60.5t-57 99.5h-64v-332zM1420 112h252v332h-64q-15 -57 -57 -99.5t-99 -60.5l-52 -12q20 -87 20 -160zM920 112h140q0 51 -34.5 90.5t-85.5 45.5q-20 -73 -20 -136zM1172 112h140q0 63 -20 136q-51 -6 -85.5 -45.5t-34.5 -90.5zM1060 -236v236h-124
q29 -129 124 -236zM1172 -236q95 107 124 236h-124v-236z" />
    <glyph glyph-name="uni20B4" unicode="&#x3c;&#x433;&#x440;&#x43d;&#x3e;" 
d="M1316 856h-380l-236 -192h616v-128h-752q-108 -80 -108 -196q0 -103 73.5 -159.5t210.5 -56.5q116 0 210.5 52.5t177.5 167.5l120 -92q-97 -135 -229.5 -203.5t-282.5 -68.5q-198 0 -319 93t-121 243q0 126 88 220h-256v128h376l236 192h-612v128h740q104 93 104 204
q0 95 -71 151.5t-189 56.5q-219 0 -344 -212l-132 88q82 127 206 197.5t270 70.5q189 0 306.5 -93t117.5 -243q0 -130 -84 -220h264v-128z" />
    <glyph glyph-name="arrowleft" unicode="&#x3c;&#x2d;" horiz-adv-x="1600" 
d="M1600 832v-144h-1328l424 -428l-96 -100l-600 600l600 600l96 -100l-424 -428h1328z" />
    <glyph glyph-name="arrowup" unicode="&#x2d;^" horiz-adv-x="1600" 
d="M1400 1000l-100 -96l-428 424v-1328h-144v1328l-428 -424l-100 96l600 600z" />
    <glyph glyph-name="arrowright" unicode="&#x2d;&#x3e;" horiz-adv-x="1600" 
d="M1000 1360l600 -600l-600 -600l-96 100l424 428h-1328v144h1328l-424 428z" />
    <glyph glyph-name="arrowdown" unicode="^&#x2d;" horiz-adv-x="1600" 
d="M1300 616l100 -96l-600 -600l-600 600l100 96l428 -424v1328h144v-1328z" />
    <glyph glyph-name="uni2196" unicode="&#x3c;\" horiz-adv-x="1600" 
d="M1444 200l-100 -100l-940 940v-604h-140v844h844v-140h-600z" />
    <glyph glyph-name="uni2197" unicode="&#x2f;&#x3e;" horiz-adv-x="1600" 
d="M492 1280h844v-844h-140v604l-940 -940l-100 100l936 940h-600v140z" />
    <glyph glyph-name="uni2198" unicode="\&#x3e;" horiz-adv-x="1600" 
d="M1196 1016h140v-844h-844v140h600l-936 940l100 100l940 -940v604z" />
    <glyph glyph-name="uni2199" unicode="&#x3c;&#x2f;" horiz-adv-x="1600" 
d="M1444 1252l-936 -940h600v-140h-844v844h140v-604l940 940z" />
    <glyph glyph-name="uni2646" unicode="&#x3c;&#x433;&#x435;&#x440;&#x431;&#x3e;" horiz-adv-x="2232" 
d="M1116 -616l-704 312q-96 42 -154 132.5t-58 195.5v1916h1832v-1916q0 -105 -58 -195.5t-154 -132.5zM1116 -584l692 304q91 41 143.5 125t52.5 179v1888h-1776v-1888q0 -95 52.5 -179t143.5 -125zM1116 -448q-21 43 -68 76q-88 67 -147.5 163t-80.5 209h-372v1608
q150 -75 249 -226t111 -322l56 -452l-28 4q-44 0 -78 -34.5t-34 -77.5q0 -38 26 -68.5t66 -39.5l68 -16q176 333 176 624q0 99 -13 285t-15 271q0 123 84 220q84 -97 84 -220q0 -94 -14 -279t-14 -277q0 -291 176 -624l68 16q40 9 66 39.5t26 68.5q0 43 -34 77.5t-78 34.5
l-28 -4l56 452q22 175 117.5 325t242.5 223v-1608h-372q-21 -115 -80 -212.5t-148 -159.5q-47 -33 -68 -76zM560 556h64q12 44 42.5 82t73.5 62l-44 372q-24 173 -136 304v-820zM1608 556h64v820q-119 -139 -136 -304l-44 -372q43 -24 73.5 -62t42.5 -82zM1116 268
q57 64 120 80q-85 156 -120 276q-35 -120 -120 -276q63 -16 120 -80zM560 112h252q0 73 20 160l-52 12q-57 18 -99 60.5t-57 99.5h-64v-332zM1420 112h252v332h-64q-15 -57 -57 -99.5t-99 -60.5l-52 -12q20 -87 20 -160zM920 112h140q0 51 -34.5 90.5t-85.5 45.5
q-20 -73 -20 -136zM1172 112h140q0 63 -20 136q-51 -6 -85.5 -45.5t-34.5 -90.5zM1060 -236v236h-124q29 -129 124 -236zM1172 -236q95 107 124 236h-124v-236z" />
    <glyph glyph-name="I_I.liga" unicode="II" horiz-adv-x="1332" 
d="M252 0v1520h164v-1520h-164zM920 0v1520h164v-1520h-164z" />
    <glyph glyph-name="dotlessi_dotlessi.liga" unicode="&#x131;&#x131;" horiz-adv-x="1244" 
d="M232 0v1200h160v-1200h-160zM852 0v1200h160v-1200h-160z" />
    <glyph glyph-name="uni04070407.liga" unicode="&#x407;&#x407;" horiz-adv-x="1332" 
d="M64 1716v184h184v-184h-184zM404 1716v184h184v-184h-184zM748 1716v184h184v-184h-184zM1088 1716v184h184v-184h-184zM252 0v1520h164v-1520h-164zM920 0v1520h164v-1520h-164z" />
    <glyph glyph-name="uni04570457.liga" unicode="&#x457;&#x457;" horiz-adv-x="1244" 
d="M16 1396v184h184v-184h-184zM356 1396v184h184v-184h-184zM700 1396v184h184v-184h-184zM1040 1396v184h184v-184h-184zM232 0v1200h160v-1200h-160zM852 0v1200h160v-1200h-160z" />
    <glyph glyph-name="uni2019_uni0457.liga" unicode="&#x2019;&#x457;" horiz-adv-x="1076" 
d="M80 1152v108h36q80 0 80 100v36h-116v184h224v-204q0 -110 -50.5 -167t-141.5 -57h-32zM492 1396v184h184v-184h-184zM848 1396v184h188v-184h-188zM684 0v1200h160v-1200h-160z" />
    <glyph glyph-name="ampersand.ss08" unicode="&#x3c;&#x442;&#x430;&#x3e;" horiz-adv-x="1360" 
d="M1232 140h44v-140q-8 -8 -56 -8q-102 0 -150.5 46t-57.5 154q-73 -97 -204.5 -154.5t-291.5 -57.5q-194 0 -305 83t-111 225q0 69 28.5 124.5t71.5 90.5t110.5 62.5t128 42t141.5 28.5v344q-223 -19 -360 -180l-100 104q168 180 460 212v264h-460v140h1052v-140h-452
v-260q203 -9 317.5 -104t114.5 -252v-540q0 -45 19 -64.5t61 -19.5zM1000 800q3 76 -71.5 125.5t-208.5 58.5v-328q46 7 75.5 12.5t65.5 14t58 18.5t42.5 24t29.5 33t9 42zM720 144q130 41 211 124t81 192v160q-87 -63 -292 -92v-384zM512 112q44 0 68 4v392
q-59 -9 -102.5 -19t-88.5 -27.5t-73 -39.5t-46 -55t-18 -75q0 -86 70.5 -133t189.5 -47z" />
    <glyph glyph-name="trident.ss01" unicode="&#x3c;&#x442;&#x440;&#x438;&#x437;&#x443;&#x431;&#x3e;" horiz-adv-x="2232" 
d="M1116 -448q-21 43 -68 76q-88 67 -147.5 163t-80.5 209h-372v1608q150 -75 249 -226t111 -322l56 -452l-28 4q-44 0 -78 -34.5t-34 -77.5q0 -38 26 -68.5t66 -39.5l68 -16q176 333 176 624q0 99 -13 285t-15 271q0 123 84 220q84 -97 84 -220q0 -94 -14 -279t-14 -277
q0 -291 176 -624l68 16q40 9 66 39.5t26 68.5q0 43 -34 77.5t-78 34.5l-28 -4l56 452q22 175 117.5 325t242.5 223v-1608h-372q-21 -115 -80 -212.5t-148 -159.5q-47 -33 -68 -76zM560 556h64q12 44 42.5 82t73.5 62l-44 372q-24 173 -136 304v-820zM1608 556h64v820
q-119 -139 -136 -304l-44 -372q43 -24 73.5 -62t42.5 -82zM1116 268q57 64 120 80q-85 156 -120 276q-35 -120 -120 -276q63 -16 120 -80zM560 112h252q0 73 20 160l-52 12q-57 18 -99 60.5t-57 99.5h-64v-332zM1420 112h252v332h-64q-15 -57 -57 -99.5t-99 -60.5l-52 -12
q20 -87 20 -160zM920 112h140q0 51 -34.5 90.5t-85.5 45.5q-20 -73 -20 -136zM1172 112h140q0 63 -20 136q-51 -6 -85.5 -45.5t-34.5 -90.5zM1060 -236v236h-124q29 -129 124 -236zM1172 -236q95 107 124 236h-124v-236z" />
    <glyph glyph-name=".notdef" horiz-adv-x="2232" 
d="M1116 -584l692 304q91 41 143.5 125t52.5 179v1888h-1776v-1888q0 -95 52.5 -179t143.5 -125zM1116 -448q-21 43 -68 76q-88 67 -147.5 163t-80.5 209h-372v1608q150 -75 249 -226t111 -322l56 -452l-28 4q-44 0 -78 -34.5t-34 -77.5q0 -38 26 -68.5t66 -39.5l68 -16
q176 333 176 624q0 99 -13 285t-15 271q0 123 84 220q84 -97 84 -220q0 -94 -14 -279t-14 -277q0 -291 176 -624l68 16q40 9 66 39.5t26 68.5q0 43 -34 77.5t-78 34.5l-28 -4l56 452q22 175 117.5 325t242.5 223v-1608h-372q-21 -115 -80 -212.5t-148 -159.5
q-47 -33 -68 -76zM560 556h64q12 44 42.5 82t73.5 62l-44 372q-24 173 -136 304v-820zM1608 556h64v820q-119 -139 -136 -304l-44 -372q43 -24 73.5 -62t42.5 -82zM1116 268q57 64 120 80q-85 156 -120 276q-35 -120 -120 -276q63 -16 120 -80zM560 112h252q0 73 20 160
l-52 12q-57 18 -99 60.5t-57 99.5h-64v-332zM1420 112h252v332h-64q-15 -57 -57 -99.5t-99 -60.5l-52 -12q20 -87 20 -160zM920 112h140q0 51 -34.5 90.5t-85.5 45.5q-20 -73 -20 -136zM1172 112h140q0 63 -20 136q-51 -6 -85.5 -45.5t-34.5 -90.5zM1060 -236v236h-124
q29 -129 124 -236zM1172 -236q95 107 124 236h-124v-236z" />
    <glyph glyph-name=".null" horiz-adv-x="0" 
 />
    <glyph glyph-name="nonmarkingreturn" horiz-adv-x="682" 
 />
    <glyph glyph-name="CR" unicode="&#xd;" horiz-adv-x="640" 
 />
    <glyph glyph-name="space" unicode=" " horiz-adv-x="640" 
 />
    <glyph glyph-name="exclam" unicode="!" horiz-adv-x="660" 
d="M272 456l-36 1064h188l-36 -1064h-116zM216 0v224h224v-224h-224z" />
    <glyph glyph-name="quotedbl" unicode="&#x22;" horiz-adv-x="680" 
d="M104 1064l-16 456h168l-16 -456h-136zM440 1064l-12 456h164l-16 -456h-136z" />
    <glyph glyph-name="numbersign" unicode="#" 
d="M1336 952h-272v-384h272v-160h-272v-408h-148v408h-392v-408h-148v408h-272v160h272v384h-272v160h272v408h148v-408h392v408h148v-408h272v-160zM916 568v384h-392v-384h392z" />
    <glyph glyph-name="dollar" unicode="$" horiz-adv-x="1396" 
d="M1264 412q0 -180 -132 -293.5t-364 -134.5v-160h-132v156q-156 6 -294 64.5t-246 163.5l104 124q181 -181 436 -200v580q-124 38 -208.5 75.5t-147 87.5t-91.5 112.5t-29 144.5q0 176 127.5 282.5t348.5 121.5v144h132v-144q259 -12 456 -172l-96 -128q-157 127 -360 152
v-548q271 -77 383.5 -175.5t112.5 -252.5zM324 1140q0 -88 70 -147.5t242 -112.5v508q-144 -9 -228 -76t-84 -172zM768 132q156 12 242 81t86 183q0 94 -72 155.5t-256 120.5v-540z" />
    <glyph glyph-name="percent" unicode="%" horiz-adv-x="2120" 
d="M520 620q-180 0 -286 125t-106 335t106 335t286 125t286 -125t106 -335t-106 -335t-286 -125zM508 0l964 1520h144l-964 -1520h-144zM520 748q111 0 179.5 91t68.5 241t-68.5 241t-179.5 91t-179.5 -91t-68.5 -241t68.5 -241t179.5 -91zM1600 -20q-180 0 -286 125
t-106 335t106 335t286 125t286 -125t106 -335t-106 -335t-286 -125zM1600 108q111 0 179.5 91t68.5 241t-68.5 241t-179.5 91t-177.5 -91t-66.5 -241t66.5 -241t177.5 -91z" />
    <glyph glyph-name="ampersand" unicode="&#x26;" horiz-adv-x="1928" 
d="M1684 320l148 -36q-12 -142 -87.5 -223t-200.5 -81q-143 0 -368 180q-236 -180 -528 -180q-253 0 -396.5 108t-143.5 300q0 162 93.5 265.5t294.5 166.5q-96 120 -134 200t-38 164q0 156 117.5 256t298.5 100q195 0 317.5 -93.5t122.5 -250.5q0 -141 -109 -255t-299 -185
q228 -241 400 -384q181 187 236 468l164 -36q-72 -320 -276 -536q191 -140 264 -140q55 0 83.5 46t40.5 146zM740 1392q-108 0 -182 -65.5t-74 -158.5q0 -62 35.5 -117.5t148.5 -178.5q156 37 246 118.5t90 193.5q0 96 -72 152t-192 56zM660 140q208 0 388 124
q-161 136 -452 440q-320 -80 -320 -316q0 -111 106.5 -179.5t277.5 -68.5z" />
    <glyph glyph-name="quotesingle" unicode="'" horiz-adv-x="344" 
d="M104 1064l-16 456h168l-16 -456h-136z" />
    <glyph glyph-name="parenleft" unicode="(" horiz-adv-x="896" 
d="M712 -296q-237 141 -376.5 403.5t-139.5 568.5q0 309 139.5 572t376.5 404l68 -84q-196 -141 -310 -380.5t-114 -511.5q0 -269 114.5 -508t309.5 -380z" />
    <glyph glyph-name="parenright" unicode=")" horiz-adv-x="920" 
d="M276 -296l-68 84q195 141 309.5 380t114.5 508q0 272 -114 511.5t-310 380.5l68 84q237 -141 376.5 -404t139.5 -572q0 -306 -139.5 -568.5t-376.5 -403.5z" />
    <glyph glyph-name="asterisk" unicode="*" horiz-adv-x="936" 
d="M836 1288l-276 -88l168 -232l-88 -68l-172 236l-172 -236l-88 68l168 232l-272 92l32 108l276 -88v288h112v-288l276 88z" />
    <glyph glyph-name="plus" unicode="+" 
d="M1248 832v-144h-456v-456h-144v456h-456v144h456v456h144v-456h456z" />
    <glyph glyph-name="comma" unicode="," horiz-adv-x="564" 
d="M168 -244v108h40q38 0 57 26.5t19 73.5v36h-116v224h224v-244q0 -110 -50.5 -167t-141.5 -57h-32z" />
    <glyph glyph-name="hyphen" unicode="-" horiz-adv-x="944" 
d="M140 604v152h664v-152h-664z" />
    <glyph glyph-name="period" unicode="." horiz-adv-x="564" 
d="M168 0v224h224v-224h-224z" />
    <glyph glyph-name="slash" unicode="/" horiz-adv-x="892" 
d="M-76 -80l888 1680h156l-888 -1680h-156z" />
    <glyph glyph-name="zero" unicode="0" 
d="M720 -20q-176 0 -310.5 97t-208 274t-73.5 409t73.5 409t208 274t310.5 97t310.5 -97t208 -274t73.5 -409t-73.5 -409t-208 -274t-310.5 -97zM720 124q193 0 310.5 173t117.5 463t-117.5 463t-310.5 173t-310.5 -173t-117.5 -463t117.5 -463t310.5 -173z" />
    <glyph glyph-name="one" unicode="1" horiz-adv-x="868" 
d="M416 0v1140h-364v128h56q138 0 212 23t108 75.5t44 153.5h108v-1520h-164z" />
    <glyph glyph-name="two" unicode="2" horiz-adv-x="1176" 
d="M304 152h796v-152h-1044v104l516 484q161 149 238.5 272t77.5 236q0 135 -84.5 219.5t-219.5 84.5q-162 0 -259.5 -97t-112.5 -271l-152 36q21 218 164.5 345t363.5 127q206 0 335 -121.5t129 -314.5q0 -139 -92.5 -283.5t-299.5 -336.5z" />
    <glyph glyph-name="three" unicode="3" horiz-adv-x="1200" 
d="M664 928q130 0 231 -61.5t153 -162.5t52 -224q0 -100 -37 -190t-105 -159t-172.5 -110t-229.5 -41q-184 0 -328 81t-212 227l136 76q107 -244 396 -244q179 0 283.5 99t104.5 265q0 147 -86 233.5t-218 86.5q-106 0 -196 -48l-84 92l492 524h-764v148h980v-116l-464 -480
q24 4 68 4z" />
    <glyph glyph-name="four" unicode="4" horiz-adv-x="1248" 
d="M1240 536v-136h-264v-400h-160v400h-756v120l732 1000h184v-984h264zM232 536h584v796z" />
    <glyph glyph-name="five" unicode="5" horiz-adv-x="1228" 
d="M612 1016q226 0 373 -144t147 -368q0 -229 -157.5 -376.5t-402.5 -147.5q-175 0 -307.5 77t-196.5 211l116 84q49 -102 152.5 -165t235.5 -63q180 0 288 104.5t108 275.5q0 168 -100 270t-268 102q-109 0 -195 -47.5t-137 -136.5l-128 32l68 796h808v-148h-676l-44 -476
q126 120 316 120z" />
    <glyph glyph-name="six" unicode="6" horiz-adv-x="1280" 
d="M728 964q219 0 363.5 -134t144.5 -350q0 -141 -71 -256t-192.5 -179.5t-268.5 -64.5q-139 0 -249.5 59t-181.5 163.5t-108 244.5t-37 305q0 167 39.5 309t114 249.5t191.5 168.5t263 61q140 0 259.5 -54.5t196.5 -157.5l-108 -104q-129 176 -348 176q-114 0 -203.5 -50.5
t-146 -139t-85.5 -203t-29 -247.5v-64q66 129 184.5 198.5t271.5 69.5zM704 120q158 0 265 99t107 253q0 158 -104 257t-264 99q-158 0 -265 -99t-107 -253q0 -153 105.5 -254.5t262.5 -101.5z" />
    <glyph glyph-name="seven" unicode="7" horiz-adv-x="1084" 
d="M8 1520h1092v-112q-271 -247 -429.5 -620.5t-158.5 -787.5h-164q0 202 45.5 408t123 382.5t175.5 325.5t208 256h-892v148z" />
    <glyph glyph-name="eight" unicode="8" horiz-adv-x="1268" 
d="M884 768q136 -45 212 -141.5t76 -230.5q0 -186 -148 -301t-388 -115q-242 0 -389 114.5t-147 301.5q0 133 74.5 228t209.5 144q-111 45 -173.5 136.5t-62.5 211.5q0 192 133 308t355 116t355 -116t133 -308q0 -119 -62.5 -209.5t-177.5 -138.5zM308 1112q0 -132 89 -210
t239 -78q147 0 235.5 78t88.5 210q0 135 -88.5 215.5t-235.5 80.5q-150 0 -239 -80.5t-89 -215.5zM636 112q171 0 273.5 80t102.5 212q0 134 -102 213t-274 79t-274 -79t-102 -213q0 -132 102.5 -212t273.5 -80z" />
    <glyph glyph-name="nine" unicode="9" horiz-adv-x="1280" 
d="M572 1540q113 0 207.5 -38.5t163 -108t116 -165.5t70.5 -212t23 -248q0 -167 -39.5 -309t-114 -249.5t-191.5 -168.5t-263 -61q-141 0 -262 54.5t-198 157.5l112 104q123 -176 348 -176q114 0 203.5 50.5t146 139t85.5 203t29 247.5q0 44 -4 68q-60 -129 -180 -200.5
t-276 -71.5q-142 0 -256.5 59.5t-181 170.5t-66.5 254q0 141 71 256t191.5 179.5t265.5 64.5zM568 692q161 0 268.5 99t107.5 253q0 153 -105.5 254.5t-262.5 101.5q-161 0 -268.5 -99t-107.5 -253q0 -157 105 -256.5t263 -99.5z" />
    <glyph glyph-name="colon" unicode=":" horiz-adv-x="544" 
d="M160 976v224h224v-224h-224zM160 0v224h224v-224h-224z" />
    <glyph glyph-name="semicolon" unicode=";" horiz-adv-x="544" 
d="M160 976v224h224v-224h-224zM160 -244v108h36q80 0 80 100v36h-116v224h224v-244q0 -110 -50.5 -167t-141.5 -57h-32z" />
    <glyph glyph-name="less" unicode="&#x3c;" 
d="M1248 1264v-152l-856 -348l856 -348v-160l-1056 432v144z" />
    <glyph glyph-name="equal" unicode="=" 
d="M192 944v144h1056v-144h-1056zM192 432v144h1056v-144h-1056z" />
    <glyph glyph-name="greater" unicode="&#x3e;" 
d="M192 1264l1056 -432v-144l-1056 -432v152l856 348l-856 348v160z" />
    <glyph glyph-name="question" unicode="?" horiz-adv-x="1200" 
d="M516 412q-10 108 28 183t164 173q122 98 167 169.5t45 162.5q0 137 -85 218.5t-227 81.5q-161 0 -260.5 -102.5t-111.5 -277.5l-152 32q21 221 166 354.5t362 133.5q213 0 342.5 -118.5t129.5 -313.5q0 -120 -62.5 -219.5t-209.5 -216.5q-98 -79 -137 -127.5t-39 -100.5
v-32h-120zM472 0v224h228v-224h-228z" />
    <glyph glyph-name="at" unicode="@" horiz-adv-x="1712" 
d="M1584 140h44v-140q-16 -8 -68 -8q-100 0 -146.5 47t-49.5 157q-64 -97 -183.5 -156.5t-256.5 -59.5q-174 0 -281 94t-107 250q0 61 17.5 111.5t44.5 86t70.5 64.5t82.5 47t95.5 33t95.5 22t94 16q117 19 186 39t89.5 35.5t20.5 33.5q-3 113 -123.5 192.5t-300.5 79.5
q-182 0 -325.5 -86t-223 -239t-79.5 -347q0 -303 188.5 -489.5t491.5 -186.5q226 0 392 116l64 -124q-209 -128 -460 -128q-177 0 -330.5 61.5t-262 169t-170 259t-61.5 326.5q0 170 59.5 319t162.5 255.5t249 168t313 61.5q263 0 423.5 -136.5t160.5 -375.5v-484
q0 -45 19.5 -64.5t64.5 -19.5zM940 120q166 0 287 100.5t121 243.5v208q-41 -33 -106.5 -52t-173.5 -36q-50 -9 -79.5 -14.5t-73 -17t-70 -23.5t-57.5 -32t-48 -43.5t-28.5 -56.5t-11.5 -73q0 -98 62.5 -151t177.5 -53z" />
    <glyph glyph-name="A" unicode="A" horiz-adv-x="1536" 
d="M1324 0l-164 400h-788l-164 -400h-172l636 1520h192l636 -1520h-176zM432 548h664l-332 804z" />
    <glyph glyph-name="B" unicode="B" horiz-adv-x="1516" 
d="M1152 780q112 -49 174 -142.5t62 -221.5q0 -186 -126 -301t-330 -115h-680v1520h652q203 0 327.5 -111.5t124.5 -292.5q0 -112 -53 -198t-151 -138zM892 1372h-480v-520h480q141 0 218.5 68.5t77.5 191.5t-77.5 191.5t-218.5 68.5zM908 148q150 0 231 72t81 204
q0 135 -81 209.5t-231 74.5h-496v-560h496z" />
    <glyph glyph-name="C" unicode="C" horiz-adv-x="1536" 
d="M836 -20q-208 0 -368 97.5t-248 275t-88 407.5q0 225 89.5 403t250.5 277.5t364 99.5q232 0 391 -117t229 -335l-156 -56q-54 179 -171.5 269.5t-292.5 90.5q-238 0 -385 -174t-147 -458q0 -287 145.5 -459.5t386.5 -172.5q176 0 294.5 91t169.5 269l156 -56
q-70 -216 -229.5 -334t-390.5 -118z" />
    <glyph glyph-name="D" unicode="D" horiz-adv-x="1636" 
d="M776 1520q340 0 534 -205t194 -555q0 -344 -197 -552t-531 -208h-524v1520h524zM776 152q261 0 410.5 163t149.5 445t-149.5 445t-410.5 163h-360v-1216h360z" />
    <glyph glyph-name="E" unicode="E" horiz-adv-x="1344" 
d="M416 152h848v-152h-1012v1520h992v-152h-828v-516h648v-144h-648v-556z" />
    <glyph glyph-name="F" unicode="F" horiz-adv-x="1300" 
d="M1264 1368h-844v-512h664v-148h-664v-708h-168v1520h1012v-152z" />
    <glyph glyph-name="G" unicode="G" horiz-adv-x="1660" 
d="M912 744h584v-744h-128l-8 264q-82 -137 -215 -210.5t-305 -73.5q-318 0 -513 215t-195 569q0 167 53.5 311.5t147.5 246.5t228 160t291 58q228 0 388.5 -107.5t235.5 -308.5l-156 -60q-54 161 -174.5 244.5t-293.5 83.5q-244 0 -396 -173.5t-152 -454.5
q0 -294 145.5 -465t394.5 -171q204 0 345 122.5t167 353.5h-444v140z" />
    <glyph glyph-name="H" unicode="H" horiz-adv-x="1720" 
d="M1304 1520h164v-1520h-164v704h-888v-704h-164v1520h164v-664h888v664z" />
    <glyph glyph-name="I" unicode="I" horiz-adv-x="668" 
d="M252 0v1520h164v-1520h-164z" />
    <glyph glyph-name="J" unicode="J" horiz-adv-x="1024" 
d="M376 -20q-140 0 -240 79t-136 221l144 60q21 -103 81 -157.5t155 -54.5q114 0 179 76t65 208v1108h168v-1108q0 -198 -113.5 -315t-302.5 -117z" />
    <glyph glyph-name="K" unicode="K" horiz-adv-x="1524" 
d="M1272 0l-608 772l-248 -240v-532h-164v1520h164v-796l808 796h208l-652 -636l704 -884h-212z" />
    <glyph glyph-name="L" unicode="L" horiz-adv-x="1324" 
d="M416 156h860v-156h-1024v1520h164v-1364z" />
    <glyph glyph-name="M" unicode="M" horiz-adv-x="2092" 
d="M1840 1520v-1520h-160v1352l-548 -1352h-176l-544 1344v-1344h-160v1520h264l532 -1324l532 1324h260z" />
    <glyph glyph-name="N" unicode="N" horiz-adv-x="1720" 
d="M1312 1520h156v-1520h-168l-892 1268v-1268h-156v1520h172l888 -1264v1264z" />
    <glyph glyph-name="O" unicode="O" horiz-adv-x="1680" 
d="M840 -20q-208 0 -369 97.5t-250 275.5t-89 407q0 225 90.5 403t252 277.5t365.5 99.5q208 0 369 -97.5t250 -275.5t89 -407q0 -225 -90.5 -403t-252 -277.5t-365.5 -99.5zM840 128q240 0 388 175t148 457t-148 457t-388 175t-388 -175t-148 -457t148 -457t388 -175z" />
    <glyph glyph-name="P" unicode="P" horiz-adv-x="1464" 
d="M868 1520q231 0 369.5 -124t138.5 -328q0 -207 -138.5 -331.5t-369.5 -124.5h-452v-612h-164v1520h616zM852 760q170 0 261 80t91 228q0 145 -91 224.5t-261 79.5h-436v-612h436z" />
    <glyph glyph-name="Q" unicode="Q" horiz-adv-x="1680" 
d="M1548 760q0 -316 -175.5 -531t-452.5 -245v-92q0 -81 39 -116.5t117 -35.5q132 0 196 4v-144q-136 -8 -200 -8q-146 0 -227 70t-81 234v88q-286 27 -459 238.5t-173 537.5q0 225 90.5 403t252 277.5t365.5 99.5q208 0 369 -97.5t250 -275.5t89 -407zM304 760
q0 -282 148 -457t388 -175t388 175t148 457t-148 457t-388 175t-388 -175t-148 -457z" />
    <glyph glyph-name="R" unicode="R" horiz-adv-x="1524" 
d="M1436 0h-196l-384 620h-16h-424v-620h-164v1520h588q228 0 366 -122t138 -326q0 -155 -83.5 -267t-228.5 -157zM416 1372v-608h404q170 0 261 79.5t91 224.5t-91 224.5t-261 79.5h-404z" />
    <glyph glyph-name="S" unicode="S" horiz-adv-x="1392" 
d="M676 -20q-168 0 -317 58.5t-263 169.5l104 124q204 -204 492 -204q189 0 296.5 71t107.5 197q0 100 -85 165.5t-307 130.5q-144 42 -238 80t-167 89.5t-106 117.5t-33 153q0 188 147 298t397 110q302 0 520 -176l-96 -128q-93 75 -205.5 115.5t-226.5 40.5
q-171 0 -271.5 -67.5t-100.5 -184.5q0 -99 89 -162t319 -126q293 -81 412.5 -180.5t119.5 -259.5q0 -198 -159 -315t-429 -117z" />
    <glyph glyph-name="T" unicode="T" horiz-adv-x="1388" 
d="M1348 1520v-156h-572v-1364h-164v1364h-572v156h1308z" />
    <glyph glyph-name="U" unicode="U" horiz-adv-x="1680" 
d="M840 -20q-274 0 -441 164.5t-167 439.5v936h164v-936q0 -207 120 -329.5t324 -122.5t324 122.5t120 329.5v936h164v-936q0 -275 -167 -439.5t-441 -164.5z" />
    <glyph glyph-name="V" unicode="V" horiz-adv-x="1516" 
d="M1284 1520h172l-604 -1520h-188l-604 1520h176l524 -1332z" />
    <glyph glyph-name="W" unicode="W" horiz-adv-x="2188" 
d="M1940 1520h160l-440 -1520h-172l-396 1312l-392 -1312h-172l-440 1520h168l372 -1272l376 1272h184l380 -1280z" />
    <glyph glyph-name="X" unicode="X" horiz-adv-x="1464" 
d="M1420 0h-200l-488 668l-492 -668h-196l584 788l-540 732h204l444 -612l444 612h196l-540 -728z" />
    <glyph glyph-name="Y" unicode="Y" horiz-adv-x="1416" 
d="M1392 1520l-600 -900v-620h-168v616l-600 904h192l496 -744l492 744h188z" />
    <glyph glyph-name="Z" unicode="Z" horiz-adv-x="1412" 
d="M1308 1520v-148l-992 -1216h992v-156h-1200v148l992 1216h-948v156h1156z" />
    <glyph glyph-name="bracketleft" unicode="[" horiz-adv-x="872" 
d="M736 1468h-336v-1576h336v-132h-484v1840h484v-132z" />
    <glyph glyph-name="backslash" unicode="\" horiz-adv-x="888" 
d="M968 -80h-156l-888 1680h156z" />
    <glyph glyph-name="bracketright" unicode="]" horiz-adv-x="960" 
d="M788 1600v-1840h-484v132h336v1576h-336v132h484z" />
    <glyph glyph-name="asciicircum" unicode="^" 
d="M1180 760h-160l-300 600l-304 -600h-156l388 760h144z" />
    <glyph glyph-name="underscore" unicode="_" horiz-adv-x="980" 
d="M12 -92h956v-148h-956v148z" />
    <glyph glyph-name="grave" unicode="`" horiz-adv-x="640" 
d="M484 1332h-124l-200 268h200z" />
    <glyph glyph-name="a" unicode="a" horiz-adv-x="1268" 
d="M1136 140h44v-140q-8 -8 -56 -8q-108 0 -155 46.5t-53 157.5q-64 -97 -182.5 -156.5t-257.5 -59.5q-174 0 -279 93.5t-105 246.5q0 47 10 88t26 72t43.5 58.5t54 47t65.5 37t70.5 28.5t77.5 22t78 17t79 14q167 32 217 53q82 35 87 105v10q0 93 -79.5 150.5t-208.5 57.5
q-114 0 -213.5 -46.5t-174.5 -133.5l-108 104q197 216 500 216q205 0 322.5 -103t117.5 -285v-608q0 -45 19 -64.5t61 -19.5zM488 120q172 0 294 100.5t122 243.5v204q-42 -33 -109 -52t-179 -36q-49 -9 -77.5 -14.5t-72.5 -17t-70 -23.5t-56.5 -31.5t-47.5 -42.5
t-28.5 -55.5t-11.5 -71.5q0 -98 62 -151t174 -53z" />
    <glyph glyph-name="b" unicode="b" horiz-adv-x="1448" 
d="M792 1220q240 0 390 -172t150 -448q0 -273 -151.5 -446.5t-388.5 -173.5q-139 0 -250.5 59t-181.5 165l-16 -204h-132v1600h160v-592q73 101 181.5 156.5t238.5 55.5zM764 120q180 0 292 132.5t112 347.5t-112 347.5t-292 132.5q-185 0 -296.5 -131.5t-111.5 -348.5
t111.5 -348.5t296.5 -131.5z" />
    <glyph glyph-name="c" unicode="c" horiz-adv-x="1304" 
d="M696 -20q-255 0 -417.5 173.5t-162.5 446.5t162.5 446.5t417.5 173.5q193 0 332.5 -96.5t187.5 -263.5l-148 -52q-43 125 -141 198.5t-231 73.5q-186 0 -301 -133.5t-115 -346.5t115 -346.5t301 -133.5q133 0 232.5 73t139.5 195l148 -48q-51 -168 -189.5 -264
t-330.5 -96z" />
    <glyph glyph-name="d" unicode="d" horiz-adv-x="1448" 
d="M1076 1600h160v-1600h-136l-16 212q-73 -110 -184 -171t-244 -61q-242 0 -391 171.5t-149 448.5q0 273 151.5 446.5t388.5 173.5q270 0 420 -212v592zM684 120q183 0 293.5 132t110.5 348t-110.5 348t-293.5 132t-293.5 -132t-110.5 -348t110.5 -348t293.5 -132z" />
    <glyph glyph-name="e" unicode="e" horiz-adv-x="1360" 
d="M280 544q15 -196 132 -308t308 -112q130 0 229 47.5t159 128.5l116 -100q-77 -94 -206 -157t-294 -63q-189 0 -328.5 81t-209.5 220.5t-70 318.5q0 272 163.5 446t416.5 174q255 0 407.5 -169t152.5 -451q0 -36 -4 -56h-972zM696 1080q-170 0 -282.5 -110t-133.5 -294
h812q-18 189 -123 296.5t-273 107.5z" />
    <glyph glyph-name="f" unicode="f" horiz-adv-x="884" 
d="M660 1468q-87 0 -133.5 -43.5t-46.5 -124.5v-100h368v-140h-368v-1060h-160v1060h-256v140h256v100q0 144 92.5 228t251.5 84q162 0 300 -96l-80 -124q-99 76 -224 76z" />
    <glyph glyph-name="g" unicode="g" horiz-adv-x="1444" 
d="M1100 1200h136l-4 -1092q0 -236 -149 -382t-399 -146q-303 0 -472 188l100 108q72 -80 160 -116t212 -36q198 0 297 103.5t99 284.5v132q-73 -101 -182 -156.5t-242 -55.5q-242 0 -391 163.5t-149 428.5q0 263 151 429.5t389 166.5q137 0 247.5 -56.5t180.5 -159.5z
M684 168q182 0 293 125.5t111 330.5q0 207 -110.5 331.5t-293.5 124.5q-182 0 -293 -125.5t-111 -330.5t111 -330.5t293 -125.5z" />
    <glyph glyph-name="h" unicode="h" 
d="M796 1220q204 0 328 -129t124 -351v-740h-160v696q0 186 -87.5 285t-240.5 99q-162 0 -275 -110.5t-113 -269.5v-700h-160v1600h160v-588q67 97 178.5 152.5t245.5 55.5z" />
    <glyph glyph-name="i" unicode="i" horiz-adv-x="620" 
d="M216 1396v184h184v-184h-184zM232 0v1200h160v-1200h-160z" />
    <glyph glyph-name="j" unicode="j" horiz-adv-x="600" 
d="M216 1396v184h184v-184h-184zM104 -408q-48 0 -104 8v144q64 -8 96 -8q70 0 103 36t33 116v1312h160v-1316q0 -292 -288 -292z" />
    <glyph glyph-name="k" unicode="k" horiz-adv-x="1248" 
d="M1036 0l-476 600l-188 -176v-424h-160v1600h160v-992l632 592h204l-532 -492l560 -708h-200z" />
    <glyph glyph-name="l" unicode="l" horiz-adv-x="580" 
d="M212 0v1600h160v-1600h-160z" />
    <glyph glyph-name="m" unicode="m" horiz-adv-x="2236" 
d="M1612 1220q195 0 313.5 -129t118.5 -351v-740h-160v696q0 186 -80.5 285t-223.5 99q-158 0 -265 -110t-107 -270v-700h-160v696q0 187 -81 285.5t-227 98.5q-156 0 -262 -110.5t-106 -269.5v-700h-160v1200h132l16 -200q64 101 174.5 160.5t245.5 59.5q138 0 239 -66
t149 -186q61 115 179.5 183.5t264.5 68.5z" />
    <glyph glyph-name="n" unicode="n" 
d="M800 1220q201 0 324.5 -129t123.5 -351v-740h-160v696q0 186 -87.5 285t-240.5 99q-162 0 -275 -110.5t-113 -269.5v-700h-160v1200h132l16 -208q67 106 182.5 167t257.5 61z" />
    <glyph glyph-name="o" unicode="o" horiz-adv-x="1408" 
d="M704 -20q-266 0 -427 170t-161 450q0 180 74 321.5t208 220t306 78.5q266 0 427 -170t161 -450q0 -180 -74 -321.5t-208 -220t-306 -78.5zM704 120q192 0 308 132t116 348q0 219 -116 349.5t-308 130.5t-308 -132t-116 -348q0 -219 116 -349.5t308 -130.5z" />
    <glyph glyph-name="p" unicode="p" horiz-adv-x="1444" 
d="M792 1220q240 0 390 -172t150 -448q0 -273 -151.5 -446.5t-388.5 -173.5q-133 0 -240 54t-180 154v-588h-160v1600h132l16 -212q73 110 184.5 171t247.5 61zM764 120q180 0 292 132.5t112 347.5t-112 347.5t-292 132.5q-185 0 -296.5 -131.5t-111.5 -348.5t111.5 -348.5
t296.5 -131.5z" />
    <glyph glyph-name="q" unicode="q" horiz-adv-x="1444" 
d="M1100 1200h136v-1600h-160v600q-72 -106 -180.5 -163t-239.5 -57q-242 0 -391 171.5t-149 448.5q0 273 151.5 446.5t388.5 173.5q136 0 247 -59t181 -165zM684 120q183 0 293.5 132t110.5 348t-110.5 348t-293.5 132t-293.5 -132t-110.5 -348t110.5 -348t293.5 -132z" />
    <glyph glyph-name="r" unicode="r" horiz-adv-x="920" 
d="M800 1220q24 0 80 -8v-156q-80 8 -124 8q-166 0 -275 -106t-109 -270v-688h-160v1200h132l16 -204q67 104 182.5 164t257.5 60z" />
    <glyph glyph-name="s" unicode="s" horiz-adv-x="1108" 
d="M560 -20q-144 0 -269.5 49.5t-218.5 142.5l100 112q154 -160 388 -160q141 0 222.5 50.5t81.5 137.5q0 78 -70 127.5t-250 100.5q-229 63 -322.5 142.5t-93.5 209.5q0 144 123 236t313 92q246 0 428 -152l-100 -124q-138 132 -332 132q-124 0 -200 -48t-76 -128
q0 -72 64.5 -116.5t243.5 -95.5q235 -69 331.5 -150t96.5 -210q0 -156 -126.5 -252t-333.5 -96z" />
    <glyph glyph-name="t" unicode="t" horiz-adv-x="964" 
d="M852 1060h-392v-748q0 -100 43 -142t141 -42q110 0 208 28v-148q-112 -28 -228 -28q-158 0 -241 80.5t-83 231.5v768h-236v140h236l24 320h136v-320h392v-140z" />
    <glyph glyph-name="u" unicode="u" 
d="M1068 1200h160v-1200h-132l-16 208q-67 -106 -182.5 -167t-257.5 -61q-201 0 -324.5 129t-123.5 351v740h160v-696q0 -186 87.5 -285t240.5 -99q162 0 275 110.5t113 269.5v700z" />
    <glyph glyph-name="v" unicode="v" horiz-adv-x="1244" 
d="M1032 1200h172l-492 -1200h-180l-492 1200h176l408 -1024z" />
    <glyph glyph-name="w" unicode="w" horiz-adv-x="1848" 
d="M1628 1200h156l-380 -1200h-172l-308 992l-304 -992h-172l-384 1200h164l308 -1004l308 1004h164l312 -1008z" />
    <glyph glyph-name="x" unicode="x" horiz-adv-x="1284" 
d="M1216 0h-196l-380 508l-380 -508h-192l472 616l-444 584h196l356 -468l356 468h192l-448 -580z" />
    <glyph glyph-name="y" unicode="y" horiz-adv-x="1256" 
d="M1064 1200h168l-472 -1284q-24 -68 -55 -124t-74 -106t-101 -78t-126 -28q-140 0 -213 89.5t-67 234.5l144 24q-4 -52 4.5 -94t43 -74t92.5 -32q111 0 188 176l-560 1296h176l464 -1100z" />
    <glyph glyph-name="z" unicode="z" horiz-adv-x="1168" 
d="M272 140h816v-140h-1004v148l792 912h-756v140h944v-148z" />
    <glyph glyph-name="braceleft" unicode="{" horiz-adv-x="896" 
d="M452 904q0 -183 -124 -224q124 -41 124 -224v-480q0 -39 22.5 -61.5t61.5 -22.5h200v-132h-208q-106 0 -165 58.5t-59 165.5v456q0 90 -28 133t-92 43h-64v128h64q64 0 92 43t28 133v456q0 107 59 165.5t165 58.5h208v-132h-200q-39 0 -61.5 -22.5t-22.5 -61.5v-480z" />
    <glyph glyph-name="bar" unicode="|" horiz-adv-x="652" 
d="M252 -240v1840h148v-1840h-148z" />
    <glyph glyph-name="braceright" unicode="}" horiz-adv-x="920" 
d="M696 744h64v-128h-64q-64 0 -92 -43t-28 -133v-456q0 -107 -59 -165.5t-165 -58.5h-208v132h200q39 0 61.5 22.5t22.5 61.5v480q0 183 124 224q-124 41 -124 224v480q0 39 -22.5 61.5t-61.5 22.5h-200v132h208q106 0 165 -58.5t59 -165.5v-456q0 -90 28 -133t92 -43z" />
    <glyph glyph-name="asciitilde" unicode="~" 
d="M256 632l-112 88q143 200 332 200q58 0 114 -17.5t100 -42t86 -49t91 -42t97 -17.5q123 0 220 148l112 -88q-146 -204 -332 -204q-58 0 -114 17.5t-100 43t-86 51t-91 43t-97 17.5q-119 0 -220 -148z" />
    <glyph glyph-name="exclamdown" unicode="&#xa1;" horiz-adv-x="660" 
d="M216 1200h224v-224h-224v224zM272 744h116l36 -1064h-188z" />
    <glyph glyph-name="cent" unicode="&#xa2;" horiz-adv-x="1320" 
d="M756 284q112 15 193.5 86t118.5 178l148 -48q-48 -156 -168 -248.5t-292 -107.5v-144h-132v144q-226 24 -367 194.5t-141 421.5t141 421.5t367 194.5v144h132v-144q172 -15 293.5 -108t166.5 -248l-148 -52q-37 110 -118.5 181.5t-193.5 86.5v-952zM280 760
q0 -191 93.5 -320t250.5 -156v952q-157 -27 -250.5 -156t-93.5 -320z" />
    <glyph glyph-name="sterling" unicode="&#xa3;" 
d="M1172 316l148 -24q-6 -153 -77.5 -232.5t-206.5 -79.5q-36 0 -72 6t-63 12.5t-62.5 24t-54.5 26.5t-56 34.5t-49 34t-51.5 38.5t-47.5 36q-46 -97 -122.5 -154.5t-165.5 -57.5q-110 0 -175 65.5t-65 162.5q0 102 70.5 167t193.5 65q81 0 164 -32v20q0 118 -60 268h-296
v128h236q-41 86 -62.5 154t-21.5 146q0 194 129 305t335 111q205 0 332 -111.5t152 -296.5l-152 -40q-22 146 -105.5 229t-226.5 83q-141 0 -226.5 -73t-85.5 -203q0 -49 15 -105.5t30.5 -93.5t46.5 -105h448v-128h-392q52 -149 52 -264q0 -36 -8 -100q36 -23 103 -70
t105.5 -72.5t92.5 -47.5t99 -22q71 0 107 44t45 152zM296 108q128 0 168 160q-75 44 -152 44q-64 0 -98 -28.5t-34 -75.5q0 -48 31 -74t85 -26z" />
    <glyph glyph-name="currency" unicode="&#xa4;" 
d="M1276 292l-88 -84l-216 216q-116 -84 -252 -84t-252 84l-216 -216l-84 84l216 216q-84 116 -84 252t84 252l-220 216l88 88l216 -220q116 84 252 84t252 -84l216 216l84 -84l-216 -216q84 -116 84 -252q0 -138 -84 -248zM720 472q120 0 204 84t84 204t-84 204t-204 84
t-204 -84t-84 -204t84 -204t204 -84z" />
    <glyph glyph-name="yen" unicode="&#xa5;" horiz-adv-x="1464" 
d="M1396 1520l-520 -780h256v-128h-340v-192h340v-128h-340v-292h-164v292h-324v128h324v192h-324v128h236l-516 780h192l496 -744l492 744h192z" />
    <glyph glyph-name="brokenbar" unicode="&#xa6;" horiz-adv-x="652" 
d="M252 880v720h148v-720h-148zM400 480v-720h-148v720h148z" />
    <glyph glyph-name="section" unicode="&#xa7;" horiz-adv-x="1148" 
d="M776 348q125 -44 188.5 -111t63.5 -169q0 -147 -130 -237.5t-338 -90.5q-140 0 -271.5 44t-228.5 136l96 120q156 -156 404 -156q84 0 151.5 18.5t112 61.5t44.5 104q0 27 -10 50.5t-24 41t-41.5 35t-48.5 28.5t-59 24.5t-60.5 20.5t-64.5 20q-51 15 -79 23t-74.5 23.5
t-73.5 27t-65 30t-59.5 36t-47 41.5t-38.5 49.5t-22 57.5t-9 68q0 117 79.5 194t212.5 102q-128 50 -188 114.5t-60 165.5q0 146 120 233t316 87q120 0 233.5 -40.5t202.5 -111.5l-96 -128q-63 63 -156 99.5t-192 36.5q-120 0 -194 -45t-74 -131q0 -28 10 -52t23 -41.5
t40.5 -35t48 -28.5t61 -25t63.5 -21t70 -21q184 -52 261 -91q169 -86 182 -241q1 -14 1 -28q0 -112 -76 -188t-204 -100zM252 656q0 -68 57 -118t136.5 -72t166.5 -22q122 0 205 47t83 133q0 68 -57 118t-136.5 72t-166.5 22q-122 0 -205 -47t-83 -133z" />
    <glyph glyph-name="dieresis" unicode="&#xa8;" horiz-adv-x="640" 
d="M168 1396v184h184v-184h-184zM528 1396v184h184v-184h-184z" />
    <glyph glyph-name="copyright" unicode="&#xa9;" horiz-adv-x="1824" 
d="M912 -20q-167 0 -312 58.5t-248 161.5t-161.5 248t-58.5 312t58.5 312t161.5 248t248 161.5t312 58.5t312 -58.5t248 -161.5t161.5 -248t58.5 -312t-58.5 -312t-161.5 -248t-248 -161.5t-312 -58.5zM912 108q188 0 336 83.5t230 232t82 336.5t-82 336.5t-230 232
t-336 83.5q-186 0 -333 -83.5t-229 -232t-82 -336.5t82 -336.5t229 -232t333 -83.5zM924 336q-176 0 -290 120t-114 304t114 304t290 120q134 0 228.5 -66.5t127.5 -181.5l-144 -56q-27 78 -83.5 123t-128.5 45q-116 0 -182 -77.5t-66 -210.5t66 -210.5t182 -77.5
q72 0 128.5 45t83.5 123l144 -56q-33 -115 -127.5 -181.5t-228.5 -66.5z" />
    <glyph glyph-name="guillemotleft" unicode="&#xab;" horiz-adv-x="1332" 
d="M160 600v156l472 348v-180l-324 -240l324 -240v-188zM1132 1104v-180l-324 -240l324 -240v-188l-472 344v156z" />
    <glyph glyph-name="logicalnot" unicode="&#xac;" 
d="M1248 832v-588h-144v444h-912v144h1056z" />
    <glyph glyph-name="registered" unicode="&#xae;" horiz-adv-x="1136" 
d="M568 1540q174 0 287 -113t113 -287t-113 -287t-287 -113t-287 113t-113 287t113 287t287 113zM568 828q135 0 221.5 88.5t86.5 223.5t-86.5 223.5t-221.5 88.5t-221.5 -88.5t-86.5 -223.5t86.5 -223.5t221.5 -88.5zM716 1052q0 -20 20 -20h12v-92h-44q-39 0 -61.5 22.5
t-22.5 61.5v24q0 20 -9 28t-31 8h-84v-144h-92v408h180q64 0 106 -36.5t42 -95.5q0 -67 -56 -92q40 -20 40 -60v-12zM576 1260h-80v-88h80q56 0 56 44t-56 44z" />
    <glyph glyph-name="macron" unicode="&#xaf;" horiz-adv-x="640" 
d="M128 1440v128h624v-128h-624z" />
    <glyph glyph-name="degree" unicode="&#xb0;" horiz-adv-x="824" 
d="M412 932q-129 0 -218.5 87.5t-89.5 216.5q0 126 91 215t217 89t215 -89t89 -215q0 -129 -87.5 -216.5t-216.5 -87.5zM412 1060q76 0 126 49.5t50 126.5q0 75 -50.5 125.5t-125.5 50.5t-125.5 -50.5t-50.5 -125.5q0 -77 50 -126.5t126 -49.5z" />
    <glyph glyph-name="plusminus" unicode="&#xb1;" 
d="M792 880h456v-144h-456v-456h-144v456h-456v144h456v460h144v-460zM192 16v144h1056v-144h-1056z" />
    <glyph glyph-name="uni00B2" unicode="&#xb2;" horiz-adv-x="936" 
d="M352 1076h468v-132h-700v92l336 272q97 82 144.5 146.5t47.5 125.5q0 66 -50 105t-134 39q-93 0 -148 -49t-64 -139l-132 20q12 138 106.5 217t245.5 79q144 0 232 -71t88 -185q0 -88 -62 -174t-206 -202z" />
    <glyph glyph-name="uni00B3" unicode="&#xb3;" horiz-adv-x="936" 
d="M524 1496q125 0 202.5 -72.5t77.5 -187.5q0 -131 -102.5 -217.5t-253.5 -86.5q-120 0 -217.5 52.5t-142.5 139.5l112 76q33 -68 98.5 -104t153.5 -36q98 0 157 46.5t59 121.5q0 77 -52.5 122.5t-135.5 45.5q-59 0 -108 -28l-68 76l272 264h-444v132h648v-96l-268 -248h12
z" />
    <glyph glyph-name="acute" unicode="&#xb4;" horiz-adv-x="640" 
d="M396 1332l124 268h200l-200 -268h-124z" />
    <glyph glyph-name="paragraph" unicode="&#xb6;" horiz-adv-x="1412" 
d="M788 1520v-1920h-164v1212h-40q-185 0 -294.5 97t-109.5 259q0 160 109.5 256t294.5 96h204zM996 1520h164v-1920h-164v1920z" />
    <glyph glyph-name="periodcentered" unicode="&#xb7;" horiz-adv-x="564" 
d="M168 568v224h224v-224h-224z" />
    <glyph glyph-name="cedilla" unicode="&#xb8;" horiz-adv-x="640" 
d="M524 -96q85 0 138.5 -45.5t53.5 -122.5q0 -75 -75 -125.5t-189 -50.5q-70 0 -137 20t-115 56l68 104q99 -68 188 -68q57 0 88.5 19.5t31.5 52.5q0 64 -104 64q-40 0 -80 -20l-88 52l92 160h132l-60 -100q20 4 56 4z" />
    <glyph glyph-name="uni00B9" unicode="&#xb9;" horiz-adv-x="760" 
d="M508 1840v-896h-140v628h-240v116h48q130 0 176.5 31.5t55.5 120.5h100z" />
    <glyph glyph-name="guillemotright" unicode="&#xbb;" horiz-adv-x="1332" 
d="M200 916v188l472 -344v-156l-472 -348v180l324 240zM700 1104l472 -344v-156l-472 -348v180l324 240l-324 240v188z" />
    <glyph glyph-name="onequarter" unicode="&#xbc;" horiz-adv-x="1776" 
d="M368 624v628h-240v116h48q130 0 176.5 31.5t55.5 120.5h100v-896h-140zM1268 1520h148l-964 -1520h-148zM1708 340v-128h-164v-212h-136v212h-484v116l456 568h164v-556h164zM1080 340h328v416z" />
    <glyph glyph-name="onehalf" unicode="&#xbd;" horiz-adv-x="1776" 
d="M368 624v628h-240v116h48q130 0 176.5 31.5t55.5 120.5h100v-896h-140zM1208 1520h148l-964 -1520h-148zM1192 132h468v-132h-700v92l336 272q97 82 144.5 146.5t47.5 125.5q0 66 -50 105t-134 39q-93 0 -148 -49t-64 -139l-132 20q12 138 106.5 217t245.5 79
q144 0 232 -71t88 -185q0 -88 -62 -174t-206 -202z" />
    <glyph glyph-name="threequarters" unicode="&#xbe;" horiz-adv-x="1952" 
d="M804 916q0 -131 -102.5 -217.5t-253.5 -86.5q-120 0 -217.5 52.5t-142.5 139.5l112 76q33 -68 98.5 -104t153.5 -36q98 0 157 46.5t59 121.5q0 77 -52.5 122.5t-135.5 45.5q-59 0 -108 -28l-68 76l272 264h-444v132h648v-96l-268 -248h12q125 0 202.5 -72.5t77.5 -187.5z
M1444 1520h148l-964 -1520h-148zM1884 340v-128h-164v-212h-136v212h-484v116l456 568h164v-556h164zM1256 340h328v416z" />
    <glyph glyph-name="questiondown" unicode="&#xbf;" horiz-adv-x="1200" 
d="M728 1200v-224h-224v224h224zM688 788q4 -73 -8 -124t-55.5 -108t-128.5 -124q-123 -99 -169.5 -170.5t-46.5 -161.5q0 -137 85 -218.5t227 -81.5q161 0 260.5 102.5t111.5 277.5l152 -32q-21 -221 -166 -354.5t-362 -133.5q-213 0 -342.5 118.5t-129.5 313.5
q0 120 63 219.5t213 216.5q96 77 134 126t38 102v32h124z" />
    <glyph glyph-name="Agrave" unicode="&#xc0;" horiz-adv-x="1536" 
d="M812 1652h-124l-200 268h200zM1324 0l-164 400h-788l-164 -400h-172l636 1520h192l636 -1520h-176zM432 548h664l-332 804z" />
    <glyph glyph-name="Aacute" unicode="&#xc1;" horiz-adv-x="1536" 
d="M1048 1920l-200 -268h-124l124 268h200zM1324 0l-164 400h-788l-164 -400h-172l636 1520h192l636 -1520h-176zM432 548h664l-332 804z" />
    <glyph glyph-name="Acircumflex" unicode="&#xc2;" horiz-adv-x="1536" 
d="M776 1816l-160 -164h-152l220 268h184l220 -268h-156zM1324 0l-164 400h-788l-164 -400h-172l636 1520h192l636 -1520h-176zM432 548h664l-332 804z" />
    <glyph glyph-name="Atilde" unicode="&#xc3;" horiz-adv-x="1536" 
d="M648 1796q-64 0 -108 -100l-104 56q72 168 208 168q46 0 93 -25t87.5 -50t71.5 -25q62 0 108 104l104 -56q-71 -172 -208 -172q-46 0 -93 25t-87.5 50t-71.5 25zM1324 0l-164 400h-788l-164 -400h-172l636 1520h192l636 -1520h-176zM432 548h664l-332 804z" />
    <glyph glyph-name="Adieresis" unicode="&#xc4;" horiz-adv-x="1536" 
d="M680 1900v-184h-184v184h184zM1040 1900v-184h-184v184h184zM1324 0l-164 400h-788l-164 -400h-172l636 1520h192l636 -1520h-176zM432 548h664l-332 804z" />
    <glyph glyph-name="Aring" unicode="&#xc5;" horiz-adv-x="1536" 
d="M1324 0l-164 400h-788l-164 -400h-172l628 1500q-61 27 -96.5 81.5t-35.5 122.5q0 99 68.5 165.5t167.5 66.5t167.5 -66.5t68.5 -165.5q0 -68 -35.5 -122.5t-96.5 -81.5l628 -1500h-176zM768 1824q-51 0 -85.5 -34.5t-34.5 -85.5t34.5 -83.5t85.5 -32.5t85.5 32.5
t34.5 83.5t-34.5 85.5t-85.5 34.5zM432 548h664l-332 804z" />
    <glyph glyph-name="AE" unicode="&#xc6;" horiz-adv-x="1916" 
d="M1316 156h520v-156h-636l-152 400h-692l-152 -400h-168l584 1520h1196v-156h-964l196 -508h616v-152h-560zM412 556h576l-288 756z" />
    <glyph glyph-name="Ccedilla" unicode="&#xc7;" horiz-adv-x="1536" 
d="M836 128q176 0 294.5 91t169.5 269l156 -56q-67 -203 -212 -320t-356 -132l-48 -80q20 4 56 4q85 0 138.5 -45.5t53.5 -122.5q0 -75 -75 -125.5t-189 -50.5q-70 0 -137 20t-115 56l68 104q99 -68 188 -68q57 0 88.5 19.5t31.5 52.5q0 64 -104 64q-40 0 -80 -20l-88 52
l84 144q-285 27 -456.5 238t-171.5 538q0 225 89.5 403t250.5 277.5t364 99.5q232 0 391 -117t229 -335l-156 -56q-54 179 -171.5 269.5t-292.5 90.5q-238 0 -385 -174t-147 -458q0 -287 145.5 -459.5t386.5 -172.5z" />
    <glyph glyph-name="Egrave" unicode="&#xc8;" horiz-adv-x="1344" 
d="M772 1652h-124l-200 268h200zM416 152h848v-152h-1012v1520h992v-152h-828v-516h648v-144h-648v-556z" />
    <glyph glyph-name="Eacute" unicode="&#xc9;" horiz-adv-x="1344" 
d="M1008 1920l-200 -268h-124l124 268h200zM416 152h848v-152h-1012v1520h992v-152h-828v-516h648v-144h-648v-556z" />
    <glyph glyph-name="Ecircumflex" unicode="&#xca;" horiz-adv-x="1344" 
d="M736 1816l-160 -164h-152l220 268h184l220 -268h-156zM416 152h848v-152h-1012v1520h992v-152h-828v-516h648v-144h-648v-556z" />
    <glyph glyph-name="Edieresis" unicode="&#xcb;" horiz-adv-x="1344" 
d="M640 1900v-184h-184v184h184zM1000 1900v-184h-184v184h184zM416 152h848v-152h-1012v1520h992v-152h-828v-516h648v-144h-648v-556z" />
    <glyph glyph-name="Igrave" unicode="&#xcc;" horiz-adv-x="668" 
d="M376 1652h-124l-200 268h200zM252 0v1520h164v-1520h-164z" />
    <glyph glyph-name="Iacute" unicode="&#xcd;" horiz-adv-x="668" 
d="M288 1652l124 268h200l-200 -268h-124zM252 0v1520h164v-1520h-164z" />
    <glyph glyph-name="Icircumflex" unicode="&#xce;" horiz-adv-x="668" 
d="M432 1920l220 -268h-156l-156 164l-160 -164h-152l220 268h184zM252 0v1520h164v-1520h-164z" />
    <glyph glyph-name="Idieresis" unicode="&#xcf;" horiz-adv-x="668" 
d="M60 1716v184h184v-184h-184zM420 1716v184h184v-184h-184zM252 0v1520h164v-1520h-164z" />
    <glyph glyph-name="Eth" unicode="&#xd0;" horiz-adv-x="1636" 
d="M776 1520q340 0 534 -205t194 -555q0 -344 -197 -552t-531 -208h-524v708h-164v144h164v668h524zM776 152q261 0 410.5 163t149.5 445t-149.5 445t-410.5 163h-360v-516h312v-144h-312v-556h360z" />
    <glyph glyph-name="Ntilde" unicode="&#xd1;" horiz-adv-x="1720" 
d="M740 1796q-64 0 -108 -100l-104 56q72 168 208 168q46 0 93 -25t87.5 -50t71.5 -25q62 0 108 104l104 -56q-71 -172 -208 -172q-46 0 -93 25t-87.5 50t-71.5 25zM1312 1520h156v-1520h-168l-892 1268v-1268h-156v1520h172l888 -1264v1264z" />
    <glyph glyph-name="Ograve" unicode="&#xd2;" horiz-adv-x="1680" 
d="M884 1652h-124l-200 268h200zM840 -20q-208 0 -369 97.5t-250 275.5t-89 407q0 225 90.5 403t252 277.5t365.5 99.5q208 0 369 -97.5t250 -275.5t89 -407q0 -225 -90.5 -403t-252 -277.5t-365.5 -99.5zM840 128q240 0 388 175t148 457t-148 457t-388 175t-388 -175
t-148 -457t148 -457t388 -175z" />
    <glyph glyph-name="Oacute" unicode="&#xd3;" horiz-adv-x="1680" 
d="M796 1652l124 268h200l-200 -268h-124zM840 -20q-208 0 -369 97.5t-250 275.5t-89 407q0 225 90.5 403t252 277.5t365.5 99.5q208 0 369 -97.5t250 -275.5t89 -407q0 -225 -90.5 -403t-252 -277.5t-365.5 -99.5zM840 128q240 0 388 175t148 457t-148 457t-388 175
t-388 -175t-148 -457t148 -457t388 -175z" />
    <glyph glyph-name="Ocircumflex" unicode="&#xd4;" horiz-adv-x="1680" 
d="M848 1816l-160 -164h-152l220 268h184l220 -268h-156zM840 1540q208 0 369 -97.5t250 -275.5t89 -407q0 -225 -90.5 -403t-252 -277.5t-365.5 -99.5q-208 0 -369 97.5t-250 275.5t-89 407q0 225 90.5 403t252 277.5t365.5 99.5zM840 128q240 0 388 175t148 457t-148 457
t-388 175t-388 -175t-148 -457t148 -457t388 -175z" />
    <glyph glyph-name="Otilde" unicode="&#xd5;" horiz-adv-x="1680" 
d="M1180 1868q-71 -172 -208 -172q-46 0 -93 25t-87.5 50t-71.5 25q-64 0 -108 -100l-104 56q72 168 208 168q46 0 93 -25t87.5 -50t71.5 -25q62 0 108 104zM840 -20q-208 0 -369 97.5t-250 275.5t-89 407q0 225 90.5 403t252 277.5t365.5 99.5q208 0 369 -97.5t250 -275.5
t89 -407q0 -225 -90.5 -403t-252 -277.5t-365.5 -99.5zM840 128q240 0 388 175t148 457t-148 457t-388 175t-388 -175t-148 -457t148 -457t388 -175z" />
    <glyph glyph-name="Odieresis" unicode="&#xd6;" horiz-adv-x="1680" 
d="M568 1716v184h184v-184h-184zM928 1716v184h184v-184h-184zM840 -20q-208 0 -369 97.5t-250 275.5t-89 407q0 225 90.5 403t252 277.5t365.5 99.5q208 0 369 -97.5t250 -275.5t89 -407q0 -225 -90.5 -403t-252 -277.5t-365.5 -99.5zM840 128q240 0 388 175t148 457
t-148 457t-388 175t-388 -175t-148 -457t148 -457t388 -175z" />
    <glyph glyph-name="multiply" unicode="&#xd7;" 
d="M1192 1132l-372 -372l372 -372l-100 -100l-372 372l-372 -372l-100 100l372 372l-372 372l100 100l372 -372l372 372z" />
    <glyph glyph-name="Oslash" unicode="&#xd8;" horiz-adv-x="1680" 
d="M1356 1320q192 -218 192 -560q0 -225 -90.5 -403t-252 -277.5t-365.5 -99.5q-238 0 -420 132l-100 -132h-164l168 220q-192 218 -192 560q0 225 90.5 403t252 277.5t365.5 99.5q238 0 420 -132l100 132h164zM304 760q0 -261 124 -428l732 952q-133 108 -320 108
q-240 0 -388 -175t-148 -457zM840 128q240 0 388 175t148 457q0 261 -124 428l-732 -952q133 -108 320 -108z" />
    <glyph glyph-name="Ugrave" unicode="&#xd9;" horiz-adv-x="1680" 
d="M884 1652h-124l-200 268h200zM840 -20q-274 0 -441 164.5t-167 439.5v936h164v-936q0 -207 120 -329.5t324 -122.5t324 122.5t120 329.5v936h164v-936q0 -275 -167 -439.5t-441 -164.5z" />
    <glyph glyph-name="Uacute" unicode="&#xda;" horiz-adv-x="1680" 
d="M796 1652l124 268h200l-200 -268h-124zM840 -20q-274 0 -441 164.5t-167 439.5v936h164v-936q0 -207 120 -329.5t324 -122.5t324 122.5t120 329.5v936h164v-936q0 -275 -167 -439.5t-441 -164.5z" />
    <glyph glyph-name="Ucircumflex" unicode="&#xdb;" horiz-adv-x="1680" 
d="M848 1816l-160 -164h-152l220 268h184l220 -268h-156zM1284 1520h164v-936q0 -275 -167 -439.5t-441 -164.5t-441 164.5t-167 439.5v936h164v-936q0 -207 120 -329.5t324 -122.5t324 122.5t120 329.5v936z" />
    <glyph glyph-name="Udieresis" unicode="&#xdc;" horiz-adv-x="1680" 
d="M568 1716v184h184v-184h-184zM928 1716v184h184v-184h-184zM840 -20q-274 0 -441 164.5t-167 439.5v936h164v-936q0 -207 120 -329.5t324 -122.5t324 122.5t120 329.5v936h164v-936q0 -275 -167 -439.5t-441 -164.5z" />
    <glyph glyph-name="Yacute" unicode="&#xdd;" horiz-adv-x="1416" 
d="M988 1920l-200 -268h-124l124 268h200zM1392 1520l-600 -900v-620h-168v616l-600 904h192l496 -744l492 744h188z" />
    <glyph glyph-name="Thorn" unicode="&#xde;" horiz-adv-x="1472" 
d="M868 1232q231 0 369.5 -124t138.5 -328t-138.5 -328t-369.5 -124h-452v-328h-164v1520h164v-288h452zM852 476q171 0 261.5 78.5t90.5 225.5t-90.5 225.5t-261.5 78.5h-436v-608h436z" />
    <glyph glyph-name="germandbls" unicode="&#xdf;" horiz-adv-x="1468" 
d="M992 -20q-270 0 -440 164l88 116q144 -144 360 -144q114 0 183 44.5t69 119.5q0 62 -60.5 101.5t-215.5 82.5q-203 59 -283.5 122t-80.5 174q0 55 18.5 99.5t56.5 78.5t83 59t110 51q114 42 161 81.5t47 110.5q0 108 -93 172t-247 64q-185 0 -280.5 -84.5t-95.5 -247.5
v-1144h-160v1144q0 221 140.5 346.5t387.5 125.5q225 0 364.5 -101t139.5 -263q0 -124 -75.5 -197.5t-220.5 -122.5q-101 -39 -146.5 -74.5t-45.5 -89.5q0 -51 51 -82.5t201 -73.5q221 -63 310.5 -136.5t89.5 -191.5q0 -135 -116.5 -219.5t-299.5 -84.5z" />
    <glyph glyph-name="agrave" unicode="&#xe0;" horiz-adv-x="1268" 
d="M648 1332h-124l-200 268h200zM1136 140h44v-140q-8 -8 -56 -8q-108 0 -155 46.5t-53 157.5q-64 -97 -182.5 -156.5t-257.5 -59.5q-174 0 -279 93.5t-105 246.5q0 47 10 88t26 72t43.5 58.5t54 47t65.5 37t70.5 28.5t77.5 22t78 17t79 14q167 32 217 53q82 35 87 105v10
q0 93 -79.5 150.5t-208.5 57.5q-114 0 -213.5 -46.5t-174.5 -133.5l-108 104q197 216 500 216q205 0 322.5 -103t117.5 -285v-608q0 -45 19 -64.5t61 -19.5zM488 120q172 0 294 100.5t122 243.5v204q-42 -33 -109 -52t-179 -36q-49 -9 -77.5 -14.5t-72.5 -17t-70 -23.5
t-56.5 -31.5t-47.5 -42.5t-28.5 -55.5t-11.5 -71.5q0 -98 62 -151t174 -53z" />
    <glyph glyph-name="aacute" unicode="&#xe1;" horiz-adv-x="1268" 
d="M884 1600l-200 -268h-124l124 268h200zM1136 140h44v-140q-8 -8 -56 -8q-108 0 -155 46.5t-53 157.5q-64 -97 -182.5 -156.5t-257.5 -59.5q-174 0 -279 93.5t-105 246.5q0 47 10 88t26 72t43.5 58.5t54 47t65.5 37t70.5 28.5t77.5 22t78 17t79 14q167 32 217 53
q82 35 87 105v10q0 93 -79.5 150.5t-208.5 57.5q-114 0 -213.5 -46.5t-174.5 -133.5l-108 104q197 216 500 216q205 0 322.5 -103t117.5 -285v-608q0 -45 19 -64.5t61 -19.5zM488 120q172 0 294 100.5t122 243.5v204q-42 -33 -109 -52t-179 -36q-49 -9 -77.5 -14.5
t-72.5 -17t-70 -23.5t-56.5 -31.5t-47.5 -42.5t-28.5 -55.5t-11.5 -71.5q0 -98 62 -151t174 -53z" />
    <glyph glyph-name="acircumflex" unicode="&#xe2;" horiz-adv-x="1268" 
d="M612 1496l-160 -164h-152l220 268h184l220 -268h-156zM1136 140h44v-140q-8 -8 -56 -8q-108 0 -155 46.5t-53 157.5q-64 -97 -182.5 -156.5t-257.5 -59.5q-174 0 -279 93.5t-105 246.5q0 47 10 88t26 72t43.5 58.5t54 47t65.5 37t70.5 28.5t77.5 22t78 17t79 14
q167 32 217 53q82 35 87 105v10q0 93 -79.5 150.5t-208.5 57.5q-114 0 -213.5 -46.5t-174.5 -133.5l-108 104q197 216 500 216q205 0 322.5 -103t117.5 -285v-608q0 -45 19 -64.5t61 -19.5zM488 120q172 0 294 100.5t122 243.5v204q-42 -33 -109 -52t-179 -36
q-49 -9 -77.5 -14.5t-72.5 -17t-70 -23.5t-56.5 -31.5t-47.5 -42.5t-28.5 -55.5t-11.5 -71.5q0 -98 62 -151t174 -53z" />
    <glyph glyph-name="atilde" unicode="&#xe3;" horiz-adv-x="1268" 
d="M484 1476q-64 0 -108 -100l-104 56q72 168 208 168q46 0 93 -25t87.5 -50t71.5 -25q62 0 108 104l104 -56q-71 -172 -208 -172q-46 0 -93 25t-87.5 50t-71.5 25zM1136 140h44v-140q-8 -8 -56 -8q-108 0 -155 46.5t-53 157.5q-64 -97 -182.5 -156.5t-257.5 -59.5
q-174 0 -279 93.5t-105 246.5q0 47 10 88t26 72t43.5 58.5t54 47t65.5 37t70.5 28.5t77.5 22t78 17t79 14q167 32 217 53q82 35 87 105v10q0 93 -79.5 150.5t-208.5 57.5q-114 0 -213.5 -46.5t-174.5 -133.5l-108 104q197 216 500 216q205 0 322.5 -103t117.5 -285v-608
q0 -45 19 -64.5t61 -19.5zM488 120q172 0 294 100.5t122 243.5v204q-42 -33 -109 -52t-179 -36q-49 -9 -77.5 -14.5t-72.5 -17t-70 -23.5t-56.5 -31.5t-47.5 -42.5t-28.5 -55.5t-11.5 -71.5q0 -98 62 -151t174 -53z" />
    <glyph glyph-name="adieresis" unicode="&#xe4;" horiz-adv-x="1268" 
d="M516 1580v-184h-184v184h184zM876 1580v-184h-184v184h184zM1136 140h44v-140q-8 -8 -56 -8q-108 0 -155 46.5t-53 157.5q-64 -97 -182.5 -156.5t-257.5 -59.5q-174 0 -279 93.5t-105 246.5q0 47 10 88t26 72t43.5 58.5t54 47t65.5 37t70.5 28.5t77.5 22t78 17t79 14
q167 32 217 53q82 35 87 105v10q0 93 -79.5 150.5t-208.5 57.5q-114 0 -213.5 -46.5t-174.5 -133.5l-108 104q197 216 500 216q205 0 322.5 -103t117.5 -285v-608q0 -45 19 -64.5t61 -19.5zM488 120q172 0 294 100.5t122 243.5v204q-42 -33 -109 -52t-179 -36
q-49 -9 -77.5 -14.5t-72.5 -17t-70 -23.5t-56.5 -31.5t-47.5 -42.5t-28.5 -55.5t-11.5 -71.5q0 -98 62 -151t174 -53z" />
    <glyph glyph-name="aring" unicode="&#xe5;" horiz-adv-x="1268" 
d="M604 1328q-99 0 -167.5 66t-68.5 162q0 99 68.5 165.5t167.5 66.5t167.5 -66.5t68.5 -165.5q0 -96 -68.5 -162t-167.5 -66zM604 1676q-51 0 -85.5 -34.5t-34.5 -85.5t34.5 -83.5t85.5 -32.5t85.5 32.5t34.5 83.5t-34.5 85.5t-85.5 34.5zM1136 140h44v-140q-8 -8 -56 -8
q-108 0 -155 46.5t-53 157.5q-64 -97 -182.5 -156.5t-257.5 -59.5q-174 0 -279 93.5t-105 246.5q0 47 10 88t26 72t43.5 58.5t54 47t65.5 37t70.5 28.5t77.5 22t78 17t79 14q167 32 217 53q82 35 87 105v10q0 93 -79.5 150.5t-208.5 57.5q-114 0 -213.5 -46.5t-174.5 -133.5
l-108 104q197 216 500 216q205 0 322.5 -103t117.5 -285v-608q0 -45 19 -64.5t61 -19.5zM488 120q172 0 294 100.5t122 243.5v204q-42 -33 -109 -52t-179 -36q-49 -9 -77.5 -14.5t-72.5 -17t-70 -23.5t-56.5 -31.5t-47.5 -42.5t-28.5 -55.5t-11.5 -71.5q0 -98 62 -151
t174 -53z" />
    <glyph glyph-name="ae" unicode="&#xe6;" horiz-adv-x="2068" 
d="M1060 544q12 -195 121.5 -307.5t286.5 -112.5q117 0 208.5 46t143.5 126l108 -100q-67 -94 -184 -155t-276 -61q-170 0 -292.5 78.5t-187.5 217.5q-62 -127 -188 -211.5t-296 -84.5q-183 0 -293.5 93.5t-110.5 246.5q0 74 26 133t70 100t109.5 72t136 50t158.5 33h1h1h1
l1 1h1h1h1h1h1l1 1h1h1h1h1h1h1l1 1h1h2q166 26 215 46q70 29 76 95q1 7 1 16q0 91 -82 151.5t-210 60.5q-114 0 -213 -46.5t-171 -133.5l-112 104q197 216 500 216q154 0 255 -65t137 -183q70 116 182.5 182t245.5 66q234 0 375 -169t141 -451v-56h-900zM1444 1080
q-158 0 -262 -110t-122 -294h740q-15 189 -110.5 296.5t-245.5 107.5zM504 120q109 0 201.5 44.5t149.5 129.5t57 194v180q-44 -33 -109 -49.5t-187 -34.5q-69 -12 -119 -24.5t-97.5 -33t-76 -47t-46 -66t-17.5 -89.5q0 -98 64.5 -151t179.5 -53z" />
    <glyph glyph-name="ccedilla" unicode="&#xe7;" horiz-adv-x="1304" 
d="M696 120q133 0 232.5 73t139.5 195l148 -48q-48 -153 -169 -247t-291 -109l-48 -84q20 4 56 4q85 0 138.5 -45.5t53.5 -122.5q0 -75 -75 -125.5t-189 -50.5q-70 0 -137 20t-115 56l68 104q99 -68 188 -68q57 0 88.5 19.5t31.5 52.5q0 64 -104 64q-40 0 -80 -20l-88 52
l84 144q-229 24 -370.5 193t-141.5 423q0 273 162.5 446.5t417.5 173.5q193 0 332.5 -96.5t187.5 -263.5l-148 -52q-43 125 -141 198.5t-231 73.5q-186 0 -301 -133.5t-115 -346.5t115 -346.5t301 -133.5z" />
    <glyph glyph-name="egrave" unicode="&#xe8;" horiz-adv-x="1360" 
d="M724 1332h-124l-200 268h200zM280 544q15 -196 132 -308t308 -112q130 0 229 47.5t159 128.5l116 -100q-77 -94 -206 -157t-294 -63q-189 0 -328.5 81t-209.5 220.5t-70 318.5q0 272 163.5 446t416.5 174q255 0 407.5 -169t152.5 -451q0 -36 -4 -56h-972zM696 1080
q-170 0 -282.5 -110t-133.5 -294h812q-18 189 -123 296.5t-273 107.5z" />
    <glyph glyph-name="eacute" unicode="&#xe9;" horiz-adv-x="1360" 
d="M960 1600l-200 -268h-124l124 268h200zM280 544q15 -196 132 -308t308 -112q130 0 229 47.5t159 128.5l116 -100q-77 -94 -206 -157t-294 -63q-189 0 -328.5 81t-209.5 220.5t-70 318.5q0 272 163.5 446t416.5 174q255 0 407.5 -169t152.5 -451q0 -36 -4 -56h-972z
M696 1080q-170 0 -282.5 -110t-133.5 -294h812q-18 189 -123 296.5t-273 107.5z" />
    <glyph glyph-name="ecircumflex" unicode="&#xea;" horiz-adv-x="1360" 
d="M688 1496l-160 -164h-152l220 268h184l220 -268h-156zM280 544q15 -196 132 -308t308 -112q130 0 229 47.5t159 128.5l116 -100q-77 -94 -206 -157t-294 -63q-189 0 -328.5 81t-209.5 220.5t-70 318.5q0 272 163.5 446t416.5 174q255 0 407.5 -169t152.5 -451
q0 -36 -4 -56h-972zM696 1080q-170 0 -282.5 -110t-133.5 -294h812q-18 189 -123 296.5t-273 107.5z" />
    <glyph glyph-name="edieresis" unicode="&#xeb;" horiz-adv-x="1360" 
d="M592 1580v-184h-184v184h184zM952 1580v-184h-184v184h184zM280 544q15 -196 132 -308t308 -112q130 0 229 47.5t159 128.5l116 -100q-77 -94 -206 -157t-294 -63q-189 0 -328.5 81t-209.5 220.5t-70 318.5q0 272 163.5 446t416.5 174q255 0 407.5 -169t152.5 -451
q0 -36 -4 -56h-972zM696 1080q-170 0 -282.5 -110t-133.5 -294h812q-18 189 -123 296.5t-273 107.5z" />
    <glyph glyph-name="igrave" unicode="&#xec;" horiz-adv-x="620" 
d="M352 1332h-124l-200 268h200zM232 0v1200h160v-1200h-160z" />
    <glyph glyph-name="iacute" unicode="&#xed;" horiz-adv-x="620" 
d="M264 1332l124 268h200l-200 -268h-124zM232 0v1200h160v-1200h-160z" />
    <glyph glyph-name="icircumflex" unicode="&#xee;" horiz-adv-x="620" 
d="M408 1600l220 -268h-156l-156 164l-160 -164h-152l220 268h184zM232 0v1200h160v-1200h-160z" />
    <glyph glyph-name="idieresis" unicode="&#xef;" horiz-adv-x="620" 
d="M36 1396v184h184v-184h-184zM396 1396v184h184v-184h-184zM232 0v1200h160v-1200h-160z" />
    <glyph glyph-name="eth" unicode="&#xf0;" horiz-adv-x="1368" 
d="M896 1420q324 -304 324 -796q0 -294 -153.5 -469t-402.5 -175q-246 0 -397 164t-151 428q0 263 151 425.5t389 162.5q90 0 177 -34t151 -98q-72 186 -224 320l-264 -144l-64 100l220 120q-88 57 -188 92l64 124q155 -58 264 -140l232 128l64 -104zM664 120
q177 0 282.5 123.5t105.5 328.5t-105.5 328.5t-282.5 123.5q-173 0 -278.5 -125t-105.5 -327q0 -204 105 -328t279 -124z" />
    <glyph glyph-name="ntilde" unicode="&#xf1;" 
d="M604 1476q-64 0 -108 -100l-104 56q72 168 208 168q46 0 93 -25t87.5 -50t71.5 -25q62 0 108 104l104 -56q-71 -172 -208 -172q-46 0 -93 25t-87.5 50t-71.5 25zM800 1220q201 0 324.5 -129t123.5 -351v-740h-160v696q0 186 -87.5 285t-240.5 99q-162 0 -275 -110.5
t-113 -269.5v-700h-160v1200h132l16 -208q67 106 182.5 167t257.5 61z" />
    <glyph glyph-name="ograve" unicode="&#xf2;" horiz-adv-x="1408" 
d="M748 1332h-124l-200 268h200zM704 -20q-266 0 -427 170t-161 450q0 180 74 321.5t208 220t306 78.5q266 0 427 -170t161 -450q0 -180 -74 -321.5t-208 -220t-306 -78.5zM704 120q192 0 308 132t116 348q0 219 -116 349.5t-308 130.5t-308 -132t-116 -348
q0 -219 116 -349.5t308 -130.5z" />
    <glyph glyph-name="oacute" unicode="&#xf3;" horiz-adv-x="1408" 
d="M660 1332l124 268h200l-200 -268h-124zM704 -20q-266 0 -427 170t-161 450q0 180 74 321.5t208 220t306 78.5q266 0 427 -170t161 -450q0 -180 -74 -321.5t-208 -220t-306 -78.5zM704 120q192 0 308 132t116 348q0 219 -116 349.5t-308 130.5t-308 -132t-116 -348
q0 -219 116 -349.5t308 -130.5z" />
    <glyph glyph-name="ocircumflex" unicode="&#xf4;" horiz-adv-x="1408" 
d="M712 1496l-160 -164h-152l220 268h184l220 -268h-156zM704 1220q266 0 427 -170t161 -450q0 -180 -74 -321.5t-208 -220t-306 -78.5q-266 0 -427 170t-161 450q0 180 74 321.5t208 220t306 78.5zM704 120q192 0 308 132t116 348q0 219 -116 349.5t-308 130.5t-308 -132
t-116 -348q0 -219 116 -349.5t308 -130.5z" />
    <glyph glyph-name="otilde" unicode="&#xf5;" horiz-adv-x="1408" 
d="M1044 1548q-71 -172 -208 -172q-46 0 -93 25t-87.5 50t-71.5 25q-64 0 -108 -100l-104 56q72 168 208 168q46 0 93 -25t87.5 -50t71.5 -25q62 0 108 104zM704 -20q-266 0 -427 170t-161 450q0 180 74 321.5t208 220t306 78.5q266 0 427 -170t161 -450q0 -180 -74 -321.5
t-208 -220t-306 -78.5zM704 120q192 0 308 132t116 348q0 219 -116 349.5t-308 130.5t-308 -132t-116 -348q0 -219 116 -349.5t308 -130.5z" />
    <glyph glyph-name="odieresis" unicode="&#xf6;" horiz-adv-x="1408" 
d="M432 1396v184h184v-184h-184zM792 1396v184h184v-184h-184zM704 -20q-266 0 -427 170t-161 450q0 180 74 321.5t208 220t306 78.5q266 0 427 -170t161 -450q0 -180 -74 -321.5t-208 -220t-306 -78.5zM704 120q192 0 308 132t116 348q0 219 -116 349.5t-308 130.5
t-308 -132t-116 -348q0 -219 116 -349.5t308 -130.5z" />
    <glyph glyph-name="divide" unicode="&#xf7;" 
d="M628 1092v184h184v-184h-184zM192 688v144h1056v-144h-1056zM628 244v184h184v-184h-184z" />
    <glyph glyph-name="oslash" unicode="&#xf8;" horiz-adv-x="1408" 
d="M1296 1220l-152 -184q148 -167 148 -436q0 -180 -74 -321.5t-208 -220t-306 -78.5q-205 0 -352 104l-84 -104h-156l152 184q-148 166 -148 436q0 180 74 321.5t208 220t306 78.5q205 0 352 -104l84 104h156zM280 600q0 -186 88 -312l588 712q-105 80 -252 80
q-192 0 -308 -132t-116 -348zM1128 600q0 186 -88 312l-588 -712q105 -80 252 -80q192 0 308 132t116 348z" />
    <glyph glyph-name="ugrave" unicode="&#xf9;" 
d="M756 1332h-124l-200 268h200zM1068 1200h160v-1200h-132l-16 208q-67 -106 -182.5 -167t-257.5 -61q-201 0 -324.5 129t-123.5 351v740h160v-696q0 -186 87.5 -285t240.5 -99q162 0 275 110.5t113 269.5v700z" />
    <glyph glyph-name="uacute" unicode="&#xfa;" 
d="M992 1600l-200 -268h-124l124 268h200zM1068 1200h160v-1200h-132l-16 208q-67 -106 -182.5 -167t-257.5 -61q-201 0 -324.5 129t-123.5 351v740h160v-696q0 -186 87.5 -285t240.5 -99q162 0 275 110.5t113 269.5v700z" />
    <glyph glyph-name="ucircumflex" unicode="&#xfb;" 
d="M720 1496l-160 -164h-152l220 268h184l220 -268h-156zM1068 1200h160v-1200h-132l-16 208q-67 -106 -182.5 -167t-257.5 -61q-201 0 -324.5 129t-123.5 351v740h160v-696q0 -186 87.5 -285t240.5 -99q162 0 275 110.5t113 269.5v700z" />
    <glyph glyph-name="udieresis" unicode="&#xfc;" 
d="M624 1580v-184h-184v184h184zM984 1580v-184h-184v184h184zM1068 1200h160v-1200h-132l-16 208q-67 -106 -182.5 -167t-257.5 -61q-201 0 -324.5 129t-123.5 351v740h160v-696q0 -186 87.5 -285t240.5 -99q162 0 275 110.5t113 269.5v700z" />
    <glyph glyph-name="yacute" unicode="&#xfd;" horiz-adv-x="1256" 
d="M916 1600l-200 -268h-124l124 268h200zM1064 1200h168l-472 -1284q-24 -68 -55 -124t-74 -106t-101 -78t-126 -28q-140 0 -213 89.5t-67 234.5l144 24q-4 -52 4.5 -94t43 -74t92.5 -32q111 0 188 176l-560 1296h176l464 -1100z" />
    <glyph glyph-name="thorn" unicode="&#xfe;" horiz-adv-x="1444" 
d="M792 1220q240 0 390 -172t150 -448q0 -273 -151.5 -446.5t-388.5 -173.5q-133 0 -240 54t-180 154v-588h-160v2000h160v-592q73 101 181.5 156.5t238.5 55.5zM764 120q180 0 292 132.5t112 347.5t-112 347.5t-292 132.5q-185 0 -296.5 -131.5t-111.5 -348.5t111.5 -348.5
t296.5 -131.5z" />
    <glyph glyph-name="ydieresis" unicode="&#xff;" horiz-adv-x="1256" 
d="M548 1580v-184h-184v184h184zM908 1580v-184h-184v184h184zM1064 1200h168l-472 -1284q-24 -68 -55 -124t-74 -106t-101 -78t-126 -28q-140 0 -213 89.5t-67 234.5l144 24q-4 -52 4.5 -94t43 -74t92.5 -32q111 0 188 176l-560 1296h176l464 -1100z" />
    <glyph glyph-name="Amacron" unicode="&#x100;" horiz-adv-x="1536" 
d="M1080 1888v-128h-624v128h624zM1324 0l-164 400h-788l-164 -400h-172l636 1520h192l636 -1520h-176zM432 548h664l-332 804z" />
    <glyph glyph-name="amacron" unicode="&#x101;" horiz-adv-x="1268" 
d="M916 1568v-128h-624v128h624zM1136 140h44v-140q-8 -8 -56 -8q-108 0 -155 46.5t-53 157.5q-64 -97 -182.5 -156.5t-257.5 -59.5q-174 0 -279 93.5t-105 246.5q0 47 10 88t26 72t43.5 58.5t54 47t65.5 37t70.5 28.5t77.5 22t78 17t79 14q167 32 217 53q82 35 87 105v10
q0 93 -79.5 150.5t-208.5 57.5q-114 0 -213.5 -46.5t-174.5 -133.5l-108 104q197 216 500 216q205 0 322.5 -103t117.5 -285v-608q0 -45 19 -64.5t61 -19.5zM488 120q172 0 294 100.5t122 243.5v204q-42 -33 -109 -52t-179 -36q-49 -9 -77.5 -14.5t-72.5 -17t-70 -23.5
t-56.5 -31.5t-47.5 -42.5t-28.5 -55.5t-11.5 -71.5q0 -98 62 -151t174 -53z" />
    <glyph glyph-name="Abreve" unicode="&#x102;" horiz-adv-x="1536" 
d="M768 1648q-131 0 -215 70.5t-105 197.5l136 16q12 -75 59 -115.5t125 -40.5t127 40.5t61 115.5l132 -16q-21 -127 -105 -197.5t-215 -70.5zM1324 0l-164 400h-788l-164 -400h-172l636 1520h192l636 -1520h-176zM432 548h664l-332 804z" />
    <glyph glyph-name="abreve" unicode="&#x103;" horiz-adv-x="1268" 
d="M604 1328q-131 0 -215 70.5t-105 197.5l136 16q12 -75 59 -115.5t125 -40.5t127 40.5t61 115.5l132 -16q-21 -127 -105 -197.5t-215 -70.5zM1136 140h44v-140q-8 -8 -56 -8q-108 0 -155 46.5t-53 157.5q-64 -97 -182.5 -156.5t-257.5 -59.5q-174 0 -279 93.5t-105 246.5
q0 47 10 88t26 72t43.5 58.5t54 47t65.5 37t70.5 28.5t77.5 22t78 17t79 14q167 32 217 53q82 35 87 105v10q0 93 -79.5 150.5t-208.5 57.5q-114 0 -213.5 -46.5t-174.5 -133.5l-108 104q197 216 500 216q205 0 322.5 -103t117.5 -285v-608q0 -45 19 -64.5t61 -19.5z
M488 120q172 0 294 100.5t122 243.5v204q-42 -33 -109 -52t-179 -36q-49 -9 -77.5 -14.5t-72.5 -17t-70 -23.5t-56.5 -31.5t-47.5 -42.5t-28.5 -55.5t-11.5 -71.5q0 -98 62 -151t174 -53z" />
    <glyph glyph-name="Aogonek" unicode="&#x104;" horiz-adv-x="1536" 
d="M1468 -248l56 -104q-78 -48 -164 -48q-98 0 -157 55.5t-59 140.5q0 66 47 126.5t125 93.5l-156 384h-788l-164 -400h-172l636 1520h192l636 -1520q-106 -33 -167 -84t-61 -108q0 -38 26.5 -61t69.5 -23q44 0 100 28zM432 548h664l-332 804z" />
    <glyph glyph-name="aogonek" unicode="&#x105;" horiz-adv-x="1268" 
d="M1152 -248l56 -104q-78 -48 -164 -48q-98 0 -157 55.5t-59 140.5q0 66 47 126.5t125 93.5q-41 24 -61 67t-23 113q-64 -97 -182.5 -156.5t-257.5 -59.5q-174 0 -279 93.5t-105 246.5q0 47 10 88t26 72t43.5 58.5t54 47t65.5 37t70.5 28.5t77.5 22t78 17t79 14
q167 32 217 53q82 35 87 105v10q0 93 -79.5 150.5t-208.5 57.5q-114 0 -213.5 -46.5t-174.5 -133.5l-108 104q197 216 500 216q205 0 322.5 -103t117.5 -285v-608q0 -45 19 -64.5t61 -19.5h44v-140h4q-106 -33 -167 -84t-61 -108q0 -38 26.5 -61t69.5 -23q44 0 100 28z
M488 120q172 0 294 100.5t122 243.5v204q-42 -33 -109 -52t-179 -36q-49 -9 -77.5 -14.5t-72.5 -17t-70 -23.5t-56.5 -31.5t-47.5 -42.5t-28.5 -55.5t-11.5 -71.5q0 -98 62 -151t174 -53z" />
    <glyph glyph-name="Cacute" unicode="&#x106;" horiz-adv-x="1536" 
d="M768 1652l124 268h200l-200 -268h-124zM836 -20q-208 0 -368 97.5t-248 275t-88 407.5q0 225 89.5 403t250.5 277.5t364 99.5q232 0 391 -117t229 -335l-156 -56q-54 179 -171.5 269.5t-292.5 90.5q-238 0 -385 -174t-147 -458q0 -287 145.5 -459.5t386.5 -172.5
q176 0 294.5 91t169.5 269l156 -56q-70 -216 -229.5 -334t-390.5 -118z" />
    <glyph glyph-name="cacute" unicode="&#x107;" horiz-adv-x="1304" 
d="M640 1332l124 268h200l-200 -268h-124zM696 -20q-255 0 -417.5 173.5t-162.5 446.5t162.5 446.5t417.5 173.5q193 0 332.5 -96.5t187.5 -263.5l-148 -52q-43 125 -141 198.5t-231 73.5q-186 0 -301 -133.5t-115 -346.5t115 -346.5t301 -133.5q133 0 232.5 73t139.5 195
l148 -48q-51 -168 -189.5 -264t-330.5 -96z" />
    <glyph glyph-name="Cdotaccent" unicode="&#x10a;" horiz-adv-x="1536" 
d="M720 1716v184h184v-184h-184zM836 -20q-208 0 -368 97.5t-248 275t-88 407.5q0 225 89.5 403t250.5 277.5t364 99.5q232 0 391 -117t229 -335l-156 -56q-54 179 -171.5 269.5t-292.5 90.5q-238 0 -385 -174t-147 -458q0 -287 145.5 -459.5t386.5 -172.5q176 0 294.5 91
t169.5 269l156 -56q-70 -216 -229.5 -334t-390.5 -118z" />
    <glyph glyph-name="cdotaccent" unicode="&#x10b;" horiz-adv-x="1304" 
d="M592 1396v184h184v-184h-184zM696 -20q-255 0 -417.5 173.5t-162.5 446.5t162.5 446.5t417.5 173.5q193 0 332.5 -96.5t187.5 -263.5l-148 -52q-43 125 -141 198.5t-231 73.5q-186 0 -301 -133.5t-115 -346.5t115 -346.5t301 -133.5q133 0 232.5 73t139.5 195l148 -48
q-51 -168 -189.5 -264t-330.5 -96z" />
    <glyph glyph-name="Ccaron" unicode="&#x10c;" horiz-adv-x="1536" 
d="M904 1652h-180l-220 268h152l160 -164l156 164h152zM836 128q176 0 294.5 91t169.5 269l156 -56q-70 -216 -229.5 -334t-390.5 -118q-208 0 -368 97.5t-248 275t-88 407.5q0 225 89.5 403t250.5 277.5t364 99.5q232 0 391 -117t229 -335l-156 -56q-54 179 -171.5 269.5
t-292.5 90.5q-238 0 -385 -174t-147 -458q0 -287 145.5 -459.5t386.5 -172.5z" />
    <glyph glyph-name="ccaron" unicode="&#x10d;" horiz-adv-x="1304" 
d="M776 1332h-180l-220 268h152l160 -164l156 164h152zM696 120q133 0 232.5 73t139.5 195l148 -48q-51 -168 -189.5 -264t-330.5 -96q-255 0 -417.5 173.5t-162.5 446.5t162.5 446.5t417.5 173.5q193 0 332.5 -96.5t187.5 -263.5l-148 -52q-43 125 -141 198.5t-231 73.5
q-186 0 -301 -133.5t-115 -346.5t115 -346.5t301 -133.5z" />
    <glyph glyph-name="Dcaron" unicode="&#x10e;" horiz-adv-x="1636" 
d="M836 1652h-180l-220 268h152l160 -164l156 164h152zM776 1520q340 0 534 -205t194 -555q0 -344 -197 -552t-531 -208h-524v1520h524zM776 152q261 0 410.5 163t149.5 445t-149.5 445t-410.5 163h-360v-1216h360z" />
    <glyph glyph-name="dcaron" unicode="&#x10f;" horiz-adv-x="1448" 
d="M1076 1008v592h160v-1600h-136l-16 212q-73 -110 -184 -171t-244 -61q-242 0 -391 171.5t-149 448.5q0 273 151.5 446.5t388.5 173.5q270 0 420 -212zM1400 1600h168l-56 -304h-112v304zM684 120q183 0 293.5 132t110.5 348t-110.5 348t-293.5 132t-293.5 -132
t-110.5 -348t110.5 -348t293.5 -132z" />
    <glyph glyph-name="Dcroat" unicode="&#x110;" horiz-adv-x="1636" 
d="M776 1520q340 0 534 -205t194 -555q0 -344 -197 -552t-531 -208h-524v708h-164v144h164v668h524zM776 152q261 0 410.5 163t149.5 445t-149.5 445t-410.5 163h-360v-516h312v-144h-312v-556h360z" />
    <glyph glyph-name="dcroat" unicode="&#x111;" horiz-adv-x="1448" 
d="M1448 1444v-132h-212v-1312h-136l-16 212q-73 -110 -184 -171t-244 -61q-242 0 -391 171.5t-149 448.5q0 273 151.5 446.5t388.5 173.5q270 0 420 -212v304h-268v132h268v156h160v-156h212zM684 120q183 0 293.5 132t110.5 348t-110.5 348t-293.5 132t-293.5 -132
t-110.5 -348t110.5 -348t293.5 -132z" />
    <glyph glyph-name="Emacron" unicode="&#x112;" horiz-adv-x="1344" 
d="M1040 1888v-128h-624v128h624zM416 152h848v-152h-1012v1520h992v-152h-828v-516h648v-144h-648v-556z" />
    <glyph glyph-name="emacron" unicode="&#x113;" horiz-adv-x="1360" 
d="M992 1568v-128h-624v128h624zM280 544q15 -196 132 -308t308 -112q130 0 229 47.5t159 128.5l116 -100q-77 -94 -206 -157t-294 -63q-189 0 -328.5 81t-209.5 220.5t-70 318.5q0 272 163.5 446t416.5 174q255 0 407.5 -169t152.5 -451q0 -36 -4 -56h-972zM696 1080
q-170 0 -282.5 -110t-133.5 -294h812q-18 189 -123 296.5t-273 107.5z" />
    <glyph glyph-name="Edotaccent" unicode="&#x116;" horiz-adv-x="1344" 
d="M820 1900v-184h-184v184h184zM416 152h848v-152h-1012v1520h992v-152h-828v-516h648v-144h-648v-556z" />
    <glyph glyph-name="edotaccent" unicode="&#x117;" horiz-adv-x="1360" 
d="M772 1580v-184h-184v184h184zM280 544q15 -196 132 -308t308 -112q130 0 229 47.5t159 128.5l116 -100q-77 -94 -206 -157t-294 -63q-189 0 -328.5 81t-209.5 220.5t-70 318.5q0 272 163.5 446t416.5 174q255 0 407.5 -169t152.5 -451q0 -36 -4 -56h-972zM696 1080
q-170 0 -282.5 -110t-133.5 -294h812q-18 189 -123 296.5t-273 107.5z" />
    <glyph glyph-name="Eogonek" unicode="&#x118;" horiz-adv-x="1344" 
d="M1232 -248l56 -104q-78 -48 -164 -48q-98 0 -157 55.5t-59 140.5q0 60 37 114t103 90h-796v1520h992v-152h-828v-516h648v-144h-648v-556h848v-152q-106 -33 -167 -84t-61 -108q0 -38 26.5 -61t69.5 -23q44 0 100 28z" />
    <glyph glyph-name="eogonek" unicode="&#x119;" horiz-adv-x="1372" 
d="M280 544q15 -196 132 -308t308 -112q130 0 229 47.5t159 128.5l116 -100q-52 -63 -140 -120h4q-152 -101 -185 -128q-83 -75 -87 -140q0 -39 25.5 -61.5t70.5 -22.5q46 0 104 32l56 -100q-81 -56 -168 -56q-98 0 -157 53.5t-59 138.5q0 53 30.5 102.5t85.5 85.5
q-28 -4 -80 -4q-189 0 -328.5 81t-209.5 220.5t-70 318.5q0 272 163.5 446t416.5 174q255 0 407.5 -169t152.5 -451q0 -36 -4 -56h-972zM696 1080q-170 0 -282.5 -110t-133.5 -294h812q-18 189 -123 296.5t-273 107.5z" />
    <glyph glyph-name="Ecaron" unicode="&#x11a;" horiz-adv-x="1344" 
d="M820 1652h-180l-220 268h152l160 -164l156 164h152zM416 152h848v-152h-1012v1520h992v-152h-828v-516h648v-144h-648v-556z" />
    <glyph glyph-name="ecaron" unicode="&#x11b;" horiz-adv-x="1360" 
d="M772 1332h-180l-220 268h152l160 -164l156 164h152zM280 544q15 -196 132 -308t308 -112q130 0 229 47.5t159 128.5l116 -100q-77 -94 -206 -157t-294 -63q-189 0 -328.5 81t-209.5 220.5t-70 318.5q0 272 163.5 446t416.5 174q255 0 407.5 -169t152.5 -451q0 -36 -4 -56
h-972zM696 1080q-170 0 -282.5 -110t-133.5 -294h812q-18 189 -123 296.5t-273 107.5z" />
    <glyph glyph-name="Gbreve" unicode="&#x11e;" horiz-adv-x="1660" 
d="M852 1648q-131 0 -215 70.5t-105 197.5l136 16q12 -75 59 -115.5t125 -40.5t127 40.5t61 115.5l132 -16q-21 -127 -105 -197.5t-215 -70.5zM912 744h584v-744h-128l-8 264q-82 -137 -215 -210.5t-305 -73.5q-318 0 -513 215t-195 569q0 167 53.5 311.5t147.5 246.5
t228 160t291 58q228 0 388.5 -107.5t235.5 -308.5l-156 -60q-54 161 -174.5 244.5t-293.5 83.5q-244 0 -396 -173.5t-152 -454.5q0 -294 145.5 -465t394.5 -171q204 0 345 122.5t167 353.5h-444v140z" />
    <glyph glyph-name="gbreve" unicode="&#x11f;" horiz-adv-x="1444" 
d="M684 1328q-131 0 -215 70.5t-105 197.5l136 16q12 -75 59 -115.5t125 -40.5t127 40.5t61 115.5l132 -16q-21 -127 -105 -197.5t-215 -70.5zM1100 1200h136l-4 -1092q0 -236 -149 -382t-399 -146q-303 0 -472 188l100 108q72 -80 160 -116t212 -36q198 0 297 103.5
t99 284.5v132q-73 -101 -182 -156.5t-242 -55.5q-242 0 -391 163.5t-149 428.5q0 263 151 429.5t389 166.5q137 0 247.5 -56.5t180.5 -159.5zM684 168q182 0 293 125.5t111 330.5q0 207 -110.5 331.5t-293.5 124.5q-182 0 -293 -125.5t-111 -330.5t111 -330.5t293 -125.5z
" />
    <glyph glyph-name="Gdotaccent" unicode="&#x120;" horiz-adv-x="1660" 
d="M944 1900v-184h-184v184h184zM912 744h584v-744h-128l-8 264q-82 -137 -215 -210.5t-305 -73.5q-318 0 -513 215t-195 569q0 167 53.5 311.5t147.5 246.5t228 160t291 58q228 0 388.5 -107.5t235.5 -308.5l-156 -60q-54 161 -174.5 244.5t-293.5 83.5q-244 0 -396 -173.5
t-152 -454.5q0 -294 145.5 -465t394.5 -171q204 0 345 122.5t167 353.5h-444v140z" />
    <glyph glyph-name="gdotaccent" unicode="&#x121;" horiz-adv-x="1444" 
d="M776 1580v-184h-184v184h184zM1100 1200h136l-4 -1092q0 -236 -149 -382t-399 -146q-303 0 -472 188l100 108q72 -80 160 -116t212 -36q198 0 297 103.5t99 284.5v132q-73 -101 -182 -156.5t-242 -55.5q-242 0 -391 163.5t-149 428.5q0 263 151 429.5t389 166.5
q137 0 247.5 -56.5t180.5 -159.5zM684 168q182 0 293 125.5t111 330.5q0 207 -110.5 331.5t-293.5 124.5q-182 0 -293 -125.5t-111 -330.5t111 -330.5t293 -125.5z" />
    <glyph glyph-name="uni0122" unicode="&#x122;" horiz-adv-x="1660" 
d="M912 744h584v-744h-128l-8 264q-82 -137 -215 -210.5t-305 -73.5q-318 0 -513 215t-195 569q0 167 53.5 311.5t147.5 246.5t228 160t291 58q228 0 388.5 -107.5t235.5 -308.5l-156 -60q-54 161 -174.5 244.5t-293.5 83.5q-244 0 -396 -173.5t-152 -454.5
q0 -294 145.5 -465t394.5 -171q204 0 345 122.5t167 353.5h-444v140zM776 -292v160h184v-164q0 -91 -43 -137.5t-117 -46.5h-24v96h32q56 0 56 72v20h-88z" />
    <glyph glyph-name="uni0123" unicode="&#x123;" horiz-adv-x="1444" 
d="M776 1520v-180h-184v196q0 91 43 137.5t117 46.5h24v-96h-32q-56 0 -56 -72v-32h88zM1100 1200h136l-4 -1092q0 -236 -149 -382t-399 -146q-303 0 -472 188l100 108q72 -80 160 -116t212 -36q198 0 297 103.5t99 284.5v132q-73 -101 -182 -156.5t-242 -55.5
q-242 0 -391 163.5t-149 428.5q0 263 151 429.5t389 166.5q137 0 247.5 -56.5t180.5 -159.5zM684 168q182 0 293 125.5t111 330.5q0 207 -110.5 331.5t-293.5 124.5q-182 0 -293 -125.5t-111 -330.5t111 -330.5t293 -125.5z" />
    <glyph glyph-name="Hbar" unicode="&#x126;" horiz-adv-x="1720" 
d="M1628 1268v-144h-160v-1124h-164v704h-888v-704h-164v1124h-160v144h160v252h164v-252h888v252h164v-252h160zM1304 856v268h-888v-268h888z" />
    <glyph glyph-name="hbar" unicode="&#x127;" 
d="M796 1220q204 0 328 -129t124 -351v-740h-160v696q0 186 -87.5 285t-240.5 99q-162 0 -275 -110.5t-113 -269.5v-700h-160v1312h-164v132h164v156h160v-156h316v-132h-316v-300q67 97 178.5 152.5t245.5 55.5z" />
    <glyph glyph-name="Imacron" unicode="&#x12a;" horiz-adv-x="668" 
d="M20 1760v128h624v-128h-624zM252 0v1520h164v-1520h-164z" />
    <glyph glyph-name="imacron" unicode="&#x12b;" horiz-adv-x="620" 
d="M-4 1440v128h624v-128h-624zM232 0v1200h160v-1200h-160z" />
    <glyph glyph-name="Iogonek" unicode="&#x12e;" horiz-adv-x="668" 
d="M384 -248l56 -104q-78 -48 -164 -48q-97 0 -156.5 55.5t-59.5 140.5q0 72 52.5 135t139.5 93v1496h164v-1520q-106 -33 -167 -84t-61 -108q0 -38 26.5 -61t69.5 -23q44 0 100 28z" />
    <glyph glyph-name="iogonek" unicode="&#x12f;" horiz-adv-x="620" 
d="M400 1580v-184h-184v184h184zM360 -248l56 -104q-78 -48 -164 -48q-98 0 -157 55.5t-59 140.5q0 72 54 135.5t142 96.5v1172h160v-1200q-106 -33 -167 -84t-61 -108q0 -38 26.5 -61t69.5 -23q44 0 100 28z" />
    <glyph glyph-name="Idotaccent" unicode="&#x130;" horiz-adv-x="668" 
d="M240 1716v184h184v-184h-184zM252 0v1520h164v-1520h-164z" />
    <glyph glyph-name="dotlessi" unicode="&#x131;" horiz-adv-x="620" 
d="M232 0v1200h160v-1200h-160z" />
    <glyph glyph-name="uni0136" unicode="&#x136;" horiz-adv-x="1524" 
d="M780 884l704 -884h-212l-608 772l-248 -240v-532h-164v1520h164v-796l808 796h208zM736 -292v160h184v-164q0 -91 -43 -137.5t-117 -46.5h-24v96h32q56 0 56 72v20h-88z" />
    <glyph glyph-name="uni0137" unicode="&#x137;" horiz-adv-x="1248" 
d="M676 708l560 -708h-200l-476 600l-188 -176v-424h-160v1600h160v-992l632 592h204zM564 -292v160h184v-164q0 -91 -43 -137.5t-117 -46.5h-24v96h32q56 0 56 72v20h-88z" />
    <glyph glyph-name="kgreenlandic" unicode="&#x138;" horiz-adv-x="1248" 
d="M1036 0l-476 600l-188 -176v-424h-160v1200h160v-592l632 592h204l-532 -492l560 -708h-200z" />
    <glyph glyph-name="Lacute" unicode="&#x139;" horiz-adv-x="1324" 
d="M612 2000l-200 -268h-124l124 268h200zM416 156h860v-156h-1024v1520h164v-1364z" />
    <glyph glyph-name="lacute" unicode="&#x13a;" horiz-adv-x="580" 
d="M244 1732l124 268h200l-200 -268h-124zM212 0v1600h160v-1600h-160z" />
    <glyph glyph-name="uni013B" unicode="&#x13b;" horiz-adv-x="1324" 
d="M416 156h860v-156h-1024v1520h164v-1364zM652 -292v160h184v-164q0 -91 -43 -137.5t-117 -46.5h-24v96h32q56 0 56 72v20h-88z" />
    <glyph glyph-name="uni013C" unicode="&#x13c;" horiz-adv-x="580" 
d="M372 1600v-1600h-160v1600h160zM196 -132h184v-164q0 -91 -43 -137.5t-117 -46.5h-24v96h32q56 0 56 72v20h-88v160z" />
    <glyph glyph-name="Lcaron" unicode="&#x13d;" horiz-adv-x="1324" 
d="M416 156h860v-156h-1024v1520h164v-1364zM764 1520l-56 -304h-112v304h168z" />
    <glyph glyph-name="lcaron" unicode="&#x13e;" horiz-adv-x="580" 
d="M212 0v1600h160v-1600h-160zM532 1296v304h168l-56 -304h-112z" />
    <glyph glyph-name="Lslash" unicode="&#x141;" horiz-adv-x="1324" 
d="M416 156h860v-156h-1024v600l-168 -52v140l168 52v780h164v-728l456 140v-140l-456 -140v-496z" />
    <glyph glyph-name="lslash" unicode="&#x142;" horiz-adv-x="640" 
d="M580 940v-140l-188 -56v-744h-160v692l-172 -52v140l172 52v768h160v-716z" />
    <glyph glyph-name="Nacute" unicode="&#x143;" horiz-adv-x="1720" 
d="M1140 1920l-200 -268h-124l124 268h200zM1312 1520h156v-1520h-168l-892 1268v-1268h-156v1520h172l888 -1264v1264z" />
    <glyph glyph-name="nacute" unicode="&#x144;" 
d="M1004 1600l-200 -268h-124l124 268h200zM800 1220q201 0 324.5 -129t123.5 -351v-740h-160v696q0 186 -87.5 285t-240.5 99q-162 0 -275 -110.5t-113 -269.5v-700h-160v1200h132l16 -208q67 106 182.5 167t257.5 61z" />
    <glyph glyph-name="uni0145" unicode="&#x145;" horiz-adv-x="1720" 
d="M1312 1520h156v-1520h-168l-892 1268v-1268h-156v1520h172l888 -1264v1264zM756 -292v160h184v-164q0 -91 -43 -137.5t-117 -46.5h-24v96h32q56 0 56 72v20h-88z" />
    <glyph glyph-name="uni0146" unicode="&#x146;" 
d="M800 1220q201 0 324.5 -129t123.5 -351v-740h-160v696q0 186 -87.5 285t-240.5 99q-162 0 -275 -110.5t-113 -269.5v-700h-160v1200h132l16 -208q67 106 182.5 167t257.5 61zM632 -292v160h184v-164q0 -91 -43 -137.5t-117 -46.5h-24v96h32q56 0 56 72v20h-88z" />
    <glyph glyph-name="Ncaron" unicode="&#x147;" horiz-adv-x="1720" 
d="M952 1652h-180l-220 268h152l160 -164l156 164h152zM1312 1520h156v-1520h-168l-892 1268v-1268h-156v1520h172l888 -1264v1264z" />
    <glyph glyph-name="ncaron" unicode="&#x148;" 
d="M816 1332h-180l-220 268h152l160 -164l156 164h152zM800 1220q201 0 324.5 -129t123.5 -351v-740h-160v696q0 186 -87.5 285t-240.5 99q-162 0 -275 -110.5t-113 -269.5v-700h-160v1200h132l16 -208q67 106 182.5 167t257.5 61z" />
    <glyph glyph-name="Eng" unicode="&#x14a;" horiz-adv-x="1712" 
d="M1308 1520h152v-1640q0 -80 -21 -137.5t-60 -89.5t-89 -46.5t-114 -14.5q-48 0 -88 8v148h76q69 0 102.5 33t33.5 111v96l-896 1272v-1260h-152v1520h172l884 -1252v1252z" />
    <glyph glyph-name="eng" unicode="&#x14b;" horiz-adv-x="1432" 
d="M800 1220q198 0 321 -126.5t123 -333.5v-880q0 -80 -21 -137.5t-60 -89.5t-89 -46.5t-114 -14.5q-48 0 -104 8v148h88q71 0 103.5 32.5t32.5 111.5v812q0 176 -81.5 272t-226.5 96q-167 0 -281.5 -106.5t-114.5 -269.5v-696h-164v1200h132l16 -204q67 103 184 163.5
t256 60.5z" />
    <glyph glyph-name="Omacron" unicode="&#x14c;" horiz-adv-x="1680" 
d="M528 1760v128h624v-128h-624zM840 -20q-208 0 -369 97.5t-250 275.5t-89 407q0 225 90.5 403t252 277.5t365.5 99.5q208 0 369 -97.5t250 -275.5t89 -407q0 -225 -90.5 -403t-252 -277.5t-365.5 -99.5zM840 128q240 0 388 175t148 457t-148 457t-388 175t-388 -175
t-148 -457t148 -457t388 -175z" />
    <glyph glyph-name="omacron" unicode="&#x14d;" horiz-adv-x="1408" 
d="M392 1440v128h624v-128h-624zM704 -20q-266 0 -427 170t-161 450q0 180 74 321.5t208 220t306 78.5q266 0 427 -170t161 -450q0 -180 -74 -321.5t-208 -220t-306 -78.5zM704 120q192 0 308 132t116 348q0 219 -116 349.5t-308 130.5t-308 -132t-116 -348
q0 -219 116 -349.5t308 -130.5z" />
    <glyph glyph-name="Ohungarumlaut" unicode="&#x150;" horiz-adv-x="1680" 
d="M568 1716v184h184v-184h-184zM928 1716v184h184v-184h-184zM840 -20q-208 0 -369 97.5t-250 275.5t-89 407q0 225 90.5 403t252 277.5t365.5 99.5q208 0 369 -97.5t250 -275.5t89 -407q0 -225 -90.5 -403t-252 -277.5t-365.5 -99.5zM840 128q240 0 388 175t148 457
t-148 457t-388 175t-388 -175t-148 -457t148 -457t388 -175z" />
    <glyph glyph-name="ohungarumlaut" unicode="&#x151;" horiz-adv-x="1408" 
d="M472 1332l124 268h200l-200 -268h-124zM808 1332l124 268h200l-200 -268h-124zM704 -20q-266 0 -427 170t-161 450q0 180 74 321.5t208 220t306 78.5q266 0 427 -170t161 -450q0 -180 -74 -321.5t-208 -220t-306 -78.5zM704 120q192 0 308 132t116 348q0 219 -116 349.5
t-308 130.5t-308 -132t-116 -348q0 -219 116 -349.5t308 -130.5z" />
    <glyph glyph-name="OE" unicode="&#x152;" horiz-adv-x="2072" 
d="M1236 152h756v-152h-1128q-340 0 -536 205t-196 555q0 347 197.5 553.5t534.5 206.5h1108v-152h-736v-516h556v-144h-556v-556zM864 152h208v1216h-208q-261 0 -410.5 -163t-149.5 -445t149.5 -445t410.5 -163z" />
    <glyph glyph-name="oe" unicode="&#x153;" horiz-adv-x="2248" 
d="M1240 544q12 -195 121 -307.5t283 -112.5q120 0 209.5 45.5t142.5 126.5l112 -100q-67 -94 -184 -155t-276 -61q-173 0 -298 79.5t-190 220.5q-70 -140 -197.5 -220t-290.5 -80q-252 0 -404 170.5t-152 449.5q0 273 155 446.5t401 173.5q167 0 294.5 -79t193.5 -221
q67 139 189.5 219.5t274.5 80.5q234 0 375 -169t141 -451q0 -36 -4 -56h-896zM684 120q183 0 293.5 132t110.5 348q0 219 -110.5 349.5t-293.5 130.5t-293.5 -132t-110.5 -348q0 -219 110.5 -349.5t293.5 -130.5zM1624 1080q-158 0 -262 -110t-122 -294h740
q-15 189 -110.5 296.5t-245.5 107.5z" />
    <glyph glyph-name="Racute" unicode="&#x154;" horiz-adv-x="1524" 
d="M1008 1920l-200 -268h-124l124 268h200zM1436 0h-196l-384 620h-16h-424v-620h-164v1520h588q228 0 366 -122t138 -326q0 -155 -83.5 -267t-228.5 -157zM416 1372v-608h404q170 0 261 79.5t91 224.5t-91 224.5t-261 79.5h-404z" />
    <glyph glyph-name="racute" unicode="&#x155;" horiz-adv-x="920" 
d="M816 1600l-200 -268h-124l124 268h200zM800 1220q24 0 80 -8v-156q-80 8 -124 8q-166 0 -275 -106t-109 -270v-688h-160v1200h132l16 -204q67 104 182.5 164t257.5 60z" />
    <glyph glyph-name="uni0156" unicode="&#x156;" horiz-adv-x="1524" 
d="M1032 648l404 -648h-196l-384 620h-16h-424v-620h-164v1520h588q228 0 366 -122t138 -326q0 -155 -83.5 -267t-228.5 -157zM416 1372v-608h404q170 0 261 79.5t91 224.5t-91 224.5t-261 79.5h-404zM756 -292v160h184v-164q0 -91 -43 -137.5t-117 -46.5h-24v96h32
q56 0 56 72v20h-88z" />
    <glyph glyph-name="uni0157" unicode="&#x157;" horiz-adv-x="920" 
d="M800 1220q24 0 80 -8v-156q-80 8 -124 8q-166 0 -275 -106t-109 -270v-688h-160v1200h132l16 -204q67 104 182.5 164t257.5 60zM208 -292v160h184v-164q0 -91 -43 -137.5t-117 -46.5h-24v96h32q56 0 56 72v20h-88z" />
    <glyph glyph-name="Rcaron" unicode="&#x158;" horiz-adv-x="1524" 
d="M820 1652h-180l-220 268h152l160 -164l156 164h152zM1436 0h-196l-384 620h-16h-424v-620h-164v1520h588q228 0 366 -122t138 -326q0 -155 -83.5 -267t-228.5 -157zM416 1372v-608h404q170 0 261 79.5t91 224.5t-91 224.5t-261 79.5h-404z" />
    <glyph glyph-name="rcaron" unicode="&#x159;" horiz-adv-x="920" 
d="M628 1332h-180l-220 268h152l160 -164l156 164h152zM800 1220q24 0 80 -8v-156q-80 8 -124 8q-166 0 -275 -106t-109 -270v-688h-160v1200h132l16 -204q67 104 182.5 164t257.5 60z" />
    <glyph glyph-name="Sacute" unicode="&#x15a;" horiz-adv-x="1392" 
d="M644 1652l124 268h200l-200 -268h-124zM676 -20q-168 0 -317 58.5t-263 169.5l104 124q204 -204 492 -204q189 0 296.5 71t107.5 197q0 100 -85 165.5t-307 130.5q-144 42 -238 80t-167 89.5t-106 117.5t-33 153q0 188 147 298t397 110q302 0 520 -176l-96 -128
q-93 75 -205.5 115.5t-226.5 40.5q-171 0 -271.5 -67.5t-100.5 -184.5q0 -99 89 -162t319 -126q293 -81 412.5 -180.5t119.5 -259.5q0 -198 -159 -315t-429 -117z" />
    <glyph glyph-name="sacute" unicode="&#x15b;" horiz-adv-x="1108" 
d="M500 1332l124 268h200l-200 -268h-124zM560 -20q-144 0 -269.5 49.5t-218.5 142.5l100 112q154 -160 388 -160q141 0 222.5 50.5t81.5 137.5q0 78 -70 127.5t-250 100.5q-229 63 -322.5 142.5t-93.5 209.5q0 144 123 236t313 92q246 0 428 -152l-100 -124
q-138 132 -332 132q-124 0 -200 -48t-76 -128q0 -72 64.5 -116.5t243.5 -95.5q235 -69 331.5 -150t96.5 -210q0 -156 -126.5 -252t-333.5 -96z" />
    <glyph glyph-name="Scedilla" unicode="&#x15e;" horiz-adv-x="1392" 
d="M1264 412q0 -180 -134 -295t-362 -133l-52 -84q20 4 56 4q85 0 138.5 -45.5t53.5 -122.5q0 -75 -75 -125.5t-189 -50.5q-70 0 -137 20t-115 56l68 104q99 -68 188 -68q57 0 88.5 19.5t31.5 52.5q0 64 -104 64q-40 0 -80 -20l-88 52l80 140q-321 18 -536 228l104 124
q204 -204 492 -204q189 0 296.5 71t107.5 197q0 100 -85 165.5t-307 130.5q-144 42 -238 80t-167 89.5t-106 117.5t-33 153q0 188 147 298t397 110q302 0 520 -176l-96 -128q-93 75 -205.5 115.5t-226.5 40.5q-171 0 -271.5 -67.5t-100.5 -184.5q0 -99 89 -162t319 -126
q293 -81 412.5 -180.5t119.5 -259.5z" />
    <glyph glyph-name="scedilla" unicode="&#x15f;" horiz-adv-x="1108" 
d="M1020 328q0 -144 -108.5 -238t-291.5 -106l-48 -84q20 4 56 4q85 0 138.5 -45.5t53.5 -122.5q0 -75 -75 -125.5t-189 -50.5q-70 0 -137 20t-115 56l68 104q99 -68 188 -68q57 0 88.5 19.5t31.5 52.5q0 64 -104 64q-40 0 -80 -20l-88 52l84 144q-122 9 -230 57.5
t-190 130.5l100 112q154 -160 388 -160q141 0 222.5 50.5t81.5 137.5q0 78 -70 127.5t-250 100.5q-229 63 -322.5 142.5t-93.5 209.5q0 144 123 236t313 92q246 0 428 -152l-100 -124q-138 132 -332 132q-124 0 -200 -48t-76 -128q0 -72 64.5 -116.5t243.5 -95.5
q235 -69 331.5 -150t96.5 -210z" />
    <glyph glyph-name="Scaron" unicode="&#x160;" horiz-adv-x="1392" 
d="M780 1652h-180l-220 268h152l160 -164l156 164h152zM732 852q293 -81 412.5 -180.5t119.5 -259.5q0 -198 -159 -315t-429 -117q-168 0 -317 58.5t-263 169.5l104 124q204 -204 492 -204q189 0 296.5 71t107.5 197q0 100 -85 165.5t-307 130.5q-144 42 -238 80t-167 89.5
t-106 117.5t-33 153q0 188 147 298t397 110q302 0 520 -176l-96 -128q-93 75 -205.5 115.5t-226.5 40.5q-171 0 -271.5 -67.5t-100.5 -184.5q0 -99 89 -162t319 -126z" />
    <glyph glyph-name="scaron" unicode="&#x161;" horiz-adv-x="1108" 
d="M636 1332h-180l-220 268h152l160 -164l156 164h152zM592 688q235 -69 331.5 -150t96.5 -210q0 -156 -126.5 -252t-333.5 -96q-144 0 -269.5 49.5t-218.5 142.5l100 112q154 -160 388 -160q141 0 222.5 50.5t81.5 137.5q0 78 -70 127.5t-250 100.5q-229 63 -322.5 142.5
t-93.5 209.5q0 144 123 236t313 92q246 0 428 -152l-100 -124q-138 132 -332 132q-124 0 -200 -48t-76 -128q0 -72 64.5 -116.5t243.5 -95.5z" />
    <glyph glyph-name="uni0162" unicode="&#x162;" horiz-adv-x="1388" 
d="M1348 1364h-572v-1364h4l-60 -100q20 4 56 4q85 0 138.5 -45.5t53.5 -122.5q0 -75 -75 -125.5t-189 -50.5q-70 0 -137 20t-115 56l68 104q99 -68 188 -68q57 0 88.5 19.5t31.5 52.5q0 64 -104 64q-40 0 -80 -20l-88 52l92 160h-36v1364h-572v156h1308v-156z" />
    <glyph glyph-name="uni0163" unicode="&#x163;" horiz-adv-x="964" 
d="M664 -96q85 0 138.5 -45.5t53.5 -122.5q0 -75 -75 -125.5t-189 -50.5q-70 0 -137 20t-115 56l68 104q99 -68 188 -68q57 0 88.5 19.5t31.5 52.5q0 64 -104 64q-40 0 -80 -20l-88 52l84 148q-111 24 -169.5 101t-58.5 203v768h-236v140h236l24 320h136v-320h392v-140h-392
v-748q0 -100 43 -142t141 -42q110 0 208 28v-148q-91 -21 -196 -28l-48 -80q20 4 56 4z" />
    <glyph glyph-name="Tcaron" unicode="&#x164;" horiz-adv-x="1388" 
d="M784 1652h-180l-220 268h152l160 -164l156 164h152zM1348 1520v-156h-572v-1364h-164v1364h-572v156h1308z" />
    <glyph glyph-name="tcaron" unicode="&#x165;" horiz-adv-x="964" 
d="M788 1600l-56 -304h-112v304h168zM852 1060h-392v-748q0 -100 43 -142t141 -42q110 0 208 28v-148q-112 -28 -228 -28q-158 0 -241 80.5t-83 231.5v768h-236v140h236l24 320h136v-320h392v-140z" />
    <glyph glyph-name="Tbar" unicode="&#x166;" horiz-adv-x="1388" 
d="M1348 1364h-572v-512h316v-144h-316v-708h-164v708h-312v144h312v512h-572v156h1308v-156z" />
    <glyph glyph-name="tbar" unicode="&#x167;" horiz-adv-x="964" 
d="M852 1060h-392v-376h344v-144h-344v-228q0 -100 43 -142t141 -42q110 0 208 28v-148q-112 -28 -228 -28q-158 0 -241 80.5t-83 231.5v248h-232v144h232v376h-236v140h236l24 320h136v-320h392v-140z" />
    <glyph glyph-name="Umacron" unicode="&#x16a;" horiz-adv-x="1680" 
d="M528 1760v128h624v-128h-624zM840 -20q-274 0 -441 164.5t-167 439.5v936h164v-936q0 -207 120 -329.5t324 -122.5t324 122.5t120 329.5v936h164v-936q0 -275 -167 -439.5t-441 -164.5z" />
    <glyph glyph-name="umacron" unicode="&#x16b;" 
d="M1024 1568v-128h-624v128h624zM1068 1200h160v-1200h-132l-16 208q-67 -106 -182.5 -167t-257.5 -61q-201 0 -324.5 129t-123.5 351v740h160v-696q0 -186 87.5 -285t240.5 -99q162 0 275 110.5t113 269.5v700z" />
    <glyph glyph-name="Uring" unicode="&#x16e;" horiz-adv-x="1680" 
d="M840 1476q-99 0 -167.5 66t-68.5 162q0 99 68.5 165.5t167.5 66.5t167.5 -66.5t68.5 -165.5q0 -96 -68.5 -162t-167.5 -66zM840 1588q51 0 85.5 32.5t34.5 83.5t-34.5 85.5t-85.5 34.5t-85.5 -34.5t-34.5 -85.5t34.5 -83.5t85.5 -32.5zM840 -20q-274 0 -441 164.5
t-167 439.5v936h164v-936q0 -207 120 -329.5t324 -122.5t324 122.5t120 329.5v936h164v-936q0 -275 -167 -439.5t-441 -164.5z" />
    <glyph glyph-name="uring" unicode="&#x16f;" 
d="M712 1328q-99 0 -167.5 66t-68.5 162q0 99 68.5 165.5t167.5 66.5t167.5 -66.5t68.5 -165.5q0 -96 -68.5 -162t-167.5 -66zM712 1676q-51 0 -85.5 -34.5t-34.5 -85.5t34.5 -83.5t85.5 -32.5t85.5 32.5t34.5 83.5t-34.5 85.5t-85.5 34.5zM1068 1200h160v-1200h-132
l-16 208q-67 -106 -182.5 -167t-257.5 -61q-201 0 -324.5 129t-123.5 351v740h160v-696q0 -186 87.5 -285t240.5 -99q162 0 275 110.5t113 269.5v700z" />
    <glyph glyph-name="Uhungarumlaut" unicode="&#x170;" horiz-adv-x="1680" 
d="M608 1652l124 268h200l-200 -268h-124zM944 1652l124 268h200l-200 -268h-124zM840 -20q-274 0 -441 164.5t-167 439.5v936h164v-936q0 -207 120 -329.5t324 -122.5t324 122.5t120 329.5v936h164v-936q0 -275 -167 -439.5t-441 -164.5z" />
    <glyph glyph-name="uhungarumlaut" unicode="&#x171;" 
d="M804 1600l-200 -268h-124l124 268h200zM1140 1600l-200 -268h-124l124 268h200zM1068 1200h160v-1200h-132l-16 208q-67 -106 -182.5 -167t-257.5 -61q-201 0 -324.5 129t-123.5 351v740h160v-696q0 -186 87.5 -285t240.5 -99q162 0 275 110.5t113 269.5v700z" />
    <glyph glyph-name="Uogonek" unicode="&#x172;" horiz-adv-x="1680" 
d="M1284 1520h164v-936q0 -177 -71.5 -310t-200.5 -210q-18 -12 -71 -45t-78.5 -50.5t-60.5 -46.5t-50.5 -56t-15.5 -54q0 -39 25 -61.5t67 -22.5q53 0 104 32l60 -100q-81 -56 -168 -56q-98 0 -157 53.5t-59 138.5q0 110 108 184h-40q-274 0 -441 164.5t-167 439.5v936h164
v-936q0 -207 120 -329.5t324 -122.5t324 122.5t120 329.5v936z" />
    <glyph glyph-name="uogonek" unicode="&#x173;" 
d="M1208 -248l56 -104q-78 -48 -164 -48q-98 0 -157 55.5t-59 140.5q0 75 57.5 140.5t150.5 95.5l-12 176q-67 -106 -182.5 -167t-257.5 -61q-201 0 -324.5 129t-123.5 351v740h160v-696q0 -186 87.5 -285t240.5 -99q162 0 275 110.5t113 269.5v700h160v-1196l12 -4
q-106 -33 -167 -84t-61 -108q0 -38 26.5 -61t69.5 -23q44 0 100 28z" />
    <glyph glyph-name="Wcircumflex" unicode="&#x174;" horiz-adv-x="2188" 
d="M1104 1816l-160 -164h-152l220 268h184l220 -268h-156zM1940 1520h160l-440 -1520h-172l-396 1312l-392 -1312h-172l-440 1520h168l372 -1272l376 1272h184l380 -1280z" />
    <glyph glyph-name="wcircumflex" unicode="&#x175;" horiz-adv-x="1848" 
d="M932 1496l-160 -164h-152l220 268h184l220 -268h-156zM1628 1200h156l-380 -1200h-172l-308 992l-304 -992h-172l-384 1200h164l308 -1004l308 1004h164l312 -1008z" />
    <glyph glyph-name="Ycircumflex" unicode="&#x176;" horiz-adv-x="1416" 
d="M716 1816l-160 -164h-152l220 268h184l220 -268h-156zM1392 1520l-600 -900v-620h-168v616l-600 904h192l496 -744l492 744h188z" />
    <glyph glyph-name="ycircumflex" unicode="&#x177;" horiz-adv-x="1256" 
d="M644 1496l-160 -164h-152l220 268h184l220 -268h-156zM1064 1200h168l-472 -1284q-24 -68 -55 -124t-74 -106t-101 -78t-126 -28q-140 0 -213 89.5t-67 234.5l144 24q-4 -52 4.5 -94t43 -74t92.5 -32q111 0 188 176l-560 1296h176l464 -1100z" />
    <glyph glyph-name="Ydieresis" unicode="&#x178;" horiz-adv-x="1416" 
d="M620 1900v-184h-184v184h184zM980 1900v-184h-184v184h184zM1392 1520l-600 -900v-620h-168v616l-600 904h192l496 -744l492 744h188z" />
    <glyph glyph-name="Zacute" unicode="&#x179;" horiz-adv-x="1412" 
d="M996 1920l-200 -268h-124l124 268h200zM1308 1520v-148l-992 -1216h992v-156h-1200v148l992 1216h-948v156h1156z" />
    <glyph glyph-name="zacute" unicode="&#x17a;" horiz-adv-x="1168" 
d="M876 1600l-200 -268h-124l124 268h200zM272 140h816v-140h-1004v148l792 912h-756v140h944v-148z" />
    <glyph glyph-name="Zdotaccent" unicode="&#x17b;" horiz-adv-x="1412" 
d="M808 1900v-184h-184v184h184zM1308 1520v-148l-992 -1216h992v-156h-1200v148l992 1216h-948v156h1156z" />
    <glyph glyph-name="zdotaccent" unicode="&#x17c;" horiz-adv-x="1168" 
d="M688 1580v-184h-184v184h184zM272 140h816v-140h-1004v148l792 912h-756v140h944v-148z" />
    <glyph glyph-name="Zcaron" unicode="&#x17d;" horiz-adv-x="1412" 
d="M808 1652h-180l-220 268h152l160 -164l156 164h152zM1308 1520v-148l-992 -1216h992v-156h-1200v148l992 1216h-948v156h1156z" />
    <glyph glyph-name="zcaron" unicode="&#x17e;" horiz-adv-x="1168" 
d="M688 1332h-180l-220 268h152l160 -164l156 164h152zM272 140h816v-140h-1004v148l792 912h-756v140h944v-148z" />
    <glyph glyph-name="uni0218" unicode="&#x218;" horiz-adv-x="1392" 
d="M732 852q293 -81 412.5 -180.5t119.5 -259.5q0 -198 -159 -315t-429 -117q-168 0 -317 58.5t-263 169.5l104 124q204 -204 492 -204q189 0 296.5 71t107.5 197q0 100 -85 165.5t-307 130.5q-144 42 -238 80t-167 89.5t-106 117.5t-33 153q0 188 147 298t397 110
q302 0 520 -176l-96 -128q-93 75 -205.5 115.5t-226.5 40.5q-171 0 -271.5 -67.5t-100.5 -184.5q0 -99 89 -162t319 -126zM596 -292v160h184v-164q0 -91 -43 -137.5t-117 -46.5h-24v96h32q56 0 56 72v20h-88z" />
    <glyph glyph-name="uni0219" unicode="&#x219;" horiz-adv-x="1108" 
d="M592 688q235 -69 331.5 -150t96.5 -210q0 -156 -126.5 -252t-333.5 -96q-144 0 -269.5 49.5t-218.5 142.5l100 112q154 -160 388 -160q141 0 222.5 50.5t81.5 137.5q0 78 -70 127.5t-250 100.5q-229 63 -322.5 142.5t-93.5 209.5q0 144 123 236t313 92q246 0 428 -152
l-100 -124q-138 132 -332 132q-124 0 -200 -48t-76 -128q0 -72 64.5 -116.5t243.5 -95.5zM452 -292v160h184v-164q0 -91 -43 -137.5t-117 -46.5h-24v96h32q56 0 56 72v20h-88z" />
    <glyph glyph-name="uni021A" unicode="&#x21a;" horiz-adv-x="1388" 
d="M1348 1520v-156h-572v-1364h-164v1364h-572v156h1308zM600 -292v160h184v-164q0 -91 -43 -137.5t-117 -46.5h-24v96h32q56 0 56 72v20h-88z" />
    <glyph glyph-name="uni021B" unicode="&#x21b;" horiz-adv-x="964" 
d="M852 1060h-392v-748q0 -100 43 -142t141 -42q110 0 208 28v-148q-112 -28 -228 -28q-158 0 -241 80.5t-83 231.5v768h-236v140h236l24 320h136v-320h392v-140zM488 -292v160h184v-164q0 -91 -43 -137.5t-117 -46.5h-24v96h32q56 0 56 72v20h-88z" />
    <glyph glyph-name="uni0237" unicode="&#x237;" horiz-adv-x="600" 
d="M104 -408q-48 0 -104 8v144q64 -8 96 -8q70 0 103 36t33 116v1312h160v-1316q0 -292 -288 -292z" />
    <glyph glyph-name="uni02BC" unicode="&#x2bc;" horiz-adv-x="384" 
d="M80 1088v112h36q80 0 80 100v32h-116v188h224v-204q0 -112 -50 -170t-142 -58h-32z" />
    <glyph glyph-name="circumflex" unicode="&#x2c6;" horiz-adv-x="640" 
d="M760 1332h-156l-156 164l-160 -164h-152l220 268h184z" />
    <glyph glyph-name="caron" unicode="&#x2c7;" horiz-adv-x="640" 
d="M600 1600h152l-220 -268h-180l-220 268h152l160 -164z" />
    <glyph glyph-name="breve" unicode="&#x2d8;" horiz-adv-x="640" 
d="M440 1328q-131 0 -215 70.5t-105 197.5l136 16q12 -75 59 -115.5t125 -40.5t127 40.5t61 115.5l132 -16q-21 -127 -105 -197.5t-215 -70.5z" />
    <glyph glyph-name="dotaccent" unicode="&#x2d9;" horiz-adv-x="640" 
d="M348 1396v184h184v-184h-184z" />
    <glyph glyph-name="ring" unicode="&#x2da;" horiz-adv-x="640" 
d="M440 1328q-99 0 -167.5 66t-68.5 162q0 99 68.5 165.5t167.5 66.5t167.5 -66.5t68.5 -165.5q0 -96 -68.5 -162t-167.5 -66zM440 1440q51 0 85.5 32.5t34.5 83.5t-34.5 85.5t-85.5 34.5t-85.5 -34.5t-34.5 -85.5t34.5 -83.5t85.5 -32.5z" />
    <glyph glyph-name="ogonek" unicode="&#x2db;" horiz-adv-x="640" 
d="M424 44l96 -44q-106 -33 -167 -84t-61 -108q0 -38 26.5 -61t69.5 -23q44 0 100 28l56 -104q-78 -48 -164 -48q-98 0 -157 55.5t-59 140.5t73.5 156t186.5 92z" />
    <glyph glyph-name="tilde" unicode="&#x2dc;" horiz-adv-x="640" 
d="M780 1548q-71 -172 -208 -172q-46 0 -93 25t-87.5 50t-71.5 25q-64 0 -108 -100l-104 56q72 168 208 168q46 0 93 -25t87.5 -50t71.5 -25q62 0 108 104z" />
    <glyph glyph-name="hungarumlaut" unicode="&#x2dd;" horiz-adv-x="640" 
d="M208 1332l124 268h200l-200 -268h-124zM544 1332l124 268h200l-200 -268h-124z" />
    <glyph glyph-name="gravecomb" unicode="&#x300;" horiz-adv-x="0" 
d="M-676 1332h-124l-200 268h200z" />
    <glyph glyph-name="acutecomb" unicode="&#x301;" horiz-adv-x="0" 
d="M-764 1332l124 268h200l-200 -268h-124z" />
    <glyph glyph-name="uni0302" unicode="&#x302;" horiz-adv-x="0" 
d="M-400 1332h-156l-156 164l-160 -164h-152l220 268h184z" />
    <glyph glyph-name="tildecomb" unicode="&#x303;" horiz-adv-x="0" 
d="M-380 1548q-71 -172 -208 -172q-46 0 -93 25t-87.5 50t-71.5 25q-64 0 -108 -100l-104 56q72 168 208 168q46 0 93 -25t87.5 -50t71.5 -25q62 0 108 104z" />
    <glyph glyph-name="uni0304" unicode="&#x304;" horiz-adv-x="0" 
d="M-1032 1440v128h624v-128h-624z" />
    <glyph glyph-name="uni0306" unicode="&#x306;" horiz-adv-x="0" 
d="M-720 1328q-131 0 -215 70.5t-105 197.5l136 16q12 -75 59 -115.5t125 -40.5t127 40.5t61 115.5l132 -16q-21 -127 -105 -197.5t-215 -70.5z" />
    <glyph glyph-name="uni0307" unicode="&#x307;" horiz-adv-x="0" 
d="M-812 1396v184h184v-184h-184z" />
    <glyph glyph-name="uni0308" unicode="&#x308;" horiz-adv-x="0" 
d="M-992 1396v184h184v-184h-184zM-632 1396v184h184v-184h-184z" />
    <glyph glyph-name="uni030A" unicode="&#x30a;" horiz-adv-x="0" 
d="M-720 1328q-99 0 -167.5 66t-68.5 162q0 99 68.5 165.5t167.5 66.5t167.5 -66.5t68.5 -165.5q0 -96 -68.5 -162t-167.5 -66zM-720 1440q51 0 85.5 32.5t34.5 83.5t-34.5 85.5t-85.5 34.5t-85.5 -34.5t-34.5 -85.5t34.5 -83.5t85.5 -32.5z" />
    <glyph glyph-name="uni030B" unicode="&#x30b;" horiz-adv-x="0" 
d="M-952 1332l124 268h200l-200 -268h-124zM-616 1332l124 268h200l-200 -268h-124z" />
    <glyph glyph-name="uni030C" unicode="&#x30c;" horiz-adv-x="0" 
d="M-560 1600h152l-220 -268h-180l-220 268h152l160 -164z" />
    <glyph glyph-name="uni0312" unicode="&#x312;" horiz-adv-x="0" 
d="M-660 1624q-56 0 -56 -72v-32h88v-180h-184v196q0 91 43 137.5t117 46.5h24v-96h-32z" />
    <glyph glyph-name="uni0326" unicode="&#x326;" horiz-adv-x="0" 
d="M-812 -132h184v-164q0 -91 -43 -137.5t-117 -46.5h-24v96h32q56 0 56 72v20h-88v160z" />
    <glyph glyph-name="uni0327" unicode="&#x327;" horiz-adv-x="0" 
d="M-636 -96q85 0 138.5 -45.5t53.5 -122.5q0 -75 -75 -125.5t-189 -50.5q-70 0 -137 20t-115 56l68 104q99 -68 188 -68q57 0 88.5 19.5t31.5 52.5q0 64 -104 64q-40 0 -80 -20l-88 52l92 160h132l-60 -100q20 4 56 4z" />
    <glyph glyph-name="uni0328" unicode="&#x328;" horiz-adv-x="0" 
d="M-736 44l96 -44q-106 -33 -167 -84t-61 -108q0 -38 26.5 -61t69.5 -23q44 0 100 28l56 -104q-78 -48 -164 -48q-98 0 -157 55.5t-59 140.5t73.5 156t186.5 92z" />
    <glyph glyph-name="dieresistonos" unicode="&#x385;" 
d="M584 1396l124 268h200l-200 -268h-124zM372 1396v184h184v-184h-184zM884 1396v184h184v-184h-184z" />
    <glyph glyph-name="uni0401" unicode="&#x401;" horiz-adv-x="1344" 
d="M640 1900v-184h-184v184h184zM1000 1900v-184h-184v184h184zM416 152h848v-152h-1012v1520h992v-152h-828v-516h648v-144h-648v-556z" />
    <glyph glyph-name="uni0404" unicode="&#x404;" horiz-adv-x="1536" 
d="M836 128q176 0 297 90.5t171 265.5l152 -52q-70 -216 -229.5 -334t-390.5 -118q-315 0 -509.5 214.5t-194.5 565.5q0 227 89.5 405t250 276.5t364.5 98.5q232 0 391 -117t229 -335l-156 -56q-51 178 -169.5 269t-294.5 91q-219 0 -365.5 -148.5t-170.5 -391.5h680v-144
h-684q15 -264 162 -422t378 -158z" />
    <glyph glyph-name="uni0406" unicode="&#x406;" horiz-adv-x="668" 
d="M252 0v1520h164v-1520h-164z" />
    <glyph glyph-name="uni0407" unicode="&#x407;" horiz-adv-x="668" 
d="M60 1716v184h184v-184h-184zM420 1716v184h184v-184h-184zM252 0v1520h164v-1520h-164z" />
    <glyph glyph-name="uni040E" unicode="&#x40e;" horiz-adv-x="1524" 
d="M756 1644q-141 0 -228.5 71t-99.5 197l132 24q9 -82 59.5 -127t136.5 -45t136.5 45t59.5 127l132 -24q-12 -126 -99.5 -197t-228.5 -71zM1276 1520h180l-548 -1288q-46 -118 -126.5 -185t-185.5 -67q-131 0 -206.5 82.5t-81.5 225.5l152 36q3 -102 37.5 -149t106.5 -47
q48 0 88 32.5t60 95.5l-696 1264h192l580 -1096z" />
    <glyph glyph-name="uni0410" unicode="&#x410;" horiz-adv-x="1536" 
d="M1324 0l-164 400h-788l-164 -400h-172l636 1520h192l636 -1520h-176zM432 548h664l-332 804z" />
    <glyph glyph-name="uni0411" unicode="&#x411;" horiz-adv-x="1488" 
d="M872 904q231 0 369.5 -124t138.5 -328t-138.5 -328t-369.5 -124h-620v1520h1020v-152h-856v-464h456zM856 148q171 0 263.5 78.5t92.5 225.5t-92.5 225.5t-263.5 78.5h-440v-608h440z" />
    <glyph glyph-name="uni0412" unicode="&#x412;" horiz-adv-x="1516" 
d="M1152 780q112 -49 174 -142.5t62 -221.5q0 -186 -126 -301t-330 -115h-680v1520h652q203 0 327.5 -111.5t124.5 -292.5q0 -112 -53 -198t-151 -138zM892 1372h-480v-520h480q141 0 218.5 68.5t77.5 191.5t-77.5 191.5t-218.5 68.5zM908 148q150 0 231 72t81 204
q0 135 -81 209.5t-231 74.5h-496v-560h496z" />
    <glyph glyph-name="uni0413" unicode="&#x413;" horiz-adv-x="1276" 
d="M1236 1520v-156h-820v-1364h-164v1520h984z" />
    <glyph glyph-name="uni0414" unicode="&#x414;" horiz-adv-x="1668" 
d="M1588 156v-476h-156v320h-1196v-320h-160v476h144q68 170 68 688v676h1124v-1364h176zM384 156h860v1208h-792v-520q0 -195 -19 -382t-49 -306z" />
    <glyph glyph-name="uni0415" unicode="&#x415;" horiz-adv-x="1344" 
d="M416 152h848v-152h-1012v1520h992v-152h-828v-516h648v-144h-648v-556z" />
    <glyph glyph-name="uni0416" unicode="&#x416;" horiz-adv-x="2216" 
d="M1968 0l-540 788l-236 -236v-552h-168v552l-236 236l-544 -788h-200l632 900l-624 620h208l764 -764v764h168v-772l768 772h204l-624 -620l632 -900h-204z" />
    <glyph glyph-name="uni0417" unicode="&#x417;" horiz-adv-x="1364" 
d="M988 784q122 -43 193 -136t71 -220q0 -201 -159 -324.5t-417 -123.5q-213 0 -374 105.5t-222 278.5l144 72q51 -141 173.5 -224.5t278.5 -83.5q187 0 299.5 83.5t112.5 224.5q0 123 -99.5 197.5t-264.5 74.5h-200v144h204q133 0 216.5 70t83.5 186q0 130 -93.5 207
t-254.5 77q-156 0 -268 -79.5t-164 -220.5l-152 52q63 181 222.5 288.5t365.5 107.5q230 0 371 -117t141 -307q0 -110 -54 -195.5t-154 -136.5z" />
    <glyph glyph-name="uni0418" unicode="&#x418;" horiz-adv-x="1720" 
d="M1300 1520h168v-1520h-164v1272l-888 -1272h-164v1520h164v-1268z" />
    <glyph glyph-name="uni0419" unicode="&#x419;" horiz-adv-x="1720" 
d="M856 1644q-141 0 -228.5 71t-99.5 197l132 24q9 -82 59.5 -127t136.5 -45t136.5 45t59.5 127l132 -24q-12 -126 -99.5 -197t-228.5 -71zM1300 1520h168v-1520h-164v1272l-888 -1272h-164v1520h164v-1268z" />
    <glyph glyph-name="uni041A" unicode="&#x41a;" horiz-adv-x="1524" 
d="M1272 0l-608 772l-248 -240v-532h-164v1520h164v-796l808 796h208l-652 -636l704 -884h-212z" />
    <glyph glyph-name="uni041B" unicode="&#x41b;" horiz-adv-x="1712" 
d="M1460 1520v-1520h-164v1364h-760v-496q0 -181 -5 -305.5t-18.5 -227t-35.5 -163.5t-58 -103t-83.5 -57.5t-115.5 -15.5t-104 4v156h72q40 0 62.5 6t46 30.5t34.5 68.5t21 124.5t13 195t3 283.5v656h1092z" />
    <glyph glyph-name="uni041C" unicode="&#x41c;" horiz-adv-x="2092" 
d="M1840 1520v-1520h-160v1352l-548 -1352h-176l-544 1344v-1344h-160v1520h264l532 -1324l532 1324h260z" />
    <glyph glyph-name="uni041D" unicode="&#x41d;" horiz-adv-x="1720" 
d="M1304 1520h164v-1520h-164v704h-888v-704h-164v1520h164v-664h888v664z" />
    <glyph glyph-name="uni041E" unicode="&#x41e;" horiz-adv-x="1680" 
d="M840 -20q-208 0 -369 97.5t-250 275.5t-89 407q0 225 90.5 403t252 277.5t365.5 99.5q208 0 369 -97.5t250 -275.5t89 -407q0 -225 -90.5 -403t-252 -277.5t-365.5 -99.5zM840 128q240 0 388 175t148 457t-148 457t-388 175t-388 -175t-148 -457t148 -457t388 -175z" />
    <glyph glyph-name="uni041F" unicode="&#x41f;" horiz-adv-x="1720" 
d="M1468 1520v-1520h-164v1364h-888v-1364h-164v1520h1216z" />
    <glyph glyph-name="uni0420" unicode="&#x420;" horiz-adv-x="1464" 
d="M868 1520q231 0 369.5 -124t138.5 -328q0 -207 -138.5 -331.5t-369.5 -124.5h-452v-612h-164v1520h616zM852 760q170 0 261 80t91 228q0 145 -91 224.5t-261 79.5h-436v-612h436z" />
    <glyph glyph-name="uni0421" unicode="&#x421;" horiz-adv-x="1536" 
d="M836 -20q-208 0 -368 97.5t-248 275t-88 407.5q0 225 89.5 403t250.5 277.5t364 99.5q232 0 391 -117t229 -335l-156 -56q-54 179 -171.5 269.5t-292.5 90.5q-238 0 -385 -174t-147 -458q0 -287 145.5 -459.5t386.5 -172.5q176 0 294.5 91t169.5 269l156 -56
q-70 -216 -229.5 -334t-390.5 -118z" />
    <glyph glyph-name="uni0422" unicode="&#x422;" horiz-adv-x="1388" 
d="M1348 1520v-156h-572v-1364h-164v1364h-572v156h1308z" />
    <glyph glyph-name="uni0423" unicode="&#x423;" horiz-adv-x="1524" 
d="M1276 1520h180l-548 -1288q-46 -118 -126.5 -185t-185.5 -67q-131 0 -206.5 82.5t-81.5 225.5l152 36q3 -102 37.5 -149t106.5 -47q48 0 88 32.5t60 95.5l-696 1264h192l580 -1096z" />
    <glyph glyph-name="uni0424" unicode="&#x424;" horiz-adv-x="1896" 
d="M1140 1380q307 0 483.5 -162.5t176.5 -437.5q0 -272 -178 -436t-482 -164h-108v-204h-168v204h-112q-304 0 -480 162.5t-176 437.5q0 272 177.5 436t478.5 164h112v164h168v-164h108zM756 328h108v904h-108q-228 0 -360 -121t-132 -331q0 -215 130 -333.5t362 -118.5z
M1140 328q225 0 356.5 121t131.5 331q0 216 -128 334t-360 118h-108v-904h108z" />
    <glyph glyph-name="uni0425" unicode="&#x425;" horiz-adv-x="1464" 
d="M1420 0h-200l-488 668l-492 -668h-196l584 788l-540 732h204l444 -612l444 612h196l-540 -728z" />
    <glyph glyph-name="uni0426" unicode="&#x426;" horiz-adv-x="1680" 
d="M1600 156v-476h-160v320h-1188v1520h164v-1364h840v1364h164v-1364h180z" />
    <glyph glyph-name="uni0427" unicode="&#x427;" horiz-adv-x="1580" 
d="M1164 1520h164v-1520h-164v624h-476q-248 0 -382 119t-134 345v432h164v-432q0 -158 87.5 -233t268.5 -75h472v740z" />
    <glyph glyph-name="uni0428" unicode="&#x428;" horiz-adv-x="2372" 
d="M1956 1520h164v-1520h-1868v1520h164v-1364h688v1364h164v-1364h688v1364z" />
    <glyph glyph-name="uni0429" unicode="&#x429;" horiz-adv-x="2380" 
d="M2300 156v-476h-160v320h-1888v1520h164v-1364h688v1364h164v-1364h688v1364h164v-1364h180z" />
    <glyph glyph-name="uni042A" unicode="&#x42a;" horiz-adv-x="1680" 
d="M1060 908q231 0 369.5 -124.5t138.5 -331.5q0 -204 -138.5 -328t-369.5 -124h-616v1364h-404v156h568v-612h452zM1040 148q170 0 263 80t93 224q0 147 -92.5 227.5t-263.5 80.5h-432v-612h432z" />
    <glyph glyph-name="uni042B" unicode="&#x42b;" horiz-adv-x="2088" 
d="M868 908q231 0 369.5 -124.5t138.5 -331.5q0 -204 -138.5 -328t-369.5 -124h-616v1520h164v-612h452zM1672 1520h164v-1520h-164v1520zM848 148q173 0 264.5 79.5t91.5 224.5q0 148 -91.5 228t-264.5 80h-432v-612h432z" />
    <glyph glyph-name="uni042C" unicode="&#x42c;" horiz-adv-x="1488" 
d="M868 908q231 0 369.5 -124.5t138.5 -331.5q0 -204 -138.5 -328t-369.5 -124h-616v1520h164v-612h452zM848 148q173 0 264.5 79.5t91.5 224.5q0 148 -91.5 228t-264.5 80h-432v-612h432z" />
    <glyph glyph-name="uni042D" unicode="&#x42d;" horiz-adv-x="1528" 
d="M700 1540q153 0 282 -57t219 -158.5t140.5 -247t50.5 -317.5q0 -229 -87.5 -407t-245 -275.5t-359.5 -97.5q-230 0 -394.5 118.5t-233.5 329.5l152 56q53 -175 176.5 -265.5t299.5 -90.5q223 0 370 160t162 420h-684v144h680q-24 246 -168 393t-360 147q-181 0 -301 -90
t-171 -266l-156 56q72 213 237.5 330.5t390.5 117.5z" />
    <glyph glyph-name="uni042E" unicode="&#x42e;" horiz-adv-x="2264" 
d="M1440 1540q153 0 282 -57t219 -158.5t140.5 -247t50.5 -317.5q0 -225 -88 -403t-246 -277.5t-358 -99.5q-293 0 -481.5 199.5t-206.5 524.5h-336v-704h-164v1520h164v-664h340q18 201 108.5 356t240.5 241.5t335 86.5zM1440 128q231 0 375.5 175t144.5 457t-144.5 457
t-375.5 175t-375.5 -175t-144.5 -457t144.5 -457t375.5 -175z" />
    <glyph glyph-name="uni042F" unicode="&#x42f;" horiz-adv-x="1524" 
d="M1276 1520v-1520h-168v620h-424h-24l-384 -620h-188l408 648q-149 45 -232.5 156t-83.5 268q0 204 138 326t366 122h592zM704 764h404v608h-404q-170 0 -261 -79.5t-91 -224.5t91 -224.5t261 -79.5z" />
    <glyph glyph-name="uni0430" unicode="&#x430;" horiz-adv-x="1268" 
d="M1136 140h44v-140q-8 -8 -56 -8q-108 0 -155 46.5t-53 157.5q-64 -97 -182.5 -156.5t-257.5 -59.5q-174 0 -279 93.5t-105 246.5q0 47 10 88t26 72t43.5 58.5t54 47t65.5 37t70.5 28.5t77.5 22t78 17t79 14q167 32 217 53q82 35 87 105v10q0 93 -79.5 150.5t-208.5 57.5
q-114 0 -213.5 -46.5t-174.5 -133.5l-108 104q197 216 500 216q205 0 322.5 -103t117.5 -285v-608q0 -45 19 -64.5t61 -19.5zM488 120q172 0 294 100.5t122 243.5v204q-42 -33 -109 -52t-179 -36q-49 -9 -77.5 -14.5t-72.5 -17t-70 -23.5t-56.5 -31.5t-47.5 -42.5
t-28.5 -55.5t-11.5 -71.5q0 -98 62 -151t174 -53z" />
    <glyph glyph-name="uni0431" unicode="&#x431;" horiz-adv-x="1372" 
d="M1252 536q3 -240 -153 -398t-399 -158q-256 0 -408 182.5t-152 493.5q0 361 126.5 547.5t401.5 240.5l284 60q34 6 52 26t24 58l4 28l152 -28l-4 -40q-6 -70 -54.5 -120.5t-133.5 -71.5l-312 -64q-178 -36 -274 -140t-114 -280q70 106 185.5 163t266.5 57q217 0 361 -157
t147 -399zM700 124q174 0 281 110.5t107 293.5q0 194 -102 307t-274 113q-183 0 -293.5 -108.5t-110.5 -291.5q0 -186 110.5 -305t281.5 -119z" />
    <glyph glyph-name="uni0432" unicode="&#x432;" horiz-adv-x="1280" 
d="M952 624q208 -71 208 -296q0 -155 -109.5 -241.5t-302.5 -86.5h-536v1200h504q192 0 300 -82t108 -238q0 -89 -45 -156t-127 -100zM368 1064v-384h372q110 0 167 49t57 143q0 89 -60.5 140.5t-163.5 51.5h-372zM748 136q120 0 186 54t66 150t-66.5 154t-177.5 58h-388
v-416h380z" />
    <glyph glyph-name="uni0433" unicode="&#x433;" horiz-adv-x="1060" 
d="M1028 1200v-148h-656v-1052h-160v1200h816z" />
    <glyph glyph-name="uni0434" unicode="&#x434;" horiz-adv-x="1420" 
d="M1328 144v-424h-152v280h-948v-280h-152v424h124q56 157 56 556v500h924v-1056h148zM360 144h660v912h-608v-368q0 -365 -52 -544z" />
    <glyph glyph-name="uni0435" unicode="&#x435;" horiz-adv-x="1360" 
d="M280 544q15 -196 132 -308t308 -112q130 0 229 47.5t159 128.5l116 -100q-77 -94 -206 -157t-294 -63q-189 0 -328.5 81t-209.5 220.5t-70 318.5q0 272 163.5 446t416.5 174q255 0 407.5 -169t152.5 -451q0 -36 -4 -56h-972zM696 1080q-170 0 -282.5 -110t-133.5 -294
h812q-18 189 -123 296.5t-273 107.5z" />
    <glyph glyph-name="uni0436" unicode="&#x436;" horiz-adv-x="1844" 
d="M1628 0l-440 620l-188 -180v-440h-160v444l-180 180l-444 -624h-196l524 728l-496 472h208l584 -572v572h160v-576l592 576h204l-496 -472l524 -728h-196z" />
    <glyph glyph-name="uni0437" unicode="&#x437;" horiz-adv-x="1108" 
d="M812 624q108 -33 166 -108t58 -180q-3 -156 -137 -256t-343 -100q-182 0 -315.5 89t-184.5 243l148 52q39 -116 134 -180t222 -64q138 0 225 60t87 156t-74 152t-198 56h-164v140h156q104 0 164 52t60 140q0 96 -70 152t-190 56q-116 0 -200.5 -62t-123.5 -174l-148 52
q51 148 178.5 234t297.5 86q182 0 297.5 -95t118.5 -245q0 -85 -42 -151t-122 -105z" />
    <glyph glyph-name="uni0438" unicode="&#x438;" 
d="M1060 1200h168v-1200h-156v980l-692 -980h-168v1200h156v-980z" />
    <glyph glyph-name="uni0439" unicode="&#x439;" 
d="M720 1324q-141 0 -228.5 71t-99.5 197l132 24q9 -82 59.5 -127t136.5 -45t136.5 45t59.5 127l132 -24q-12 -126 -99.5 -197t-228.5 -71zM1060 1200h168v-1200h-156v980l-692 -980h-168v1200h156v-980z" />
    <glyph glyph-name="uni043A" unicode="&#x43a;" horiz-adv-x="1248" 
d="M1036 0l-476 600l-188 -176v-424h-160v1200h160v-592l632 592h204l-532 -492l560 -708h-200z" />
    <glyph glyph-name="uni043B" unicode="&#x43b;" horiz-adv-x="1396" 
d="M1188 1200v-1200h-160v1056h-592v-508q0 -213 -29.5 -333.5t-90.5 -171.5t-168 -51q-44 0 -76 8v148h56q46 0 72 14t45.5 58.5t27 128t7.5 223.5v628h908z" />
    <glyph glyph-name="uni043C" unicode="&#x43c;" horiz-adv-x="1748" 
d="M1536 1200v-1200h-156v1040l-420 -1040h-172l-420 1040v-1040h-156v1200h248l416 -1024l412 1024h248z" />
    <glyph glyph-name="uni043D" unicode="&#x43d;" 
d="M1068 1200h160v-1200h-160v540h-696v-540h-160v1200h160v-516h696v516z" />
    <glyph glyph-name="uni043E" unicode="&#x43e;" horiz-adv-x="1408" 
d="M704 -20q-266 0 -427 170t-161 450q0 180 74 321.5t208 220t306 78.5q266 0 427 -170t161 -450q0 -180 -74 -321.5t-208 -220t-306 -78.5zM704 120q192 0 308 132t116 348q0 219 -116 349.5t-308 130.5t-308 -132t-116 -348q0 -219 116 -349.5t308 -130.5z" />
    <glyph glyph-name="uni043F" unicode="&#x43f;" 
d="M1228 1200v-1200h-160v1056h-696v-1056h-160v1200h1016z" />
    <glyph glyph-name="uni0440" unicode="&#x440;" horiz-adv-x="1444" 
d="M792 1220q240 0 390 -172t150 -448q0 -273 -151.5 -446.5t-388.5 -173.5q-133 0 -240 54t-180 154v-588h-160v1600h132l16 -212q73 110 184.5 171t247.5 61zM764 120q180 0 292 132.5t112 347.5t-112 347.5t-292 132.5q-185 0 -296.5 -131.5t-111.5 -348.5t111.5 -348.5
t296.5 -131.5z" />
    <glyph glyph-name="uni0441" unicode="&#x441;" horiz-adv-x="1304" 
d="M696 -20q-255 0 -417.5 173.5t-162.5 446.5t162.5 446.5t417.5 173.5q193 0 332.5 -96.5t187.5 -263.5l-148 -52q-43 125 -141 198.5t-231 73.5q-186 0 -301 -133.5t-115 -346.5t115 -346.5t301 -133.5q133 0 232.5 73t139.5 195l148 -48q-51 -168 -189.5 -264
t-330.5 -96z" />
    <glyph glyph-name="uni0442" unicode="&#x442;" horiz-adv-x="1112" 
d="M1084 1200v-144h-448v-1056h-160v1056h-448v144h1056z" />
    <glyph glyph-name="uni0443" unicode="&#x443;" horiz-adv-x="1256" 
d="M1064 1200h168l-472 -1284q-24 -68 -55 -124t-74 -106t-101 -78t-126 -28q-140 0 -213 89.5t-67 234.5l144 24q-4 -52 4.5 -94t43 -74t92.5 -32q111 0 188 176l-560 1296h176l464 -1100z" />
    <glyph glyph-name="uni0444" unicode="&#x444;" horiz-adv-x="2052" 
d="M1464 1216q213 0 344.5 -170t131.5 -446q0 -272 -134 -444t-342 -172q-114 0 -205 49.5t-151 142.5v-576h-160v588q-60 -99 -151 -151.5t-205 -52.5q-213 0 -344.5 170t-131.5 446q0 273 133 444.5t343 171.5q235 0 356 -200v584h160v-584q60 97 151.5 148.5t204.5 51.5z
M616 120q153 0 246.5 132t93.5 348t-93.5 348t-246.5 132q-150 0 -243 -132t-93 -348t93 -348t243 -132zM1440 120q150 0 243 132t93 348t-93 348t-243 132q-155 0 -247.5 -131.5t-92.5 -348.5t92.5 -348.5t247.5 -131.5z" />
    <glyph glyph-name="uni0445" unicode="&#x445;" horiz-adv-x="1284" 
d="M1216 0h-196l-380 508l-380 -508h-192l472 616l-444 584h196l356 -468l356 468h192l-448 -580z" />
    <glyph glyph-name="uni0446" unicode="&#x446;" horiz-adv-x="1436" 
d="M1200 144h148v-424h-152v280h-984v1200h160v-1056h668v1056h160v-1056z" />
    <glyph glyph-name="uni0447" unicode="&#x447;" horiz-adv-x="1304" 
d="M932 1200h160v-1200h-160v484h-360q-212 0 -328 101.5t-116 282.5v332h164v-332q0 -120 68 -178t212 -58h360v568z" />
    <glyph glyph-name="uni0448" unicode="&#x448;" horiz-adv-x="1988" 
d="M1620 1200h160v-1200h-1568v1200h160v-1056h544v1056h160v-1056h544v1056z" />
    <glyph glyph-name="uni0449" unicode="&#x449;" horiz-adv-x="2016" 
d="M1928 144v-424h-152v280h-1564v1200h160v-1056h544v1056h160v-1056h544v1056h160v-1056h148z" />
    <glyph glyph-name="uni044A" unicode="&#x44a;" horiz-adv-x="1412" 
d="M908 716q189 0 302.5 -99t113.5 -261q0 -160 -114 -258t-302 -98h-524v1052h-344v148h504v-484h364zM904 144q120 0 188 56.5t68 155.5q0 102 -68 159t-188 57h-360v-428h360z" />
    <glyph glyph-name="uni044B" unicode="&#x44b;" horiz-adv-x="1752" 
d="M736 716q189 0 302.5 -99t113.5 -261q0 -160 -114 -258t-302 -98h-524v1200h160v-484h364zM1380 1200h160v-1200h-160v1200zM732 144q120 0 188 56.5t68 155.5q0 102 -68 159t-188 57h-360v-428h360z" />
    <glyph glyph-name="uni044C" unicode="&#x44c;" horiz-adv-x="1240" 
d="M736 716q189 0 302.5 -99t113.5 -261q0 -160 -114 -258t-302 -98h-524v1200h160v-484h364zM732 144q120 0 188 56.5t68 155.5q0 102 -68 159t-188 57h-360v-428h360z" />
    <glyph glyph-name="uni044D" unicode="&#x44d;" horiz-adv-x="1304" 
d="M612 1220q252 0 414 -173.5t162 -446.5q0 -278 -160 -449t-416 -171q-189 0 -331 97.5t-193 262.5l140 48q43 -123 144.5 -195.5t239.5 -72.5q176 0 286.5 113.5t125.5 306.5h-588v144h588q-24 180 -134 288t-278 108q-136 0 -238.5 -73t-145.5 -195l-140 44
q54 168 196 266t328 98z" />
    <glyph glyph-name="uni044E" unicode="&#x44e;" horiz-adv-x="1912" 
d="M1228 1220q257 0 412.5 -170t155.5 -450q0 -273 -158 -446.5t-410 -173.5q-243 0 -398 152.5t-170 407.5h-288v-540h-160v1200h160v-516h288q24 240 180.5 388t387.5 148zM1228 120q183 0 293.5 132t110.5 348q0 219 -110.5 349.5t-293.5 130.5t-295.5 -132t-112.5 -348
q0 -218 112 -349t296 -131z" />
    <glyph glyph-name="uni044F" unicode="&#x44f;" horiz-adv-x="1264" 
d="M1052 1200v-1200h-156v484h-336h-4l-316 -484h-180l336 508q-118 36 -185 122.5t-67 205.5q0 163 114 263.5t302 100.5h492zM568 616h328v444h-328q-123 0 -193.5 -59t-70.5 -161q0 -105 70.5 -164.5t193.5 -59.5z" />
    <glyph glyph-name="uni0451" unicode="&#x451;" horiz-adv-x="1360" 
d="M592 1580v-184h-184v184h184zM952 1580v-184h-184v184h184zM280 544q15 -196 132 -308t308 -112q130 0 229 47.5t159 128.5l116 -100q-77 -94 -206 -157t-294 -63q-189 0 -328.5 81t-209.5 220.5t-70 318.5q0 272 163.5 446t416.5 174q255 0 407.5 -169t152.5 -451
q0 -36 -4 -56h-972zM696 1080q-170 0 -282.5 -110t-133.5 -294h812q-18 189 -123 296.5t-273 107.5z" />
    <glyph glyph-name="uni0454" unicode="&#x454;" horiz-adv-x="1312" 
d="M696 120q135 0 234 72.5t142 195.5l148 -48q-51 -168 -191.5 -264t-332.5 -96q-256 0 -418 171.5t-162 448.5q0 273 162.5 446.5t417.5 173.5q195 0 334 -96t190 -264l-152 -48q-40 122 -139.5 195t-232.5 73q-169 0 -280.5 -108.5t-135.5 -287.5h588v-144h-588
q15 -192 127 -306t289 -114z" />
    <glyph glyph-name="uni0456" unicode="&#x456;" horiz-adv-x="620" 
d="M216 1396v184h184v-184h-184zM232 0v1200h160v-1200h-160z" />
    <glyph glyph-name="uni0457" unicode="&#x457;" horiz-adv-x="620" 
d="M36 1396v184h184v-184h-184zM396 1396v184h184v-184h-184zM232 0v1200h160v-1200h-160z" />
    <glyph glyph-name="uni045E" unicode="&#x45e;" horiz-adv-x="1256" 
d="M636 1324q-141 0 -228.5 71t-99.5 197l132 24q9 -82 59.5 -127t136.5 -45t136.5 45t59.5 127l132 -24q-12 -126 -99.5 -197t-228.5 -71zM1064 1200h168l-472 -1284q-24 -68 -55 -124t-74 -106t-101 -78t-126 -28q-140 0 -213 89.5t-67 234.5l144 24q-4 -52 4.5 -94
t43 -74t92.5 -32q111 0 188 176l-560 1296h176l464 -1100z" />
    <glyph glyph-name="uni0490" unicode="&#x490;" horiz-adv-x="1276" 
d="M1076 1840h160v-476h-820v-1364h-164v1520h824v320z" />
    <glyph glyph-name="uni0491" unicode="&#x491;" horiz-adv-x="1060" 
d="M880 1520h148v-468h-656v-1052h-160v1200h668v320z" />
    <glyph glyph-name="Wgrave" unicode="&#x1e80;" horiz-adv-x="2188" 
d="M1140 1652h-124l-200 268h200zM1940 1520h160l-440 -1520h-172l-396 1312l-392 -1312h-172l-440 1520h168l372 -1272l376 1272h184l380 -1280z" />
    <glyph glyph-name="wgrave" unicode="&#x1e81;" horiz-adv-x="1848" 
d="M968 1332h-124l-200 268h200zM1628 1200h156l-380 -1200h-172l-308 992l-304 -992h-172l-384 1200h164l308 -1004l308 1004h164l312 -1008z" />
    <glyph glyph-name="Wacute" unicode="&#x1e82;" horiz-adv-x="2188" 
d="M1376 1920l-200 -268h-124l124 268h200zM1940 1520h160l-440 -1520h-172l-396 1312l-392 -1312h-172l-440 1520h168l372 -1272l376 1272h184l380 -1280z" />
    <glyph glyph-name="wacute" unicode="&#x1e83;" horiz-adv-x="1848" 
d="M1204 1600l-200 -268h-124l124 268h200zM1628 1200h156l-380 -1200h-172l-308 992l-304 -992h-172l-384 1200h164l308 -1004l308 1004h164l312 -1008z" />
    <glyph glyph-name="Wdieresis" unicode="&#x1e84;" horiz-adv-x="2188" 
d="M1008 1900v-184h-184v184h184zM1368 1900v-184h-184v184h184zM1940 1520h160l-440 -1520h-172l-396 1312l-392 -1312h-172l-440 1520h168l372 -1272l376 1272h184l380 -1280z" />
    <glyph glyph-name="wdieresis" unicode="&#x1e85;" horiz-adv-x="1848" 
d="M836 1580v-184h-184v184h184zM1196 1580v-184h-184v184h184zM1628 1200h156l-380 -1200h-172l-308 992l-304 -992h-172l-384 1200h164l308 -1004l308 1004h164l312 -1008z" />
    <glyph glyph-name="uni1E9E" unicode="&#x1e9e;" horiz-adv-x="1696" 
d="M1108 896q133 0 239.5 -53t169.5 -156t63 -239q0 -206 -146 -337t-386 -131q-141 0 -255.5 54.5t-180.5 153.5l120 96q45 -78 127 -119t193 -41q163 0 261.5 87t98.5 233t-89.5 235t-246.5 89q-125 0 -240 -64l-84 104l512 560h-848v-1368h-164v1520h1228v-128l-468 -504
q64 8 96 8z" />
    <glyph glyph-name="Ygrave" unicode="&#x1ef2;" horiz-adv-x="1416" 
d="M752 1652h-124l-200 268h200zM1392 1520l-600 -900v-620h-168v616l-600 904h192l496 -744l492 744h188z" />
    <glyph glyph-name="ygrave" unicode="&#x1ef3;" horiz-adv-x="1256" 
d="M680 1332h-124l-200 268h200zM1064 1200h168l-472 -1284q-24 -68 -55 -124t-74 -106t-101 -78t-126 -28q-140 0 -213 89.5t-67 234.5l144 24q-4 -52 4.5 -94t43 -74t92.5 -32q111 0 188 176l-560 1296h176l464 -1100z" />
    <glyph glyph-name="endash" unicode="&#x2013;" horiz-adv-x="1264" 
d="M140 604v152h984v-152h-984z" />
    <glyph glyph-name="emdash" unicode="&#x2014;" horiz-adv-x="1744" 
d="M140 604v152h1464v-152h-1464z" />
    <glyph glyph-name="quoteleft" unicode="&#x2018;" horiz-adv-x="516" 
d="M356 1600v-108h-36q-38 0 -57 -26.5t-19 -73.5v-36h112v-224h-224v244q0 109 52 166.5t144 57.5h28z" />
    <glyph glyph-name="quoteright" unicode="&#x2019;" horiz-adv-x="516" 
d="M160 1052v108h36q80 0 80 100v36h-116v224h224v-244q0 -112 -50 -168t-142 -56h-32z" />
    <glyph glyph-name="quotesinglbase" unicode="&#x201a;" horiz-adv-x="564" 
d="M168 -244v108h40q38 0 57 26.5t19 73.5v36h-116v224h224v-244q0 -110 -50.5 -167t-141.5 -57h-32z" />
    <glyph glyph-name="quotedblleft" unicode="&#x201c;" horiz-adv-x="924" 
d="M388 1600v-108h-40q-38 0 -57 -26.5t-19 -73.5v-36h116v-224h-224v244q0 110 50.5 167t141.5 57h32zM764 1600v-108h-36q-80 0 -80 -100v-36h116v-224h-224v244q0 110 50.5 167t141.5 57h32z" />
    <glyph glyph-name="quotedblright" unicode="&#x201d;" horiz-adv-x="896" 
d="M160 1052v108h36q80 0 80 100v36h-116v224h224v-244q0 -112 -50 -168t-142 -56h-32zM536 1052v108h40q76 0 76 100v36h-116v224h228v-244q0 -111 -52 -167.5t-144 -56.5h-32z" />
    <glyph glyph-name="quotedblbase" unicode="&#x201e;" horiz-adv-x="940" 
d="M168 -244v108h40q38 0 57 26.5t19 73.5v36h-116v224h224v-244q0 -110 -50.5 -167t-141.5 -57h-32zM544 -244v108h40q38 0 57 26.5t19 73.5v36h-116v224h228v-244q0 -109 -52 -166.5t-144 -57.5h-32z" />
    <glyph glyph-name="dagger" unicode="&#x2020;" horiz-adv-x="928" 
d="M756 1412v-112h-232v-368h-120v368h-232v112h232v188h120v-188h232z" />
    <glyph glyph-name="daggerdbl" unicode="&#x2021;" horiz-adv-x="928" 
d="M756 1324h-232v-116h232v-112h-232v-164h-120v164h-232v112h232v116h-232v112h232v164h120v-164h232v-112z" />
    <glyph glyph-name="bullet" unicode="&#x2022;" horiz-adv-x="1408" 
d="M704 424q-109 0 -182.5 73t-73.5 183t73.5 183t182.5 73q111 0 185.5 -72.5t74.5 -183.5t-74.5 -183.5t-185.5 -72.5z" />
    <glyph glyph-name="ellipsis" unicode="&#x2026;" horiz-adv-x="1612" 
d="M168 0v224h224v-224h-224zM692 0v224h224v-224h-224zM1216 0v224h228v-224h-228z" />
    <glyph glyph-name="perthousand" unicode="&#x2030;" horiz-adv-x="3008" 
d="M520 620q-180 0 -286 125t-106 335t106 335t286 125t286 -125t106 -335t-106 -335t-286 -125zM508 0l964 1520h144l-964 -1520h-144zM520 748q111 0 179.5 91t68.5 241t-68.5 241t-179.5 91t-179.5 -91t-68.5 -241t68.5 -241t179.5 -91zM1600 -20q-180 0 -286 125
t-106 335t106 335t286 125t286 -125t106 -335t-106 -335t-286 -125zM2536 -20q-180 0 -286 125t-106 335t106 335t286 125t286 -125t106 -335t-106 -335t-286 -125zM1600 108q111 0 179.5 91t68.5 241t-68.5 241t-179.5 91t-177.5 -91t-66.5 -241t66.5 -241t177.5 -91z
M2536 108q111 0 179.5 91t68.5 241t-68.5 241t-179.5 91t-177.5 -91t-66.5 -241t66.5 -241t177.5 -91z" />
    <glyph glyph-name="prime" unicode="&#x2032;" horiz-adv-x="1200" 
d="M676 1332l124 268h200l-200 -268h-124z" />
    <glyph glyph-name="guilsinglleft" unicode="&#x2039;" horiz-adv-x="832" 
d="M632 1104v-180l-324 -240l324 -240v-188l-472 344v156z" />
    <glyph glyph-name="guilsinglright" unicode="&#x203a;" horiz-adv-x="832" 
d="M200 1104l472 -344v-156l-472 -348v180l324 240l-324 240v188z" />
    <glyph glyph-name="fraction" unicode="&#x2044;" horiz-adv-x="80" 
d="M-516 0l964 1520h148l-964 -1520h-148z" />
    <glyph glyph-name="uni2070" unicode="&#x2070;" horiz-adv-x="936" 
d="M468 932q-176 0 -284 127.5t-108 332.5t108 332.5t284 127.5t284 -127.5t108 -332.5t-108 -332.5t-284 -127.5zM468 1060q111 0 179.5 91t68.5 241t-68.5 241t-179.5 91t-179.5 -91t-68.5 -241t68.5 -241t179.5 -91z" />
    <glyph glyph-name="uni2074" unicode="&#x2074;" horiz-adv-x="936" 
d="M868 1284v-128h-164v-212h-136v212h-484v116l456 568h164v-556h164zM240 1284h328v416z" />
    <glyph glyph-name="uni2075" unicode="&#x2075;" horiz-adv-x="936" 
d="M476 1552q144 0 236 -84t92 -216q0 -140 -104 -230t-264 -90q-112 0 -200.5 46t-131.5 122l100 80q34 -55 95.5 -87.5t140.5 -32.5q100 0 162 51t62 137t-58.5 135t-153.5 49q-64 0 -117 -24t-79 -68l-108 32l44 468h544v-128h-436l-20 -216q81 56 196 56z" />
    <glyph glyph-name="uni2076" unicode="&#x2076;" horiz-adv-x="936" 
d="M524 1528q146 0 239 -83.5t93 -212.5q0 -134 -98 -217t-250 -83q-181 0 -284.5 127.5t-103.5 328.5q0 93 25.5 175.5t74.5 147.5t128.5 103t179.5 38q93 0 171.5 -31.5t128.5 -92.5l-104 -96q-33 42 -87 65t-117 23q-133 0 -204.5 -94t-71.5 -230v-4q93 136 280 136z
M508 1056q91 0 151.5 47.5t60.5 124.5q0 78 -58 127t-154 49q-99 0 -161.5 -46.5t-62.5 -121.5q0 -78 62.5 -129t161.5 -51z" />
    <glyph glyph-name="uni2077" unicode="&#x2077;" horiz-adv-x="816" 
d="M28 1840h752v-96q-175 -139 -275.5 -350.5t-100.5 -449.5h-152q0 210 95.5 417t244.5 343h-564v136z" />
    <glyph glyph-name="uni2078" unicode="&#x2078;" horiz-adv-x="936" 
d="M644 1400q86 -31 133 -87t47 -133q0 -111 -97.5 -179.5t-258.5 -68.5t-258.5 68.5t-97.5 179.5q0 77 47 133t133 87q-73 27 -112.5 80t-39.5 124q0 112 89.5 180t238.5 68t238.5 -68t89.5 -180q0 -71 -39.5 -124t-112.5 -80zM468 1744q-91 0 -143.5 -40.5t-52.5 -111.5
q0 -61 53.5 -98.5t142.5 -37.5t142.5 37.5t53.5 98.5q0 71 -52.5 111.5t-143.5 40.5zM468 1044q100 0 162 39.5t62 104.5q0 68 -61.5 106t-162.5 38t-162.5 -38t-61.5 -106q0 -65 62 -104.5t162 -39.5z" />
    <glyph glyph-name="uni2079" unicode="&#x2079;" horiz-adv-x="936" 
d="M428 1852q181 0 284.5 -127.5t103.5 -328.5q0 -93 -25.5 -175.5t-74.5 -147.5t-128.5 -103t-179.5 -38q-93 0 -171.5 31.5t-128.5 92.5l104 96q33 -42 87 -65t117 -23q133 0 204.5 94t71.5 230v4q-93 -136 -280 -136q-146 0 -239 83.5t-93 212.5q0 134 98 217t250 83z
M428 1380q99 0 161.5 46.5t62.5 121.5q0 78 -62.5 129t-161.5 51q-91 0 -151.5 -47.5t-60.5 -124.5q0 -78 58 -127t154 -49z" />
    <glyph glyph-name="uni2080" unicode="&#x2080;" horiz-adv-x="936" 
d="M468 -332q-176 0 -284 127.5t-108 332.5t108 332.5t284 127.5t284 -127.5t108 -332.5t-108 -332.5t-284 -127.5zM468 -204q111 0 179.5 91t68.5 241t-68.5 241t-179.5 91t-179.5 -91t-68.5 -241t68.5 -241t179.5 -91z" />
    <glyph glyph-name="uni2081" unicode="&#x2081;" horiz-adv-x="760" 
d="M508 576v-896h-140v628h-240v116h48q130 0 176.5 31.5t55.5 120.5h100z" />
    <glyph glyph-name="uni2082" unicode="&#x2082;" horiz-adv-x="936" 
d="M352 -188h468v-132h-700v92l336 272q97 82 144.5 146.5t47.5 125.5q0 66 -50 105t-134 39q-93 0 -148 -49t-64 -139l-132 20q12 138 106.5 217t245.5 79q144 0 232 -71t88 -185q0 -88 -62 -174t-206 -202z" />
    <glyph glyph-name="uni2083" unicode="&#x2083;" horiz-adv-x="936" 
d="M524 232q125 0 202.5 -72.5t77.5 -187.5q0 -131 -102.5 -217.5t-253.5 -86.5q-120 0 -217.5 52.5t-142.5 139.5l112 76q33 -68 98.5 -104t153.5 -36q98 0 157 46.5t59 121.5q0 77 -52.5 122.5t-135.5 45.5q-59 0 -108 -28l-68 76l272 264h-444v132h648v-96l-268 -248h12z
" />
    <glyph glyph-name="uni2084" unicode="&#x2084;" horiz-adv-x="936" 
d="M868 20v-128h-164v-212h-136v212h-484v116l456 568h164v-556h164zM240 20h328v416z" />
    <glyph glyph-name="uni2085" unicode="&#x2085;" horiz-adv-x="936" 
d="M476 288q144 0 236 -84t92 -216q0 -140 -104 -230t-264 -90q-112 0 -200.5 46t-131.5 122l100 80q34 -55 95.5 -87.5t140.5 -32.5q100 0 162 51t62 137t-58.5 135t-153.5 49q-64 0 -117 -24t-79 -68l-108 32l44 468h544v-128h-436l-20 -216q81 56 196 56z" />
    <glyph glyph-name="uni2086" unicode="&#x2086;" horiz-adv-x="936" 
d="M524 264q146 0 239 -83.5t93 -212.5q0 -134 -98 -217t-250 -83q-181 0 -284.5 127.5t-103.5 328.5q0 93 25.5 175.5t74.5 147.5t128.5 103t179.5 38q93 0 171.5 -31.5t128.5 -92.5l-104 -96q-33 42 -87 65t-117 23q-133 0 -204.5 -94t-71.5 -230v-4q93 136 280 136z
M508 -208q91 0 151.5 47.5t60.5 124.5q0 78 -58 127t-154 49q-99 0 -161.5 -46.5t-62.5 -121.5q0 -78 62.5 -129t161.5 -51z" />
    <glyph glyph-name="uni2087" unicode="&#x2087;" horiz-adv-x="816" 
d="M28 576h752v-96q-175 -139 -275.5 -350.5t-100.5 -449.5h-152q0 210 95.5 417t244.5 343h-564v136z" />
    <glyph glyph-name="uni2088" unicode="&#x2088;" horiz-adv-x="936" 
d="M644 136q86 -31 133 -87t47 -133q0 -111 -97.5 -179.5t-258.5 -68.5t-258.5 68.5t-97.5 179.5q0 77 47 133t133 87q-73 27 -112.5 80t-39.5 124q0 112 89.5 180t238.5 68t238.5 -68t89.5 -180q0 -71 -39.5 -124t-112.5 -80zM468 480q-91 0 -143.5 -40.5t-52.5 -111.5
q0 -61 53.5 -98.5t142.5 -37.5t142.5 37.5t53.5 98.5q0 71 -52.5 111.5t-143.5 40.5zM468 -220q100 0 162 39.5t62 104.5q0 68 -61.5 106t-162.5 38t-162.5 -38t-61.5 -106q0 -65 62 -104.5t162 -39.5z" />
    <glyph glyph-name="uni2089" unicode="&#x2089;" horiz-adv-x="936" 
d="M428 588q181 0 284.5 -127.5t103.5 -328.5q0 -93 -25.5 -175.5t-74.5 -147.5t-128.5 -103t-179.5 -38q-93 0 -171.5 31.5t-128.5 92.5l104 96q33 -42 87 -65t117 -23q133 0 204.5 94t71.5 230v4q-93 -136 -280 -136q-146 0 -239 83.5t-93 212.5q0 134 98 217t250 83z
M428 116q99 0 161.5 46.5t62.5 121.5q0 78 -62.5 129t-161.5 51q-91 0 -151.5 -47.5t-60.5 -124.5q0 -78 58 -127t154 -49z" />
    <glyph glyph-name="Euro" unicode="&#x20ac;" 
d="M772 124q122 0 215.5 73t148.5 207l148 -72q-76 -170 -206.5 -261t-305.5 -91q-220 0 -372 149.5t-200 406.5h-152v128h136q-4 32 -4 96t4 96h-136v128h152q48 257 200 406.5t372 149.5q175 0 305.5 -91t206.5 -261l-148 -72q-55 134 -148.5 207t-215.5 73
q-152 0 -259 -109t-149 -303h480v-128h-496q-4 -32 -4 -96t4 -96h496v-128h-480q42 -194 149 -303t259 -109z" />
    <glyph glyph-name="uni20BD" unicode="&#x20bd;" horiz-adv-x="1356" 
d="M720 612h-248v-192h592v-128h-592v-292h-160v292h-200v128h200v192h-200v128h200v780h408q231 0 369.5 -124t138.5 -328q0 -207 -138.5 -331.5t-369.5 -124.5zM688 1380h-216v-640h216q180 0 278 84t98 240q0 150 -98 233t-278 83z" />
    <glyph glyph-name="uni2116" unicode="&#x2116;" horiz-adv-x="2492" 
d="M1312 256v1264h156v-1520h-168l-892 1268v-1268h-156v1520h172zM2056 872q-138 0 -227 91.5t-89 232.5t89 232.5t227 91.5q141 0 230.5 -91.5t89.5 -232.5t-89.5 -232.5t-230.5 -91.5zM2056 1412q-87 0 -143.5 -60t-56.5 -156t56.5 -156t143.5 -60q90 0 147 60t57 156
t-57 156t-147 60zM1776 588v124h564v-124h-564z" />
    <glyph glyph-name="trademark" unicode="&#x2122;" horiz-adv-x="1896" 
d="M744 1520v-124h-268v-636h-124v636h-268v124h660zM1684 1520v-760h-120v620l-232 -620h-124l-232 620v-620h-124v760h192l224 -588l224 588h192z" />
    <glyph glyph-name="oneeighth" unicode="&#x215b;" horiz-adv-x="1776" 
d="M368 624v628h-240v116h48q130 0 176.5 31.5t55.5 120.5h100v-896h-140zM1208 1520h148l-964 -1520h-148zM1484 456q86 -31 133 -87t47 -133q0 -111 -97.5 -179.5t-258.5 -68.5t-258.5 68.5t-97.5 179.5q0 77 47 133t133 87q-73 27 -112.5 80t-39.5 124q0 112 89.5 180
t238.5 68t238.5 -68t89.5 -180q0 -71 -39.5 -124t-112.5 -80zM1308 800q-91 0 -143.5 -40.5t-52.5 -111.5q0 -61 53.5 -98.5t142.5 -37.5t142.5 37.5t53.5 98.5q0 71 -52.5 111.5t-143.5 40.5zM1308 100q100 0 162 39.5t62 104.5q0 68 -61.5 106t-162.5 38t-162.5 -38
t-61.5 -106q0 -65 62 -104.5t162 -39.5z" />
    <glyph glyph-name="threeeighths" unicode="&#x215c;" horiz-adv-x="1952" 
d="M804 916q0 -131 -102.5 -217.5t-253.5 -86.5q-120 0 -217.5 52.5t-142.5 139.5l112 76q33 -68 98.5 -104t153.5 -36q98 0 157 46.5t59 121.5q0 77 -52.5 122.5t-135.5 45.5q-59 0 -108 -28l-68 76l272 264h-444v132h648v-96l-268 -248h12q125 0 202.5 -72.5t77.5 -187.5z
M1384 1520h148l-964 -1520h-148zM1660 456q86 -31 133 -87t47 -133q0 -111 -97.5 -179.5t-258.5 -68.5t-258.5 68.5t-97.5 179.5q0 77 47 133t133 87q-73 27 -112.5 80t-39.5 124q0 112 89.5 180t238.5 68t238.5 -68t89.5 -180q0 -71 -39.5 -124t-112.5 -80zM1484 800
q-91 0 -143.5 -40.5t-52.5 -111.5q0 -61 53.5 -98.5t142.5 -37.5t142.5 37.5t53.5 98.5q0 71 -52.5 111.5t-143.5 40.5zM1484 100q100 0 162 39.5t62 104.5q0 68 -61.5 106t-162.5 38t-162.5 -38t-61.5 -106q0 -65 62 -104.5t162 -39.5z" />
    <glyph glyph-name="fiveeighths" unicode="&#x215d;" horiz-adv-x="1952" 
d="M804 932q0 -140 -104 -230t-264 -90q-112 0 -200.5 46t-131.5 122l100 80q34 -55 95.5 -87.5t140.5 -32.5q100 0 162 51t62 137t-58.5 135t-153.5 49q-64 0 -117 -24t-79 -68l-108 32l44 468h544v-128h-436l-20 -216q81 56 196 56q144 0 236 -84t92 -216zM1384 1520h148
l-964 -1520h-148zM1660 456q86 -31 133 -87t47 -133q0 -111 -97.5 -179.5t-258.5 -68.5t-258.5 68.5t-97.5 179.5q0 77 47 133t133 87q-73 27 -112.5 80t-39.5 124q0 112 89.5 180t238.5 68t238.5 -68t89.5 -180q0 -71 -39.5 -124t-112.5 -80zM1484 800q-91 0 -143.5 -40.5
t-52.5 -111.5q0 -61 53.5 -98.5t142.5 -37.5t142.5 37.5t53.5 98.5q0 71 -52.5 111.5t-143.5 40.5zM1484 100q100 0 162 39.5t62 104.5q0 68 -61.5 106t-162.5 38t-162.5 -38t-61.5 -106q0 -65 62 -104.5t162 -39.5z" />
    <glyph glyph-name="seveneighths" unicode="&#x215e;" horiz-adv-x="1832" 
d="M252 624q0 210 95.5 417t244.5 343h-564v136h752v-96q-175 -139 -275.5 -350.5t-100.5 -449.5h-152zM1212 1520h144l-964 -1520h-144zM1540 456q86 -31 133 -87t47 -133q0 -111 -97.5 -179.5t-258.5 -68.5t-258.5 68.5t-97.5 179.5q0 77 47 133t133 87q-73 27 -112.5 80
t-39.5 124q0 112 89.5 180t238.5 68t238.5 -68t89.5 -180q0 -71 -39.5 -124t-112.5 -80zM1364 800q-91 0 -143.5 -40.5t-52.5 -111.5q0 -61 53.5 -98.5t142.5 -37.5t142.5 37.5t53.5 98.5q0 71 -52.5 111.5t-143.5 40.5zM1364 100q100 0 162 39.5t62 104.5q0 68 -61.5 106
t-162.5 38t-162.5 -38t-61.5 -106q0 -65 62 -104.5t162 -39.5z" />
    <glyph glyph-name="arrowboth" unicode="&#x2194;" horiz-adv-x="1600" 
d="M1112 1288l528 -528l-528 -528l-100 100l356 356h-1136l356 -356l-100 -100l-528 528l528 528l100 -100l-356 -356h1136l-356 356z" />
    <glyph glyph-name="arrowupdn" unicode="&#x2195;" horiz-adv-x="1600" 
d="M872 192l356 356l100 -100l-528 -528l-528 528l100 100l356 -356v1136l-356 -356l-100 100l528 528l528 -528l-100 -100l-356 356v-1136z" />
    <glyph glyph-name="minus" unicode="&#x2212;" 
d="M192 688v144h1056v-144h-1056z" />
    <glyph glyph-name="approxequal" unicode="&#x2248;" 
d="M256 888l-112 88q143 200 332 200q58 0 114 -17.5t100 -42t86 -49t91 -42t97 -17.5q123 0 220 148l112 -88q-146 -204 -332 -204q-58 0 -114 17.5t-100 43t-86 51t-91 43t-97 17.5q-119 0 -220 -148zM256 376l-112 88q143 200 332 200q58 0 114 -17.5t100 -42t86 -49
t91 -42t97 -17.5q119 0 220 148l112 -88q-146 -204 -332 -204q-58 0 -114 17.5t-100 43t-86 51t-91 43t-97 17.5q-119 0 -220 -148z" />
    <glyph glyph-name="notequal" unicode="&#x2260;" 
d="M1248 944h-360l-188 -368h548v-144h-624l-104 -200h-148l104 200h-284v144h360l188 368h-548v144h624l104 200h148l-104 -200h284v-144z" />
    <glyph glyph-name="lessequal" unicode="&#x2264;" 
d="M1248 1320v-152l-856 -348l856 -348v-156l-1056 428v144zM192 4v144h1056v-144h-1056z" />
    <glyph glyph-name="greaterequal" unicode="&#x2265;" 
d="M192 1320l1056 -432v-144l-1056 -428v148l856 348l-856 348v160zM192 16v144h1056v-144h-1056z" />
    <glyph glyph-name="male" unicode="&#x2642;" horiz-adv-x="2024" 
d="M1012 -256q294 0 449 13t245 46t158 101t101 158t46 245t13 449t-13 449t-46 245t-101 158t-158 101t-245 46t-449 13t-449 -13t-245 -46t-158 -101t-101 -158t-46 -245t-13 -449t13 -449t46 -245t101 -158t158 -101t245 -46t449 -13zM1100 1032q-33 0 -46.5 13t-13.5 43
q0 27 13.5 39.5t46.5 12.5q30 0 43 -12.5t13 -39.5q0 -30 -13 -43t-43 -13zM788 1052v-440h60v-188h-84v112h-312v-112h-84v188h44q44 73 44 228v212h332zM536 844q0 -165 -40 -232h204v360h-164v-128zM1040 608l128 84l40 -60l-132 -92q-30 -12 -52 -12q-39 0 -60 28
t-12 64l76 260h-116l24 76h196l-96 -344zM1596 956v-420h-88v148h-72l-96 -148h-96l108 164q-43 12 -67.5 44.5t-24.5 79.5q0 58 39 95t101 37h196zM1408 756h100v128h-100q-27 0 -45.5 -18.5t-18.5 -45.5t18.5 -45.5t45.5 -18.5z" />
    <glyph glyph-name="uni2643" unicode="&#x2643;" horiz-adv-x="2024" 
d="M1012 -256q-294 0 -449 13t-245 46t-158 101t-101 158t-46 245t-13 449t13 449t46 245t101 158t158 101t245 46t449 13t449 -13t245 -46t158 -101t101 -158t46 -245t13 -449t-13 -449t-46 -245t-101 -158t-158 -101t-245 -46t-449 -13zM1012 -224q288 0 440.5 13t238 44
t149.5 95t95 149.5t44 238t13 440.5t-13 440.5t-44 238t-95 149.5t-149.5 95t-238 44t-440.5 13t-440.5 -13t-238 -44t-149.5 -95t-95 -149.5t-44 -238t-13 -440.5t13 -440.5t44 -238t95 -149.5t149.5 -95t238 -44t440.5 -13zM1100 1032q-33 0 -46.5 13t-13.5 43t13.5 43
t46.5 13t48.5 -13t15.5 -43t-15.5 -43t-48.5 -13zM792 1056v-440h60v-196h-88v112h-308v-112h-88v196h44q40 67 40 224v216h340zM544 844q0 -71 -12 -133t-28 -95h196v352h-156v-124zM1044 612l128 88l44 -68l-136 -92q-27 -16 -56 -16q-40 0 -62 28.5t-10 67.5l72 256h-112
l20 84h204l-96 -348h4zM1600 960v-428h-92v148h-72l-96 -148h-100l108 164q-42 15 -65 49t-23 79q0 60 38.5 98t101.5 38h200zM1412 760h96v120h-96q-27 0 -45.5 -16.5t-18.5 -43.5t18.5 -43.5t45.5 -16.5z" />
    <glyph glyph-name="uni2644" unicode="&#x2644;" horiz-adv-x="2024" 
d="M1012 -256q-294 0 -449 13t-245 46t-158 101t-101 158t-46 245t-13 449t13 449t46 245t101 158t158 101t245 46t449 13t449 -13t245 -46t158 -101t101 -158t46 -245t13 -449t-13 -449t-46 -245t-101 -158t-158 -101t-245 -46t-449 -13zM1012 -224q288 0 440.5 13t238 44
t149.5 95t95 149.5t44 238t13 440.5t-13 440.5t-44 238t-95 149.5t-149.5 95t-238 44t-440.5 13t-440.5 -13t-238 -44t-149.5 -95t-95 -149.5t-44 -238t-13 -440.5t13 -440.5t44 -238t95 -149.5t149.5 -95t238 -44t440.5 -13zM1012 4q-20 34 -44 48q-120 94 -144 236h-236
v1024q95 -48 157 -143.5t71 -204.5l36 -288l-20 4q-27 0 -47.5 -22.5t-20.5 -49.5t16 -46t40 -22l44 -12q112 212 112 396q0 57 -8 176.5t-8 179.5q0 78 52 136q52 -58 52 -136q0 -60 -8 -179.5t-8 -176.5q0 -184 112 -396l44 12q24 3 40 22t16 46q0 28 -21.5 50t-50.5 22
l-16 -4l36 288q12 111 73 206t155 142v-1024h-236q-25 -148 -144 -236q-24 -14 -44 -48zM660 644h40q11 52 72 92l-28 236q-12 107 -84 192v-520zM1324 644h40v520q-72 -85 -84 -192l-28 -236q61 -40 72 -92zM1012 460q35 42 76 52q-56 99 -76 172q-20 -73 -76 -172
q41 -10 76 -52zM660 360h160q0 50 12 104l-32 4q-36 12 -63.5 40t-36.5 64h-40v-212zM1204 360h160v212h-40q-9 -36 -36.5 -64t-63.5 -40l-32 -4q12 -54 12 -104zM888 360h88q0 33 -21.5 57.5t-54.5 30.5q-12 -42 -12 -88zM1048 360h88q0 46 -12 88q-33 -6 -54.5 -30.5
t-21.5 -57.5zM976 140v148h-80q22 -77 80 -148zM1048 140q58 71 80 148h-80v-148z" />
    <glyph glyph-name="uni2645" unicode="&#x2645;" horiz-adv-x="2232" 
d="M1116 -448q-21 43 -68 76q-88 67 -147.5 163t-80.5 209h-372v1608q150 -75 249 -226t111 -322l56 -452l-28 4q-44 0 -78 -34.5t-34 -77.5q0 -38 26 -68.5t66 -39.5l68 -16q176 333 176 624q0 99 -13 285t-15 271q0 123 84 220q84 -97 84 -220q0 -94 -14 -279t-14 -277
q0 -291 176 -624l68 16q40 9 66 39.5t26 68.5q0 43 -34 77.5t-78 34.5l-28 -4l56 452q22 175 117.5 325t242.5 223v-1608h-372q-21 -115 -80 -212.5t-148 -159.5q-47 -33 -68 -76zM560 556h64q12 44 42.5 82t73.5 62l-44 372q-24 173 -136 304v-820zM1608 556h64v820
q-119 -139 -136 -304l-44 -372q43 -24 73.5 -62t42.5 -82zM1116 268q57 64 120 80q-85 156 -120 276q-35 -120 -120 -276q63 -16 120 -80zM560 112h252q0 73 20 160l-52 12q-57 18 -99 60.5t-57 99.5h-64v-332zM1420 112h252v332h-64q-15 -57 -57 -99.5t-99 -60.5l-52 -12
q20 -87 20 -160zM920 112h140q0 51 -34.5 90.5t-85.5 45.5q-20 -73 -20 -136zM1172 112h140q0 63 -20 136q-51 -6 -85.5 -45.5t-34.5 -90.5zM1060 -236v236h-124q29 -129 124 -236zM1172 -236q95 107 124 236h-124v-236z" />
    <glyph glyph-name="K.ss01" horiz-adv-x="1544" 
d="M1388 156h44v-156h-80q-100 0 -158 61.5t-58 174.5v468h-720v-704h-164v1520h164v-664h384l424 664h180l-428 -664h328v-616q0 -39 22.5 -61.5t61.5 -22.5z" />
    <glyph glyph-name="uni0136.ss01" horiz-adv-x="1544" 
d="M1388 156h44v-156h-80q-100 0 -158 61.5t-58 174.5v468h-720v-704h-164v1520h164v-664h384l424 664h180l-428 -664h328v-616q0 -39 22.5 -61.5t61.5 -22.5zM736 -292v160h184v-164q0 -91 -43 -137.5t-117 -46.5h-24v96h32q56 0 56 72v20h-88z" />
    <glyph glyph-name="R.ss01" horiz-adv-x="1548" 
d="M1392 156h48v-156h-80q-103 0 -159.5 61.5t-56.5 174.5v384h-724v-620h-168v1520h604q228 0 362 -117t134 -315q0 -128 -62.5 -219.5t-177.5 -140.5h196v-488q0 -38 23.5 -61t60.5 -23zM848 1372h-428v-608h388q173 0 274.5 85.5t101.5 230.5q0 141 -87 216.5t-249 75.5z
" />
    <glyph glyph-name="Racute.ss01" horiz-adv-x="1548" 
d="M1008 1920l-200 -268h-124l124 268h200zM1392 156h48v-156h-80q-103 0 -159.5 61.5t-56.5 174.5v384h-724v-620h-168v1520h604q228 0 362 -117t134 -315q0 -128 -62.5 -219.5t-177.5 -140.5h196v-488q0 -38 23.5 -61t60.5 -23zM848 1372h-428v-608h388q173 0 274.5 85.5
t101.5 230.5q0 141 -87 216.5t-249 75.5z" />
    <glyph glyph-name="Rcaron.ss01" horiz-adv-x="1548" 
d="M820 1652h-180l-220 268h152l160 -164l156 164h152zM1392 156h48v-156h-80q-103 0 -159.5 61.5t-56.5 174.5v384h-724v-620h-168v1520h604q228 0 362 -117t134 -315q0 -128 -62.5 -219.5t-177.5 -140.5h196v-488q0 -38 23.5 -61t60.5 -23zM848 1372h-428v-608h388
q173 0 274.5 85.5t101.5 230.5q0 141 -87 216.5t-249 75.5z" />
    <glyph glyph-name="uni0156.ss01" horiz-adv-x="1548" 
d="M1392 156h48v-156h-80q-103 0 -159.5 61.5t-56.5 174.5v384h-724v-620h-168v1520h604q228 0 362 -117t134 -315q0 -128 -62.5 -219.5t-177.5 -140.5h196v-488q0 -38 23.5 -61t60.5 -23zM848 1372h-428v-608h388q173 0 274.5 85.5t101.5 230.5q0 141 -87 216.5t-249 75.5z
M756 -292v160h184v-164q0 -91 -43 -137.5t-117 -46.5h-24v96h32q56 0 56 72v20h-88z" />
    <glyph glyph-name="Y.ss01" horiz-adv-x="1488" 
d="M1240 1520h176l-436 -1196q-127 -344 -400 -344q-153 0 -246.5 91.5t-93.5 244.5q0 94 40.5 173.5t115.5 130.5h180l-532 900h192l520 -900h160zM828 360l40 120h-400q-68 -56 -68 -160q0 -87 50 -139.5t134 -52.5q81 0 140 56t104 176z" />
    <glyph glyph-name="Yacute.ss01" horiz-adv-x="1488" 
d="M1008 1920l-200 -268h-124l124 268h200zM1240 1520h176l-436 -1196q-127 -344 -400 -344q-153 0 -246.5 91.5t-93.5 244.5q0 94 40.5 173.5t115.5 130.5h180l-532 900h192l520 -900h160zM828 360l40 120h-400q-68 -56 -68 -160q0 -87 50 -139.5t134 -52.5q81 0 140 56
t104 176z" />
    <glyph glyph-name="Ycircumflex.ss01" horiz-adv-x="1488" 
d="M736 1816l-160 -164h-152l220 268h184l220 -268h-156zM1240 1520h176l-436 -1196q-127 -344 -400 -344q-153 0 -246.5 91.5t-93.5 244.5q0 94 40.5 173.5t115.5 130.5h180l-532 900h192l520 -900h160zM828 360l40 120h-400q-68 -56 -68 -160q0 -87 50 -139.5t134 -52.5
q81 0 140 56t104 176z" />
    <glyph glyph-name="Ydieresis.ss01" horiz-adv-x="1488" 
d="M640 1900v-184h-184v184h184zM1000 1900v-184h-184v184h184zM1240 1520h176l-436 -1196q-127 -344 -400 -344q-153 0 -246.5 91.5t-93.5 244.5q0 94 40.5 173.5t115.5 130.5h180l-532 900h192l520 -900h160zM828 360l40 120h-400q-68 -56 -68 -160q0 -87 50 -139.5
t134 -52.5q81 0 140 56t104 176z" />
    <glyph glyph-name="Ygrave.ss01" horiz-adv-x="1488" 
d="M772 1652h-124l-200 268h200zM1240 1520h176l-436 -1196q-127 -344 -400 -344q-153 0 -246.5 91.5t-93.5 244.5q0 94 40.5 173.5t115.5 130.5h180l-532 900h192l520 -900h160zM828 360l40 120h-400q-68 -56 -68 -160q0 -87 50 -139.5t134 -52.5q81 0 140 56t104 176z" />
    <glyph glyph-name="K.ss02" horiz-adv-x="1524" 
d="M1272 0l-608 772l-248 -240v-532h-164v1520h164v-796l808 796h208l-652 -636l704 -884h-212z" />
    <glyph glyph-name="uni0136.ss02" horiz-adv-x="1524" 
d="M780 884l704 -884h-212l-608 772l-248 -240v-532h-164v1520h164v-796l808 796h208zM736 -292v160h184v-164q0 -91 -43 -137.5t-117 -46.5h-24v96h32q56 0 56 72v20h-88z" />
    <glyph glyph-name="R.ss02" horiz-adv-x="1524" 
d="M1436 0h-196l-384 620h-16h-424v-620h-164v1520h588q228 0 366 -122t138 -326q0 -155 -83.5 -267t-228.5 -157zM416 1372v-608h404q170 0 261 79.5t91 224.5t-91 224.5t-261 79.5h-404z" />
    <glyph glyph-name="Racute.ss02" horiz-adv-x="1524" 
d="M1008 1920l-200 -268h-124l124 268h200zM1436 0h-196l-384 620h-16h-424v-620h-164v1520h588q228 0 366 -122t138 -326q0 -155 -83.5 -267t-228.5 -157zM416 1372v-608h404q170 0 261 79.5t91 224.5t-91 224.5t-261 79.5h-404z" />
    <glyph glyph-name="Rcaron.ss02" horiz-adv-x="1524" 
d="M820 1652h-180l-220 268h152l160 -164l156 164h152zM1436 0h-196l-384 620h-16h-424v-620h-164v1520h588q228 0 366 -122t138 -326q0 -155 -83.5 -267t-228.5 -157zM416 1372v-608h404q170 0 261 79.5t91 224.5t-91 224.5t-261 79.5h-404z" />
    <glyph glyph-name="uni0156.ss02" horiz-adv-x="1524" 
d="M1032 648l404 -648h-196l-384 620h-16h-424v-620h-164v1520h588q228 0 366 -122t138 -326q0 -155 -83.5 -267t-228.5 -157zM416 1372v-608h404q170 0 261 79.5t91 224.5t-91 224.5t-261 79.5h-404zM756 -292v160h184v-164q0 -91 -43 -137.5t-117 -46.5h-24v96h32
q56 0 56 72v20h-88z" />
    <glyph glyph-name="Y.ss02" horiz-adv-x="1416" 
d="M1392 1520l-600 -900v-620h-168v616l-600 904h192l496 -744l492 744h188z" />
    <glyph glyph-name="Yacute.ss02" horiz-adv-x="1416" 
d="M988 1920l-200 -268h-124l124 268h200zM1392 1520l-600 -900v-620h-168v616l-600 904h192l496 -744l492 744h188z" />
    <glyph glyph-name="Ycircumflex.ss02" horiz-adv-x="1416" 
d="M716 1816l-160 -164h-152l220 268h184l220 -268h-156zM1392 1520l-600 -900v-620h-168v616l-600 904h192l496 -744l492 744h188z" />
    <glyph glyph-name="Ydieresis.ss02" horiz-adv-x="1416" 
d="M620 1900v-184h-184v184h184zM980 1900v-184h-184v184h184zM1392 1520l-600 -900v-620h-168v616l-600 904h192l496 -744l492 744h188z" />
    <glyph glyph-name="Ygrave.ss02" horiz-adv-x="1416" 
d="M752 1652h-124l-200 268h200zM1392 1520l-600 -900v-620h-168v616l-600 904h192l496 -744l492 744h188z" />
    <glyph glyph-name="K.ss03" horiz-adv-x="1544" 
d="M1388 156h44v-156h-80q-100 0 -158 61.5t-58 174.5v468h-720v-704h-164v1520h164v-664h384l424 664h180l-428 -664h328v-616q0 -39 22.5 -61.5t61.5 -22.5z" />
    <glyph glyph-name="uni0136.ss03" horiz-adv-x="1544" 
d="M1388 156h44v-156h-80q-100 0 -158 61.5t-58 174.5v468h-720v-704h-164v1520h164v-664h384l424 664h180l-428 -664h328v-616q0 -39 22.5 -61.5t61.5 -22.5zM736 -292v160h184v-164q0 -91 -43 -137.5t-117 -46.5h-24v96h32q56 0 56 72v20h-88z" />
    <glyph glyph-name="R.ss03" horiz-adv-x="1548" 
d="M1392 156h48v-156h-80q-103 0 -159.5 61.5t-56.5 174.5v384h-724v-620h-168v1520h604q228 0 362 -117t134 -315q0 -128 -62.5 -219.5t-177.5 -140.5h196v-488q0 -38 23.5 -61t60.5 -23zM848 1372h-428v-608h388q173 0 274.5 85.5t101.5 230.5q0 141 -87 216.5t-249 75.5z
" />
    <glyph glyph-name="Racute.ss03" horiz-adv-x="1548" 
d="M1008 1920l-200 -268h-124l124 268h200zM1392 156h48v-156h-80q-103 0 -159.5 61.5t-56.5 174.5v384h-724v-620h-168v1520h604q228 0 362 -117t134 -315q0 -128 -62.5 -219.5t-177.5 -140.5h196v-488q0 -38 23.5 -61t60.5 -23zM848 1372h-428v-608h388q173 0 274.5 85.5
t101.5 230.5q0 141 -87 216.5t-249 75.5z" />
    <glyph glyph-name="Rcaron.ss03" horiz-adv-x="1548" 
d="M820 1652h-180l-220 268h152l160 -164l156 164h152zM1392 156h48v-156h-80q-103 0 -159.5 61.5t-56.5 174.5v384h-724v-620h-168v1520h604q228 0 362 -117t134 -315q0 -128 -62.5 -219.5t-177.5 -140.5h196v-488q0 -38 23.5 -61t60.5 -23zM848 1372h-428v-608h388
q173 0 274.5 85.5t101.5 230.5q0 141 -87 216.5t-249 75.5z" />
    <glyph glyph-name="uni0156.ss03" horiz-adv-x="1548" 
d="M1392 156h48v-156h-80q-103 0 -159.5 61.5t-56.5 174.5v384h-724v-620h-168v1520h604q228 0 362 -117t134 -315q0 -128 -62.5 -219.5t-177.5 -140.5h196v-488q0 -38 23.5 -61t60.5 -23zM848 1372h-428v-608h388q173 0 274.5 85.5t101.5 230.5q0 141 -87 216.5t-249 75.5z
M756 -292v160h184v-164q0 -91 -43 -137.5t-117 -46.5h-24v96h32q56 0 56 72v20h-88z" />
    <glyph glyph-name="Y.ss03" horiz-adv-x="1488" 
d="M1240 1520h176l-436 -1196q-127 -344 -400 -344q-153 0 -246.5 91.5t-93.5 244.5q0 94 40.5 173.5t115.5 130.5h180l-532 900h192l520 -900h160zM828 360l40 120h-400q-68 -56 -68 -160q0 -87 50 -139.5t134 -52.5q81 0 140 56t104 176z" />
    <glyph glyph-name="Yacute.ss03" horiz-adv-x="1488" 
d="M988 1920l-200 -268h-124l124 268h200zM1240 1520h176l-436 -1196q-127 -344 -400 -344q-153 0 -246.5 91.5t-93.5 244.5q0 94 40.5 173.5t115.5 130.5h180l-532 900h192l520 -900h160zM828 360l40 120h-400q-68 -56 -68 -160q0 -87 50 -139.5t134 -52.5q81 0 140 56
t104 176z" />
    <glyph glyph-name="Ycircumflex.ss03" horiz-adv-x="1488" 
d="M716 1816l-160 -164h-152l220 268h184l220 -268h-156zM1240 1520h176l-436 -1196q-127 -344 -400 -344q-153 0 -246.5 91.5t-93.5 244.5q0 94 40.5 173.5t115.5 130.5h180l-532 900h192l520 -900h160zM828 360l40 120h-400q-68 -56 -68 -160q0 -87 50 -139.5t134 -52.5
q81 0 140 56t104 176z" />
    <glyph glyph-name="Ydieresis.ss03" horiz-adv-x="1488" 
d="M620 1900v-184h-184v184h184zM980 1900v-184h-184v184h184zM1240 1520h176l-436 -1196q-127 -344 -400 -344q-153 0 -246.5 91.5t-93.5 244.5q0 94 40.5 173.5t115.5 130.5h180l-532 900h192l520 -900h160zM828 360l40 120h-400q-68 -56 -68 -160q0 -87 50 -139.5
t134 -52.5q81 0 140 56t104 176z" />
    <glyph glyph-name="Ygrave.ss03" horiz-adv-x="1488" 
d="M752 1652h-124l-200 268h200zM1240 1520h176l-436 -1196q-127 -344 -400 -344q-153 0 -246.5 91.5t-93.5 244.5q0 94 40.5 173.5t115.5 130.5h180l-532 900h192l520 -900h160zM828 360l40 120h-400q-68 -56 -68 -160q0 -87 50 -139.5t134 -52.5q81 0 140 56t104 176z" />
    <glyph glyph-name="K.ss04" horiz-adv-x="1544" 
d="M1388 156h44v-156h-80q-100 0 -158 61.5t-58 174.5v272q0 96 -43.5 146t-124.5 50h-552v-704h-164v1520h164v-664h440l364 664h172l-372 -672q138 -9 211 -97t73 -247v-264q0 -39 22.5 -61.5t61.5 -22.5z" />
    <glyph glyph-name="uni0136.ss04" horiz-adv-x="1544" 
d="M1388 156h44v-156h-80q-100 0 -158 61.5t-58 174.5v272q0 96 -43.5 146t-124.5 50h-552v-704h-164v1520h164v-664h440l364 664h172l-372 -672q138 -9 211 -97t73 -247v-264q0 -39 22.5 -61.5t61.5 -22.5zM736 -292v160h184v-164q0 -91 -43 -137.5t-117 -46.5h-24v96h32
q56 0 56 72v20h-88z" />
    <glyph glyph-name="R.ss04" horiz-adv-x="1548" 
d="M1392 156h48v-156h-80q-103 0 -159.5 61.5t-56.5 174.5v192q0 96 -44 148t-128 52h-556v-628h-164v1520h592q231 0 367.5 -122t136.5 -326q0 -120 -55 -210.5t-157 -141.5q172 -68 172 -300v-180q0 -38 23.5 -61t60.5 -23zM832 1372h-416v-600h416q166 0 257 80t91 220
q0 145 -89 222.5t-259 77.5z" />
    <glyph glyph-name="Racute.ss04" horiz-adv-x="1548" 
d="M1008 1920l-200 -268h-124l124 268h200zM1392 156h48v-156h-80q-103 0 -159.5 61.5t-56.5 174.5v192q0 96 -44 148t-128 52h-556v-628h-164v1520h592q231 0 367.5 -122t136.5 -326q0 -120 -55 -210.5t-157 -141.5q172 -68 172 -300v-180q0 -38 23.5 -61t60.5 -23z
M832 1372h-416v-600h416q166 0 257 80t91 220q0 145 -89 222.5t-259 77.5z" />
    <glyph glyph-name="Rcaron.ss04" horiz-adv-x="1548" 
d="M820 1652h-180l-220 268h152l160 -164l156 164h152zM1392 156h48v-156h-80q-103 0 -159.5 61.5t-56.5 174.5v192q0 96 -44 148t-128 52h-556v-628h-164v1520h592q231 0 367.5 -122t136.5 -326q0 -120 -55 -210.5t-157 -141.5q172 -68 172 -300v-180q0 -38 23.5 -61
t60.5 -23zM832 1372h-416v-600h416q166 0 257 80t91 220q0 145 -89 222.5t-259 77.5z" />
    <glyph glyph-name="uni0156.ss04" horiz-adv-x="1548" 
d="M1392 156h48v-156h-80q-103 0 -159.5 61.5t-56.5 174.5v192q0 96 -44 148t-128 52h-556v-628h-164v1520h592q231 0 367.5 -122t136.5 -326q0 -120 -55 -210.5t-157 -141.5q172 -68 172 -300v-180q0 -38 23.5 -61t60.5 -23zM832 1372h-416v-600h416q166 0 257 80t91 220
q0 145 -89 222.5t-259 77.5zM756 -292v160h184v-164q0 -91 -43 -137.5t-117 -46.5h-24v96h32q56 0 56 72v20h-88z" />
    <glyph glyph-name="K.ss05" horiz-adv-x="1544" 
d="M1388 156h44v-156h-80q-100 0 -158 61.5t-58 174.5v272q0 96 -43.5 146t-124.5 50h-552v-704h-164v1520h164v-664h440l364 664h172l-372 -672q138 -9 211 -97t73 -247v-264q0 -39 22.5 -61.5t61.5 -22.5z" />
    <glyph glyph-name="uni0136.ss05" horiz-adv-x="1544" 
d="M1388 156h44v-156h-80q-100 0 -158 61.5t-58 174.5v272q0 96 -43.5 146t-124.5 50h-552v-704h-164v1520h164v-664h440l364 664h172l-372 -672q138 -9 211 -97t73 -247v-264q0 -39 22.5 -61.5t61.5 -22.5zM736 -292v160h184v-164q0 -91 -43 -137.5t-117 -46.5h-24v96h32
q56 0 56 72v20h-88z" />
    <glyph glyph-name="R.ss05" horiz-adv-x="1548" 
d="M1392 156h48v-156h-80q-103 0 -159.5 61.5t-56.5 174.5v192q0 96 -44 148t-128 52h-556v-628h-164v1520h592q231 0 367.5 -122t136.5 -326q0 -120 -55 -210.5t-157 -141.5q172 -68 172 -300v-180q0 -38 23.5 -61t60.5 -23zM832 1372h-416v-600h416q166 0 257 80t91 220
q0 145 -89 222.5t-259 77.5z" />
    <glyph glyph-name="Racute.ss05" horiz-adv-x="1548" 
d="M1008 1920l-200 -268h-124l124 268h200zM1392 156h48v-156h-80q-103 0 -159.5 61.5t-56.5 174.5v192q0 96 -44 148t-128 52h-556v-628h-164v1520h592q231 0 367.5 -122t136.5 -326q0 -120 -55 -210.5t-157 -141.5q172 -68 172 -300v-180q0 -38 23.5 -61t60.5 -23z
M832 1372h-416v-600h416q166 0 257 80t91 220q0 145 -89 222.5t-259 77.5z" />
    <glyph glyph-name="Rcaron.ss05" horiz-adv-x="1548" 
d="M820 1652h-180l-220 268h152l160 -164l156 164h152zM1392 156h48v-156h-80q-103 0 -159.5 61.5t-56.5 174.5v192q0 96 -44 148t-128 52h-556v-628h-164v1520h592q231 0 367.5 -122t136.5 -326q0 -120 -55 -210.5t-157 -141.5q172 -68 172 -300v-180q0 -38 23.5 -61
t60.5 -23zM832 1372h-416v-600h416q166 0 257 80t91 220q0 145 -89 222.5t-259 77.5z" />
    <glyph glyph-name="uni0156.ss05" horiz-adv-x="1548" 
d="M1392 156h48v-156h-80q-103 0 -159.5 61.5t-56.5 174.5v192q0 96 -44 148t-128 52h-556v-628h-164v1520h592q231 0 367.5 -122t136.5 -326q0 -120 -55 -210.5t-157 -141.5q172 -68 172 -300v-180q0 -38 23.5 -61t60.5 -23zM832 1372h-416v-600h416q166 0 257 80t91 220
q0 145 -89 222.5t-259 77.5zM756 -292v160h184v-164q0 -91 -43 -137.5t-117 -46.5h-24v96h32q56 0 56 72v20h-88z" />
    <glyph glyph-name="i.loclTRK" horiz-adv-x="620" 
d="M216 1396v184h184v-184h-184zM232 0v1200h160v-1200h-160z" />
    <glyph glyph-name="k.ss01" horiz-adv-x="1304" 
d="M1152 144h40v-144h-76q-87 0 -135.5 51.5t-48.5 144.5v344h-560v-540h-160v1600h160v-912h316l308 512h172l-320 -520h240v-472q0 -29 18 -46.5t46 -17.5z" />
    <glyph glyph-name="uni0137.ss01" horiz-adv-x="1304" 
d="M1152 144h40v-144h-76q-87 0 -135.5 51.5t-48.5 144.5v344h-560v-540h-160v1600h160v-912h316l308 512h172l-320 -520h240v-472q0 -29 18 -46.5t46 -17.5zM552 -292v160h184v-164q0 -91 -43 -137.5t-117 -46.5h-24v96h32q56 0 56 72v20h-88z" />
    <glyph glyph-name="y.ss01" horiz-adv-x="1256" 
d="M1052 1200h172l-412 -1208q-75 -218 -167.5 -315t-224.5 -97q-126 0 -205 82t-79 214q0 161 120 268h164l-416 1056h176l400 -1056h124zM636 -32l12 32h-320q-48 -54 -48 -120q0 -72 40.5 -116t103.5 -44q139 0 212 248z" />
    <glyph glyph-name="yacute.ss01" horiz-adv-x="1256" 
d="M916 1600l-200 -268h-124l124 268h200zM1052 1200h172l-412 -1208q-75 -218 -167.5 -315t-224.5 -97q-126 0 -205 82t-79 214q0 161 120 268h164l-416 1056h176l400 -1056h124zM636 -32l12 32h-320q-48 -54 -48 -120q0 -72 40.5 -116t103.5 -44q139 0 212 248z" />
    <glyph glyph-name="ycircumflex.ss01" horiz-adv-x="1256" 
d="M644 1496l-160 -164h-152l220 268h184l220 -268h-156zM1052 1200h172l-412 -1208q-75 -218 -167.5 -315t-224.5 -97q-126 0 -205 82t-79 214q0 161 120 268h164l-416 1056h176l400 -1056h124zM636 -32l12 32h-320q-48 -54 -48 -120q0 -72 40.5 -116t103.5 -44
q139 0 212 248z" />
    <glyph glyph-name="ydieresis.ss01" horiz-adv-x="1256" 
d="M548 1580v-184h-184v184h184zM908 1580v-184h-184v184h184zM1052 1200h172l-412 -1208q-75 -218 -167.5 -315t-224.5 -97q-126 0 -205 82t-79 214q0 161 120 268h164l-416 1056h176l400 -1056h124zM636 -32l12 32h-320q-48 -54 -48 -120q0 -72 40.5 -116t103.5 -44
q139 0 212 248z" />
    <glyph glyph-name="ygrave.ss01" horiz-adv-x="1256" 
d="M680 1332h-124l-200 268h200zM1052 1200h172l-412 -1208q-75 -218 -167.5 -315t-224.5 -97q-126 0 -205 82t-79 214q0 161 120 268h164l-416 1056h176l400 -1056h124zM636 -32l12 32h-320q-48 -54 -48 -120q0 -72 40.5 -116t103.5 -44q139 0 212 248z" />
    <glyph glyph-name="k.ss02" horiz-adv-x="1248" 
d="M1036 0l-476 600l-188 -176v-424h-160v1600h160v-992l632 592h204l-532 -492l560 -708h-200z" />
    <glyph glyph-name="uni0137.ss02" horiz-adv-x="1248" 
d="M676 708l560 -708h-200l-476 600l-188 -176v-424h-160v1600h160v-992l632 592h204zM564 -292v160h184v-164q0 -91 -43 -137.5t-117 -46.5h-24v96h32q56 0 56 72v20h-88z" />
    <glyph glyph-name="k.ss03" horiz-adv-x="1304" 
d="M1152 144h40v-144h-76q-87 0 -135.5 51.5t-48.5 144.5v344h-560v-540h-160v1600h160v-912h316l308 512h172l-320 -520h240v-472q0 -29 18 -46.5t46 -17.5z" />
    <glyph glyph-name="uni0137.ss03" horiz-adv-x="1304" 
d="M1152 144h40v-144h-76q-87 0 -135.5 51.5t-48.5 144.5v344h-560v-540h-160v1600h160v-912h316l308 512h172l-320 -520h240v-472q0 -29 18 -46.5t46 -17.5zM552 -292v160h184v-164q0 -91 -43 -137.5t-117 -46.5h-24v96h32q56 0 56 72v20h-88z" />
    <glyph glyph-name="y.ss03" horiz-adv-x="1256" 
d="M1052 1200h172l-412 -1208q-75 -218 -167.5 -315t-224.5 -97q-126 0 -205 82t-79 214q0 161 120 268h164l-416 1056h176l400 -1056h124zM636 -32l12 32h-320q-48 -54 -48 -120q0 -72 40.5 -116t103.5 -44q139 0 212 248z" />
    <glyph glyph-name="yacute.ss03" horiz-adv-x="1256" 
d="M916 1600l-200 -268h-124l124 268h200zM1052 1200h172l-412 -1208q-75 -218 -167.5 -315t-224.5 -97q-126 0 -205 82t-79 214q0 161 120 268h164l-416 1056h176l400 -1056h124zM636 -32l12 32h-320q-48 -54 -48 -120q0 -72 40.5 -116t103.5 -44q139 0 212 248z" />
    <glyph glyph-name="ycircumflex.ss03" horiz-adv-x="1256" 
d="M644 1496l-160 -164h-152l220 268h184l220 -268h-156zM1052 1200h172l-412 -1208q-75 -218 -167.5 -315t-224.5 -97q-126 0 -205 82t-79 214q0 161 120 268h164l-416 1056h176l400 -1056h124zM636 -32l12 32h-320q-48 -54 -48 -120q0 -72 40.5 -116t103.5 -44
q139 0 212 248z" />
    <glyph glyph-name="ydieresis.ss03" horiz-adv-x="1256" 
d="M548 1580v-184h-184v184h184zM908 1580v-184h-184v184h184zM1052 1200h172l-412 -1208q-75 -218 -167.5 -315t-224.5 -97q-126 0 -205 82t-79 214q0 161 120 268h164l-416 1056h176l400 -1056h124zM636 -32l12 32h-320q-48 -54 -48 -120q0 -72 40.5 -116t103.5 -44
q139 0 212 248z" />
    <glyph glyph-name="ygrave.ss03" horiz-adv-x="1256" 
d="M680 1332h-124l-200 268h200zM1052 1200h172l-412 -1208q-75 -218 -167.5 -315t-224.5 -97q-126 0 -205 82t-79 214q0 161 120 268h164l-416 1056h176l400 -1056h124zM636 -32l12 32h-320q-48 -54 -48 -120q0 -72 40.5 -116t103.5 -44q139 0 212 248z" />
    <glyph glyph-name="k.ss04" horiz-adv-x="1308" 
d="M1140 144h44v-144h-80q-85 0 -134.5 52t-49.5 144v192q0 72 -35 110t-101 38h-412v-536h-160v1600h160v-920h328l292 520h168l-304 -532q111 -12 167.5 -82.5t56.5 -193.5v-184q0 -30 16.5 -47t43.5 -17z" />
    <glyph glyph-name="uni0137.ss04" horiz-adv-x="1308" 
d="M1140 144h44v-144h-80q-85 0 -134.5 52t-49.5 144v192q0 72 -35 110t-101 38h-412v-536h-160v1600h160v-920h328l292 520h168l-304 -532q111 -12 167.5 -82.5t56.5 -193.5v-184q0 -30 16.5 -47t43.5 -17zM588 -292v160h184v-164q0 -91 -43 -137.5t-117 -46.5h-24v96h32
q56 0 56 72v20h-88z" />
    <glyph glyph-name="k.ss05" horiz-adv-x="1308" 
d="M1140 144h44v-144h-80q-85 0 -134.5 52t-49.5 144v192q0 72 -35 110t-101 38h-412v-536h-160v1600h160v-920h328l292 520h168l-304 -532q111 -12 167.5 -82.5t56.5 -193.5v-184q0 -30 16.5 -47t43.5 -17z" />
    <glyph glyph-name="uni0137.ss05" horiz-adv-x="1308" 
d="M1140 144h44v-144h-80q-85 0 -134.5 52t-49.5 144v192q0 72 -35 110t-101 38h-412v-536h-160v1600h160v-920h328l292 520h168l-304 -532q111 -12 167.5 -82.5t56.5 -193.5v-184q0 -30 16.5 -47t43.5 -17zM588 -292v160h184v-164q0 -91 -43 -137.5t-117 -46.5h-24v96h32
q56 0 56 72v20h-88z" />
    <glyph glyph-name="f.ss06" horiz-adv-x="884" 
d="M660 1460q-96 0 -138 -45.5t-42 -150.5v-64h356v-140h-356v-1060h-160v1060h-256v140h256v56q0 164 79 254t261 90h176v-140h-176z" />
    <glyph glyph-name="t.ss06" horiz-adv-x="972" 
d="M852 1060h-392v-748q0 -172 164 -172h228v-140h-224q-165 0 -246.5 84t-81.5 240v736h-236v140h236l24 320h136v-320h392v-140z" />
    <glyph glyph-name="tbar.ss06" horiz-adv-x="972" 
d="M852 1060h-392v-376h332v-144h-332v-228q0 -172 164 -172h228v-140h-224q-165 0 -246.5 84t-81.5 240v216h-244v144h244v376h-236v140h236l24 320h136v-320h392v-140z" />
    <glyph glyph-name="tcaron.ss06" horiz-adv-x="972" 
d="M812 1600l-56 -304h-112v304h168zM852 1060h-392v-748q0 -172 164 -172h228v-140h-224q-165 0 -246.5 84t-81.5 240v736h-236v140h236l24 320h136v-320h392v-140z" />
    <glyph glyph-name="uni0163.ss06" horiz-adv-x="972" 
d="M664 -96q85 0 138.5 -45.5t53.5 -122.5q0 -75 -75 -125.5t-189 -50.5q-70 0 -137 20t-115 56l68 104q99 -68 188 -68q57 0 88.5 19.5t31.5 52.5q0 64 -104 64q-40 0 -80 -20l-88 52l92 160h92q-165 0 -246.5 84t-81.5 240v736h-236v140h236l24 320h136v-320h392v-140
h-392v-748q0 -172 164 -172h228v-140h-184l-60 -100q20 4 56 4z" />
    <glyph glyph-name="uni021B.ss06" horiz-adv-x="972" 
d="M852 1060h-392v-748q0 -172 164 -172h228v-140h-224q-165 0 -246.5 84t-81.5 240v736h-236v140h236l24 320h136v-320h392v-140zM488 -292v160h184v-164q0 -91 -43 -137.5t-117 -46.5h-24v96h32q56 0 56 72v20h-88z" />
    <glyph glyph-name="y.ss06" horiz-adv-x="1256" 
d="M1056 1200h172l-548 -1392q-45 -114 -111 -161t-177 -47h-216v144h204q64 0 95.5 23t60.5 97l40 104l-524 1232h176l432 -1036z" />
    <glyph glyph-name="yacute.ss06" horiz-adv-x="1256" 
d="M916 1600l-200 -268h-124l124 268h200zM1056 1200h172l-548 -1392q-45 -114 -111 -161t-177 -47h-216v144h204q64 0 95.5 23t60.5 97l40 104l-524 1232h176l432 -1036z" />
    <glyph glyph-name="ycircumflex.ss06" horiz-adv-x="1256" 
d="M644 1496l-160 -164h-152l220 268h184l220 -268h-156zM1056 1200h172l-548 -1392q-45 -114 -111 -161t-177 -47h-216v144h204q64 0 95.5 23t60.5 97l40 104l-524 1232h176l432 -1036z" />
    <glyph glyph-name="ydieresis.ss06" horiz-adv-x="1256" 
d="M548 1580v-184h-184v184h184zM908 1580v-184h-184v184h184zM1056 1200h172l-548 -1392q-45 -114 -111 -161t-177 -47h-216v144h204q64 0 95.5 23t60.5 97l40 104l-524 1232h176l432 -1036z" />
    <glyph glyph-name="ygrave.ss06" horiz-adv-x="1256" 
d="M680 1332h-124l-200 268h200zM1056 1200h172l-548 -1392q-45 -114 -111 -161t-177 -47h-216v144h204q64 0 95.5 23t60.5 97l40 104l-524 1232h176l432 -1036z" />
    <glyph glyph-name="uni0416.ss01" horiz-adv-x="2140" 
d="M1988 156h44v-156h-80q-100 0 -158 61.5t-58 174.5v468h-584v-704h-164v704h-584v-468q0 -113 -56 -174.5t-156 -61.5h-84v156h48q37 0 60.5 23t23.5 61v616h328l-428 664h172l428 -664h248v664h164v-664h248l428 664h176l-428 -664h324v-616q0 -39 24.5 -61.5
t63.5 -22.5z" />
    <glyph glyph-name="uni041A.ss01" horiz-adv-x="1544" 
d="M1388 156h44v-156h-80q-100 0 -158 61.5t-58 174.5v468h-720v-704h-164v1520h164v-664h384l424 664h180l-428 -664h328v-616q0 -39 22.5 -61.5t61.5 -22.5z" />
    <glyph glyph-name="uni0423.ss01" horiz-adv-x="1488" 
d="M1240 1520h176l-436 -1196q-127 -344 -400 -344q-153 0 -246.5 91.5t-93.5 244.5q0 94 40.5 173.5t115.5 130.5h180l-532 900h192l520 -900h160zM828 360l40 120h-400q-68 -56 -68 -160q0 -87 50 -139.5t134 -52.5q81 0 140 56t104 176z" />
    <glyph glyph-name="uni040E.ss01" horiz-adv-x="1488" 
d="M728 1644q-141 0 -228.5 71t-99.5 197l132 24q9 -82 59.5 -127t136.5 -45t136.5 45t59.5 127l132 -24q-12 -126 -99.5 -197t-228.5 -71zM1240 1520h176l-436 -1196q-127 -344 -400 -344q-153 0 -246.5 91.5t-93.5 244.5q0 94 40.5 173.5t115.5 130.5h180l-532 900h192
l520 -900h160zM828 360l40 120h-400q-68 -56 -68 -160q0 -87 50 -139.5t134 -52.5q81 0 140 56t104 176z" />
    <glyph glyph-name="uni042F.ss01" horiz-adv-x="1548" 
d="M1296 1520v-1520h-168v620h-724v-384q0 -113 -56.5 -174.5t-159.5 -61.5h-80v156h48q37 0 60.5 23t23.5 61v488h196q-115 49 -177.5 140.5t-62.5 219.5q0 198 134 315t362 117h604zM700 1372q-162 0 -249 -75.5t-87 -216.5q0 -145 101.5 -230.5t274.5 -85.5h388v608h-428
z" />
    <glyph glyph-name="uni0416.ss02" horiz-adv-x="2216" 
d="M1968 0l-540 788l-236 -236v-552h-168v552l-236 236l-544 -788h-200l632 900l-624 620h208l764 -764v764h168v-772l768 772h204l-624 -620l632 -900h-204z" />
    <glyph glyph-name="uni041A.ss02" horiz-adv-x="1524" 
d="M1272 0l-608 772l-248 -240v-532h-164v1520h164v-796l808 796h208l-652 -636l704 -884h-212z" />
    <glyph glyph-name="uni042F.ss02" horiz-adv-x="1524" 
d="M1276 1520v-1520h-168v620h-424h-24l-384 -620h-188l408 648q-149 45 -232.5 156t-83.5 268q0 204 138 326t366 122h592zM704 764h404v608h-404q-170 0 -261 -79.5t-91 -224.5t91 -224.5t261 -79.5z" />
    <glyph glyph-name="uni0416.ss03" horiz-adv-x="2140" 
d="M1988 156h44v-156h-80q-100 0 -158 61.5t-58 174.5v468h-584v-704h-164v704h-584v-468q0 -113 -56 -174.5t-156 -61.5h-84v156h48q37 0 60.5 23t23.5 61v616h328l-428 664h172l428 -664h248v664h164v-664h248l428 664h176l-428 -664h324v-616q0 -39 24.5 -61.5
t63.5 -22.5z" />
    <glyph glyph-name="uni041A.ss03" horiz-adv-x="1544" 
d="M1388 156h44v-156h-80q-100 0 -158 61.5t-58 174.5v468h-720v-704h-164v1520h164v-664h384l424 664h180l-428 -664h328v-616q0 -39 22.5 -61.5t61.5 -22.5z" />
    <glyph glyph-name="uni0423.ss03" horiz-adv-x="1488" 
d="M1240 1520h176l-436 -1196q-127 -344 -400 -344q-153 0 -246.5 91.5t-93.5 244.5q0 94 40.5 173.5t115.5 130.5h180l-532 900h192l520 -900h160zM828 360l40 120h-400q-68 -56 -68 -160q0 -87 50 -139.5t134 -52.5q81 0 140 56t104 176z" />
    <glyph glyph-name="uni040E.ss03" horiz-adv-x="1488" 
d="M728 1644q-141 0 -228.5 71t-99.5 197l132 24q9 -82 59.5 -127t136.5 -45t136.5 45t59.5 127l132 -24q-12 -126 -99.5 -197t-228.5 -71zM1240 1520h176l-436 -1196q-127 -344 -400 -344q-153 0 -246.5 91.5t-93.5 244.5q0 94 40.5 173.5t115.5 130.5h180l-532 900h192
l520 -900h160zM828 360l40 120h-400q-68 -56 -68 -160q0 -87 50 -139.5t134 -52.5q81 0 140 56t104 176z" />
    <glyph glyph-name="uni042F.ss03" horiz-adv-x="1548" 
d="M1296 1520v-1520h-168v620h-724v-384q0 -113 -56.5 -174.5t-159.5 -61.5h-80v156h48q37 0 60.5 23t23.5 61v488h196q-115 49 -177.5 140.5t-62.5 219.5q0 198 134 315t362 117h604zM700 1372q-162 0 -249 -75.5t-87 -216.5q0 -145 101.5 -230.5t274.5 -85.5h388v608h-428
z" />
    <glyph glyph-name="uni0416.ss04" horiz-adv-x="2152" 
d="M1996 156h44v-156h-80q-100 0 -158 61.5t-58 174.5v272q0 93 -43.5 142.5t-124.5 49.5h-416v-700h-168v700h-412q-84 0 -128 -49.5t-44 -142.5v-272q0 -113 -56.5 -174.5t-159.5 -61.5h-80v156h44q39 0 63.5 22.5t24.5 61.5v264q0 151 68 239.5t196 100.5l-352 676h176
l336 -664h324v664h168v-664h324l336 664h176l-348 -676q129 -15 196.5 -102.5t67.5 -237.5v-264q0 -39 22.5 -61.5t61.5 -22.5z" />
    <glyph glyph-name="uni041A.ss04" horiz-adv-x="1544" 
d="M1388 156h44v-156h-80q-100 0 -158 61.5t-58 174.5v272q0 96 -43.5 146t-124.5 50h-552v-704h-164v1520h164v-664h440l364 664h172l-372 -672q138 -9 211 -97t73 -247v-264q0 -39 22.5 -61.5t61.5 -22.5z" />
    <glyph glyph-name="uni042F.ss04" horiz-adv-x="1548" 
d="M1296 1520v-1520h-168v628h-556q-81 0 -124.5 -52t-43.5 -148v-192q0 -113 -58 -174.5t-158 -61.5h-80v156h44q39 0 61.5 22.5t22.5 61.5v180q0 232 172 300q-102 51 -157 141.5t-55 210.5q0 204 138 326t366 122h596zM712 1372q-168 0 -258 -78t-90 -222q0 -140 91 -220
t257 -80h416v600h-416z" />
    <glyph glyph-name="uni0416.ss05" horiz-adv-x="2152" 
d="M1996 156h44v-156h-80q-100 0 -158 61.5t-58 174.5v272q0 93 -43.5 142.5t-124.5 49.5h-416v-700h-168v700h-412q-84 0 -128 -49.5t-44 -142.5v-272q0 -113 -56.5 -174.5t-159.5 -61.5h-80v156h44q39 0 63.5 22.5t24.5 61.5v264q0 151 68 239.5t196 100.5l-352 676h176
l336 -664h324v664h168v-664h324l336 664h176l-348 -676q129 -15 196.5 -102.5t67.5 -237.5v-264q0 -39 22.5 -61.5t61.5 -22.5z" />
    <glyph glyph-name="uni041A.ss05" horiz-adv-x="1544" 
d="M1388 156h44v-156h-80q-100 0 -158 61.5t-58 174.5v272q0 96 -43.5 146t-124.5 50h-552v-704h-164v1520h164v-664h440l364 664h172l-372 -672q138 -9 211 -97t73 -247v-264q0 -39 22.5 -61.5t61.5 -22.5z" />
    <glyph glyph-name="uni042F.ss05" horiz-adv-x="1548" 
d="M1296 1520v-1520h-168v628h-556q-81 0 -124.5 -52t-43.5 -148v-192q0 -113 -58 -174.5t-158 -61.5h-80v156h44q39 0 61.5 22.5t22.5 61.5v180q0 232 172 300q-102 51 -157 141.5t-55 210.5q0 204 138 326t366 122h596zM712 1372q-168 0 -258 -78t-90 -222q0 -140 91 -220
t257 -80h416v600h-416z" />
    <glyph glyph-name="uni0423.ss06" horiz-adv-x="1536" 
d="M1316 1520h176l-596 -1316q-51 -114 -125 -159t-183 -45h-244v148h240q63 0 98.5 25.5t65.5 94.5l12 28l-672 1224h188l576 -1072z" />
    <glyph glyph-name="uni040E.ss06" horiz-adv-x="1536" 
d="M768 1644q-141 0 -228.5 71t-99.5 197l132 24q9 -82 59.5 -127t136.5 -45t136.5 45t59.5 127l132 -24q-12 -126 -99.5 -197t-228.5 -71zM1316 1520h176l-596 -1316q-51 -114 -125 -159t-183 -45h-244v148h240q63 0 98.5 25.5t65.5 94.5l12 28l-672 1224h188l576 -1072z
" />
    <glyph glyph-name="uni041D.ss07" horiz-adv-x="1720" 
d="M1312 1520h156v-1520h-168l-892 1268v-1268h-156v1520h172l888 -1264v1264z" />
    <glyph glyph-name="uni0410.stress" horiz-adv-x="1536" 
d="M1048 1920l-200 -268h-124l124 268h200zM1324 0l-164 400h-788l-164 -400h-172l636 1520h192l636 -1520h-176zM432 548h664l-332 804z" />
    <glyph glyph-name="uni0415.stress" horiz-adv-x="1344" 
d="M1008 1920l-200 -268h-124l124 268h200zM416 152h848v-152h-1012v1520h992v-152h-828v-516h648v-144h-648v-556z" />
    <glyph glyph-name="uni0401.stress" horiz-adv-x="1344" 
d="M916 1984l-200 -268h-124l124 268h200zM564 1900v-184h-184v184h184zM892 1716v184h184v-184h-184zM416 152h848v-152h-1012v1520h992v-152h-828v-516h648v-144h-648v-556z" />
    <glyph glyph-name="uni0418.stress" horiz-adv-x="1720" 
d="M1136 1920l-200 -268h-124l124 268h200zM1300 1520h168v-1520h-164v1272l-888 -1272h-164v1520h164v-1268z" />
    <glyph glyph-name="uni041E.stress" horiz-adv-x="1680" 
d="M796 1652l124 268h200l-200 -268h-124zM840 -20q-208 0 -369 97.5t-250 275.5t-89 407q0 225 90.5 403t252 277.5t365.5 99.5q208 0 369 -97.5t250 -275.5t89 -407q0 -225 -90.5 -403t-252 -277.5t-365.5 -99.5zM840 128q240 0 388 175t148 457t-148 457t-388 175
t-388 -175t-148 -457t148 -457t388 -175z" />
    <glyph glyph-name="uni0423.stress" horiz-adv-x="1524" 
d="M1036 1920l-200 -268h-124l124 268h200zM1276 1520h180l-548 -1288q-46 -118 -126.5 -185t-185.5 -67q-131 0 -206.5 82.5t-81.5 225.5l152 36q3 -102 37.5 -149t106.5 -47q48 0 88 32.5t60 95.5l-696 1264h192l580 -1096z" />
    <glyph glyph-name="uni042B.stress" horiz-adv-x="2088" 
d="M1324 1920l-200 -268h-124l124 268h200zM868 908q231 0 369.5 -124.5t138.5 -331.5q0 -204 -138.5 -328t-369.5 -124h-616v1520h164v-612h452zM1672 1520h164v-1520h-164v1520zM848 148q173 0 264.5 79.5t91.5 224.5q0 148 -91.5 228t-264.5 80h-432v-612h432z" />
    <glyph glyph-name="uni0404.stress" horiz-adv-x="1536" 
d="M1116 1920l-200 -268h-124l124 268h200zM836 128q176 0 297 90.5t171 265.5l152 -52q-70 -216 -229.5 -334t-390.5 -118q-315 0 -509.5 214.5t-194.5 565.5q0 227 89.5 405t250 276.5t364.5 98.5q232 0 391 -117t229 -335l-156 -56q-51 178 -169.5 269t-294.5 91
q-219 0 -365.5 -148.5t-170.5 -391.5h680v-144h-684q15 -264 162 -422t378 -158z" />
    <glyph glyph-name="uni042D.stress" horiz-adv-x="1528" 
d="M980 1920l-200 -268h-124l124 268h200zM700 1540q153 0 282 -57t219 -158.5t140.5 -247t50.5 -317.5q0 -229 -87.5 -407t-245 -275.5t-359.5 -97.5q-230 0 -394.5 118.5t-233.5 329.5l152 56q53 -175 176.5 -265.5t299.5 -90.5q223 0 370 160t162 420h-684v144h680
q-24 246 -168 393t-360 147q-181 0 -301 -90t-171 -266l-156 56q72 213 237.5 330.5t390.5 117.5z" />
    <glyph glyph-name="uni0406.stress" horiz-adv-x="668" 
d="M288 1652l124 268h200l-200 -268h-124zM252 0v1520h164v-1520h-164z" />
    <glyph glyph-name="uni0407.stress" horiz-adv-x="668" 
d="M196 1716l124 268h200l-200 -268h-124zM-16 1716v184h184v-184h-184zM496 1716v184h184v-184h-184zM252 0v1520h164v-1520h-164z" />
    <glyph glyph-name="uni042E.stress" horiz-adv-x="2264" 
d="M1312 1920l-200 -268h-124l124 268h200zM1440 1540q153 0 282 -57t219 -158.5t140.5 -247t50.5 -317.5q0 -225 -88 -403t-246 -277.5t-358 -99.5q-293 0 -481.5 199.5t-206.5 524.5h-336v-704h-164v1520h164v-664h340q18 201 108.5 356t240.5 241.5t335 86.5zM1440 128
q231 0 375.5 175t144.5 457t-144.5 457t-375.5 175t-375.5 -175t-144.5 -457t144.5 -457t375.5 -175z" />
    <glyph glyph-name="uni042F.stress" horiz-adv-x="1524" 
d="M1112 1920l-200 -268h-124l124 268h200zM1276 1520v-1520h-168v620h-424h-24l-384 -620h-188l408 648q-149 45 -232.5 156t-83.5 268q0 204 138 326t366 122h592zM704 764h404v608h-404q-170 0 -261 -79.5t-91 -224.5t91 -224.5t261 -79.5z" />
    <glyph glyph-name="uni0423.ss03.stress" horiz-adv-x="1488" 
d="M1008 1920l-200 -268h-124l124 268h200zM1240 1520h176l-436 -1196q-127 -344 -400 -344q-153 0 -246.5 91.5t-93.5 244.5q0 94 40.5 173.5t115.5 130.5h180l-532 900h192l520 -900h160zM828 360l40 120h-400q-68 -56 -68 -160q0 -87 50 -139.5t134 -52.5q81 0 140 56
t104 176z" />
    <glyph glyph-name="uni042F.ss03.stress" horiz-adv-x="1548" 
d="M1072 1920l-200 -268h-124l124 268h200zM1296 1520v-1520h-168v620h-724v-384q0 -113 -56.5 -174.5t-159.5 -61.5h-80v156h48q37 0 60.5 23t23.5 61v488h196q-115 49 -177.5 140.5t-62.5 219.5q0 198 134 315t362 117h604zM700 1372q-162 0 -249 -75.5t-87 -216.5
q0 -145 101.5 -230.5t274.5 -85.5h388v608h-428z" />
    <glyph glyph-name="uni042F.ss04.stress" horiz-adv-x="1548" 
d="M1104 1920l-200 -268h-124l124 268h200zM1296 1520v-1520h-168v628h-556q-81 0 -124.5 -52t-43.5 -148v-192q0 -113 -58 -174.5t-158 -61.5h-80v156h44q39 0 61.5 22.5t22.5 61.5v180q0 232 172 300q-102 51 -157 141.5t-55 210.5q0 204 138 326t366 122h596zM712 1372
q-168 0 -258 -78t-90 -222q0 -140 91 -220t257 -80h416v600h-416z" />
    <glyph glyph-name="uni0423.ss06.stress" horiz-adv-x="1536" 
d="M1048 1920l-200 -268h-124l124 268h200zM1316 1520h176l-596 -1316q-51 -114 -125 -159t-183 -45h-244v148h240q63 0 98.5 25.5t65.5 94.5l12 28l-672 1224h188l576 -1072z" />
    <glyph glyph-name="uni0436.ss01" horiz-adv-x="1848" 
d="M1696 144h40v-144h-76q-87 0 -135.5 51.5t-48.5 144.5v344h-472v-540h-160v540h-468v-344q0 -92 -50 -144t-138 -52h-76v144h44q27 0 43.5 17t16.5 47v472h224l-300 520h172l292 -516h240v916h160v-916h244l292 516h172l-304 -520h224v-472q0 -29 18 -46.5t46 -17.5z" />
    <glyph glyph-name="uni043A.ss01" horiz-adv-x="1304" 
d="M1152 144h40v-144h-76q-87 0 -135.5 51.5t-48.5 144.5v344h-560v-540h-160v1600h160v-912h316l308 512h172l-320 -520h240v-472q0 -29 18 -46.5t46 -17.5z" />
    <glyph glyph-name="uni0443.ss01" horiz-adv-x="1256" 
d="M1052 1200h172l-412 -1208q-75 -218 -167.5 -315t-224.5 -97q-126 0 -205 82t-79 214q0 161 120 268h164l-416 1056h176l400 -1056h124zM636 -32l12 32h-320q-48 -54 -48 -120q0 -72 40.5 -116t103.5 -44q139 0 212 248z" />
    <glyph glyph-name="uni045E.ss01" horiz-adv-x="1256" 
d="M636 1324q-141 0 -228.5 71t-99.5 197l132 24q9 -82 59.5 -127t136.5 -45t136.5 45t59.5 127l132 -24q-12 -126 -99.5 -197t-228.5 -71zM1052 1200h172l-412 -1208q-75 -218 -167.5 -315t-224.5 -97q-126 0 -205 82t-79 214q0 161 120 268h164l-416 1056h176l400 -1056
h124zM636 -32l12 32h-320q-48 -54 -48 -120q0 -72 40.5 -116t103.5 -44q139 0 212 248z" />
    <glyph glyph-name="uni044F.ss01" horiz-adv-x="1316" 
d="M1108 1200v-1200h-160v476h-576v-280q0 -92 -49.5 -144t-134.5 -52h-80v144h44q27 0 43.5 17t16.5 47v360h168q-95 40 -149.5 114t-54.5 174q0 156 108.5 250t291.5 94h532zM588 1064q-117 0 -182.5 -57.5t-65.5 -162.5t77 -168.5t203 -63.5h328v452h-360z" />
    <glyph glyph-name="uni0436.ss02" horiz-adv-x="1844" 
d="M1628 0l-440 620l-188 -180v-440h-160v444l-180 180l-444 -624h-196l524 728l-496 472h208l584 -572v972h160v-976l592 576h204l-496 -472l524 -728h-196z" />
    <glyph glyph-name="uni043A.ss02" horiz-adv-x="1248" 
d="M1036 0l-476 600l-188 -176v-424h-160v1600h160v-992l632 592h204l-532 -492l560 -708h-200z" />
    <glyph glyph-name="uni044F.ss02" horiz-adv-x="1264" 
d="M1052 1200v-1200h-156v484h-336h-4l-316 -484h-180l336 508q-118 36 -185 122.5t-67 205.5q0 163 114 263.5t302 100.5h492zM568 616h328v444h-328q-123 0 -193.5 -59t-70.5 -161q0 -105 70.5 -164.5t193.5 -59.5z" />
    <glyph glyph-name="uni0436.ss03" horiz-adv-x="1848" 
d="M1696 144h40v-144h-76q-87 0 -135.5 51.5t-48.5 144.5v344h-472v-540h-160v540h-468v-344q0 -92 -50 -144t-138 -52h-76v144h44q27 0 43.5 17t16.5 47v472h224l-300 520h172l292 -516h240v516h160v-516h244l292 516h172l-304 -520h224v-472q0 -29 18 -46.5t46 -17.5z" />
    <glyph glyph-name="uni043A.ss03" horiz-adv-x="1304" 
d="M1152 144h40v-144h-76q-87 0 -135.5 51.5t-48.5 144.5v344h-560v-540h-160v1200h160v-512h316l308 512h172l-320 -520h240v-472q0 -29 18 -46.5t46 -17.5z" />
    <glyph glyph-name="uni0443.ss03" horiz-adv-x="1256" 
d="M1052 1200h172l-412 -1208q-75 -218 -167.5 -315t-224.5 -97q-126 0 -205 82t-79 214q0 161 120 268h164l-416 1056h176l400 -1056h124zM636 -32l12 32h-320q-48 -54 -48 -120q0 -72 40.5 -116t103.5 -44q139 0 212 248z" />
    <glyph glyph-name="uni045E.ss03" horiz-adv-x="1256" 
d="M636 1324q-141 0 -228.5 71t-99.5 197l132 24q9 -82 59.5 -127t136.5 -45t136.5 45t59.5 127l132 -24q-12 -126 -99.5 -197t-228.5 -71zM1052 1200h172l-412 -1208q-75 -218 -167.5 -315t-224.5 -97q-126 0 -205 82t-79 214q0 161 120 268h164l-416 1056h176l400 -1056
h124zM636 -32l12 32h-320q-48 -54 -48 -120q0 -72 40.5 -116t103.5 -44q139 0 212 248z" />
    <glyph glyph-name="uni044F.ss03" horiz-adv-x="1316" 
d="M1108 1200v-1200h-160v476h-576v-280q0 -92 -49.5 -144t-134.5 -52h-80v144h44q27 0 43.5 17t16.5 47v360h168q-95 40 -149.5 114t-54.5 174q0 156 108.5 250t291.5 94h532zM588 1064q-117 0 -182.5 -57.5t-65.5 -162.5t77 -168.5t203 -63.5h328v452h-360z" />
    <glyph glyph-name="uni0436.ss04" horiz-adv-x="1884" 
d="M1720 144h40v-144h-76q-85 0 -134.5 52t-49.5 144v192q0 72 -35 110t-101 38h-340v-536h-160v536h-344q-64 0 -100 -38.5t-36 -109.5v-192q0 -93 -48.5 -144.5t-135.5 -51.5h-76v144h44q27 0 43.5 17t16.5 47v184q0 124 57 195.5t167 80.5l-304 532h172l288 -520h256v920
h160v-920h256l288 520h172l-304 -532q107 -9 163.5 -80.5t56.5 -195.5v-184q0 -29 18 -46.5t46 -17.5z" />
    <glyph glyph-name="uni043A.ss04" horiz-adv-x="1308" 
d="M1140 144h44v-144h-80q-85 0 -134.5 52t-49.5 144v192q0 72 -35 110t-101 38h-412v-536h-160v1600h160v-920h328l292 520h168l-304 -532q111 -12 167.5 -82.5t56.5 -193.5v-184q0 -30 16.5 -47t43.5 -17z" />
    <glyph glyph-name="uni044F.ss04" horiz-adv-x="1308" 
d="M1100 1200v-1200h-160v484h-436q-66 0 -101 -40.5t-35 -115.5v-132q0 -93 -48.5 -144.5t-135.5 -51.5h-72v144h40q28 0 46 17.5t18 46.5v124q0 181 140 224q-84 42 -130 117t-46 171q0 162 111 259t297 97h512zM600 1060q-123 0 -191.5 -57t-68.5 -159q0 -106 69 -167
t191 -61h340v444h-340z" />
    <glyph glyph-name="uni0436.ss05" horiz-adv-x="1884" 
d="M1720 144h40v-144h-76q-85 0 -134.5 52t-49.5 144v192q0 72 -35 110t-101 38h-340v-536h-160v536h-344q-64 0 -100 -38.5t-36 -109.5v-192q0 -93 -48.5 -144.5t-135.5 -51.5h-76v144h44q27 0 43.5 17t16.5 47v184q0 124 57 195.5t167 80.5l-304 532h172l288 -520h256v520
h160v-520h256l288 520h172l-304 -532q107 -9 163.5 -80.5t56.5 -195.5v-184q0 -29 18 -46.5t46 -17.5z" />
    <glyph glyph-name="uni043A.ss05" horiz-adv-x="1308" 
d="M1140 144h44v-144h-80q-85 0 -134.5 52t-49.5 144v192q0 72 -35 110t-101 38h-412v-536h-160v1200h160v-520h328l292 520h168l-304 -532q111 -12 167.5 -82.5t56.5 -193.5v-184q0 -30 16.5 -47t43.5 -17z" />
    <glyph glyph-name="uni044F.ss05" horiz-adv-x="1308" 
d="M1100 1200v-1200h-160v484h-436q-66 0 -101 -40.5t-35 -115.5v-132q0 -93 -48.5 -144.5t-135.5 -51.5h-72v144h40q28 0 46 17.5t18 46.5v124q0 181 140 224q-84 42 -130 117t-46 171q0 162 111 259t297 97h512zM600 1060q-123 0 -191.5 -57t-68.5 -159q0 -106 69 -167
t191 -61h340v444h-340z" />
    <glyph glyph-name="uni0443.ss06" horiz-adv-x="1256" 
d="M1056 1200h172l-548 -1392q-45 -114 -111 -161t-177 -47h-216v144h204q64 0 95.5 23t60.5 97l40 104l-524 1232h176l432 -1036z" />
    <glyph glyph-name="uni045E.ss06" horiz-adv-x="1256" 
d="M636 1324q-141 0 -228.5 71t-99.5 197l132 24q9 -82 59.5 -127t136.5 -45t136.5 45t59.5 127l132 -24q-12 -126 -99.5 -197t-228.5 -71zM1056 1200h172l-548 -1392q-45 -114 -111 -161t-177 -47h-216v144h204q64 0 95.5 23t60.5 97l40 104l-524 1232h176l432 -1036z" />
    <glyph glyph-name="uni043D.ss07" 
d="M1076 1200h152v-1200h-168l-696 964v-964h-152v1200h168l696 -964v964z" />
    <glyph glyph-name="uni0430.stress" horiz-adv-x="1268" 
d="M884 1600l-200 -268h-124l124 268h200zM1136 140h44v-140q-8 -8 -56 -8q-108 0 -155 46.5t-53 157.5q-64 -97 -182.5 -156.5t-257.5 -59.5q-174 0 -279 93.5t-105 246.5q0 47 10 88t26 72t43.5 58.5t54 47t65.5 37t70.5 28.5t77.5 22t78 17t79 14q167 32 217 53
q82 35 87 105v10q0 93 -79.5 150.5t-208.5 57.5q-114 0 -213.5 -46.5t-174.5 -133.5l-108 104q197 216 500 216q205 0 322.5 -103t117.5 -285v-608q0 -45 19 -64.5t61 -19.5zM488 120q172 0 294 100.5t122 243.5v204q-42 -33 -109 -52t-179 -36q-49 -9 -77.5 -14.5
t-72.5 -17t-70 -23.5t-56.5 -31.5t-47.5 -42.5t-28.5 -55.5t-11.5 -71.5q0 -98 62 -151t174 -53z" />
    <glyph glyph-name="uni0435.stress" horiz-adv-x="1360" 
d="M960 1600l-200 -268h-124l124 268h200zM280 544q15 -196 132 -308t308 -112q130 0 229 47.5t159 128.5l116 -100q-77 -94 -206 -157t-294 -63q-189 0 -328.5 81t-209.5 220.5t-70 318.5q0 272 163.5 446t416.5 174q255 0 407.5 -169t152.5 -451q0 -36 -4 -56h-972z
M696 1080q-170 0 -282.5 -110t-133.5 -294h812q-18 189 -123 296.5t-273 107.5z" />
    <glyph glyph-name="uni0451.stress" horiz-adv-x="1360" 
d="M868 1664l-200 -268h-124l124 268h200zM516 1580v-184h-184v184h184zM844 1396v184h184v-184h-184zM280 544q15 -196 132 -308t308 -112q130 0 229 47.5t159 128.5l116 -100q-77 -94 -206 -157t-294 -63q-189 0 -328.5 81t-209.5 220.5t-70 318.5q0 272 163.5 446
t416.5 174q255 0 407.5 -169t152.5 -451q0 -36 -4 -56h-972zM696 1080q-170 0 -282.5 -110t-133.5 -294h812q-18 189 -123 296.5t-273 107.5z" />
    <glyph glyph-name="uni0438.stress" 
d="M1000 1600l-200 -268h-124l124 268h200zM1060 1200h168v-1200h-156v980l-692 -980h-168v1200h156v-980z" />
    <glyph glyph-name="uni043E.stress" horiz-adv-x="1408" 
d="M660 1332l124 268h200l-200 -268h-124zM704 -20q-266 0 -427 170t-161 450q0 180 74 321.5t208 220t306 78.5q266 0 427 -170t161 -450q0 -180 -74 -321.5t-208 -220t-306 -78.5zM704 120q192 0 308 132t116 348q0 219 -116 349.5t-308 130.5t-308 -132t-116 -348
q0 -219 116 -349.5t308 -130.5z" />
    <glyph glyph-name="uni0443.stress" horiz-adv-x="1256" 
d="M916 1600l-200 -268h-124l124 268h200zM1064 1200h168l-472 -1284q-24 -68 -55 -124t-74 -106t-101 -78t-126 -28q-140 0 -213 89.5t-67 234.5l144 24q-4 -52 4.5 -94t43 -74t92.5 -32q111 0 188 176l-560 1296h176l464 -1100z" />
    <glyph glyph-name="uni044B.stress" horiz-adv-x="1752" 
d="M832 1332l124 268h200l-200 -268h-124zM736 716q189 0 302.5 -99t113.5 -261q0 -160 -114 -258t-302 -98h-524v1200h160v-484h364zM1380 1200h160v-1200h-160v1200zM732 144q120 0 188 56.5t68 155.5q0 102 -68 159t-188 57h-360v-428h360z" />
    <glyph glyph-name="uni0454.stress" horiz-adv-x="1312" 
d="M968 1600l-200 -268h-124l124 268h200zM696 120q135 0 234 72.5t142 195.5l148 -48q-51 -168 -191.5 -264t-332.5 -96q-256 0 -418 171.5t-162 448.5q0 273 162.5 446.5t417.5 173.5q195 0 334 -96t190 -264l-152 -48q-40 122 -139.5 195t-232.5 73q-169 0 -280.5 -108.5
t-135.5 -287.5h588v-144h-588q15 -192 127 -306t289 -114z" />
    <glyph glyph-name="uni044D.stress" horiz-adv-x="1304" 
d="M888 1600l-200 -268h-124l124 268h200zM612 1220q252 0 414 -173.5t162 -446.5q0 -278 -160 -449t-416 -171q-189 0 -331 97.5t-193 262.5l140 48q43 -123 144.5 -195.5t239.5 -72.5q176 0 286.5 113.5t125.5 306.5h-588v144h588q-24 180 -134 288t-278 108
q-136 0 -238.5 -73t-145.5 -195l-140 44q54 168 196 266t328 98z" />
    <glyph glyph-name="uni0456.stress" horiz-adv-x="620" 
d="M264 1332l124 268h200l-200 -268h-124zM232 0v1200h160v-1200h-160z" />
    <glyph glyph-name="uni0457.stress" horiz-adv-x="620" 
d="M172 1396l124 268h200l-200 -268h-124zM-40 1396v184h184v-184h-184zM472 1396v184h184v-184h-184zM232 0v1200h160v-1200h-160z" />
    <glyph glyph-name="uni044E.stress" horiz-adv-x="1912" 
d="M1144 1600l-200 -268h-124l124 268h200zM1228 1220q257 0 412.5 -170t155.5 -450q0 -273 -158 -446.5t-410 -173.5q-243 0 -398 152.5t-170 407.5h-288v-540h-160v1200h160v-516h288q24 240 180.5 388t387.5 148zM1228 120q183 0 293.5 132t110.5 348q0 219 -110.5 349.5
t-293.5 130.5t-295.5 -132t-112.5 -348q0 -218 112 -349t296 -131z" />
    <glyph glyph-name="uni044F.stress" horiz-adv-x="1264" 
d="M948 1600l-200 -268h-124l124 268h200zM1052 1200v-1200h-156v484h-336h-4l-316 -484h-180l336 508q-118 36 -185 122.5t-67 205.5q0 163 114 263.5t302 100.5h492zM568 616h328v444h-328q-123 0 -193.5 -59t-70.5 -161q0 -105 70.5 -164.5t193.5 -59.5z" />
    <glyph glyph-name="uni0443.ss03.stress" horiz-adv-x="1256" 
d="M916 1600l-200 -268h-124l124 268h200zM1052 1200h172l-412 -1208q-75 -218 -167.5 -315t-224.5 -97q-126 0 -205 82t-79 214q0 161 120 268h164l-416 1056h176l400 -1056h124zM636 -32l12 32h-320q-48 -54 -48 -120q0 -72 40.5 -116t103.5 -44q139 0 212 248z" />
    <glyph glyph-name="uni044F.ss03.stress" horiz-adv-x="1316" 
d="M924 1600l-200 -268h-124l124 268h200zM1108 1200v-1200h-160v476h-576v-280q0 -92 -49.5 -144t-134.5 -52h-80v144h44q27 0 43.5 17t16.5 47v360h168q-95 40 -149.5 114t-54.5 174q0 156 108.5 250t291.5 94h532zM588 1064q-117 0 -182.5 -57.5t-65.5 -162.5t77 -168.5
t203 -63.5h328v452h-360z" />
    <glyph glyph-name="uni044F.ss04.stress" horiz-adv-x="1308" 
d="M960 1600l-200 -268h-124l124 268h200zM1100 1200v-1200h-160v484h-436q-66 0 -101 -40.5t-35 -115.5v-132q0 -93 -48.5 -144.5t-135.5 -51.5h-72v144h40q28 0 46 17.5t18 46.5v124q0 181 140 224q-84 42 -130 117t-46 171q0 162 111 259t297 97h512zM600 1060
q-123 0 -191.5 -57t-68.5 -159q0 -106 69 -167t191 -61h340v444h-340z" />
    <glyph glyph-name="uni0443.ss06.stress" horiz-adv-x="1256" 
d="M916 1600l-200 -268h-124l124 268h200zM1056 1200h172l-548 -1392q-45 -114 -111 -161t-177 -47h-216v144h204q64 0 95.5 23t60.5 97l40 104l-524 1232h176l432 -1036z" />
    <glyph glyph-name="zero.zero" 
d="M720 1540q176 0 310.5 -97t208 -274t73.5 -409t-73.5 -409t-208 -274t-310.5 -97t-310.5 97t-208 274t-73.5 409t73.5 409t208 274t310.5 97zM720 1400q-201 0 -318.5 -171.5t-117.5 -468.5q0 -253 88 -416l616 944q-106 112 -268 112zM720 120q201 0 318.5 171.5
t117.5 468.5q0 253 -88 416l-616 -944q106 -112 268 -112z" />
    <glyph glyph-name="zero.lf" 
d="M720 -20q-176 0 -310.5 97t-208 274t-73.5 409t73.5 409t208 274t310.5 97t310.5 -97t208 -274t73.5 -409t-73.5 -409t-208 -274t-310.5 -97zM720 124q193 0 310.5 173t117.5 463t-117.5 463t-310.5 173t-310.5 -173t-117.5 -463t117.5 -463t310.5 -173z" />
    <glyph glyph-name="one.lf" horiz-adv-x="900" 
d="M416 0v1140h-364v128h56q138 0 212 23t108 75.5t44 153.5h108v-1520h-164z" />
    <glyph glyph-name="two.lf" horiz-adv-x="1204" 
d="M304 152h796v-152h-1044v104l516 484q161 149 238.5 272t77.5 236q0 135 -84.5 219.5t-219.5 84.5q-162 0 -259.5 -97t-112.5 -271l-152 36q21 218 164.5 345t363.5 127q206 0 335 -121.5t129 -314.5q0 -139 -92.5 -283.5t-299.5 -336.5z" />
    <glyph glyph-name="three.lf" horiz-adv-x="1220" 
d="M664 928q130 0 231 -61.5t153 -162.5t52 -224q0 -100 -37 -190t-105 -159t-172.5 -110t-229.5 -41q-184 0 -328 81t-212 227l136 76q107 -244 396 -244q179 0 283.5 99t104.5 265q0 147 -86 233.5t-218 86.5q-106 0 -196 -48l-84 92l492 524h-764v148h980v-116l-464 -480
q24 4 68 4z" />
    <glyph glyph-name="four.lf" horiz-adv-x="1280" 
d="M1240 536v-136h-264v-400h-160v400h-756v120l732 1000h184v-984h264zM232 536h584v796z" />
    <glyph glyph-name="five.lf" horiz-adv-x="1264" 
d="M612 1016q226 0 373 -144t147 -368q0 -229 -157.5 -376.5t-402.5 -147.5q-175 0 -307.5 77t-196.5 211l116 84q49 -102 152.5 -165t235.5 -63q180 0 288 104.5t108 275.5q0 168 -100 270t-268 102q-109 0 -195 -47.5t-137 -136.5l-128 32l68 796h808v-148h-676l-44 -476
q126 120 316 120z" />
    <glyph glyph-name="six.lf" horiz-adv-x="1304" 
d="M728 964q219 0 363.5 -134t144.5 -350q0 -141 -71 -256t-192.5 -179.5t-268.5 -64.5q-139 0 -249.5 59t-181.5 163.5t-108 244.5t-37 305q0 167 39.5 309t114 249.5t191.5 168.5t263 61q140 0 259.5 -54.5t196.5 -157.5l-108 -104q-129 176 -348 176q-114 0 -203.5 -50.5
t-146 -139t-85.5 -203t-29 -247.5v-64q66 129 184.5 198.5t271.5 69.5zM704 120q158 0 265 99t107 253q0 158 -104 257t-264 99q-158 0 -265 -99t-107 -253q0 -153 105.5 -254.5t262.5 -101.5z" />
    <glyph glyph-name="seven.lf" horiz-adv-x="1116" 
d="M8 1520h1092v-112q-271 -247 -429.5 -620.5t-158.5 -787.5h-164q0 202 45.5 408t123 382.5t175.5 325.5t208 256h-892v148z" />
    <glyph glyph-name="eight.lf" horiz-adv-x="1296" 
d="M884 768q136 -45 212 -141.5t76 -230.5q0 -186 -148 -301t-388 -115q-242 0 -389 114.5t-147 301.5q0 133 74.5 228t209.5 144q-111 45 -173.5 136.5t-62.5 211.5q0 192 133 308t355 116t355 -116t133 -308q0 -119 -62.5 -209.5t-177.5 -138.5zM308 1112q0 -132 89 -210
t239 -78q147 0 235.5 78t88.5 210q0 135 -88.5 215.5t-235.5 80.5q-150 0 -239 -80.5t-89 -215.5zM636 112q171 0 273.5 80t102.5 212q0 134 -102 213t-274 79t-274 -79t-102 -213q0 -132 102.5 -212t273.5 -80z" />
    <glyph glyph-name="nine.lf" horiz-adv-x="1304" 
d="M572 1540q113 0 207.5 -38.5t163 -108t116 -165.5t70.5 -212t23 -248q0 -167 -39.5 -309t-114 -249.5t-191.5 -168.5t-263 -61q-141 0 -262 54.5t-198 157.5l112 104q123 -176 348 -176q114 0 203.5 50.5t146 139t85.5 203t29 247.5q0 44 -4 68q-60 -129 -180 -200.5
t-276 -71.5q-142 0 -256.5 59.5t-181 170.5t-66.5 254q0 141 71 256t191.5 179.5t265.5 64.5zM568 692q161 0 268.5 99t107.5 253q0 153 -105.5 254.5t-262.5 101.5q-161 0 -268.5 -99t-107.5 -253q0 -157 105 -256.5t263 -99.5z" />
    <glyph glyph-name="zero.lf.zero" 
d="M720 1540q176 0 310.5 -97t208 -274t73.5 -409t-73.5 -409t-208 -274t-310.5 -97t-310.5 97t-208 274t-73.5 409t73.5 409t208 274t310.5 97zM720 1400q-201 0 -318.5 -171.5t-117.5 -468.5q0 -253 88 -416l616 944q-106 112 -268 112zM720 120q201 0 318.5 171.5
t117.5 468.5q0 253 -88 416l-616 -944q106 -112 268 -112z" />
    <glyph glyph-name="zero.osf" 
d="M720 -20q-267 0 -429.5 181.5t-162.5 478.5q0 191 76 342t211 234.5t305 83.5q267 0 429.5 -181.5t162.5 -478.5q0 -191 -76 -342t-211 -234.5t-305 -83.5zM720 124q192 0 310 141.5t118 374.5t-118 374.5t-310 141.5t-310 -141.5t-118 -374.5t118 -374.5t310 -141.5z
" />
    <glyph glyph-name="one.osf" horiz-adv-x="824" 
d="M424 0v924h-364v128h60q200 0 274.5 52t89.5 200h104v-1304h-164z" />
    <glyph glyph-name="two.osf" horiz-adv-x="1200" 
d="M356 152h816v-152h-1108v104l496 360q195 138 267.5 229t72.5 199q0 121 -84 194.5t-224 73.5q-154 0 -252 -84.5t-128 -239.5l-148 24q35 201 183 320.5t349 119.5q202 0 329 -110.5t127 -289.5q0 -137 -84 -249t-324 -287z" />
    <glyph glyph-name="three.osf" horiz-adv-x="1200" 
d="M672 688q130 0 231 -61.5t153 -162.5t52 -224q0 -100 -37 -190t-105 -159t-172.5 -110t-229.5 -41q-184 0 -328 81t-212 227l136 76q107 -244 396 -244q179 0 283.5 99t104.5 265q0 147 -86 233.5t-218 86.5q-106 0 -196 -48l-84 92l492 524h-760v148h976v-116l-460 -480
q20 4 64 4z" />
    <glyph glyph-name="four.osf" horiz-adv-x="1280" 
d="M1232 296v-136h-264v-400h-160v400h-756v120l732 1000h184v-984h264zM224 296h584v796z" />
    <glyph glyph-name="five.osf" horiz-adv-x="1264" 
d="M656 776q226 0 373 -144t147 -368q0 -229 -157.5 -376.5t-402.5 -147.5q-175 0 -307.5 77t-196.5 211l116 84q50 -102 154 -165t238 -63q177 0 284.5 104.5t107.5 275.5q0 168 -99.5 270t-264.5 102q-112 0 -198.5 -47t-137.5 -137l-128 32l68 796h808v-148h-676
l-44 -476q126 120 316 120z" />
    <glyph glyph-name="six.osf" horiz-adv-x="1344" 
d="M740 964q219 0 363.5 -134t144.5 -350q0 -141 -71 -256t-192.5 -179.5t-268.5 -64.5q-139 0 -249.5 59t-181.5 163.5t-108 244.5t-37 305q0 167 39.5 309t114 249.5t191.5 168.5t263 61q140 0 259.5 -54.5t196.5 -157.5l-108 -104q-129 176 -348 176q-114 0 -203.5 -50.5
t-146 -139t-85.5 -203t-29 -247.5v-64q66 129 184.5 198.5t271.5 69.5zM716 120q158 0 265 99t107 253q0 158 -104 257t-264 99q-158 0 -265 -99t-107 -253q0 -153 105.5 -254.5t262.5 -101.5z" />
    <glyph glyph-name="seven.osf" horiz-adv-x="1116" 
d="M4 1280h1092v-112q-271 -247 -429.5 -620.5t-158.5 -787.5h-164q0 202 45.5 408t123.5 382.5t177 325.5t210 256h-896v148z" />
    <glyph glyph-name="eight.osf" horiz-adv-x="1296" 
d="M896 768q136 -45 212 -141.5t76 -230.5q0 -186 -148 -301t-388 -115t-388 115t-148 301q0 134 76 230.5t212 141.5q-115 48 -177.5 138.5t-62.5 209.5q0 192 133 308t355 116t355 -116t133 -308q0 -119 -62.5 -209.5t-177.5 -138.5zM320 1112q0 -132 89 -210t239 -78
t237 78t87 210q0 135 -87.5 215.5t-236.5 80.5q-150 0 -239 -80.5t-89 -215.5zM648 112q171 0 273.5 80t102.5 212q0 134 -102 213t-274 79t-274 -79t-102 -213q0 -132 102.5 -212t273.5 -80z" />
    <glyph glyph-name="nine.osf" horiz-adv-x="1312" 
d="M580 1300q113 0 207.5 -38.5t163 -108t116 -165.5t70.5 -212t23 -248q0 -167 -39.5 -309t-114 -249.5t-191.5 -168.5t-263 -61q-141 0 -262 54.5t-198 157.5l112 104q123 -176 348 -176q114 0 203.5 50.5t146 139t85.5 203t29 247.5q0 44 -4 68q-60 -129 -180 -200.5
t-276 -71.5q-142 0 -256.5 59.5t-181 170.5t-66.5 254q0 141 71 256t191.5 179.5t265.5 64.5zM576 452q161 0 268.5 99t107.5 253q0 153 -105.5 254.5t-262.5 101.5q-161 0 -268.5 -99t-107.5 -253q0 -157 105 -256.5t263 -99.5z" />
    <glyph glyph-name="zero.osf.zero" 
d="M720 1300q267 0 429.5 -181.5t162.5 -478.5q0 -191 -76 -342t-211 -234.5t-305 -83.5q-267 0 -429.5 181.5t-162.5 478.5q0 191 76 342t211 234.5t305 83.5zM284 640q0 -205 92 -340l600 780q-108 84 -256 84q-198 0 -317 -143.5t-119 -380.5zM720 120q198 0 317 141.5
t119 378.5q0 202 -88 340l-600 -780q105 -80 252 -80z" />
    <glyph glyph-name="zero.tf" 
d="M720 -20q-176 0 -310.5 97t-208 274t-73.5 409t73.5 409t208 274t310.5 97t310.5 -97t208 -274t73.5 -409t-73.5 -409t-208 -274t-310.5 -97zM720 124q193 0 310.5 173t117.5 463t-117.5 463t-310.5 173t-310.5 -173t-117.5 -463t117.5 -463t310.5 -173z" />
    <glyph glyph-name="one.tf" 
d="M848 136h464v-136h-1088v136h464v1004h-408v128h132q81 0 134.5 8t90.5 24t58 47.5t32 70.5t17 102h104v-1384z" />
    <glyph glyph-name="two.tf" 
d="M444 152h792v-152h-1040v104l516 484q161 149 238.5 272t77.5 236q0 135 -85 219.5t-223 84.5q-159 0 -256.5 -97t-115.5 -271l-152 36q24 219 166.5 345.5t361.5 126.5q207 0 337.5 -122t130.5 -314q0 -138 -93 -282t-299 -338z" />
    <glyph glyph-name="three.tf" 
d="M792 928q130 0 231 -61.5t153 -162.5t52 -224q0 -100 -37 -190t-105 -159t-172.5 -110t-229.5 -41q-184 0 -328 81t-212 227l136 76q107 -244 396 -244q179 0 283.5 99t104.5 265q0 147 -86 233.5t-218 86.5q-106 0 -196 -48l-84 92l492 524h-760v148h976v-116l-460 -480
q20 4 64 4z" />
    <glyph glyph-name="four.tf" 
d="M1324 536v-136h-264v-400h-160v400h-756v120l732 1000h184v-984h264zM316 536h584v796z" />
    <glyph glyph-name="five.tf" 
d="M712 1016q226 0 373 -144t147 -368q0 -229 -157.5 -376.5t-402.5 -147.5q-175 0 -307.5 77t-196.5 211l116 84q50 -102 154 -165t238 -63q177 0 284.5 104.5t107.5 275.5q0 168 -99.5 270t-264.5 102q-112 0 -198.5 -47t-137.5 -137l-128 32l68 796h808v-148h-676
l-44 -476q126 120 316 120z" />
    <glyph glyph-name="six.tf" 
d="M800 964q142 0 256.5 -59.5t181 -170.5t66.5 -254q0 -141 -71 -256t-191.5 -179.5t-265.5 -64.5q-139 0 -249.5 59t-181.5 163.5t-108 244.5t-37 305q0 167 39.5 309t114 249.5t191.5 168.5t263 61q138 0 259 -54.5t197 -157.5l-112 -104q-123 176 -344 176
q-115 0 -205.5 -50.5t-147 -139t-85 -203t-26.5 -247.5q0 -7 -1 -19t-1 -23t2 -22q63 126 183 197t273 71zM776 120q158 0 265 99t107 253q0 158 -104 257t-264 99t-266 -98.5t-106 -253.5q0 -153 104.5 -254.5t263.5 -101.5z" />
    <glyph glyph-name="seven.tf" 
d="M172 1520h1152v-112q-286 -246 -453 -619.5t-167 -788.5h-180q0 256 85 524.5t219.5 483.5t295.5 360h-952v152z" />
    <glyph glyph-name="eight.tf" 
d="M968 768q136 -45 212 -141.5t76 -230.5q0 -186 -148 -301t-388 -115t-388 115t-148 301q0 134 76 230.5t212 141.5q-115 48 -177.5 138.5t-62.5 209.5q0 192 133 308t355 116t355 -116t133 -308q0 -119 -62.5 -209.5t-177.5 -138.5zM392 1112q0 -132 89 -210t239 -78
t237 78t87 210q0 135 -87.5 215.5t-236.5 80.5q-150 0 -239 -80.5t-89 -215.5zM720 112q171 0 273.5 80t102.5 212q0 134 -102 213t-274 79t-274 -79t-102 -213q0 -132 102.5 -212t273.5 -80z" />
    <glyph glyph-name="nine.tf" 
d="M664 1540q139 0 249.5 -59t181.5 -163.5t108 -244.5t37 -305q0 -167 -39.5 -309t-114 -249.5t-191.5 -168.5t-263 -61q-138 0 -259 54.5t-197 157.5l112 104q123 -176 344 -176q115 0 205.5 50.5t147 139t85 203t26.5 247.5q0 7 1 19t1 23t-2 22q-63 -126 -183 -197
t-273 -71q-142 0 -256.5 59.5t-181 170.5t-66.5 254q0 141 71 256t191.5 179.5t265.5 64.5zM660 692q160 0 266 98.5t106 253.5q0 153 -104.5 254.5t-263.5 101.5q-158 0 -265 -99t-107 -253q0 -158 104 -257t264 -99z" />
    <glyph glyph-name="zero.tf.zero" 
d="M720 1540q176 0 310.5 -97t208 -274t73.5 -409t-73.5 -409t-208 -274t-310.5 -97t-310.5 97t-208 274t-73.5 409t73.5 409t208 274t310.5 97zM720 1400q-201 0 -318.5 -171.5t-117.5 -468.5q0 -253 88 -416l616 944q-106 112 -268 112zM720 120q201 0 318.5 171.5
t117.5 468.5q0 253 -88 416l-616 -944q106 -112 268 -112z" />
    <glyph glyph-name="zero.tosf" 
d="M720 -20q-267 0 -429.5 181.5t-162.5 478.5q0 191 76 342t211 234.5t305 83.5q267 0 429.5 -181.5t162.5 -478.5q0 -191 -76 -342t-211 -234.5t-305 -83.5zM720 124q192 0 310 141.5t118 374.5t-118 374.5t-310 141.5t-310 -141.5t-118 -374.5t118 -374.5t310 -141.5z
" />
    <glyph glyph-name="one.tosf" 
d="M848 136h464v-136h-1088v136h464v764h-408v128h132q81 0 134.5 8t90.5 24t58 47.5t32 70.5t17 102h104v-1144z" />
    <glyph glyph-name="two.tosf" 
d="M424 152h816v-152h-1108v104l496 360q195 138 267.5 229t72.5 199q0 121 -84 194.5t-224 73.5q-154 0 -252 -84.5t-128 -239.5l-148 24q35 201 183 320.5t349 119.5q202 0 329 -110.5t127 -289.5q0 -137 -84 -249t-324 -287z" />
    <glyph glyph-name="three.tosf" 
d="M792 688q130 0 231 -61.5t153 -162.5t52 -224q0 -100 -37 -190t-105 -159t-172.5 -110t-229.5 -41q-184 0 -328 81t-212 227l136 76q107 -244 396 -244q179 0 283.5 99t104.5 265q0 147 -86 233.5t-218 86.5q-106 0 -196 -48l-84 92l492 524h-760v148h976v-116l-460 -480
q20 4 64 4z" />
    <glyph glyph-name="four.tosf" 
d="M1324 296v-136h-264v-400h-160v400h-756v120l732 1000h184v-984h264zM316 296h584v796z" />
    <glyph glyph-name="five.tosf" 
d="M712 776q226 0 373 -144t147 -368q0 -229 -157.5 -376.5t-402.5 -147.5q-175 0 -307.5 77t-196.5 211l116 84q50 -102 154 -165t238 -63q177 0 284.5 104.5t107.5 275.5q0 168 -99.5 270t-264.5 102q-112 0 -198.5 -47t-137.5 -137l-128 32l68 796h808v-148h-676
l-44 -476q126 120 316 120z" />
    <glyph glyph-name="six.tosf" 
d="M800 964q142 0 256.5 -59.5t181 -170.5t66.5 -254q0 -141 -71 -256t-191.5 -179.5t-265.5 -64.5q-139 0 -249.5 59t-181.5 163.5t-108 244.5t-37 305q0 167 39.5 309t114 249.5t191.5 168.5t263 61q138 0 259 -54.5t197 -157.5l-112 -104q-123 176 -344 176
q-115 0 -205.5 -50.5t-147 -139t-85 -203t-26.5 -247.5q0 -7 -1 -19t-1 -23t2 -22q63 126 183 197t273 71zM776 120q158 0 265 99t107 253q0 158 -104 257t-264 99t-266 -98.5t-106 -253.5q0 -153 104.5 -254.5t263.5 -101.5z" />
    <glyph glyph-name="seven.tosf" 
d="M172 1280h1152v-112q-286 -246 -453 -619.5t-167 -788.5h-180q0 256 85 524.5t219.5 483.5t295.5 360h-952v152z" />
    <glyph glyph-name="eight.tosf" 
d="M968 768q136 -45 212 -141.5t76 -230.5q0 -186 -148 -301t-388 -115t-388 115t-148 301q0 134 76 230.5t212 141.5q-115 48 -177.5 138.5t-62.5 209.5q0 192 133 308t355 116t355 -116t133 -308q0 -119 -62.5 -209.5t-177.5 -138.5zM392 1112q0 -132 89 -210t239 -78
t237 78t87 210q0 135 -87.5 215.5t-236.5 80.5q-150 0 -239 -80.5t-89 -215.5zM720 112q171 0 273.5 80t102.5 212q0 134 -102 213t-274 79t-274 -79t-102 -213q0 -132 102.5 -212t273.5 -80z" />
    <glyph glyph-name="nine.tosf" 
d="M664 1300q139 0 249.5 -59t181.5 -163.5t108 -244.5t37 -305q0 -167 -39.5 -309t-114 -249.5t-191.5 -168.5t-263 -61q-138 0 -259 54.5t-197 157.5l112 104q123 -176 344 -176q115 0 205.5 50.5t147 139t85 203t26.5 247.5q0 7 1 19t1 23t-2 22q-63 -126 -183 -197
t-273 -71q-142 0 -256.5 59.5t-181 170.5t-66.5 254q0 141 71 256t191.5 179.5t265.5 64.5zM660 452q160 0 266 98.5t106 253.5q0 153 -104.5 254.5t-263.5 101.5q-158 0 -265 -99t-107 -253q0 -158 104 -257t264 -99z" />
    <glyph glyph-name="zero.tosf.zero" 
d="M720 1300q267 0 429.5 -181.5t162.5 -478.5q0 -191 -76 -342t-211 -234.5t-305 -83.5q-267 0 -429.5 181.5t-162.5 478.5q0 191 76 342t211 234.5t305 83.5zM284 640q0 -205 92 -340l600 780q-108 84 -256 84q-198 0 -317 -143.5t-119 -380.5zM720 120q198 0 317 141.5
t119 378.5q0 202 -88 340l-600 -780q105 -80 252 -80z" />
    <glyph glyph-name="zero.dnom" horiz-adv-x="936" 
d="M468 -12q-176 0 -284 127.5t-108 332.5t108 332.5t284 127.5t284 -127.5t108 -332.5t-108 -332.5t-284 -127.5zM468 116q111 0 179.5 91t68.5 241t-68.5 241t-179.5 91t-179.5 -91t-68.5 -241t68.5 -241t179.5 -91z" />
    <glyph glyph-name="one.dnom" horiz-adv-x="760" 
d="M508 896v-896h-140v628h-240v116h48q130 0 176.5 31.5t55.5 120.5h100z" />
    <glyph glyph-name="two.dnom" horiz-adv-x="936" 
d="M352 132h468v-132h-700v92l336 272q97 82 144.5 146.5t47.5 125.5q0 66 -50 105t-134 39q-93 0 -148 -49t-64 -139l-132 20q12 138 106.5 217t245.5 79q144 0 232 -71t88 -185q0 -88 -62 -174t-206 -202z" />
    <glyph glyph-name="three.dnom" horiz-adv-x="936" 
d="M524 552q125 0 202.5 -72.5t77.5 -187.5q0 -131 -102.5 -217.5t-253.5 -86.5q-120 0 -217.5 52.5t-142.5 139.5l112 76q33 -68 98.5 -104t153.5 -36q98 0 157 46.5t59 121.5q0 77 -52.5 122.5t-135.5 45.5q-59 0 -108 -28l-68 76l272 264h-444v132h648v-96l-268 -248h12z
" />
    <glyph glyph-name="four.dnom" horiz-adv-x="936" 
d="M868 340v-128h-164v-212h-136v212h-484v116l456 568h164v-556h164zM240 340h328v416z" />
    <glyph glyph-name="five.dnom" horiz-adv-x="936" 
d="M476 608q144 0 236 -84t92 -216q0 -140 -104 -230t-264 -90q-112 0 -200.5 46t-131.5 122l100 80q34 -55 95.5 -87.5t140.5 -32.5q100 0 162 51t62 137t-58.5 135t-153.5 49q-64 0 -117 -24t-79 -68l-108 32l44 468h544v-128h-436l-20 -216q81 56 196 56z" />
    <glyph glyph-name="six.dnom" horiz-adv-x="936" 
d="M524 584q146 0 239 -83.5t93 -212.5q0 -134 -98 -217t-250 -83q-181 0 -284.5 127.5t-103.5 328.5q0 93 25.5 175.5t74.5 147.5t128.5 103t179.5 38q93 0 171.5 -31.5t128.5 -92.5l-104 -96q-33 42 -87 65t-117 23q-133 0 -204.5 -94t-71.5 -230v-4q93 136 280 136z
M508 112q91 0 151.5 47.5t60.5 124.5q0 78 -58 127t-154 49q-99 0 -161.5 -46.5t-62.5 -121.5q0 -78 62.5 -129t161.5 -51z" />
    <glyph glyph-name="seven.dnom" horiz-adv-x="816" 
d="M28 896h752v-96q-175 -139 -275.5 -350.5t-100.5 -449.5h-152q0 210 95.5 417t244.5 343h-564v136z" />
    <glyph glyph-name="eight.dnom" horiz-adv-x="936" 
d="M644 456q86 -31 133 -87t47 -133q0 -111 -97.5 -179.5t-258.5 -68.5t-258.5 68.5t-97.5 179.5q0 77 47 133t133 87q-73 27 -112.5 80t-39.5 124q0 112 89.5 180t238.5 68t238.5 -68t89.5 -180q0 -71 -39.5 -124t-112.5 -80zM468 800q-91 0 -143.5 -40.5t-52.5 -111.5
q0 -61 53.5 -98.5t142.5 -37.5t142.5 37.5t53.5 98.5q0 71 -52.5 111.5t-143.5 40.5zM468 100q100 0 162 39.5t62 104.5q0 68 -61.5 106t-162.5 38t-162.5 -38t-61.5 -106q0 -65 62 -104.5t162 -39.5z" />
    <glyph glyph-name="nine.dnom" horiz-adv-x="936" 
d="M428 908q181 0 284.5 -127.5t103.5 -328.5q0 -93 -25.5 -175.5t-74.5 -147.5t-128.5 -103t-179.5 -38q-93 0 -171.5 31.5t-128.5 92.5l104 96q33 -42 87 -65t117 -23q133 0 204.5 94t71.5 230v4q-93 -136 -280 -136q-146 0 -239 83.5t-93 212.5q0 134 98 217t250 83z
M428 436q99 0 161.5 46.5t62.5 121.5q0 78 -62.5 129t-161.5 51q-91 0 -151.5 -47.5t-60.5 -124.5q0 -78 58 -127t154 -49z" />
    <glyph glyph-name="zero.numr" horiz-adv-x="936" 
d="M468 612q-176 0 -284 127.5t-108 332.5t108 332.5t284 127.5t284 -127.5t108 -332.5t-108 -332.5t-284 -127.5zM468 740q111 0 179.5 91t68.5 241t-68.5 241t-179.5 91t-179.5 -91t-68.5 -241t68.5 -241t179.5 -91z" />
    <glyph glyph-name="one.numr" horiz-adv-x="760" 
d="M508 1520v-896h-140v628h-240v116h48q130 0 176.5 31.5t55.5 120.5h100z" />
    <glyph glyph-name="two.numr" horiz-adv-x="936" 
d="M352 756h468v-132h-700v92l336 272q97 82 144.5 146.5t47.5 125.5q0 66 -50 105t-134 39q-93 0 -148 -49t-64 -139l-132 20q12 138 106.5 217t245.5 79q144 0 232 -71t88 -185q0 -88 -62 -174t-206 -202z" />
    <glyph glyph-name="three.numr" horiz-adv-x="936" 
d="M524 1176q125 0 202.5 -72.5t77.5 -187.5q0 -131 -102.5 -217.5t-253.5 -86.5q-120 0 -217.5 52.5t-142.5 139.5l112 76q33 -68 98.5 -104t153.5 -36q98 0 157 46.5t59 121.5q0 77 -52.5 122.5t-135.5 45.5q-59 0 -108 -28l-68 76l272 264h-444v132h648v-96l-268 -248h12
z" />
    <glyph glyph-name="four.numr" horiz-adv-x="936" 
d="M868 964v-128h-164v-212h-136v212h-484v116l456 568h164v-556h164zM240 964h328v416z" />
    </font>
</defs>
</svg>
