<svg width="74" height="32" viewBox="0 0 74 32" fill="none" xmlns="http://www.w3.org/2000/svg">
<rect width="74" height="32" rx="2" fill="#FF6B00"/>
<g clip-path="url(#clip0)">
<path d="M17.0998 13.9667C15.9128 12.6557 15.2074 11.5016 14.8246 10.7643C14.41 9.9657 14.2741 9.47048 14.2731 9.46654L14.1497 9L13.709 9.19658C13.6575 9.21955 12.4397 9.77487 11.7574 11.1395C11.4149 11.8245 11.3464 12.5872 11.3493 13.1064C11.351 13.4085 11.1369 13.6709 10.8403 13.7302C10.6324 13.7717 10.4185 13.7071 10.2684 13.557L9.44742 12.736L9.16501 13.1255C9.1357 13.1659 8.44553 14.1177 8.31989 14.3079C7.70633 15.2367 7.3864 16.3186 7.39469 17.4367C7.4058 18.9301 7.99306 20.3291 9.04829 21.3763C10.1035 22.4234 11.507 23 13.0004 23C16.0915 23 18.6063 20.4852 18.6063 17.3941C18.6063 16.2734 18.0572 15.0242 17.0998 13.9667ZM13.0005 22.179C11.7251 22.179 10.527 21.6869 9.62665 20.7935C8.7263 19.9 8.22525 18.7057 8.21575 17.4306C8.20864 16.4761 8.48155 15.5528 9.00496 14.7605C9.06887 14.6638 9.32522 14.3061 9.54775 13.9975L9.68785 14.1376C10.0325 14.4822 10.5234 14.6309 11.0014 14.5353C11.6825 14.3991 12.1742 13.7963 12.1704 13.1019C12.168 12.6722 12.2218 12.0467 12.4918 11.5066C12.8205 10.8494 13.3117 10.4198 13.6531 10.181C13.9619 10.9663 14.7446 12.5888 16.4912 14.5178C16.8802 14.9476 17.7852 16.0881 17.7852 17.3942C17.7852 20.0325 15.6388 22.179 13.0005 22.179Z" fill="black"/>
<path d="M13.8325 15.9648L11.2583 19.7346H12.1684L14.7426 15.9648H13.8325Z" fill="black"/>
<path d="M14.3816 17.6895C13.8107 17.6895 13.3799 18.0718 13.3799 18.7396C13.3799 19.4128 13.8107 19.7897 14.3816 19.7897C14.9524 19.7897 15.3833 19.4128 15.3833 18.7396C15.3833 18.0718 14.9524 17.6895 14.3816 17.6895ZM14.3816 19.2081C14.2631 19.2081 14.1446 19.1004 14.1446 18.7396C14.1446 18.3788 14.2631 18.271 14.3816 18.271C14.5001 18.271 14.6185 18.3788 14.6185 18.7396C14.6185 19.1004 14.5001 19.2081 14.3816 19.2081Z" fill="black"/>
<path d="M12.6206 16.9622C12.6206 16.2945 12.1897 15.9121 11.6189 15.9121C11.048 15.9121 10.6172 16.2945 10.6172 16.9622C10.6172 17.6354 11.048 18.0124 11.6189 18.0124C12.1897 18.0124 12.6206 17.6354 12.6206 16.9622ZM11.3819 16.9622C11.3819 16.6014 11.5004 16.4937 11.6189 16.4937C11.7374 16.4937 11.8558 16.6014 11.8558 16.9622C11.8558 17.3231 11.7374 17.4308 11.6189 17.4308C11.5004 17.4308 11.3819 17.3231 11.3819 16.9622Z" fill="black"/>
</g>
<path d="M28.834 11.742H27.55V15H26.38V11.742H25.09V10.8H28.834V11.742ZM30.5895 15.054C30.2415 15.054 29.9275 14.982 29.6475 14.838C29.3675 14.694 29.1475 14.494 28.9875 14.238C28.8315 13.982 28.7535 13.692 28.7535 13.368C28.7535 13.048 28.8315 12.76 28.9875 12.504C29.1475 12.248 29.3655 12.05 29.6415 11.91C29.9215 11.766 30.2375 11.694 30.5895 11.694C30.9415 11.694 31.2575 11.766 31.5375 11.91C31.8175 12.05 32.0355 12.248 32.1915 12.504C32.3475 12.756 32.4255 13.044 32.4255 13.368C32.4255 13.692 32.3475 13.982 32.1915 14.238C32.0355 14.494 31.8175 14.694 31.5375 14.838C31.2575 14.982 30.9415 15.054 30.5895 15.054ZM30.5895 14.148C30.7895 14.148 30.9535 14.08 31.0815 13.944C31.2095 13.804 31.2735 13.612 31.2735 13.368C31.2735 13.128 31.2095 12.94 31.0815 12.804C30.9535 12.668 30.7895 12.6 30.5895 12.6C30.3895 12.6 30.2255 12.668 30.0975 12.804C29.9695 12.94 29.9055 13.128 29.9055 13.368C29.9055 13.612 29.9695 13.804 30.0975 13.944C30.2255 14.08 30.3895 14.148 30.5895 14.148ZM35.5822 13.296C35.9542 13.42 36.1402 13.676 36.1402 14.064C36.1402 14.356 36.0262 14.586 35.7982 14.754C35.5702 14.918 35.2342 15 34.7902 15H32.9602V11.748H34.7062C35.1302 11.748 35.4582 11.822 35.6902 11.97C35.9262 12.118 36.0442 12.326 36.0442 12.594C36.0442 12.75 36.0042 12.888 35.9242 13.008C35.8442 13.128 35.7302 13.224 35.5822 13.296ZM33.9802 13.056H34.6042C34.8682 13.056 35.0002 12.958 35.0002 12.762C35.0002 12.574 34.8682 12.48 34.6042 12.48H33.9802V13.056ZM34.6882 14.262C34.9642 14.262 35.1022 14.162 35.1022 13.962C35.1022 13.762 34.9682 13.662 34.7002 13.662H33.9802V14.262H34.6882ZM38.042 11.694C38.582 11.694 38.994 11.818 39.278 12.066C39.562 12.31 39.704 12.686 39.704 13.194V15H38.642V14.58C38.478 14.896 38.158 15.054 37.682 15.054C37.43 15.054 37.212 15.01 37.028 14.922C36.844 14.834 36.704 14.716 36.608 14.568C36.516 14.416 36.47 14.244 36.47 14.052C36.47 13.744 36.588 13.506 36.824 13.338C37.06 13.166 37.424 13.08 37.916 13.08H38.564C38.544 12.736 38.314 12.564 37.874 12.564C37.718 12.564 37.56 12.59 37.4 12.642C37.24 12.69 37.104 12.758 36.992 12.846L36.608 12.072C36.788 11.952 37.006 11.86 37.262 11.796C37.522 11.728 37.782 11.694 38.042 11.694ZM38 14.334C38.132 14.334 38.248 14.302 38.348 14.238C38.448 14.174 38.52 14.08 38.564 13.956V13.674H38.072C37.74 13.674 37.574 13.784 37.574 14.004C37.574 14.104 37.612 14.184 37.688 14.244C37.764 14.304 37.868 14.334 38 14.334ZM42.4359 11.694C42.7319 11.694 42.9999 11.764 43.2399 11.904C43.4839 12.04 43.6759 12.236 43.8159 12.492C43.9599 12.744 44.0319 13.038 44.0319 13.374C44.0319 13.71 43.9599 14.006 43.8159 14.262C43.6759 14.514 43.4839 14.71 43.2399 14.85C42.9999 14.986 42.7319 15.054 42.4359 15.054C42.0559 15.054 41.7539 14.94 41.5299 14.712V16.164H40.3899V11.748H41.4759V12.072C41.6879 11.82 42.0079 11.694 42.4359 11.694ZM42.1959 14.148C42.3959 14.148 42.5599 14.08 42.6879 13.944C42.8159 13.804 42.8799 13.614 42.8799 13.374C42.8799 13.134 42.8159 12.946 42.6879 12.81C42.5599 12.67 42.3959 12.6 42.1959 12.6C41.9959 12.6 41.8319 12.67 41.7039 12.81C41.5759 12.946 41.5119 13.134 41.5119 13.374C41.5119 13.614 41.5759 13.804 41.7039 13.944C41.8319 14.08 41.9959 14.148 42.1959 14.148ZM48.9474 13.296C49.3194 13.42 49.5054 13.676 49.5054 14.064C49.5054 14.356 49.3914 14.586 49.1634 14.754C48.9354 14.918 48.5994 15 48.1554 15H46.3254V11.748H48.0714C48.4954 11.748 48.8234 11.822 49.0554 11.97C49.2914 12.118 49.4094 12.326 49.4094 12.594C49.4094 12.75 49.3694 12.888 49.2894 13.008C49.2094 13.128 49.0954 13.224 48.9474 13.296ZM47.3454 13.056H47.9694C48.2334 13.056 48.3654 12.958 48.3654 12.762C48.3654 12.574 48.2334 12.48 47.9694 12.48H47.3454V13.056ZM48.0534 14.262C48.3294 14.262 48.4674 14.162 48.4674 13.962C48.4674 13.762 48.3334 13.662 48.0654 13.662H47.3454V14.262H48.0534ZM27.43 18.694C27.726 18.694 27.994 18.764 28.234 18.904C28.478 19.04 28.67 19.236 28.81 19.492C28.954 19.744 29.026 20.038 29.026 20.374C29.026 20.71 28.954 21.006 28.81 21.262C28.67 21.514 28.478 21.71 28.234 21.85C27.994 21.986 27.726 22.054 27.43 22.054C27.05 22.054 26.748 21.94 26.524 21.712V23.164H25.384V18.748H26.47V19.072C26.682 18.82 27.002 18.694 27.43 18.694ZM27.19 21.148C27.39 21.148 27.554 21.08 27.682 20.944C27.81 20.804 27.874 20.614 27.874 20.374C27.874 20.134 27.81 19.946 27.682 19.81C27.554 19.67 27.39 19.6 27.19 19.6C26.99 19.6 26.826 19.67 26.698 19.81C26.57 19.946 26.506 20.134 26.506 20.374C26.506 20.614 26.57 20.804 26.698 20.944C26.826 21.08 26.99 21.148 27.19 21.148ZM30.8291 18.694C31.3691 18.694 31.7811 18.818 32.0651 19.066C32.3491 19.31 32.4911 19.686 32.4911 20.194V22H31.4291V21.58C31.2651 21.896 30.9451 22.054 30.4691 22.054C30.2171 22.054 29.9991 22.01 29.8151 21.922C29.6311 21.834 29.4911 21.716 29.3951 21.568C29.3031 21.416 29.2571 21.244 29.2571 21.052C29.2571 20.744 29.3751 20.506 29.6111 20.338C29.8471 20.166 30.2111 20.08 30.7031 20.08H31.3511C31.3311 19.736 31.1011 19.564 30.6611 19.564C30.5051 19.564 30.3471 19.59 30.1871 19.642C30.0271 19.69 29.8911 19.758 29.7791 19.846L29.3951 19.072C29.5751 18.952 29.7931 18.86 30.0491 18.796C30.3091 18.728 30.5691 18.694 30.8291 18.694ZM30.7871 21.334C30.9191 21.334 31.0351 21.302 31.1351 21.238C31.2351 21.174 31.3071 21.08 31.3511 20.956V20.674H30.8591C30.5271 20.674 30.3611 20.784 30.3611 21.004C30.3611 21.104 30.3991 21.184 30.4751 21.244C30.5511 21.304 30.6551 21.334 30.7871 21.334ZM34.809 22.054C34.449 22.054 34.127 21.982 33.843 21.838C33.559 21.694 33.337 21.494 33.177 21.238C33.021 20.982 32.943 20.692 32.943 20.368C32.943 20.044 33.021 19.756 33.177 19.504C33.337 19.248 33.559 19.05 33.843 18.91C34.127 18.766 34.449 18.694 34.809 18.694C35.177 18.694 35.495 18.774 35.763 18.934C36.031 19.09 36.221 19.308 36.333 19.588L35.451 20.038C35.303 19.746 35.087 19.6 34.803 19.6C34.599 19.6 34.429 19.668 34.293 19.804C34.161 19.94 34.095 20.128 34.095 20.368C34.095 20.612 34.161 20.804 34.293 20.944C34.429 21.08 34.599 21.148 34.803 21.148C35.087 21.148 35.303 21.002 35.451 20.71L36.333 21.16C36.221 21.44 36.031 21.66 35.763 21.82C35.495 21.976 35.177 22.054 34.809 22.054ZM40.1698 18.748V22H39.0358V19.654H37.9438V22H36.8098V18.748H40.1698ZM42.9925 18.694C43.2885 18.694 43.5565 18.764 43.7965 18.904C44.0405 19.04 44.2325 19.236 44.3725 19.492C44.5165 19.744 44.5885 20.038 44.5885 20.374C44.5885 20.71 44.5165 21.006 44.3725 21.262C44.2325 21.514 44.0405 21.71 43.7965 21.85C43.5565 21.986 43.2885 22.054 42.9925 22.054C42.6125 22.054 42.3105 21.94 42.0865 21.712V23.164H40.9465V18.748H42.0325V19.072C42.2445 18.82 42.5645 18.694 42.9925 18.694ZM42.7525 21.148C42.9525 21.148 43.1165 21.08 43.2445 20.944C43.3725 20.804 43.4365 20.614 43.4365 20.374C43.4365 20.134 43.3725 19.946 43.2445 19.81C43.1165 19.67 42.9525 19.6 42.7525 19.6C42.5525 19.6 42.3885 19.67 42.2605 19.81C42.1325 19.946 42.0685 20.134 42.0685 20.374C42.0685 20.614 42.1325 20.804 42.2605 20.944C42.3885 21.08 42.5525 21.148 42.7525 21.148ZM46.738 22.054C46.39 22.054 46.076 21.982 45.796 21.838C45.516 21.694 45.296 21.494 45.136 21.238C44.98 20.982 44.902 20.692 44.902 20.368C44.902 20.048 44.98 19.76 45.136 19.504C45.296 19.248 45.514 19.05 45.79 18.91C46.07 18.766 46.386 18.694 46.738 18.694C47.09 18.694 47.406 18.766 47.686 18.91C47.966 19.05 48.184 19.248 48.34 19.504C48.496 19.756 48.574 20.044 48.574 20.368C48.574 20.692 48.496 20.982 48.34 21.238C48.184 21.494 47.966 21.694 47.686 21.838C47.406 21.982 47.09 22.054 46.738 22.054ZM46.738 21.148C46.938 21.148 47.102 21.08 47.23 20.944C47.358 20.804 47.422 20.612 47.422 20.368C47.422 20.128 47.358 19.94 47.23 19.804C47.102 19.668 46.938 19.6 46.738 19.6C46.538 19.6 46.374 19.668 46.246 19.804C46.118 19.94 46.054 20.128 46.054 20.368C46.054 20.612 46.118 20.804 46.246 20.944C46.374 21.08 46.538 21.148 46.738 21.148ZM52.896 21.088V22.672H51.84V22H49.794V22.672H48.732V21.088H48.852C49.048 21.084 49.184 20.978 49.26 20.77C49.336 20.558 49.382 20.262 49.398 19.882L49.44 18.748H52.446V21.088H52.896ZM50.424 19.966C50.412 20.258 50.39 20.492 50.358 20.668C50.326 20.844 50.266 20.984 50.178 21.088H51.306V19.654H50.436L50.424 19.966ZM54.712 18.694C55.252 18.694 55.664 18.818 55.948 19.066C56.232 19.31 56.374 19.686 56.374 20.194V22H55.312V21.58C55.148 21.896 54.828 22.054 54.352 22.054C54.1 22.054 53.882 22.01 53.698 21.922C53.514 21.834 53.374 21.716 53.278 21.568C53.186 21.416 53.14 21.244 53.14 21.052C53.14 20.744 53.258 20.506 53.494 20.338C53.73 20.166 54.094 20.08 54.586 20.08H55.234C55.214 19.736 54.984 19.564 54.544 19.564C54.388 19.564 54.23 19.59 54.07 19.642C53.91 19.69 53.774 19.758 53.662 19.846L53.278 19.072C53.458 18.952 53.676 18.86 53.932 18.796C54.192 18.728 54.452 18.694 54.712 18.694ZM54.67 21.334C54.802 21.334 54.918 21.302 55.018 21.238C55.118 21.174 55.19 21.08 55.234 20.956V20.674H54.742C54.41 20.674 54.244 20.784 54.244 21.004C54.244 21.104 54.282 21.184 54.358 21.244C54.434 21.304 54.538 21.334 54.67 21.334ZM60.4258 20.842H60.0898V22H58.9678V20.842H58.6258L58.0378 22H56.6878L57.6658 20.32L56.7598 18.748H57.9658L58.6018 19.948H58.9678V18.748H60.0898V19.948H60.4438L61.0858 18.748H62.2918L61.3798 20.32L62.3638 22H61.0138L60.4258 20.842ZM65.9612 20.38C65.9612 20.388 65.9552 20.482 65.9432 20.662H63.5792C63.6272 20.83 63.7192 20.96 63.8552 21.052C63.9952 21.14 64.1692 21.184 64.3772 21.184C64.5332 21.184 64.6672 21.162 64.7792 21.118C64.8952 21.074 65.0112 21.002 65.1272 20.902L65.7272 21.526C65.4112 21.878 64.9492 22.054 64.3412 22.054C63.9612 22.054 63.6272 21.982 63.3392 21.838C63.0512 21.694 62.8272 21.494 62.6672 21.238C62.5112 20.982 62.4332 20.692 62.4332 20.368C62.4332 20.048 62.5092 19.762 62.6612 19.51C62.8172 19.254 63.0312 19.054 63.3032 18.91C63.5752 18.766 63.8812 18.694 64.2212 18.694C64.5452 18.694 64.8392 18.762 65.1032 18.898C65.3672 19.03 65.5752 19.224 65.7272 19.48C65.8832 19.732 65.9612 20.032 65.9612 20.38ZM64.2272 19.504C64.0512 19.504 63.9032 19.554 63.7832 19.654C63.6672 19.754 63.5932 19.89 63.5612 20.062H64.8932C64.8612 19.89 64.7852 19.754 64.6652 19.654C64.5492 19.554 64.4032 19.504 64.2272 19.504ZM66.4077 17.8H67.7637L67.5357 20.47H66.6297L66.4077 17.8ZM67.0857 22.054C66.8857 22.054 66.7217 21.994 66.5937 21.874C66.4657 21.75 66.4017 21.6 66.4017 21.424C66.4017 21.244 66.4657 21.096 66.5937 20.98C66.7217 20.864 66.8857 20.806 67.0857 20.806C67.2857 20.806 67.4477 20.864 67.5717 20.98C67.6997 21.096 67.7637 21.244 67.7637 21.424C67.7637 21.6 67.6997 21.75 67.5717 21.874C67.4437 21.994 67.2817 22.054 67.0857 22.054Z" fill="black"/>
<defs>
<clipPath id="clip0">
<rect width="14" height="14" fill="white" transform="translate(6 9)"/>
</clipPath>
</defs>
</svg>
