<svg width="20" height="20" viewBox="0 0 20 20" fill="none" xmlns="http://www.w3.org/2000/svg">
<g clip-path="url(#clip0_742_502)">
<path d="M19.2089 4.41246L10.1281 0.0286328C10.0476 -0.0101953 9.95383 -0.0101953 9.87336 0.0286328L0.792539 4.41246C0.691289 4.46133 0.626953 4.56387 0.626953 4.67629V15.3227C0.626953 15.4352 0.691289 15.5377 0.792539 15.5866L9.87332 19.9704C9.91355 19.9898 9.95715 19.9995 10.0007 19.9995C10.0443 19.9995 10.0878 19.9898 10.1281 19.9704L19.2089 15.5866C19.3101 15.5377 19.3745 15.4352 19.3745 15.3227V4.67633C19.3745 4.56383 19.3101 4.46137 19.2089 4.41246ZM10.0007 0.617813L18.4076 4.67629L15.9706 5.85277C15.9552 5.84102 15.9389 5.83016 15.921 5.82152L7.57121 1.79066L10.0007 0.617813ZM6.90957 2.12191L15.3043 6.17449L13.5849 7.00453L5.19371 2.95359L6.90957 2.12191ZM15.5007 6.73027V9.79848L13.8947 10.5738V7.50559L15.5007 6.73027ZM18.7885 15.1389L10.2937 19.2398V9.24399L12.32 8.26578C12.4657 8.19543 12.5268 8.02031 12.4564 7.87457C12.3861 7.72891 12.2109 7.66774 12.0652 7.73813L10.0007 8.73481L9.18836 8.34262C9.04262 8.27219 8.8675 8.33336 8.79715 8.47906C8.7268 8.62477 8.78789 8.79992 8.93359 8.87027L9.70773 9.24399V19.2398L1.21289 15.1388V5.14305L7.68164 8.2659C7.72269 8.28574 7.76609 8.29512 7.80879 8.29512C7.91769 8.29512 8.0223 8.2341 8.07281 8.12945C8.14316 7.98375 8.08207 7.80859 7.93637 7.73824L1.59379 4.67629L4.50414 3.27129L13.3047 7.51985C13.306 7.52164 13.3074 7.52324 13.3087 7.525V11.0406C13.3087 11.1414 13.3606 11.2351 13.446 11.2888C13.4934 11.3185 13.5475 11.3336 13.6018 11.3336C13.6452 11.3336 13.6887 11.3239 13.7291 11.3044L15.921 10.2463C16.0223 10.1974 16.0866 10.0949 16.0866 9.98242V6.44746L18.7885 5.14309V15.1389Z" fill="black"/>
<path d="M3.62999 14.0026L2.29737 13.3593C2.15159 13.2889 1.97651 13.3501 1.90616 13.4958C1.83581 13.6415 1.8969 13.8166 2.04261 13.887L3.37522 14.5303C3.41628 14.5501 3.45968 14.5595 3.50237 14.5595C3.61128 14.5595 3.71589 14.4985 3.7664 14.3938C3.83679 14.2481 3.77569 14.073 3.62999 14.0026Z" fill="black"/>
<path d="M4.85653 13.2047L2.2993 11.9701C2.15356 11.8998 1.97844 11.9609 1.90809 12.1066C1.83778 12.2523 1.89887 12.4275 2.04457 12.4978L4.6018 13.7324C4.64286 13.7522 4.68626 13.7616 4.72895 13.7616C4.83786 13.7616 4.94247 13.7006 4.99297 13.5959C5.06333 13.4501 5.00223 13.275 4.85653 13.2047Z" fill="black"/>
</g>
<defs>
<clipPath id="clip0_742_502">
<rect width="20" height="20" fill="white"/>
</clipPath>
</defs>
</svg>
