<svg width="25" height="25" viewBox="0 0 25 25" fill="none" xmlns="http://www.w3.org/2000/svg">
<g clip-path="url(#clip0)">
<path d="M12.5 2.25312C15.8375 2.25312 16.2333 2.26562 17.5521 2.32604C20.9396 2.48021 22.5219 4.0875 22.676 7.45C22.7365 8.76771 22.7479 9.16354 22.7479 12.501C22.7479 15.8396 22.7354 16.2344 22.676 17.5521C22.5208 20.9115 20.9427 22.5219 17.5521 22.676C16.2333 22.7365 15.8396 22.749 12.5 22.749C9.1625 22.749 8.76667 22.7365 7.44896 22.676C4.05312 22.5208 2.47917 20.9062 2.325 17.551C2.26458 16.2333 2.25208 15.8385 2.25208 12.5C2.25208 9.1625 2.26562 8.76771 2.325 7.44896C2.48021 4.0875 4.05833 2.47917 7.44896 2.325C8.76771 2.26562 9.1625 2.25312 12.5 2.25312ZM12.5 0C9.10521 0 8.68021 0.0145833 7.34687 0.075C2.80729 0.283333 0.284375 2.80208 0.0760417 7.34583C0.0145833 8.68021 0 9.10521 0 12.5C0 15.8948 0.0145833 16.3208 0.075 17.6542C0.283333 22.1937 2.80208 24.7167 7.34583 24.925C8.68021 24.9854 9.10521 25 12.5 25C15.8948 25 16.3208 24.9854 17.6542 24.925C22.1896 24.7167 24.7188 22.1979 24.924 17.6542C24.9854 16.3208 25 15.8948 25 12.5C25 9.10521 24.9854 8.68021 24.925 7.34687C24.7208 2.81146 22.199 0.284375 17.6552 0.0760417C16.3208 0.0145833 15.8948 0 12.5 0V0ZM12.5 6.08125C8.95521 6.08125 6.08125 8.95521 6.08125 12.5C6.08125 16.0448 8.95521 18.9198 12.5 18.9198C16.0448 18.9198 18.9188 16.0458 18.9188 12.5C18.9188 8.95521 16.0448 6.08125 12.5 6.08125ZM12.5 16.6667C10.199 16.6667 8.33333 14.8021 8.33333 12.5C8.33333 10.199 10.199 8.33333 12.5 8.33333C14.801 8.33333 16.6667 10.199 16.6667 12.5C16.6667 14.8021 14.801 16.6667 12.5 16.6667ZM19.1729 4.32812C18.3438 4.32812 17.6719 5 17.6719 5.82812C17.6719 6.65625 18.3438 7.32812 19.1729 7.32812C20.001 7.32812 20.6719 6.65625 20.6719 5.82812C20.6719 5 20.001 4.32812 19.1729 4.32812Z" fill="white"/>
</g>
<defs>
<clipPath id="clip0">
<rect width="25" height="25" fill="white"/>
</clipPath>
</defs>
</svg>
