<svg width="21" height="21" viewBox="0 0 21 21" fill="none" xmlns="http://www.w3.org/2000/svg">
<path d="M13.7391 0C9.82542 0 6.64138 3.18404 6.64138 7.09771C6.64138 7.96778 6.79597 8.81327 7.10121 9.61619L0.314598 16.4033C0.217596 16.5003 0.163086 16.6319 0.163086 16.769V20.4828C0.163086 20.7684 0.39466 21 0.680334 21H3.74076C3.87779 21 4.0092 20.9457 4.1062 20.8488L5.13754 19.819C5.23475 19.722 5.28934 19.5903 5.28934 19.453V18.1866H6.55414C6.83981 18.1866 7.07139 17.955 7.07139 17.6693V17.1624H7.57838C7.86401 17.1624 8.09563 16.9308 8.09563 16.6451V15.5321H9.20863C9.34579 15.5321 9.47732 15.4776 9.57437 15.3806L11.22 13.735C12.023 14.0406 12.8686 14.1953 13.739 14.1953C17.6527 14.1953 20.8367 11.0113 20.8367 7.09763C20.8368 3.18404 17.6528 0 13.7391 0ZM13.7391 13.1608C12.8924 13.1608 12.0736 12.9899 11.3053 12.6525C11.1066 12.5653 10.8828 12.6133 10.7363 12.7561C10.7347 12.7576 10.7332 12.7589 10.7316 12.7605L8.99445 14.4976H7.57846C7.29279 14.4976 7.06122 14.7292 7.06122 15.0149V16.1279H6.55422C6.26859 16.1279 6.03697 16.3595 6.03697 16.6451V17.1521H4.77213C4.4865 17.1521 4.25489 17.3837 4.25489 17.6693V19.2385L3.52674 19.9655H1.19766V19.2345L7.51985 12.9124C7.70167 12.7306 7.70167 12.4358 7.51985 12.254C7.33803 12.0723 7.04337 12.0722 6.86143 12.254L1.19766 17.9178V16.9833L8.07582 10.1047C8.07738 10.1031 8.07857 10.1017 8.08 10.1002C8.22282 9.95379 8.27097 9.73005 8.18377 9.53121C7.84679 8.76291 7.676 7.94411 7.676 7.09775C7.676 3.75449 10.3959 1.03454 13.7392 1.03454C17.0825 1.03454 19.8023 3.75445 19.8023 7.09775C19.8023 10.4409 17.0823 13.1608 13.7391 13.1608Z" fill="black"/>
<path d="M15.8989 3C14.8305 3 13.9614 3.86912 13.9614 4.93746C13.9614 6.00579 14.8305 6.87491 15.8989 6.87491C16.9672 6.87491 17.8363 6.00579 17.8363 4.93746C17.8363 3.86912 16.9673 3 15.8989 3ZM15.8989 5.84041C15.401 5.84041 14.9959 5.43534 14.9959 4.93746C14.9959 4.43957 15.401 4.0345 15.8989 4.0345C16.3968 4.0345 16.8018 4.43957 16.8018 4.93746C16.8018 5.43534 16.3968 5.84041 15.8989 5.84041Z" fill="black"/>
</svg>
