<svg width="125" height="29" viewBox="0 0 125 29" fill="none" xmlns="http://www.w3.org/2000/svg">
<path d="M5.472 9.368H0.096V6.2H14.736V9.368H9.36V23H5.472V9.368ZM27.5319 23L24.2919 18.32H24.0999H20.7159V23H16.8279V6.2H24.0999C25.5879 6.2 26.8759 6.448 27.9639 6.944C29.0679 7.44 29.9159 8.144 30.5079 9.056C31.0999 9.968 31.3959 11.048 31.3959 12.296C31.3959 13.544 31.0919 14.624 30.4839 15.536C29.8919 16.432 29.0439 17.12 27.9399 17.6L31.7079 23H27.5319ZM27.4599 12.296C27.4599 11.352 27.1559 10.632 26.5479 10.136C25.9399 9.624 25.0519 9.368 23.8839 9.368H20.7159V15.224H23.8839C25.0519 15.224 25.9399 14.968 26.5479 14.456C27.1559 13.944 27.4599 13.224 27.4599 12.296ZM45.5404 19.4H37.7404L36.2524 23H32.2684L39.7564 6.2H43.5964L51.1084 23H47.0284L45.5404 19.4ZM44.3164 16.448L41.6524 10.016L38.9884 16.448H44.3164ZM52.8514 6.2H56.7394V23H52.8514V6.2ZM76.1344 6.2V23H72.9424L64.5664 12.8V23H60.7264V6.2H63.9424L72.2944 16.4V6.2H76.1344ZM85.6292 23.288C84.3012 23.288 83.0132 23.112 81.7652 22.76C80.5332 22.392 79.5412 21.92 78.7892 21.344L80.1092 18.416C80.8292 18.944 81.6852 19.368 82.6772 19.688C83.6692 20.008 84.6612 20.168 85.6532 20.168C86.7572 20.168 87.5732 20.008 88.1012 19.688C88.6292 19.352 88.8932 18.912 88.8932 18.368C88.8932 17.968 88.7332 17.64 88.4132 17.384C88.1092 17.112 87.7092 16.896 87.2132 16.736C86.7332 16.576 86.0772 16.4 85.2452 16.208C83.9652 15.904 82.9172 15.6 82.1012 15.296C81.2852 14.992 80.5812 14.504 79.9892 13.832C79.4132 13.16 79.1252 12.264 79.1252 11.144C79.1252 10.168 79.3892 9.288 79.9172 8.504C80.4452 7.704 81.2372 7.072 82.2932 6.608C83.3652 6.144 84.6692 5.912 86.2052 5.912C87.2772 5.912 88.3252 6.04 89.3492 6.296C90.3732 6.552 91.2692 6.92 92.0372 7.4L90.8372 10.352C89.2852 9.472 87.7332 9.032 86.1812 9.032C85.0932 9.032 84.2852 9.208 83.7572 9.56C83.2452 9.912 82.9892 10.376 82.9892 10.952C82.9892 11.528 83.2852 11.96 83.8772 12.248C84.4852 12.52 85.4052 12.792 86.6372 13.064C87.9172 13.368 88.9652 13.672 89.7812 13.976C90.5972 14.28 91.2932 14.76 91.8692 15.416C92.4612 16.072 92.7572 16.96 92.7572 18.08C92.7572 19.04 92.4852 19.92 91.9412 20.72C91.4132 21.504 90.6132 22.128 89.5412 22.592C88.4692 23.056 87.1652 23.288 85.6292 23.288ZM100.934 23.288C99.6059 23.288 98.3179 23.112 97.0699 22.76C95.8379 22.392 94.8459 21.92 94.0939 21.344L95.4139 18.416C96.1339 18.944 96.9899 19.368 97.9819 19.688C98.9739 20.008 99.9659 20.168 100.958 20.168C102.062 20.168 102.878 20.008 103.406 19.688C103.934 19.352 104.198 18.912 104.198 18.368C104.198 17.968 104.038 17.64 103.718 17.384C103.414 17.112 103.014 16.896 102.518 16.736C102.038 16.576 101.382 16.4 100.55 16.208C99.2699 15.904 98.2219 15.6 97.4059 15.296C96.5899 14.992 95.8859 14.504 95.2939 13.832C94.7179 13.16 94.4299 12.264 94.4299 11.144C94.4299 10.168 94.6939 9.288 95.2219 8.504C95.7499 7.704 96.5419 7.072 97.5979 6.608C98.6699 6.144 99.9739 5.912 101.51 5.912C102.582 5.912 103.63 6.04 104.654 6.296C105.678 6.552 106.574 6.92 107.342 7.4L106.142 10.352C104.59 9.472 103.038 9.032 101.486 9.032C100.398 9.032 99.5899 9.208 99.0619 9.56C98.5499 9.912 98.2939 10.376 98.2939 10.952C98.2939 11.528 98.5899 11.96 99.1819 12.248C99.7899 12.52 100.71 12.792 101.942 13.064C103.222 13.368 104.27 13.672 105.086 13.976C105.902 14.28 106.598 14.76 107.174 15.416C107.766 16.072 108.062 16.96 108.062 18.08C108.062 19.04 107.79 19.92 107.246 20.72C106.718 21.504 105.918 22.128 104.846 22.592C103.774 23.056 102.47 23.288 100.934 23.288ZM118.431 17.048V23H114.543V17L108.039 6.2H112.167L116.655 13.664L121.143 6.2H124.959L118.431 17.048Z" fill="white"/>
<line x1="79" y1="1.375" x2="92" y2="1.375" stroke="white" stroke-width="1.25"/>
</svg>
