<svg width="25" height="13" viewBox="0 0 25 13" fill="none" xmlns="http://www.w3.org/2000/svg">
<rect width="25" height="13" fill="#ED240A"/>
<path d="M5.31893 9.084C4.9316 9.084 4.55593 9.03267 4.19193 8.93C3.8326 8.82267 3.54326 8.685 3.32393 8.517L3.70893 7.663C3.91893 7.817 4.1686 7.94067 4.45793 8.034C4.74726 8.12733 5.0366 8.174 5.32593 8.174C5.64793 8.174 5.88593 8.12733 6.03993 8.034C6.19393 7.936 6.27093 7.80767 6.27093 7.649C6.27093 7.53233 6.22426 7.43667 6.13093 7.362C6.04226 7.28267 5.9256 7.21967 5.78093 7.173C5.64093 7.12633 5.4496 7.075 5.20693 7.019C4.8336 6.93033 4.52793 6.84167 4.28993 6.753C4.05193 6.66433 3.8466 6.522 3.67393 6.326C3.50593 6.13 3.42193 5.86867 3.42193 5.542C3.42193 5.25733 3.49893 5.00067 3.65293 4.772C3.80693 4.53867 4.03793 4.35433 4.34593 4.219C4.6586 4.08367 5.03893 4.016 5.48693 4.016C5.7996 4.016 6.10526 4.05333 6.40393 4.128C6.7026 4.20267 6.96393 4.31 7.18793 4.45L6.83793 5.311C6.38526 5.05433 5.9326 4.926 5.47993 4.926C5.1626 4.926 4.92693 4.97733 4.77293 5.08C4.6236 5.18267 4.54893 5.318 4.54893 5.486C4.54893 5.654 4.63526 5.78 4.80793 5.864C4.98526 5.94333 5.2536 6.02267 5.61293 6.102C5.98626 6.19067 6.29193 6.27933 6.52993 6.368C6.76793 6.45667 6.97093 6.59667 7.13893 6.788C7.3116 6.97933 7.39793 7.23833 7.39793 7.565C7.39793 7.845 7.3186 8.10167 7.15993 8.335C7.00593 8.56367 6.7726 8.74567 6.45993 8.881C6.14726 9.01633 5.76693 9.084 5.31893 9.084ZM11.3998 7.95H9.1248L8.6908 9H7.5288L9.7128 4.1H10.8328L13.0238 9H11.8338L11.3998 7.95ZM11.0428 7.089L10.2658 5.213L9.4888 7.089H11.0428ZM13.5322 4.1H14.6662V8.076H17.1232V9H13.5322V4.1ZM21.5508 8.09V9H17.7568V4.1H21.4598V5.01H18.8838V6.074H21.1588V6.956H18.8838V8.09H21.5508Z" fill="white"/>
</svg>
