<svg width="53" height="17" viewBox="0 0 53 17" fill="none" xmlns="http://www.w3.org/2000/svg">
<path d="M22.8727 16.7166H18.5675L21.2582 0.293459H25.5639L22.8727 16.7166ZM14.9456 0.293459L10.8412 11.5895L10.3555 9.15699L10.356 9.15787L8.90731 1.77218C8.90731 1.77218 8.73215 0.293459 6.86505 0.293459H0.0796205L0 0.571542C0 0.571542 2.075 1.00031 4.50342 2.44872L8.24381 16.7171H12.7295L19.5791 0.293459H14.9456ZM48.8086 16.7166H52.7618L49.3151 0.29302H45.8543C44.2561 0.29302 43.8669 1.51694 43.8669 1.51694L37.4459 16.7166H41.9339L42.8314 14.2772H48.3044L48.8086 16.7166ZM44.0712 10.9072L46.3333 4.76125L47.6059 10.9072H44.0712ZM37.7825 4.24286L38.3969 0.716075C38.3969 0.716075 36.5011 0 34.5247 0C32.3883 0 27.3147 0.927384 27.3147 5.43691C27.3147 9.67977 33.2694 9.73249 33.2694 11.9611C33.2694 14.1897 27.9282 13.7904 26.1655 12.385L25.5254 16.0726C25.5254 16.0726 27.4478 17 30.3849 17C33.3229 17 37.7551 15.4892 37.7551 11.3773C37.7551 7.10716 31.7469 6.70959 31.7469 4.85306C31.7473 2.9961 35.9402 3.23464 37.7825 4.24286Z" fill="#2566AF"/>
<path d="M10.3559 9.1569L8.90728 1.7714C8.90728 1.7714 8.73211 0.292725 6.86502 0.292725H0.0796202L0 0.570801C0 0.570801 3.26133 1.24205 6.38951 3.75704C9.38057 6.16088 10.3559 9.1569 10.3559 9.1569Z" fill="#E6A540"/>
</svg>
