<svg width="129" height="67" viewBox="0 0 129 67" fill="none" xmlns="http://www.w3.org/2000/svg">
<path fill-rule="evenodd" clip-rule="evenodd" d="M64.5 66.2645C100.122 66.2645 129 51.6296 129 33.5778C129 15.5259 100.122 0.890991 64.5 0.890991C28.8783 0.890991 0 15.5259 0 33.5778C0 51.6296 28.8783 66.2645 64.5 66.2645Z" fill="#6E81B6"/>
<path fill-rule="evenodd" clip-rule="evenodd" d="M77.5664 44.1428L80.7657 27.6766C81.4879 23.9601 80.8874 21.1882 78.982 19.4365C77.1358 17.7416 74.002 16.9172 69.4019 16.9172H63.8611L65.446 8.75899C65.4757 8.60715 65.4714 8.45063 65.4335 8.30064C65.3955 8.15065 65.3248 8.01092 65.2265 7.89148C65.1281 7.77204 65.0046 7.67585 64.8647 7.60981C64.7248 7.54377 64.572 7.50952 64.4172 7.50952H56.7699C56.2676 7.50952 55.8363 7.86595 55.7403 8.35888L52.3421 25.8398C52.0333 23.8728 51.272 22.1819 50.0538 20.7865C47.8106 18.219 44.2627 16.9172 39.5073 16.9172H24.6852C24.1829 16.9172 23.7516 17.2737 23.6557 17.7658L16.7789 53.1504C16.7189 53.4585 16.7992 53.7752 16.9989 54.0169C17.1977 54.2595 17.4941 54.3991 17.8084 54.3991H25.5159C26.0182 54.3991 26.4495 54.0427 26.5454 53.549L28.209 44.9906H33.9463C36.9569 44.9906 39.487 44.6646 41.4619 44.0219C43.4811 43.3652 45.3398 42.2514 46.9776 40.7181C48.3012 39.5021 49.3947 38.1404 50.2363 36.6717L48.8628 43.7411C48.8027 44.0492 48.8831 44.3674 49.0827 44.6077C49.2816 44.8502 49.5788 44.9898 49.8923 44.9898H57.5397C58.042 44.9898 58.4733 44.6334 58.5692 44.1413L62.3434 24.7183H67.5909C69.827 24.7183 70.4821 25.1636 70.6607 25.3547C70.8222 25.5294 71.1575 26.1448 70.7808 28.0845L67.739 43.7404C67.7099 43.8922 67.7146 44.0485 67.7528 44.1983C67.7911 44.3481 67.8618 44.4875 67.9602 44.6068C68.0585 44.7261 68.1819 44.8222 68.3217 44.8882C68.4614 44.9543 68.614 44.9887 68.7686 44.9891H76.5376C76.7807 44.9895 77.0164 44.9053 77.2041 44.7509C77.3919 44.5965 77.52 44.3815 77.5664 44.1428V44.1428ZM42.1116 30.5374C41.6311 33.006 40.7264 34.7663 39.4207 35.7701C38.0948 36.7926 35.9742 37.3105 33.1172 37.3105H29.7011L32.1711 24.5989H36.588C39.8326 24.5989 41.1397 25.2923 41.6647 25.8734C42.3923 26.6798 42.5468 28.2935 42.1116 30.5374V30.5374ZM109.779 20.7865C107.537 18.219 103.989 16.9172 99.2333 16.9172H84.4112C83.9081 16.9172 83.4776 17.2737 83.3816 17.7658L76.5056 53.1504C76.4448 53.4585 76.5251 53.7752 76.7248 54.0169C76.9245 54.2587 77.2216 54.3991 77.5336 54.3991H85.2418C85.7449 54.3991 86.1754 54.0427 86.2713 53.549L87.935 44.9906H93.673C96.6844 44.9906 99.2122 44.6646 101.188 44.0219C103.208 43.3652 105.066 42.2514 106.704 40.7181C108.07 39.4631 109.194 38.0522 110.046 36.529C110.897 35.0057 111.508 33.307 111.865 31.4788C112.74 26.97 112.039 23.3728 109.779 20.7865V20.7865ZM102.275 30.5374C101.794 33.006 100.889 34.7663 99.585 35.7701C98.2583 36.7926 96.1377 37.3105 93.2815 37.3105H89.8646L92.3339 24.5989H96.7515C99.9961 24.5989 101.303 25.2923 101.829 25.8734C102.555 26.6798 102.71 28.2935 102.275 30.5374V30.5374Z" fill="white"/>
<path fill-rule="evenodd" clip-rule="evenodd" d="M36.5879 23.5501C39.5159 23.5501 41.4681 24.0906 42.4438 25.1716C43.4187 26.2526 43.6511 28.1088 43.1411 30.738C42.6076 33.4764 41.5812 35.431 40.0603 36.6025C38.5394 37.7739 36.2245 38.3589 33.1172 38.3589H28.4281L31.3061 23.5501H36.5879ZM17.8076 53.3503H25.515L27.344 43.9433H33.9463C36.8594 43.9433 39.2561 43.6368 41.1374 43.0245C43.0186 42.4123 44.729 41.3867 46.2679 39.9461C47.5595 38.7598 48.6046 37.4495 49.4048 36.0175C50.2043 34.5855 50.7721 33.0061 51.1082 31.2786C51.924 27.084 51.3087 23.8168 49.2636 21.477C47.2194 19.1363 43.9662 17.9664 39.5073 17.9664H24.6852L17.8076 53.3503V53.3503ZM56.7691 8.55872H64.4164L62.5882 17.9664H69.4019C73.6869 17.9664 76.6452 18.7136 78.2722 20.2088C79.8992 21.7039 80.3866 24.1272 79.7361 27.4771L76.5368 43.9433H68.7678L71.8095 28.2867C72.1551 26.5053 72.0287 25.2909 71.4274 24.6428C70.826 23.9954 69.5461 23.671 67.59 23.671H61.4784L57.5389 43.9433H49.8915L56.7691 8.55872ZM96.7515 23.5501C99.6794 23.5501 101.631 24.0906 102.607 25.1716C103.582 26.2526 103.814 28.1088 103.304 30.738C102.772 33.4764 101.745 35.431 100.224 36.6025C98.7037 37.7739 96.388 38.3589 93.2823 38.3589H88.5932L91.4704 23.5501H96.7515V23.5501ZM77.9696 53.3503H85.6778L87.506 43.9433H94.1082C97.0221 43.9433 99.4189 43.6368 101.3 43.0245C103.181 42.4123 104.892 41.3867 106.431 39.9461C107.722 38.7598 108.767 37.4495 109.567 36.0175C110.366 34.5855 110.935 33.0061 111.272 31.2786C112.087 27.084 111.471 23.8168 109.427 21.477C107.381 19.1363 104.129 17.9664 99.67 17.9664H84.8479L77.9696 53.3503V53.3503Z" fill="black"/>
</svg>
