<?xml version="1.0" standalone="no"?>
<!DOCTYPE svg PUBLIC "-//W3C//DTD SVG 1.1//EN" "http://www.w3.org/Graphics/SVG/1.1/DTD/svg11.dtd" >
<svg xmlns="http://www.w3.org/2000/svg" xmlns:xlink="http://www.w3.org/1999/xlink" version="1.1">
<metadata>
Created by FontForge 20170731 at Sat Aug 27 19:35:12 2022
 By Aleksey,,,
https://plan.diia.gov.ua
</metadata>
<defs>
<font id="e-Ukraine-Bold" horiz-adv-x="1440" >
  <font-face 
    font-family="e-Ukraine Bold"
    font-weight="700"
    font-stretch="normal"
    units-per-em="2048"
    panose-1="0 0 8 0 0 0 0 0 0 0"
    ascent="1638"
    descent="-410"
    x-height="1200"
    cap-height="1520"
    bbox="-1540 -616 3056 2028"
    underline-thickness="160"
    underline-position="-400"
    unicode-range="U+000D-2646"
  />
<missing-glyph horiz-adv-x="2232" 
d="M1116 -584l692 304q91 41 143.5 125t52.5 179v1888h-1776v-1888q0 -95 52.5 -179t143.5 -125zM1116 -448q-21 43 -68 76q-88 67 -147.5 163t-80.5 209h-372v1608q150 -75 249 -226t111 -322l56 -452l-28 4q-44 0 -78 -34.5t-34 -77.5q0 -38 26 -68.5t66 -39.5l68 -16
q176 333 176 624q0 99 -13 285t-15 271q0 123 84 220q84 -97 84 -220q0 -94 -14 -279t-14 -277q0 -291 176 -624l68 16q40 9 66 39.5t26 68.5q0 43 -34 77.5t-78 34.5l-28 -4l56 452q22 175 117.5 325t242.5 223v-1608h-372q-21 -115 -80 -212.5t-148 -159.5
q-47 -33 -68 -76zM560 556h64q12 44 42.5 82t73.5 62l-44 372q-24 173 -136 304v-820zM1608 556h64v820q-119 -139 -136 -304l-44 -372q43 -24 73.5 -62t42.5 -82zM1116 268q57 64 120 80q-85 156 -120 276q-35 -120 -120 -276q63 -16 120 -80zM560 112h252q0 73 20 160
l-52 12q-57 18 -99 60.5t-57 99.5h-64v-332zM1420 112h252v332h-64q-15 -57 -57 -99.5t-99 -60.5l-52 -12q20 -87 20 -160zM920 112h140q0 51 -34.5 90.5t-85.5 45.5q-20 -73 -20 -136zM1172 112h140q0 63 -20 136q-51 -6 -85.5 -45.5t-34.5 -90.5zM1060 -236v236h-124
q29 -129 124 -236zM1172 -236q95 107 124 236h-124v-236z" />
    <glyph glyph-name="uni20B4" unicode="&#x3c;&#x433;&#x440;&#x43d;&#x3e;" 
d="M1328 832h-356l-184 -144h540v-176h-704q-72 -48 -72 -124q0 -63 49 -97.5t139 -34.5q167 0 276 164l248 -164q-87 -133 -237.5 -204.5t-314.5 -71.5q-133 0 -239 39.5t-169.5 117.5t-63.5 183q0 108 72 192h-212v176h348l184 144h-532v176h704q68 57 68 128
q0 57 -48 92.5t-128 35.5q-156 0 -256 -156l-236 152q90 139 227.5 209.5t296.5 70.5q205 0 332.5 -96t127.5 -244q0 -109 -64 -192h204v-176z" />
    <glyph glyph-name="arrowleft" unicode="&#x3c;&#x2d;" horiz-adv-x="1600" 
d="M1600 908v-296h-1032l348 -348l-212 -208l-704 704l704 704l212 -208l-348 -348h1032z" />
    <glyph glyph-name="arrowup" unicode="&#x2d;^" horiz-adv-x="1600" 
d="M1504 896l-208 -212l-348 348v-1032h-296v1032l-348 -348l-208 212l704 704z" />
    <glyph glyph-name="arrowright" unicode="&#x2d;&#x3e;" horiz-adv-x="1600" 
d="M896 1464l704 -704l-704 -704l-212 208l348 348h-1032v296h1032l-348 348z" />
    <glyph glyph-name="arrowdown" unicode="^&#x2d;" horiz-adv-x="1600" 
d="M1296 836l208 -212l-704 -704l-704 704l208 212l348 -348v1032h296v-1032z" />
    <glyph glyph-name="uni2196" unicode="&#x3c;\" horiz-adv-x="1600" 
d="M1500 256l-212 -212l-728 728v-488l-296 4v992h996v-296h-488z" />
    <glyph glyph-name="uni2197" unicode="&#x2f;&#x3e;" horiz-adv-x="1600" 
d="M340 1280h996v-992l-296 -4v488l-728 -728l-212 212l728 728h-488v296z" />
    <glyph glyph-name="uni2198" unicode="\&#x3e;" horiz-adv-x="1600" 
d="M1040 1168l296 -4v-992h-996v296h488l-728 728l212 212l728 -728v488z" />
    <glyph glyph-name="uni2199" unicode="&#x3c;&#x2f;" horiz-adv-x="1600" 
d="M1500 1196l-728 -728h488v-296h-996v992l296 4v-488l728 728z" />
    <glyph glyph-name="uni2646" unicode="&#x3c;&#x433;&#x435;&#x440;&#x431;&#x3e;" horiz-adv-x="2232" 
d="M1116 -616l-704 312q-96 42 -154 132.5t-58 195.5v1916h1832v-1916q0 -105 -58 -195.5t-154 -132.5zM1116 -584l692 304q91 41 143.5 125t52.5 179v1888h-1776v-1888q0 -95 52.5 -179t143.5 -125zM1116 -448q-21 43 -68 76q-88 67 -147.5 163t-80.5 209h-372v1608
q150 -75 249 -226t111 -322l56 -452l-28 4q-44 0 -78 -34.5t-34 -77.5q0 -38 26 -68.5t66 -39.5l68 -16q176 333 176 624q0 99 -13 285t-15 271q0 123 84 220q84 -97 84 -220q0 -94 -14 -279t-14 -277q0 -291 176 -624l68 16q40 9 66 39.5t26 68.5q0 43 -34 77.5t-78 34.5
l-28 -4l56 452q22 175 117.5 325t242.5 223v-1608h-372q-21 -115 -80 -212.5t-148 -159.5q-47 -33 -68 -76zM560 556h64q12 44 42.5 82t73.5 62l-44 372q-24 173 -136 304v-820zM1608 556h64v820q-119 -139 -136 -304l-44 -372q43 -24 73.5 -62t42.5 -82zM1116 268
q57 64 120 80q-85 156 -120 276q-35 -120 -120 -276q63 -16 120 -80zM560 112h252q0 73 20 160l-52 12q-57 18 -99 60.5t-57 99.5h-64v-332zM1420 112h252v332h-64q-15 -57 -57 -99.5t-99 -60.5l-52 -12q20 -87 20 -160zM920 112h140q0 51 -34.5 90.5t-85.5 45.5
q-20 -73 -20 -136zM1172 112h140q0 63 -20 136q-51 -6 -85.5 -45.5t-34.5 -90.5zM1060 -236v236h-124q29 -129 124 -236zM1172 -236q95 107 124 236h-124v-236z" />
    <glyph glyph-name="I_I.liga" unicode="II" horiz-adv-x="1500" 
d="M204 0v1520h344v-1520h-344zM956 0v1520h344v-1520h-344z" />
    <glyph glyph-name="dotlessi_dotlessi.liga" unicode="&#x131;&#x131;" horiz-adv-x="1376" 
d="M184 0v1200h320v-1200h-320zM872 0v1200h320v-1200h-320z" />
    <glyph glyph-name="uni04070407.liga" unicode="&#x407;&#x407;" horiz-adv-x="1500" 
d="M-68 1672v272h320v-272h-320zM372 1672v272h320v-272h-320zM812 1672v272h320v-272h-320zM1252 1672v272h320v-272h-320zM204 0v1520h344v-1520h-344zM956 0v1520h344v-1520h-344z" />
    <glyph glyph-name="uni04570457.liga" unicode="&#x457;&#x457;" horiz-adv-x="1376" 
d="M-132 1352v272h320v-272h-320zM308 1352v272h320v-272h-320zM748 1352v272h320v-272h-320zM1188 1352v272h320v-272h-320zM184 0v1200h320v-1200h-320zM872 0v1200h320v-1200h-320z" />
    <glyph glyph-name="uni2019_uni0457.liga" unicode="&#x2019;&#x457;" horiz-adv-x="1320" 
d="M100 1352v272h376v-200q0 -187 -85.5 -281.5t-234.5 -94.5h-56v168h36q72 0 105 32t39 104h-180zM908 1624v-272h-328v272h328zM1044 1624h328v-272h-328v272zM816 0v1200h320v-1200h-320z" />
    <glyph glyph-name="ampersand.ss08" unicode="&#x3c;&#x442;&#x430;&#x3e;" horiz-adv-x="1448" 
d="M1324 276h48v-276q-48 -8 -116 -8q-115 0 -178 47t-78 145q-151 -208 -492 -208q-118 0 -213.5 34t-157 107t-61.5 175q0 71 28 126t72 89.5t109.5 59.5t127.5 37t139 20v196q-93 -12 -177 -49.5t-147 -90.5l-140 208q196 153 464 188v180h-448v264h1152v-264h-448v-176
q212 -21 330 -125t118 -267v-344q0 -68 68 -68zM976 728q0 41 -36.5 65.5t-131.5 30.5v-176q87 14 127.5 30.5t40.5 49.5zM808 260q72 38 116 93t44 119v52q-52 -42 -160 -64v-200zM384 320q0 -53 39 -81.5t129 -34.5v232q-82 -10 -125 -35t-43 -81z" />
    <glyph glyph-name="trident.ss01" unicode="&#x3c;&#x442;&#x440;&#x438;&#x437;&#x443;&#x431;&#x3e;" horiz-adv-x="2232" 
d="M1116 -448q-21 43 -68 76q-88 67 -147.5 163t-80.5 209h-372v1608q150 -75 249 -226t111 -322l56 -452l-28 4q-44 0 -78 -34.5t-34 -77.5q0 -38 26 -68.5t66 -39.5l68 -16q176 333 176 624q0 99 -13 285t-15 271q0 123 84 220q84 -97 84 -220q0 -94 -14 -279t-14 -277
q0 -291 176 -624l68 16q40 9 66 39.5t26 68.5q0 43 -34 77.5t-78 34.5l-28 -4l56 452q22 175 117.5 325t242.5 223v-1608h-372q-21 -115 -80 -212.5t-148 -159.5q-47 -33 -68 -76zM560 556h64q12 44 42.5 82t73.5 62l-44 372q-24 173 -136 304v-820zM1608 556h64v820
q-119 -139 -136 -304l-44 -372q43 -24 73.5 -62t42.5 -82zM1116 268q57 64 120 80q-85 156 -120 276q-35 -120 -120 -276q63 -16 120 -80zM560 112h252q0 73 20 160l-52 12q-57 18 -99 60.5t-57 99.5h-64v-332zM1420 112h252v332h-64q-15 -57 -57 -99.5t-99 -60.5l-52 -12
q20 -87 20 -160zM920 112h140q0 51 -34.5 90.5t-85.5 45.5q-20 -73 -20 -136zM1172 112h140q0 63 -20 136q-51 -6 -85.5 -45.5t-34.5 -90.5zM1060 -236v236h-124q29 -129 124 -236zM1172 -236q95 107 124 236h-124v-236z" />
    <glyph glyph-name=".notdef" horiz-adv-x="2232" 
d="M1116 -584l692 304q91 41 143.5 125t52.5 179v1888h-1776v-1888q0 -95 52.5 -179t143.5 -125zM1116 -448q-21 43 -68 76q-88 67 -147.5 163t-80.5 209h-372v1608q150 -75 249 -226t111 -322l56 -452l-28 4q-44 0 -78 -34.5t-34 -77.5q0 -38 26 -68.5t66 -39.5l68 -16
q176 333 176 624q0 99 -13 285t-15 271q0 123 84 220q84 -97 84 -220q0 -94 -14 -279t-14 -277q0 -291 176 -624l68 16q40 9 66 39.5t26 68.5q0 43 -34 77.5t-78 34.5l-28 -4l56 452q22 175 117.5 325t242.5 223v-1608h-372q-21 -115 -80 -212.5t-148 -159.5
q-47 -33 -68 -76zM560 556h64q12 44 42.5 82t73.5 62l-44 372q-24 173 -136 304v-820zM1608 556h64v820q-119 -139 -136 -304l-44 -372q43 -24 73.5 -62t42.5 -82zM1116 268q57 64 120 80q-85 156 -120 276q-35 -120 -120 -276q63 -16 120 -80zM560 112h252q0 73 20 160
l-52 12q-57 18 -99 60.5t-57 99.5h-64v-332zM1420 112h252v332h-64q-15 -57 -57 -99.5t-99 -60.5l-52 -12q20 -87 20 -160zM920 112h140q0 51 -34.5 90.5t-85.5 45.5q-20 -73 -20 -136zM1172 112h140q0 63 -20 136q-51 -6 -85.5 -45.5t-34.5 -90.5zM1060 -236v236h-124
q29 -129 124 -236zM1172 -236q95 107 124 236h-124v-236z" />
    <glyph glyph-name=".null" horiz-adv-x="0" 
 />
    <glyph glyph-name="nonmarkingreturn" horiz-adv-x="682" 
 />
    <glyph glyph-name="CR" unicode="&#xd;" horiz-adv-x="640" 
 />
    <glyph glyph-name="space" unicode=" " horiz-adv-x="640" 
 />
    <glyph glyph-name="exclam" unicode="!" horiz-adv-x="780" 
d="M252 552l-44 968h360l-44 -968h-272zM200 0v376h376v-376h-376z" />
    <glyph glyph-name="quotedbl" unicode="&#x22;" horiz-adv-x="1064" 
d="M148 928l-28 592h328l-32 -592h-268zM644 928l-28 592h328l-32 -592h-268z" />
    <glyph glyph-name="numbersign" unicode="#" 
d="M1352 904h-228v-288h228v-296h-228v-320h-264v320h-280v-320h-264v320h-228v296h228v288h-228v296h228v320h264v-320h280v320h264v-320h228v-296zM860 616v288h-280v-288h280z" />
    <glyph glyph-name="dollar" unicode="$" horiz-adv-x="1424" 
d="M1312 448q0 -196 -137.5 -319.5t-382.5 -144.5v-160h-164v156q-340 19 -560 220l192 232q155 -137 368 -168v372q-62 19 -106.5 34.5t-100.5 39.5t-94.5 48.5t-79 59.5t-64.5 74.5t-39.5 91.5t-15.5 112q0 186 134.5 304t365.5 136v144h164v-144q266 -17 484 -188
l-172 -236q-136 113 -312 144v-368q96 -25 167 -49.5t141 -62t114 -81.5t71 -107t27 -140zM432 1104q0 -60 47.5 -98t148.5 -70v324q-97 -9 -146.5 -50t-49.5 -106zM792 264q196 24 196 160q0 57 -44 94t-152 70v-324z" />
    <glyph glyph-name="percent" unicode="%" horiz-adv-x="2184" 
d="M520 620q-195 0 -309.5 125t-114.5 335t114.5 335t309.5 125t309.5 -125t114.5 -335t-114.5 -335t-309.5 -125zM500 0l964 1520h220l-964 -1520h-220zM520 828q84 0 134 67.5t50 184.5t-50 184.5t-134 67.5t-134 -67.5t-50 -184.5t50 -184.5t134 -67.5zM1664 -20
q-195 0 -309.5 125t-114.5 335t114.5 335t309.5 125t309.5 -125t114.5 -335t-114.5 -335t-309.5 -125zM1664 188q84 0 134 67.5t50 184.5t-50 184.5t-134 67.5t-134 -67.5t-50 -184.5t50 -184.5t134 -67.5z" />
    <glyph glyph-name="ampersand" unicode="&#x26;" horiz-adv-x="1928" 
d="M1660 412l252 -60q-12 -180 -102 -276t-246 -96q-95 0 -188 37t-208 119q-231 -156 -520 -156q-258 0 -411 117.5t-153 318.5q0 145 85.5 248t270.5 168q-80 98 -116 177.5t-36 158.5q0 165 129.5 268.5t338.5 103.5q221 0 348.5 -101.5t127.5 -254.5q0 -129 -95.5 -245
t-268.5 -183q121 -116 280 -260q120 158 156 368l288 -64q-51 -262 -220 -476q114 -76 172 -76q98 0 116 164zM756 1304q-78 0 -127 -46t-49 -118q0 -46 29 -96.5t91 -119.5q124 46 178 102.5t54 125.5t-47.5 110.5t-128.5 41.5zM672 240q151 0 280 80q-96 88 -332 324
q-212 -74 -212 -224q0 -81 72 -130.5t192 -49.5z" />
    <glyph glyph-name="quotesingle" unicode="'" horiz-adv-x="568" 
d="M148 928l-28 592h328l-32 -592h-268z" />
    <glyph glyph-name="parenleft" unicode="(" horiz-adv-x="992" 
d="M760 -300q-276 132 -432 393t-156 591q0 333 156 594t432 390l136 -180q-184 -136 -282 -341.5t-98 -462.5t98 -462t282 -338z" />
    <glyph glyph-name="parenright" unicode=")" horiz-adv-x="920" 
d="M228 -300l-136 184q184 133 282 338t98 462t-98 462.5t-282 341.5l136 180q276 -129 432 -390t156 -594q0 -330 -156 -591t-432 -393z" />
    <glyph glyph-name="asterisk" unicode="*" horiz-adv-x="1000" 
d="M912 1228l-260 -84l160 -220l-152 -108l-160 220l-160 -220l-152 108l160 224l-260 84l56 180l264 -84v272h184v-272l264 84z" />
    <glyph glyph-name="plus" unicode="+" 
d="M1272 884v-248h-424v-428h-256v428h-424v248h424v428h256v-428h424z" />
    <glyph glyph-name="comma" unicode="," horiz-adv-x="720" 
d="M172 376h376v-304q0 -187 -85.5 -281.5t-234.5 -94.5h-56v168h36q72 0 105 32t39 104h-180v376z" />
    <glyph glyph-name="hyphen" unicode="-" horiz-adv-x="1008" 
d="M140 532v296h728v-296h-728z" />
    <glyph glyph-name="period" unicode="." horiz-adv-x="720" 
d="M172 0v376h376v-376h-376z" />
    <glyph glyph-name="slash" unicode="/" horiz-adv-x="1016" 
d="M-80 -80l888 1680h288l-888 -1680h-288z" />
    <glyph glyph-name="zero" unicode="0" 
d="M720 -20q-288 0 -458 210.5t-170 569.5t170 569.5t458 210.5t458 -210.5t170 -569.5t-170 -569.5t-458 -210.5zM720 244q144 0 224 135t80 381t-80 381t-224 135t-224 -135t-80 -381t80 -381t224 -135z" />
    <glyph glyph-name="one" unicode="1" horiz-adv-x="1004" 
d="M428 0v996h-344v260h68q133 0 203 23.5t102.5 78.5t42.5 162h248v-1520h-320z" />
    <glyph glyph-name="two" unicode="2" horiz-adv-x="1296" 
d="M516 268h688v-268h-1132v208l540 464q138 115 193 208t55 188q0 93 -62.5 150.5t-161.5 57.5q-119 0 -188 -74.5t-72 -225.5l-300 44q15 243 171.5 383t408.5 137q234 -3 379 -126t145 -318q0 -91 -24.5 -167t-85 -155t-138.5 -152.5t-208 -181.5z" />
    <glyph glyph-name="three" unicode="3" horiz-adv-x="1284" 
d="M772 932q186 -15 299 -139t113 -313q0 -217 -162.5 -358.5t-413.5 -141.5q-208 0 -361.5 93t-226.5 259l240 140q51 -111 138 -171.5t198 -60.5q129 0 204.5 67t75.5 181q0 108 -67 172t-181 64q-78 0 -144 -36l-140 164l404 392h-656v276h1036v-236z" />
    <glyph glyph-name="four" unicode="4" horiz-adv-x="1376" 
d="M1332 624v-272h-224v-352h-296v352h-748v264l656 904h388v-896h224zM384 624h428v588z" />
    <glyph glyph-name="five" unicode="5" horiz-adv-x="1304" 
d="M696 1004q216 0 362 -144t146 -360q0 -231 -164 -375.5t-428 -144.5q-182 0 -325.5 73t-222.5 203l204 172q52 -83 140.5 -133.5t191.5 -50.5q129 0 208.5 72t79.5 192t-74.5 192t-197.5 72q-159 0 -252 -124l-228 84l68 788h892v-288h-644l-28 -300q108 72 272 72z" />
    <glyph glyph-name="six" unicode="6" horiz-adv-x="1384" 
d="M796 984q232 0 372 -132t140 -356q0 -149 -74 -267.5t-201.5 -183.5t-284.5 -65q-201 0 -343.5 100t-211.5 270.5t-69 393.5q0 172 41.5 317t121.5 252t204 167t281 60q151 0 282.5 -54.5t213.5 -157.5l-220 -196q-38 68 -112 106t-160 38q-90 0 -160 -35.5t-113 -99
t-66.5 -145t-28.5 -180.5q63 81 162.5 124.5t225.5 43.5zM740 232q115 0 189.5 72t74.5 188q0 117 -71.5 186.5t-188.5 69.5q-121 0 -196.5 -70t-75.5 -186q0 -117 74 -188.5t194 -71.5z" />
    <glyph glyph-name="seven" unicode="7" horiz-adv-x="1216" 
d="M56 1520h1112v-248q-228 -216 -358 -554t-130 -718h-320q0 344 130 676t342 556h-776v288z" />
    <glyph glyph-name="eight" unicode="8" horiz-adv-x="1384" 
d="M1020 784q122 -55 189 -149.5t67 -218.5q0 -199 -157.5 -317.5t-426.5 -118.5t-426.5 118.5t-157.5 317.5q0 124 67 218.5t189 149.5q-102 51 -157 135.5t-55 192.5q0 198 145.5 313t394.5 115t394.5 -115t145.5 -313q0 -108 -55 -192.5t-157 -135.5zM692 1300
q-117 0 -184.5 -56t-67.5 -152q0 -93 68 -148.5t184 -55.5t184 55.5t68 148.5q0 96 -67.5 152t-184.5 56zM692 220q125 0 198.5 61t73.5 163t-72.5 159t-199.5 57t-199.5 -57t-72.5 -159t73.5 -163t198.5 -61z" />
    <glyph glyph-name="nine" unicode="9" horiz-adv-x="1384" 
d="M636 1540q201 0 343.5 -100t211.5 -270.5t69 -393.5q0 -172 -41.5 -317t-121.5 -252t-204 -167t-281 -60q-151 0 -282.5 54.5t-213.5 157.5l220 196q38 -68 112 -106t160 -38q90 0 160 35.5t113 99t66.5 145t28.5 180.5q-63 -81 -162.5 -124.5t-225.5 -43.5
q-232 0 -372 132t-140 356q0 149 74 267.5t201.5 183.5t284.5 65zM640 772q121 0 196.5 70t75.5 186q0 117 -74 188.5t-194 71.5q-115 0 -189.5 -72t-74.5 -188q0 -117 71.5 -186.5t188.5 -69.5z" />
    <glyph glyph-name="colon" unicode=":" horiz-adv-x="696" 
d="M160 824v376h376v-376h-376zM160 0v376h376v-376h-376z" />
    <glyph glyph-name="semicolon" unicode=";" horiz-adv-x="696" 
d="M160 1200h376v-376h-376v376zM160 0v376h376v-304q0 -187 -85.5 -281.5t-234.5 -94.5h-56v168h36q72 0 105 32t39 104h-180z" />
    <glyph glyph-name="less" unicode="&#x3c;" 
d="M1272 1320v-268l-732 -288l732 -288v-276l-1104 440v240z" />
    <glyph glyph-name="equal" unicode="=" 
d="M168 924v248h1104v-248h-1104zM168 348v248h1104v-248h-1104z" />
    <glyph glyph-name="greater" unicode="&#x3e;" 
d="M168 1320l1104 -440v-240l-1104 -440v268l732 288l-732 288v276z" />
    <glyph glyph-name="question" unicode="?" horiz-adv-x="1276" 
d="M488 536q-6 104 33 170t163 166q93 75 122.5 118t29.5 106q0 84 -55 132t-149 48q-115 0 -187.5 -74.5t-84.5 -205.5l-296 52q24 226 178.5 359t393.5 133q234 0 377 -115.5t143 -304.5q0 -115 -53 -201.5t-175 -170.5q-85 -58 -122.5 -104t-37.5 -96v-12h-280zM444 0
v376h376v-376h-376z" />
    <glyph glyph-name="at" unicode="@" horiz-adv-x="1756" 
d="M1632 276h48v-276q-48 -8 -116 -4q-115 0 -176 42t-76 134q-60 -85 -165 -134.5t-227 -49.5q-177 0 -286.5 95.5t-109.5 248.5q0 162 111 254.5t345 125.5q187 24 217 32q50 14 57 45q2 8 2 19q0 77 -94.5 128.5t-249.5 51.5q-261 0 -418.5 -157.5t-157.5 -418.5
q0 -276 163.5 -434t448.5 -158q204 0 360 100l100 -204q-206 -116 -456 -116q-393 0 -624.5 220t-231.5 592q0 177 60 327t168.5 256t265 165.5t342.5 59.5q274 0 453 -138t179 -350v-388q0 -68 68 -68zM968 232q120 0 204 68.5t84 167.5v108q-43 -18 -208 -48
q-128 -21 -182 -60t-54 -108q0 -60 42 -94t114 -34z" />
    <glyph glyph-name="A" unicode="A" horiz-adv-x="1648" 
d="M1260 0l-108 300h-664l-108 -300h-360l592 1520h424l592 -1520h-368zM596 596h448l-224 624z" />
    <glyph glyph-name="B" unicode="B" horiz-adv-x="1536" 
d="M1216 776q109 -51 166.5 -143t57.5 -217q0 -195 -137.5 -305.5t-382.5 -110.5h-716v1520h712q234 0 365 -107.5t131 -296.5q0 -115 -51 -201.5t-145 -138.5zM860 1244h-328v-336h328q216 0 216 168t-216 168zM864 276q236 0 236 184t-236 184h-332v-368h332z" />
    <glyph glyph-name="C" unicode="C" horiz-adv-x="1564" 
d="M840 -20q-336 0 -540 213t-204 567q0 231 93 408.5t262 274.5t389 97q246 0 418 -117t238 -327l-324 -112q-85 268 -340 268q-177 0 -280.5 -132t-103.5 -360q0 -229 102 -360.5t282 -131.5q255 0 340 268l324 -112q-63 -210 -236.5 -327t-419.5 -117z" />
    <glyph glyph-name="D" unicode="D" horiz-adv-x="1660" 
d="M796 1520q364 0 566 -205t202 -555q0 -224 -91 -395.5t-266 -268t-411 -96.5h-592v1520h592zM788 288q205 0 314.5 124t109.5 348t-109.5 348t-314.5 124h-240v-944h240z" />
    <glyph glyph-name="E" unicode="E" horiz-adv-x="1404" 
d="M540 300h784v-300h-1120v1520h1100v-300h-764v-296h584v-288h-584v-336z" />
    <glyph glyph-name="F" unicode="F" horiz-adv-x="1352" 
d="M1300 1216h-752v-324h572v-288h-572v-604h-344v1520h1096v-304z" />
    <glyph glyph-name="G" unicode="G" horiz-adv-x="1684" 
d="M876 792h672v-792h-252l-20 212q-159 -232 -476 -232q-210 0 -370 96t-247 271t-87 405q0 358 211.5 573t564.5 215q231 0 399 -104t249 -296l-316 -120q-46 110 -134.5 171t-209.5 61q-192 0 -302 -132t-110 -360q0 -230 107 -361t293 -131q136 0 235 73.5t137 214.5
h-344v236z" />
    <glyph glyph-name="H" unicode="H" horiz-adv-x="1720" 
d="M1172 1520h344v-1520h-344v624h-624v-624h-344v1520h344v-584h624v584z" />
    <glyph glyph-name="I" unicode="I" horiz-adv-x="752" 
d="M204 0v1520h344v-1520h-344z" />
    <glyph glyph-name="J" unicode="J" horiz-adv-x="1192" 
d="M488 -20q-188 0 -319.5 97.5t-176.5 266.5l280 112q18 -90 70.5 -137t133.5 -47q87 0 137.5 57.5t50.5 154.5v1036h344v-1028q0 -235 -140.5 -373.5t-379.5 -138.5z" />
    <glyph glyph-name="K" unicode="K" horiz-adv-x="1636" 
d="M1200 0l-452 680l-200 -200v-480h-344v1520h344v-644l608 644h428l-592 -596l616 -924h-408z" />
    <glyph glyph-name="L" unicode="L" horiz-adv-x="1352" 
d="M548 312h744v-312h-1088v1520h344v-1208z" />
    <glyph glyph-name="M" unicode="M" horiz-adv-x="2216" 
d="M2012 1520v-1520h-336v1072l-392 -1072h-352l-392 1072v-1072h-336v1520h504l404 -1100l400 1100h500z" />
    <glyph glyph-name="N" unicode="N" horiz-adv-x="1744" 
d="M1208 1520h332v-1520h-320l-684 968v-968h-332v1520h324l680 -968v968z" />
    <glyph glyph-name="O" unicode="O" horiz-adv-x="1704" 
d="M852 -20q-342 0 -549 213t-207 567q0 231 94.5 408.5t266 274.5t395.5 97q342 0 549 -213t207 -567q0 -231 -94.5 -408.5t-266 -274.5t-395.5 -97zM852 276q183 0 293.5 132.5t110.5 351.5t-110.5 351.5t-293.5 132.5t-293.5 -132.5t-110.5 -351.5t110.5 -351.5
t293.5 -132.5z" />
    <glyph glyph-name="P" unicode="P" horiz-adv-x="1500" 
d="M852 1520q273 0 426.5 -130t153.5 -358q0 -231 -153.5 -359.5t-426.5 -128.5h-308v-544h-340v1520h648zM812 816q132 0 202 53t70 155q0 208 -272 208h-268v-416h268z" />
    <glyph glyph-name="Q" unicode="Q" horiz-adv-x="1704" 
d="M1608 760q0 -304 -159.5 -508.5t-428.5 -255.5v-52q0 -96 108 -96q40 0 98 2t86 2v-252q-120 -8 -208 -8q-201 0 -294.5 85.5t-93.5 278.5v32q-286 42 -453 248.5t-167 523.5q0 231 94.5 408.5t266 274.5t395.5 97q342 0 549 -213t207 -567zM448 760q0 -219 110.5 -351.5
t293.5 -132.5t293.5 132.5t110.5 351.5t-110.5 351.5t-293.5 132.5t-293.5 -132.5t-110.5 -351.5z" />
    <glyph glyph-name="R" unicode="R" horiz-adv-x="1588" 
d="M1144 0l-324 560h-276v-560h-340v1520h672q270 0 421 -125.5t151 -350.5q0 -158 -74.5 -270t-213.5 -166l368 -608h-384zM544 1232v-404h308q122 0 185 52t63 152q0 200 -248 200h-308z" />
    <glyph glyph-name="S" unicode="S" horiz-adv-x="1392" 
d="M704 -20q-193 0 -365 58.5t-291 165.5l188 256q94 -91 216.5 -139.5t259.5 -48.5q129 0 200.5 40t71.5 112q0 42 -36 72t-76.5 44.5t-138.5 42.5q-10 3 -15.5 4.5t-14 4t-15.5 4.5q-74 21 -114.5 33t-111 38t-111.5 49.5t-93.5 62.5t-81 81t-48.5 101t-20 127
q0 209 164 330.5t444 121.5q325 0 580 -184l-184 -256q-84 69 -190.5 106.5t-217.5 37.5q-117 0 -186.5 -38.5t-69.5 -101.5q0 -62 75 -101.5t245 -86.5q54 -15 86.5 -24t85.5 -26.5t87 -32t79.5 -38t74 -46.5t60.5 -56t49.5 -68.5t29.5 -80.5t12 -96q0 -222 -165.5 -345
t-462.5 -123z" />
    <glyph glyph-name="T" unicode="T" horiz-adv-x="1448" 
d="M1408 1520v-312h-512v-1208h-344v1208h-512v312h1368z" />
    <glyph glyph-name="U" unicode="U" horiz-adv-x="1728" 
d="M864 -20q-316 0 -498 171t-182 461v908h344v-896q0 -162 87 -251t249 -89t249 89t87 251v896h344v-908q0 -290 -182 -461t-498 -171z" />
    <glyph glyph-name="V" unicode="V" horiz-adv-x="1604" 
d="M1204 1520h364l-544 -1520h-444l-544 1520h368l400 -1196z" />
    <glyph glyph-name="W" unicode="W" horiz-adv-x="2304" 
d="M1904 1520h344l-440 -1520h-360l-300 1048l-296 -1048h-360l-436 1520h352l280 -1064l296 1064h332l296 -1056z" />
    <glyph glyph-name="X" unicode="X" horiz-adv-x="1564" 
d="M1536 0h-388l-368 532l-360 -532h-392l552 780l-524 740h392l340 -488l340 488h380l-524 -740z" />
    <glyph glyph-name="Y" unicode="Y" horiz-adv-x="1560" 
d="M1548 1520l-596 -928v-592h-344v596l-596 924h392l380 -616l380 616h384z" />
    <glyph glyph-name="Z" unicode="Z" horiz-adv-x="1412" 
d="M1324 1520v-252l-800 -960h800v-308h-1244v252l800 960h-756v308h1200z" />
    <glyph glyph-name="bracketleft" unicode="[" horiz-adv-x="992" 
d="M844 1320h-328v-1280h328v-280h-640v1840h640v-280z" />
    <glyph glyph-name="backslash" unicode="\" horiz-adv-x="1016" 
d="M1096 -80h-288l-888 1680h288z" />
    <glyph glyph-name="bracketright" unicode="]" horiz-adv-x="960" 
d="M836 1600v-1840h-640v280h328v1280h-328v280h640z" />
    <glyph glyph-name="asciicircum" unicode="^" 
d="M1260 760h-276l-264 528l-268 -528h-272l392 760h296z" />
    <glyph glyph-name="underscore" unicode="_" horiz-adv-x="1120" 
d="M40 52h1040v-292h-1040v292z" />
    <glyph glyph-name="grave" unicode="`" horiz-adv-x="640" 
d="M424 1296h-220l-244 316h344z" />
    <glyph glyph-name="a" unicode="a" horiz-adv-x="1328" 
d="M1204 276h48v-276q-48 -8 -116 -8q-111 0 -172.5 43.5t-79.5 136.5q-63 -90 -173.5 -141t-242.5 -51q-177 0 -284.5 96t-107.5 252q0 65 17.5 118.5t45 91.5t71 68t85 48.5t98 33t99.5 22t100 14.5q59 7 97 14t75 19t54.5 30.5t17.5 44.5q0 58 -57.5 93t-158.5 35
q-188 0 -328 -140l-192 196q216 204 540 204q234 0 365 -107.5t131 -296.5v-472q0 -68 68 -68zM540 232q120 0 204 68.5t84 167.5v104q-23 -13 -58 -24t-61.5 -16t-84.5 -16q-34 -5 -53 -8.5t-48.5 -10.5t-46 -14t-36.5 -19t-30.5 -26t-18 -34t-7.5 -44q0 -60 40.5 -94
t115.5 -34z" />
    <glyph glyph-name="b" unicode="b" horiz-adv-x="1448" 
d="M856 1220q234 0 373 -169t139 -451q0 -278 -141.5 -449t-370.5 -171q-122 0 -221.5 48t-166.5 136l-16 -164h-288v1600h320v-548q143 168 372 168zM756 244q135 0 211.5 95.5t76.5 260.5t-76.5 260.5t-211.5 95.5q-134 0 -209 -95t-75 -261t75 -261t209 -95z" />
    <glyph glyph-name="c" unicode="c" horiz-adv-x="1300" 
d="M700 -20q-279 0 -449.5 170.5t-170.5 449.5t170.5 449.5t449.5 170.5q208 0 356.5 -95t199.5 -265l-304 -92q-33 91 -98.5 139.5t-157.5 48.5q-132 0 -210 -95.5t-78 -260.5t78 -260.5t210 -95.5q92 0 157.5 48.5t98.5 139.5l304 -92q-51 -170 -199.5 -265t-356.5 -95z
" />
    <glyph glyph-name="d" unicode="d" horiz-adv-x="1448" 
d="M964 1600h320v-1600h-288l-16 168q-144 -188 -388 -188q-234 0 -373 169t-139 451q0 278 141.5 449t370.5 171q225 0 372 -160v540zM692 244q134 0 209 95t75 261t-75 261t-209 95q-135 0 -211.5 -95.5t-76.5 -260.5t76.5 -260.5t211.5 -95.5z" />
    <glyph glyph-name="e" unicode="e" horiz-adv-x="1360" 
d="M396 496q24 -121 106 -186.5t210 -65.5q205 0 328 136l196 -192q-195 -208 -528 -208q-153 0 -273.5 46.5t-197.5 130t-117 196t-40 247.5q0 277 166.5 448.5t441.5 171.5q273 0 434.5 -169t161.5 -451q0 -48 -12 -104h-876zM688 964q-110 0 -185.5 -62t-102.5 -174h564
q-24 114 -94.5 175t-181.5 61z" />
    <glyph glyph-name="f" unicode="f" horiz-adv-x="988" 
d="M608 1252v-52h336v-264h-332v-936h-320v936h-244v264h244v44q0 181 114.5 290.5t305.5 109.5q211 0 376 -108l-148 -232q-108 76 -220 76q-51 0 -81.5 -34t-30.5 -94z" />
    <glyph glyph-name="g" unicode="g" horiz-adv-x="1448" 
d="M996 1200h288v-1040q0 -268 -164 -424t-460 -156q-337 0 -512 156l144 228q150 -120 360 -120q168 0 248 81.5t80 226.5v84q-147 -172 -384 -172q-234 0 -375 159.5t-141 420.5q0 260 142 418t374 158q241 0 388 -172zM692 308q134 0 209 87t75 241q0 151 -74.5 235.5
t-209.5 84.5q-132 0 -210 -86.5t-78 -233.5q0 -152 77.5 -240t210.5 -88z" />
    <glyph glyph-name="h" unicode="h" 
d="M864 1220q193 0 312.5 -127t119.5 -333v-760h-320v688q0 128 -58 198t-158 70q-116 0 -196 -77t-80 -195v-684h-320v1600h320v-544q67 77 166 120.5t214 43.5z" />
    <glyph glyph-name="i" unicode="i" horiz-adv-x="688" 
d="M172 1352v272h344v-272h-344zM184 0v1200h320v-1200h-320z" />
    <glyph glyph-name="j" unicode="j" horiz-adv-x="680" 
d="M184 1352v272h344v-272h-344zM132 -408q-44 0 -132 8v284q32 -4 96 -4q46 0 73 26.5t27 73.5v1220h320v-1216q0 -206 -95.5 -299t-288.5 -93z" />
    <glyph glyph-name="k" unicode="k" horiz-adv-x="1372" 
d="M980 0l-340 508l-156 -152v-356h-320v1600h320v-880l456 480h400l-476 -472l492 -728h-376z" />
    <glyph glyph-name="l" unicode="l" horiz-adv-x="648" 
d="M164 0v1600h320v-1600h-320z" />
    <glyph glyph-name="m" unicode="m" horiz-adv-x="2200" 
d="M1636 1220q189 0 304.5 -126.5t115.5 -333.5v-760h-320v688q0 129 -52.5 198.5t-151.5 69.5q-115 0 -189.5 -76.5t-74.5 -195.5v-684h-320v688q0 130 -51.5 199t-152.5 69q-114 0 -187 -76t-73 -196v-684h-320v1200h288l12 -160q67 85 167 132.5t221 47.5
q125 0 220 -58.5t144 -161.5q64 103 174 161.5t246 58.5z" />
    <glyph glyph-name="n" unicode="n" 
d="M864 1220q193 0 312.5 -127t119.5 -333v-760h-320v688q0 128 -57 198t-159 70q-116 0 -196 -77t-80 -195v-684h-320v1200h288l12 -168q70 88 174.5 138t225.5 50z" />
    <glyph glyph-name="o" unicode="o" horiz-adv-x="1416" 
d="M708 -20q-285 0 -456.5 169t-171.5 451q0 279 173 449.5t455 170.5q285 0 456.5 -169t171.5 -451q0 -279 -173 -449.5t-455 -170.5zM708 244q139 0 219.5 94.5t80.5 261.5t-80.5 261.5t-219.5 94.5t-219.5 -94.5t-80.5 -261.5t80.5 -261.5t219.5 -94.5z" />
    <glyph glyph-name="p" unicode="p" horiz-adv-x="1448" 
d="M856 1220q234 0 373 -169t139 -451q0 -278 -141.5 -449t-370.5 -171q-225 0 -372 160v-540h-320v1600h288l16 -168q144 188 388 188zM756 244q135 0 211.5 95.5t76.5 260.5t-76.5 260.5t-211.5 95.5q-134 0 -209 -95t-75 -261t75 -261t209 -95z" />
    <glyph glyph-name="q" unicode="q" horiz-adv-x="1448" 
d="M996 1200h288v-1600h-320v548q-143 -168 -372 -168q-234 0 -373 169t-139 451q0 278 141.5 449t370.5 171q122 0 221.5 -48t166.5 -136zM692 244q134 0 209 95t75 261t-75 261t-209 95q-135 0 -211.5 -95.5t-76.5 -260.5t76.5 -260.5t211.5 -95.5z" />
    <glyph glyph-name="r" unicode="r" horiz-adv-x="1016" 
d="M864 1216q54 0 108 -12l-4 -296q-102 12 -192 12q-137 0 -214.5 -67t-77.5 -201v-652h-320v1200h288l16 -180q61 91 165 143.5t231 52.5z" />
    <glyph glyph-name="s" unicode="s" horiz-adv-x="1152" 
d="M576 -20q-161 0 -304 47.5t-240 132.5l164 228q72 -65 172.5 -102.5t219.5 -37.5q87 0 143.5 23t56.5 69q0 40 -49.5 66.5t-198.5 61.5q-237 57 -344.5 148.5t-107.5 235.5q0 168 136.5 268t367.5 100q256 0 484 -148l-164 -232q-82 60 -164.5 88t-183.5 28
q-80 0 -126 -24t-46 -68q0 -42 46 -68t174 -56q265 -63 374.5 -150.5t109.5 -237.5q0 -177 -135.5 -274.5t-384.5 -97.5z" />
    <glyph glyph-name="t" unicode="t" horiz-adv-x="1024" 
d="M944 936h-344v-524q0 -75 38.5 -107.5t113.5 -32.5q112 0 192 20v-284q-117 -32 -264 -32q-192 0 -296 91t-104 269v600h-240v264h240l32 320h288v-320h344v-264z" />
    <glyph glyph-name="u" unicode="u" 
d="M956 1200h320v-1200h-288l-12 168q-70 -88 -174.5 -138t-225.5 -50q-193 0 -312.5 127t-119.5 333v760h320v-688q0 -128 57 -198t159 -70q116 0 196 77t80 195v684z" />
    <glyph glyph-name="v" unicode="v" horiz-adv-x="1364" 
d="M996 1200h340l-456 -1200h-396l-456 1200h348l312 -888z" />
    <glyph glyph-name="w" unicode="w" horiz-adv-x="1948" 
d="M1576 1200h324l-352 -1200h-356l-220 768l-212 -768h-356l-356 1200h332l220 -864l228 864h292l236 -876z" />
    <glyph glyph-name="x" unicode="x" horiz-adv-x="1360" 
d="M1324 0h-372l-272 388l-272 -388h-372l440 608l-420 592h364l264 -380l268 380h356l-420 -596z" />
    <glyph glyph-name="y" unicode="y" horiz-adv-x="1372" 
d="M1012 1200h336l-416 -1200q-148 -420 -472 -420q-86 0 -155 22t-113.5 58.5t-75.5 86.5t-45.5 102.5t-18.5 110.5l300 52q6 -156 116 -156q66 0 120 84l-564 1260h352l364 -904z" />
    <glyph glyph-name="z" unicode="z" horiz-adv-x="1200" 
d="M484 268h632v-268h-1044v240l628 696h-592v264h1000v-240z" />
    <glyph glyph-name="braceleft" unicode="{" horiz-adv-x="992" 
d="M600 968q0 -214 -148 -288q148 -74 148 -288v-284q0 -32 18.5 -50t49.5 -18h164v-280h-256q-138 0 -213 75t-75 213v340q0 82 -26 117t-82 35h-60v280h60q56 0 82 35t26 117v340q0 138 75 213t213 75h256v-280h-164q-31 0 -49.5 -18t-18.5 -50v-284z" />
    <glyph glyph-name="bar" unicode="|" horiz-adv-x="720" 
d="M204 -240v1840h312v-1840h-312z" />
    <glyph glyph-name="braceright" unicode="}" horiz-adv-x="920" 
d="M700 820h60v-280h-60q-56 0 -82 -35t-26 -117v-340q0 -138 -75 -213t-213 -75h-256v280h164q31 0 49.5 18t18.5 50v284q0 214 148 288q-148 74 -148 288v284q0 32 -18.5 50t-49.5 18h-164v280h256q138 0 213 -75t75 -213v-340q0 -82 26 -117t82 -35z" />
    <glyph glyph-name="asciitilde" unicode="~" 
d="M284 568l-192 128q14 30 34.5 62.5t56 71t76.5 68.5t98 50t119 20q63 0 121 -17t102 -41t85 -48t87.5 -41t92.5 -17q51 0 104.5 40t87.5 112l192 -128q-17 -40 -47.5 -82t-77.5 -87.5t-115 -74t-144 -28.5q-63 0 -121 17t-102 41t-85 48t-87.5 41t-92.5 17
q-51 0 -104.5 -40t-87.5 -112z" />
    <glyph glyph-name="exclamdown" unicode="&#xa1;" horiz-adv-x="780" 
d="M200 1200h376v-376h-376v376zM252 648h272l44 -968h-360z" />
    <glyph glyph-name="cent" unicode="&#xa2;" horiz-adv-x="1304" 
d="M776 412q145 36 200 188l284 -88q-45 -158 -172.5 -254t-311.5 -114v-144h-180v148q-235 30 -375.5 195.5t-140.5 416.5t140.5 416.5t375.5 195.5v148h180v-144q184 -18 311.5 -114t172.5 -254l-288 -88q-54 151 -196 188v-696zM388 760q0 -131 55.5 -220.5t152.5 -119.5
v680q-97 -30 -152.5 -119.5t-55.5 -220.5z" />
    <glyph glyph-name="sterling" unicode="&#xa3;" 
d="M1104 436l280 -32q-6 -223 -92.5 -323.5t-255.5 -100.5q-113 0 -210 46.5t-206 129.5q-56 -80 -136.5 -128t-171.5 -48q-134 0 -215 73.5t-81 194.5q0 124 83 196t217 72q56 0 136 -16q-9 70 -48 172h-280v176h184q-37 73 -56.5 136.5t-19.5 139.5q0 188 139 302t377 114
q220 0 358 -108.5t166 -287.5l-292 -84q-15 108 -77.5 164t-158.5 56q-87 0 -143.5 -50.5t-56.5 -137.5q0 -54 19 -109.5t57 -134.5h348v-176h-276q28 -98 28 -192q0 -40 -8 -104q122 -78 172 -99q60 -25 112 -25q32 0 53.5 14.5t32.5 42.5t15.5 57t6.5 70zM304 176
q52 0 88.5 30t51.5 86q-69 44 -132 44q-48 0 -76 -22.5t-28 -61.5q0 -35 27.5 -55.5t68.5 -20.5z" />
    <glyph glyph-name="currency" unicode="&#xa4;" 
d="M1208 760q0 -138 -72 -256l208 -208l-160 -160l-208 208q-118 -72 -256 -72t-256 72l-208 -208l-160 160l208 208q-72 118 -72 256t72 256l-208 208l160 160l208 -208q118 72 256 72t256 -72l208 208l160 -160l-208 -208q72 -118 72 -256zM496 760q0 -93 65.5 -158.5
t158.5 -65.5t158.5 65.5t65.5 158.5t-65.5 158.5t-158.5 65.5t-158.5 -65.5t-65.5 -158.5z" />
    <glyph glyph-name="yen" unicode="&#xa5;" horiz-adv-x="1564" 
d="M1544 1520l-488 -760h196v-176h-304v-144h304v-176h-304v-264h-344v264h-292v176h292v144h-292v176h188l-492 760h392l380 -616l380 616h384z" />
    <glyph glyph-name="brokenbar" unicode="&#xa6;" horiz-adv-x="720" 
d="M204 880v720h312v-720h-312zM516 480v-720h-312v720h312z" />
    <glyph glyph-name="section" unicode="&#xa7;" horiz-adv-x="1268" 
d="M972 368q176 -91 176 -268q0 -168 -140 -264t-388 -96q-151 0 -297 49t-247 135l156 220q80 -71 186.5 -109.5t213.5 -38.5q224 0 224 108q0 54 -65.5 85t-226.5 67q-117 29 -198 60t-146 76t-96.5 106t-31.5 142q0 94 58.5 166t165.5 118q-176 85 -176 268
q0 162 135 255t369 93q257 0 476 -148l-152 -228q-160 120 -344 120q-85 0 -140.5 -27t-55.5 -81q0 -23 11 -41.5t26.5 -30t48 -23.5t58.5 -19t75 -19q30 -7 45 -11q59 -12 94 -20.5t94 -26.5t95.5 -35.5t81.5 -47t70.5 -63t43 -80.5t17.5 -103q0 -196 -216 -288zM676 492
q96 0 160 35t64 105q0 53 -46 89.5t-110.5 51.5t-139.5 15q-96 0 -160 -35t-64 -105q0 -75 89.5 -115.5t206.5 -40.5z" />
    <glyph glyph-name="dieresis" unicode="&#xa8;" horiz-adv-x="640" 
d="M-76 1352v272h328v-272h-328zM388 1352v272h328v-272h-328z" />
    <glyph glyph-name="copyright" unicode="&#xa9;" horiz-adv-x="1752" 
d="M876 -20q-167 0 -312 58.5t-248 161.5t-161.5 248t-58.5 312t58.5 312t161.5 248t248 161.5t312 58.5t312 -58.5t248 -161.5t161.5 -248t58.5 -312t-58.5 -312t-161.5 -248t-248 -161.5t-312 -58.5zM876 148q264 0 434 172.5t170 439.5t-170 439.5t-434 172.5
t-434 -172.5t-170 -439.5t170 -439.5t434 -172.5zM892 336q-192 0 -306 116t-114 308t114 308t306 116q134 0 234.5 -66.5t133.5 -181.5l-228 -76q-35 112 -144 112q-81 0 -128.5 -56.5t-47.5 -155.5t47.5 -155.5t128.5 -56.5q109 0 144 112l228 -76q-33 -115 -133.5 -181.5
t-234.5 -66.5z" />
    <glyph glyph-name="guillemotleft" unicode="&#xab;" horiz-adv-x="1340" 
d="M108 528v304l504 340v-328l-236 -160l236 -164v-332zM1192 1172v-328l-236 -160l236 -164v-332l-504 340v304z" />
    <glyph glyph-name="logicalnot" unicode="&#xac;" 
d="M1272 884v-692h-256v444h-848v248h1104z" />
    <glyph glyph-name="registered" unicode="&#xae;" horiz-adv-x="1072" 
d="M536 1540q174 0 287 -113t113 -287t-113 -287t-287 -113t-287 113t-113 287t113 287t287 113zM536 852q126 0 207 81t81 207t-81 207t-207 81t-207 -81t-81 -207t81 -207t207 -81zM696 1060q0 -20 20 -20h4v-100h-60q-39 0 -61.5 22.5t-22.5 61.5v12q0 18 -7 25t-25 7
h-56v-128h-120v408h200q64 0 106 -34t42 -90q0 -76 -60 -100q40 -13 40 -60v-4zM552 1232h-64v-60h64q40 0 40 32q0 12 -11 20t-29 8z" />
    <glyph glyph-name="macron" unicode="&#xaf;" horiz-adv-x="640" 
d="M-24 1368v232h688v-232h-688z" />
    <glyph glyph-name="degree" unicode="&#xb0;" horiz-adv-x="1000" 
d="M500 820q-153 0 -258.5 103.5t-105.5 256.5t105.5 256.5t258.5 103.5t258.5 -103.5t105.5 -256.5t-105.5 -256.5t-258.5 -103.5zM500 1012q69 0 116.5 48t47.5 120t-47.5 120t-116.5 48t-116.5 -48t-47.5 -120t47.5 -120t116.5 -48z" />
    <glyph glyph-name="plusminus" unicode="&#xb1;" 
d="M848 1032h424v-248h-424v-428h-256v428h-424v248h424v428h256v-428zM168 -36v248h1104v-248h-1104z" />
    <glyph glyph-name="uni00B2" unicode="&#xb2;" horiz-adv-x="936" 
d="M464 1144h396v-200h-752v164l352 240q68 46 108 100.5t40 107.5q0 48 -34 76t-94 28q-71 0 -113.5 -40.5t-42.5 -107.5l-216 28q9 139 110.5 225.5t273.5 86.5q157 0 252.5 -73.5t95.5 -198.5q0 -92 -66.5 -177.5t-237.5 -206.5z" />
    <glyph glyph-name="uni00B3" unicode="&#xb3;" horiz-adv-x="936" 
d="M584 1492q114 -12 183 -83.5t69 -176.5q0 -132 -106.5 -216t-277.5 -84q-139 0 -241 57.5t-147 162.5l168 104q31 -61 88.5 -96.5t131.5 -35.5q72 0 114 33.5t42 90.5q0 52 -37.5 80t-94.5 28q-56 0 -104 -24l-92 116l232 192h-396v200h684v-176z" />
    <glyph glyph-name="acute" unicode="&#xb4;" horiz-adv-x="640" 
d="M216 1296l120 316h344l-244 -316h-220z" />
    <glyph glyph-name="paragraph" unicode="&#xb6;" horiz-adv-x="1684" 
d="M960 1520v-1920h-324v1024h-20q-236 0 -374 121.5t-138 326.5t138 326.5t374 121.5h344zM1156 1520h324v-1920h-324v1920z" />
    <glyph glyph-name="periodcentered" unicode="&#xb7;" horiz-adv-x="720" 
d="M172 492v376h376v-376h-376z" />
    <glyph glyph-name="cedilla" unicode="&#xb8;" horiz-adv-x="640" 
d="M424 -68q93 0 152.5 -48.5t59.5 -123.5q0 -90 -79.5 -145t-208.5 -55q-157 0 -268 76l80 136q76 -60 176 -60q47 0 75.5 13.5t28.5 34.5t-19.5 34.5t-52.5 13.5q-52 0 -76 -24l-124 64l112 184h180l-64 -100h28z" />
    <glyph glyph-name="uni00B9" unicode="&#xb9;" horiz-adv-x="760" 
d="M576 1840v-896h-228v556h-248v184h72q124 0 169.5 32.5t54.5 123.5h180z" />
    <glyph glyph-name="guillemotright" unicode="&#xbb;" horiz-adv-x="1340" 
d="M148 840v332l504 -340v-304l-504 -340v328l236 160zM728 1172l504 -340v-304l-504 -340v328l236 160l-236 164v332z" />
    <glyph glyph-name="onequarter" unicode="&#xbc;" horiz-adv-x="1776" 
d="M348 624v556h-248v184h72q124 0 169.5 32.5t54.5 123.5h180v-896h-228zM1236 1520h220l-964 -1520h-220zM1728 388v-196h-140v-192h-216v192h-476v184l416 520h276v-508h140zM1128 388h244v304z" />
    <glyph glyph-name="onehalf" unicode="&#xbd;" horiz-adv-x="1776" 
d="M348 624v556h-248v184h72q124 0 169.5 32.5t54.5 123.5h180v-896h-228zM1172 1520h220l-964 -1520h-220zM1304 200h396v-200h-752v164l352 240q68 46 108 100.5t40 107.5q0 48 -34 76t-94 28q-71 0 -113.5 -40.5t-42.5 -107.5l-216 28q9 139 110.5 225.5t273.5 86.5
q157 0 252.5 -73.5t95.5 -198.5q0 -92 -66.5 -177.5t-237.5 -206.5z" />
    <glyph glyph-name="threequarters" unicode="&#xbe;" horiz-adv-x="1952" 
d="M836 912q0 -132 -106.5 -216t-277.5 -84q-139 0 -241 57.5t-147 162.5l168 104q31 -61 88.5 -96.5t131.5 -35.5q72 0 114 33.5t42 90.5q0 52 -37.5 80t-94.5 28q-56 0 -104 -24l-92 116l232 192h-396v200h684v-176l-216 -172q114 -12 183 -83.5t69 -176.5zM1400 1520h220
l-964 -1520h-220zM1904 388v-196h-140v-192h-216v192h-476v184l416 520h276v-508h140zM1304 388h244v304z" />
    <glyph glyph-name="questiondown" unicode="&#xbf;" horiz-adv-x="1276" 
d="M832 1200v-376h-376v376h376zM788 664q6 -104 -33 -170t-163 -166q-93 -75 -122.5 -118t-29.5 -106q0 -84 55 -132t149 -48q115 0 187.5 74.5t84.5 205.5l296 -52q-24 -226 -178.5 -359t-393.5 -133q-234 0 -377 115.5t-143 304.5q0 115 53 201.5t175 170.5
q85 58 122.5 104t37.5 96v12h280z" />
    <glyph glyph-name="Agrave" unicode="&#xc0;" horiz-adv-x="1648" 
d="M928 1616h-220l-244 316h344zM1260 0l-108 300h-664l-108 -300h-360l592 1520h424l592 -1520h-368zM596 596h448l-224 624z" />
    <glyph glyph-name="Aacute" unicode="&#xc1;" horiz-adv-x="1648" 
d="M1184 1932l-244 -316h-220l120 316h344zM1260 0l-108 300h-664l-108 -300h-360l592 1520h424l592 -1520h-368zM596 596h448l-224 624z" />
    <glyph glyph-name="Acircumflex" unicode="&#xc2;" horiz-adv-x="1648" 
d="M832 1768l-152 -152h-264l260 316h312l256 -316h-264zM1260 0l-108 300h-664l-108 -300h-360l592 1520h424l592 -1520h-368zM596 596h448l-224 624z" />
    <glyph glyph-name="Atilde" unicode="&#xc3;" horiz-adv-x="1648" 
d="M712 1728q-39 0 -64.5 -22.5t-43.5 -73.5l-180 92q32 103 103 159.5t157 56.5q53 0 103.5 -25t91 -50t69.5 -25q39 0 64.5 22.5t43.5 73.5l180 -92q-29 -103 -100 -159.5t-160 -56.5q-53 0 -103.5 25t-91 50t-69.5 25zM1260 0l-108 300h-664l-108 -300h-360l592 1520h424
l592 -1520h-368zM596 596h448l-224 624z" />
    <glyph glyph-name="Adieresis" unicode="&#xc4;" horiz-adv-x="1648" 
d="M756 1944v-272h-328v272h328zM1220 1944v-272h-328v272h328zM1260 0l-108 300h-664l-108 -300h-360l592 1520h424l592 -1520h-368zM596 596h448l-224 624z" />
    <glyph glyph-name="Aring" unicode="&#xc5;" horiz-adv-x="1648" 
d="M1260 0l-108 300h-664l-108 -300h-360l592 1516q-88 82 -88 216q0 129 85.5 212.5t214.5 83.5t214.5 -83.5t85.5 -212.5q0 -134 -88 -216l592 -1516h-368zM824 1844q-48 0 -80 -32t-32 -80q0 -51 32 -83.5t80 -32.5t80 32.5t32 83.5q0 48 -32 80t-80 32zM596 596h448
l-224 624z" />
    <glyph glyph-name="AE" unicode="&#xc6;" horiz-adv-x="2040" 
d="M1404 300h556v-300h-804l-108 312h-576l-104 -312h-348l544 1520h1376v-300h-864l108 -300h584v-280h-484zM564 584h392l-196 580z" />
    <glyph glyph-name="Ccedilla" unicode="&#xc7;" horiz-adv-x="1564" 
d="M832 268q255 0 340 268l324 -112q-57 -189 -204 -304t-360 -136l-32 -52h28q93 0 152.5 -48.5t59.5 -123.5q0 -90 -79.5 -145t-208.5 -55q-157 0 -268 76l80 136q76 -60 176 -60q47 0 75.5 13.5t28.5 34.5t-19.5 34.5t-52.5 13.5q-52 0 -76 -24l-124 64l84 136
q-301 27 -480.5 237t-179.5 539q0 231 93 408.5t262 274.5t389 97q246 0 418 -117t238 -327l-324 -112q-85 268 -340 268q-177 0 -280.5 -132t-103.5 -360q0 -229 102 -360.5t282 -131.5z" />
    <glyph glyph-name="Egrave" unicode="&#xc8;" horiz-adv-x="1404" 
d="M876 1616h-220l-244 316h344zM540 300h784v-300h-1120v1520h1100v-300h-764v-296h584v-288h-584v-336z" />
    <glyph glyph-name="Eacute" unicode="&#xc9;" horiz-adv-x="1404" 
d="M1132 1932l-244 -316h-220l120 316h344zM540 300h784v-300h-1120v1520h1100v-300h-764v-296h584v-288h-584v-336z" />
    <glyph glyph-name="Ecircumflex" unicode="&#xca;" horiz-adv-x="1404" 
d="M780 1768l-152 -152h-264l260 316h312l256 -316h-264zM540 300h784v-300h-1120v1520h1100v-300h-764v-296h584v-288h-584v-336z" />
    <glyph glyph-name="Edieresis" unicode="&#xcb;" horiz-adv-x="1404" 
d="M704 1944v-272h-328v272h328zM1168 1944v-272h-328v272h328zM540 300h784v-300h-1120v1520h1100v-300h-764v-296h584v-288h-584v-336z" />
    <glyph glyph-name="Igrave" unicode="&#xcc;" horiz-adv-x="752" 
d="M480 1616h-220l-244 316h344zM204 0v1520h344v-1520h-344z" />
    <glyph glyph-name="Iacute" unicode="&#xcd;" horiz-adv-x="752" 
d="M272 1616l120 316h344l-244 -316h-220zM204 0v1520h344v-1520h-344z" />
    <glyph glyph-name="Icircumflex" unicode="&#xce;" horiz-adv-x="752" 
d="M384 1768l-152 -152h-264l260 316h312l256 -316h-264zM204 0v1520h344v-1520h-344z" />
    <glyph glyph-name="Idieresis" unicode="&#xcf;" horiz-adv-x="752" 
d="M-20 1672v272h328v-272h-328zM444 1672v272h328v-272h-328zM204 0v1520h344v-1520h-344z" />
    <glyph glyph-name="Eth" unicode="&#xd0;" horiz-adv-x="1660" 
d="M796 1520q364 0 566 -205t202 -555q0 -224 -91 -395.5t-266 -268t-411 -96.5h-592v668h-164v224h164v628h592zM788 288q205 0 314.5 124t109.5 348t-109.5 348t-314.5 124h-240v-340h272v-224h-272v-380h240z" />
    <glyph glyph-name="Ntilde" unicode="&#xd1;" horiz-adv-x="1744" 
d="M780 1728q-39 0 -64.5 -22.5t-43.5 -73.5l-180 92q32 103 103 159.5t157 56.5q53 0 103.5 -25t91 -50t69.5 -25q39 0 64.5 22.5t43.5 73.5l180 -92q-29 -103 -100 -159.5t-160 -56.5q-53 0 -103.5 25t-91 50t-69.5 25zM1208 1520h332v-1520h-320l-684 968v-968h-332v1520
h324l680 -968v968z" />
    <glyph glyph-name="Ograve" unicode="&#xd2;" horiz-adv-x="1704" 
d="M956 1616h-220l-244 316h344zM852 -20q-342 0 -549 213t-207 567q0 231 94.5 408.5t266 274.5t395.5 97q342 0 549 -213t207 -567q0 -231 -94.5 -408.5t-266 -274.5t-395.5 -97zM852 276q183 0 293.5 132.5t110.5 351.5t-110.5 351.5t-293.5 132.5t-293.5 -132.5
t-110.5 -351.5t110.5 -351.5t293.5 -132.5z" />
    <glyph glyph-name="Oacute" unicode="&#xd3;" horiz-adv-x="1704" 
d="M748 1616l120 316h344l-244 -316h-220zM852 -20q-342 0 -549 213t-207 567q0 231 94.5 408.5t266 274.5t395.5 97q342 0 549 -213t207 -567q0 -231 -94.5 -408.5t-266 -274.5t-395.5 -97zM852 276q183 0 293.5 132.5t110.5 351.5t-110.5 351.5t-293.5 132.5
t-293.5 -132.5t-110.5 -351.5t110.5 -351.5t293.5 -132.5z" />
    <glyph glyph-name="Ocircumflex" unicode="&#xd4;" horiz-adv-x="1704" 
d="M860 1768l-152 -152h-264l260 316h312l256 -316h-264zM852 1540q342 0 549 -213t207 -567q0 -231 -94.5 -408.5t-266 -274.5t-395.5 -97q-342 0 -549 213t-207 567q0 231 94.5 408.5t266 274.5t395.5 97zM852 276q183 0 293.5 132.5t110.5 351.5t-110.5 351.5
t-293.5 132.5t-293.5 -132.5t-110.5 -351.5t110.5 -351.5t293.5 -132.5z" />
    <glyph glyph-name="Otilde" unicode="&#xd5;" horiz-adv-x="1704" 
d="M1264 1844q-29 -103 -100 -159.5t-160 -56.5q-53 0 -103.5 25t-91 50t-69.5 25q-39 0 -64.5 -22.5t-43.5 -73.5l-180 92q32 103 103 159.5t157 56.5q53 0 103.5 -25t91 -50t69.5 -25q39 0 64.5 22.5t43.5 73.5zM852 -20q-342 0 -549 213t-207 567q0 231 94.5 408.5
t266 274.5t395.5 97q342 0 549 -213t207 -567q0 -231 -94.5 -408.5t-266 -274.5t-395.5 -97zM852 276q183 0 293.5 132.5t110.5 351.5t-110.5 351.5t-293.5 132.5t-293.5 -132.5t-110.5 -351.5t110.5 -351.5t293.5 -132.5z" />
    <glyph glyph-name="Odieresis" unicode="&#xd6;" horiz-adv-x="1704" 
d="M456 1672v272h328v-272h-328zM920 1672v272h328v-272h-328zM852 -20q-342 0 -549 213t-207 567q0 231 94.5 408.5t266 274.5t395.5 97q342 0 549 -213t207 -567q0 -231 -94.5 -408.5t-266 -274.5t-395.5 -97zM852 276q183 0 293.5 132.5t110.5 351.5t-110.5 351.5
t-293.5 132.5t-293.5 -132.5t-110.5 -351.5t110.5 -351.5t293.5 -132.5z" />
    <glyph glyph-name="multiply" unicode="&#xd7;" 
d="M1240 1104l-344 -344l344 -344l-176 -176l-344 344l-344 -344l-176 176l344 344l-344 344l176 176l344 -344l344 344z" />
    <glyph glyph-name="Oslash" unicode="&#xd8;" horiz-adv-x="1704" 
d="M1616 1540l-188 -244q180 -205 180 -536q0 -231 -94.5 -408.5t-266 -274.5t-395.5 -97q-210 0 -380 88l-68 -88h-316l188 244q-180 205 -180 536q0 231 94.5 408.5t266 274.5t395.5 97q210 0 380 -88l68 88h316zM448 760q0 -144 48 -252l540 692q-82 44 -184 44
q-183 0 -293.5 -132.5t-110.5 -351.5zM1256 760q0 144 -48 252l-540 -692q82 -44 184 -44q183 0 293.5 132.5t110.5 351.5z" />
    <glyph glyph-name="Ugrave" unicode="&#xd9;" horiz-adv-x="1728" 
d="M968 1616h-220l-244 316h344zM864 -20q-316 0 -498 171t-182 461v908h344v-896q0 -162 87 -251t249 -89t249 89t87 251v896h344v-908q0 -290 -182 -461t-498 -171z" />
    <glyph glyph-name="Uacute" unicode="&#xda;" horiz-adv-x="1728" 
d="M760 1616l120 316h344l-244 -316h-220zM864 -20q-316 0 -498 171t-182 461v908h344v-896q0 -162 87 -251t249 -89t249 89t87 251v896h344v-908q0 -290 -182 -461t-498 -171z" />
    <glyph glyph-name="Ucircumflex" unicode="&#xdb;" horiz-adv-x="1728" 
d="M872 1768l-152 -152h-264l260 316h312l256 -316h-264zM1200 1520h344v-908q0 -290 -182 -461t-498 -171t-498 171t-182 461v908h344v-896q0 -162 87 -251t249 -89t249 89t87 251v896z" />
    <glyph glyph-name="Udieresis" unicode="&#xdc;" horiz-adv-x="1728" 
d="M468 1672v272h328v-272h-328zM932 1672v272h328v-272h-328zM864 -20q-316 0 -498 171t-182 461v908h344v-896q0 -162 87 -251t249 -89t249 89t87 251v896h344v-908q0 -290 -182 -461t-498 -171z" />
    <glyph glyph-name="Yacute" unicode="&#xdd;" horiz-adv-x="1560" 
d="M1144 1932l-244 -316h-220l120 316h344zM1548 1520l-596 -928v-592h-344v596l-596 924h392l380 -616l380 616h384z" />
    <glyph glyph-name="Thorn" unicode="&#xde;" horiz-adv-x="1508" 
d="M852 1268q273 0 426.5 -128.5t153.5 -359.5t-153.5 -359.5t-426.5 -128.5h-304v-292h-344v1520h344v-252h304zM820 548q129 0 198.5 55.5t69.5 160.5q0 107 -69 163.5t-199 56.5h-272v-436h272z" />
    <glyph glyph-name="germandbls" unicode="&#xdf;" horiz-adv-x="1600" 
d="M1056 -20q-268 0 -456 144l156 220q125 -100 292 -100q180 0 180 76q0 41 -44 67t-160 57q-200 68 -276 137t-76 195q0 48 16 90t37.5 70t60 56.5t65 43t69.5 36.5q73 36 108.5 65.5t35.5 70.5q0 78 -73.5 123t-202.5 45q-147 0 -225.5 -60.5t-78.5 -171.5v-1144h-320
v1160q0 225 171 354.5t465 129.5q255 0 421.5 -113t166.5 -287q0 -69 -21 -126.5t-49 -94t-74.5 -70t-79 -49.5t-80.5 -36q-56 -23 -82 -43t-26 -45q0 -16 10 -28t36 -22t47 -16.5t67 -17.5q38 -11 59 -17t59.5 -19.5t61.5 -24.5t57 -29t54.5 -36.5t44.5 -44.5t37 -54.5
t22 -65t9 -77.5q0 -162 -129.5 -255t-354.5 -93z" />
    <glyph glyph-name="agrave" unicode="&#xe0;" horiz-adv-x="1328" 
d="M740 1296h-220l-244 316h344zM1204 276h48v-276q-48 -8 -116 -8q-111 0 -172.5 43.5t-79.5 136.5q-63 -90 -173.5 -141t-242.5 -51q-177 0 -284.5 96t-107.5 252q0 65 17.5 118.5t45 91.5t71 68t85 48.5t98 33t99.5 22t100 14.5q59 7 97 14t75 19t54.5 30.5t17.5 44.5
q0 58 -57.5 93t-158.5 35q-188 0 -328 -140l-192 196q216 204 540 204q234 0 365 -107.5t131 -296.5v-472q0 -68 68 -68zM540 232q120 0 204 68.5t84 167.5v104q-23 -13 -58 -24t-61.5 -16t-84.5 -16q-34 -5 -53 -8.5t-48.5 -10.5t-46 -14t-36.5 -19t-30.5 -26t-18 -34
t-7.5 -44q0 -60 40.5 -94t115.5 -34z" />
    <glyph glyph-name="aacute" unicode="&#xe1;" horiz-adv-x="1328" 
d="M996 1612l-244 -316h-220l120 316h344zM1204 276h48v-276q-48 -8 -116 -8q-111 0 -172.5 43.5t-79.5 136.5q-63 -90 -173.5 -141t-242.5 -51q-177 0 -284.5 96t-107.5 252q0 65 17.5 118.5t45 91.5t71 68t85 48.5t98 33t99.5 22t100 14.5q59 7 97 14t75 19t54.5 30.5
t17.5 44.5q0 58 -57.5 93t-158.5 35q-188 0 -328 -140l-192 196q216 204 540 204q234 0 365 -107.5t131 -296.5v-472q0 -68 68 -68zM540 232q120 0 204 68.5t84 167.5v104q-23 -13 -58 -24t-61.5 -16t-84.5 -16q-34 -5 -53 -8.5t-48.5 -10.5t-46 -14t-36.5 -19t-30.5 -26
t-18 -34t-7.5 -44q0 -60 40.5 -94t115.5 -34z" />
    <glyph glyph-name="acircumflex" unicode="&#xe2;" horiz-adv-x="1328" 
d="M644 1448l-152 -152h-264l260 316h312l256 -316h-264zM1204 276h48v-276q-48 -8 -116 -8q-111 0 -172.5 43.5t-79.5 136.5q-63 -90 -173.5 -141t-242.5 -51q-177 0 -284.5 96t-107.5 252q0 65 17.5 118.5t45 91.5t71 68t85 48.5t98 33t99.5 22t100 14.5q59 7 97 14t75 19
t54.5 30.5t17.5 44.5q0 58 -57.5 93t-158.5 35q-188 0 -328 -140l-192 196q216 204 540 204q234 0 365 -107.5t131 -296.5v-472q0 -68 68 -68zM540 232q120 0 204 68.5t84 167.5v104q-23 -13 -58 -24t-61.5 -16t-84.5 -16q-34 -5 -53 -8.5t-48.5 -10.5t-46 -14t-36.5 -19
t-30.5 -26t-18 -34t-7.5 -44q0 -60 40.5 -94t115.5 -34z" />
    <glyph glyph-name="atilde" unicode="&#xe3;" horiz-adv-x="1328" 
d="M524 1408q-39 0 -64.5 -22.5t-43.5 -73.5l-180 92q32 103 103 159.5t157 56.5q53 0 103.5 -25t91 -50t69.5 -25q39 0 64.5 22.5t43.5 73.5l180 -92q-29 -103 -100 -159.5t-160 -56.5q-53 0 -103.5 25t-91 50t-69.5 25zM1204 276h48v-276q-48 -8 -116 -8
q-111 0 -172.5 43.5t-79.5 136.5q-63 -90 -173.5 -141t-242.5 -51q-177 0 -284.5 96t-107.5 252q0 65 17.5 118.5t45 91.5t71 68t85 48.5t98 33t99.5 22t100 14.5q59 7 97 14t75 19t54.5 30.5t17.5 44.5q0 58 -57.5 93t-158.5 35q-188 0 -328 -140l-192 196q216 204 540 204
q234 0 365 -107.5t131 -296.5v-472q0 -68 68 -68zM540 232q120 0 204 68.5t84 167.5v104q-23 -13 -58 -24t-61.5 -16t-84.5 -16q-34 -5 -53 -8.5t-48.5 -10.5t-46 -14t-36.5 -19t-30.5 -26t-18 -34t-7.5 -44q0 -60 40.5 -94t115.5 -34z" />
    <glyph glyph-name="adieresis" unicode="&#xe4;" horiz-adv-x="1328" 
d="M568 1624v-272h-328v272h328zM1032 1624v-272h-328v272h328zM1204 276h48v-276q-48 -8 -116 -8q-111 0 -172.5 43.5t-79.5 136.5q-63 -90 -173.5 -141t-242.5 -51q-177 0 -284.5 96t-107.5 252q0 65 17.5 118.5t45 91.5t71 68t85 48.5t98 33t99.5 22t100 14.5q59 7 97 14
t75 19t54.5 30.5t17.5 44.5q0 58 -57.5 93t-158.5 35q-188 0 -328 -140l-192 196q216 204 540 204q234 0 365 -107.5t131 -296.5v-472q0 -68 68 -68zM540 232q120 0 204 68.5t84 167.5v104q-23 -13 -58 -24t-61.5 -16t-84.5 -16q-34 -5 -53 -8.5t-48.5 -10.5t-46 -14
t-36.5 -19t-30.5 -26t-18 -34t-7.5 -44q0 -60 40.5 -94t115.5 -34z" />
    <glyph glyph-name="aring" unicode="&#xe5;" horiz-adv-x="1328" 
d="M636 1300q-130 0 -215 82.5t-85 213.5q0 129 85.5 212.5t214.5 83.5t214.5 -83.5t85.5 -212.5q0 -131 -85 -213.5t-215 -82.5zM636 1708q-48 0 -80 -32t-32 -80q0 -51 32 -83.5t80 -32.5t80 32.5t32 83.5q0 48 -32 80t-80 32zM1204 276h48v-276q-48 -8 -116 -8
q-111 0 -172.5 43.5t-79.5 136.5q-63 -90 -173.5 -141t-242.5 -51q-177 0 -284.5 96t-107.5 252q0 65 17.5 118.5t45 91.5t71 68t85 48.5t98 33t99.5 22t100 14.5q59 7 97 14t75 19t54.5 30.5t17.5 44.5q0 58 -57.5 93t-158.5 35q-188 0 -328 -140l-192 196q216 204 540 204
q234 0 365 -107.5t131 -296.5v-472q0 -68 68 -68zM540 232q120 0 204 68.5t84 167.5v104q-23 -13 -58 -24t-61.5 -16t-84.5 -16q-34 -5 -53 -8.5t-48.5 -10.5t-46 -14t-36.5 -19t-30.5 -26t-18 -34t-7.5 -44q0 -60 40.5 -94t115.5 -34z" />
    <glyph glyph-name="ae" unicode="&#xe6;" horiz-adv-x="2044" 
d="M1100 508q21 -129 100 -198.5t208 -69.5q198 0 320 136l188 -188q-195 -208 -512 -208q-147 0 -263 55.5t-189 156.5q-71 -96 -183.5 -154t-260.5 -58q-195 0 -313.5 96.5t-118.5 255.5q0 320 476 380q25 3 68 9q143 19 179.5 35t36.5 72q0 58 -56.5 95t-151.5 37
q-184 0 -336 -140l-192 200q206 200 504 200q134 0 231.5 -45.5t152.5 -130.5q157 176 420 176q252 0 406 -170.5t154 -449.5q0 -56 -8 -92h-860zM1384 964q-113 0 -186.5 -65.5t-97.5 -186.5h552q-21 120 -90.5 186t-177.5 66zM544 232q121 0 202.5 69.5t81.5 186.5v88
q-70 -29 -208 -48q-129 -21 -184.5 -60t-55.5 -108q0 -60 44.5 -94t119.5 -34z" />
    <glyph glyph-name="ccedilla" unicode="&#xe7;" horiz-adv-x="1300" 
d="M696 244q92 0 157.5 48.5t98.5 139.5l304 -92q-45 -149 -166.5 -242t-293.5 -114l-36 -52h28q93 0 152.5 -48.5t59.5 -123.5q0 -90 -79.5 -145t-208.5 -55q-157 0 -268 76l80 136q76 -60 176 -60q47 0 75.5 13.5t28.5 34.5t-19.5 34.5t-52.5 13.5q-52 0 -76 -24l-124 64
l84 136q-244 27 -390 193t-146 423q0 279 170.5 449.5t449.5 170.5q208 0 356.5 -95t199.5 -265l-304 -92q-33 91 -98.5 139.5t-157.5 48.5q-132 0 -210 -95.5t-78 -260.5t78 -260.5t210 -95.5z" />
    <glyph glyph-name="egrave" unicode="&#xe8;" horiz-adv-x="1360" 
d="M784 1296h-220l-244 316h344zM396 496q24 -121 106 -186.5t210 -65.5q205 0 328 136l196 -192q-195 -208 -528 -208q-153 0 -273.5 46.5t-197.5 130t-117 196t-40 247.5q0 277 166.5 448.5t441.5 171.5q273 0 434.5 -169t161.5 -451q0 -48 -12 -104h-876zM688 964
q-110 0 -185.5 -62t-102.5 -174h564q-24 114 -94.5 175t-181.5 61z" />
    <glyph glyph-name="eacute" unicode="&#xe9;" horiz-adv-x="1360" 
d="M1040 1612l-244 -316h-220l120 316h344zM396 496q24 -121 106 -186.5t210 -65.5q205 0 328 136l196 -192q-195 -208 -528 -208q-153 0 -273.5 46.5t-197.5 130t-117 196t-40 247.5q0 277 166.5 448.5t441.5 171.5q273 0 434.5 -169t161.5 -451q0 -48 -12 -104h-876z
M688 964q-110 0 -185.5 -62t-102.5 -174h564q-24 114 -94.5 175t-181.5 61z" />
    <glyph glyph-name="ecircumflex" unicode="&#xea;" horiz-adv-x="1360" 
d="M688 1448l-152 -152h-264l260 316h312l256 -316h-264zM396 496q24 -121 106 -186.5t210 -65.5q205 0 328 136l196 -192q-195 -208 -528 -208q-153 0 -273.5 46.5t-197.5 130t-117 196t-40 247.5q0 277 166.5 448.5t441.5 171.5q273 0 434.5 -169t161.5 -451
q0 -48 -12 -104h-876zM688 964q-110 0 -185.5 -62t-102.5 -174h564q-24 114 -94.5 175t-181.5 61z" />
    <glyph glyph-name="edieresis" unicode="&#xeb;" horiz-adv-x="1360" 
d="M612 1624v-272h-328v272h328zM1076 1624v-272h-328v272h328zM396 496q24 -121 106 -186.5t210 -65.5q205 0 328 136l196 -192q-195 -208 -528 -208q-153 0 -273.5 46.5t-197.5 130t-117 196t-40 247.5q0 277 166.5 448.5t441.5 171.5q273 0 434.5 -169t161.5 -451
q0 -48 -12 -104h-876zM688 964q-110 0 -185.5 -62t-102.5 -174h564q-24 114 -94.5 175t-181.5 61z" />
    <glyph glyph-name="igrave" unicode="&#xec;" horiz-adv-x="688" 
d="M448 1296h-220l-244 316h344zM184 0v1200h320v-1200h-320z" />
    <glyph glyph-name="iacute" unicode="&#xed;" horiz-adv-x="688" 
d="M240 1296l120 316h344l-244 -316h-220zM184 0v1200h320v-1200h-320z" />
    <glyph glyph-name="icircumflex" unicode="&#xee;" horiz-adv-x="688" 
d="M352 1448l-152 -152h-264l260 316h312l256 -316h-264zM184 0v1200h320v-1200h-320z" />
    <glyph glyph-name="idieresis" unicode="&#xef;" horiz-adv-x="688" 
d="M-52 1352v272h328v-272h-328zM412 1352v272h328v-272h-328zM184 0v1200h320v-1200h-320z" />
    <glyph glyph-name="eth" unicode="&#xf0;" horiz-adv-x="1356" 
d="M944 1416q173 -142 264.5 -337.5t91.5 -430.5q0 -312 -166.5 -490t-457.5 -178q-273 0 -434.5 152.5t-161.5 407.5q0 237 145 392.5t367 155.5q206 0 340 -128q-49 190 -244 320l-224 -124l-100 160l128 68q-71 29 -144 52l120 216q162 -42 300 -120l260 144l100 -160z
M692 232q129 0 206.5 83t77.5 221q0 133 -78 214.5t-206 81.5q-130 0 -209 -81t-79 -215q0 -138 79.5 -221t208.5 -83z" />
    <glyph glyph-name="ntilde" unicode="&#xf1;" 
d="M612 1408q-39 0 -64.5 -22.5t-43.5 -73.5l-180 92q32 103 103 159.5t157 56.5q53 0 103.5 -25t91 -50t69.5 -25q39 0 64.5 22.5t43.5 73.5l180 -92q-29 -103 -100 -159.5t-160 -56.5q-53 0 -103.5 25t-91 50t-69.5 25zM864 1220q193 0 312.5 -127t119.5 -333v-760h-320
v688q0 128 -57 198t-159 70q-116 0 -196 -77t-80 -195v-684h-320v1200h288l12 -168q70 88 174.5 138t225.5 50z" />
    <glyph glyph-name="ograve" unicode="&#xf2;" horiz-adv-x="1416" 
d="M812 1296h-220l-244 316h344zM708 -20q-285 0 -456.5 169t-171.5 451q0 279 173 449.5t455 170.5q285 0 456.5 -169t171.5 -451q0 -279 -173 -449.5t-455 -170.5zM708 244q139 0 219.5 94.5t80.5 261.5t-80.5 261.5t-219.5 94.5t-219.5 -94.5t-80.5 -261.5t80.5 -261.5
t219.5 -94.5z" />
    <glyph glyph-name="oacute" unicode="&#xf3;" horiz-adv-x="1416" 
d="M604 1296l120 316h344l-244 -316h-220zM708 -20q-285 0 -456.5 169t-171.5 451q0 279 173 449.5t455 170.5q285 0 456.5 -169t171.5 -451q0 -279 -173 -449.5t-455 -170.5zM708 244q139 0 219.5 94.5t80.5 261.5t-80.5 261.5t-219.5 94.5t-219.5 -94.5t-80.5 -261.5
t80.5 -261.5t219.5 -94.5z" />
    <glyph glyph-name="ocircumflex" unicode="&#xf4;" horiz-adv-x="1416" 
d="M716 1448l-152 -152h-264l260 316h312l256 -316h-264zM708 1220q285 0 456.5 -169t171.5 -451q0 -279 -173 -449.5t-455 -170.5q-285 0 -456.5 169t-171.5 451q0 279 173 449.5t455 170.5zM708 244q139 0 219.5 94.5t80.5 261.5t-80.5 261.5t-219.5 94.5t-219.5 -94.5
t-80.5 -261.5t80.5 -261.5t219.5 -94.5z" />
    <glyph glyph-name="otilde" unicode="&#xf5;" horiz-adv-x="1416" 
d="M1120 1524q-29 -103 -100 -159.5t-160 -56.5q-53 0 -103.5 25t-91 50t-69.5 25q-39 0 -64.5 -22.5t-43.5 -73.5l-180 92q32 103 103 159.5t157 56.5q53 0 103.5 -25t91 -50t69.5 -25q39 0 64.5 22.5t43.5 73.5zM708 -20q-285 0 -456.5 169t-171.5 451q0 279 173 449.5
t455 170.5q285 0 456.5 -169t171.5 -451q0 -279 -173 -449.5t-455 -170.5zM708 244q139 0 219.5 94.5t80.5 261.5t-80.5 261.5t-219.5 94.5t-219.5 -94.5t-80.5 -261.5t80.5 -261.5t219.5 -94.5z" />
    <glyph glyph-name="odieresis" unicode="&#xf6;" horiz-adv-x="1416" 
d="M312 1352v272h328v-272h-328zM776 1352v272h328v-272h-328zM708 -20q-285 0 -456.5 169t-171.5 451q0 279 173 449.5t455 170.5q285 0 456.5 -169t171.5 -451q0 -279 -173 -449.5t-455 -170.5zM708 244q139 0 219.5 94.5t80.5 261.5t-80.5 261.5t-219.5 94.5
t-219.5 -94.5t-80.5 -261.5t80.5 -261.5t219.5 -94.5z" />
    <glyph glyph-name="divide" unicode="&#xf7;" 
d="M548 1064v272h344v-272h-344zM168 636v248h1104v-248h-1104zM548 184v272h344v-272h-344z" />
    <glyph glyph-name="oslash" unicode="&#xf8;" horiz-adv-x="1416" 
d="M1184 1032q152 -171 152 -432q0 -279 -173 -449.5t-455 -170.5q-150 0 -264 48l-36 -48h-288l128 172q-168 168 -168 448q0 279 173 449.5t455 170.5q153 0 284 -56l40 56h288zM408 600q0 -101 32 -184l384 520q-60 20 -116 20q-139 0 -219.5 -94.5t-80.5 -261.5z
M708 244q139 0 219.5 94.5t80.5 261.5q0 94 -24 160l-372 -504q42 -12 96 -12z" />
    <glyph glyph-name="ugrave" unicode="&#xf9;" 
d="M816 1296h-220l-244 316h344zM956 1200h320v-1200h-288l-12 168q-70 -88 -174.5 -138t-225.5 -50q-193 0 -312.5 127t-119.5 333v760h320v-688q0 -128 57 -198t159 -70q116 0 196 77t80 195v684z" />
    <glyph glyph-name="uacute" unicode="&#xfa;" 
d="M1072 1612l-244 -316h-220l120 316h344zM956 1200h320v-1200h-288l-12 168q-70 -88 -174.5 -138t-225.5 -50q-193 0 -312.5 127t-119.5 333v760h320v-688q0 -128 57 -198t159 -70q116 0 196 77t80 195v684z" />
    <glyph glyph-name="ucircumflex" unicode="&#xfb;" 
d="M720 1448l-152 -152h-264l260 316h312l256 -316h-264zM956 1200h320v-1200h-288l-12 168q-70 -88 -174.5 -138t-225.5 -50q-193 0 -312.5 127t-119.5 333v760h320v-688q0 -128 57 -198t159 -70q116 0 196 77t80 195v684z" />
    <glyph glyph-name="udieresis" unicode="&#xfc;" 
d="M644 1624v-272h-328v272h328zM1108 1624v-272h-328v272h328zM956 1200h320v-1200h-288l-12 168q-70 -88 -174.5 -138t-225.5 -50q-193 0 -312.5 127t-119.5 333v760h320v-688q0 -128 57 -198t159 -70q116 0 196 77t80 195v684z" />
    <glyph glyph-name="yacute" unicode="&#xfd;" horiz-adv-x="1372" 
d="M1048 1612l-244 -316h-220l120 316h344zM1012 1200h336l-416 -1200q-148 -420 -472 -420q-86 0 -155 22t-113.5 58.5t-75.5 86.5t-45.5 102.5t-18.5 110.5l300 52q6 -156 116 -156q66 0 120 84l-564 1260h352l364 -904z" />
    <glyph glyph-name="thorn" unicode="&#xfe;" horiz-adv-x="1448" 
d="M856 1220q234 0 373 -169t139 -451q0 -278 -141.5 -449t-370.5 -171q-225 0 -372 160v-540h-320v2000h320v-548q143 168 372 168zM756 244q135 0 211.5 95.5t76.5 260.5t-76.5 260.5t-211.5 95.5q-134 0 -209 -95t-75 -261t75 -261t209 -95z" />
    <glyph glyph-name="ydieresis" unicode="&#xff;" horiz-adv-x="1372" 
d="M620 1624v-272h-328v272h328zM1084 1624v-272h-328v272h328zM1012 1200h336l-416 -1200q-148 -420 -472 -420q-86 0 -155 22t-113.5 58.5t-75.5 86.5t-45.5 102.5t-18.5 110.5l300 52q6 -156 116 -156q66 0 120 84l-564 1260h352l364 -904z" />
    <glyph glyph-name="Amacron" unicode="&#x100;" horiz-adv-x="1648" 
d="M1168 1920v-232h-688v232h688zM1260 0l-108 300h-664l-108 -300h-360l592 1520h424l592 -1520h-368zM596 596h448l-224 624z" />
    <glyph glyph-name="amacron" unicode="&#x101;" horiz-adv-x="1328" 
d="M980 1600v-232h-688v232h688zM1204 276h48v-276q-48 -8 -116 -8q-111 0 -172.5 43.5t-79.5 136.5q-63 -90 -173.5 -141t-242.5 -51q-177 0 -284.5 96t-107.5 252q0 65 17.5 118.5t45 91.5t71 68t85 48.5t98 33t99.5 22t100 14.5q59 7 97 14t75 19t54.5 30.5t17.5 44.5
q0 58 -57.5 93t-158.5 35q-188 0 -328 -140l-192 196q216 204 540 204q234 0 365 -107.5t131 -296.5v-472q0 -68 68 -68zM540 232q120 0 204 68.5t84 167.5v104q-23 -13 -58 -24t-61.5 -16t-84.5 -16q-34 -5 -53 -8.5t-48.5 -10.5t-46 -14t-36.5 -19t-30.5 -26t-18 -34
t-7.5 -44q0 -60 40.5 -94t115.5 -34z" />
    <glyph glyph-name="Abreve" unicode="&#x102;" horiz-adv-x="1648" 
d="M824 1612q-162 0 -263.5 81.5t-116.5 222.5l248 20q12 -124 132 -124t132 124l248 -20q-15 -141 -116.5 -222.5t-263.5 -81.5zM1260 0l-108 300h-664l-108 -300h-360l592 1520h424l592 -1520h-368zM596 596h448l-224 624z" />
    <glyph glyph-name="abreve" unicode="&#x103;" horiz-adv-x="1328" 
d="M636 1292q-162 0 -263.5 81.5t-116.5 222.5l248 20q12 -124 132 -124t132 124l248 -20q-15 -141 -116.5 -222.5t-263.5 -81.5zM1204 276h48v-276q-48 -8 -116 -8q-111 0 -172.5 43.5t-79.5 136.5q-63 -90 -173.5 -141t-242.5 -51q-177 0 -284.5 96t-107.5 252
q0 65 17.5 118.5t45 91.5t71 68t85 48.5t98 33t99.5 22t100 14.5q59 7 97 14t75 19t54.5 30.5t17.5 44.5q0 58 -57.5 93t-158.5 35q-188 0 -328 -140l-192 196q216 204 540 204q234 0 365 -107.5t131 -296.5v-472q0 -68 68 -68zM540 232q120 0 204 68.5t84 167.5v104
q-23 -13 -58 -24t-61.5 -16t-84.5 -16q-34 -5 -53 -8.5t-48.5 -10.5t-46 -14t-36.5 -19t-30.5 -26t-18 -34t-7.5 -44q0 -60 40.5 -94t115.5 -34z" />
    <glyph glyph-name="Aogonek" unicode="&#x104;" horiz-adv-x="1648" 
d="M1624 -172l92 -160q-89 -76 -212 -76q-117 0 -188.5 60.5t-71.5 159.5q0 106 96 188h-80l-108 300h-664l-108 -300h-360l592 1520h424l592 -1520q-164 -74 -164 -160q0 -27 16 -43.5t40 -16.5q35 0 104 48zM596 596h448l-224 624z" />
    <glyph glyph-name="aogonek" unicode="&#x105;" horiz-adv-x="1328" 
d="M1204 -172l92 -160q-89 -76 -212 -76q-117 0 -188.5 60.5t-71.5 159.5q0 66 38.5 124t101.5 96q-63 51 -80 140q-63 -90 -173.5 -141t-242.5 -51q-177 0 -284.5 96t-107.5 252q0 65 17.5 118.5t45 91.5t71 68t85 48.5t98 33t99.5 22t100 14.5q59 7 97 14t75 19t54.5 30.5
t17.5 44.5q0 58 -57.5 93t-158.5 35q-188 0 -328 -140l-192 196q216 204 540 204q234 0 365 -107.5t131 -296.5v-472q0 -68 68 -68h48v-276q-9 -2 -27.5 -4t-28.5 -4q-152 -68 -152 -152q0 -27 16 -43.5t40 -16.5q35 0 104 48zM540 232q120 0 204 68.5t84 167.5v104
q-23 -13 -58 -24t-61.5 -16t-84.5 -16q-34 -5 -53 -8.5t-48.5 -10.5t-46 -14t-36.5 -19t-30.5 -26t-18 -34t-7.5 -44q0 -60 40.5 -94t115.5 -34z" />
    <glyph glyph-name="Cacute" unicode="&#x106;" horiz-adv-x="1564" 
d="M720 1616l120 316h344l-244 -316h-220zM840 -20q-336 0 -540 213t-204 567q0 231 93 408.5t262 274.5t389 97q246 0 418 -117t238 -327l-324 -112q-85 268 -340 268q-177 0 -280.5 -132t-103.5 -360q0 -229 102 -360.5t282 -131.5q255 0 340 268l324 -112
q-63 -210 -236.5 -327t-419.5 -117z" />
    <glyph glyph-name="cacute" unicode="&#x107;" horiz-adv-x="1300" 
d="M580 1296l120 316h344l-244 -316h-220zM700 -20q-279 0 -449.5 170.5t-170.5 449.5t170.5 449.5t449.5 170.5q208 0 356.5 -95t199.5 -265l-304 -92q-33 91 -98.5 139.5t-157.5 48.5q-132 0 -210 -95.5t-78 -260.5t78 -260.5t210 -95.5q92 0 157.5 48.5t98.5 139.5
l304 -92q-51 -170 -199.5 -265t-356.5 -95z" />
    <glyph glyph-name="Cdotaccent" unicode="&#x10a;" horiz-adv-x="1564" 
d="M652 1672v272h344v-272h-344zM840 -20q-336 0 -540 213t-204 567q0 231 93 408.5t262 274.5t389 97q246 0 418 -117t238 -327l-324 -112q-85 268 -340 268q-177 0 -280.5 -132t-103.5 -360q0 -229 102 -360.5t282 -131.5q255 0 340 268l324 -112q-63 -210 -236.5 -327
t-419.5 -117z" />
    <glyph glyph-name="cdotaccent" unicode="&#x10b;" horiz-adv-x="1300" 
d="M512 1352v272h344v-272h-344zM700 -20q-279 0 -449.5 170.5t-170.5 449.5t170.5 449.5t449.5 170.5q208 0 356.5 -95t199.5 -265l-304 -92q-33 91 -98.5 139.5t-157.5 48.5q-132 0 -210 -95.5t-78 -260.5t78 -260.5t210 -95.5q92 0 157.5 48.5t98.5 139.5l304 -92
q-51 -170 -199.5 -265t-356.5 -95z" />
    <glyph glyph-name="Ccaron" unicode="&#x10c;" horiz-adv-x="1564" 
d="M980 1616h-312l-256 316h264l152 -152l148 152h264zM832 268q255 0 340 268l324 -112q-63 -210 -236.5 -327t-419.5 -117q-336 0 -540 213t-204 567q0 231 93 408.5t262 274.5t389 97q246 0 418 -117t238 -327l-324 -112q-85 268 -340 268q-177 0 -280.5 -132
t-103.5 -360q0 -229 102 -360.5t282 -131.5z" />
    <glyph glyph-name="ccaron" unicode="&#x10d;" horiz-adv-x="1300" 
d="M840 1296h-312l-256 316h264l152 -152l148 152h264zM696 244q92 0 157.5 48.5t98.5 139.5l304 -92q-51 -170 -199.5 -265t-356.5 -95q-279 0 -449.5 170.5t-170.5 449.5t170.5 449.5t449.5 170.5q208 0 356.5 -95t199.5 -265l-304 -92q-33 91 -98.5 139.5t-157.5 48.5
q-132 0 -210 -95.5t-78 -260.5t78 -260.5t210 -95.5z" />
    <glyph glyph-name="Dcaron" unicode="&#x10e;" horiz-adv-x="1660" 
d="M900 1616h-312l-256 316h264l152 -152l148 152h264zM796 1520q364 0 566 -205t202 -555q0 -224 -91 -395.5t-266 -268t-411 -96.5h-592v1520h592zM788 288q205 0 314.5 124t109.5 348t-109.5 348t-314.5 124h-240v-944h240z" />
    <glyph glyph-name="dcaron" unicode="&#x10f;" horiz-adv-x="1448" 
d="M964 1060v540h320v-1600h-288l-16 168q-144 -188 -388 -188q-234 0 -373 169t-139 451q0 278 141.5 449t370.5 171q225 0 372 -160zM1420 1600h288l-80 -368h-208v368zM692 244q134 0 209 95t75 261t-75 261t-209 95q-135 0 -211.5 -95.5t-76.5 -260.5t76.5 -260.5
t211.5 -95.5z" />
    <glyph glyph-name="Dcroat" unicode="&#x110;" horiz-adv-x="1660" 
d="M796 1520q364 0 566 -205t202 -555q0 -224 -91 -395.5t-266 -268t-411 -96.5h-592v668h-164v224h164v628h592zM788 288q205 0 314.5 124t109.5 348t-109.5 348t-314.5 124h-240v-340h272v-224h-272v-380h240z" />
    <glyph glyph-name="dcroat" unicode="&#x111;" horiz-adv-x="1448" 
d="M1448 1480v-208h-164v-1272h-288l-16 168q-144 -188 -388 -188q-234 0 -373 169t-139 451q0 278 141.5 449t370.5 171q225 0 372 -160v212h-236v208h236v120h320v-120h164zM692 244q134 0 209 95t75 261t-75 261t-209 95q-135 0 -211.5 -95.5t-76.5 -260.5t76.5 -260.5
t211.5 -95.5z" />
    <glyph glyph-name="Emacron" unicode="&#x112;" horiz-adv-x="1404" 
d="M1116 1920v-232h-688v232h688zM540 300h784v-300h-1120v1520h1100v-300h-764v-296h584v-288h-584v-336z" />
    <glyph glyph-name="emacron" unicode="&#x113;" horiz-adv-x="1360" 
d="M1024 1600v-232h-688v232h688zM396 496q24 -121 106 -186.5t210 -65.5q205 0 328 136l196 -192q-195 -208 -528 -208q-153 0 -273.5 46.5t-197.5 130t-117 196t-40 247.5q0 277 166.5 448.5t441.5 171.5q273 0 434.5 -169t161.5 -451q0 -48 -12 -104h-876zM688 964
q-110 0 -185.5 -62t-102.5 -174h564q-24 114 -94.5 175t-181.5 61z" />
    <glyph glyph-name="Edotaccent" unicode="&#x116;" horiz-adv-x="1404" 
d="M944 1944v-272h-344v272h344zM540 300h784v-300h-1120v1520h1100v-300h-764v-296h584v-288h-584v-336z" />
    <glyph glyph-name="edotaccent" unicode="&#x117;" horiz-adv-x="1360" 
d="M852 1624v-272h-344v272h344zM396 496q24 -121 106 -186.5t210 -65.5q205 0 328 136l196 -192q-195 -208 -528 -208q-153 0 -273.5 46.5t-197.5 130t-117 196t-40 247.5q0 277 166.5 448.5t441.5 171.5q273 0 434.5 -169t161.5 -451q0 -48 -12 -104h-876zM688 964
q-110 0 -185.5 -62t-102.5 -174h564q-24 114 -94.5 175t-181.5 61z" />
    <glyph glyph-name="Eogonek" unicode="&#x118;" horiz-adv-x="1404" 
d="M1320 -172l92 -160q-89 -76 -212 -76q-117 0 -188.5 60.5t-71.5 159.5q0 106 96 188h-832v1520h1100v-300h-764v-296h584v-288h-584v-336h784v-300q-164 -74 -164 -160q0 -27 16 -43.5t40 -16.5q35 0 104 48z" />
    <glyph glyph-name="eogonek" unicode="&#x119;" horiz-adv-x="1372" 
d="M396 496q24 -121 106 -186.5t210 -65.5q205 0 328 136l196 -192q-85 -91 -208 -144q-73 -41 -124.5 -102.5t-51.5 -101.5q0 -27 16 -43.5t40 -16.5q35 0 104 48l92 -160q-89 -76 -212 -76q-117 0 -188.5 60.5t-71.5 159.5q0 92 76 168q-153 0 -273.5 46.5t-197.5 130
t-117 196t-40 247.5q0 277 166.5 448.5t441.5 171.5q273 0 434.5 -169t161.5 -451q0 -48 -12 -104h-876zM688 964q-110 0 -185.5 -62t-102.5 -174h564q-24 114 -94.5 175t-181.5 61z" />
    <glyph glyph-name="Ecaron" unicode="&#x11a;" horiz-adv-x="1404" 
d="M928 1616h-312l-256 316h264l152 -152l148 152h264zM540 300h784v-300h-1120v1520h1100v-300h-764v-296h584v-288h-584v-336z" />
    <glyph glyph-name="ecaron" unicode="&#x11b;" horiz-adv-x="1360" 
d="M836 1296h-312l-256 316h264l152 -152l148 152h264zM396 496q24 -121 106 -186.5t210 -65.5q205 0 328 136l196 -192q-195 -208 -528 -208q-153 0 -273.5 46.5t-197.5 130t-117 196t-40 247.5q0 277 166.5 448.5t441.5 171.5q273 0 434.5 -169t161.5 -451q0 -48 -12 -104
h-876zM688 964q-110 0 -185.5 -62t-102.5 -174h564q-24 114 -94.5 175t-181.5 61z" />
    <glyph glyph-name="Gbreve" unicode="&#x11e;" horiz-adv-x="1684" 
d="M848 1612q-162 0 -263.5 81.5t-116.5 222.5l248 20q12 -124 132 -124t132 124l248 -20q-15 -141 -116.5 -222.5t-263.5 -81.5zM876 792h672v-792h-252l-20 212q-159 -232 -476 -232q-210 0 -370 96t-247 271t-87 405q0 358 211.5 573t564.5 215q231 0 399 -104t249 -296
l-316 -120q-46 110 -134.5 171t-209.5 61q-192 0 -302 -132t-110 -360q0 -230 107 -361t293 -131q136 0 235 73.5t137 214.5h-344v236z" />
    <glyph glyph-name="gbreve" unicode="&#x11f;" horiz-adv-x="1448" 
d="M688 1292q-162 0 -263.5 81.5t-116.5 222.5l248 20q12 -124 132 -124t132 124l248 -20q-15 -141 -116.5 -222.5t-263.5 -81.5zM996 1200h288v-1040q0 -268 -164 -424t-460 -156q-337 0 -512 156l144 228q150 -120 360 -120q168 0 248 81.5t80 226.5v84
q-147 -172 -384 -172q-234 0 -375 159.5t-141 420.5q0 260 142 418t374 158q241 0 388 -172zM692 308q134 0 209 87t75 241q0 151 -74.5 235.5t-209.5 84.5q-132 0 -210 -86.5t-78 -233.5q0 -152 77.5 -240t210.5 -88z" />
    <glyph glyph-name="Gdotaccent" unicode="&#x120;" horiz-adv-x="1684" 
d="M1020 1944v-272h-344v272h344zM876 792h672v-792h-252l-20 212q-159 -232 -476 -232q-210 0 -370 96t-247 271t-87 405q0 358 211.5 573t564.5 215q231 0 399 -104t249 -296l-316 -120q-46 110 -134.5 171t-209.5 61q-192 0 -302 -132t-110 -360q0 -230 107 -361
t293 -131q136 0 235 73.5t137 214.5h-344v236z" />
    <glyph glyph-name="gdotaccent" unicode="&#x121;" horiz-adv-x="1448" 
d="M860 1624v-272h-344v272h344zM996 1200h288v-1040q0 -268 -164 -424t-460 -156q-337 0 -512 156l144 228q150 -120 360 -120q168 0 248 81.5t80 226.5v84q-147 -172 -384 -172q-234 0 -375 159.5t-141 420.5q0 260 142 418t374 158q241 0 388 -172zM692 308q134 0 209 87
t75 241q0 151 -74.5 235.5t-209.5 84.5q-132 0 -210 -86.5t-78 -233.5q0 -152 77.5 -240t210.5 -88z" />
    <glyph glyph-name="uni0122" unicode="&#x122;" horiz-adv-x="1684" 
d="M876 792h672v-792h-252l-20 212q-159 -232 -476 -232q-210 0 -370 96t-247 271t-87 405q0 358 211.5 573t564.5 215q231 0 399 -104t249 -296l-316 -120q-46 110 -134.5 171t-209.5 61q-192 0 -302 -132t-110 -360q0 -230 107 -361t293 -131q136 0 235 73.5t137 214.5
h-344v236zM676 -312v192h328v-120q0 -122 -62 -187t-174 -65h-92v108h68q74 0 80 72h-148z" />
    <glyph glyph-name="uni0123" unicode="&#x123;" horiz-adv-x="1448" 
d="M828 1532v-204h-328v192q0 125 62 190.5t174 65.5h92v-136h-68q-42 0 -61 -19t-19 -61v-28h148zM996 1200h288v-1040q0 -268 -164 -424t-460 -156q-337 0 -512 156l144 228q150 -120 360 -120q168 0 248 81.5t80 226.5v84q-147 -172 -384 -172q-234 0 -375 159.5
t-141 420.5q0 260 142 418t374 158q241 0 388 -172zM692 308q134 0 209 87t75 241q0 151 -74.5 235.5t-209.5 84.5q-132 0 -210 -86.5t-78 -233.5q0 -152 77.5 -240t210.5 -88z" />
    <glyph glyph-name="Hbar" unicode="&#x126;" horiz-adv-x="1720" 
d="M1688 1304v-224h-172v-1080h-344v624h-624v-624h-344v1080h-172v224h172v216h344v-216h624v216h344v-216h172zM1172 936v144h-624v-144h624z" />
    <glyph glyph-name="hbar" unicode="&#x127;" 
d="M864 1220q193 0 312.5 -127t119.5 -333v-760h-320v688q0 128 -58 198t-158 70q-116 0 -196 -77t-80 -195v-684h-320v1272h-164v208h164v120h320v-120h236v-208h-236v-216q67 77 166 120.5t214 43.5z" />
    <glyph glyph-name="Imacron" unicode="&#x12a;" horiz-adv-x="752" 
d="M32 1688v232h688v-232h-688zM204 0v1520h344v-1520h-344z" />
    <glyph glyph-name="imacron" unicode="&#x12b;" horiz-adv-x="688" 
d="M0 1368v232h688v-232h-688zM184 0v1200h320v-1200h-320z" />
    <glyph glyph-name="Iogonek" unicode="&#x12e;" horiz-adv-x="752" 
d="M544 -172l92 -160q-89 -76 -212 -76q-117 0 -188.5 60.5t-71.5 159.5q0 106 96 188h-56v1520h344v-1520q-164 -74 -164 -160q0 -27 16 -43.5t40 -16.5q35 0 104 48z" />
    <glyph glyph-name="iogonek" unicode="&#x12f;" horiz-adv-x="688" 
d="M516 1624v-272h-344v272h344zM500 -172l92 -160q-89 -76 -212 -76q-117 0 -188.5 60.5t-71.5 159.5q0 106 96 188h-32v1200h320v-1200q-164 -74 -164 -160q0 -27 16 -43.5t40 -16.5q35 0 104 48z" />
    <glyph glyph-name="Idotaccent" unicode="&#x130;" horiz-adv-x="752" 
d="M204 1672v272h344v-272h-344zM204 0v1520h344v-1520h-344z" />
    <glyph glyph-name="dotlessi" unicode="&#x131;" horiz-adv-x="688" 
d="M184 0v1200h320v-1200h-320z" />
    <glyph glyph-name="uni0136" unicode="&#x136;" horiz-adv-x="1636" 
d="M992 924l616 -924h-408l-452 680l-200 -200v-480h-344v1520h344v-644l608 644h428zM640 -312v192h328v-120q0 -122 -62 -187t-174 -65h-92v108h68q74 0 80 72h-148z" />
    <glyph glyph-name="uni0137" unicode="&#x137;" horiz-adv-x="1372" 
d="M864 728l492 -728h-376l-340 508l-156 -152v-356h-320v1600h320v-880l456 480h400zM552 -312v192h328v-120q0 -122 -62 -187t-174 -65h-92v108h68q74 0 80 72h-148z" />
    <glyph glyph-name="kgreenlandic" unicode="&#x138;" horiz-adv-x="1372" 
d="M980 0l-340 508l-156 -152v-356h-320v1200h320v-480l456 480h400l-476 -472l492 -728h-376z" />
    <glyph glyph-name="Lacute" unicode="&#x139;" horiz-adv-x="1352" 
d="M736 2012l-244 -316h-220l120 316h344zM548 312h744v-312h-1088v1520h344v-1208z" />
    <glyph glyph-name="lacute" unicode="&#x13a;" horiz-adv-x="648" 
d="M220 1696l120 316h344l-244 -316h-220zM164 0v1600h320v-1600h-320z" />
    <glyph glyph-name="uni013B" unicode="&#x13b;" horiz-adv-x="1352" 
d="M548 312h744v-312h-1088v1520h344v-1208zM600 -312v192h328v-120q0 -122 -62 -187t-174 -65h-92v108h68q74 0 80 72h-148z" />
    <glyph glyph-name="uni013C" unicode="&#x13c;" horiz-adv-x="648" 
d="M164 1600h320v-1600h-320v1600zM136 -312v192h328v-120q0 -122 -62 -187t-174 -65h-92v108h68q74 0 80 72h-148z" />
    <glyph glyph-name="Lcaron" unicode="&#x13d;" horiz-adv-x="1352" 
d="M548 312h744v-312h-1088v1520h344v-1208zM928 1520l-80 -368h-208v368h288z" />
    <glyph glyph-name="lcaron" unicode="&#x13e;" horiz-adv-x="648" 
d="M164 0v1600h320v-1600h-320zM584 1232v368h288l-80 -368h-208z" />
    <glyph glyph-name="Lslash" unicode="&#x141;" horiz-adv-x="1352" 
d="M548 312h744v-312h-1088v560l-176 -56v240l176 56v720h344v-616l400 124v-240l-400 -124v-352z" />
    <glyph glyph-name="lslash" unicode="&#x142;" horiz-adv-x="800" 
d="M760 1016v-248l-200 -60v-708h-320v608l-200 -60v248l200 60v744h320v-644z" />
    <glyph glyph-name="Nacute" unicode="&#x143;" horiz-adv-x="1744" 
d="M1252 1932l-244 -316h-220l120 316h344zM1208 1520h332v-1520h-320l-684 968v-968h-332v1520h324l680 -968v968z" />
    <glyph glyph-name="nacute" unicode="&#x144;" 
d="M1084 1612l-244 -316h-220l120 316h344zM864 1220q193 0 312.5 -127t119.5 -333v-760h-320v688q0 128 -57 198t-159 70q-116 0 -196 -77t-80 -195v-684h-320v1200h288l12 -168q70 88 174.5 138t225.5 50z" />
    <glyph glyph-name="uni0145" unicode="&#x145;" horiz-adv-x="1744" 
d="M1208 1520h332v-1520h-320l-684 968v-968h-332v1520h324l680 -968v968zM704 -312v192h328v-120q0 -122 -62 -187t-174 -65h-92v108h68q74 0 80 72h-148z" />
    <glyph glyph-name="uni0146" unicode="&#x146;" 
d="M864 1220q193 0 312.5 -127t119.5 -333v-760h-320v688q0 128 -57 198t-159 70q-116 0 -196 -77t-80 -195v-684h-320v1200h288l12 -168q70 88 174.5 138t225.5 50zM536 -312v192h328v-120q0 -122 -62 -187t-174 -65h-92v108h68q74 0 80 72h-148z" />
    <glyph glyph-name="Ncaron" unicode="&#x147;" horiz-adv-x="1744" 
d="M1048 1616h-312l-256 316h264l152 -152l148 152h264zM1208 1520h332v-1520h-320l-684 968v-968h-332v1520h324l680 -968v968z" />
    <glyph glyph-name="ncaron" unicode="&#x148;" 
d="M880 1296h-312l-256 316h264l152 -152l148 152h264zM864 1220q193 0 312.5 -127t119.5 -333v-760h-320v688q0 128 -57 198t-159 70q-116 0 -196 -77t-80 -195v-684h-320v1200h288l12 -168q70 88 174.5 138t225.5 50z" />
    <glyph glyph-name="Eng" unicode="&#x14a;" horiz-adv-x="1744" 
d="M1208 1520h332v-1536q0 -206 -95.5 -299t-288.5 -93q-60 0 -180 8v280h144q46 0 73 26.5t27 73.5v16l-684 972v-968h-332v1520h324l680 -968v968z" />
    <glyph glyph-name="eng" unicode="&#x14b;" 
d="M864 1220q193 0 312.5 -127t119.5 -333v-776q0 -205 -96.5 -298.5t-287.5 -93.5q-44 0 -132 8v280h96q46 0 73 26.5t27 73.5v708q0 128 -58 198t-158 70q-116 0 -196 -77t-80 -195v-684h-320v1200h288l12 -168q70 88 174.5 138t225.5 50z" />
    <glyph glyph-name="Omacron" unicode="&#x14c;" horiz-adv-x="1704" 
d="M508 1688v232h688v-232h-688zM852 -20q-342 0 -549 213t-207 567q0 231 94.5 408.5t266 274.5t395.5 97q342 0 549 -213t207 -567q0 -231 -94.5 -408.5t-266 -274.5t-395.5 -97zM852 276q183 0 293.5 132.5t110.5 351.5t-110.5 351.5t-293.5 132.5t-293.5 -132.5
t-110.5 -351.5t110.5 -351.5t293.5 -132.5z" />
    <glyph glyph-name="omacron" unicode="&#x14d;" horiz-adv-x="1416" 
d="M364 1368v232h688v-232h-688zM708 -20q-285 0 -456.5 169t-171.5 451q0 279 173 449.5t455 170.5q285 0 456.5 -169t171.5 -451q0 -279 -173 -449.5t-455 -170.5zM708 244q139 0 219.5 94.5t80.5 261.5t-80.5 261.5t-219.5 94.5t-219.5 -94.5t-80.5 -261.5t80.5 -261.5
t219.5 -94.5z" />
    <glyph glyph-name="Ohungarumlaut" unicode="&#x150;" horiz-adv-x="1704" 
d="M456 1672v272h328v-272h-328zM920 1672v272h328v-272h-328zM852 -20q-342 0 -549 213t-207 567q0 231 94.5 408.5t266 274.5t395.5 97q342 0 549 -213t207 -567q0 -231 -94.5 -408.5t-266 -274.5t-395.5 -97zM852 276q183 0 293.5 132.5t110.5 351.5t-110.5 351.5
t-293.5 132.5t-293.5 -132.5t-110.5 -351.5t110.5 -351.5t293.5 -132.5z" />
    <glyph glyph-name="ohungarumlaut" unicode="&#x151;" horiz-adv-x="1416" 
d="M384 1296l120 316h344l-244 -316h-220zM816 1296l120 316h344l-244 -316h-220zM708 -20q-285 0 -456.5 169t-171.5 451q0 279 173 449.5t455 170.5q285 0 456.5 -169t171.5 -451q0 -279 -173 -449.5t-455 -170.5zM708 244q139 0 219.5 94.5t80.5 261.5t-80.5 261.5
t-219.5 94.5t-219.5 -94.5t-80.5 -261.5t80.5 -261.5t219.5 -94.5z" />
    <glyph glyph-name="OE" unicode="&#x152;" horiz-adv-x="2140" 
d="M1360 300h700v-300h-1192q-240 0 -415.5 96t-266 267t-90.5 397q0 228 89.5 399t265 266t417.5 95h1172v-300h-680v-300h500v-280h-500v-340zM872 288h168v944h-168q-202 0 -311 -124t-109 -348t109 -348t311 -124z" />
    <glyph glyph-name="oe" unicode="&#x153;" horiz-adv-x="2228" 
d="M1284 508q21 -128 99.5 -198t208.5 -70q203 0 320 136l188 -192q-184 -204 -488 -204q-161 0 -281 57.5t-191 162.5q-78 -105 -200.5 -162.5t-271.5 -57.5q-267 0 -427.5 169t-160.5 451q0 279 162 449.5t426 170.5q155 0 275.5 -57t196.5 -163q73 106 188.5 163
t263.5 57q261 0 410.5 -169t149.5 -451q0 -44 -8 -92h-860zM1568 964q-113 0 -186.5 -65.5t-97.5 -186.5h552q-21 120 -90.5 186t-177.5 66zM700 244q138 0 217 94t79 262t-79 262t-217 94t-217 -94t-79 -262t79 -262t217 -94z" />
    <glyph glyph-name="Racute" unicode="&#x154;" horiz-adv-x="1588" 
d="M1088 1932l-244 -316h-220l120 316h344zM1144 0l-324 560h-276v-560h-340v1520h672q270 0 421 -125.5t151 -350.5q0 -158 -74.5 -270t-213.5 -166l368 -608h-384zM544 1232v-404h308q122 0 185 52t63 152q0 200 -248 200h-308z" />
    <glyph glyph-name="racute" unicode="&#x155;" horiz-adv-x="1016" 
d="M896 1612l-244 -316h-220l120 316h344zM864 1216q54 0 108 -12l-4 -296q-102 12 -192 12q-137 0 -214.5 -67t-77.5 -201v-652h-320v1200h288l16 -180q61 91 165 143.5t231 52.5z" />
    <glyph glyph-name="uni0156" unicode="&#x156;" horiz-adv-x="1588" 
d="M1160 608l368 -608h-384l-324 560h-276v-560h-340v1520h672q270 0 421 -125.5t151 -350.5q0 -158 -74.5 -270t-213.5 -166zM544 1232v-404h308q122 0 185 52t63 152q0 200 -248 200h-308zM660 -312v192h328v-120q0 -122 -62 -187t-174 -65h-92v108h68q74 0 80 72h-148z
" />
    <glyph glyph-name="uni0157" unicode="&#x157;" horiz-adv-x="1016" 
d="M864 1216q54 0 108 -12l-4 -296q-102 12 -192 12q-137 0 -214.5 -67t-77.5 -201v-652h-320v1200h288l16 -180q61 91 165 143.5t231 52.5zM112 -312v192h328v-120q0 -122 -62 -187t-174 -65h-92v108h68q74 0 80 72h-148z" />
    <glyph glyph-name="Rcaron" unicode="&#x158;" horiz-adv-x="1588" 
d="M884 1616h-312l-256 316h264l152 -152l148 152h264zM1144 0l-324 560h-276v-560h-340v1520h672q270 0 421 -125.5t151 -350.5q0 -158 -74.5 -270t-213.5 -166l368 -608h-384zM544 1232v-404h308q122 0 185 52t63 152q0 200 -248 200h-308z" />
    <glyph glyph-name="rcaron" unicode="&#x159;" horiz-adv-x="1016" 
d="M692 1296h-312l-256 316h264l152 -152l148 152h264zM864 1216q54 0 108 -12l-4 -296q-102 12 -192 12q-137 0 -214.5 -67t-77.5 -201v-652h-320v1200h288l16 -180q61 91 165 143.5t231 52.5z" />
    <glyph glyph-name="Sacute" unicode="&#x15a;" horiz-adv-x="1392" 
d="M584 1616l120 316h344l-244 -316h-220zM704 -20q-193 0 -365 58.5t-291 165.5l188 256q94 -91 216.5 -139.5t259.5 -48.5q129 0 200.5 40t71.5 112q0 42 -36 72t-76.5 44.5t-138.5 42.5q-10 3 -15.5 4.5t-14 4t-15.5 4.5q-74 21 -114.5 33t-111 38t-111.5 49.5
t-93.5 62.5t-81 81t-48.5 101t-20 127q0 209 164 330.5t444 121.5q325 0 580 -184l-184 -256q-84 69 -190.5 106.5t-217.5 37.5q-117 0 -186.5 -38.5t-69.5 -101.5q0 -62 75 -101.5t245 -86.5q54 -15 86.5 -24t85.5 -26.5t87 -32t79.5 -38t74 -46.5t60.5 -56t49.5 -68.5
t29.5 -80.5t12 -96q0 -222 -165.5 -345t-462.5 -123z" />
    <glyph glyph-name="sacute" unicode="&#x15b;" horiz-adv-x="1152" 
d="M460 1296l120 316h344l-244 -316h-220zM576 -20q-161 0 -304 47.5t-240 132.5l164 228q72 -65 172.5 -102.5t219.5 -37.5q87 0 143.5 23t56.5 69q0 40 -49.5 66.5t-198.5 61.5q-237 57 -344.5 148.5t-107.5 235.5q0 168 136.5 268t367.5 100q256 0 484 -148l-164 -232
q-82 60 -164.5 88t-183.5 28q-80 0 -126 -24t-46 -68q0 -42 46 -68t174 -56q265 -63 374.5 -150.5t109.5 -237.5q0 -177 -135.5 -274.5t-384.5 -97.5z" />
    <glyph glyph-name="Scedilla" unicode="&#x15e;" horiz-adv-x="1392" 
d="M1332 448q0 -204 -140.5 -325t-395.5 -139l-32 -52h28q93 0 152.5 -48.5t59.5 -123.5q0 -90 -79.5 -145t-208.5 -55q-157 0 -268 76l80 136q76 -60 176 -60q47 0 75.5 13.5t28.5 34.5t-19.5 34.5t-52.5 13.5q-52 0 -76 -24l-124 64l84 136q-170 12 -319 68.5t-253 151.5
l188 256q94 -91 216.5 -139.5t259.5 -48.5q129 0 200.5 40t71.5 112q0 42 -36 72t-76.5 44.5t-138.5 42.5q-10 3 -15.5 4.5t-14 4t-15.5 4.5q-74 21 -114.5 33t-111 38t-111.5 49.5t-93.5 62.5t-81 81t-48.5 101t-20 127q0 209 164 330.5t444 121.5q325 0 580 -184
l-184 -256q-84 69 -190.5 106.5t-217.5 37.5q-117 0 -186.5 -38.5t-69.5 -101.5q0 -62 75 -101.5t245 -86.5q54 -15 86.5 -24t85.5 -26.5t87 -32t79.5 -38t74 -46.5t60.5 -56t49.5 -68.5t29.5 -80.5t12 -96z" />
    <glyph glyph-name="scedilla" unicode="&#x15f;" horiz-adv-x="1152" 
d="M1096 352q0 -159 -110 -254.5t-314 -113.5l-32 -52h28q93 0 152.5 -48.5t59.5 -123.5q0 -90 -79.5 -145t-208.5 -55q-157 0 -268 76l80 136q76 -60 176 -60q47 0 75.5 13.5t28.5 34.5t-19.5 34.5t-52.5 13.5q-52 0 -76 -24l-124 64l84 136q-138 12 -259 58t-205 118
l164 228q72 -65 172.5 -102.5t219.5 -37.5q87 0 143.5 23t56.5 69q0 40 -49.5 66.5t-198.5 61.5q-237 57 -344.5 148.5t-107.5 235.5q0 168 136.5 268t367.5 100q256 0 484 -148l-164 -232q-82 60 -164.5 88t-183.5 28q-80 0 -126 -24t-46 -68q0 -42 46 -68t174 -56
q265 -63 374.5 -150.5t109.5 -237.5z" />
    <glyph glyph-name="Scaron" unicode="&#x160;" horiz-adv-x="1392" 
d="M844 1616h-312l-256 316h264l152 -152l148 152h264zM768 916q54 -15 86.5 -24t85.5 -26.5t87 -32t79.5 -38t74 -46.5t60.5 -56t49.5 -68.5t29.5 -80.5t12 -96q0 -222 -165.5 -345t-462.5 -123q-193 0 -365 58.5t-291 165.5l188 256q94 -91 216.5 -139.5t259.5 -48.5
q129 0 200.5 40t71.5 112q0 42 -36 72t-76.5 44.5t-138.5 42.5q-10 3 -15.5 4.5t-14 4t-15.5 4.5q-74 21 -114.5 33t-111 38t-111.5 49.5t-93.5 62.5t-81 81t-48.5 101t-20 127q0 209 164 330.5t444 121.5q325 0 580 -184l-184 -256q-84 69 -190.5 106.5t-217.5 37.5
q-117 0 -186.5 -38.5t-69.5 -101.5q0 -62 75 -101.5t245 -86.5z" />
    <glyph glyph-name="scaron" unicode="&#x161;" horiz-adv-x="1152" 
d="M720 1296h-312l-256 316h264l152 -152l148 152h264zM612 740q265 -63 374.5 -150.5t109.5 -237.5q0 -177 -135.5 -274.5t-384.5 -97.5q-161 0 -304 47.5t-240 132.5l164 228q72 -65 172.5 -102.5t219.5 -37.5q87 0 143.5 23t56.5 69q0 40 -49.5 66.5t-198.5 61.5
q-237 57 -344.5 148.5t-107.5 235.5q0 168 136.5 268t367.5 100q256 0 484 -148l-164 -232q-82 60 -164.5 88t-183.5 28q-80 0 -126 -24t-46 -68q0 -42 46 -68t174 -56z" />
    <glyph glyph-name="uni0162" unicode="&#x162;" horiz-adv-x="1448" 
d="M896 0h-56l-44 -68h28q93 0 152.5 -48.5t59.5 -123.5q0 -90 -79.5 -145t-208.5 -55q-157 0 -268 76l80 136q76 -60 176 -60q47 0 75.5 13.5t28.5 34.5t-19.5 34.5t-52.5 13.5q-52 0 -76 -24l-124 64l92 152h-108v1208h-512v312h1368v-312h-512v-1208z" />
    <glyph glyph-name="uni0163" unicode="&#x163;" horiz-adv-x="1024" 
d="M944 936h-344v-524q0 -75 38.5 -107.5t113.5 -32.5q112 0 192 20v-284q-89 -25 -220 -32l-28 -44h28q93 0 152.5 -48.5t59.5 -123.5q0 -90 -79.5 -145t-208.5 -55q-157 0 -268 76l80 136q76 -60 176 -60q47 0 75.5 13.5t28.5 34.5t-19.5 34.5t-52.5 13.5q-52 0 -76 -24
l-124 64l84 140q-131 27 -201.5 115t-70.5 233v600h-240v264h240l32 320h288v-320h344v-264z" />
    <glyph glyph-name="Tcaron" unicode="&#x164;" horiz-adv-x="1448" 
d="M876 1616h-312l-256 316h264l152 -152l148 152h264zM1408 1520v-312h-512v-1208h-344v1208h-512v312h1368z" />
    <glyph glyph-name="tcaron" unicode="&#x165;" horiz-adv-x="1024" 
d="M972 1600l-80 -368h-208v368h288zM600 1520v-320h344v-264h-344v-524q0 -75 38.5 -107.5t113.5 -32.5q112 0 192 20v-284q-117 -32 -264 -32q-192 0 -296 91t-104 269v600h-240v264h240l32 320h288z" />
    <glyph glyph-name="Tbar" unicode="&#x166;" horiz-adv-x="1448" 
d="M1408 1208h-512v-316h312v-224h-312v-668h-344v668h-308v224h308v316h-512v312h1368v-312z" />
    <glyph glyph-name="tbar" unicode="&#x167;" horiz-adv-x="1024" 
d="M944 936h-344v-212h276v-224h-276v-88q0 -75 38.5 -107.5t113.5 -32.5q112 0 192 20v-284q-117 -32 -264 -32q-192 0 -296 91t-104 269v164h-228v224h228v212h-240v264h240l32 320h288v-320h344v-264z" />
    <glyph glyph-name="Umacron" unicode="&#x16a;" horiz-adv-x="1728" 
d="M520 1688v232h688v-232h-688zM864 -20q-316 0 -498 171t-182 461v908h344v-896q0 -162 87 -251t249 -89t249 89t87 251v896h344v-908q0 -290 -182 -461t-498 -171z" />
    <glyph glyph-name="umacron" unicode="&#x16b;" 
d="M1056 1600v-232h-688v232h688zM956 1200h320v-1200h-288l-12 168q-70 -88 -174.5 -138t-225.5 -50q-193 0 -312.5 127t-119.5 333v760h320v-688q0 -128 57 -198t159 -70q116 0 196 77t80 195v684z" />
    <glyph glyph-name="Uring" unicode="&#x16e;" horiz-adv-x="1728" 
d="M864 1436q-130 0 -215 82.5t-85 213.5q0 129 85.5 212.5t214.5 83.5t214.5 -83.5t85.5 -212.5q0 -131 -85 -213.5t-215 -82.5zM864 1616q48 0 80 32.5t32 83.5q0 48 -32 80t-80 32t-80 -32t-32 -80q0 -51 32 -83.5t80 -32.5zM864 -20q-316 0 -498 171t-182 461v908h344
v-896q0 -162 87 -251t249 -89t249 89t87 251v896h344v-908q0 -290 -182 -461t-498 -171z" />
    <glyph glyph-name="uring" unicode="&#x16f;" 
d="M712 1300q-130 0 -215 82.5t-85 213.5q0 129 85.5 212.5t214.5 83.5t214.5 -83.5t85.5 -212.5q0 -131 -85 -213.5t-215 -82.5zM712 1708q-48 0 -80 -32t-32 -80q0 -51 32 -83.5t80 -32.5t80 32.5t32 83.5q0 48 -32 80t-80 32zM956 1200h320v-1200h-288l-12 168
q-70 -88 -174.5 -138t-225.5 -50q-193 0 -312.5 127t-119.5 333v760h320v-688q0 -128 57 -198t159 -70q116 0 196 77t80 195v684z" />
    <glyph glyph-name="Uhungarumlaut" unicode="&#x170;" horiz-adv-x="1728" 
d="M540 1616l120 316h344l-244 -316h-220zM972 1616l120 316h344l-244 -316h-220zM864 -20q-316 0 -498 171t-182 461v908h344v-896q0 -162 87 -251t249 -89t249 89t87 251v896h344v-908q0 -290 -182 -461t-498 -171z" />
    <glyph glyph-name="uhungarumlaut" unicode="&#x171;" 
d="M852 1612l-244 -316h-220l120 316h344zM1040 1296h-220l120 316h344zM956 516v684h320v-1200h-288l-12 168q-70 -88 -174.5 -138t-225.5 -50q-193 0 -312.5 127t-119.5 333v760h320v-688q0 -128 57 -198t159 -70q116 0 196 77t80 195z" />
    <glyph glyph-name="Uogonek" unicode="&#x172;" horiz-adv-x="1680" 
d="M1200 1520h344v-908q0 -201 -89.5 -348.5t-254.5 -219.5q-116 -45 -184 -103.5t-68 -100.5q0 -27 16 -43.5t40 -16.5q35 0 104 48l92 -160q-89 -76 -212 -76q-117 0 -188.5 60.5t-71.5 159.5q0 98 76 168q-290 18 -455 188t-165 444v908h344v-896q0 -162 87 -251t249 -89
t249 89t87 251v896z" />
    <glyph glyph-name="uogonek" unicode="&#x173;" 
d="M1236 -172l92 -160q-89 -76 -212 -76q-117 0 -188.5 60.5t-71.5 159.5q0 64 34.5 119.5t93.5 92.5l-8 144q-70 -88 -174.5 -138t-225.5 -50q-193 0 -312.5 127t-119.5 333v760h320v-688q0 -128 57 -198t159 -70q116 0 196 77t80 195v684h320v-1200h-36
q-164 -74 -164 -160q0 -27 16 -43.5t40 -16.5q35 0 104 48z" />
    <glyph glyph-name="Wcircumflex" unicode="&#x174;" horiz-adv-x="2304" 
d="M1160 1768l-152 -152h-264l260 316h312l256 -316h-264zM1904 1520h344l-440 -1520h-360l-300 1048l-296 -1048h-360l-436 1520h352l280 -1064l296 1064h332l296 -1056z" />
    <glyph glyph-name="wcircumflex" unicode="&#x175;" horiz-adv-x="1948" 
d="M984 1448l-152 -152h-264l260 316h312l256 -316h-264zM1576 1200h324l-352 -1200h-356l-220 768l-212 -768h-356l-356 1200h332l220 -864l228 864h292l236 -876z" />
    <glyph glyph-name="Ycircumflex" unicode="&#x176;" horiz-adv-x="1560" 
d="M792 1768l-152 -152h-264l260 316h312l256 -316h-264zM1548 1520l-596 -928v-592h-344v596l-596 924h392l380 -616l380 616h384z" />
    <glyph glyph-name="ycircumflex" unicode="&#x177;" horiz-adv-x="1372" 
d="M696 1448l-152 -152h-264l260 316h312l256 -316h-264zM1012 1200h336l-416 -1200q-148 -420 -472 -420q-86 0 -155 22t-113.5 58.5t-75.5 86.5t-45.5 102.5t-18.5 110.5l300 52q6 -156 116 -156q66 0 120 84l-564 1260h352l364 -904z" />
    <glyph glyph-name="Ydieresis" unicode="&#x178;" horiz-adv-x="1560" 
d="M716 1944v-272h-328v272h328zM1180 1944v-272h-328v272h328zM1548 1520l-596 -928v-592h-344v596l-596 924h392l380 -616l380 616h384z" />
    <glyph glyph-name="Zacute" unicode="&#x179;" horiz-adv-x="1412" 
d="M1052 1932l-244 -316h-220l120 316h344zM1324 1520v-252l-800 -960h800v-308h-1244v252l800 960h-756v308h1200z" />
    <glyph glyph-name="zacute" unicode="&#x17a;" horiz-adv-x="1200" 
d="M944 1612l-244 -316h-220l120 316h344zM484 268h632v-268h-1044v240l628 696h-592v264h1000v-240z" />
    <glyph glyph-name="Zdotaccent" unicode="&#x17b;" horiz-adv-x="1412" 
d="M864 1944v-272h-344v272h344zM1324 1520v-252l-800 -960h800v-308h-1244v252l800 960h-756v308h1200z" />
    <glyph glyph-name="zdotaccent" unicode="&#x17c;" horiz-adv-x="1200" 
d="M756 1624v-272h-344v272h344zM484 268h632v-268h-1044v240l628 696h-592v264h1000v-240z" />
    <glyph glyph-name="Zcaron" unicode="&#x17d;" horiz-adv-x="1412" 
d="M848 1616h-312l-256 316h264l152 -152l148 152h264zM1324 1520v-252l-800 -960h800v-308h-1244v252l800 960h-756v308h1200z" />
    <glyph glyph-name="zcaron" unicode="&#x17e;" horiz-adv-x="1200" 
d="M740 1296h-312l-256 316h264l152 -152l148 152h264zM484 268h632v-268h-1044v240l628 696h-592v264h1000v-240z" />
    <glyph glyph-name="uni0218" unicode="&#x218;" horiz-adv-x="1392" 
d="M768 916q54 -15 86.5 -24t85.5 -26.5t87 -32t79.5 -38t74 -46.5t60.5 -56t49.5 -68.5t29.5 -80.5t12 -96q0 -222 -165.5 -345t-462.5 -123q-193 0 -365 58.5t-291 165.5l188 256q94 -91 216.5 -139.5t259.5 -48.5q129 0 200.5 40t71.5 112q0 42 -36 72t-76.5 44.5
t-138.5 42.5q-10 3 -15.5 4.5t-14 4t-15.5 4.5q-74 21 -114.5 33t-111 38t-111.5 49.5t-93.5 62.5t-81 81t-48.5 101t-20 127q0 209 164 330.5t444 121.5q325 0 580 -184l-184 -256q-84 69 -190.5 106.5t-217.5 37.5q-117 0 -186.5 -38.5t-69.5 -101.5q0 -62 75 -101.5
t245 -86.5zM500 -312v192h328v-120q0 -122 -62 -187t-174 -65h-92v108h68q74 0 80 72h-148z" />
    <glyph glyph-name="uni0219" unicode="&#x219;" horiz-adv-x="1152" 
d="M612 740q265 -63 374.5 -150.5t109.5 -237.5q0 -177 -135.5 -274.5t-384.5 -97.5q-161 0 -304 47.5t-240 132.5l164 228q72 -65 172.5 -102.5t219.5 -37.5q87 0 143.5 23t56.5 69q0 40 -49.5 66.5t-198.5 61.5q-237 57 -344.5 148.5t-107.5 235.5q0 168 136.5 268
t367.5 100q256 0 484 -148l-164 -232q-82 60 -164.5 88t-183.5 28q-80 0 -126 -24t-46 -68q0 -42 46 -68t174 -56zM376 -312v192h328v-120q0 -122 -62 -187t-174 -65h-92v108h68q74 0 80 72h-148z" />
    <glyph glyph-name="uni021A" unicode="&#x21a;" horiz-adv-x="1448" 
d="M1408 1520v-312h-512v-1208h-344v1208h-512v312h1368zM532 -312v192h328v-120q0 -122 -62 -187t-174 -65h-92v108h68q74 0 80 72h-148z" />
    <glyph glyph-name="uni021B" unicode="&#x21b;" horiz-adv-x="1024" 
d="M944 936h-344v-524q0 -75 38.5 -107.5t113.5 -32.5q112 0 192 20v-284q-117 -32 -264 -32q-192 0 -296 91t-104 269v600h-240v264h240l32 320h288v-320h344v-264zM432 -312v192h328v-120q0 -122 -62 -187t-174 -65h-92v108h68q74 0 80 72h-148z" />
    <glyph glyph-name="uni0237" unicode="&#x237;" horiz-adv-x="680" 
d="M132 -408q-44 0 -132 8v284q32 -4 96 -4q46 0 73 26.5t27 73.5v1220h320v-1216q0 -206 -95.5 -299t-288.5 -93z" />
    <glyph glyph-name="uni02BC" unicode="&#x2bc;" horiz-adv-x="576" 
d="M100 1520h376v-200q0 -187 -85.5 -281.5t-234.5 -94.5h-56v168h36q72 0 105 32t39 104h-180v272z" />
    <glyph glyph-name="circumflex" unicode="&#x2c6;" horiz-adv-x="640" 
d="M740 1296h-264l-148 152l-152 -152h-264l260 316h312z" />
    <glyph glyph-name="caron" unicode="&#x2c7;" horiz-adv-x="640" 
d="M472 1612h264l-260 -316h-312l-256 316h264l152 -152z" />
    <glyph glyph-name="breve" unicode="&#x2d8;" horiz-adv-x="640" 
d="M320 1292q-162 0 -263.5 81.5t-116.5 222.5l248 20q12 -124 132 -124t132 124l248 -20q-15 -141 -116.5 -222.5t-263.5 -81.5z" />
    <glyph glyph-name="dotaccent" unicode="&#x2d9;" horiz-adv-x="640" 
d="M148 1352v272h344v-272h-344z" />
    <glyph glyph-name="ring" unicode="&#x2da;" horiz-adv-x="640" 
d="M320 1300q-130 0 -215 82.5t-85 213.5q0 129 85.5 212.5t214.5 83.5t214.5 -83.5t85.5 -212.5q0 -131 -85 -213.5t-215 -82.5zM320 1480q48 0 80 32.5t32 83.5q0 48 -32 80t-80 32t-80 -32t-32 -80q0 -51 32 -83.5t80 -32.5z" />
    <glyph glyph-name="ogonek" unicode="&#x2db;" horiz-adv-x="640" 
d="M320 80l132 -80q-164 -74 -164 -160q0 -27 16 -43.5t40 -16.5q35 0 104 48l92 -160q-89 -76 -212 -76q-117 0 -188.5 60.5t-71.5 159.5q0 93 73 166.5t179 101.5z" />
    <glyph glyph-name="tilde" unicode="&#x2dc;" horiz-adv-x="640" 
d="M732 1524q-29 -103 -100 -159.5t-160 -56.5q-53 0 -103.5 25t-91 50t-69.5 25q-39 0 -64.5 -22.5t-43.5 -73.5l-180 92q32 103 103 159.5t157 56.5q53 0 103.5 -25t91 -50t69.5 -25q39 0 64.5 22.5t43.5 73.5z" />
    <glyph glyph-name="hungarumlaut" unicode="&#x2dd;" horiz-adv-x="640" 
d="M-4 1296l120 316h344l-244 -316h-220zM428 1296l120 316h344l-244 -316h-220z" />
    <glyph glyph-name="gravecomb" unicode="&#x300;" horiz-adv-x="0" 
d="M-616 1296h-220l-244 316h344z" />
    <glyph glyph-name="acutecomb" unicode="&#x301;" horiz-adv-x="0" 
d="M-824 1296l120 316h344l-244 -316h-220z" />
    <glyph glyph-name="uni0302" unicode="&#x302;" horiz-adv-x="0" 
d="M-300 1296h-264l-148 152l-152 -152h-264l260 316h312z" />
    <glyph glyph-name="tildecomb" unicode="&#x303;" horiz-adv-x="0" 
d="M-308 1524q-29 -103 -100 -159.5t-160 -56.5q-53 0 -103.5 25t-91 50t-69.5 25q-39 0 -64.5 -22.5t-43.5 -73.5l-180 92q32 103 103 159.5t157 56.5q53 0 103.5 -25t91 -50t69.5 -25q39 0 64.5 22.5t43.5 73.5z" />
    <glyph glyph-name="uni0304" unicode="&#x304;" horiz-adv-x="0" 
d="M-1064 1368v232h688v-232h-688z" />
    <glyph glyph-name="uni0306" unicode="&#x306;" horiz-adv-x="0" 
d="M-720 1292q-162 0 -263.5 81.5t-116.5 222.5l248 20q12 -124 132 -124t132 124l248 -20q-15 -141 -116.5 -222.5t-263.5 -81.5z" />
    <glyph glyph-name="uni0307" unicode="&#x307;" horiz-adv-x="0" 
d="M-892 1352v272h344v-272h-344z" />
    <glyph glyph-name="uni0308" unicode="&#x308;" horiz-adv-x="0" 
d="M-1116 1352v272h328v-272h-328zM-652 1352v272h328v-272h-328z" />
    <glyph glyph-name="uni030A" unicode="&#x30a;" horiz-adv-x="0" 
d="M-720 1300q-130 0 -215 82.5t-85 213.5q0 129 85.5 212.5t214.5 83.5t214.5 -83.5t85.5 -212.5q0 -131 -85 -213.5t-215 -82.5zM-720 1480q48 0 80 32.5t32 83.5q0 48 -32 80t-80 32t-80 -32t-32 -80q0 -51 32 -83.5t80 -32.5z" />
    <glyph glyph-name="uni030B" unicode="&#x30b;" horiz-adv-x="0" 
d="M-1044 1296l120 316h344l-244 -316h-220zM-612 1296l120 316h344l-244 -316h-220z" />
    <glyph glyph-name="uni030C" unicode="&#x30c;" horiz-adv-x="0" 
d="M-568 1612h264l-260 -316h-312l-256 316h264l152 -152z" />
    <glyph glyph-name="uni0312" unicode="&#x312;" horiz-adv-x="0" 
d="M-648 1640q-42 0 -61 -19t-19 -61v-28h148v-204h-328v192q0 125 62 190.5t174 65.5h92v-136h-68z" />
    <glyph glyph-name="uni0326" unicode="&#x326;" horiz-adv-x="0" 
d="M-908 -120h328v-120q0 -122 -62 -187t-174 -65h-92v108h68q74 0 80 72h-148v192z" />
    <glyph glyph-name="uni0327" unicode="&#x327;" horiz-adv-x="0" 
d="M-616 -68q93 0 152.5 -48.5t59.5 -123.5q0 -90 -79.5 -145t-208.5 -55q-157 0 -268 76l80 136q76 -60 176 -60q47 0 75.5 13.5t28.5 34.5t-19.5 34.5t-52.5 13.5q-52 0 -76 -24l-124 64l112 184h180l-64 -100h28z" />
    <glyph glyph-name="uni0328" unicode="&#x328;" horiz-adv-x="0" 
d="M-720 80l132 -80q-164 -74 -164 -160q0 -27 16 -43.5t40 -16.5q35 0 104 48l92 -160q-89 -76 -212 -76q-117 0 -188.5 60.5t-71.5 159.5q0 93 73 166.5t179 101.5z" />
    <glyph glyph-name="dieresistonos" unicode="&#x385;" 
d="M516 1352l120 316h344l-244 -316h-220zM148 1352v272h328v-272h-328zM964 1352v272h328v-272h-328z" />
    <glyph glyph-name="uni0401" unicode="&#x401;" horiz-adv-x="1404" 
d="M704 1944v-272h-328v272h328zM1168 1944v-272h-328v272h328zM540 300h784v-300h-1120v1520h1100v-300h-764v-296h584v-288h-584v-336z" />
    <glyph glyph-name="uni0404" unicode="&#x404;" horiz-adv-x="1564" 
d="M836 268q128 0 219 68t137 192l312 -112q-69 -205 -244 -320.5t-420 -115.5q-339 0 -541.5 213t-202.5 567q0 232 92 409t261 274t391 97q247 0 421 -113.5t243 -322.5l-312 -112q-46 124 -137 192t-219 68q-148 0 -247 -87.5t-129 -248.5h536v-272h-544
q24 -182 124 -279t260 -97z" />
    <glyph glyph-name="uni0406" unicode="&#x406;" horiz-adv-x="752" 
d="M204 0v1520h344v-1520h-344z" />
    <glyph glyph-name="uni0407" unicode="&#x407;" horiz-adv-x="752" 
d="M-20 1672v272h328v-272h-328zM444 1672v272h328v-272h-328zM204 0v1520h344v-1520h-344z" />
    <glyph glyph-name="uni040E" unicode="&#x40e;" horiz-adv-x="1536" 
d="M756 1632q-174 0 -281.5 79.5t-122.5 220.5l244 32q12 -64 55 -98t105 -34t105 34t55 98l244 -32q-15 -141 -122.5 -220.5t-281.5 -79.5zM1144 1520h356l-456 -1136q-37 -95 -78 -165t-97.5 -126t-131.5 -84.5t-169 -28.5q-170 0 -276 107.5t-112 268.5l268 68
q3 -84 38 -128t98 -44q76 0 112 52l-688 1216h384l444 -884z" />
    <glyph glyph-name="uni0410" unicode="&#x410;" horiz-adv-x="1648" 
d="M1260 0l-108 300h-664l-108 -300h-360l592 1520h424l592 -1520h-368zM596 596h448l-224 624z" />
    <glyph glyph-name="uni0411" unicode="&#x411;" horiz-adv-x="1520" 
d="M876 936q260 0 408 -123t148 -337q0 -225 -147.5 -350.5t-408.5 -125.5h-672v1520h1104v-296h-760l-4 -288h332zM836 276q122 0 185 51.5t63 148.5q0 94 -63 145t-185 51h-292l-4 -396h296z" />
    <glyph glyph-name="uni0412" unicode="&#x412;" horiz-adv-x="1536" 
d="M1216 776q109 -51 166.5 -143t57.5 -217q0 -195 -137.5 -305.5t-382.5 -110.5h-716v1520h712q234 0 365 -107.5t131 -296.5q0 -115 -51 -201.5t-145 -138.5zM860 1244h-328v-336h328q216 0 216 168t-216 168zM864 276q236 0 236 184t-236 184h-332v-368h332z" />
    <glyph glyph-name="uni0413" unicode="&#x413;" horiz-adv-x="1304" 
d="M1252 1520v-312h-704v-1208h-344v1520h1048z" />
    <glyph glyph-name="uni0414" unicode="&#x414;" horiz-adv-x="1740" 
d="M1488 312h184v-632h-336v320h-948v-320h-336v632h168q32 192 32 532v676h1236v-1208zM552 304h596v912h-560v-372q0 -266 -36 -540z" />
    <glyph glyph-name="uni0415" unicode="&#x415;" horiz-adv-x="1404" 
d="M540 300h784v-300h-1120v1520h1100v-300h-764v-296h584v-288h-584v-336z" />
    <glyph glyph-name="uni0416" unicode="&#x416;" horiz-adv-x="2412" 
d="M1980 0l-408 684l-196 -200v-484h-340v484l-196 200l-408 -684h-404l564 920l-556 600h428l572 -640v640h340v-644l576 644h424l-556 -600l564 -920h-404z" />
    <glyph glyph-name="uni0417" unicode="&#x417;" horiz-adv-x="1420" 
d="M1088 780q124 -42 190 -129t66 -215q0 -204 -173 -330t-455 -126q-226 0 -403.5 104.5t-256.5 279.5l280 148q48 -112 146.5 -174t229.5 -62q142 0 217 50t75 146q0 81 -65 126.5t-179 45.5h-208v264h204q92 0 148 41t56 115q0 85 -66.5 134.5t-185.5 49.5
q-246 0 -352 -236l-288 120q75 187 251.5 297.5t400.5 110.5q261 0 418.5 -119t157.5 -317q0 -223 -208 -324z" />
    <glyph glyph-name="uni0418" unicode="&#x418;" horiz-adv-x="1744" 
d="M1208 1520h332v-1520h-336v992l-672 -992h-328v1520h336v-988z" />
    <glyph glyph-name="uni0419" unicode="&#x419;" horiz-adv-x="1744" 
d="M872 1632q-174 0 -281.5 79.5t-122.5 220.5l244 32q12 -64 55 -98t105 -34t105 34t55 98l244 -32q-15 -141 -122.5 -220.5t-281.5 -79.5zM1208 1520h332v-1520h-336v992l-672 -992h-328v1520h336v-988z" />
    <glyph glyph-name="uni041A" unicode="&#x41a;" horiz-adv-x="1636" 
d="M1200 0l-452 680l-200 -200v-480h-344v1520h344v-644l608 644h428l-592 -596l616 -924h-408z" />
    <glyph glyph-name="uni041B" unicode="&#x41b;" horiz-adv-x="1704" 
d="M1500 1520v-1520h-344v1208h-524v-444q0 -145 -7 -251t-24 -196.5t-45 -149.5t-72 -100.5t-104 -60t-140 -18.5q-76 0 -180 12v316h84q35 0 52 3t37.5 18t28.5 43.5t16.5 83.5t11 134t2.5 198v724h1208z" />
    <glyph glyph-name="uni041C" unicode="&#x41c;" horiz-adv-x="2216" 
d="M2012 1520v-1520h-336v1072l-392 -1072h-352l-392 1072v-1072h-336v1520h504l404 -1100l400 1100h500z" />
    <glyph glyph-name="uni041D" unicode="&#x41d;" horiz-adv-x="1720" 
d="M1172 1520h344v-1520h-344v624h-624v-624h-344v1520h344v-584h624v584z" />
    <glyph glyph-name="uni041E" unicode="&#x41e;" horiz-adv-x="1704" 
d="M852 -20q-342 0 -549 213t-207 567q0 231 94.5 408.5t266 274.5t395.5 97q342 0 549 -213t207 -567q0 -231 -94.5 -408.5t-266 -274.5t-395.5 -97zM852 276q183 0 293.5 132.5t110.5 351.5t-110.5 351.5t-293.5 132.5t-293.5 -132.5t-110.5 -351.5t110.5 -351.5
t293.5 -132.5z" />
    <glyph glyph-name="uni041F" unicode="&#x41f;" horiz-adv-x="1720" 
d="M1516 1520v-1520h-344v1208h-624v-1208h-344v1520h1312z" />
    <glyph glyph-name="uni0420" unicode="&#x420;" horiz-adv-x="1500" 
d="M852 1520q273 0 426.5 -130t153.5 -358q0 -231 -153.5 -359.5t-426.5 -128.5h-308v-544h-340v1520h648zM812 816q132 0 202 53t70 155q0 208 -272 208h-268v-416h268z" />
    <glyph glyph-name="uni0421" unicode="&#x421;" horiz-adv-x="1564" 
d="M840 -20q-336 0 -540 213t-204 567q0 231 93 408.5t262 274.5t389 97q246 0 418 -117t238 -327l-324 -112q-85 268 -340 268q-177 0 -280.5 -132t-103.5 -360q0 -229 102 -360.5t282 -131.5q255 0 340 268l324 -112q-63 -210 -236.5 -327t-419.5 -117z" />
    <glyph glyph-name="uni0422" unicode="&#x422;" horiz-adv-x="1448" 
d="M1408 1520v-312h-512v-1208h-344v1208h-512v312h1368z" />
    <glyph glyph-name="uni0423" unicode="&#x423;" horiz-adv-x="1536" 
d="M1144 1520h356l-456 -1136q-37 -95 -78 -165t-97.5 -126t-131.5 -84.5t-169 -28.5q-170 0 -276 107.5t-112 268.5l268 68q3 -84 38 -128t98 -44q76 0 112 52l-688 1216h384l444 -884z" />
    <glyph glyph-name="uni0424" unicode="&#x424;" horiz-adv-x="2040" 
d="M1264 1376q323 0 505.5 -159.5t182.5 -436.5q0 -273 -183.5 -434.5t-504.5 -161.5h-72v-208h-344v208h-76q-322 0 -503 159t-181 437q0 272 183 434t501 162h76v168h344v-168h72zM784 464h64v632h-64q-171 0 -261.5 -81.5t-90.5 -234.5q0 -316 352 -316zM1256 464
q171 0 261.5 81.5t90.5 234.5q0 316 -352 316h-64v-632h64z" />
    <glyph glyph-name="uni0425" unicode="&#x425;" horiz-adv-x="1564" 
d="M1536 0h-388l-368 532l-360 -532h-392l552 780l-524 740h392l340 -488l340 488h380l-524 -740z" />
    <glyph glyph-name="uni0426" unicode="&#x426;" horiz-adv-x="1752" 
d="M1500 312h184v-632h-336v320h-1144v1520h344v-1208h608v1208h344v-1208z" />
    <glyph glyph-name="uni0427" unicode="&#x427;" horiz-adv-x="1580" 
d="M1032 1520h344v-1520h-344v572h-368q-270 0 -411 124t-141 364v460h344v-424q0 -117 57 -168.5t183 -51.5h336v644z" />
    <glyph glyph-name="uni0428" unicode="&#x428;" horiz-adv-x="2416" 
d="M1868 1520h344v-1520h-2008v1520h344v-1208h488v1208h344v-1208h488v1208z" />
    <glyph glyph-name="uni0429" unicode="&#x429;" horiz-adv-x="2464" 
d="M2212 312h184v-632h-336v320h-1856v1520h344v-1208h488v1208h344v-1208h488v1208h344v-1208z" />
    <glyph glyph-name="uni042A" unicode="&#x42a;" horiz-adv-x="1736" 
d="M1080 976q273 0 426.5 -128.5t153.5 -359.5q0 -228 -153.5 -358t-426.5 -130h-652v1212h-388v308h732v-544h308zM1056 288q256 0 256 208q0 102 -65 155t-191 53h-284v-416h284z" />
    <glyph glyph-name="uni042B" unicode="&#x42b;" horiz-adv-x="2196" 
d="M856 976q273 0 426.5 -128.5t153.5 -359.5q0 -228 -153.5 -358t-426.5 -130h-652v1520h344v-544h308zM1648 1520h344v-1520h-344v1520zM832 288q256 0 256 208q0 102 -65 155t-191 53h-284v-416h284z" />
    <glyph glyph-name="uni042C" unicode="&#x42c;" horiz-adv-x="1512" 
d="M856 976q273 0 426.5 -128.5t153.5 -359.5q0 -228 -153.5 -358t-426.5 -130h-652v1520h344v-544h308zM832 288q256 0 256 208q0 102 -65 155t-191 53h-284v-416h284z" />
    <glyph glyph-name="uni042D" unicode="&#x42d;" horiz-adv-x="1556" 
d="M724 1540q333 0 534.5 -213t201.5 -567q0 -231 -92 -408.5t-259 -274.5t-385 -97q-240 0 -416 118t-252 322l304 108q45 -126 136 -193t220 -67q160 0 262 98.5t126 277.5h-544v272h540q-33 162 -132 249t-252 87q-129 0 -220 -67t-136 -193l-304 108q75 207 252.5 323.5
t415.5 116.5z" />
    <glyph glyph-name="uni042E" unicode="&#x42e;" horiz-adv-x="2340" 
d="M1520 1540q330 0 527 -213t197 -567q0 -231 -90.5 -408.5t-255 -274.5t-378.5 -97q-296 0 -486.5 173t-229.5 471h-256v-624h-344v1520h344v-584h264q48 278 238 441t470 163zM1516 268q174 0 273 131.5t99 360.5t-99 360.5t-273 131.5q-171 0 -271.5 -132t-100.5 -360
t100.5 -360t271.5 -132z" />
    <glyph glyph-name="uni042F" unicode="&#x42f;" horiz-adv-x="1588" 
d="M1384 1520v-1520h-344v544h-292l-316 -544h-372l360 596q-136 57 -208 169.5t-72 270.5q0 228 153.5 356t426.5 128h664zM744 820h296v412h-296q-126 0 -191 -52.5t-65 -151.5q0 -102 65 -155t191 -53z" />
    <glyph glyph-name="uni0430" unicode="&#x430;" horiz-adv-x="1328" 
d="M1204 276h48v-276q-48 -8 -116 -8q-111 0 -172.5 43.5t-79.5 136.5q-63 -90 -173.5 -141t-242.5 -51q-177 0 -284.5 96t-107.5 252q0 65 17.5 118.5t45 91.5t71 68t85 48.5t98 33t99.5 22t100 14.5q59 7 97 14t75 19t54.5 30.5t17.5 44.5q0 58 -57.5 93t-158.5 35
q-188 0 -328 -140l-192 196q216 204 540 204q234 0 365 -107.5t131 -296.5v-472q0 -68 68 -68zM540 232q120 0 204 68.5t84 167.5v104q-23 -13 -58 -24t-61.5 -16t-84.5 -16q-34 -5 -53 -8.5t-48.5 -10.5t-46 -14t-36.5 -19t-30.5 -26t-18 -34t-7.5 -44q0 -60 40.5 -94
t115.5 -34z" />
    <glyph glyph-name="uni0431" unicode="&#x431;" horiz-adv-x="1372" 
d="M788 1056q233 0 380.5 -145.5t147.5 -374.5q0 -246 -169 -401t-439 -155q-287 0 -449.5 186t-162.5 514q0 334 134.5 527t409.5 253l284 64q64 12 76 72l12 48l300 -52l-4 -44q-18 -127 -87 -198t-197 -102l-356 -72q-163 -33 -233 -107t-79 -217q67 98 177 151t255 53z
M708 244q129 0 202.5 78.5t73.5 213.5q0 140 -73 218t-203 78t-205 -77.5t-75 -214.5q0 -135 77 -215.5t203 -80.5z" />
    <glyph glyph-name="uni0432" unicode="&#x432;" horiz-adv-x="1292" 
d="M1000 616q102 -33 157 -106t55 -178q0 -160 -118 -246t-330 -86h-600v1200h556q221 0 340.5 -78.5t119.5 -237.5q0 -191 -180 -268zM464 964v-240h256q78 0 115 28.5t37 91.5q0 57 -38 88.5t-110 31.5h-260zM732 240q77 0 118.5 33.5t41.5 94.5q0 64 -44 100t-124 36
h-260v-264h268z" />
    <glyph glyph-name="uni0433" unicode="&#x433;" horiz-adv-x="1116" 
d="M1076 1200v-296h-592v-904h-320v1200h912z" />
    <glyph glyph-name="uni0434" unicode="&#x434;" horiz-adv-x="1508" 
d="M1280 288h160v-568h-308v280h-764v-280h-308v568h148q24 138 24 412v500h1048v-912zM520 280h444v640h-420v-232q0 -240 -24 -408z" />
    <glyph glyph-name="uni0435" unicode="&#x435;" horiz-adv-x="1360" 
d="M396 496q24 -121 106 -186.5t210 -65.5q205 0 328 136l196 -192q-195 -208 -528 -208q-153 0 -273.5 46.5t-197.5 130t-117 196t-40 247.5q0 277 166.5 448.5t441.5 171.5q273 0 434.5 -169t161.5 -451q0 -48 -12 -104h-876zM688 964q-110 0 -185.5 -62t-102.5 -174h564
q-24 114 -94.5 175t-181.5 61z" />
    <glyph glyph-name="uni0436" unicode="&#x436;" horiz-adv-x="2024" 
d="M1628 0l-312 512l-144 -152v-360h-320v360l-148 152l-308 -512h-376l452 724l-444 476h400l424 -492v492h320v-488l424 488h396l-444 -472l456 -728h-376z" />
    <glyph glyph-name="uni0437" unicode="&#x437;" horiz-adv-x="1160" 
d="M904 620q93 -36 144.5 -108t51.5 -168q0 -159 -151.5 -261.5t-388.5 -102.5q-185 0 -327 76.5t-213 219.5l244 136q91 -176 300 -176q99 0 157.5 36.5t58.5 99.5q0 57 -49 90.5t-135 33.5h-164v220h156q70 0 113 34t43 90q0 60 -48 92t-136 32q-190 0 -288 -160l-212 164
q82 121 216 186.5t304 65.5q213 0 342.5 -96.5t129.5 -255.5q0 -168 -148 -248z" />
    <glyph glyph-name="uni0438" unicode="&#x438;" horiz-adv-x="1448" 
d="M968 1200h316v-1200h-312v740l-492 -740h-316v1200h312v-740z" />
    <glyph glyph-name="uni0439" unicode="&#x439;" horiz-adv-x="1448" 
d="M724 1312q-174 0 -281.5 79.5t-122.5 220.5l244 32q12 -64 55 -98t105 -34t105 34t55 98l244 -32q-15 -141 -122.5 -220.5t-281.5 -79.5zM968 1200h316v-1200h-312v740l-492 -740h-316v1200h312v-740z" />
    <glyph glyph-name="uni043A" unicode="&#x43a;" horiz-adv-x="1372" 
d="M980 0l-340 508l-156 -152v-356h-320v1200h320v-480l456 480h400l-476 -472l492 -728h-376z" />
    <glyph glyph-name="uni043B" unicode="&#x43b;" horiz-adv-x="1416" 
d="M1252 1200v-1200h-320v912h-392v-352q0 -216 -37 -339t-115.5 -176t-215.5 -53q-56 0 -136 8v288h76q47 0 69 22.5t32.5 86t10.5 195.5v608h1028z" />
    <glyph glyph-name="uni043C" unicode="&#x43c;" horiz-adv-x="1856" 
d="M1692 1200v-1200h-308v832l-300 -832h-312l-300 832v-832h-308v1200h468l300 -828l296 828h464z" />
    <glyph glyph-name="uni043D" unicode="&#x43d;" 
d="M956 1200h320v-1200h-320v468h-472v-468h-320v1200h320v-444h472v444z" />
    <glyph glyph-name="uni043E" unicode="&#x43e;" horiz-adv-x="1416" 
d="M708 -20q-285 0 -456.5 169t-171.5 451q0 279 173 449.5t455 170.5q285 0 456.5 -169t171.5 -451q0 -279 -173 -449.5t-455 -170.5zM708 244q139 0 219.5 94.5t80.5 261.5t-80.5 261.5t-219.5 94.5t-219.5 -94.5t-80.5 -261.5t80.5 -261.5t219.5 -94.5z" />
    <glyph glyph-name="uni043F" unicode="&#x43f;" 
d="M1276 1200v-1200h-320v912h-472v-912h-320v1200h1112z" />
    <glyph glyph-name="uni0440" unicode="&#x440;" horiz-adv-x="1448" 
d="M856 1220q234 0 373 -169t139 -451q0 -278 -141.5 -449t-370.5 -171q-225 0 -372 160v-540h-320v1600h288l16 -168q144 188 388 188zM756 244q135 0 211.5 95.5t76.5 260.5t-76.5 260.5t-211.5 95.5q-134 0 -209 -95t-75 -261t75 -261t209 -95z" />
    <glyph glyph-name="uni0441" unicode="&#x441;" horiz-adv-x="1300" 
d="M700 -20q-279 0 -449.5 170.5t-170.5 449.5t170.5 449.5t449.5 170.5q208 0 356.5 -95t199.5 -265l-304 -92q-33 91 -98.5 139.5t-157.5 48.5q-132 0 -210 -95.5t-78 -260.5t78 -260.5t210 -95.5q92 0 157.5 48.5t98.5 139.5l304 -92q-51 -170 -199.5 -265t-356.5 -95z
" />
    <glyph glyph-name="uni0442" unicode="&#x442;" horiz-adv-x="1232" 
d="M1192 1200v-288h-416v-912h-320v912h-416v288h1152z" />
    <glyph glyph-name="uni0443" unicode="&#x443;" horiz-adv-x="1372" 
d="M1012 1200h336l-416 -1200q-148 -420 -472 -420q-86 0 -155 22t-113.5 58.5t-75.5 86.5t-45.5 102.5t-18.5 110.5l300 52q6 -156 116 -156q66 0 120 84l-564 1260h352l364 -904z" />
    <glyph glyph-name="uni0444" unicode="&#x444;" horiz-adv-x="2084" 
d="M1520 1216q222 0 353 -167t131 -449q0 -279 -132.5 -447.5t-351.5 -168.5q-192 0 -316 136v-520h-320v528q-120 -144 -320 -144q-222 0 -353 167t-131 449q0 279 132.5 447.5t351.5 168.5q202 0 320 -136v520h320v-520q124 136 316 136zM652 244q114 0 179 95.5t65 260.5
t-65 260.5t-179 95.5t-181 -95.5t-67 -260.5t67 -260.5t181 -95.5zM1436 244q114 0 179 95.5t65 260.5t-65 260.5t-179 95.5q-117 0 -182.5 -95t-65.5 -261t65.5 -261t182.5 -95z" />
    <glyph glyph-name="uni0445" unicode="&#x445;" horiz-adv-x="1360" 
d="M1324 0h-372l-272 388l-272 -388h-372l440 608l-420 592h364l264 -380l268 380h356l-420 -596z" />
    <glyph glyph-name="uni0446" unicode="&#x446;" horiz-adv-x="1496" 
d="M1268 288h160v-568h-308v280h-956v1200h320v-912h464v912h320v-912z" />
    <glyph glyph-name="uni0447" unicode="&#x447;" horiz-adv-x="1336" 
d="M852 1200h320v-1200h-320v416h-236q-245 0 -384.5 120.5t-139.5 331.5v332h320v-332q0 -90 45.5 -127t158.5 -37h236v496z" />
    <glyph glyph-name="uni0448" unicode="&#x448;" horiz-adv-x="2024" 
d="M1540 1200h320v-1200h-1696v1200h320v-912h368v912h320v-912h368v912z" />
    <glyph glyph-name="uni0449" unicode="&#x449;" horiz-adv-x="2088" 
d="M1860 288h160v-568h-308v280h-1548v1200h320v-912h368v912h320v-912h368v912h320v-912z" />
    <glyph glyph-name="uni044A" unicode="&#x44a;" horiz-adv-x="1472" 
d="M940 792q219 0 341.5 -105t122.5 -291q0 -183 -124 -289.5t-340 -106.5h-596v912h-304v288h624v-408h276zM892 248q188 0 188 152t-188 152h-228v-304h228z" />
    <glyph glyph-name="uni044B" unicode="&#x44b;" horiz-adv-x="1876" 
d="M760 792q219 0 341.5 -105t122.5 -291q0 -183 -124 -289.5t-340 -106.5h-596v1200h320v-408h276zM1392 1200h320v-1200h-320v1200zM712 248q188 0 188 152t-188 152h-228v-304h228z" />
    <glyph glyph-name="uni044C" unicode="&#x44c;" horiz-adv-x="1292" 
d="M760 792q219 0 341.5 -105t122.5 -291q0 -183 -124 -289.5t-340 -106.5h-596v1200h320v-408h276zM712 248q188 0 188 152t-188 152h-228v-304h228z" />
    <glyph glyph-name="uni044D" unicode="&#x44d;" horiz-adv-x="1292" 
d="M600 1220q276 0 444 -170.5t168 -449.5t-168 -449.5t-444 -170.5q-203 0 -351.5 92t-208.5 252l284 92q34 -86 103 -133t169 -47q113 0 192.5 71.5t103.5 192.5h-432v224h424q-27 112 -102.5 176t-185.5 64q-199 0 -276 -180l-276 92q57 159 206 251.5t350 92.5z" />
    <glyph glyph-name="uni044E" unicode="&#x44e;" horiz-adv-x="1972" 
d="M1284 1220q276 0 442 -169t166 -451q0 -279 -167.5 -449.5t-440.5 -170.5q-242 0 -399 131t-193 357h-208v-468h-320v1200h320v-444h212q42 214 198.5 339t389.5 125zM1284 244q132 0 206 94t74 262t-74 262t-206 94t-208 -94.5t-76 -261.5t76 -261.5t208 -94.5z" />
    <glyph glyph-name="uni044F" unicode="&#x44f;" horiz-adv-x="1332" 
d="M1168 1200v-1200h-316v408h-216l-248 -408h-352l292 456q-107 46 -165.5 132.5t-58.5 207.5q0 186 131 295t353 109h580zM628 644h224v300h-224q-96 0 -148 -40t-52 -112t52 -110t148 -38z" />
    <glyph glyph-name="uni0451" unicode="&#x451;" horiz-adv-x="1360" 
d="M612 1624v-272h-328v272h328zM1076 1624v-272h-328v272h328zM396 496q24 -121 106 -186.5t210 -65.5q205 0 328 136l196 -192q-195 -208 -528 -208q-153 0 -273.5 46.5t-197.5 130t-117 196t-40 247.5q0 277 166.5 448.5t441.5 171.5q273 0 434.5 -169t161.5 -451
q0 -48 -12 -104h-876zM688 964q-110 0 -185.5 -62t-102.5 -174h564q-24 114 -94.5 175t-181.5 61z" />
    <glyph glyph-name="uni0454" unicode="&#x454;" horiz-adv-x="1300" 
d="M696 236q97 0 168 49.5t108 138.5l288 -104q-57 -159 -206.5 -249.5t-353.5 -90.5q-279 0 -449.5 170.5t-170.5 449.5t170.5 449.5t449.5 170.5q204 0 353.5 -90.5t206.5 -249.5l-288 -104q-37 89 -108 138.5t-168 49.5q-110 0 -185.5 -64t-102.5 -176h424v-224h-428
q24 -124 100 -194t192 -70z" />
    <glyph glyph-name="uni0456" unicode="&#x456;" horiz-adv-x="688" 
d="M172 1352v272h344v-272h-344zM184 0v1200h320v-1200h-320z" />
    <glyph glyph-name="uni0457" unicode="&#x457;" horiz-adv-x="688" 
d="M-52 1352v272h328v-272h-328zM412 1352v272h328v-272h-328zM184 0v1200h320v-1200h-320z" />
    <glyph glyph-name="uni045E" unicode="&#x45e;" horiz-adv-x="1372" 
d="M688 1312q-174 0 -281.5 79.5t-122.5 220.5l244 32q12 -64 55 -98t105 -34t105 34t55 98l244 -32q-15 -141 -122.5 -220.5t-281.5 -79.5zM1012 1200h336l-416 -1200q-148 -420 -472 -420q-86 0 -155 22t-113.5 58.5t-75.5 86.5t-45.5 102.5t-18.5 110.5l300 52
q6 -156 116 -156q66 0 120 84l-564 1260h352l364 -904z" />
    <glyph glyph-name="uni0490" unicode="&#x490;" horiz-adv-x="1304" 
d="M916 1840h336v-632h-704v-1208h-344v1520h712v320z" />
    <glyph glyph-name="uni0491" unicode="&#x491;" horiz-adv-x="1116" 
d="M768 1520h308v-616h-592v-904h-320v1200h604v320z" />
    <glyph glyph-name="Wgrave" unicode="&#x1e80;" horiz-adv-x="2304" 
d="M1256 1616h-220l-244 316h344zM1904 1520h344l-440 -1520h-360l-300 1048l-296 -1048h-360l-436 1520h352l280 -1064l296 1064h332l296 -1056z" />
    <glyph glyph-name="wgrave" unicode="&#x1e81;" horiz-adv-x="1948" 
d="M1080 1296h-220l-244 316h344zM1576 1200h324l-352 -1200h-356l-220 768l-212 -768h-356l-356 1200h332l220 -864l228 864h292l236 -876z" />
    <glyph glyph-name="Wacute" unicode="&#x1e82;" horiz-adv-x="2304" 
d="M1512 1932l-244 -316h-220l120 316h344zM1904 1520h344l-440 -1520h-360l-300 1048l-296 -1048h-360l-436 1520h352l280 -1064l296 1064h332l296 -1056z" />
    <glyph glyph-name="wacute" unicode="&#x1e83;" horiz-adv-x="1948" 
d="M1336 1612l-244 -316h-220l120 316h344zM1576 1200h324l-352 -1200h-356l-220 768l-212 -768h-356l-356 1200h332l220 -864l228 864h292l236 -876z" />
    <glyph glyph-name="Wdieresis" unicode="&#x1e84;" horiz-adv-x="2304" 
d="M1084 1944v-272h-328v272h328zM1548 1944v-272h-328v272h328zM1904 1520h344l-440 -1520h-360l-300 1048l-296 -1048h-360l-436 1520h352l280 -1064l296 1064h332l296 -1056z" />
    <glyph glyph-name="wdieresis" unicode="&#x1e85;" horiz-adv-x="1948" 
d="M908 1624v-272h-328v272h328zM1372 1624v-272h-328v272h328zM1576 1200h324l-352 -1200h-356l-220 768l-212 -768h-356l-356 1200h332l220 -864l228 864h292l236 -876z" />
    <glyph glyph-name="uni1E9E" unicode="&#x1e9e;" horiz-adv-x="1776" 
d="M1228 904q109 -7 196 -46t141 -99t82.5 -134.5t28.5 -156.5q0 -97 -35.5 -183t-104 -155t-180 -109.5t-252.5 -40.5q-259 0 -428 144l168 228q108 -96 260 -96q110 0 175 59.5t65 156.5q0 95 -65 157.5t-171 62.5q-101 0 -176 -56l-144 176l376 412h-616v-1224h-344v1520
h1356v-256z" />
    <glyph glyph-name="Ygrave" unicode="&#x1ef2;" horiz-adv-x="1560" 
d="M888 1616h-220l-244 316h344zM1548 1520l-596 -928v-592h-344v596l-596 924h392l380 -616l380 616h384z" />
    <glyph glyph-name="ygrave" unicode="&#x1ef3;" horiz-adv-x="1372" 
d="M792 1296h-220l-244 316h344zM1012 1200h336l-416 -1200q-148 -420 -472 -420q-86 0 -155 22t-113.5 58.5t-75.5 86.5t-45.5 102.5t-18.5 110.5l300 52q6 -156 116 -156q66 0 120 84l-564 1260h352l364 -904z" />
    <glyph glyph-name="endash" unicode="&#x2013;" horiz-adv-x="1328" 
d="M140 532v296h1048v-296h-1048z" />
    <glyph glyph-name="emdash" unicode="&#x2014;" horiz-adv-x="1808" 
d="M140 532v296h1528v-296h-1528z" />
    <glyph glyph-name="quoteleft" unicode="&#x2018;" horiz-adv-x="704" 
d="M496 1432q-72 0 -105 -32t-39 -104h180v-376h-376v304q0 187 85.5 281.5t234.5 94.5h56v-168h-36z" />
    <glyph glyph-name="quoteright" unicode="&#x2019;" horiz-adv-x="704" 
d="M172 1520h376v-304q0 -187 -85.5 -281.5t-234.5 -94.5h-56v168h36q72 0 105 32t39 104h-180v376z" />
    <glyph glyph-name="quotesinglbase" unicode="&#x201a;" horiz-adv-x="720" 
d="M172 376h376v-304q0 -187 -85.5 -281.5t-234.5 -94.5h-56v168h36q72 0 105 32t39 104h-180v376z" />
    <glyph glyph-name="quotedblleft" unicode="&#x201c;" horiz-adv-x="1240" 
d="M156 1224q0 187 85.5 281.5t234.5 94.5h56v-168h-36q-72 0 -105 -32t-39 -104h180v-376h-376v304zM1032 1432q-72 0 -105 -32t-39 -104h180v-376h-376v304q0 187 85.5 281.5t234.5 94.5h56v-168h-36z" />
    <glyph glyph-name="quotedblright" unicode="&#x201d;" horiz-adv-x="1240" 
d="M172 1144v376h376v-304q0 -187 -85.5 -281.5t-234.5 -94.5h-56v168h36q72 0 105 32t39 104h-180zM708 1520h376v-304q0 -187 -85.5 -281.5t-234.5 -94.5h-56v168h36q72 0 105 32t39 104h-180v376z" />
    <glyph glyph-name="quotedblbase" unicode="&#x201e;" horiz-adv-x="1256" 
d="M172 0v376h376v-304q0 -187 -85.5 -281.5t-234.5 -94.5h-56v168h36q72 0 105 32t39 104h-180zM708 376h376v-304q0 -187 -85.5 -281.5t-234.5 -94.5h-56v168h36q72 0 105 32t39 104h-180v376z" />
    <glyph glyph-name="dagger" unicode="&#x2020;" horiz-adv-x="928" 
d="M768 1412v-168h-208v-400h-192v400h-208v168h208v188h192v-188h208z" />
    <glyph glyph-name="daggerdbl" unicode="&#x2021;" horiz-adv-x="928" 
d="M768 1280h-208v-116h208v-172h-208v-148h-192v148h-208v172h208v116h-208v172h208v148h192v-148h208v-172z" />
    <glyph glyph-name="bullet" unicode="&#x2022;" horiz-adv-x="1536" 
d="M768 320q-153 0 -256.5 103.5t-103.5 256.5t103.5 256.5t256.5 103.5t256.5 -103.5t103.5 -256.5t-103.5 -256.5t-256.5 -103.5z" />
    <glyph glyph-name="ellipsis" unicode="&#x2026;" horiz-adv-x="1936" 
d="M172 0v376h376v-376h-376zM780 0v376h376v-376h-376zM1388 0v376h376v-376h-376z" />
    <glyph glyph-name="perthousand" unicode="&#x2030;" horiz-adv-x="3136" 
d="M520 620q-195 0 -309.5 125t-114.5 335t114.5 335t309.5 125t309.5 -125t114.5 -335t-114.5 -335t-309.5 -125zM500 0l964 1520h220l-964 -1520h-220zM520 828q84 0 134 67.5t50 184.5t-50 184.5t-134 67.5t-134 -67.5t-50 -184.5t50 -184.5t134 -67.5zM1664 -20
q-195 0 -309.5 125t-114.5 335t114.5 335t309.5 125t309.5 -125t114.5 -335t-114.5 -335t-309.5 -125zM2632 -20q-195 0 -309.5 125t-114.5 335t114.5 335t309.5 125t309.5 -125t114.5 -335t-114.5 -335t-309.5 -125zM1664 188q84 0 134 67.5t50 184.5t-50 184.5t-134 67.5
t-134 -67.5t-50 -184.5t50 -184.5t134 -67.5zM2632 188q84 0 134 67.5t50 184.5t-50 184.5t-134 67.5t-134 -67.5t-50 -184.5t50 -184.5t134 -67.5z" />
    <glyph glyph-name="prime" unicode="&#x2032;" horiz-adv-x="640" 
d="M216 1296l120 316h344l-244 -316h-220z" />
    <glyph glyph-name="guilsinglleft" unicode="&#x2039;" horiz-adv-x="760" 
d="M612 1172v-328l-236 -160l236 -164v-332l-504 340v304z" />
    <glyph glyph-name="guilsinglright" unicode="&#x203a;" horiz-adv-x="760" 
d="M148 1172l504 -340v-304l-504 -340v328l236 160l-236 164v332z" />
    <glyph glyph-name="fraction" unicode="&#x2044;" horiz-adv-x="80" 
d="M-552 0l964 1520h220l-964 -1520h-220z" />
    <glyph glyph-name="uni2070" unicode="&#x2070;" horiz-adv-x="936" 
d="M468 932q-189 0 -300.5 125t-111.5 335t111.5 335t300.5 125t300.5 -125t111.5 -335t-111.5 -335t-300.5 -125zM468 1132q84 0 134 71.5t50 188.5q0 120 -50 192t-134 72q-81 0 -130.5 -72t-49.5 -192q0 -117 49.5 -188.5t130.5 -71.5z" />
    <glyph glyph-name="uni2074" unicode="&#x2074;" horiz-adv-x="936" 
d="M888 1332v-196h-140v-192h-216v192h-476v184l416 520h276v-508h140zM288 1332h244v304z" />
    <glyph glyph-name="uni2075" unicode="&#x2075;" horiz-adv-x="936" 
d="M504 1544q144 0 232 -79t88 -205q0 -141 -111 -234.5t-281 -93.5q-114 0 -209.5 45t-146.5 123l148 128q76 -104 208 -104q76 0 120 35t44 97q0 56 -40.5 88t-107.5 32q-109 0 -160 -64l-152 64l40 464h584v-192h-408l-16 -140q72 36 168 36z" />
    <glyph glyph-name="uni2076" unicode="&#x2076;" horiz-adv-x="936" 
d="M540 1532q150 0 241 -77.5t91 -206.5q0 -142 -106 -229t-270 -87q-192 0 -298 124t-106 332q0 207 113 335.5t315 128.5q200 0 312 -112l-156 -156q-27 32 -75 52t-97 20q-78 0 -134.5 -57t-65.5 -147q80 80 236 80zM496 1120q68 0 106 33t38 91q0 55 -37.5 89.5
t-102.5 34.5q-69 0 -110.5 -35.5t-41.5 -92.5q0 -54 40 -87t108 -33z" />
    <glyph glyph-name="uni2077" unicode="&#x2077;" horiz-adv-x="820" 
d="M16 1840h776v-188q-153 -120 -238.5 -306t-85.5 -402h-236q0 190 85 375.5t227 312.5h-528v208z" />
    <glyph glyph-name="uni2078" unicode="&#x2078;" horiz-adv-x="936" 
d="M712 1408q140 -76 140 -212q0 -123 -102 -193.5t-282 -70.5t-282 70.5t-102 193.5q0 138 140 208q-54 33 -83 82t-29 106q0 120 95.5 190t260.5 70t260.5 -70t95.5 -190q0 -57 -29 -105.5t-83 -78.5zM468 1672q-72 0 -112 -25.5t-40 -70.5q0 -40 40.5 -64t111.5 -24
t111.5 24t40.5 64q0 45 -40 70.5t-112 25.5zM468 1112q75 0 119.5 25.5t44.5 70.5t-44.5 70.5t-119.5 25.5t-119.5 -25.5t-44.5 -70.5t44.5 -70.5t119.5 -25.5z" />
    <glyph glyph-name="uni2079" unicode="&#x2079;" horiz-adv-x="936" 
d="M440 1852q192 0 298 -124t106 -332q0 -207 -113 -335.5t-315 -128.5q-200 0 -312 112l156 156q27 -32 75 -52t97 -20q78 0 134.5 57t65.5 147q-80 -80 -236 -80q-150 0 -241 77.5t-91 206.5q0 142 106 229t270 87zM436 1416q69 0 110.5 35.5t41.5 92.5q0 54 -40 87
t-108 33t-106 -33t-38 -91q0 -55 37.5 -89.5t102.5 -34.5z" />
    <glyph glyph-name="uni2080" unicode="&#x2080;" horiz-adv-x="936" 
d="M468 -332q-189 0 -300.5 125t-111.5 335t111.5 335t300.5 125t300.5 -125t111.5 -335t-111.5 -335t-300.5 -125zM468 -132q84 0 134 71.5t50 188.5q0 120 -50 192t-134 72q-81 0 -130.5 -72t-49.5 -192q0 -117 49.5 -188.5t130.5 -71.5z" />
    <glyph glyph-name="uni2081" unicode="&#x2081;" horiz-adv-x="760" 
d="M576 576v-896h-228v556h-248v184h72q124 0 169.5 32.5t54.5 123.5h180z" />
    <glyph glyph-name="uni2082" unicode="&#x2082;" horiz-adv-x="936" 
d="M464 -120h396v-200h-752v164l352 240q68 46 108 100.5t40 107.5q0 48 -34 76t-94 28q-71 0 -113.5 -40.5t-42.5 -107.5l-216 28q9 139 110.5 225.5t273.5 86.5q157 0 252.5 -73.5t95.5 -198.5q0 -92 -66.5 -177.5t-237.5 -206.5z" />
    <glyph glyph-name="uni2083" unicode="&#x2083;" horiz-adv-x="936" 
d="M584 228q114 -12 183 -83.5t69 -176.5q0 -132 -106.5 -216t-277.5 -84q-139 0 -241 57.5t-147 162.5l168 104q31 -61 88.5 -96.5t131.5 -35.5q72 0 114 33.5t42 90.5q0 52 -37.5 80t-94.5 28q-56 0 -104 -24l-92 116l232 192h-396v200h684v-176z" />
    <glyph glyph-name="uni2084" unicode="&#x2084;" horiz-adv-x="936" 
d="M888 68v-196h-140v-192h-216v192h-476v184l416 520h276v-508h140zM288 68h244v304z" />
    <glyph glyph-name="uni2085" unicode="&#x2085;" horiz-adv-x="936" 
d="M504 280q144 0 232 -79t88 -205q0 -141 -111 -234.5t-281 -93.5q-114 0 -209.5 45t-146.5 123l148 128q76 -104 208 -104q76 0 120 35t44 97q0 56 -40.5 88t-107.5 32q-109 0 -160 -64l-152 64l40 464h584v-192h-408l-16 -140q72 36 168 36z" />
    <glyph glyph-name="uni2086" unicode="&#x2086;" horiz-adv-x="936" 
d="M540 268q150 0 241 -77.5t91 -206.5q0 -142 -106 -229t-270 -87q-192 0 -298 124t-106 332q0 207 113 335.5t315 128.5q200 0 312 -112l-156 -156q-27 32 -75 52t-97 20q-78 0 -134.5 -57t-65.5 -147q80 80 236 80zM496 -144q68 0 106 33t38 91q0 55 -37.5 89.5
t-102.5 34.5q-69 0 -110.5 -35.5t-41.5 -92.5q0 -54 40 -87t108 -33z" />
    <glyph glyph-name="uni2087" unicode="&#x2087;" horiz-adv-x="820" 
d="M16 576h776v-188q-153 -120 -238.5 -306t-85.5 -402h-236q0 190 85 375.5t227 312.5h-528v208z" />
    <glyph glyph-name="uni2088" unicode="&#x2088;" horiz-adv-x="936" 
d="M712 144q140 -76 140 -212q0 -123 -102 -193.5t-282 -70.5t-282 70.5t-102 193.5q0 138 140 208q-54 33 -83 82t-29 106q0 120 95.5 190t260.5 70t260.5 -70t95.5 -190q0 -57 -29 -105.5t-83 -78.5zM468 408q-72 0 -112 -25.5t-40 -70.5q0 -40 40.5 -64t111.5 -24
t111.5 24t40.5 64q0 45 -40 70.5t-112 25.5zM468 -152q75 0 119.5 25.5t44.5 70.5t-44.5 70.5t-119.5 25.5t-119.5 -25.5t-44.5 -70.5t44.5 -70.5t119.5 -25.5z" />
    <glyph glyph-name="uni2089" unicode="&#x2089;" horiz-adv-x="936" 
d="M440 588q192 0 298 -124t106 -332q0 -207 -113 -335.5t-315 -128.5q-200 0 -312 112l156 156q27 -32 75 -52t97 -20q78 0 134.5 57t65.5 147q-80 -80 -236 -80q-150 0 -241 77.5t-91 206.5q0 142 106 229t270 87zM436 152q69 0 110.5 35.5t41.5 92.5q0 54 -40 87t-108 33
t-106 -33t-38 -91q0 -55 37.5 -89.5t102.5 -34.5z" />
    <glyph glyph-name="Euro" unicode="&#x20ac;" 
d="M824 244q93 0 157 61t95 167l296 -136q-70 -168 -211 -262t-333 -94q-236 0 -397 141t-215 391h-180v176h156v72v72h-156v176h180q54 250 215 391t397 141q192 0 333 -94t211 -262l-296 -136q-31 106 -95 167t-157 61q-104 0 -175.5 -69t-104.5 -199h360v-176h-388v-72
v-72h388v-176h-360q33 -130 104.5 -199t175.5 -69z" />
    <glyph glyph-name="uni20BD" unicode="&#x20bd;" horiz-adv-x="1476" 
d="M864 624h-240v-144h540v-176h-540v-304h-340v304h-228v176h228v144h-228v176h228v720h580q249 0 390.5 -119t141.5 -329q0 -212 -141 -330t-391 -118zM776 1216h-152v-416h152q132 0 202 53t70 155q0 208 -272 208z" />
    <glyph glyph-name="uni2116" unicode="&#x2116;" horiz-adv-x="2492" 
d="M1208 552v968h332v-1520h-320l-684 968v-968h-332v1520h324zM2068 872q-150 0 -245 90t-95 234t95 234t245 90t245 -90t95 -234t-95 -234t-245 -90zM2068 1348q-69 0 -112.5 -41.5t-43.5 -110.5t43.5 -110.5t112.5 -41.5t112.5 41.5t43.5 110.5t-43.5 110.5t-112.5 41.5z
M1768 532v200h600v-200h-600z" />
    <glyph glyph-name="trademark" unicode="&#x2122;" horiz-adv-x="2088" 
d="M796 1520v-204h-252v-556h-224v556h-252v204h728zM1912 1520v-760h-224v504l-180 -504h-204l-180 504v-504h-220v760h320l184 -504l184 504h320z" />
    <glyph glyph-name="oneeighth" unicode="&#x215b;" horiz-adv-x="1776" 
d="M348 624v556h-248v184h72q124 0 169.5 32.5t54.5 123.5h180v-896h-228zM1172 1520h220l-964 -1520h-220zM1552 464q140 -76 140 -212q0 -123 -102 -193.5t-282 -70.5t-282 70.5t-102 193.5q0 138 140 208q-54 33 -83 82t-29 106q0 120 95.5 190t260.5 70t260.5 -70
t95.5 -190q0 -57 -29 -105.5t-83 -78.5zM1308 728q-72 0 -112 -25.5t-40 -70.5q0 -40 40.5 -64t111.5 -24t111.5 24t40.5 64q0 45 -40 70.5t-112 25.5zM1308 168q75 0 119.5 25.5t44.5 70.5t-44.5 70.5t-119.5 25.5t-119.5 -25.5t-44.5 -70.5t44.5 -70.5t119.5 -25.5z" />
    <glyph glyph-name="threeeighths" unicode="&#x215c;" horiz-adv-x="1952" 
d="M836 912q0 -132 -106.5 -216t-277.5 -84q-139 0 -241 57.5t-147 162.5l168 104q31 -61 88.5 -96.5t131.5 -35.5q72 0 114 33.5t42 90.5q0 52 -37.5 80t-94.5 28q-56 0 -104 -24l-92 116l232 192h-396v200h684v-176l-216 -172q114 -12 183 -83.5t69 -176.5zM1348 1520h220
l-964 -1520h-220zM1728 464q140 -76 140 -212q0 -123 -102 -193.5t-282 -70.5t-282 70.5t-102 193.5q0 138 140 208q-54 33 -83 82t-29 106q0 120 95.5 190t260.5 70t260.5 -70t95.5 -190q0 -57 -29 -105.5t-83 -78.5zM1484 728q-72 0 -112 -25.5t-40 -70.5q0 -40 40.5 -64
t111.5 -24t111.5 24t40.5 64q0 45 -40 70.5t-112 25.5zM1484 168q75 0 119.5 25.5t44.5 70.5t-44.5 70.5t-119.5 25.5t-119.5 -25.5t-44.5 -70.5t44.5 -70.5t119.5 -25.5z" />
    <glyph glyph-name="fiveeighths" unicode="&#x215d;" horiz-adv-x="1952" 
d="M824 940q0 -141 -111 -234.5t-281 -93.5q-114 0 -209.5 45t-146.5 123l148 128q76 -104 208 -104q76 0 120 35t44 97q0 56 -40.5 88t-107.5 32q-109 0 -160 -64l-152 64l40 464h584v-192h-408l-16 -140q72 36 168 36q144 0 232 -79t88 -205zM1348 1520h220l-964 -1520
h-220zM1728 464q140 -76 140 -212q0 -123 -102 -193.5t-282 -70.5t-282 70.5t-102 193.5q0 138 140 208q-54 33 -83 82t-29 106q0 120 95.5 190t260.5 70t260.5 -70t95.5 -190q0 -57 -29 -105.5t-83 -78.5zM1484 728q-72 0 -112 -25.5t-40 -70.5q0 -40 40.5 -64t111.5 -24
t111.5 24t40.5 64q0 45 -40 70.5t-112 25.5zM1484 168q75 0 119.5 25.5t44.5 70.5t-44.5 70.5t-119.5 25.5t-119.5 -25.5t-44.5 -70.5t44.5 -70.5t119.5 -25.5z" />
    <glyph glyph-name="seveneighths" unicode="&#x215e;" horiz-adv-x="1836" 
d="M232 624q0 190 85 375.5t227 312.5h-528v208h776v-188q-153 -120 -238.5 -306t-85.5 -402h-236zM1176 1520h220l-964 -1520h-220zM1612 464q140 -76 140 -212q0 -123 -102 -193.5t-282 -70.5t-282 70.5t-102 193.5q0 138 140 208q-54 33 -83 82t-29 106q0 120 95.5 190
t260.5 70t260.5 -70t95.5 -190q0 -57 -29 -105.5t-83 -78.5zM1368 728q-72 0 -112 -25.5t-40 -70.5q0 -40 40.5 -64t111.5 -24t111.5 24t40.5 64q0 45 -40 70.5t-112 25.5zM1368 168q75 0 119.5 25.5t44.5 70.5t-44.5 70.5t-119.5 25.5t-119.5 -25.5t-44.5 -70.5t44.5 -70.5
t119.5 -25.5z" />
    <glyph glyph-name="arrowboth" unicode="&#x2194;" horiz-adv-x="1852" 
d="M1220 1408l648 -648l-648 -648l-208 212l292 292h-756l296 -292l-212 -212l-648 648l648 648l212 -208l-296 -296h756l-292 296z" />
    <glyph glyph-name="arrowupdn" unicode="&#x2195;" horiz-adv-x="1600" 
d="M944 316l296 296l208 -212l-648 -648l-648 648l212 212l292 -296v756l-292 -292l-212 208l648 648l648 -648l-208 -208l-296 292v-756z" />
    <glyph glyph-name="minus" unicode="&#x2212;" 
d="M168 636v248h1104v-248h-1104z" />
    <glyph glyph-name="approxequal" unicode="&#x2248;" 
d="M284 856l-192 128q14 30 34.5 62.5t56 71t76.5 68.5t98 50t119 20q63 0 121 -17t102 -41t85 -48t87.5 -41t92.5 -17q51 0 104.5 40t87.5 112l192 -128q-17 -40 -47.5 -82t-77.5 -87.5t-115 -74t-144 -28.5q-63 0 -121 17t-102 41t-85 48t-87.5 41t-92.5 17
q-51 0 -104.5 -40t-87.5 -112zM284 280l-192 128q14 30 34.5 62.5t56 71t76.5 68.5t98 50t119 20q63 0 121 -17t102 -41t85 -48t87.5 -41t92.5 -17q51 0 104.5 40t87.5 112l192 -128q-17 -40 -47.5 -82t-77.5 -87.5t-115 -74t-144 -28.5q-63 0 -121 17t-102 41t-85 48
t-87.5 41t-92.5 17q-51 0 -104.5 -40t-87.5 -112z" />
    <glyph glyph-name="notequal" unicode="&#x2260;" 
d="M1272 924h-336l-176 -328h512v-248h-640l-88 -164h-256l88 164h-208v248h336l176 328h-512v248h640l88 164h256l-88 -164h208v-248z" />
    <glyph glyph-name="lessequal" unicode="&#x2264;" 
d="M1272 1468v-268l-732 -288l732 -288v-276l-1104 440v240zM168 0v248h1104v-248h-1104z" />
    <glyph glyph-name="greaterequal" unicode="&#x2265;" 
d="M168 1468l1104 -440v-240l-1104 -440v268l732 288l-732 288v276zM168 0v248h1104v-248h-1104z" />
    <glyph glyph-name="male" unicode="&#x2642;" horiz-adv-x="2024" 
d="M1012 -256q294 0 449 13t245 46t158 101t101 158t46 245t13 449t-13 449t-46 245t-101 158t-158 101t-245 46t-449 13t-449 -13t-245 -46t-158 -101t-101 -158t-46 -245t-13 -449t13 -449t46 -245t101 -158t158 -101t245 -46t449 -13zM1100 1032q-33 0 -46.5 13t-13.5 43
q0 27 13.5 39.5t46.5 12.5q30 0 43 -12.5t13 -39.5q0 -30 -13 -43t-43 -13zM788 1052v-440h60v-188h-84v112h-312v-112h-84v188h44q44 73 44 228v212h332zM536 844q0 -165 -40 -232h204v360h-164v-128zM1040 608l128 84l40 -60l-132 -92q-30 -12 -52 -12q-39 0 -60 28
t-12 64l76 260h-116l24 76h196l-96 -344zM1596 956v-420h-88v148h-72l-96 -148h-96l108 164q-43 12 -67.5 44.5t-24.5 79.5q0 58 39 95t101 37h196zM1408 756h100v128h-100q-27 0 -45.5 -18.5t-18.5 -45.5t18.5 -45.5t45.5 -18.5z" />
    <glyph glyph-name="uni2643" unicode="&#x2643;" horiz-adv-x="2024" 
d="M1012 -256q-294 0 -449 13t-245 46t-158 101t-101 158t-46 245t-13 449t13 449t46 245t101 158t158 101t245 46t449 13t449 -13t245 -46t158 -101t101 -158t46 -245t13 -449t-13 -449t-46 -245t-101 -158t-158 -101t-245 -46t-449 -13zM1012 -224q288 0 440.5 13t238 44
t149.5 95t95 149.5t44 238t13 440.5t-13 440.5t-44 238t-95 149.5t-149.5 95t-238 44t-440.5 13t-440.5 -13t-238 -44t-149.5 -95t-95 -149.5t-44 -238t-13 -440.5t13 -440.5t44 -238t95 -149.5t149.5 -95t238 -44t440.5 -13zM1100 1032q-33 0 -46.5 13t-13.5 43t13.5 43
t46.5 13t48.5 -13t15.5 -43t-15.5 -43t-48.5 -13zM792 1056v-440h60v-196h-88v112h-308v-112h-88v196h44q40 67 40 224v216h340zM544 844q0 -71 -12 -133t-28 -95h196v352h-156v-124zM1044 612l128 88l44 -68l-136 -92q-27 -16 -56 -16q-40 0 -62 28.5t-10 67.5l72 256h-112
l20 84h204l-96 -348h4zM1600 960v-428h-92v148h-72l-96 -148h-100l108 164q-42 15 -65 49t-23 79q0 60 38.5 98t101.5 38h200zM1412 760h96v120h-96q-27 0 -45.5 -16.5t-18.5 -43.5t18.5 -43.5t45.5 -16.5z" />
    <glyph glyph-name="uni2644" unicode="&#x2644;" horiz-adv-x="2024" 
d="M1012 -256q-294 0 -449 13t-245 46t-158 101t-101 158t-46 245t-13 449t13 449t46 245t101 158t158 101t245 46t449 13t449 -13t245 -46t158 -101t101 -158t46 -245t13 -449t-13 -449t-46 -245t-101 -158t-158 -101t-245 -46t-449 -13zM1012 -224q288 0 440.5 13t238 44
t149.5 95t95 149.5t44 238t13 440.5t-13 440.5t-44 238t-95 149.5t-149.5 95t-238 44t-440.5 13t-440.5 -13t-238 -44t-149.5 -95t-95 -149.5t-44 -238t-13 -440.5t13 -440.5t44 -238t95 -149.5t149.5 -95t238 -44t440.5 -13zM1012 4q-20 34 -44 48q-120 94 -144 236h-236
v1024q95 -48 157 -143.5t71 -204.5l36 -288l-20 4q-27 0 -47.5 -22.5t-20.5 -49.5t16 -46t40 -22l44 -12q112 212 112 396q0 57 -8 176.5t-8 179.5q0 78 52 136q52 -58 52 -136q0 -60 -8 -179.5t-8 -176.5q0 -184 112 -396l44 12q24 3 40 22t16 46q0 28 -21.5 50t-50.5 22
l-16 -4l36 288q12 111 73 206t155 142v-1024h-236q-25 -148 -144 -236q-24 -14 -44 -48zM660 644h40q11 52 72 92l-28 236q-12 107 -84 192v-520zM1324 644h40v520q-72 -85 -84 -192l-28 -236q61 -40 72 -92zM1012 460q35 42 76 52q-56 99 -76 172q-20 -73 -76 -172
q41 -10 76 -52zM660 360h160q0 50 12 104l-32 4q-36 12 -63.5 40t-36.5 64h-40v-212zM1204 360h160v212h-40q-9 -36 -36.5 -64t-63.5 -40l-32 -4q12 -54 12 -104zM888 360h88q0 33 -21.5 57.5t-54.5 30.5q-12 -42 -12 -88zM1048 360h88q0 46 -12 88q-33 -6 -54.5 -30.5
t-21.5 -57.5zM976 140v148h-80q22 -77 80 -148zM1048 140q58 71 80 148h-80v-148z" />
    <glyph glyph-name="uni2645" unicode="&#x2645;" horiz-adv-x="2232" 
d="M1116 -448q-21 43 -68 76q-88 67 -147.5 163t-80.5 209h-372v1608q150 -75 249 -226t111 -322l56 -452l-28 4q-44 0 -78 -34.5t-34 -77.5q0 -38 26 -68.5t66 -39.5l68 -16q176 333 176 624q0 99 -13 285t-15 271q0 123 84 220q84 -97 84 -220q0 -94 -14 -279t-14 -277
q0 -291 176 -624l68 16q40 9 66 39.5t26 68.5q0 43 -34 77.5t-78 34.5l-28 -4l56 452q22 175 117.5 325t242.5 223v-1608h-372q-21 -115 -80 -212.5t-148 -159.5q-47 -33 -68 -76zM560 556h64q12 44 42.5 82t73.5 62l-44 372q-24 173 -136 304v-820zM1608 556h64v820
q-119 -139 -136 -304l-44 -372q43 -24 73.5 -62t42.5 -82zM1116 268q57 64 120 80q-85 156 -120 276q-35 -120 -120 -276q63 -16 120 -80zM560 112h252q0 73 20 160l-52 12q-57 18 -99 60.5t-57 99.5h-64v-332zM1420 112h252v332h-64q-15 -57 -57 -99.5t-99 -60.5l-52 -12
q20 -87 20 -160zM920 112h140q0 51 -34.5 90.5t-85.5 45.5q-20 -73 -20 -136zM1172 112h140q0 63 -20 136q-51 -6 -85.5 -45.5t-34.5 -90.5zM1060 -236v236h-124q29 -129 124 -236zM1172 -236q95 107 124 236h-124v-236z" />
    <glyph glyph-name="K.ss01" horiz-adv-x="1592" 
d="M1388 380q0 -30 19 -49t49 -19h56v-312h-176q-141 0 -216.5 73t-75.5 211v332h-496v-616h-344v1520h344v-600h228l360 600h376l-388 -600h264v-540z" />
    <glyph glyph-name="uni0136.ss01" horiz-adv-x="1592" 
d="M1388 380q0 -30 19 -49t49 -19h56v-312h-176q-141 0 -216.5 73t-75.5 211v332h-496v-616h-344v1520h344v-600h228l360 600h376l-388 -600h264v-540zM640 -312v192h328v-120q0 -122 -62 -187t-174 -65h-92v108h68q74 0 80 72h-148z" />
    <glyph glyph-name="R.ss01" horiz-adv-x="1584" 
d="M1468 312h56v-312h-176q-139 0 -215.5 73.5t-76.5 210.5v276h-508v-560h-344v1520h704q261 0 408.5 -113t147.5 -311q0 -144 -91.5 -245t-228.5 -143h256v-328q0 -30 19 -49t49 -19zM856 1240h-308v-416h308q133 0 198.5 50.5t65.5 157.5q0 208 -264 208z" />
    <glyph glyph-name="Racute.ss01" horiz-adv-x="1584" 
d="M1088 1932l-244 -316h-220l120 316h344zM1468 312h56v-312h-176q-139 0 -215.5 73.5t-76.5 210.5v276h-508v-560h-344v1520h704q261 0 408.5 -113t147.5 -311q0 -144 -91.5 -245t-228.5 -143h256v-328q0 -30 19 -49t49 -19zM856 1240h-308v-416h308q133 0 198.5 50.5
t65.5 157.5q0 208 -264 208z" />
    <glyph glyph-name="Rcaron.ss01" horiz-adv-x="1584" 
d="M884 1616h-312l-256 316h264l152 -152l148 152h264zM1468 312h56v-312h-176q-139 0 -215.5 73.5t-76.5 210.5v276h-508v-560h-344v1520h704q261 0 408.5 -113t147.5 -311q0 -144 -91.5 -245t-228.5 -143h256v-328q0 -30 19 -49t49 -19zM856 1240h-308v-416h308
q133 0 198.5 50.5t65.5 157.5q0 208 -264 208z" />
    <glyph glyph-name="uni0156.ss01" horiz-adv-x="1584" 
d="M1468 312h56v-312h-176q-139 0 -215.5 73.5t-76.5 210.5v276h-508v-560h-344v1520h704q261 0 408.5 -113t147.5 -311q0 -144 -91.5 -245t-228.5 -143h256v-328q0 -30 19 -49t49 -19zM856 1240h-308v-416h308q133 0 198.5 50.5t65.5 157.5q0 208 -264 208zM660 -312v192
h328v-120q0 -122 -62 -187t-174 -65h-92v108h68q74 0 80 72h-148z" />
    <glyph glyph-name="Y.ss01" horiz-adv-x="1508" 
d="M1124 1520h364l-412 -1116q-78 -216 -203 -320t-305 -104q-189 0 -304.5 112t-115.5 292q0 196 136 320h148l-420 816h376l388 -816h84zM576 248q125 0 180 140l28 80h-316q-24 -36 -24 -84q0 -63 34.5 -99.5t97.5 -36.5z" />
    <glyph glyph-name="Yacute.ss01" horiz-adv-x="1508" 
d="M1124 1932l-244 -316h-220l120 316h344zM1124 1520h364l-412 -1116q-78 -216 -203 -320t-305 -104q-189 0 -304.5 112t-115.5 292q0 196 136 320h148l-420 816h376l388 -816h84zM576 248q125 0 180 140l28 80h-316q-24 -36 -24 -84q0 -63 34.5 -99.5t97.5 -36.5z" />
    <glyph glyph-name="Ycircumflex.ss01" horiz-adv-x="1508" 
d="M772 1768l-152 -152h-264l260 316h312l256 -316h-264zM1124 1520h364l-412 -1116q-78 -216 -203 -320t-305 -104q-189 0 -304.5 112t-115.5 292q0 196 136 320h148l-420 816h376l388 -816h84zM576 248q125 0 180 140l28 80h-316q-24 -36 -24 -84q0 -63 34.5 -99.5
t97.5 -36.5z" />
    <glyph glyph-name="Ydieresis.ss01" horiz-adv-x="1508" 
d="M696 1944v-272h-328v272h328zM1160 1944v-272h-328v272h328zM1124 1520h364l-412 -1116q-78 -216 -203 -320t-305 -104q-189 0 -304.5 112t-115.5 292q0 196 136 320h148l-420 816h376l388 -816h84zM576 248q125 0 180 140l28 80h-316q-24 -36 -24 -84q0 -63 34.5 -99.5
t97.5 -36.5z" />
    <glyph glyph-name="Ygrave.ss01" horiz-adv-x="1508" 
d="M868 1616h-220l-244 316h344zM1124 1520h364l-412 -1116q-78 -216 -203 -320t-305 -104q-189 0 -304.5 112t-115.5 292q0 196 136 320h148l-420 816h376l388 -816h84zM576 248q125 0 180 140l28 80h-316q-24 -36 -24 -84q0 -63 34.5 -99.5t97.5 -36.5z" />
    <glyph glyph-name="K.ss02" horiz-adv-x="1636" 
d="M1200 0l-452 680l-200 -200v-480h-344v1520h344v-644l608 644h428l-592 -596l616 -924h-408z" />
    <glyph glyph-name="uni0136.ss02" horiz-adv-x="1636" 
d="M992 924l616 -924h-408l-452 680l-200 -200v-480h-344v1520h344v-644l608 644h428zM640 -312v192h328v-120q0 -122 -62 -187t-174 -65h-92v108h68q74 0 80 72h-148z" />
    <glyph glyph-name="R.ss02" horiz-adv-x="1588" 
d="M1144 0l-324 560h-276v-560h-340v1520h672q270 0 421 -125.5t151 -350.5q0 -158 -74.5 -270t-213.5 -166l368 -608h-384zM544 1232v-404h308q122 0 185 52t63 152q0 200 -248 200h-308z" />
    <glyph glyph-name="Racute.ss02" horiz-adv-x="1588" 
d="M1088 1932l-244 -316h-220l120 316h344zM1144 0l-324 560h-276v-560h-340v1520h672q270 0 421 -125.5t151 -350.5q0 -158 -74.5 -270t-213.5 -166l368 -608h-384zM544 1232v-404h308q122 0 185 52t63 152q0 200 -248 200h-308z" />
    <glyph glyph-name="Rcaron.ss02" horiz-adv-x="1588" 
d="M884 1616h-312l-256 316h264l152 -152l148 152h264zM1144 0l-324 560h-276v-560h-340v1520h672q270 0 421 -125.5t151 -350.5q0 -158 -74.5 -270t-213.5 -166l368 -608h-384zM544 1232v-404h308q122 0 185 52t63 152q0 200 -248 200h-308z" />
    <glyph glyph-name="uni0156.ss02" horiz-adv-x="1588" 
d="M1160 608l368 -608h-384l-324 560h-276v-560h-340v1520h672q270 0 421 -125.5t151 -350.5q0 -158 -74.5 -270t-213.5 -166zM544 1232v-404h308q122 0 185 52t63 152q0 200 -248 200h-308zM660 -312v192h328v-120q0 -122 -62 -187t-174 -65h-92v108h68q74 0 80 72h-148z
" />
    <glyph glyph-name="Y.ss02" horiz-adv-x="1560" 
d="M1548 1520l-596 -928v-592h-344v596l-596 924h392l380 -616l380 616h384z" />
    <glyph glyph-name="Yacute.ss02" horiz-adv-x="1560" 
d="M1144 1932l-244 -316h-220l120 316h344zM1548 1520l-596 -928v-592h-344v596l-596 924h392l380 -616l380 616h384z" />
    <glyph glyph-name="Ycircumflex.ss02" horiz-adv-x="1560" 
d="M792 1768l-152 -152h-264l260 316h312l256 -316h-264zM1548 1520l-596 -928v-592h-344v596l-596 924h392l380 -616l380 616h384z" />
    <glyph glyph-name="Ydieresis.ss02" horiz-adv-x="1560" 
d="M716 1944v-272h-328v272h328zM1180 1944v-272h-328v272h328zM1548 1520l-596 -928v-592h-344v596l-596 924h392l380 -616l380 616h384z" />
    <glyph glyph-name="Ygrave.ss02" horiz-adv-x="1560" 
d="M888 1616h-220l-244 316h344zM1548 1520l-596 -928v-592h-344v596l-596 924h392l380 -616l380 616h384z" />
    <glyph glyph-name="K.ss03" horiz-adv-x="1592" 
d="M1388 380q0 -30 19 -49t49 -19h56v-312h-176q-141 0 -216.5 73t-75.5 211v332h-496v-616h-344v1520h344v-600h228l360 600h376l-388 -600h264v-540z" />
    <glyph glyph-name="uni0136.ss03" horiz-adv-x="1592" 
d="M1388 380q0 -30 19 -49t49 -19h56v-312h-176q-141 0 -216.5 73t-75.5 211v332h-496v-616h-344v1520h344v-600h228l360 600h376l-388 -600h264v-540zM640 -312v192h328v-120q0 -122 -62 -187t-174 -65h-92v108h68q74 0 80 72h-148z" />
    <glyph glyph-name="R.ss03" horiz-adv-x="1584" 
d="M1468 312h56v-312h-176q-139 0 -215.5 73.5t-76.5 210.5v276h-508v-560h-344v1520h704q261 0 408.5 -113t147.5 -311q0 -144 -91.5 -245t-228.5 -143h256v-328q0 -30 19 -49t49 -19zM856 1240h-308v-416h308q133 0 198.5 50.5t65.5 157.5q0 208 -264 208z" />
    <glyph glyph-name="Racute.ss03" horiz-adv-x="1584" 
d="M1088 1932l-244 -316h-220l120 316h344zM1468 312h56v-312h-176q-139 0 -215.5 73.5t-76.5 210.5v276h-508v-560h-344v1520h704q261 0 408.5 -113t147.5 -311q0 -144 -91.5 -245t-228.5 -143h256v-328q0 -30 19 -49t49 -19zM856 1240h-308v-416h308q133 0 198.5 50.5
t65.5 157.5q0 208 -264 208z" />
    <glyph glyph-name="Rcaron.ss03" horiz-adv-x="1584" 
d="M884 1616h-312l-256 316h264l152 -152l148 152h264zM1468 312h56v-312h-176q-139 0 -215.5 73.5t-76.5 210.5v276h-508v-560h-344v1520h704q261 0 408.5 -113t147.5 -311q0 -144 -91.5 -245t-228.5 -143h256v-328q0 -30 19 -49t49 -19zM856 1240h-308v-416h308
q133 0 198.5 50.5t65.5 157.5q0 208 -264 208z" />
    <glyph glyph-name="uni0156.ss03" horiz-adv-x="1584" 
d="M1468 312h56v-312h-176q-139 0 -215.5 73.5t-76.5 210.5v276h-508v-560h-344v1520h704q261 0 408.5 -113t147.5 -311q0 -144 -91.5 -245t-228.5 -143h256v-328q0 -30 19 -49t49 -19zM856 1240h-308v-416h308q133 0 198.5 50.5t65.5 157.5q0 208 -264 208zM660 -312v192
h328v-120q0 -122 -62 -187t-174 -65h-92v108h68q74 0 80 72h-148z" />
    <glyph glyph-name="Y.ss03" horiz-adv-x="1508" 
d="M1124 1520h364l-412 -1116q-78 -216 -203 -320t-305 -104q-189 0 -304.5 112t-115.5 292q0 196 136 320h148l-420 816h376l388 -816h84zM576 248q125 0 180 140l28 80h-316q-24 -36 -24 -84q0 -63 34.5 -99.5t97.5 -36.5z" />
    <glyph glyph-name="Yacute.ss03" horiz-adv-x="1508" 
d="M1140 1932l-244 -316h-220l120 316h344zM1124 1520h364l-412 -1116q-78 -216 -203 -320t-305 -104q-189 0 -304.5 112t-115.5 292q0 196 136 320h148l-420 816h376l388 -816h84zM576 248q125 0 180 140l28 80h-316q-24 -36 -24 -84q0 -63 34.5 -99.5t97.5 -36.5z" />
    <glyph glyph-name="Ycircumflex.ss03" horiz-adv-x="1508" 
d="M788 1768l-152 -152h-264l260 316h312l256 -316h-264zM1124 1520h364l-412 -1116q-78 -216 -203 -320t-305 -104q-189 0 -304.5 112t-115.5 292q0 196 136 320h148l-420 816h376l388 -816h84zM576 248q125 0 180 140l28 80h-316q-24 -36 -24 -84q0 -63 34.5 -99.5
t97.5 -36.5z" />
    <glyph glyph-name="Ydieresis.ss03" horiz-adv-x="1508" 
d="M712 1944v-272h-328v272h328zM1176 1944v-272h-328v272h328zM1124 1520h364l-412 -1116q-78 -216 -203 -320t-305 -104q-189 0 -304.5 112t-115.5 292q0 196 136 320h148l-420 816h376l388 -816h84zM576 248q125 0 180 140l28 80h-316q-24 -36 -24 -84q0 -63 34.5 -99.5
t97.5 -36.5z" />
    <glyph glyph-name="Ygrave.ss03" horiz-adv-x="1508" 
d="M884 1616h-220l-244 316h344zM1124 1520h364l-412 -1116q-78 -216 -203 -320t-305 -104q-189 0 -304.5 112t-115.5 292q0 196 136 320h148l-420 816h376l388 -816h84zM576 248q125 0 180 140l28 80h-316q-24 -36 -24 -84q0 -63 34.5 -99.5t97.5 -36.5z" />
    <glyph glyph-name="K.ss04" horiz-adv-x="1596" 
d="M1376 380q0 -30 19 -49t49 -19h56v-312h-176q-139 0 -215.5 73.5t-76.5 210.5v180q0 79 -35.5 115.5t-112.5 36.5h-336v-616h-344v1520h344v-596h264l328 596h368l-368 -628q115 -27 175.5 -113t60.5 -223v-176z" />
    <glyph glyph-name="uni0136.ss04" horiz-adv-x="1596" 
d="M1376 380q0 -30 19 -49t49 -19h56v-312h-176q-139 0 -215.5 73.5t-76.5 210.5v180q0 79 -35.5 115.5t-112.5 36.5h-336v-616h-344v1520h344v-596h264l328 596h368l-368 -628q115 -27 175.5 -113t60.5 -223v-176zM640 -312v192h328v-120q0 -122 -62 -187t-174 -65h-92v108
h68q74 0 80 72h-148z" />
    <glyph glyph-name="R.ss04" horiz-adv-x="1584" 
d="M1452 312h56v-312h-196q-118 0 -191 75t-73 197v132q0 82 -37 119t-111 37h-352v-560h-344v1520h684q260 0 408 -115.5t148 -316.5q0 -253 -212 -356q152 -64 152 -264v-88q0 -30 19 -49t49 -19zM832 1240h-284v-416h284q136 0 202 50.5t66 157.5q0 208 -268 208z" />
    <glyph glyph-name="Racute.ss04" horiz-adv-x="1584" 
d="M1088 1932l-244 -316h-220l120 316h344zM1452 312h56v-312h-196q-118 0 -191 75t-73 197v132q0 82 -37 119t-111 37h-352v-560h-344v1520h684q260 0 408 -115.5t148 -316.5q0 -253 -212 -356q152 -64 152 -264v-88q0 -30 19 -49t49 -19zM832 1240h-284v-416h284
q136 0 202 50.5t66 157.5q0 208 -268 208z" />
    <glyph glyph-name="Rcaron.ss04" horiz-adv-x="1584" 
d="M884 1616h-312l-256 316h264l152 -152l148 152h264zM1452 312h56v-312h-196q-118 0 -191 75t-73 197v132q0 82 -37 119t-111 37h-352v-560h-344v1520h684q260 0 408 -115.5t148 -316.5q0 -253 -212 -356q152 -64 152 -264v-88q0 -30 19 -49t49 -19zM832 1240h-284v-416
h284q136 0 202 50.5t66 157.5q0 208 -268 208z" />
    <glyph glyph-name="uni0156.ss04" horiz-adv-x="1584" 
d="M1452 312h56v-312h-196q-118 0 -191 75t-73 197v132q0 82 -37 119t-111 37h-352v-560h-344v1520h684q260 0 408 -115.5t148 -316.5q0 -253 -212 -356q152 -64 152 -264v-88q0 -30 19 -49t49 -19zM832 1240h-284v-416h284q136 0 202 50.5t66 157.5q0 208 -268 208z
M660 -312v192h328v-120q0 -122 -62 -187t-174 -65h-92v108h68q74 0 80 72h-148z" />
    <glyph glyph-name="K.ss05" horiz-adv-x="1596" 
d="M1376 380q0 -30 19 -49t49 -19h56v-312h-176q-139 0 -215.5 73.5t-76.5 210.5v180q0 79 -35.5 115.5t-112.5 36.5h-336v-616h-344v1520h344v-596h264l328 596h368l-368 -628q115 -27 175.5 -113t60.5 -223v-176z" />
    <glyph glyph-name="uni0136.ss05" horiz-adv-x="1596" 
d="M1376 380q0 -30 19 -49t49 -19h56v-312h-176q-139 0 -215.5 73.5t-76.5 210.5v180q0 79 -35.5 115.5t-112.5 36.5h-336v-616h-344v1520h344v-596h264l328 596h368l-368 -628q115 -27 175.5 -113t60.5 -223v-176zM640 -312v192h328v-120q0 -122 -62 -187t-174 -65h-92v108
h68q74 0 80 72h-148z" />
    <glyph glyph-name="R.ss05" horiz-adv-x="1584" 
d="M1452 312h56v-312h-196q-118 0 -191 75t-73 197v132q0 82 -37 119t-111 37h-352v-560h-344v1520h684q260 0 408 -115.5t148 -316.5q0 -253 -212 -356q152 -64 152 -264v-88q0 -30 19 -49t49 -19zM832 1240h-284v-416h284q136 0 202 50.5t66 157.5q0 208 -268 208z" />
    <glyph glyph-name="Racute.ss05" horiz-adv-x="1584" 
d="M1088 1932l-244 -316h-220l120 316h344zM1452 312h56v-312h-196q-118 0 -191 75t-73 197v132q0 82 -37 119t-111 37h-352v-560h-344v1520h684q260 0 408 -115.5t148 -316.5q0 -253 -212 -356q152 -64 152 -264v-88q0 -30 19 -49t49 -19zM832 1240h-284v-416h284
q136 0 202 50.5t66 157.5q0 208 -268 208z" />
    <glyph glyph-name="Rcaron.ss05" horiz-adv-x="1584" 
d="M884 1616h-312l-256 316h264l152 -152l148 152h264zM1452 312h56v-312h-196q-118 0 -191 75t-73 197v132q0 82 -37 119t-111 37h-352v-560h-344v1520h684q260 0 408 -115.5t148 -316.5q0 -253 -212 -356q152 -64 152 -264v-88q0 -30 19 -49t49 -19zM832 1240h-284v-416
h284q136 0 202 50.5t66 157.5q0 208 -268 208z" />
    <glyph glyph-name="uni0156.ss05" horiz-adv-x="1584" 
d="M1452 312h56v-312h-196q-118 0 -191 75t-73 197v132q0 82 -37 119t-111 37h-352v-560h-344v1520h684q260 0 408 -115.5t148 -316.5q0 -253 -212 -356q152 -64 152 -264v-88q0 -30 19 -49t49 -19zM832 1240h-284v-416h284q136 0 202 50.5t66 157.5q0 208 -268 208z
M660 -312v192h328v-120q0 -122 -62 -187t-174 -65h-92v108h68q74 0 80 72h-148z" />
    <glyph glyph-name="i.loclTRK" horiz-adv-x="688" 
d="M172 1352v272h344v-272h-344zM184 0v1200h320v-1200h-320z" />
    <glyph glyph-name="k.ss01" horiz-adv-x="1344" 
d="M1224 280h52v-280q-52 -4 -140 -4q-137 0 -208.5 65t-71.5 195v212h-372v-468h-320v1600h320v-840h156l288 440h336l-304 -440h204v-420q0 -27 16.5 -43.5t43.5 -16.5z" />
    <glyph glyph-name="uni0137.ss01" horiz-adv-x="1344" 
d="M1224 280h52v-280q-52 -4 -140 -4q-137 0 -208.5 65t-71.5 195v212h-372v-468h-320v1600h320v-840h156l288 440h336l-304 -440h204v-420q0 -27 16.5 -43.5t43.5 -16.5zM456 -312v192h328v-120q0 -122 -62 -187t-174 -65h-92v108h68q74 0 80 72h-148z" />
    <glyph glyph-name="y.ss01" horiz-adv-x="1372" 
d="M1008 1200h340l-380 -1156q-81 -243 -197.5 -353.5t-290.5 -110.5q-180 0 -290 107.5t-110 284.5q0 168 124 304h168l-356 924h344l316 -924h64zM480 -160q116 0 164 156l16 52h-288q-20 -47 -20 -88q0 -54 35.5 -87t92.5 -33z" />
    <glyph glyph-name="yacute.ss01" horiz-adv-x="1372" 
d="M1048 1612l-244 -316h-220l120 316h344zM1008 1200h340l-380 -1156q-81 -243 -197.5 -353.5t-290.5 -110.5q-180 0 -290 107.5t-110 284.5q0 168 124 304h168l-356 924h344l316 -924h64zM480 -160q116 0 164 156l16 52h-288q-20 -47 -20 -88q0 -54 35.5 -87t92.5 -33z
" />
    <glyph glyph-name="ycircumflex.ss01" horiz-adv-x="1372" 
d="M696 1448l-152 -152h-264l260 316h312l256 -316h-264zM1008 1200h340l-380 -1156q-81 -243 -197.5 -353.5t-290.5 -110.5q-180 0 -290 107.5t-110 284.5q0 168 124 304h168l-356 924h344l316 -924h64zM480 -160q116 0 164 156l16 52h-288q-20 -47 -20 -88q0 -54 35.5 -87
t92.5 -33z" />
    <glyph glyph-name="ydieresis.ss01" horiz-adv-x="1372" 
d="M620 1624v-272h-328v272h328zM1084 1624v-272h-328v272h328zM1008 1200h340l-380 -1156q-81 -243 -197.5 -353.5t-290.5 -110.5q-180 0 -290 107.5t-110 284.5q0 168 124 304h168l-356 924h344l316 -924h64zM480 -160q116 0 164 156l16 52h-288q-20 -47 -20 -88
q0 -54 35.5 -87t92.5 -33z" />
    <glyph glyph-name="ygrave.ss01" horiz-adv-x="1372" 
d="M792 1296h-220l-244 316h344zM1008 1200h340l-380 -1156q-81 -243 -197.5 -353.5t-290.5 -110.5q-180 0 -290 107.5t-110 284.5q0 168 124 304h168l-356 924h344l316 -924h64zM480 -160q116 0 164 156l16 52h-288q-20 -47 -20 -88q0 -54 35.5 -87t92.5 -33z" />
    <glyph glyph-name="k.ss02" horiz-adv-x="1372" 
d="M980 0l-340 508l-156 -152v-356h-320v1600h320v-880l456 480h400l-476 -472l492 -728h-376z" />
    <glyph glyph-name="uni0137.ss02" horiz-adv-x="1372" 
d="M864 728l492 -728h-376l-340 508l-156 -152v-356h-320v1600h320v-880l456 480h400zM552 -312v192h328v-120q0 -122 -62 -187t-174 -65h-92v108h68q74 0 80 72h-148z" />
    <glyph glyph-name="k.ss03" horiz-adv-x="1344" 
d="M1224 280h52v-280q-52 -4 -140 -4q-137 0 -208.5 65t-71.5 195v212h-372v-468h-320v1600h320v-840h156l288 440h336l-304 -440h204v-420q0 -27 16.5 -43.5t43.5 -16.5z" />
    <glyph glyph-name="uni0137.ss03" horiz-adv-x="1344" 
d="M1224 280h52v-280q-52 -4 -140 -4q-137 0 -208.5 65t-71.5 195v212h-372v-468h-320v1600h320v-840h156l288 440h336l-304 -440h204v-420q0 -27 16.5 -43.5t43.5 -16.5zM456 -312v192h328v-120q0 -122 -62 -187t-174 -65h-92v108h68q74 0 80 72h-148z" />
    <glyph glyph-name="y.ss03" horiz-adv-x="1372" 
d="M1008 1200h340l-380 -1156q-81 -243 -197.5 -353.5t-290.5 -110.5q-180 0 -290 107.5t-110 284.5q0 168 124 304h168l-356 924h344l316 -924h64zM480 -160q116 0 164 156l16 52h-288q-20 -47 -20 -88q0 -54 35.5 -87t92.5 -33z" />
    <glyph glyph-name="yacute.ss03" horiz-adv-x="1372" 
d="M1048 1612l-244 -316h-220l120 316h344zM1008 1200h340l-380 -1156q-81 -243 -197.5 -353.5t-290.5 -110.5q-180 0 -290 107.5t-110 284.5q0 168 124 304h168l-356 924h344l316 -924h64zM480 -160q116 0 164 156l16 52h-288q-20 -47 -20 -88q0 -54 35.5 -87t92.5 -33z
" />
    <glyph glyph-name="ycircumflex.ss03" horiz-adv-x="1372" 
d="M696 1448l-152 -152h-264l260 316h312l256 -316h-264zM1008 1200h340l-380 -1156q-81 -243 -197.5 -353.5t-290.5 -110.5q-180 0 -290 107.5t-110 284.5q0 168 124 304h168l-356 924h344l316 -924h64zM480 -160q116 0 164 156l16 52h-288q-20 -47 -20 -88q0 -54 35.5 -87
t92.5 -33z" />
    <glyph glyph-name="ydieresis.ss03" horiz-adv-x="1372" 
d="M620 1624v-272h-328v272h328zM1084 1624v-272h-328v272h328zM1008 1200h340l-380 -1156q-81 -243 -197.5 -353.5t-290.5 -110.5q-180 0 -290 107.5t-110 284.5q0 168 124 304h168l-356 924h344l316 -924h64zM480 -160q116 0 164 156l16 52h-288q-20 -47 -20 -88
q0 -54 35.5 -87t92.5 -33z" />
    <glyph glyph-name="ygrave.ss03" horiz-adv-x="1372" 
d="M792 1296h-220l-244 316h344zM1008 1200h340l-380 -1156q-81 -243 -197.5 -353.5t-290.5 -110.5q-180 0 -290 107.5t-110 284.5q0 168 124 304h168l-356 924h344l316 -924h64zM480 -160q116 0 164 156l16 52h-288q-20 -47 -20 -88q0 -54 35.5 -87t92.5 -33z" />
    <glyph glyph-name="k.ss04" horiz-adv-x="1340" 
d="M1220 280h48v-280q-48 -4 -140 -4q-135 0 -207.5 65t-72.5 195v116q0 44 -24.5 68t-67.5 24h-272v-464h-320v1600h320v-860h184l260 460h336l-296 -496q192 -54 192 -280v-84q0 -27 16.5 -43.5t43.5 -16.5z" />
    <glyph glyph-name="uni0137.ss04" horiz-adv-x="1340" 
d="M1220 280h48v-280q-48 -4 -140 -4q-135 0 -207.5 65t-72.5 195v116q0 44 -24.5 68t-67.5 24h-272v-464h-320v1600h320v-860h184l260 460h336l-296 -496q192 -54 192 -280v-84q0 -27 16.5 -43.5t43.5 -16.5zM528 -312v192h328v-120q0 -122 -62 -187t-174 -65h-92v108h68
q74 0 80 72h-148z" />
    <glyph glyph-name="k.ss05" horiz-adv-x="1340" 
d="M1220 280h48v-280q-48 -4 -140 -4q-135 0 -207.5 65t-72.5 195v116q0 44 -24.5 68t-67.5 24h-272v-464h-320v1600h320v-860h184l260 460h336l-296 -496q192 -54 192 -280v-84q0 -27 16.5 -43.5t43.5 -16.5z" />
    <glyph glyph-name="uni0137.ss05" horiz-adv-x="1340" 
d="M1220 280h48v-280q-48 -4 -140 -4q-135 0 -207.5 65t-72.5 195v116q0 44 -24.5 68t-67.5 24h-272v-464h-320v1600h320v-860h184l260 460h336l-296 -496q192 -54 192 -280v-84q0 -27 16.5 -43.5t43.5 -16.5zM528 -312v192h328v-120q0 -122 -62 -187t-174 -65h-92v108h68
q74 0 80 72h-148z" />
    <glyph glyph-name="f.ss06" horiz-adv-x="988" 
d="M700 1344q-48 0 -74 -28t-26 -76v-40h344v-264h-332v-936h-320v936h-244v264h244v44q0 177 92 266.5t272 89.5h288v-256h-244z" />
    <glyph glyph-name="t.ss06" horiz-adv-x="1060" 
d="M952 936h-344v-516q0 -67 34 -99.5t94 -32.5h216v-288h-288q-376 0 -376 376v560h-240v264h240l32 320h288v-320h344v-264z" />
    <glyph glyph-name="tbar.ss06" horiz-adv-x="1060" 
d="M952 936h-344v-212h276v-224h-276v-80q0 -67 34 -99.5t94 -32.5h216v-288h-288q-376 0 -376 376v124h-228v224h228v212h-240v264h240l32 320h288v-320h344v-264z" />
    <glyph glyph-name="tcaron.ss06" horiz-adv-x="1060" 
d="M980 1600l-80 -368h-208v368h288zM608 1520v-320h344v-264h-344v-516q0 -67 34 -99.5t94 -32.5h216v-288h-288q-376 0 -376 376v560h-240v264h240l32 320h288z" />
    <glyph glyph-name="uni0163.ss06" horiz-adv-x="1060" 
d="M952 936h-344v-516q0 -67 34 -99.5t94 -32.5h216v-288h-204l-44 -68h28q93 0 152.5 -48.5t59.5 -123.5q0 -90 -79.5 -145t-208.5 -55q-157 0 -268 76l80 136q76 -60 176 -60q47 0 75.5 13.5t28.5 34.5t-19.5 34.5t-52.5 13.5q-52 0 -76 -24l-124 64l96 160
q-284 41 -284 368v560h-240v264h240l32 320h288v-320h344v-264z" />
    <glyph glyph-name="uni021B.ss06" horiz-adv-x="1060" 
d="M952 936h-344v-516q0 -67 34 -99.5t94 -32.5h216v-288h-288q-376 0 -376 376v560h-240v264h240l32 320h288v-320h344v-264zM440 -312v192h328v-120q0 -122 -62 -187t-174 -65h-92v108h68q74 0 80 72h-148z" />
    <glyph glyph-name="y.ss06" horiz-adv-x="1372" 
d="M1004 1200h344l-472 -1276q-63 -167 -163.5 -245.5t-248.5 -78.5h-272v288h224q103 0 124 64l4 16l-508 1232h356l324 -892z" />
    <glyph glyph-name="yacute.ss06" horiz-adv-x="1372" 
d="M1052 1612l-244 -316h-220l120 316h344zM1004 1200h344l-472 -1276q-63 -167 -163.5 -245.5t-248.5 -78.5h-272v288h224q103 0 124 64l4 16l-508 1232h356l324 -892z" />
    <glyph glyph-name="ycircumflex.ss06" horiz-adv-x="1372" 
d="M700 1448l-152 -152h-264l260 316h312l256 -316h-264zM1004 1200h344l-472 -1276q-63 -167 -163.5 -245.5t-248.5 -78.5h-272v288h224q103 0 124 64l4 16l-508 1232h356l324 -892z" />
    <glyph glyph-name="ydieresis.ss06" horiz-adv-x="1372" 
d="M624 1624v-272h-328v272h328zM1088 1624v-272h-328v272h328zM1004 1200h344l-472 -1276q-63 -167 -163.5 -245.5t-248.5 -78.5h-272v288h224q103 0 124 64l4 16l-508 1232h356l324 -892z" />
    <glyph glyph-name="ygrave.ss06" horiz-adv-x="1372" 
d="M796 1296h-220l-244 316h344zM1004 1200h344l-472 -1276q-63 -167 -163.5 -245.5t-248.5 -78.5h-272v288h224q103 0 124 64l4 16l-508 1232h356l324 -892z" />
    <glyph glyph-name="uni0416.ss01" horiz-adv-x="2260" 
d="M2056 380q0 -30 19 -49t49 -19h56v-312h-176q-138 0 -213 73t-75 211v332h-412v-616h-344v616h-416v-332q0 -138 -75 -211t-213 -73h-172v312h52q32 0 50 18.5t18 49.5v540h228l-352 600h376l324 -600h180v600h344v-600h176l324 600h376l-352 -600h228v-540z" />
    <glyph glyph-name="uni041A.ss01" horiz-adv-x="1592" 
d="M1388 380q0 -30 19 -49t49 -19h56v-312h-176q-141 0 -216.5 73t-75.5 211v332h-496v-616h-344v1520h344v-600h228l360 600h376l-388 -600h264v-540z" />
    <glyph glyph-name="uni0423.ss01" horiz-adv-x="1508" 
d="M1124 1520h364l-412 -1116q-78 -216 -203 -320t-305 -104q-189 0 -304.5 112t-115.5 292q0 196 136 320h148l-420 816h376l388 -816h84zM576 248q125 0 180 140l28 80h-316q-24 -36 -24 -84q0 -63 34.5 -99.5t97.5 -36.5z" />
    <glyph glyph-name="uni040E.ss01" horiz-adv-x="1508" 
d="M764 1632q-174 0 -281.5 79.5t-122.5 220.5l244 32q12 -64 55 -98t105 -34t105 34t55 98l244 -32q-15 -141 -122.5 -220.5t-281.5 -79.5zM1124 1520h364l-412 -1116q-78 -216 -203 -320t-305 -104q-189 0 -304.5 112t-115.5 292q0 196 136 320h148l-420 816h376l388 -816
h84zM576 248q125 0 180 140l28 80h-316q-24 -36 -24 -84q0 -63 34.5 -99.5t97.5 -36.5z" />
    <glyph glyph-name="uni042F.ss01" horiz-adv-x="1584" 
d="M1380 1520v-1520h-344v560h-508v-276q0 -137 -76.5 -210.5t-215.5 -73.5h-176v312h56q30 0 49 19t19 49v328h256q-137 42 -228.5 143t-91.5 245q0 198 147.5 311t408.5 113h704zM728 1240q-264 0 -264 -208q0 -107 65.5 -157.5t198.5 -50.5h308v416h-308z" />
    <glyph glyph-name="uni0416.ss02" horiz-adv-x="2412" 
d="M1980 0l-408 684l-196 -200v-484h-340v484l-196 200l-408 -684h-404l564 920l-556 600h428l572 -640v640h340v-644l576 644h424l-556 -600l564 -920h-404z" />
    <glyph glyph-name="uni041A.ss02" horiz-adv-x="1636" 
d="M1200 0l-452 680l-200 -200v-480h-344v1520h344v-644l608 644h428l-592 -596l616 -924h-408z" />
    <glyph glyph-name="uni042F.ss02" horiz-adv-x="1588" 
d="M1384 1520v-1520h-344v544h-292l-316 -544h-372l360 596q-136 57 -208 169.5t-72 270.5q0 228 153.5 356t426.5 128h664zM744 820h296v412h-296q-126 0 -191 -52.5t-65 -151.5q0 -102 65 -155t191 -53z" />
    <glyph glyph-name="uni0416.ss03" horiz-adv-x="2260" 
d="M2056 380q0 -30 19 -49t49 -19h56v-312h-176q-138 0 -213 73t-75 211v332h-412v-616h-344v616h-416v-332q0 -138 -75 -211t-213 -73h-172v312h52q32 0 50 18.5t18 49.5v540h228l-352 600h376l324 -600h180v600h344v-600h176l324 600h376l-352 -600h228v-540z" />
    <glyph glyph-name="uni041A.ss03" horiz-adv-x="1592" 
d="M1388 380q0 -30 19 -49t49 -19h56v-312h-176q-141 0 -216.5 73t-75.5 211v332h-496v-616h-344v1520h344v-600h228l360 600h376l-388 -600h264v-540z" />
    <glyph glyph-name="uni0423.ss03" horiz-adv-x="1508" 
d="M1124 1520h364l-412 -1116q-78 -216 -203 -320t-305 -104q-189 0 -304.5 112t-115.5 292q0 196 136 320h148l-420 816h376l388 -816h84zM576 248q125 0 180 140l28 80h-316q-24 -36 -24 -84q0 -63 34.5 -99.5t97.5 -36.5z" />
    <glyph glyph-name="uni040E.ss03" horiz-adv-x="1508" 
d="M764 1632q-174 0 -281.5 79.5t-122.5 220.5l244 32q12 -64 55 -98t105 -34t105 34t55 98l244 -32q-15 -141 -122.5 -220.5t-281.5 -79.5zM1124 1520h364l-412 -1116q-78 -216 -203 -320t-305 -104q-189 0 -304.5 112t-115.5 292q0 196 136 320h148l-420 816h376l388 -816
h84zM576 248q125 0 180 140l28 80h-316q-24 -36 -24 -84q0 -63 34.5 -99.5t97.5 -36.5z" />
    <glyph glyph-name="uni042F.ss03" horiz-adv-x="1584" 
d="M1380 1520v-1520h-344v560h-508v-276q0 -137 -76.5 -210.5t-215.5 -73.5h-176v312h56q30 0 49 19t19 49v328h256q-137 42 -228.5 143t-91.5 245q0 198 147.5 311t408.5 113h704zM728 1240q-264 0 -264 -208q0 -107 65.5 -157.5t198.5 -50.5h308v416h-308z" />
    <glyph glyph-name="uni0416.ss04" horiz-adv-x="2292" 
d="M2144 312h56v-312h-176q-138 0 -213 73t-75 211v176q0 81 -37 118.5t-115 37.5h-268v-616h-340v616h-272q-78 0 -113 -37.5t-35 -118.5v-176q0 -138 -75 -211t-213 -73h-176v312h52q32 0 50 18.5t18 49.5v172q0 134 59.5 219.5t168.5 112.5l-348 636h368l304 -596h212
v596h340v-596h212l300 596h368l-344 -636q108 -27 166 -112t58 -220v-172q0 -30 19 -49t49 -19z" />
    <glyph glyph-name="uni041A.ss04" horiz-adv-x="1596" 
d="M1376 380q0 -30 19 -49t49 -19h56v-312h-176q-139 0 -215.5 73.5t-76.5 210.5v180q0 79 -35.5 115.5t-112.5 36.5h-336v-616h-344v1520h344v-596h264l328 596h368l-368 -628q115 -27 175.5 -113t60.5 -223v-176z" />
    <glyph glyph-name="uni042F.ss04" horiz-adv-x="1588" 
d="M1384 1520v-1520h-344v560h-352q-74 0 -111 -37t-37 -119v-132q0 -123 -74 -197.5t-194 -74.5h-192v312h52q32 0 50 18.5t18 49.5v88q0 200 152 264q-102 51 -155 142t-53 214q0 201 148 316.5t408 115.5h684zM752 1240q-264 0 -264 -208q0 -107 65.5 -157.5t198.5 -50.5
h288v416h-288z" />
    <glyph glyph-name="uni0416.ss05" horiz-adv-x="2292" 
d="M2144 312h56v-312h-176q-138 0 -213 73t-75 211v176q0 81 -37 118.5t-115 37.5h-268v-616h-340v616h-272q-78 0 -113 -37.5t-35 -118.5v-176q0 -138 -75 -211t-213 -73h-176v312h52q32 0 50 18.5t18 49.5v172q0 134 59.5 219.5t168.5 112.5l-348 636h368l304 -596h212
v596h340v-596h212l300 596h368l-344 -636q108 -27 166 -112t58 -220v-172q0 -30 19 -49t49 -19z" />
    <glyph glyph-name="uni041A.ss05" horiz-adv-x="1596" 
d="M1376 380q0 -30 19 -49t49 -19h56v-312h-176q-139 0 -215.5 73.5t-76.5 210.5v180q0 79 -35.5 115.5t-112.5 36.5h-336v-616h-344v1520h344v-596h264l328 596h368l-368 -628q115 -27 175.5 -113t60.5 -223v-176z" />
    <glyph glyph-name="uni042F.ss05" horiz-adv-x="1588" 
d="M1384 1520v-1520h-344v560h-352q-74 0 -111 -37t-37 -119v-132q0 -123 -74 -197.5t-194 -74.5h-192v312h52q32 0 50 18.5t18 49.5v88q0 200 152 264q-102 51 -155 142t-53 214q0 201 148 316.5t408 115.5h684zM752 1240q-264 0 -264 -208q0 -107 65.5 -157.5t198.5 -50.5
h288v416h-288z" />
    <glyph glyph-name="uni0423.ss06" horiz-adv-x="1536" 
d="M1192 1520h364l-532 -1212q-78 -174 -173 -241t-239 -67h-344v312h344q32 0 52 20l-648 1188h396l420 -868z" />
    <glyph glyph-name="uni040E.ss06" horiz-adv-x="1536" 
d="M756 1632q-174 0 -281.5 79.5t-122.5 220.5l244 32q12 -64 55 -98t105 -34t105 34t55 98l244 -32q-15 -141 -122.5 -220.5t-281.5 -79.5zM1192 1520h364l-532 -1212q-78 -174 -173 -241t-239 -67h-344v312h344q32 0 52 20l-648 1188h396l420 -868z" />
    <glyph glyph-name="uni041D.ss07" horiz-adv-x="1744" 
d="M1208 1520h332v-1520h-320l-684 968v-968h-332v1520h324l680 -968v968z" />
    <glyph glyph-name="uni0410.stress" horiz-adv-x="1648" 
d="M1184 1932l-244 -316h-220l120 316h344zM1260 0l-108 300h-664l-108 -300h-360l592 1520h424l592 -1520h-368zM596 596h448l-224 624z" />
    <glyph glyph-name="uni0415.stress" horiz-adv-x="1404" 
d="M1132 1932l-244 -316h-220l120 316h344zM540 300h784v-300h-1120v1520h1100v-300h-764v-296h584v-288h-584v-336z" />
    <glyph glyph-name="uni0401.stress" horiz-adv-x="1404" 
d="M1032 1988l-244 -316h-220l120 316h344zM528 1944v-272h-328v272h328zM1016 1944h328v-272h-328v272zM540 636v-336h784v-300h-1120v1520h1100v-300h-764v-296h584v-288h-584z" />
    <glyph glyph-name="uni0418.stress" horiz-adv-x="1744" 
d="M1232 1932l-244 -316h-220l120 316h344zM1208 1520h332v-1520h-336v992l-672 -992h-328v1520h336v-988z" />
    <glyph glyph-name="uni041E.stress" horiz-adv-x="1704" 
d="M748 1616l120 316h344l-244 -316h-220zM852 -20q-342 0 -549 213t-207 567q0 231 94.5 408.5t266 274.5t395.5 97q342 0 549 -213t207 -567q0 -231 -94.5 -408.5t-266 -274.5t-395.5 -97zM852 276q183 0 293.5 132.5t110.5 351.5t-110.5 351.5t-293.5 132.5
t-293.5 -132.5t-110.5 -351.5t110.5 -351.5t293.5 -132.5z" />
    <glyph glyph-name="uni0423.stress" horiz-adv-x="1536" 
d="M1116 1932l-244 -316h-220l120 316h344zM1144 1520h356l-456 -1136q-37 -95 -78 -165t-97.5 -126t-131.5 -84.5t-169 -28.5q-170 0 -276 107.5t-112 268.5l268 68q3 -84 38 -128t98 -44q76 0 112 52l-688 1216h384l444 -884z" />
    <glyph glyph-name="uni042B.stress" horiz-adv-x="2196" 
d="M992 1616l120 316h344l-244 -316h-220zM856 976q273 0 426.5 -128.5t153.5 -359.5q0 -228 -153.5 -358t-426.5 -130h-652v1520h344v-544h308zM1648 1520h344v-1520h-344v1520zM832 288q256 0 256 208q0 102 -65 155t-191 53h-284v-416h284z" />
    <glyph glyph-name="uni0404.stress" horiz-adv-x="1564" 
d="M1200 1932l-244 -316h-220l120 316h344zM836 268q128 0 219 68t137 192l312 -112q-69 -205 -244 -320.5t-420 -115.5q-339 0 -541.5 213t-202.5 567q0 232 92 409t261 274t391 97q247 0 421 -113.5t243 -322.5l-312 -112q-46 124 -137 192t-219 68q-148 0 -247 -87.5
t-129 -248.5h536v-272h-544q24 -182 124 -279t260 -97z" />
    <glyph glyph-name="uni042D.stress" horiz-adv-x="1556" 
d="M1084 1932l-244 -316h-220l120 316h344zM724 1540q333 0 534.5 -213t201.5 -567q0 -231 -92 -408.5t-259 -274.5t-385 -97q-240 0 -416 118t-252 322l304 108q45 -126 136 -193t220 -67q160 0 262 98.5t126 277.5h-544v272h540q-33 162 -132 249t-252 87q-129 0 -220 -67
t-136 -193l-304 108q75 207 252.5 323.5t415.5 116.5z" />
    <glyph glyph-name="uni0406.stress" horiz-adv-x="752" 
d="M272 1616l120 316h344l-244 -316h-220zM204 0v1520h344v-1520h-344z" />
    <glyph glyph-name="uni0407.stress" horiz-adv-x="752" 
d="M172 1672l120 316h344l-244 -316h-220zM-196 1672v272h328v-272h-328zM620 1672v272h328v-272h-328zM204 0v1520h344v-1520h-344z" />
    <glyph glyph-name="uni042E.stress" horiz-adv-x="2340" 
d="M1372 1932l-244 -316h-220l120 316h344zM1520 1540q330 0 527 -213t197 -567q0 -231 -90.5 -408.5t-255 -274.5t-378.5 -97q-296 0 -486.5 173t-229.5 471h-256v-624h-344v1520h344v-584h264q48 278 238 441t470 163zM1516 268q174 0 273 131.5t99 360.5t-99 360.5
t-273 131.5q-171 0 -271.5 -132t-100.5 -360t100.5 -360t271.5 -132z" />
    <glyph glyph-name="uni042F.stress" horiz-adv-x="1588" 
d="M1232 1932l-244 -316h-220l120 316h344zM1384 1520v-1520h-344v544h-292l-316 -544h-372l360 596q-136 57 -208 169.5t-72 270.5q0 228 153.5 356t426.5 128h664zM744 820h296v412h-296q-126 0 -191 -52.5t-65 -151.5q0 -102 65 -155t191 -53z" />
    <glyph glyph-name="uni0423.ss03.stress" horiz-adv-x="1508" 
d="M1124 1932l-244 -316h-220l120 316h344zM1124 1520h364l-412 -1116q-78 -216 -203 -320t-305 -104q-189 0 -304.5 112t-115.5 292q0 196 136 320h148l-420 816h376l388 -816h84zM576 248q125 0 180 140l28 80h-316q-24 -36 -24 -84q0 -63 34.5 -99.5t97.5 -36.5z" />
    <glyph glyph-name="uni042F.ss03.stress" horiz-adv-x="1584" 
d="M1136 1932l-244 -316h-220l120 316h344zM1380 1520v-1520h-344v560h-508v-276q0 -137 -76.5 -210.5t-215.5 -73.5h-176v312h56q30 0 49 19t19 49v328h256q-137 42 -228.5 143t-91.5 245q0 198 147.5 311t408.5 113h704zM728 1240q-264 0 -264 -208q0 -107 65.5 -157.5
t198.5 -50.5h308v416h-308z" />
    <glyph glyph-name="uni042F.ss04.stress" horiz-adv-x="1588" 
d="M1204 1932l-244 -316h-220l120 316h344zM1384 1520v-1520h-344v560h-352q-74 0 -111 -37t-37 -119v-132q0 -123 -74 -197.5t-194 -74.5h-192v312h52q32 0 50 18.5t18 49.5v88q0 200 152 264q-102 51 -155 142t-53 214q0 201 148 316.5t408 115.5h684zM752 1240
q-264 0 -264 -208q0 -107 65.5 -157.5t198.5 -50.5h288v416h-288z" />
    <glyph glyph-name="uni0423.ss06.stress" horiz-adv-x="1536" 
d="M1116 1932l-244 -316h-220l120 316h344zM1192 1520h364l-532 -1212q-78 -174 -173 -241t-239 -67h-344v312h344q32 0 52 20l-648 1188h396l420 -868z" />
    <glyph glyph-name="uni0436.ss01" horiz-adv-x="1964" 
d="M1776 340q0 -27 16.5 -43.5t43.5 -16.5h48v-280q-48 -4 -136 -4q-137 0 -210.5 65t-73.5 195v212h-316v-468h-320v468h-316v-212q0 -130 -72.5 -195t-207.5 -65q-92 0 -140 4v280h48q27 0 43.5 16.5t16.5 43.5v408h192l-312 452h332l292 -444h124v844h320v-844h124
l292 444h332l-312 -452h192v-408z" />
    <glyph glyph-name="uni043A.ss01" horiz-adv-x="1344" 
d="M1224 280h52v-280q-52 -4 -140 -4q-137 0 -208.5 65t-71.5 195v212h-372v-468h-320v1600h320v-840h156l288 440h336l-304 -440h204v-420q0 -27 16.5 -43.5t43.5 -16.5z" />
    <glyph glyph-name="uni0443.ss01" horiz-adv-x="1372" 
d="M1008 1200h340l-380 -1156q-81 -243 -197.5 -353.5t-290.5 -110.5q-180 0 -290 107.5t-110 284.5q0 168 124 304h168l-356 924h344l316 -924h64zM480 -160q116 0 164 156l16 52h-288q-20 -47 -20 -88q0 -54 35.5 -87t92.5 -33z" />
    <glyph glyph-name="uni045E.ss01" horiz-adv-x="1372" 
d="M688 1312q-174 0 -281.5 79.5t-122.5 220.5l244 32q12 -64 55 -98t105 -34t105 34t55 98l244 -32q-15 -141 -122.5 -220.5t-281.5 -79.5zM1008 1200h340l-380 -1156q-81 -243 -197.5 -353.5t-290.5 -110.5q-180 0 -290 107.5t-110 284.5q0 168 124 304h168l-356 924h344
l316 -924h64zM480 -160q116 0 164 156l16 52h-288q-20 -47 -20 -88q0 -54 35.5 -87t92.5 -33z" />
    <glyph glyph-name="uni044F.ss01" horiz-adv-x="1348" 
d="M1184 1200v-1200h-320v428h-380v-172q0 -130 -72.5 -195t-207.5 -65q-92 0 -140 4v280h48q27 0 43.5 16.5t16.5 43.5v220h196q-106 35 -177 115.5t-71 188.5q0 156 109.5 246t298.5 90h656zM644 956q-200 0 -200 -152q0 -75 53 -115.5t155 -40.5h212v308h-220z" />
    <glyph glyph-name="uni0436.ss02" horiz-adv-x="2024" 
d="M1628 0l-312 512l-144 -152v-360h-320v360l-148 152l-308 -512h-376l452 724l-444 476h400l424 -492v892h320v-888l424 488h396l-444 -472l456 -728h-376z" />
    <glyph glyph-name="uni043A.ss02" horiz-adv-x="1372" 
d="M980 0l-340 508l-156 -152v-356h-320v1600h320v-880l456 480h400l-476 -472l492 -728h-376z" />
    <glyph glyph-name="uni044F.ss02" horiz-adv-x="1332" 
d="M1168 1200v-1200h-316v408h-216l-248 -408h-352l292 456q-107 46 -165.5 132.5t-58.5 207.5q0 186 131 295t353 109h580zM628 644h224v300h-224q-96 0 -148 -40t-52 -112t52 -110t148 -38z" />
    <glyph glyph-name="uni0436.ss03" horiz-adv-x="1964" 
d="M1776 340q0 -27 16.5 -43.5t43.5 -16.5h48v-280q-48 -4 -136 -4q-137 0 -210.5 65t-73.5 195v212h-316v-468h-320v468h-316v-212q0 -130 -72.5 -195t-207.5 -65q-92 0 -140 4v280h48q27 0 43.5 16.5t16.5 43.5v408h192l-312 452h332l292 -444h124v444h320v-444h124
l292 444h332l-312 -452h192v-408z" />
    <glyph glyph-name="uni043A.ss03" horiz-adv-x="1344" 
d="M1224 280h52v-280q-52 -4 -140 -4q-137 0 -208.5 65t-71.5 195v212h-372v-468h-320v1200h320v-440h156l288 440h336l-304 -440h204v-420q0 -27 16.5 -43.5t43.5 -16.5z" />
    <glyph glyph-name="uni0443.ss03" horiz-adv-x="1372" 
d="M1008 1200h340l-380 -1156q-81 -243 -197.5 -353.5t-290.5 -110.5q-180 0 -290 107.5t-110 284.5q0 168 124 304h168l-356 924h344l316 -924h64zM480 -160q116 0 164 156l16 52h-288q-20 -47 -20 -88q0 -54 35.5 -87t92.5 -33z" />
    <glyph glyph-name="uni045E.ss03" horiz-adv-x="1372" 
d="M688 1312q-174 0 -281.5 79.5t-122.5 220.5l244 32q12 -64 55 -98t105 -34t105 34t55 98l244 -32q-15 -141 -122.5 -220.5t-281.5 -79.5zM1008 1200h340l-380 -1156q-81 -243 -197.5 -353.5t-290.5 -110.5q-180 0 -290 107.5t-110 284.5q0 168 124 304h168l-356 924h344
l316 -924h64zM480 -160q116 0 164 156l16 52h-288q-20 -47 -20 -88q0 -54 35.5 -87t92.5 -33z" />
    <glyph glyph-name="uni044F.ss03" horiz-adv-x="1348" 
d="M1184 1200v-1200h-320v428h-380v-172q0 -130 -72.5 -195t-207.5 -65q-92 0 -140 4v280h48q27 0 43.5 16.5t16.5 43.5v220h196q-106 35 -177 115.5t-71 188.5q0 156 109.5 246t298.5 90h656zM644 956q-200 0 -200 -152q0 -75 53 -115.5t155 -40.5h212v308h-220z" />
    <glyph glyph-name="uni0436.ss04" horiz-adv-x="1936" 
d="M1816 280h48v-280q-48 -4 -140 -4q-135 0 -207.5 65t-72.5 195v116q0 44 -24.5 68t-67.5 24h-224v-464h-320v464h-228q-43 0 -67.5 -24t-24.5 -68v-116q0 -130 -71.5 -195t-208.5 -65q-88 0 -136 4v280h48q27 0 43.5 16.5t16.5 43.5v84q0 215 176 276l-280 500h336
l240 -460h156v860h320v-860h156l240 460h332l-280 -500q180 -54 180 -276v-84q0 -27 16.5 -43.5t43.5 -16.5z" />
    <glyph glyph-name="uni043A.ss04" horiz-adv-x="1340" 
d="M1220 280h48v-280q-48 -4 -140 -4q-135 0 -207.5 65t-72.5 195v116q0 44 -24.5 68t-67.5 24h-272v-464h-320v1600h320v-860h184l260 460h336l-296 -496q192 -54 192 -280v-84q0 -27 16.5 -43.5t43.5 -16.5z" />
    <glyph glyph-name="uni044F.ss04" horiz-adv-x="1348" 
d="M1184 1200v-1200h-320v428h-292q-42 0 -67 -25t-25 -67v-80q0 -130 -71.5 -195t-208.5 -65q-88 0 -136 4v280h48q27 0 43.5 16.5t16.5 43.5v60q0 132 132 168q-184 86 -184 288q0 159 109.5 251.5t298.5 92.5h656zM644 952q-200 0 -200 -148q0 -156 200 -156h220v304
h-220z" />
    <glyph glyph-name="uni0436.ss05" horiz-adv-x="1936" 
d="M1816 280h48v-280q-48 -4 -140 -4q-135 0 -207.5 65t-72.5 195v116q0 44 -24.5 68t-67.5 24h-224v-464h-320v464h-228q-43 0 -67.5 -24t-24.5 -68v-116q0 -130 -71.5 -195t-208.5 -65q-88 0 -136 4v280h48q27 0 43.5 16.5t16.5 43.5v84q0 215 176 276l-280 500h336
l240 -460h156v460h320v-460h156l240 460h332l-280 -500q180 -54 180 -276v-84q0 -27 16.5 -43.5t43.5 -16.5z" />
    <glyph glyph-name="uni043A.ss05" horiz-adv-x="1340" 
d="M1220 280h48v-280q-48 -4 -140 -4q-135 0 -207.5 65t-72.5 195v116q0 44 -24.5 68t-67.5 24h-272v-464h-320v1200h320v-460h184l260 460h336l-296 -496q192 -54 192 -280v-84q0 -27 16.5 -43.5t43.5 -16.5z" />
    <glyph glyph-name="uni044F.ss05" horiz-adv-x="1348" 
d="M1184 1200v-1200h-320v428h-292q-42 0 -67 -25t-25 -67v-80q0 -130 -71.5 -195t-208.5 -65q-88 0 -136 4v280h48q27 0 43.5 16.5t16.5 43.5v60q0 132 132 168q-184 86 -184 288q0 159 109.5 251.5t298.5 92.5h656zM644 952q-200 0 -200 -148q0 -156 200 -156h220v304
h-220z" />
    <glyph glyph-name="uni0443.ss06" horiz-adv-x="1372" 
d="M1004 1200h344l-472 -1276q-63 -167 -163.5 -245.5t-248.5 -78.5h-272v288h224q103 0 124 64l4 16l-508 1232h356l324 -892z" />
    <glyph glyph-name="uni045E.ss06" horiz-adv-x="1372" 
d="M692 1312q-174 0 -281.5 79.5t-122.5 220.5l244 32q12 -64 55 -98t105 -34t105 34t55 98l244 -32q-15 -141 -122.5 -220.5t-281.5 -79.5zM1004 1200h344l-472 -1276q-63 -167 -163.5 -245.5t-248.5 -78.5h-272v288h224q103 0 124 64l4 16l-508 1232h356l324 -892z" />
    <glyph glyph-name="uni043D.ss07" horiz-adv-x="1456" 
d="M988 1200h304v-1200h-308l-516 728v-728h-304v1200h304l520 -736v736z" />
    <glyph glyph-name="uni0430.stress" horiz-adv-x="1328" 
d="M996 1612l-244 -316h-220l120 316h344zM1204 276h48v-276q-48 -8 -116 -8q-111 0 -172.5 43.5t-79.5 136.5q-63 -90 -173.5 -141t-242.5 -51q-177 0 -284.5 96t-107.5 252q0 65 17.5 118.5t45 91.5t71 68t85 48.5t98 33t99.5 22t100 14.5q59 7 97 14t75 19t54.5 30.5
t17.5 44.5q0 58 -57.5 93t-158.5 35q-188 0 -328 -140l-192 196q216 204 540 204q234 0 365 -107.5t131 -296.5v-472q0 -68 68 -68zM540 232q120 0 204 68.5t84 167.5v104q-23 -13 -58 -24t-61.5 -16t-84.5 -16q-34 -5 -53 -8.5t-48.5 -10.5t-46 -14t-36.5 -19t-30.5 -26
t-18 -34t-7.5 -44q0 -60 40.5 -94t115.5 -34z" />
    <glyph glyph-name="uni0435.stress" horiz-adv-x="1360" 
d="M1040 1612l-244 -316h-220l120 316h344zM396 496q24 -121 106 -186.5t210 -65.5q205 0 328 136l196 -192q-195 -208 -528 -208q-153 0 -273.5 46.5t-197.5 130t-117 196t-40 247.5q0 277 166.5 448.5t441.5 171.5q273 0 434.5 -169t161.5 -451q0 -48 -12 -104h-876z
M688 964q-110 0 -185.5 -62t-102.5 -174h564q-24 114 -94.5 175t-181.5 61z" />
    <glyph glyph-name="uni0451.stress" horiz-adv-x="1360" 
d="M940 1668l-244 -316h-220l120 316h344zM436 1624v-272h-328v272h328zM924 1352v272h328v-272h-328zM396 496q24 -121 106 -186.5t210 -65.5q205 0 328 136l196 -192q-195 -208 -528 -208q-153 0 -273.5 46.5t-197.5 130t-117 196t-40 247.5q0 277 166.5 448.5
t441.5 171.5q273 0 434.5 -169t161.5 -451q0 -48 -12 -104h-876zM688 964q-110 0 -185.5 -62t-102.5 -174h564q-24 114 -94.5 175t-181.5 61z" />
    <glyph glyph-name="uni0438.stress" horiz-adv-x="1448" 
d="M1084 1612l-244 -316h-220l120 316h344zM968 1200h316v-1200h-312v740l-492 -740h-316v1200h312v-740z" />
    <glyph glyph-name="uni043E.stress" horiz-adv-x="1416" 
d="M604 1296l120 316h344l-244 -316h-220zM708 -20q-285 0 -456.5 169t-171.5 451q0 279 173 449.5t455 170.5q285 0 456.5 -169t171.5 -451q0 -279 -173 -449.5t-455 -170.5zM708 244q139 0 219.5 94.5t80.5 261.5t-80.5 261.5t-219.5 94.5t-219.5 -94.5t-80.5 -261.5
t80.5 -261.5t219.5 -94.5z" />
    <glyph glyph-name="uni0443.stress" horiz-adv-x="1372" 
d="M1048 1612l-244 -316h-220l120 316h344zM1012 1200h336l-416 -1200q-148 -420 -472 -420q-86 0 -155 22t-113.5 58.5t-75.5 86.5t-45.5 102.5t-18.5 110.5l300 52q6 -156 116 -156q66 0 120 84l-564 1260h352l364 -904z" />
    <glyph glyph-name="uni044B.stress" horiz-adv-x="1876" 
d="M836 1296l120 316h344l-244 -316h-220zM760 792q219 0 341.5 -105t122.5 -291q0 -183 -124 -289.5t-340 -106.5h-596v1200h320v-408h276zM1392 1200h320v-1200h-320v1200zM712 248q188 0 188 152t-188 152h-228v-304h228z" />
    <glyph glyph-name="uni0454.stress" horiz-adv-x="1300" 
d="M1056 1612l-244 -316h-220l120 316h344zM696 236q97 0 168 49.5t108 138.5l288 -104q-57 -159 -206.5 -249.5t-353.5 -90.5q-279 0 -449.5 170.5t-170.5 449.5t170.5 449.5t449.5 170.5q204 0 353.5 -90.5t206.5 -249.5l-288 -104q-37 89 -108 138.5t-168 49.5
q-110 0 -185.5 -64t-102.5 -176h424v-224h-428q24 -124 100 -194t192 -70z" />
    <glyph glyph-name="uni044D.stress" horiz-adv-x="1292" 
d="M960 1612l-244 -316h-220l120 316h344zM600 1220q276 0 444 -170.5t168 -449.5t-168 -449.5t-444 -170.5q-203 0 -351.5 92t-208.5 252l284 92q34 -86 103 -133t169 -47q113 0 192.5 71.5t103.5 192.5h-432v224h424q-27 112 -102.5 176t-185.5 64q-199 0 -276 -180
l-276 92q57 159 206 251.5t350 92.5z" />
    <glyph glyph-name="uni0456.stress" horiz-adv-x="688" 
d="M240 1296l120 316h344l-244 -316h-220zM184 0v1200h320v-1200h-320z" />
    <glyph glyph-name="uni0457.stress" horiz-adv-x="688" 
d="M140 1352l120 316h344l-244 -316h-220zM-228 1352v272h328v-272h-328zM588 1352v272h328v-272h-328zM184 0v1200h320v-1200h-320z" />
    <glyph glyph-name="uni044E.stress" horiz-adv-x="1972" 
d="M1240 1612l-244 -316h-220l120 316h344zM1284 1220q276 0 442 -169t166 -451q0 -279 -167.5 -449.5t-440.5 -170.5q-242 0 -399 131t-193 357h-208v-468h-320v1200h320v-444h212q42 214 198.5 339t389.5 125zM1284 244q132 0 206 94t74 262t-74 262t-206 94t-208 -94.5
t-76 -261.5t76 -261.5t208 -94.5z" />
    <glyph glyph-name="uni044F.stress" horiz-adv-x="1332" 
d="M1064 1612l-244 -316h-220l120 316h344zM1168 1200v-1200h-316v408h-216l-248 -408h-352l292 456q-107 46 -165.5 132.5t-58.5 207.5q0 186 131 295t353 109h580zM628 644h224v300h-224q-96 0 -148 -40t-52 -112t52 -110t148 -38z" />
    <glyph glyph-name="uni0443.ss03.stress" horiz-adv-x="1372" 
d="M1048 1612l-244 -316h-220l120 316h344zM1008 1200h340l-380 -1156q-81 -243 -197.5 -353.5t-290.5 -110.5q-180 0 -290 107.5t-110 284.5q0 168 124 304h168l-356 924h344l316 -924h64zM480 -160q116 0 164 156l16 52h-288q-20 -47 -20 -88q0 -54 35.5 -87t92.5 -33z
" />
    <glyph glyph-name="uni044F.ss03.stress" horiz-adv-x="1348" 
d="M1020 1612l-244 -316h-220l120 316h344zM1184 1200v-1200h-320v428h-380v-172q0 -130 -72.5 -195t-207.5 -65q-92 0 -140 4v280h48q27 0 43.5 16.5t16.5 43.5v220h196q-106 35 -177 115.5t-71 188.5q0 156 109.5 246t298.5 90h656zM644 956q-200 0 -200 -152
q0 -75 53 -115.5t155 -40.5h212v308h-220z" />
    <glyph glyph-name="uni044F.ss04.stress" horiz-adv-x="1348" 
d="M1044 1612l-244 -316h-220l120 316h344zM1184 1200v-1200h-320v428h-292q-42 0 -67 -25t-25 -67v-80q0 -130 -71.5 -195t-208.5 -65q-88 0 -136 4v280h48q27 0 43.5 16.5t16.5 43.5v60q0 132 132 168q-184 86 -184 288q0 159 109.5 251.5t298.5 92.5h656zM644 952
q-200 0 -200 -148q0 -156 200 -156h220v304h-220z" />
    <glyph glyph-name="uni0443.ss06.stress" horiz-adv-x="1372" 
d="M1052 1612l-244 -316h-220l120 316h344zM1004 1200h344l-472 -1276q-63 -167 -163.5 -245.5t-248.5 -78.5h-272v288h224q103 0 124 64l4 16l-508 1232h356l324 -892z" />
    <glyph glyph-name="zero.zero" 
d="M720 1540q288 0 458 -210.5t170 -569.5t-170 -569.5t-458 -210.5t-458 210.5t-170 569.5t170 569.5t458 210.5zM720 1280q-153 0 -236.5 -135.5t-83.5 -384.5q0 -113 20 -220l460 692q-66 48 -160 48zM720 240q153 0 236.5 135.5t83.5 384.5q0 113 -20 220l-460 -692
q66 -48 160 -48z" />
    <glyph glyph-name="zero.lf" 
d="M720 -20q-288 0 -458 210.5t-170 569.5t170 569.5t458 210.5t458 -210.5t170 -569.5t-170 -569.5t-458 -210.5zM720 244q144 0 224 135t80 381t-80 381t-224 135t-224 -135t-80 -381t80 -381t224 -135z" />
    <glyph glyph-name="one.lf" horiz-adv-x="900" 
d="M428 0v996h-344v260h68q133 0 203 23.5t102.5 78.5t42.5 162h248v-1520h-320z" />
    <glyph glyph-name="two.lf" horiz-adv-x="1204" 
d="M516 268h688v-268h-1132v208l540 464q138 115 193 208t55 188q0 93 -62.5 150.5t-161.5 57.5q-119 0 -188 -74.5t-72 -225.5l-300 44q15 243 171.5 383t408.5 137q234 -3 379 -126t145 -318q0 -91 -24.5 -167t-85 -155t-138.5 -152.5t-208 -181.5z" />
    <glyph glyph-name="three.lf" horiz-adv-x="1220" 
d="M772 932q186 -15 299 -139t113 -313q0 -217 -162.5 -358.5t-413.5 -141.5q-208 0 -361.5 93t-226.5 259l240 140q51 -111 138 -171.5t198 -60.5q129 0 204.5 67t75.5 181q0 108 -67 172t-181 64q-78 0 -144 -36l-140 164l404 392h-656v276h1036v-236z" />
    <glyph glyph-name="four.lf" horiz-adv-x="1280" 
d="M1332 624v-272h-224v-352h-296v352h-748v264l656 904h388v-896h224zM384 624h428v588z" />
    <glyph glyph-name="five.lf" horiz-adv-x="1264" 
d="M696 1004q216 0 362 -144t146 -360q0 -231 -164 -375.5t-428 -144.5q-182 0 -325.5 73t-222.5 203l204 172q52 -83 140.5 -133.5t191.5 -50.5q129 0 208.5 72t79.5 192t-74.5 192t-197.5 72q-159 0 -252 -124l-228 84l68 788h892v-288h-644l-28 -300q108 72 272 72z" />
    <glyph glyph-name="six.lf" horiz-adv-x="1304" 
d="M796 984q232 0 372 -132t140 -356q0 -149 -74 -267.5t-201.5 -183.5t-284.5 -65q-201 0 -343.5 100t-211.5 270.5t-69 393.5q0 172 41.5 317t121.5 252t204 167t281 60q151 0 282.5 -54.5t213.5 -157.5l-220 -196q-38 68 -112 106t-160 38q-90 0 -160 -35.5t-113 -99
t-66.5 -145t-28.5 -180.5q63 81 162.5 124.5t225.5 43.5zM740 232q115 0 189.5 72t74.5 188q0 117 -71.5 186.5t-188.5 69.5q-121 0 -196.5 -70t-75.5 -186q0 -117 74 -188.5t194 -71.5z" />
    <glyph glyph-name="seven.lf" horiz-adv-x="1116" 
d="M56 1520h1112v-248q-228 -216 -358 -554t-130 -718h-320q0 344 130 676t342 556h-776v288z" />
    <glyph glyph-name="eight.lf" horiz-adv-x="1296" 
d="M1020 784q122 -55 189 -149.5t67 -218.5q0 -199 -157.5 -317.5t-426.5 -118.5t-426.5 118.5t-157.5 317.5q0 124 67 218.5t189 149.5q-102 51 -157 135.5t-55 192.5q0 198 145.5 313t394.5 115t394.5 -115t145.5 -313q0 -108 -55 -192.5t-157 -135.5zM692 1300
q-117 0 -184.5 -56t-67.5 -152q0 -93 68 -148.5t184 -55.5t184 55.5t68 148.5q0 96 -67.5 152t-184.5 56zM692 220q125 0 198.5 61t73.5 163t-72.5 159t-199.5 57t-199.5 -57t-72.5 -159t73.5 -163t198.5 -61z" />
    <glyph glyph-name="nine.lf" horiz-adv-x="1304" 
d="M636 1540q201 0 343.5 -100t211.5 -270.5t69 -393.5q0 -172 -41.5 -317t-121.5 -252t-204 -167t-281 -60q-151 0 -282.5 54.5t-213.5 157.5l220 196q38 -68 112 -106t160 -38q90 0 160 35.5t113 99t66.5 145t28.5 180.5q-63 -81 -162.5 -124.5t-225.5 -43.5
q-232 0 -372 132t-140 356q0 149 74 267.5t201.5 183.5t284.5 65zM640 772q121 0 196.5 70t75.5 186q0 117 -74 188.5t-194 71.5q-115 0 -189.5 -72t-74.5 -188q0 -117 71.5 -186.5t188.5 -69.5z" />
    <glyph glyph-name="zero.lf.zero" 
d="M720 1540q288 0 458 -210.5t170 -569.5t-170 -569.5t-458 -210.5t-458 210.5t-170 569.5t170 569.5t458 210.5zM720 1280q-153 0 -236.5 -135.5t-83.5 -384.5q0 -113 20 -220l460 692q-66 48 -160 48zM720 240q153 0 236.5 135.5t83.5 384.5q0 113 -20 220l-460 -692
q66 -48 160 -48z" />
    <glyph glyph-name="zero.osf" 
d="M720 -20q-288 0 -458 178.5t-170 481.5q0 300 171.5 480t456.5 180q288 0 458 -178.5t170 -481.5q0 -300 -171.5 -480t-456.5 -180zM720 244q144 0 224 103.5t80 292.5t-80 292.5t-224 103.5t-224 -103.5t-80 -292.5t80 -292.5t224 -103.5z" />
    <glyph glyph-name="one.osf" horiz-adv-x="872" 
d="M352 0v764h-344v260h68q133 0 203 23.5t102.5 78.5t42.5 162h248v-1288h-320z" />
    <glyph glyph-name="two.osf" horiz-adv-x="1212" 
d="M540 272h660v-272h-1180v212l496 320q176 113 234 178t58 146q0 82 -56.5 131t-151.5 49q-113 0 -184 -65.5t-92 -186.5l-296 56q30 213 188.5 336.5t399.5 123.5q229 0 368.5 -109t139.5 -291q3 -147 -92 -260.5t-368 -287.5z" />
    <glyph glyph-name="three.osf" horiz-adv-x="1200" 
d="M752 692q186 -15 299 -139t113 -313q0 -217 -162.5 -358.5t-413.5 -141.5q-208 0 -361.5 93t-226.5 259l240 140q51 -111 138 -171.5t198 -60.5q129 0 204.5 67t75.5 181q0 108 -67 172t-181 64q-78 0 -144 -36l-140 164l404 392h-656v276h1036v-236z" />
    <glyph glyph-name="four.osf" horiz-adv-x="1280" 
d="M1268 384v-272h-224v-352h-296v352h-748v264l656 904h388v-896h224zM320 384h428v588z" />
    <glyph glyph-name="five.osf" horiz-adv-x="1264" 
d="M704 764q216 0 362 -144t146 -360q0 -231 -164 -375.5t-428 -144.5q-182 0 -325.5 73t-222.5 203l204 172q52 -83 140.5 -133.5t191.5 -50.5q129 0 208.5 72t79.5 192t-74.5 192t-197.5 72q-159 0 -252 -124l-228 84l68 788h892v-288h-644l-28 -300q108 72 272 72z" />
    <glyph glyph-name="six.osf" horiz-adv-x="1304" 
d="M744 976q232 0 372 -132t140 -356q0 -149 -74 -267.5t-201.5 -183.5t-284.5 -65q-201 0 -343.5 100t-211.5 270.5t-69 393.5q0 172 41.5 317t121.5 252t204 167t281 60q151 0 282.5 -54.5t213.5 -157.5l-220 -196q-38 68 -112 106t-160 38q-90 0 -160 -35.5t-113 -99
t-66.5 -145t-28.5 -180.5q63 81 162.5 124.5t225.5 43.5zM688 224q115 0 189.5 72t74.5 188q0 117 -71.5 186.5t-188.5 69.5q-121 0 -196.5 -70t-75.5 -186q0 -117 74 -188.5t194 -71.5z" />
    <glyph glyph-name="seven.osf" horiz-adv-x="1152" 
d="M20 1280h1112v-248q-228 -216 -358 -554t-130 -718h-320q0 344 130 676t342 556h-776v288z" />
    <glyph glyph-name="eight.osf" horiz-adv-x="1296" 
d="M976 784q122 -55 189 -149.5t67 -218.5q0 -199 -157.5 -317.5t-426.5 -118.5t-426.5 118.5t-157.5 317.5q0 124 67 218.5t189 149.5q-102 51 -157 135.5t-55 192.5q0 198 145.5 313t394.5 115t394.5 -115t145.5 -313q0 -108 -55 -192.5t-157 -135.5zM648 1300
q-117 0 -184.5 -56t-67.5 -152q0 -93 68 -148.5t184 -55.5t184 55.5t68 148.5q0 96 -67.5 152t-184.5 56zM648 220q125 0 198.5 61t73.5 163t-72.5 159t-199.5 57t-199.5 -57t-72.5 -159t73.5 -163t198.5 -61z" />
    <glyph glyph-name="nine.osf" horiz-adv-x="1312" 
d="M644 1300q201 0 343.5 -100t211.5 -270.5t69 -393.5q0 -172 -41.5 -317t-121.5 -252t-204 -167t-281 -60q-151 0 -282.5 54.5t-213.5 157.5l220 196q38 -68 112 -106t160 -38q90 0 160 35.5t113 99t66.5 145t28.5 180.5q-63 -81 -162.5 -124.5t-225.5 -43.5
q-232 0 -372 132t-140 356q0 149 74 267.5t201.5 183.5t284.5 65zM648 532q121 0 196.5 70t75.5 186q0 117 -74 188.5t-194 71.5q-115 0 -189.5 -72t-74.5 -188q0 -117 71.5 -186.5t188.5 -69.5z" />
    <glyph glyph-name="zero.osf.zero" 
d="M720 1300q288 0 458 -178.5t170 -481.5q0 -300 -171.5 -480t-456.5 -180q-288 0 -458 178.5t-170 481.5q0 300 171.5 480t456.5 180zM720 1044q-150 0 -233 -106t-83 -298q0 -87 20 -160l436 532q-64 32 -140 32zM720 236q150 0 233 106t83 298q0 87 -20 160l-436 -532
q64 -32 140 -32z" />
    <glyph glyph-name="zero.tf" 
d="M720 -20q-288 0 -458 210.5t-170 569.5t170 569.5t458 210.5t458 -210.5t170 -569.5t-170 -569.5t-458 -210.5zM720 244q144 0 224 135t80 381t-80 381t-224 135t-224 -135t-80 -381t80 -381t224 -135z" />
    <glyph glyph-name="one.tf" 
d="M912 272h432v-272h-1216v272h464v724h-408v260h132q133 0 203 23.5t102.5 78.5t42.5 162h248v-1248z" />
    <glyph glyph-name="two.tf" 
d="M612 268h688v-268h-1132v208l540 464q138 115 193 208t55 188q0 93 -62.5 150.5t-161.5 57.5q-119 0 -188 -74.5t-72 -225.5l-300 44q15 243 171.5 383t408.5 137q234 -3 379 -126t145 -318q0 -91 -24.5 -167t-85 -155t-138.5 -152.5t-208 -181.5z" />
    <glyph glyph-name="three.tf" 
d="M864 932q186 -15 299 -139t113 -313q0 -217 -162.5 -358.5t-413.5 -141.5q-208 0 -361.5 93t-226.5 259l240 140q51 -111 138 -171.5t198 -60.5q129 0 204.5 67t75.5 181q0 108 -67 172t-181 64q-78 0 -144 -36l-140 164l404 392h-656v276h1036v-236z" />
    <glyph glyph-name="four.tf" 
d="M1360 624v-272h-224v-352h-296v352h-748v264l656 904h388v-896h224zM412 624h428v588z" />
    <glyph glyph-name="five.tf" 
d="M760 1004q216 0 362 -144t146 -360q0 -231 -164 -375.5t-428 -144.5q-182 0 -325.5 73t-222.5 203l204 172q52 -83 140.5 -133.5t191.5 -50.5q129 0 208.5 72t79.5 192t-74.5 192t-197.5 72q-159 0 -252 -124l-228 84l68 788h892v-288h-644l-28 -300q108 72 272 72z" />
    <glyph glyph-name="six.tf" 
d="M820 984q232 0 372 -132t140 -356q0 -149 -74 -267.5t-201.5 -183.5t-284.5 -65q-201 0 -343.5 100t-211.5 270.5t-69 393.5q0 172 41.5 317t121.5 252t204 167t281 60q151 0 282.5 -54.5t213.5 -157.5l-220 -196q-38 68 -112 106t-160 38q-90 0 -160 -35.5t-113 -99
t-66.5 -145t-28.5 -180.5q63 81 162.5 124.5t225.5 43.5zM764 232q115 0 189.5 72t74.5 188q0 117 -71.5 186.5t-188.5 69.5q-121 0 -196.5 -70t-75.5 -186q0 -117 74 -188.5t194 -71.5z" />
    <glyph glyph-name="seven.tf" 
d="M140 1520h1184v-248q-243 -216 -381.5 -554t-138.5 -718h-332q0 339 141.5 672.5t370.5 559.5h-844v288z" />
    <glyph glyph-name="eight.tf" 
d="M1048 784q122 -55 189 -149.5t67 -218.5q0 -199 -157.5 -317.5t-426.5 -118.5t-426.5 118.5t-157.5 317.5q0 124 67 218.5t189 149.5q-102 51 -157 135.5t-55 192.5q0 198 145.5 313t394.5 115t394.5 -115t145.5 -313q0 -108 -55 -192.5t-157 -135.5zM720 1300
q-117 0 -184.5 -56t-67.5 -152q0 -93 68 -148.5t184 -55.5t184 55.5t68 148.5q0 96 -67.5 152t-184.5 56zM720 220q125 0 198.5 61t73.5 163t-72.5 159t-199.5 57t-199.5 -57t-72.5 -159t73.5 -163t198.5 -61z" />
    <glyph glyph-name="nine.tf" 
d="M668 1540q201 0 343.5 -100t211.5 -270.5t69 -393.5q0 -172 -41.5 -317t-121.5 -252t-204 -167t-281 -60q-151 0 -282.5 54.5t-213.5 157.5l220 196q38 -68 112 -106t160 -38q90 0 160 35.5t113 99t66.5 145t28.5 180.5q-63 -81 -162.5 -124.5t-225.5 -43.5
q-232 0 -372 132t-140 356q0 149 74 267.5t201.5 183.5t284.5 65zM672 772q121 0 196.5 70t75.5 186q0 117 -74 188.5t-194 71.5q-115 0 -189.5 -72t-74.5 -188q0 -117 71.5 -186.5t188.5 -69.5z" />
    <glyph glyph-name="zero.tf.zero" 
d="M720 1540q288 0 458 -210.5t170 -569.5t-170 -569.5t-458 -210.5t-458 210.5t-170 569.5t170 569.5t458 210.5zM720 1280q-153 0 -236.5 -135.5t-83.5 -384.5q0 -113 20 -220l460 692q-66 48 -160 48zM720 240q153 0 236.5 135.5t83.5 384.5q0 113 -20 220l-460 -692
q66 -48 160 -48z" />
    <glyph glyph-name="zero.tosf" 
d="M720 -20q-288 0 -458 178.5t-170 481.5q0 300 171.5 480t456.5 180q288 0 458 -178.5t170 -481.5q0 -300 -171.5 -480t-456.5 -180zM720 244q144 0 224 103.5t80 292.5t-80 292.5t-224 103.5t-224 -103.5t-80 -292.5t80 -292.5t224 -103.5z" />
    <glyph glyph-name="one.tosf" 
d="M912 272h432v-272h-1216v272h464v484h-408v260h132q133 0 203 23.5t102.5 78.5t42.5 162h248v-1008z" />
    <glyph glyph-name="two.tosf" 
d="M668 272h660v-272h-1180v212l496 320q176 113 234 178t58 146q0 82 -56.5 131t-151.5 49q-113 0 -184 -65.5t-92 -186.5l-296 56q30 213 188.5 336.5t399.5 123.5q229 0 368.5 -109t139.5 -291q3 -147 -92 -260.5t-368 -287.5z" />
    <glyph glyph-name="three.tosf" 
d="M864 692q186 -15 299 -139t113 -313q0 -217 -162.5 -358.5t-413.5 -141.5q-208 0 -361.5 93t-226.5 259l240 140q51 -111 138 -171.5t198 -60.5q129 0 204.5 67t75.5 181q0 108 -67 172t-181 64q-78 0 -144 -36l-140 164l404 392h-656v276h1036v-236z" />
    <glyph glyph-name="four.tosf" 
d="M1360 384v-272h-224v-352h-296v352h-748v264l656 904h388v-896h224zM412 384h428v588z" />
    <glyph glyph-name="five.tosf" 
d="M760 764q216 0 362 -144t146 -360q0 -231 -164 -375.5t-428 -144.5q-182 0 -325.5 73t-222.5 203l204 172q52 -83 140.5 -133.5t191.5 -50.5q129 0 208.5 72t79.5 192t-74.5 192t-197.5 72q-159 0 -252 -124l-228 84l68 788h892v-288h-644l-28 -300q108 72 272 72z" />
    <glyph glyph-name="six.tosf" 
d="M820 984q232 0 372 -132t140 -356q0 -149 -74 -267.5t-201.5 -183.5t-284.5 -65q-201 0 -343.5 100t-211.5 270.5t-69 393.5q0 172 41.5 317t121.5 252t204 167t281 60q151 0 282.5 -54.5t213.5 -157.5l-220 -196q-38 68 -112 106t-160 38q-90 0 -160 -35.5t-113 -99
t-66.5 -145t-28.5 -180.5q63 81 162.5 124.5t225.5 43.5zM764 232q115 0 189.5 72t74.5 188q0 117 -71.5 186.5t-188.5 69.5q-121 0 -196.5 -70t-75.5 -186q0 -117 74 -188.5t194 -71.5z" />
    <glyph glyph-name="seven.tosf" 
d="M140 1280h1184v-248q-243 -216 -381.5 -554t-138.5 -718h-332q0 339 141.5 672.5t370.5 559.5h-844v288z" />
    <glyph glyph-name="eight.tosf" 
d="M1048 784q122 -55 189 -149.5t67 -218.5q0 -199 -157.5 -317.5t-426.5 -118.5t-426.5 118.5t-157.5 317.5q0 124 67 218.5t189 149.5q-102 51 -157 135.5t-55 192.5q0 198 145.5 313t394.5 115t394.5 -115t145.5 -313q0 -108 -55 -192.5t-157 -135.5zM720 1300
q-117 0 -184.5 -56t-67.5 -152q0 -93 68 -148.5t184 -55.5t184 55.5t68 148.5q0 96 -67.5 152t-184.5 56zM720 220q125 0 198.5 61t73.5 163t-72.5 159t-199.5 57t-199.5 -57t-72.5 -159t73.5 -163t198.5 -61z" />
    <glyph glyph-name="nine.tosf" 
d="M668 1300q201 0 343.5 -100t211.5 -270.5t69 -393.5q0 -172 -41.5 -317t-121.5 -252t-204 -167t-281 -60q-151 0 -282.5 54.5t-213.5 157.5l220 196q38 -68 112 -106t160 -38q90 0 160 35.5t113 99t66.5 145t28.5 180.5q-63 -81 -162.5 -124.5t-225.5 -43.5
q-232 0 -372 132t-140 356q0 149 74 267.5t201.5 183.5t284.5 65zM672 532q121 0 196.5 70t75.5 186q0 117 -74 188.5t-194 71.5q-115 0 -189.5 -72t-74.5 -188q0 -117 71.5 -186.5t188.5 -69.5z" />
    <glyph glyph-name="zero.tosf.zero" 
d="M720 1300q288 0 458 -178.5t170 -481.5q0 -300 -171.5 -480t-456.5 -180q-288 0 -458 178.5t-170 481.5q0 300 171.5 480t456.5 180zM720 1044q-150 0 -233 -106t-83 -298q0 -87 20 -160l436 532q-64 32 -140 32zM720 236q150 0 233 106t83 298q0 87 -20 160l-436 -532
q64 -32 140 -32z" />
    <glyph glyph-name="zero.dnom" horiz-adv-x="936" 
d="M468 -12q-189 0 -300.5 125t-111.5 335t111.5 335t300.5 125t300.5 -125t111.5 -335t-111.5 -335t-300.5 -125zM468 188q84 0 134 71.5t50 188.5q0 120 -50 192t-134 72q-81 0 -130.5 -72t-49.5 -192q0 -117 49.5 -188.5t130.5 -71.5z" />
    <glyph glyph-name="one.dnom" horiz-adv-x="760" 
d="M576 896v-896h-228v556h-248v184h72q124 0 169.5 32.5t54.5 123.5h180z" />
    <glyph glyph-name="two.dnom" horiz-adv-x="936" 
d="M464 200h396v-200h-752v164l352 240q68 46 108 100.5t40 107.5q0 48 -34 76t-94 28q-71 0 -113.5 -40.5t-42.5 -107.5l-216 28q9 139 110.5 225.5t273.5 86.5q157 0 252.5 -73.5t95.5 -198.5q0 -92 -66.5 -177.5t-237.5 -206.5z" />
    <glyph glyph-name="three.dnom" horiz-adv-x="936" 
d="M584 548q114 -12 183 -83.5t69 -176.5q0 -132 -106.5 -216t-277.5 -84q-139 0 -241 57.5t-147 162.5l168 104q31 -61 88.5 -96.5t131.5 -35.5q72 0 114 33.5t42 90.5q0 52 -37.5 80t-94.5 28q-56 0 -104 -24l-92 116l232 192h-396v200h684v-176z" />
    <glyph glyph-name="four.dnom" horiz-adv-x="936" 
d="M888 388v-196h-140v-192h-216v192h-476v184l416 520h276v-508h140zM288 388h244v304z" />
    <glyph glyph-name="five.dnom" horiz-adv-x="936" 
d="M504 600q144 0 232 -79t88 -205q0 -141 -111 -234.5t-281 -93.5q-114 0 -209.5 45t-146.5 123l148 128q76 -104 208 -104q76 0 120 35t44 97q0 56 -40.5 88t-107.5 32q-109 0 -160 -64l-152 64l40 464h584v-192h-408l-16 -140q72 36 168 36z" />
    <glyph glyph-name="six.dnom" horiz-adv-x="936" 
d="M540 588q150 0 241 -77.5t91 -206.5q0 -142 -106 -229t-270 -87q-192 0 -298 124t-106 332q0 207 113 335.5t315 128.5q200 0 312 -112l-156 -156q-27 32 -75 52t-97 20q-78 0 -134.5 -57t-65.5 -147q80 80 236 80zM496 176q68 0 106 33t38 91q0 55 -37.5 89.5
t-102.5 34.5q-69 0 -110.5 -35.5t-41.5 -92.5q0 -54 40 -87t108 -33z" />
    <glyph glyph-name="seven.dnom" horiz-adv-x="820" 
d="M16 896h776v-188q-153 -120 -238.5 -306t-85.5 -402h-236q0 190 85 375.5t227 312.5h-528v208z" />
    <glyph glyph-name="eight.dnom" horiz-adv-x="936" 
d="M712 464q140 -76 140 -212q0 -123 -102 -193.5t-282 -70.5t-282 70.5t-102 193.5q0 138 140 208q-54 33 -83 82t-29 106q0 120 95.5 190t260.5 70t260.5 -70t95.5 -190q0 -57 -29 -105.5t-83 -78.5zM468 728q-72 0 -112 -25.5t-40 -70.5q0 -40 40.5 -64t111.5 -24
t111.5 24t40.5 64q0 45 -40 70.5t-112 25.5zM468 168q75 0 119.5 25.5t44.5 70.5t-44.5 70.5t-119.5 25.5t-119.5 -25.5t-44.5 -70.5t44.5 -70.5t119.5 -25.5z" />
    <glyph glyph-name="nine.dnom" horiz-adv-x="936" 
d="M440 908q192 0 298 -124t106 -332q0 -207 -113 -335.5t-315 -128.5q-200 0 -312 112l156 156q27 -32 75 -52t97 -20q78 0 134.5 57t65.5 147q-80 -80 -236 -80q-150 0 -241 77.5t-91 206.5q0 142 106 229t270 87zM436 472q69 0 110.5 35.5t41.5 92.5q0 54 -40 87t-108 33
t-106 -33t-38 -91q0 -55 37.5 -89.5t102.5 -34.5z" />
    <glyph glyph-name="zero.numr" horiz-adv-x="936" 
d="M468 612q-189 0 -300.5 125t-111.5 335t111.5 335t300.5 125t300.5 -125t111.5 -335t-111.5 -335t-300.5 -125zM468 812q84 0 134 71.5t50 188.5q0 120 -50 192t-134 72q-81 0 -130.5 -72t-49.5 -192q0 -117 49.5 -188.5t130.5 -71.5z" />
    <glyph glyph-name="one.numr" horiz-adv-x="760" 
d="M576 1520v-896h-228v556h-248v184h72q124 0 169.5 32.5t54.5 123.5h180z" />
    <glyph glyph-name="two.numr" horiz-adv-x="936" 
d="M464 824h396v-200h-752v164l352 240q68 46 108 100.5t40 107.5q0 48 -34 76t-94 28q-71 0 -113.5 -40.5t-42.5 -107.5l-216 28q9 139 110.5 225.5t273.5 86.5q157 0 252.5 -73.5t95.5 -198.5q0 -92 -66.5 -177.5t-237.5 -206.5z" />
    <glyph glyph-name="three.numr" horiz-adv-x="936" 
d="M584 1172q114 -12 183 -83.5t69 -176.5q0 -132 -106.5 -216t-277.5 -84q-139 0 -241 57.5t-147 162.5l168 104q31 -61 88.5 -96.5t131.5 -35.5q72 0 114 33.5t42 90.5q0 52 -37.5 80t-94.5 28q-56 0 -104 -24l-92 116l232 192h-396v200h684v-176z" />
    <glyph glyph-name="four.numr" horiz-adv-x="936" 
d="M888 1012v-196h-140v-192h-216v192h-476v184l416 520h276v-508h140zM288 1012h244v304z" />
    <glyph glyph-name="five.numr" horiz-adv-x="936" 
d="M504 1224q144 0 232 -79t88 -205q0 -141 -111 -234.5t-281 -93.5q-114 0 -209.5 45t-146.5 123l148 128q76 -104 208 -104q76 0 120 35t44 97q0 56 -40.5 88t-107.5 32q-109 0 -160 -64l-152 64l40 464h584v-192h-408l-16 -140q72 36 168 36z" />
    <glyph glyph-name="six.numr" horiz-adv-x="936" 
d="M540 1212q150 0 241 -77.5t91 -206.5q0 -142 -106 -229t-270 -87q-192 0 -298 124t-106 332q0 207 113 335.5t315 128.5q200 0 312 -112l-156 -156q-27 32 -75 52t-97 20q-78 0 -134.5 -57t-65.5 -147q80 80 236 80zM496 800q68 0 106 33t38 91q0 55 -37.5 89.5
t-102.5 34.5q-69 0 -110.5 -35.5t-41.5 -92.5q0 -54 40 -87t108 -33z" />
    <glyph glyph-name="seven.numr" horiz-adv-x="820" 
d="M16 1520h776v-188q-153 -120 -238.5 -306t-85.5 -402h-236q0 190 85 375.5t227 312.5h-528v208z" />
    <glyph glyph-name="eight.numr" horiz-adv-x="936" 
d="M712 1088q140 -76 140 -212q0 -123 -102 -193.5t-282 -70.5t-282 70.5t-102 193.5q0 138 140 208q-54 33 -83 82t-29 106q0 120 95.5 190t260.5 70t260.5 -70t95.5 -190q0 -57 -29 -105.5t-83 -78.5zM468 1352q-72 0 -112 -25.5t-40 -70.5q0 -40 40.5 -64t111.5 -24
t111.5 24t40.5 64q0 45 -40 70.5t-112 25.5zM468 792q75 0 119.5 25.5t44.5 70.5t-44.5 70.5t-119.5 25.5t-119.5 -25.5t-44.5 -70.5t44.5 -70.5t119.5 -25.5z" />
    <glyph glyph-name="nine.numr" horiz-adv-x="936" 
d="M440 1532q192 0 298 -124t106 -332q0 -207 -113 -335.5t-315 -128.5q-200 0 -312 112l156 156q27 -32 75 -52t97 -20q78 0 134.5 57t65.5 147q-80 -80 -236 -80q-150 0 -241 77.5t-91 206.5q0 142 106 229t270 87zM436 1096q69 0 110.5 35.5t41.5 92.5q0 54 -40 87
t-108 33t-106 -33t-38 -91q0 -55 37.5 -89.5t102.5 -34.5z" />
    <glyph glyph-name="exclamdown.case" horiz-adv-x="780" 
d="M580 1520v-376h-376v376h376zM528 968l44 -968h-360l44 968h272z" />
    <glyph glyph-name="questiondown.case" horiz-adv-x="1276" 
d="M832 1520v-376h-376v376h376zM788 984q6 -104 -33 -170t-163 -166q-93 -75 -122.5 -118t-29.5 -106q0 -84 55 -132t149 -48q115 0 187.5 74.5t84.5 205.5l296 -52q-24 -226 -178.5 -359t-393.5 -133q-234 0 -377 115.5t-143 304.5q0 115 53 201.5t175 170.5
q85 58 122.5 104t37.5 96v12h280z" />
    <glyph glyph-name="periodcentered.case" horiz-adv-x="720" 
d="M172 620v376h376v-376h-376z" />
    <glyph glyph-name="bullet.case" 
d="M768 400q-153 0 -256.5 103.5t-103.5 256.5t103.5 256.5t256.5 103.5t256.5 -103.5t103.5 -256.5t-103.5 -256.5t-256.5 -103.5z" />
    <glyph glyph-name="asterisk.case" horiz-adv-x="1000" 
d="M912 1148l-260 -84l160 -220l-152 -108l-160 220l-160 -220l-152 108l160 224l-260 84l56 180l264 -84v272h184v-272l264 84z" />
    <glyph glyph-name="slash.case" horiz-adv-x="1016" 
d="M-36 0l804 1520h288l-804 -1520h-288z" />
    <glyph glyph-name="backslash.case" horiz-adv-x="1016" 
d="M900 0h-288l-804 1520h288z" />
    <glyph glyph-name="parenleft.case" horiz-adv-x="992" 
d="M500 760q0 -415 320 -652l-116 -200q-260 114 -402 337t-142 515t142 515t402 337l116 -200q-320 -237 -320 -652z" />
    <glyph glyph-name="parenright.case" horiz-adv-x="992" 
d="M492 760q0 415 -320 652l116 200q260 -114 402 -337t142 -515t-142 -515t-402 -337l-116 200q320 237 320 652z" />
    <glyph glyph-name="braceleft.case" horiz-adv-x="992" 
d="M600 1016q0 -194 -124 -256q124 -62 124 -256v-156q0 -32 18.5 -50t49.5 -18h164v-280h-256q-138 0 -213 75t-75 213v180q0 82 -26 117t-82 35h-60v280h60q56 0 82 35t26 117v180q0 138 75 213t213 75h256v-280h-164q-31 0 -49.5 -18t-18.5 -50v-156z" />
    <glyph glyph-name="braceright.case" horiz-adv-x="992" 
d="M812 900h60v-280h-60q-56 0 -82 -35t-26 -117v-180q0 -138 -75 -213t-213 -75h-256v280h164q31 0 49.5 18t18.5 50v156q0 194 124 256q-124 62 -124 256v156q0 32 -18.5 50t-49.5 18h-164v280h256q138 0 213 -75t75 -213v-180q0 -82 26 -117t82 -35z" />
    <glyph glyph-name="bracketleft.case" horiz-adv-x="992" 
d="M844 1240h-328v-960h328v-280h-640v1520h640v-280z" />
    <glyph glyph-name="bracketright.case" horiz-adv-x="992" 
d="M788 1520v-1520h-640v280h328v960h-328v280h640z" />
    <glyph glyph-name="hyphen.case" horiz-adv-x="1008" 
d="M140 612v296h728v-296h-728z" />
    <glyph glyph-name="endash.case" horiz-adv-x="1328" 
d="M140 612v296h1048v-296h-1048z" />
    <glyph glyph-name="emdash.case" horiz-adv-x="1808" 
d="M140 612v296h1528v-296h-1528z" />
    <glyph glyph-name="guillemotleft.case" horiz-adv-x="1340" 
d="M108 608v304l504 340v-328l-236 -160l236 -164v-332zM1192 1252v-328l-236 -160l236 -164v-332l-504 340v304z" />
    </font>
</defs>
</svg>
