<svg width="171" height="160" viewBox="0 0 171 160" fill="none" xmlns="http://www.w3.org/2000/svg">
<g clip-path="url(#clip0_28_120)">
<path d="M92.893 10.9057C92.8272 10.5504 92.7822 10.1915 92.7584 9.83083C92.4078 4.76892 96.2067 0.379509 101.252 0.0228955C106.304 -0.330145 110.678 3.4854 111.031 8.54731C111.384 13.6092 107.583 17.9986 102.538 18.3552C102.218 18.3795 101.902 18.3838 101.593 18.3717C101.388 18.4246 101.266 18.4496 101.09 18.6054C100.571 19.4172 102.411 19.2657 101.16 22.814C101.16 22.814 101.151 23.2035 101.012 23.593C100.914 24.9551 100.392 28.9915 100.317 31.1412C100.583 31.4527 100.657 31.6043 100.628 32.3596C100.51 33.3809 100.276 35.8836 99.9008 37.4873C99.5823 38.8616 99.0231 39.1239 98.5721 39.4605C97.938 42.3077 97.7705 44.666 96.144 48.1242C95.9965 50.7456 95.8127 51.4595 95.2648 52.7395C95.2035 56.5993 95.4693 57.1739 92.8731 63.2857C92.2027 66.1443 92.8403 68.1217 93.5478 71.0919C94.2716 74.1441 96.2794 75.4198 96.5779 78.5457C97.2811 85.9074 97.1051 90.9193 95.5306 96.6915L96.9049 99.9561C98.6105 100.741 102.843 102.886 100.496 106.282C103.801 108.025 108.793 109.875 112.911 113.408C114.568 114.792 116.317 116.3 117.888 118.071C120.877 118.539 120.558 118.777 122.774 120.142C129.289 124.149 139.737 132.098 145.794 137.726C146.837 138.337 147.262 138.778 148.105 139.221C148.236 139.474 148.272 139.532 148.243 139.601C147.953 140.336 147.964 140.357 147.703 140.942C148.03 141.305 148.639 141.643 149.003 141.961C149.344 142.067 149.343 141.904 149.928 141.76C150.688 142.474 151.63 143.049 151.968 143.016C152.998 142.753 152.822 142.967 153.694 141.989C154.007 141.666 154.532 141.994 154.532 141.994C154.859 141.608 155.563 140.841 156.5 140.286C157.248 139.844 158.676 139.795 158.676 139.795C159.154 139.799 159.064 140.291 159.023 140.451C158.483 140.73 157.339 141.037 156.696 141.513C155.297 142.964 154.201 144.922 154.201 144.922C157.018 144.536 158.749 145.237 161.096 144.967C162.377 144.893 163.321 144.976 164.666 144C164.666 144 165.958 143.077 167.116 142.587C168.24 142.096 169.307 142.358 170.297 143.079C170.996 143.87 171.417 143.875 170.354 144.992C169.97 145.425 169.414 145.91 168.707 146.612C167.464 147.844 165.79 149.486 164.057 150.845C162.302 152.22 160.311 153.454 159.068 154.02C155.932 156.28 156.672 155.689 154.206 157.93C153.895 158.209 153.069 158.709 152.669 158.975C151.696 159.616 151.393 159.082 150.758 157.909C150.758 157.909 150.468 157.471 149.99 156.535C149.467 155.513 149.074 154.346 149.233 154.365C148.649 154.291 146.018 151.198 146.012 150.534C145.456 150.407 143.083 148.102 142.998 147.662L140.897 145.972C138.492 146.473 137.941 144.975 131.59 140.455C130.865 140.442 129.746 140.05 128.141 138.856C125.276 136.554 118.401 131.344 117.235 130.749C115.983 130.11 114.488 129.507 113.57 128.747C112.196 128.494 111.444 128.349 110.757 128.157C110.054 127.964 109.415 127.715 107.637 127.476C104.742 127.115 101.74 125.913 98.8813 124.478C97.5283 123.835 96.3499 123.507 95.185 123.004C92.5717 121.897 90.331 120.901 88.5947 120.498C87.9322 120.432 84.7831 119.485 83.1316 118.518C82.5588 118.222 82.2275 117.939 81.8513 117.853C80.9842 117.652 80.4278 117.996 80.0359 118.128C77.9178 119.235 75.9343 120.192 74.1019 121.181C72.3962 122.095 70.826 123.046 69.1616 124.007C67.6605 124.877 65.9264 125.697 64.1438 126.551C64.1438 126.551 59.0604 129.106 56.2839 130.1C53.8751 132.072 48.9512 135.484 45.9461 137.175C44.4577 137.884 41.5666 139.722 40.2328 140.133C39.4719 140.747 36.761 142.688 34.6386 144.288C32.9985 145.518 31.7595 146.556 31.7595 146.556C30.807 147.413 30.8718 147.819 29.0607 147.048C28.5577 147.462 28.1694 147.72 27.846 147.958C26.5379 148.91 26.4268 148.681 25.9487 148.656C25.0368 149.447 24.922 149.038 24.1248 149.949C23.6011 150.762 24.1369 150.568 23.0326 150.963C22.7996 151.053 22.6892 151.335 22.5097 151.491C21.6219 152.225 21.6184 154.297 19.4917 154.445C18.2605 155.326 18.5754 156.39 17.635 156.344C17.6927 157.258 15.9707 158.592 15.66 158.588C12.9484 159.526 12.7603 157.527 9.50509 159.019C9.08402 159.212 8.46632 159.746 7.65269 159.901C6.22135 160.172 4.49149 159.888 3.43634 159.068C1.77559 157.784 0.246648 155.306 0.246648 155.306C-0.281286 154.055 0.0257846 153.264 1.67371 152.081C2.36052 151.643 2.48734 151.315 3.64082 151.236C4.21363 151.018 4.05761 151.351 5.0807 150.983C5.67347 150.769 5.67347 150.921 6.86755 150.819C7.14114 150.634 7.52587 150.568 8.04098 150.4C8.9857 150.088 9.9062 149.74 9.9062 149.74C9.9062 149.74 10.147 149.497 11.0554 149.584C11.8242 149.268 12.6136 148.799 13.0182 148.656C12.9156 147.434 13.0467 147.491 13.611 147C14.3142 146.392 14.441 146.491 14.9647 146.868C15.1855 146.74 15.2917 146.696 15.2675 146.51C15.1813 145.874 14.6377 145.575 14.8015 144.173C14.56 143.611 14.2045 142.918 14.2821 142.499C14.3969 142.047 14.5073 141.829 14.7809 141.686C15.0716 141.53 15.1656 141.74 15.3209 141.915C15.5988 142.239 15.8239 143.2 15.8239 143.2C15.9222 144.283 16.2571 145.686 17.3244 144.894C17.9542 144.254 18.0767 142.548 19.3606 142.913L20.2768 143.712C21.0541 142.979 21.0911 142.979 21.5571 142.684C21.5571 142.684 20.829 141.946 21.4673 141.371C21.9048 140.981 22.432 140.701 23.3689 139.66C25.9409 136.809 27.2618 135.55 30.0432 133.252C35.5926 128.674 41.9064 125.463 45.9183 123.866C47.2264 122.2 48.4988 121.093 51.4021 120.814C54.8533 114.968 61.4621 109.748 62.9796 108.915C64.2143 106.67 64.7501 106.909 66.3652 106.458C67.6448 105.429 67.9355 105.429 68.5083 104.354C69.0648 102.136 67.2245 96.2077 71.9224 95.9083C72.9206 94.494 72.6712 94.8334 73.7834 93.4963C73.031 91.6339 72.7204 90.076 72.5159 88.7338C72.4789 88.5781 70.6514 87.286 71.1701 85.5994C70.3935 84.6725 68.9415 82.5092 68.4877 81.4958C68.2796 81.5001 68.1072 81.4215 67.8785 81.39C67.6413 81.3522 67.3463 81.3657 67.0157 81.3372C66.284 83.231 65.4868 83.3718 64.1858 83.7898C61.8632 88.7553 61.0453 90.8571 54.4735 94.9621C51.8645 97.8922 51.0302 101.157 51.0423 101.108C50.5928 102.076 50.7516 103.43 50.9889 104.156C50.6455 105.231 50.7352 105.337 50.7352 105.337C50.8785 105.743 51.2511 106.281 51.7085 106.395C52.4979 106.605 53.2873 106.571 53.2417 107.453C53.1355 108.556 51.6921 108.375 51.0088 108.253C48.3791 107.834 49.2099 106.115 47.5285 106.689C46.2403 107.534 45.758 110.028 43.6555 109.705C43.3777 109.52 43.4632 108.975 43.6512 108.581C43.9462 107.966 44.4691 107.457 44.1585 107.226C42.7876 107.667 41.4189 108.114 40.0526 108.568C38.7645 108.921 37.3531 108.277 38.6213 107.427C39.2105 107.198 40.0526 106.91 41.0914 106.242C41.0914 106.242 41.6264 105.512 40.6005 105.877C39.4798 106.279 37.8276 106.529 36.642 106.398C36.642 106.398 34.1841 106.074 33.8691 105.881C33.55 105.687 33.26 104.925 34.0287 104.929C35.002 104.938 37.4393 104.65 39.3287 104.145C40.2407 103.789 41.9748 102.76 42.948 102.275C42.948 102.275 44.0032 100.733 44.5839 100.429C45.5528 99.31 46.3707 98.649 47.2292 97.5041C48.0678 95.7682 48.9349 93.0211 51.7113 88.7667C52.9952 86.8057 54.5904 84.5217 56.5981 82.4792C56.5981 82.4792 57.1175 79.2103 59.7308 76.8841C60.3079 75.522 61.1828 73.9183 62.0456 72.4333C62.3811 71.863 62.6996 71.367 63.0188 70.8253C63.8289 69.5496 64.6796 67.1748 67.8365 66.8011C67.8365 66.8011 69.1859 65.8005 69.7053 65.0895C70.5153 64.3962 70.3308 63.3178 70.9891 62.5581C69.9831 61.5741 67.4111 59.7238 67.1611 57.1518C66.8953 54.4239 67.8643 52.1799 69.5086 50.5191C71.3325 48.6895 73.2547 47.7748 75.5895 47.9141C78.5049 48.3486 79.057 49.317 79.9854 50.2768C80.8767 51.1873 81.2079 50.6012 81.5841 51.6675C84.03 52.32 83.8946 52.0327 83.874 53.8379C84.2502 54.346 84.88 54.8184 84.8714 55.8725C85.6936 54.1617 85.8568 53.8465 88.0533 51.9634C88.5727 50.4333 88.9253 48.9282 89.3813 47.3982C89.8095 45.9831 90.3417 44.5267 90.7542 43.4311C90.3168 40.3381 91.2152 39.8257 92.4143 37.1143C92.2019 36.7412 92.2475 36.6347 92.3373 36.023C92.8033 34.2306 93.5314 31.8594 93.9646 30.3129C93.9646 30.3129 94.1078 29.6976 94.7419 29.6525C95.2905 27.6958 96.1126 24.0532 96.2509 23.3107C96.8151 21.2639 96.4511 20.6071 96.0179 19.4544C95.879 19.0771 95.9438 18.5396 95.7037 18.1208C95.0204 16.9274 94.2852 15.3766 93.7865 14.2688C93.463 13.5635 92.9514 10.905 92.9514 10.905C92.5126 9.54783 92.893 10.9057 92.893 10.9057Z" fill="black"/>
</g>
<defs>
<clipPath id="clip0_28_120">
<rect width="171" height="160" fill="white"/>
</clipPath>
</defs>
</svg>
