<svg width="170" height="90" viewBox="0 0 170 90" fill="none" xmlns="http://www.w3.org/2000/svg">
<path d="M0 89.5054H3.80983V82.2689C3.80983 80.9784 3.80984 79.3901 4.49986 78.4586C5.18643 77.4461 6.41948 77.1169 7.10777 77.1169C10.3175 77.1169 10.3175 80.7368 10.3175 81.9942V89.5054H14.1256V81.2828C14.1256 80.1015 14.1256 77.5553 12.666 75.8843C11.3499 74.3457 9.25566 73.7666 7.88253 73.7666C5.4735 73.7666 4.15571 75.0339 3.52621 75.6097V74.2895H0V89.5054Z" fill="black"/>
<path fill-rule="evenodd" clip-rule="evenodd" d="M31.4523 83.5294C31.5958 82.9267 31.6724 82.3112 31.6806 81.693C31.6806 77.8597 28.4985 73.6855 23.4556 73.6855C18.5546 73.6855 15.0889 77.6379 15.0889 81.9395C15.0889 86.3784 18.7569 90 23.485 90C27.2101 90 30.2469 87.4522 31.1635 84.7108H27.1513C26.4354 85.9715 25.1764 86.6548 23.485 86.6548C20.763 86.6548 19.2723 84.5172 19.0993 83.5278L31.4523 83.5294ZM18.9852 80.5962C19.7012 77.772 22.0808 77.0324 23.485 77.0324C25.377 77.0324 27.3519 78.1559 27.7826 80.5962H18.9852Z" fill="black"/>
<path d="M36.5712 89.5054H38.9162L41.9253 79.638H41.9824L44.9656 89.5054H47.3141L53.13 74.2891H49.0625L46.1364 83.584H46.081L43.4991 74.2891H40.4657L37.8578 83.584H37.8008L34.9075 74.2891H30.8383L36.5712 89.5054Z" fill="black"/>
<path fill-rule="evenodd" clip-rule="evenodd" d="M60.5059 89.5053H63.9992V87.6691C64.9418 88.6848 66.2941 90 69.3603 90C75.1745 90 77.2671 84.8749 77.2671 81.8276C77.2671 77.8043 74.1162 73.7695 69.2739 73.7695C67.4961 73.7695 65.6318 74.4031 64.314 75.6653V69.2217H60.5059V89.5053ZM64.084 81.6954C64.084 79.4753 65.8895 77.1178 68.8121 77.1178C71.2212 77.1178 73.4573 78.8962 73.4573 81.8607C73.4573 84.817 71.3647 86.6566 68.8709 86.6566C66.6366 86.6566 64.084 85.0668 64.084 81.6936V81.6954ZM95.0573 74.2906H91.5587V76.2145H91.5017C91.3858 75.9928 89.4645 73.7677 86.2305 73.7677C81.8188 73.7677 78.2632 77.141 78.2632 81.8045C78.2632 86.8734 81.9036 90 86.0022 90C88.0048 90 90.3568 88.9826 91.5587 87.6195V89.5053H95.0573V74.2906ZM91.4481 81.8607C91.4481 84.683 89.4385 86.655 86.8012 86.655C84.0809 86.655 82.0731 84.5441 82.0731 81.9683C82.0731 79.6936 83.6779 77.1178 86.8012 77.1178C89.0667 77.1178 91.4481 78.7059 91.4481 81.8607Z" fill="black"/>
<path d="M100.892 69.2212H97.0822V89.5054H100.892V69.2212Z" fill="black"/>
<path fill-rule="evenodd" clip-rule="evenodd" d="M118.827 74.289H115.334V76.2131H115.274C115.158 75.9914 113.236 73.7661 110.002 73.7661C105.586 73.7661 102.035 77.1397 102.035 81.8037C102.035 86.873 105.676 90 109.772 90C111.779 90 114.125 88.9825 115.332 87.6192V89.5053H118.827V74.289ZM115.217 81.8599C115.217 84.6825 113.212 86.6547 110.575 86.6547C107.851 86.6547 105.847 84.5435 105.847 81.9675C105.847 79.6926 107.452 77.1165 110.575 77.1165C112.84 77.1165 115.217 78.7048 115.217 81.8599Z" fill="black"/>
<path d="M120.856 89.5053H124.664V82.2686C124.664 80.9781 124.664 79.3897 125.356 78.4582C126.041 77.4457 127.277 77.1165 127.962 77.1165C131.17 77.1165 131.17 80.7365 131.17 81.9939V89.5053H134.984V81.2825C134.984 80.1012 134.984 77.5549 133.519 75.8839C132.201 74.3452 130.112 73.7661 128.735 73.7661C126.326 73.7661 125.012 75.0335 124.379 75.6092V74.289H120.856V89.5053ZM148.523 84.5435C147.52 86.0789 146.261 86.6547 145 86.6547C142.131 86.6547 140.213 84.4889 140.213 81.8848C140.213 78.7594 142.506 77.1149 144.825 77.1149C147.177 77.1149 148.066 78.5675 148.523 79.3336H152.824C151.19 74.6447 146.83 73.7661 144.825 73.7661C140.441 73.7661 136.403 77.1711 136.403 81.8268C136.403 86.873 140.782 90 144.857 90C148.582 90 151.532 87.9419 152.824 84.5435H148.523Z" fill="black"/>
<path fill-rule="evenodd" clip-rule="evenodd" d="M169.773 83.5294C169.886 83.038 170 82.4043 170 81.6929C170 77.8595 166.821 73.6854 161.778 73.6854C156.877 73.6854 153.41 77.6378 153.41 81.9394C153.41 86.3784 157.078 90 161.806 90C165.529 90 168.57 87.4522 169.485 84.7107H165.474C164.756 85.9714 163.499 86.6547 161.808 86.6547C159.082 86.6547 157.593 84.5171 157.426 83.5277L169.773 83.5294ZM157.308 80.5961C158.026 77.7719 160.404 77.0323 161.806 77.0323C163.7 77.0323 165.675 78.1557 166.104 80.5961H157.308ZM64.8569 39.0706L59.7639 47.4852L31.575 45.968L34.3956 41.281L64.8569 39.0706ZM85.236 12.2582L87.7903 21.5448L47.7897 19.03L50.6103 14.3446L85.236 12.2582ZM58.7176 0.875488L82.1334 0.892052L83.8991 7.24191L55.9005 5.56099L58.7176 0.875488ZM56.6597 52.7182L52.5956 59.4056L23.4659 59.4354L26.2865 54.7532L56.6597 52.7182ZM107.799 34.6763L100.749 46.3684H107.464C110.577 46.3684 116.15 44.8827 117.866 40.644C119.457 36.7064 116.534 34.6713 114.495 34.6713L107.799 34.6763ZM114.523 23.4921L120.38 23.459C124.278 23.4375 128.344 21.7318 129.832 18.2706C131.203 15.061 129.359 12.3244 126.916 12.3344L121.25 12.3278L114.523 23.4921ZM88.0116 21.5448L93.9261 11.7289L113.942 10.4995L114.641 9.30838L96.1241 8.06915L100.455 0.875488H134.793C145.353 0.875488 153.164 4.48562 150.128 15.1073C149.214 18.3252 144.922 26.4255 132.334 29.8188C135.006 30.1232 141.66 32.9457 140.514 40.2584C138.477 53.2245 120.927 59.3973 111.166 59.4006L70.6244 59.4188L68.627 51.9159L89.8603 50.483L90.5815 49.2952L67.5513 47.9551L65.0696 39.059L97.8414 37.2291L98.5522 36.0512L39.6789 32.4974L42.4995 27.8152L105.871 23.8776L106.589 22.6979L88.0099 21.5448" fill="black"/>
</svg>
