<svg width="169" height="58" viewBox="0 0 169 58" fill="none" xmlns="http://www.w3.org/2000/svg">
<path d="M18.7604 57.6746C14.2189 57.6903 9.79216 56.3071 6.13238 53.7287C5.56863 53.2422 4.10288 51.8368 3.5955 51.2423C2.38072 49.8019 1.42779 48.1756 0.77675 46.4315C-0.856919 39.7763 0.10559 32.7779 3.48275 26.7562C7.64471 18.8121 13.0434 11.5216 19.4933 5.13504C20.6772 3.83777 24.2852 0 24.3415 0L23.8905 0.756744C21.762 4.14229 20.0948 7.77541 18.9295 11.5673C17.2886 16.2113 17.4893 21.2722 19.4933 25.7833C20.8871 28.3704 23.0966 30.47 25.8073 31.7832C32.0841 34.0431 38.9673 34.2333 45.3694 32.3237L107.72 16.4862L169 0.810793L50.2177 49.999C43.7909 52.6476 42.0997 53.2963 38.9427 54.3233C32.4828 56.6044 25.6441 57.74 18.7604 57.6746Z" fill="black"/>
</svg>
