<svg width="170" height="128" viewBox="0 0 170 128" fill="none" xmlns="http://www.w3.org/2000/svg">
<g clip-path="url(#clip0_28_123)">
<path d="M168.958 15.8986C168.958 15.8986 164.084 12.1113 148.301 6.29204C134.453 1.17523 123.875 0 123.875 0L123.927 30.3433C123.927 43.1684 109.491 56.7869 84.8359 56.7869H84.1305C59.4785 56.7869 45.047 43.1684 45.047 30.3433L45.0952 0C45.0952 0 34.5269 1.17451 20.6726 6.29204C4.89068 12.1113 0.0176392 15.8986 0.0176392 15.8986C1.18757 40.2342 38.8447 60.2841 84.4782 60.2948H84.4888C130.125 60.2841 167.792 40.2342 168.958 15.8986Z" fill="black"/>
<path d="M168.978 84.0381C168.978 84.0381 164.105 87.8147 148.322 93.639C134.464 98.7565 123.895 99.926 123.895 99.926L123.948 69.5877C123.948 56.7655 109.511 43.1519 84.8567 43.1519L84.5096 43.1413H84.499L84.157 43.1519C59.5 43.1519 45.0686 56.7655 45.0686 69.5877L45.1224 99.926C45.1224 99.926 34.5484 98.7565 20.6948 93.639C4.91713 87.8147 0.0341797 84.0381 0.0341797 84.0381C1.20411 59.7046 38.8712 39.6547 84.5104 39.639C130.146 39.6547 167.814 59.7046 168.978 84.0381ZM8.23995 127.935C4.39307 127.935 4.32367 124.995 4.32367 123.859V118.507C4.32367 118.174 4.30243 117.745 4.98654 117.745H6.96875C7.62029 117.745 7.58346 118.196 7.58346 118.507V123.859C7.58346 124.245 7.64791 125.266 9.04729 125.266H12.3814C13.7546 125.266 13.8346 124.245 13.8346 123.859V118.507C13.8346 118.196 13.7907 117.745 14.4387 117.745H16.4471C17.1695 117.745 17.1043 118.196 17.1043 118.507V123.859C17.1043 124.997 17.0293 127.935 13.1774 127.935H8.23995ZM26.6677 127.281C25.3108 125.447 23.3711 123.14 21.3945 120.693V127.216C21.3945 127.505 21.4639 127.935 20.7855 127.935H18.9315C18.2636 127.935 18.3387 127.506 18.3387 127.216V118.494C18.3387 118.194 18.3118 117.742 18.9315 117.742H22.5482C23.5687 117.742 25.0275 119.802 25.9786 121.175C26.7215 122.205 28.0784 123.77 28.992 124.951V118.493C28.992 118.193 28.9544 117.741 29.6279 117.741H31.642C32.2829 117.741 32.2468 118.193 32.2468 118.493V127.932H28.5338C27.7364 127.935 27.3943 127.989 26.6677 127.281ZM33.4748 127.935V117.755H42.4348C42.9801 117.755 46.6613 117.681 46.6613 121.563C46.6613 125.521 47.0833 127.935 42.5099 127.935H37.68L36.6383 125.812V127.935H33.4748ZM41.9589 125.253C43.5884 125.253 43.4652 123.688 43.4652 122.968C43.4652 120.565 42.7917 120.467 41.7181 120.467H36.605V125.252L41.9589 125.253ZM50.1661 117.82H58.4264C59.1211 117.82 59.0305 118.279 59.0305 119.128C59.0305 119.921 59.1374 120.372 58.4264 120.372H51.8976C51.7262 120.372 51.1285 120.287 51.1285 120.898C51.1285 121.52 51.0159 121.768 51.6681 121.768H57.4385L58.3683 123.622C58.5014 123.88 58.4859 124.106 57.9781 124.106H52.0038L51.0796 122.292V124.964C51.0796 125.586 51.6299 125.468 51.79 125.468H58.5701C59.2436 125.468 59.1848 125.94 59.1848 126.712C59.1848 127.538 59.2436 128.001 58.5701 128.001H49.989C49.2731 128.001 47.8786 127.777 47.8786 125.532V119.922C47.8786 119.332 48.1832 117.82 50.1661 117.82ZM61.2577 117.754H70.2928C71.5052 117.754 73.2686 117.743 73.2686 121.027C73.2686 123.173 72.8146 123.28 71.8416 123.945C73.4711 124.225 73.2523 126.316 73.2523 127.398C73.2523 127.947 73.0547 127.934 72.894 127.934H70.2439C69.688 127.934 69.8218 127.056 69.8218 126.594C69.8218 125.35 69.1271 125.403 68.8545 125.403H64.9545C64.5805 124.748 63.8539 123.289 63.8539 123.289V127.516L63.3568 127.934H60.6905L60.4235 127.6V118.633C60.4242 118.002 60.8675 117.754 61.2577 117.754ZM68.4543 120.447H64.4311C63.7576 120.447 63.7902 120.671 63.7902 120.877V122.699H67.931C69.9401 122.699 69.9401 122.195 69.9401 121.669C69.9394 120.619 69.8544 120.447 68.4543 120.447ZM88.8268 117.82C89.4896 117.82 90.1355 118.12 90.8323 119.482C91.3026 120.458 94.5836 126.412 95.2776 127.656V127.999H91.8585L90.8741 126.208H86.7157L85.8163 124.158C85.5606 124.576 84.1874 127.194 83.7172 127.998H80.2874V127.774C80.9871 126.454 85.7638 117.817 85.7638 117.817L88.8268 117.82ZM87.7588 120.641L86.0811 123.698L86.2362 123.849H89.3459L89.501 123.698L87.9146 120.631L87.7588 120.641ZM97.4468 117.754H106.488C107.695 117.754 109.458 117.743 109.458 121.027C109.458 123.173 109.009 123.28 108.036 123.945C109.673 124.225 109.447 126.316 109.447 127.398C109.447 127.947 109.244 127.934 109.083 127.934H106.433C105.879 127.934 106.017 127.056 106.017 126.594C106.017 125.35 105.323 125.403 105.056 125.403H101.146C100.771 124.748 100.043 123.289 100.043 123.289V127.516L99.5537 127.934H96.8817L96.6147 127.6V118.633C96.614 118.002 97.0623 117.754 97.4468 117.754ZM104.65 120.447H100.622C99.9481 120.447 99.9814 120.671 99.9814 120.877V122.699H104.127C106.125 122.699 106.125 122.195 106.125 121.669C106.124 120.619 106.051 120.447 104.65 120.447ZM117.355 127.935C116.683 126.67 114.813 123.172 113.552 120.877V127.228C113.552 127.496 113.595 127.935 112.943 127.935H111.116C110.432 127.935 110.485 127.496 110.485 127.228V118.505C110.485 118.194 110.442 117.753 111.116 117.753H114.28C114.75 117.753 115.422 117.647 116.171 119.159C116.738 120.371 117.933 122.893 118.768 124.223C119.601 122.893 120.83 120.371 121.396 119.159C122.134 117.647 122.785 117.753 123.32 117.753H126.473C127.113 117.753 127.038 118.194 127.038 118.505V127.228C127.038 127.496 127.135 127.935 126.473 127.935H124.624C123.951 127.935 124.004 127.496 124.004 127.228V120.877C122.721 123.172 120.872 126.668 120.168 127.935H117.355ZM131.097 127.957C128.105 127.957 128.234 124.739 128.234 122.637C128.234 120.726 128.019 117.734 131.77 117.702H138.438C142.2 117.702 141.954 120.739 141.954 122.637C141.954 124.739 142.104 127.957 139.058 127.957H131.097ZM137.124 125.339C138.642 125.339 138.588 123.762 138.588 122.712C138.588 121.756 138.812 120.275 136.834 120.275H133.48C131.515 120.275 131.749 121.756 131.749 122.712C131.749 123.763 131.652 125.339 133.171 125.339H137.124ZM146.965 127.935C143.129 127.935 143.055 124.995 143.055 123.859V118.507C143.055 118.174 143.034 117.745 143.718 117.745H145.707C146.359 117.745 146.315 118.196 146.315 118.507V123.859C146.315 124.245 146.379 125.266 147.778 125.266H151.112C152.491 125.266 152.566 124.245 152.566 123.859V118.507C152.566 118.196 152.534 117.745 153.174 117.745H155.172C155.899 117.745 155.835 118.196 155.835 118.507V123.859C155.835 124.997 155.77 127.935 151.903 127.935H146.965ZM157.971 117.754H167.013C168.22 117.754 169.982 117.743 169.982 121.027C169.982 123.173 169.523 123.28 168.551 123.945C170.187 124.225 169.973 126.316 169.973 127.398C169.973 127.947 169.77 127.934 169.609 127.934H166.959C166.414 127.934 166.543 127.056 166.543 126.594C166.543 125.35 165.837 125.403 165.57 125.403H161.67C161.296 124.748 160.568 123.289 160.568 123.289V127.516L160.066 127.934H157.405L157.138 127.6V118.633C157.138 118.002 157.587 117.754 157.971 117.754ZM165.163 120.447H161.145C160.471 120.447 160.503 120.671 160.503 120.877V122.699H164.65C166.647 122.699 166.647 122.195 166.647 121.669C166.649 120.619 166.563 120.447 165.163 120.447Z" fill="black"/>
</g>
<defs>
<clipPath id="clip0_28_123">
<rect width="170" height="128" fill="white"/>
</clipPath>
</defs>
</svg>
