<svg width="109" height="65" viewBox="0 0 109 65" fill="none" xmlns="http://www.w3.org/2000/svg">
<path d="M10.1201 0H98.8352C104.45 0 108.995 4.53513 108.995 10.1379V43.9298C108.995 49.5325 104.45 54.0677 98.8352 54.0677H67.0208L71.3877 64.7387L52.1829 54.0677H10.1644C4.55012 54.0677 0.00533188 49.5325 0.00533188 43.9298V10.1379C-0.0393709 4.57974 4.50499 0 10.1201 0Z" fill="#9B5C8F"/>
<path d="M6.2116 9.24025C6.83191 8.39992 7.76215 7.95809 9.00276 7.86973C11.2626 7.69257 12.5475 8.75339 12.8574 11.0526C14.2309 20.2928 15.7371 28.1183 17.332 34.5286L27.0346 16.0929C27.921 14.4126 29.0288 13.5286 30.3579 13.4402C32.3074 13.3076 33.5033 14.5452 33.9908 17.1537C35.0986 23.0334 36.5163 28.0295 38.1997 32.2736C39.3517 21.0443 41.3012 12.9537 44.0481 7.95809C44.7122 6.72012 45.6872 6.10113 46.9721 6.01234C47.9913 5.9244 48.9215 6.23368 49.7632 6.89685C50.6049 7.56002 51.0481 8.39992 51.1367 9.41698C51.1809 10.2127 51.0481 10.8759 50.6939 11.539C48.9658 14.7223 47.5477 20.0719 46.396 27.4989C45.2887 34.7054 44.8898 40.3204 45.1554 44.3436C45.2444 45.4482 45.0669 46.4211 44.6241 47.2614C44.0919 48.2339 43.2949 48.7645 42.2757 48.8529C41.1237 48.9412 39.9277 48.411 38.7757 47.2172C34.6554 43.0169 31.3767 36.7391 28.9845 28.3834C26.1044 34.0422 23.9778 38.2863 22.6043 41.1157C19.9903 46.1118 17.7752 48.6761 15.9142 48.8087C14.7179 48.897 13.6991 47.88 12.8131 45.7584C10.5537 39.9666 8.11679 28.781 5.50317 12.2022C5.32563 11.0526 5.5913 10.0355 6.2116 9.24025V9.24025ZM101.423 16.1812C99.8278 13.396 97.4794 11.7162 94.3341 11.0526C93.4919 10.8759 92.695 10.7875 91.9414 10.7875C87.6882 10.7875 84.2325 12.9979 81.5299 17.4192C79.2258 21.1769 78.0741 25.3326 78.0741 29.8865C78.0741 33.2907 78.783 36.2085 80.2007 38.6402C81.7956 41.4254 84.1439 43.1052 87.2893 43.7684C88.131 43.9456 88.9284 44.0339 89.682 44.0339C93.9794 44.0339 97.4352 41.8235 100.093 37.4022C102.397 33.6 103.549 29.4442 103.549 24.8908C103.594 21.4424 102.84 18.5684 101.423 16.1812V16.1812ZM95.8403 28.4276C95.22 31.3453 94.1122 33.5116 92.4727 34.9705C91.1883 36.1201 89.9919 36.6061 88.8846 36.3852C87.8211 36.1643 86.9347 35.236 86.2705 33.5116C85.7383 32.1411 85.4731 30.7705 85.4731 29.4884C85.4731 28.3834 85.5617 27.278 85.783 26.2613C86.182 24.4485 86.9351 22.68 88.131 21.0002C89.5934 18.8335 91.144 17.9498 92.7388 18.2591C93.8023 18.48 94.6887 19.4087 95.3529 21.1327C95.8846 22.5032 96.1503 23.8737 96.1503 25.1559C96.1503 26.3055 96.0617 27.4105 95.8403 28.4271V28.4276ZM73.6877 16.1812C72.0929 13.396 69.7003 11.7162 66.5992 11.0526C65.7575 10.8759 64.96 10.7875 64.2065 10.7875C59.9533 10.7875 56.4976 12.9979 53.795 17.4192C51.4913 21.1769 50.3392 25.3326 50.3392 29.8865C50.3392 33.2907 51.0481 36.2085 52.4658 38.6402C54.0607 41.4254 56.409 43.1052 59.5544 43.7684C60.3965 43.9456 61.1935 44.0339 61.9471 44.0339C66.2445 44.0339 69.7003 41.8235 72.3586 37.4022C74.6627 33.6 75.8143 29.4442 75.8143 24.8908C75.8143 21.4424 75.1055 18.5684 73.6877 16.1812V16.1812ZM68.0611 28.4276C67.4408 31.3453 66.3331 33.5116 64.694 34.9705C63.4091 36.1201 62.2127 36.6061 61.105 36.3852C60.0419 36.1643 59.1559 35.236 58.4909 33.5116C57.9596 32.1411 57.6939 30.7705 57.6939 29.4884C57.6939 28.3834 57.7825 27.278 58.0039 26.2613C58.4028 24.4485 59.1559 22.68 60.3523 21.0002C61.8142 18.8335 63.3648 17.9498 64.9596 18.2591C66.0231 18.48 66.9095 19.4087 67.5737 21.1327C68.1058 22.5032 68.3711 23.8737 68.3711 25.1559C68.4158 26.3055 68.2825 27.4105 68.0611 28.4271V28.4276Z" fill="white"/>
</svg>
