<svg width="65" height="65" viewBox="0 0 65 65" fill="none" xmlns="http://www.w3.org/2000/svg">
<g clip-path="url(#clip0_109_56)">
<path d="M4.61994 32.4992C4.61994 43.5355 11.0333 53.072 20.3332 57.592L7.03378 21.1526C5.43948 24.7228 4.61693 28.5893 4.61994 32.4992V32.4992ZM51.322 31.0923C51.322 27.6467 50.0843 25.2604 49.0228 23.4031C47.6095 21.1065 46.2853 19.1616 46.2853 16.865C46.2853 14.3021 48.2286 11.9164 50.9666 11.9164C51.0902 11.9164 51.2074 11.9318 51.3284 11.9387C46.3676 7.39433 39.759 4.61975 32.5005 4.61975C22.7603 4.61975 14.1909 9.61718 9.20569 17.1865C9.85981 17.2062 10.4768 17.2194 10.9999 17.2194C13.9161 17.2194 18.4302 16.8656 18.4302 16.8656C19.9332 16.777 20.1104 18.9844 18.6096 19.1622C18.6096 19.1622 17.0987 19.3399 15.418 19.4279L25.5709 49.6274L31.6729 31.3284L27.3285 19.4274C25.8272 19.3394 24.4049 19.1616 24.4049 19.1616C22.9025 19.0736 23.0786 16.7764 24.581 16.865C24.581 16.865 29.1853 17.2189 31.9249 17.2189C34.8406 17.2189 39.3553 16.865 39.3553 16.865C40.8593 16.7764 41.0359 18.9839 39.534 19.1616C39.534 19.1616 38.0205 19.3394 36.343 19.4274L46.4185 49.3982L49.1989 40.1052C50.4048 36.2489 51.322 33.4791 51.322 31.0923V31.0923Z" fill="#00749A"/>
<path d="M32.9896 34.9379L24.6245 59.2449C27.1819 59.9986 29.8343 60.3813 32.5005 60.3813C35.7472 60.3813 38.8608 59.8195 41.759 58.8009C41.6813 58.6792 41.6148 58.5506 41.5606 58.4168L32.9896 34.9379ZM56.9646 19.1228C57.0845 20.0109 57.1524 20.9647 57.1524 21.9897C57.1524 24.8189 56.624 27.9993 55.0324 31.9761L46.5161 56.5987C54.8048 51.7652 60.38 42.7853 60.38 32.4991C60.3874 27.8237 59.2125 23.2223 56.9646 19.1228V19.1228Z" fill="#00749A"/>
<path d="M32.5006 0C14.5804 0 0.000305176 14.579 0.000305176 32.4992C0.000305176 50.4215 14.5799 65.0005 32.5006 65.0005C50.4202 65.0005 65.0024 50.422 65.0024 32.4992C65.0019 14.579 50.4202 0 32.5006 0ZM32.5006 63.5103C15.4021 63.5103 1.49052 49.5987 1.49052 32.4992C1.49052 15.4013 15.4016 1.49074 32.5006 1.49074C49.5985 1.49074 63.509 15.4013 63.509 32.4992C63.509 49.5987 49.5979 63.5103 32.5006 63.5103Z" fill="#00749A"/>
</g>
<defs>
<clipPath id="clip0_109_56">
<rect width="65" height="65" fill="white"/>
</clipPath>
</defs>
</svg>
