<svg width="35" height="35" viewBox="0 0 35 35" fill="none" xmlns="http://www.w3.org/2000/svg">
<path d="M-1.038e-06 10.7939L-4.71817e-07 23.7466C-2.1128e-07 29.707 4.83352 34.5405 10.7939 34.5405L23.7466 34.5405C29.707 34.5405 34.5405 29.707 34.5405 23.7466L34.5405 10.7939C34.5405 4.8335 29.707 -1.27426e-05 23.7466 -1.24821e-05L10.7939 -1.19159e-05C4.83352 -1.16554e-05 -1.29854e-06 4.83351 -1.038e-06 10.7939ZM23.7466 3.23816C27.9131 3.23816 31.3024 6.62745 31.3024 10.7939L31.3024 23.7466C31.3024 27.9131 27.9131 31.3024 23.7466 31.3024L10.7939 31.3024C6.62747 31.3024 3.23818 27.9131 3.23818 23.7466L3.23817 10.7939C3.23817 6.62745 6.62746 3.23816 10.7939 3.23816L23.7466 3.23816Z" fill="white"/>
<path d="M8.63513 17.2706C8.63513 22.0394 12.5015 25.9058 17.2703 25.9058C22.039 25.9058 25.9054 22.0394 25.9054 17.2706C25.9054 12.5019 22.039 8.63549 17.2703 8.63549C12.5015 8.63549 8.63513 12.5019 8.63513 17.2706ZM22.6672 17.2706C22.6672 20.2454 20.2451 22.6676 17.2703 22.6676C14.2933 22.6676 11.8733 20.2454 11.8733 17.2706C11.8733 14.2958 14.2933 11.8737 17.2703 11.8737C20.2451 11.8737 22.6672 14.2958 22.6672 17.2706Z" fill="white"/>
<path d="M9.13811 7.98706C9.13811 7.35159 8.62295 6.83643 7.98748 6.83643C7.35201 6.83643 6.83685 7.35159 6.83685 7.98706C6.83685 8.62254 7.35201 9.1377 7.98748 9.1377C8.62295 9.1377 9.13811 8.62254 9.13811 7.98706Z" fill="white"/>
</svg>
