<svg width="99" height="99" viewBox="0 0 99 99" fill="none" xmlns="http://www.w3.org/2000/svg">
<path d="M49.5 99C76.8446 99 99 76.8446 99 49.5C99 22.1554 76.8446 0 49.5 0C22.1554 0 0 22.1554 0 49.5C0 76.8446 22.1554 99 49.5 99ZM22.6504 48.4275L70.3766 30.0259C72.5918 29.2256 74.5264 30.5662 73.8086 33.9157L73.8127 33.9116L65.6865 72.1958C65.0843 74.91 63.4714 75.57 61.215 74.2913L48.84 65.1709L42.8711 70.9211C42.2111 71.5811 41.6542 72.138 40.3755 72.138L41.2541 59.5444L64.1891 38.8245C65.1874 37.9459 63.9664 37.4509 62.6505 38.3254L34.3076 56.1701L22.0894 52.3586C19.437 51.5171 19.3793 49.7062 22.6504 48.4275Z" fill="#231F20"/>
</svg>
