<svg width="99" height="99" viewBox="0 0 99 99" fill="none" xmlns="http://www.w3.org/2000/svg">
<path d="M-2.97511e-06 30.9375L-1.35232e-06 68.0625C-6.05569e-07 85.1462 13.8538 99 30.9375 99L68.0625 99C85.1462 99 99 85.1462 99 68.0625L99 30.9375C99 13.8538 85.1462 3.90754e-06 68.0625 4.65429e-06L30.9375 6.27707e-06C13.8538 7.02383e-06 -3.72186e-06 13.8538 -2.97511e-06 30.9375ZM68.0625 9.28125C80.0044 9.28125 89.7187 18.9956 89.7187 30.9375L89.7187 68.0625C89.7187 80.0044 80.0044 89.7187 68.0625 89.7187L30.9375 89.7187C18.9956 89.7187 9.28125 80.0044 9.28125 68.0625L9.28125 30.9375C9.28125 18.9956 18.9956 9.28126 30.9375 9.28126L68.0625 9.28125Z" fill="#231F20"/>
<path d="M24.75 49.5C24.75 63.1682 35.8318 74.25 49.5 74.25C63.1682 74.25 74.25 63.1682 74.25 49.5C74.25 35.8318 63.1682 24.75 49.5 24.75C35.8318 24.75 24.75 35.8318 24.75 49.5ZM64.9687 49.5C64.9687 58.0264 58.0264 64.9687 49.5 64.9687C40.9674 64.9688 34.0312 58.0264 34.0312 49.5C34.0312 40.9736 40.9674 34.0313 49.5 34.0313C58.0264 34.0313 64.9687 40.9736 64.9687 49.5Z" fill="#231F20"/>
<path d="M26.1915 22.8925C26.1915 21.0711 24.715 19.5946 22.8936 19.5946C21.0722 19.5946 19.5957 21.0711 19.5957 22.8925C19.5957 24.7139 21.0722 26.1904 22.8936 26.1904C24.715 26.1904 26.1915 24.7139 26.1915 22.8925Z" fill="#231F20"/>
</svg>
