<svg width="27" height="27" viewBox="0 0 27 27" fill="none" xmlns="http://www.w3.org/2000/svg">
<g clip-path="url(#clip0)">
<path d="M25.931 5.95651L13.672 0.0383369C13.5633 -0.0140811 13.4367 -0.0140811 13.3281 0.0383369L1.06897 5.95651C0.932282 6.02248 0.845428 6.1609 0.845428 6.31267V20.6854C0.845428 20.8371 0.932282 20.9756 1.06897 21.0415L13.328 26.9597C13.3823 26.9859 13.4412 26.9991 13.5 26.9991C13.5588 26.9991 13.6176 26.9859 13.672 26.9597L25.931 21.0415C26.0677 20.9756 26.1546 20.8371 26.1546 20.6854V6.31273C26.1546 6.16085 26.0676 6.02253 25.931 5.95651ZM13.5 0.83373L24.8493 6.31267L21.5594 7.90093C21.5386 7.88505 21.5166 7.87039 21.4924 7.85874L10.2202 2.41708L13.5 0.83373ZM9.32696 2.86427L20.6598 8.33525L18.3387 9.4558L7.01055 3.98703L9.32696 2.86427ZM20.9249 9.08555V13.2276L18.7569 14.2743V10.1322L20.9249 9.08555ZM25.3635 20.4372L13.8955 25.9734V12.4791L16.631 11.1585C16.8277 11.0635 16.9102 10.8271 16.8152 10.6304C16.7202 10.4337 16.4838 10.3511 16.2871 10.4462L13.5 11.7917L12.4033 11.2622C12.2066 11.1671 11.9702 11.2497 11.8752 11.4464C11.7802 11.6431 11.8627 11.8796 12.0594 11.9746L13.1045 12.4791V25.9734L1.63644 20.4371V6.9428L10.3693 11.1586C10.4247 11.1854 10.4833 11.1981 10.5409 11.1981C10.6879 11.1981 10.8292 11.1157 10.8973 10.9744C10.9923 10.7777 10.9098 10.5413 10.7131 10.4463L2.15066 6.31267L6.07963 4.41592L17.9604 10.1515C17.9621 10.1539 17.9641 10.1561 17.9659 10.1584V14.9045C17.9659 15.0406 18.0358 15.1671 18.1511 15.2395C18.2151 15.2797 18.2882 15.3 18.3614 15.3C18.4201 15.3 18.4789 15.287 18.5333 15.2606L21.4924 13.8321C21.6291 13.7661 21.716 13.6278 21.716 13.476V8.70376L25.3635 6.94285V20.4372Z" fill="white"/>
<path d="M4.90038 18.9031L3.10135 18.0346C2.90454 17.9395 2.66819 18.0221 2.57321 18.2188C2.47824 18.4155 2.56072 18.652 2.75742 18.7469L4.55645 19.6154C4.61187 19.6422 4.67046 19.6549 4.7281 19.6549C4.87512 19.6549 5.01634 19.5725 5.08453 19.4312C5.17956 19.2345 5.09708 18.9981 4.90038 18.9031Z" fill="white"/>
<path d="M6.55608 17.8262L3.10382 16.1595C2.90707 16.0646 2.67066 16.1471 2.57568 16.3438C2.48076 16.5405 2.56324 16.777 2.75994 16.8719L6.2122 18.5386C6.26762 18.5653 6.32621 18.578 6.38385 18.578C6.53087 18.578 6.67209 18.4956 6.74028 18.3544C6.83525 18.1576 6.75278 17.9211 6.55608 17.8262Z" fill="white"/>
</g>
<defs>
<clipPath id="clip0">
<rect width="27" height="27" fill="white"/>
</clipPath>
</defs>
</svg>
