<svg width="21" height="21" viewBox="0 0 21 21" fill="none" xmlns="http://www.w3.org/2000/svg">
<path d="M10.5 0C4.69617 0 0 4.69658 0 10.5C0 16.3038 4.69658 21 10.5 21C16.3038 21 21 16.3034 21 10.5C21 4.69617 16.3034 0 10.5 0ZM10.5 19.3594C5.60302 19.3594 1.64062 15.3967 1.64062 10.5C1.64062 5.60302 5.60335 1.64062 10.5 1.64062C15.397 1.64062 19.3594 5.60335 19.3594 10.5C19.3594 15.397 15.3967 19.3594 10.5 19.3594Z" fill="black"/>
<path d="M10.5 5.28613C10.0469 5.28613 9.67969 5.65339 9.67969 6.10644V11.389C9.67969 11.842 10.0469 12.2093 10.5 12.2093C10.9531 12.2093 11.3203 11.842 11.3203 11.389V6.10644C11.3203 5.65339 10.9531 5.28613 10.5 5.28613Z" fill="black"/>
<path d="M10.5 15.4287C11.1116 15.4287 11.6074 14.9329 11.6074 14.3213C11.6074 13.7097 11.1116 13.2139 10.5 13.2139C9.88839 13.2139 9.39258 13.7097 9.39258 14.3213C9.39258 14.9329 9.88839 15.4287 10.5 15.4287Z" fill="black"/>
</svg>
