<svg width="15" height="15" viewBox="0 0 15 15" fill="none" xmlns="http://www.w3.org/2000/svg">
<path d="M12.3165 0H2.68348C1.20381 0 0 1.20381 0 2.68348V12.3166C0 13.7962 1.20381 15 2.68348 15H12.3166C13.7962 15 15 13.7962 15 12.3165V2.68348C15 1.20381 13.7962 0 12.3165 0ZM14.1211 12.3165C14.1211 13.3116 13.3116 14.1211 12.3165 14.1211H2.68348C1.68844 14.1211 0.878906 13.3116 0.878906 12.3165V2.68348C0.878906 1.68844 1.68844 0.878906 2.68348 0.878906H12.3166C13.3116 0.878906 14.1211 1.68844 14.1211 2.68348V12.3165Z" fill="black"/>
<path d="M12.6777 3.29491H5.98452C5.80051 2.74838 5.28357 2.35352 4.67577 2.35352C4.06798 2.35352 3.55104 2.74838 3.36702 3.29491H2.32227C2.07957 3.29491 1.88281 3.49167 1.88281 3.73437C1.88281 3.97706 2.07957 4.17382 2.32227 4.17382H3.36705C3.55106 4.72035 4.06801 5.11521 4.6758 5.11521C5.28359 5.11521 5.80054 4.72035 5.98455 4.17382H12.6777C12.9204 4.17382 13.1172 3.97706 13.1172 3.73437C13.1172 3.49167 12.9204 3.29491 12.6777 3.29491ZM4.67577 4.23631C4.399 4.23631 4.17383 4.01113 4.17383 3.73437C4.17383 3.4576 4.399 3.23242 4.67577 3.23242C4.95254 3.23242 5.17772 3.4576 5.17772 3.73437C5.17772 4.01113 4.95254 4.23631 4.67577 4.23631Z" fill="black"/>
<path d="M12.6777 7.06054H11.6329C11.4489 6.514 10.9319 6.11914 10.3242 6.11914C9.71642 6.11914 9.19947 6.514 9.01546 7.06054H2.32227C2.07957 7.06054 1.88281 7.2573 1.88281 7.49999C1.88281 7.74269 2.07957 7.93944 2.32227 7.93944H9.01546C9.19947 8.48598 9.71645 8.88084 10.3242 8.88084C10.932 8.88084 11.4489 8.48598 11.633 7.93944H12.6777C12.9204 7.93944 13.1172 7.74269 13.1172 7.49999C13.1172 7.2573 12.9204 7.06054 12.6777 7.06054ZM10.3242 8.00193C10.0474 8.00193 9.82227 7.77676 9.82227 7.49999C9.82227 7.22322 10.0474 6.99805 10.3242 6.99805C10.601 6.99805 10.8262 7.22322 10.8262 7.49999C10.8262 7.77676 10.601 8.00193 10.3242 8.00193Z" fill="black"/>
<path d="M12.6777 10.8262H7.86734C7.68333 10.2796 7.16639 9.88477 6.55859 9.88477C5.9508 9.88477 5.43386 10.2796 5.24984 10.8262H2.32227C2.07957 10.8262 1.88281 11.0229 1.88281 11.2656C1.88281 11.5083 2.07957 11.7051 2.32227 11.7051H5.24984C5.43386 12.2516 5.9508 12.6465 6.55859 12.6465C7.16639 12.6465 7.68333 12.2516 7.86734 11.7051H12.6777C12.9204 11.7051 13.1172 11.5083 13.1172 11.2656C13.1172 11.0229 12.9204 10.8262 12.6777 10.8262ZM6.55859 11.7676C6.28183 11.7676 6.05665 11.5424 6.05665 11.2656C6.05665 10.9889 6.28183 10.7637 6.55859 10.7637C6.83536 10.7637 7.06054 10.9888 7.06054 11.2656C7.06054 11.5424 6.83536 11.7676 6.55859 11.7676Z" fill="black"/>
</svg>
