<svg width="119" height="119" viewBox="0 0 119 119" fill="none" xmlns="http://www.w3.org/2000/svg">
<path d="M33.5961 76.4033C29.5852 75.6712 25.7528 74.2846 22.2056 72.2823C21.5453 71.9099 20.7202 72.0066 20.164 72.5214C17.0405 75.4153 12.9747 77.0093 8.71582 77.0093C7.93163 77.0093 7.15488 76.956 6.38835 76.8503C9.76218 74.497 12.3851 71.1487 13.8382 67.2366C14.0687 66.6156 13.9274 65.9174 13.4735 65.4351C7.03309 58.5915 3.48633 49.6462 3.48633 40.2478C3.48633 19.9774 19.9776 3.48633 40.2478 3.48633C58.0125 3.48633 73.2199 16.1494 76.4078 33.5963C76.5807 34.5432 77.489 35.1701 78.4359 34.9979C79.383 34.8249 80.0103 33.9169 79.8374 32.9697C76.3466 13.8658 59.6969 0 40.2478 0C18.0552 0 0 18.0552 0 40.2478C0 50.1618 3.60486 59.615 10.1743 66.9935C8.40693 70.9705 5.14396 74.1419 1.0889 75.7832C0.43091 76.0498 0 76.689 0 77.3993C0 78.1096 0.43091 78.7487 1.08913 79.0151C3.51538 79.9975 6.08155 80.4954 8.71582 80.4954C13.4326 80.4954 17.9532 78.8754 21.579 75.9099C25.1569 77.787 28.983 79.1053 32.9702 79.833C33.9164 80.005 34.8249 79.3781 34.9981 78.4312C35.1712 77.4843 34.5432 76.5763 33.5961 76.4033V76.4033Z" fill="#CDCDCD"/>
<path d="M100.785 69.9541L86.6875 67.8305L80.3117 55.0789C80.0165 54.4885 79.4129 54.1152 78.7526 54.1152C78.0923 54.1152 77.4887 54.4883 77.1935 55.0789L70.8177 67.8305L56.72 69.9541C56.0671 70.0524 55.5258 70.511 55.3217 71.1392C55.1176 71.767 55.2859 72.4563 55.7563 72.9198L65.9136 82.9239L63.5766 96.9878C63.4683 97.6393 63.7375 98.2956 64.2716 98.6838C64.8052 99.0717 65.5129 99.1249 66.0993 98.8207L78.7526 92.2519L91.4059 98.8207C91.6588 98.952 91.9342 99.0168 92.2089 99.0168C92.5706 99.0168 92.9301 98.9046 93.2337 98.6838C93.7678 98.2956 94.0369 97.6393 93.9286 96.9878L91.5916 82.9239L101.749 72.9198C102.219 72.4563 102.388 71.767 102.184 71.1392C101.979 70.5112 101.438 70.0524 100.785 69.9541V69.9541ZM88.5006 81.075C88.0964 81.4731 87.9112 82.043 88.0042 82.6027L89.9179 94.1202L79.5559 88.7407C79.0525 88.4793 78.453 88.4793 77.9496 88.7407L67.5873 94.1202L69.5011 82.6027C69.594 82.043 69.409 81.4731 69.0046 81.075L60.6865 72.8824L72.2316 71.1434C72.7926 71.059 73.2775 70.7067 73.531 70.1993L78.7524 59.7563L83.9738 70.1993C84.2273 70.7067 84.7122 71.0588 85.2732 71.1434L96.8183 72.8824L88.5006 81.075Z" fill="#CDCDCD"/>
<path d="M117.911 114.288C113.856 112.646 110.594 109.475 108.826 105.498C115.396 98.1195 119 88.6659 119 78.752C119 56.5594 100.945 38.5044 78.7527 38.5044C56.5599 38.5044 38.5049 56.5594 38.5049 78.752C38.5049 100.945 56.5601 119 78.7527 119C85.2617 119 91.6893 117.417 97.421 114.414C101.047 117.38 105.568 119 110.285 119C112.919 119 115.485 118.502 117.911 117.519C118.57 117.253 119 116.614 119 115.904C119 115.193 118.57 114.554 117.911 114.288ZM110.285 115.513C106.026 115.513 101.96 113.92 98.8365 111.026C98.5062 110.72 98.0806 110.561 97.6514 110.561C97.358 110.561 97.0629 110.635 96.7949 110.786C91.3162 113.879 85.0776 115.513 78.7527 115.513C58.4825 115.513 41.9912 99.0224 41.9912 78.752C41.9912 58.4818 58.4825 41.9907 78.7527 41.9907C99.0229 41.9907 115.514 58.4818 115.514 78.752C115.514 88.1506 111.967 97.0959 105.527 103.939C105.073 104.422 104.932 105.12 105.162 105.741C106.615 109.653 109.238 113.001 112.612 115.354C111.846 115.46 111.069 115.513 110.285 115.513V115.513Z" fill="#CDCDCD"/>
</svg>
