<svg width="229" height="113" viewBox="0 0 229 113" fill="none" xmlns="http://www.w3.org/2000/svg">
<path d="M134.414 45.6956L138.596 46.8991L138.951 47.9154L139.527 47.7371L139.615 47.2022L140.581 47.4696L140.847 47.0685L143.399 47.5588H144.24L218.429 69.2745L229 68.1245L144.426 46.5425L143.744 45.9185L142.654 45.8561L142.14 46.3018V45.7046L141.307 45.8026L139.819 44.8666L141.538 44.9825L141.839 44.6348L140.147 43.4135L139.261 43.6542L139.792 44.1356H139.101L136.248 42.8787H135.415L135.982 39.9369H137.932L138.02 39.6695L146.455 40.1152L147.217 40.3202H148.245L148.538 39.2861L147.51 39.0811L146.81 39.2237L146.686 39.4644L137.905 39.0811L137.675 38.7869L136.585 38.7245L136.434 38.0738L126.067 38.2253L126.245 38.6978L125.864 38.6086L123.87 37.2804L123.693 36.6564L121.637 36.8881L121.93 37.1912L123.223 37.423L125.252 38.4838L125.19 38.9028L124.047 38.5641L36.2129 0L29.2397 2.21971L35.3269 3.19139L97.191 32.4487H99.1226L118.509 42.112L122.054 42.1923L124.34 42.2368C124.71 42.4566 125.095 42.6502 125.491 42.8163C125.624 42.8163 126.191 42.9054 126.191 42.9054V43.7523H126.945L126.723 56.8655L125.004 56.7763L124.933 57.0527L106.211 53.5493L102.95 45.3123L102.596 45.7491L105.6 53.4869L102.871 53.0055L102.693 51.3653L102.073 51.4098L101.55 52.5598L92.9114 52.9609C92.9114 52.9609 90.0937 53.0055 89.5178 55.35C88.9418 57.6945 90.4924 58.0244 90.4924 58.0244L90.4038 58.6395L89.5178 58.4612L90.7582 65.9137L32.5092 49.3773C30.959 48.5115 29.719 47.1766 28.965 45.5619C27.6625 42.7895 15.0629 22.206 15.0629 22.206L15.816 21.3145L16.8261 21.9296L16.7375 22.6874L18.5096 22.8211L18.9083 22.5091L32.2523 34.4812L34.0244 30.1844L19.9539 20.8331L20.8399 20.6994L20.8842 20.0754H20.3792L19.4931 20.2091L18.74 18.8809L17.721 19.1929L16.2236 18.3906L14.8148 17.9092L13.9287 18.2212L0.832888 7.80017L0 13.033L12.3073 19.2107L10.6592 20.1022L10.1364 22.411L12.7148 23.4094L8.84279 27.8667L17.597 52.2389C18.7551 53.5184 20.2058 54.4944 21.8234 55.0826C24.7563 56.2593 32.0396 59.8697 32.0396 59.8697L27.2815 60.1638C27.2815 60.1638 33.2801 63.587 35.0965 63.8277L40.7584 63.587L88.3393 84.0903C88.3393 84.0903 96.9783 93.397 109.135 97.3016C109.135 97.3016 102.791 100.448 101.028 104.13C101.028 104.13 97.7669 103.774 96.048 102.347C95.7799 102.456 95.5475 102.638 95.3768 102.873C95.2062 103.107 95.1041 103.385 95.0822 103.675C95.0822 103.675 97.3859 105.922 104.439 106.983C111.492 108.044 132.518 112.955 132.518 112.955C132.518 112.955 140.971 112.242 142.149 109.639C142.149 109.639 141.148 108.4 138.446 108.463L138.383 110.468C138.383 110.468 132.925 111.476 131.517 110.825C131.517 110.825 133.98 106.804 134.742 106.51L163.033 113C163.033 113 169.236 112.938 172.665 109.924C172.665 109.924 172.408 108.712 170.698 108.953C170.017 108.524 169.202 108.365 168.412 108.507L168.678 110.397C168.678 110.397 164.15 111.814 161.27 110.691C161.27 110.691 157.398 104.451 156.512 104.077L157.806 104.549L158.807 103.774L158.984 105.253L163.414 110.807L163.822 110.281L160.508 105.022L159.799 104.665L161.093 103.684V105.111C161.093 105.111 161.979 104.638 161.979 104.513C161.979 104.389 162.156 103.622 162.156 103.622H166.179L165.594 106.599H166.383C166.383 106.599 166.968 105.244 167.03 105.155C167.092 105.066 167.473 104.71 167.473 104.71V103.702C167.473 103.702 172.275 104.05 173.072 103.381C173.072 103.381 177.875 102.49 179.275 98.9953C180.675 95.5009 177.99 94.4757 177.99 94.4757C177.99 94.4757 174.818 90.794 172.089 89.1983C172.089 89.1983 169.537 76.718 167.508 74.9352C165.418 73.995 163.269 73.1939 161.075 72.5372L165.435 67.4916L165 67.2687L158.922 71.7259L152.224 70.5314L144.719 55.0915L141.068 54.4764L142.521 63.7831L141.511 65.566L139.261 62.1518C138.685 61.2603 135.646 59.8875 135.646 59.8875L135.247 59.0495L131.906 58.3364L131.286 57.6767L131.862 55.0024L134.414 45.6956ZM120.893 41.6217L120.122 41.4434L120.6 40.9977L121.283 40.8194L123.551 41.2919L123.888 41.7554L120.893 41.6217ZM94.3113 55.6531C94.0544 57.1329 92.1139 57.3558 91.7772 57.3558C91.0616 57.2249 90.3891 56.9187 89.819 56.4643C90.0527 55.7043 90.4286 54.9963 90.9266 54.3783C91.2367 54.0218 93.7531 53.9772 93.7531 53.9772C93.7531 53.9772 94.586 54.1644 94.3202 55.6531H94.3113ZM100.221 55.6531C99.923 56.1172 99.4718 56.4609 98.9469 56.6238C98.422 56.7868 97.8569 56.7588 97.3505 56.5446C95.3746 55.8671 97.0049 53.6741 97.0049 53.6741C97.8654 53.3711 98.8026 53.3711 99.6631 53.6741C100.709 54.209 100.23 55.6531 100.23 55.6531H100.221ZM168.447 81.0861C168.864 81.4071 170.272 86.934 170.272 86.934L168.217 85.1511L168.447 81.0861ZM163.645 78.9378L163.999 77.7432C164.566 77.6179 165.154 77.6191 165.72 77.747C166.287 77.8748 166.818 78.1261 167.278 78.4831V84.8035L164.619 83.7694L163.663 81.7012L163.645 78.9378ZM133.617 39.9993H135.389L134.68 42.3973L133.794 41.9516L133.971 41.5058L134.432 41.2027L134.255 40.6233L133.634 40.4896L133.617 39.9993ZM131.667 45.1251H132.287L133.811 45.6867L133.519 46.9526L132.961 46.81L132.403 46.1859H131.667V45.1251ZM127.698 46.3553V43.5294L130.356 44.5635L129.975 46.1592L127.698 46.3553ZM129.762 47.5944L129.293 52.0517L128.407 54.0039L128.052 54.2714H127.441L127.698 46.9972H128.345L128.761 47.3537L129.762 47.5944ZM126.502 39.6249L127.193 39.402L127.981 39.7764L128.203 39.5892H128.664L128.885 39.9993L128.158 40.6411L126.502 39.6249ZM128.991 101.322C129.567 101.545 130.072 103.105 130.072 103.105H128.3L126.599 102.374H125.527L126.121 101.108C127.082 101.075 128.044 101.141 128.991 101.304V101.322ZM125.562 101.037L124.942 102.41L116.241 100.386L117.411 99.655C117.517 99.9938 125.562 101.019 125.562 101.019V101.037ZM111.749 98.0593L116.374 99.3698L115.426 100.145L111.527 99.6283L111.394 99.236L111.749 98.0593ZM133.705 106.635C132.872 107.036 130.932 110.005 130.932 110.005C130.513 110.355 129.978 110.53 129.434 110.495C125.429 109.336 103.181 104.727 103.181 104.727C101.86 104.264 102.959 103.461 102.959 103.461C104.846 100.546 111.022 98.0593 111.022 98.0593L110.756 99.655L111.261 100.493L125.607 103.408L125.731 103.747C126.395 105.342 133.705 106.314 133.705 106.314V106.635ZM134.919 104.906L134.13 104.576L134.015 104.023C133.877 104.134 133.717 104.214 133.546 104.259C133.375 104.303 133.197 104.311 133.023 104.282C132.538 104.162 132.076 103.96 131.658 103.684C132.176 103.654 132.691 103.588 133.2 103.488C133.909 103.337 134.086 102.16 134.086 102.16L139.146 102.427L139.305 102.909C137.931 103.402 136.626 104.074 135.424 104.906H134.919ZM144.852 76.1386C144.852 75.5859 145.117 75.6037 145.117 75.6037L145.782 75.1224C145.782 75.1224 151.727 76.1832 152.454 76.2991C153.181 76.415 153.579 77.449 153.579 77.449C153.579 77.449 153.579 83.6892 153.579 84.6519C153.579 85.6147 152.188 85.8911 152.188 85.8911C152.188 85.8911 147.12 85.0531 146.243 84.8302C145.692 84.6742 145.205 84.3464 144.852 83.8942V76.1386ZM143.709 103.016C144.583 102.949 145.462 103 146.323 103.167C146.764 103.325 147.13 103.643 147.35 104.059L146.615 105.449L144.063 105.886L144.178 106.448H146.969L147.793 105.146C147.909 105.859 148.679 105.093 148.679 105.093C148.626 104.716 148.69 104.332 148.863 103.993C149.036 103.655 149.309 103.378 149.645 103.203L152.41 103.372C155.697 103.791 158.904 108.489 159.374 109.256C159.844 110.023 159.374 110.352 159.374 110.352C156.964 109.612 139.881 105.949 139.881 105.949L139.73 105.325L139.199 105.949L136.797 105.325C137.79 104.353 141.166 103.025 141.166 103.025L141.813 103.568H142.699L143.709 103.016ZM132.908 74.2398C132.908 73.5534 134.21 73.3484 134.21 73.3484C134.21 73.3484 140.227 74.1685 141.299 74.4805C141.631 74.5748 141.931 74.7568 142.17 75.0077C142.408 75.2585 142.575 75.569 142.654 75.9068L142.415 83.1721C142.316 83.4293 142.149 83.6542 141.932 83.8224C141.715 83.9906 141.456 84.0956 141.183 84.126C141.183 84.126 135.787 83.3326 134.396 83.1543C134.004 83.1028 133.638 82.9262 133.352 82.6502C133.067 82.3743 132.877 82.0136 132.81 81.621C132.81 81.621 132.908 74.9262 132.908 74.2398ZM131.747 101.768L133.466 101.919C133.374 102.346 133.209 102.753 132.979 103.123L131.446 103.23L131.153 102.392C131.369 102.208 131.563 101.998 131.729 101.768H131.747ZM130.95 53.897V52.2745L130.595 51.6505L131.304 47.4251L132.19 47.6925L132.633 47.4251L133.368 47.5766L131.694 54.2268L130.95 53.897Z" fill="#231F20"/>
</svg>
