<svg width="171" height="381" viewBox="0 0 171 381" fill="none" xmlns="http://www.w3.org/2000/svg">
<g clip-path="url(#clip0_85_328)">
<path d="M170.906 156.587C170.906 156.352 170.127 155.633 170.127 155.633V154.068L168.335 153.333L166.277 146.198L166.09 145.009L167.275 142.38L166.511 139.423V136.012C165.632 135.537 164.778 135.015 163.955 134.448C163.799 134.229 163.331 130.974 163.082 130.161C162.833 129.347 160.838 124.888 160.838 124.888L159.84 123.323L162.209 120.945C162.209 120.945 162.708 118.035 162.1 117.534L158.453 114.53L156.66 116.22C156.66 116.22 153.761 110.806 153.543 110.744C153.325 110.681 151.766 110.65 151.766 110.65C151.766 110.65 149.568 108.569 149.553 108.115C149.537 107.661 149.101 105.533 148.337 104.986C147.378 103.905 146.551 102.713 145.874 101.434C145.874 101.434 140.98 96.7403 140.98 96.4587C140.98 96.177 135.884 87.775 135.603 86.6642C135.116 85.5609 134.516 84.5121 133.811 83.5349L134.59 82.3145L129.914 75.8527L128.87 75.2894C128.87 75.2894 126.36 70.9867 126.142 70.7676C125.29 70.1428 124.492 69.4466 123.757 68.6867C123.535 67.4857 123.374 66.2742 123.274 65.0568C123.274 65.0568 122.276 63.7582 121.232 63.7895C120.188 63.8207 115.964 63.4296 115.231 63.4609C114.499 63.4922 111.023 63.8051 111.023 63.8051L111.132 62.6942C110.447 62.3852 109.794 62.0078 109.184 61.5677C109.184 61.333 108.404 60.1752 108.404 60.1752C108.404 60.1752 108.654 56.2324 108.607 56.0446C108.56 55.8568 106.487 53.5099 106.409 53.3691C106.331 53.2283 104.851 52.1487 104.134 52.3521C103.417 52.5555 101.11 52.9779 100.627 53.9167C100.219 54.6918 99.7605 55.4392 99.2551 56.1541C99.2551 56.1541 96.621 55.9038 96.3249 55.8412C96.0287 55.7786 95.0935 55.6065 94.7662 55.4813C94.2117 55.0736 93.7228 54.5829 93.3167 54.0262C93.3167 53.8541 92.5062 52.9467 92.5062 52.9467L92.9893 48.2528C94.553 46.0206 95.48 43.4022 95.6702 40.6801C95.6702 40.6801 96.621 41.2433 97.3224 39.7882C97.9411 38.6574 98.4326 37.4609 98.7875 36.2209C99.1379 34.6534 99.7267 33.1493 100.533 31.7617C100.922 31.158 101.108 30.4452 101.063 29.7277C101.051 29.2262 100.983 28.7276 100.861 28.2413C100.472 27.9024 100.066 27.5838 99.6448 27.2869H98.9122C98.9122 27.2869 99.598 22.3584 99.676 21.623C99.7539 20.8876 99.676 17.7584 99.676 17.3516C99.676 16.9448 99.0681 15.302 99.0681 15.302H99.9565L100.299 14.8952V14.1598C100.339 13.9425 100.339 13.7199 100.299 13.5026C100.227 12.9764 100.128 12.4542 100.003 11.938V11.187L99.7539 10.4673C98.9799 9.50803 98.1189 8.62284 97.1821 7.82309C95.7949 6.85567 94.4627 5.81095 93.192 4.69385C91.3981 3.18391 89.4114 1.92107 87.2847 0.938771C85.1082 0.350356 82.8674 0.0350289 80.6136 0C77.882 0.0887248 75.1664 0.455685 72.5086 1.09523C71.4955 1.51768 68.2223 2.65985 67.6924 2.97277C66.8909 3.57171 66.145 4.242 65.4635 4.97548C65.37 5.13195 64.2633 6.14895 64.2633 6.14895C64.4292 6.32846 64.5424 6.55044 64.5906 6.79044C64.5906 7.08772 64.4504 8.91832 64.4504 8.91832C64.2887 9.41727 64.0908 9.90361 63.8581 10.3734C63.2214 11.5178 62.7143 12.7301 62.3462 13.9877C62.2215 14.8326 60.242 21.3727 61.5513 25.2999V25.7849H60.7564C60.7564 25.7849 60.1329 26.0509 60.0394 26.3951C59.9459 26.7393 59.8212 27.5373 59.79 27.7876C59.7588 28.0379 59.5562 28.5856 59.5562 28.5856C59.5562 28.5856 60.0861 30.9951 60.3043 32.1372C60.5145 32.9244 60.6758 33.7239 60.7875 34.5311C60.8655 35.2665 60.8966 36.0175 60.9122 36.659C60.9958 37.2687 61.1637 37.8638 61.411 38.427C61.5438 38.9941 61.7934 39.5271 62.1436 39.9916C62.2994 39.9916 63.0632 39.5066 63.0632 39.5066C62.9657 41.1656 63.1021 42.8301 63.4684 44.4508C63.9828 45.327 64.2789 45.4678 64.3413 45.812C64.4019 46.2685 64.4331 46.7284 64.4348 47.1889C64.4348 47.4861 64.4348 50.1147 64.4348 50.1147C64.4348 50.1147 61.8007 52.4303 61.7071 52.5711C61.6136 52.712 59.8991 54.9024 59.5718 55.4187C59.2445 55.9351 58.0131 56.9834 57.8573 57.2963C57.4787 57.7086 57.0366 58.0572 56.548 58.3289C56.1378 58.3508 55.7268 58.3508 55.3167 58.3289L54.4594 57.4215L47.913 58.016L44.7957 58.6888L41.3979 59.0643L41.1017 60.3629L40.8212 61.114L39.5119 61.8493C39.5119 61.8493 38.8573 63.0541 38.717 63.0541C38.2783 63.1665 37.8655 63.3631 37.5012 63.633C37.4759 63.914 37.4759 64.1968 37.5012 64.4779L35.5062 64.9786L33.1993 65.3541C33.1993 65.3541 28.0558 68.1704 27.6661 71.9724L26.5283 73.4431L25.5775 74.554L26.1386 74.9921L24.9385 76.8071C24.9385 76.8071 24.1903 76.9166 24.1747 76.9948C24.1591 77.0731 23.5669 78.3091 23.5201 78.5594C23.3778 78.9503 23.2112 79.3318 23.0213 79.7016H22.694L21.8212 83.003L21.977 83.4723C21.977 83.4723 21.525 84.9431 21.525 85.037C21.525 85.1308 20.6678 87.1023 20.6678 87.1023L20.0131 87.7125L18.1427 94.675C17.7978 95.7464 17.6242 96.866 17.6284 97.992C17.6944 98.5585 17.6944 99.1309 17.6284 99.6974C17.5456 99.9168 17.4779 100.142 17.4258 100.37C17.4258 100.48 16.1321 106.394 16.0853 106.629C16.0386 106.863 15.4463 108.444 15.4619 108.616C15.5993 109.014 15.766 109.401 15.9606 109.774C15.8782 109.818 15.8088 109.883 15.7595 109.963C15.7102 110.042 15.6828 110.134 15.6801 110.227C15.5842 110.643 15.5371 111.068 15.5398 111.495C15.5398 111.98 16.0853 112.778 16.1009 113.059C16.1394 113.393 16.2233 113.719 16.3503 114.029C16.3503 114.029 15.6177 114.186 15.6333 114.53C15.6489 114.874 16.0074 118.41 16.0074 118.41C16.0074 118.41 14.9475 119.193 14.9631 119.49C14.8788 119.939 14.7536 120.378 14.589 120.804L14.4799 123.026C14.4799 123.026 13.1706 127.72 13.0459 128.267C12.6405 129.095 12.155 129.882 11.5964 130.614C11.3222 130.951 11.0722 131.306 10.8482 131.678C10.8482 131.913 9.71042 135.496 9.67925 135.621C9.50778 136.052 9.3976 136.505 9.35193 136.967C9.23432 137.827 9.19779 138.697 9.24282 139.564C9.55492 140.327 9.69337 141.15 9.64807 141.973C9.49221 142.521 8.08942 147.919 8.08942 148.232C8.08942 148.545 7.57506 150.767 7.57506 150.767L6.43724 157.494C6.35214 158.086 6.30011 158.681 6.28138 159.278C6.28864 159.678 6.40742 160.069 6.62428 160.405L6.7178 160.545C6.86638 161.176 6.93447 161.822 6.92043 162.47C6.92043 163.08 6.79573 164.457 6.79573 164.613V166.178C6.79573 166.178 6.23462 168.603 6.23462 168.979C6.31875 169.931 6.34998 170.887 6.32814 171.842C6.23462 172.092 6.81132 172.968 6.85808 173.109C6.954 173.287 7.07471 173.451 7.21657 173.594L6.07875 175.159C6.27736 176.395 6.32968 177.65 6.23462 178.898C5.95406 179.509 4.94094 182.028 4.94094 182.2C4.94094 182.372 4.70714 183.764 4.94094 183.936C5.17473 184.109 5.11239 184.875 5.92289 185.501C6.73339 186.127 7.27892 186.362 7.27892 186.502C7.27892 186.643 6.78015 187.801 6.78015 187.957C6.79367 188.223 6.79367 188.49 6.78015 188.755L6.07875 190.054L5.34619 190.336C5.17789 191.501 5.12048 192.68 5.17473 193.856C5.34974 194.749 5.45398 195.654 5.48646 196.563L5.23708 197.157C5.23708 197.157 4.31747 197.157 4.2863 197.455C4.25513 197.752 4.2863 198.597 4.2863 198.738C4.2863 198.879 4.2863 200.474 4.2863 200.725C4.18663 201.156 4.02934 201.572 3.8187 201.961C3.7096 202.18 2.26005 205.09 2.26005 205.419C2.26005 205.747 1.5119 206.623 1.52748 206.733C1.54307 206.842 1.52748 209.862 1.621 210.144C1.71452 210.425 2.16653 213.101 2.1977 213.273C2.22888 213.445 3.92781 216.402 4.03692 216.606C4.41802 216.992 4.77709 217.399 5.11239 217.826C5.31555 218.08 5.5455 218.311 5.7982 218.514C5.87516 218.606 5.9746 218.676 6.08668 218.717C6.19875 218.758 6.31959 218.769 6.43724 218.749H7.16981C7.16981 218.749 7.26333 220.11 7.34126 220.455C7.48222 220.901 7.67033 221.331 7.90238 221.738C8.22619 221.998 8.57618 222.223 8.94668 222.41H9.13372L5.40853 271.508L3.11731 272.243L2.21329 273.339L1.71452 279.597C1.71452 279.597 2.22888 280.911 2.30681 281.068C2.71047 281.814 3.23753 282.486 3.86546 283.055C4.43431 283.346 5.03618 283.567 5.65792 283.712V285.574L7.21657 285.699L6.53076 290.064H5.72026L4.92535 291.723L4.00574 291.973V293.241L4.56686 293.741L4.33306 294.524C4.33306 294.524 4.08368 294.868 4.09926 294.977C4.21469 295.221 4.35577 295.452 4.5201 295.666H5.51764H5.89171L2.83675 317.617L2.10418 319.088H1.55865V320.574L1.01313 320.887V321.56L1.24692 321.889L0.8105 322.311V323.172L0 328.71C0.858287 329.204 1.79811 329.538 2.77441 329.696C3.48267 329.752 4.19294 329.617 4.83183 329.305L5.42412 322.859L5.26825 322.389L5.7982 322.296L6.06317 321.748V321.591L5.37736 321.185L5.95406 320.966L6.20345 320.543V319.839H5.78261L5.5644 318.838L9.35193 293.616L15.5865 292.052L16.8802 291.254L17.5505 291.097L17.9089 291.003C17.5924 291.64 17.3215 292.299 17.0984 292.975C17.0984 293.35 17.0984 294.727 17.0984 295.103C17.0984 295.478 17.8934 300.485 17.8466 300.641C17.7998 300.798 17.8466 302.206 17.7219 302.816C17.5787 303.337 17.6286 303.893 17.8622 304.381C18.1739 305.069 18.8285 305.351 19.2494 305.945C19.6702 306.54 21.26 309.075 21.3692 309.497C21.5627 310.215 21.851 310.905 22.2264 311.547C22.6197 312.188 23.0517 312.805 23.5201 313.393L23.9409 314.379L24.3929 320.84C24.3929 320.84 23.2551 320.84 23.2551 321.028C23.2551 321.216 23.411 324.439 23.3798 324.83C23.3486 325.221 23.5824 329.931 23.5824 329.931C23.5824 329.931 24.6891 334.046 24.9696 335.032C25.2502 336.017 26.2322 339.397 26.2633 340.101C26.2945 340.805 26.466 348.628 26.4815 349.082C26.4971 349.536 25.3593 350.991 25.1723 351.695C24.8646 353.186 25.0168 354.736 25.6087 356.138C26.388 357.343 26.7777 357.437 26.7621 358.031C26.7412 358.79 26.4851 359.523 26.0295 360.128C25.4129 360.639 24.9668 361.327 24.7514 362.099C24.44 362.889 24.2052 363.706 24.05 364.54C23.8786 365.635 21.8679 367.388 21.8212 367.889C21.7744 368.389 14.8072 372.066 14.776 372.379C14.7449 372.692 13.7162 373.349 13.7317 374.037C13.7135 375.503 13.9077 376.963 14.3085 378.371C14.776 379.154 24.845 379.091 28.9286 378.622C33.0123 378.152 40.7744 374.867 40.7744 374.867C41.36 373.979 42.2197 373.308 43.2215 372.958C45.0295 372.254 46.5414 371.722 46.5414 371.722C46.5414 371.722 47.4454 367.623 46.5414 366.167C45.7106 364.719 44.9714 363.219 44.3281 361.677C44.4552 359.56 44.4239 357.437 44.2346 355.325C43.9073 354.214 43.2683 352.68 43.2683 352.68L43.4241 348.44C43.4241 348.44 43.4241 335.923 43.4241 335.032C43.4241 334.14 44.5152 329.712 44.5931 329.415C44.671 329.117 44.8269 325.393 44.8893 324.721C44.9516 324.048 45.2789 320.402 45.2789 320.402L44.2034 319.245L45.2945 314.003C46.1042 313.485 46.8799 312.915 47.6169 312.298C48.5287 311.31 49.2902 310.192 49.8769 308.981C49.8769 308.464 49.2535 307.745 49.2223 306.915C49.1911 306.086 50.9057 291.598 50.9057 291.598C50.5778 291.204 50.3148 290.76 50.1263 290.283C50.1345 289.008 50.2125 287.733 50.3601 286.466C51.55 282.911 52.3598 279.24 52.776 275.513C52.776 275.513 53.6957 273.401 53.7892 273.057C54.0243 272.49 54.2897 271.937 54.5841 271.399C54.5841 271.399 53.758 270.131 53.9294 269.38C54.1009 268.629 54.7867 266.783 54.7867 266.783C54.6964 266.051 54.7709 265.308 55.0049 264.608C55.5485 263.697 56.0327 262.751 56.4545 261.776C56.8753 260.775 58.1066 257.567 58.3249 256.973C58.5431 256.378 60.0394 253.312 60.0394 253.312C60.0394 253.312 61.8942 247.945 62.2215 247.303C62.5488 246.662 64.8556 239.637 64.9959 239.293C65.1362 238.948 67.6456 232.674 67.7235 231.876C67.8374 230.516 68.2188 229.192 68.8458 227.98C69.3601 226.414 70.1119 224.936 71.0747 223.599C72.306 222.238 74.3167 219.797 74.5972 219.594C74.8778 219.391 74.5972 220.376 74.5972 221.425C74.5972 222.473 74.0829 222.567 73.3503 224.554C72.6177 226.541 71.1526 226.807 72.0878 228.497C73.023 230.187 74.2076 232.846 74.5193 233.378C74.831 233.91 76.0779 235.569 75.9221 235.913C75.7662 236.257 76.265 237.587 75.9221 238.088C75.5594 238.657 75.2314 239.247 74.9401 239.856C74.7687 240.357 72.3528 243.689 72.571 244.675C73.4668 246.306 74.4718 247.874 75.5792 249.369C75.9532 250.104 76.9975 250.417 76.982 251.606C76.9664 252.795 77.621 258.178 77.6833 260.196C77.7457 262.214 77.0755 264.577 77.8548 265.985C78.6341 267.393 79.4135 268.269 79.6784 268.848C79.9434 269.427 80.2084 274.919 80.224 275.67C80.2395 276.421 80.3798 275.811 79.6005 277.86C78.8288 279.574 78.2334 281.361 77.8236 283.196C77.3346 285.995 77.1257 288.835 77.2002 291.676C77.5275 293.115 77.808 300.626 78.0263 301.205L79.1017 312.345L80.6604 314.222L81.5332 314.426V316.428L81.1436 317.555C81.1436 317.555 81.9073 319.385 81.6423 319.761C81.3774 320.136 81.6423 332.763 81.6423 332.982C81.6423 333.201 80.6604 337.316 80.676 337.77C80.6276 338.558 80.6537 339.349 80.7539 340.132C80.8553 340.675 80.8553 341.232 80.7539 341.775C80.676 341.994 77.2002 346.704 77.2937 347.439C77.3872 348.174 77.2937 351.538 77.2937 351.538C77.1429 351.972 77.0537 352.425 77.0287 352.884C77.0287 353.4 77.0287 354.214 77.1066 355.184C77.0051 356.139 76.758 357.073 76.3741 357.953L75.6259 357.828L73.927 362.522C73.927 362.522 77.9327 367.685 82.032 369.516C86.1313 371.346 85.4143 375.993 87.3002 377.339C89.1862 378.684 96.7457 381.282 99.3954 380.984C102.045 380.687 108.373 379.42 107.282 375.101C106.191 370.783 105.724 367.638 104.321 365.166C102.918 362.694 100.424 358.595 100.175 357.781C99.9253 356.967 99.411 354.652 99.1772 354.026C98.9434 353.4 97.3692 350.678 97.1354 350.302C96.9016 349.927 96.3716 349.442 96.7925 348.738C97.6341 347.565 98.3401 346.3 98.8966 344.967C98.8617 343.674 98.721 342.387 98.4758 341.118C98.4758 341.118 98.7564 337.989 98.7408 337.551C98.7252 337.112 99.5824 333.874 99.7071 333.138C100.282 331.906 101.021 330.759 101.905 329.728C102.123 329.493 103.463 325.738 103.089 325.034C102.621 324.061 102.22 323.057 101.889 322.03C101.889 321.654 101.749 319.808 101.749 319.808C101.749 319.808 103.713 313.956 103.713 313.737C104.132 312.129 104.685 310.559 105.365 309.043C105.692 308.668 105.895 307.698 106.394 307.479C107.471 307.038 108.514 306.515 109.511 305.914C109.749 303.81 109.879 301.695 109.901 299.577C109.901 299.28 107.906 289.908 107.89 289.392C107.874 288.875 107.563 285.762 107.563 285.762L108.389 281.428C108.389 281.428 114.888 271.211 111.148 260.039C110.565 258.527 109.661 257.16 108.498 256.034V250.761L111.615 248.586C112.146 247.1 112.573 245.579 112.893 244.033C112.893 243.345 112.052 242.281 112.893 241.655C113.91 240.73 114.659 239.546 115.06 238.229C115.06 237.54 114.826 233.378 114.904 232.784C114.982 232.189 113.782 226.87 113.782 226.87L114.094 223.881C114.094 223.881 113.564 218.953 114.39 217.138C115.216 215.323 114.842 203.166 115.107 202.164C115.372 201.163 116.26 194.998 116.26 194.998L117.32 194.075L119.72 195.202L119.97 190.508C119.97 190.508 118.115 184.437 118.099 183.936L117.865 176.411L118.115 174.627C119.075 174.603 120.035 174.671 120.983 174.83C122.764 175.261 124.523 175.783 126.251 176.395C127.652 177.285 128.822 178.497 129.664 179.931C130.316 181.074 130.838 182.286 131.223 183.545C131.45 184.851 131.893 186.11 132.532 187.269C132.938 187.754 133.249 188.145 133.842 188.223C134.434 188.302 136.102 188.223 136.102 188.223L137.162 187.754C137.162 187.754 138.034 187.441 138.144 187.754C138.253 188.067 137.847 187.754 138.253 188.051C138.893 188.247 139.564 188.327 140.232 188.286C140.232 188.286 141.417 188.286 141.386 187.66C141.394 186.089 141.513 184.52 141.744 182.966C141.977 182.119 142.149 181.257 142.258 180.385C143.87 181.104 145.526 181.72 147.215 182.231C148.99 182.302 150.768 182.223 152.53 181.996C153.705 181.403 154.85 180.75 155.959 180.041C156.24 179.728 158.39 177.365 158.593 176.99C158.796 176.614 160.152 174.862 160.152 174.862L162.552 173.594C163.663 172.543 164.705 171.419 165.669 170.23C165.669 170.011 166.028 167.242 166.028 167.242L167.898 165.787C167.898 165.787 170.345 161.093 170.345 160.874C170.449 159.92 170.616 158.974 170.844 158.042C170.952 157.565 170.973 157.072 170.906 156.587V156.587ZM1.79245 327.944H1.23134L1.55865 325.659L2.01066 325.002L1.79245 327.944ZM4.00574 325.44L3.74077 327.866H3.27317L3.60049 325.44L3.97457 324.204L4.00574 325.44ZM22.4135 172.828L22.242 166.882C22.242 165.599 23.5201 166.882 23.9098 166.882C24.2994 166.882 24.9696 165.756 24.9696 165.756L26.7465 162.532L26.1231 164.942C26.1231 164.942 25.1723 169.636 25.0943 170.043C25.0164 170.449 24.7047 173.5 24.6267 174.095C24.5488 174.69 23.598 174.095 23.598 174.095H21.9614L22.4135 172.828ZM13.9344 288.406L13.1395 289.204C12.9992 289.36 12.6407 289.705 12.6563 290.002C12.6412 290.348 12.5782 290.69 12.4692 291.019H11.2847L12.2666 284.635L13.872 286.325L13.9344 288.406ZM28.3675 214.212C28.3675 215.197 27.8843 217.685 27.8064 218.53C27.702 219.57 27.6708 220.615 27.7129 221.659C27.7129 222.144 28.4922 223.068 28.4922 223.224C28.2497 223.625 27.9843 224.012 27.6973 224.382C27.5748 224.937 27.5069 225.503 27.4947 226.072C27.4947 226.072 26.5439 233.895 26.5595 234.176C26.5751 234.458 25.8425 238.307 25.8581 238.495C25.8737 238.682 26.1231 239.48 26.1386 239.981C26.2037 240.546 26.1007 241.118 25.8425 241.624C24.8553 242.649 23.9535 243.753 23.146 244.925C23.146 245.316 22.3823 252.623 22.5537 253.014C23.2627 253.82 24.063 254.539 24.9385 255.158C25.2346 255.346 26.3413 256.206 26.3413 256.206L25.0943 265.985C24.6039 266.476 24.1457 266.999 23.7227 267.55C22.9304 268.432 22.3916 269.513 22.1641 270.679C22.0706 272.087 21.9926 272.322 21.8991 274.027C21.8056 275.733 21.1509 278.502 21.1042 279.331C21.0574 280.16 21.2289 283.477 21.2289 283.477L21.5406 284.291C21.5406 284.291 19.6546 285.464 19.4676 286.278C19.2404 287.046 18.9645 287.799 18.6415 288.531C18.6415 288.531 17.3011 287.983 17.2855 287.764C17.2699 287.545 15.0566 285.152 14.9007 284.635C14.7449 284.119 13.7162 282.304 13.7162 282.304C13.7162 282.304 16.0386 278.377 16.2412 277.845C16.4371 276.76 16.5517 275.661 16.5841 274.559L15.2281 273.339V270.898L16.0386 268.864L24.9385 221.44L23.5669 220.079C23.5669 220.079 25.6087 219.125 25.1255 217.576C24.6423 216.027 24.1124 214.838 24.1124 214.838L27.2297 214.102C27.2297 214.102 28.3675 212.632 28.461 212.538C28.5546 212.444 29.2871 210.691 29.2871 210.691C28.9017 211.843 28.5945 213.019 28.3675 214.212V214.212ZM27.5726 199.676L25.5463 210.738L24.7203 211.302L28.4143 186.69L28.7416 185.986L29.4118 187.191L27.5726 199.676ZM31.781 162.861V161.578C31.781 161.578 33.4331 160.342 33.8228 160.123L33.9319 160.921C33.9319 160.921 33.6825 162.313 33.9319 162.298C34.1813 162.282 33.9319 164.488 33.9319 164.582C33.9319 164.676 33.5734 165.677 33.4799 165.975C33.3864 166.272 32.8876 169.104 32.8876 169.104L32.4668 168.259C32.4668 168.259 32.5447 164.066 31.8277 163.565C31.1107 163.064 31.781 162.861 31.781 162.861V162.861ZM36.3167 182.919C36.194 183.862 36.2203 184.817 36.3946 185.751C35.8744 186.294 35.2999 186.782 34.6801 187.206C34.1969 187.598 34.1345 188.928 33.5422 190.07C32.95 191.212 33.2461 191.634 33.2461 191.634L32.3421 193.199C32.3421 193.199 33.9007 183.717 33.9007 183.498C33.7211 183.059 33.4965 182.639 33.2305 182.247L31.968 181.104C31.968 181.104 31.8121 180.51 31.968 180.291C32.1239 180.072 32.4668 179.305 32.4668 179.305L33.1214 177.741L35.6153 178.038C35.6153 178.038 35.8958 179.806 35.9737 180.103C36.0517 180.4 37.2518 180.807 37.2518 180.807C36.9017 181.493 36.5895 182.199 36.3167 182.919V182.919ZM114.031 161.922C114.031 162 112.8 164.582 112.8 164.582V164.113C112.516 163.351 112.194 162.604 111.833 161.875C111.709 161.875 109.948 158.965 109.948 158.965L110.587 158.198L110.742 156.79L112.005 155.57V154.678C111.973 154.157 111.973 153.635 112.005 153.113C112.423 152.593 112.882 152.107 113.377 151.658C113.377 151.658 113.61 153.833 113.595 154.052C113.579 154.271 113.719 156.321 113.719 156.321C113.957 157.458 114.133 158.607 114.249 159.763C114.217 160.486 114.144 161.207 114.031 161.922V161.922ZM114.982 106.018L115.792 106.801L115.933 108.084C116.444 108.919 116.867 109.805 117.195 110.728C117.195 111.213 119.767 114.405 119.985 114.906C120.203 115.406 122.463 115.516 122.869 115.594C123.522 116.092 123.953 116.828 124.069 117.644C124.069 118.442 127.186 119.052 127.186 119.052C127.324 120.113 127.554 121.16 127.872 122.181C128.672 122.863 129.642 123.312 130.678 123.48C131.368 123.516 132.06 123.516 132.751 123.48L135.432 126.233C135.432 126.233 132.314 126.327 131.815 126.405C131.317 126.484 126.952 127.235 126.734 127.313L121.326 129.629L119.689 129.378L118.458 131.162L116.167 131.303L114.733 132.867C114.938 131.463 115.042 130.046 115.044 128.627C114.931 127.814 114.884 126.992 114.904 126.171L116.712 127.454L116.619 124.325L115.824 122.76L119.159 122.666L119.689 116.032C119.689 116.032 119.409 116.267 118.442 116.032C117.784 115.898 117.105 115.898 116.447 116.032H114.187L113.969 108.694L112.784 107.677L114.982 106.018ZM114.748 155.351L114.436 156.149L114.281 150.579L116.276 151.189L116.089 154.553L114.748 155.351ZM122.541 163.471L121.809 164.113L119.346 170.371L116.229 169.902V168.791L116.993 169.323L117.803 169.495L118.738 169.276L118.925 167.711C118.925 167.711 118.224 162.173 118.193 162.079C117.877 161.553 117.601 161.003 117.367 160.436C117.367 160.154 116.915 156.696 116.915 156.696L117.32 156.352L117.538 155.288L117.413 151.236L118.972 152.269L122.853 162.36L122.541 163.471ZM139.874 174.549C139.294 175.909 138.815 177.311 138.44 178.742C138.268 179.931 137.863 181.355 137.879 181.949C137.894 182.544 137.598 184.86 137.598 184.86C137.195 184.02 136.725 183.215 136.195 182.45C135.482 181.823 134.84 181.12 134.278 180.353C134.044 179.915 132.844 179.665 133.094 179.133C133.988 178.246 134.941 177.42 135.946 176.661C136.189 176.411 136.357 176.096 136.429 175.753L138.907 174.564L139.842 173.36L139.874 174.549ZM137.988 166.053C137.988 166.288 136.912 169.714 136.85 169.917C136.788 170.121 136.086 169.307 135.868 169.323C135.65 169.339 132.517 168.9 131.925 168.775C130.788 168.452 129.767 167.812 128.979 166.929C128.705 165.955 128.334 165.012 127.872 164.113C127.179 163.358 126.44 162.647 125.659 161.985C125.659 161.766 123.804 154.835 123.804 154.835L137.193 164.222L139.889 165.537L141.245 166.46C140.171 166.212 139.074 166.075 137.972 166.053H137.988Z" fill="#231F20"/>
</g>
<defs>
<clipPath id="clip0_85_328">
<rect width="171" height="381" fill="white"/>
</clipPath>
</defs>
</svg>
