<svg width="70" height="70" viewBox="0 0 70 70" fill="none" xmlns="http://www.w3.org/2000/svg">
<g clip-path="url(#clip0_320_34)">
<path d="M63.4375 8.74985H6.56255C2.94373 8.74985 0 11.6936 0 15.3124V54.6874C0 58.3062 2.94373 61.2499 6.56255 61.2499H63.4375C67.0563 61.2499 70 58.3062 70 54.6874V15.3124C70 11.6936 67.0563 8.74985 63.4375 8.74985V8.74985ZM63.4375 13.1248C63.7347 13.1248 64.0174 13.1865 64.2759 13.2942L35 38.6678L5.72396 13.2942C5.98245 13.1866 6.26519 13.1248 6.5624 13.1248H63.4375ZM63.4375 56.8748H6.56255C5.35559 56.8748 4.37498 55.8943 4.37498 54.6872V17.9164L33.5666 43.2158C33.9789 43.5725 34.4895 43.7498 35 43.7498C35.5105 43.7498 36.0211 43.5726 36.4334 43.2158L65.625 17.9164V54.6874C65.6249 55.8943 64.6444 56.8748 63.4375 56.8748V56.8748Z" fill="#231F20"/>
</g>
<defs>
<clipPath id="clip0_320_34">
<rect width="70" height="70" fill="white"/>
</clipPath>
</defs>
</svg>
