<svg width="304" height="227" viewBox="0 0 304 227" fill="none" xmlns="http://www.w3.org/2000/svg">
<g clip-path="url(#clip0_85_340)">
<path d="M0 211.766L1.60152 212.662V215.863C1.60152 215.863 3.20303 216.951 3.33116 217.015C3.45928 217.079 3.9077 217.703 3.9077 217.703V219.303C4.25002 220.119 4.54938 220.952 4.80455 221.799C5.12485 223.08 9.6091 225.704 13.5648 226.776C14.8249 227.081 16.147 227.009 17.366 226.568C18.5851 226.126 19.6471 225.336 20.4193 224.296C20.7529 223.441 21.1379 222.607 21.5724 221.799C22.0403 220.549 22.2948 219.229 22.3251 217.895C22.3651 216.943 22.7525 216.038 23.4142 215.351C24.0446 214.46 24.4411 213.426 24.5673 212.342C24.8235 211.254 26.6813 210.87 27.0016 210.102C27.3811 209.329 27.6816 208.519 27.8984 207.686C28.1547 206.598 28.7312 206.47 29.7562 205.958C30.676 205.395 31.5118 204.706 32.2385 203.91C33.4656 203.189 34.8101 202.691 36.2103 202.437C36.7868 202.437 42.0879 202.885 42.6164 203.013C43.7713 203.602 44.8474 204.333 45.8194 205.19C46.5958 205.742 47.4631 206.153 48.3818 206.406C48.6381 206.406 49.647 208.006 49.647 208.006L53.0422 208.198L54.5156 206.982C54.5156 206.982 58.5354 209.27 59.112 209.718C61.0107 210.521 62.9577 211.205 64.9415 211.766L70.5628 213.175C70.5322 214.378 70.6396 215.58 70.8831 216.759C71.2675 218.279 77.4013 217.143 77.4013 217.143C88.1475 222.76 106.437 215.415 106.437 215.415C106.437 215.415 108.295 212.855 108.743 211.958C109.975 210.177 111.34 208.492 112.827 206.918C114.108 205.51 113.019 205.318 112.827 205.19C112.36 204.796 111.868 204.432 111.353 204.102L108.935 204.47L108.551 199.573L107.702 162.769C107.702 162.769 107.83 158.129 108.935 158.353C110.04 158.577 132.157 152.176 132.461 152.176C133.548 151.811 134.581 151.305 135.536 150.672C136.167 149.871 136.704 149.002 137.138 148.08L136.609 152.016L136.994 163.473V165.81C136.994 165.81 136.994 168.114 136.994 168.626C137.056 169.007 137.088 169.392 137.09 169.778L137.682 171.378C137.682 171.378 137.042 172.066 136.834 172.37C136.516 173.032 136.383 173.767 136.449 174.498C136.459 174.677 136.505 174.851 136.584 175.011C136.664 175.171 136.776 175.312 136.914 175.427C136.631 175.684 136.313 175.899 135.969 176.067C135.681 176.147 135.424 178.035 135.424 178.163C135.424 178.291 135.969 182.323 135.969 182.579C135.969 182.835 135.681 184.676 135.681 184.676L136.017 186.724C136.017 186.724 135.809 189.924 135.809 190.212C135.809 190.5 135.376 192.212 135.376 192.212L134.656 195.701C134.568 196.348 134.439 196.989 134.271 197.621C134.072 197.964 133.901 198.323 133.759 198.693C133.546 199.306 133.432 199.949 133.422 200.597C133.407 201.236 133.237 201.862 132.926 202.421C132.649 202.747 132.392 203.089 132.157 203.446C131.995 204.03 131.899 204.632 131.869 205.238C131.869 205.526 131.148 212.903 131.148 212.903L130.716 213.239V217.159C132.317 220.359 138.9 220.727 141.366 220.647C143.832 220.567 148.188 218.695 150.158 218.599C152.639 218.678 155.113 218.881 157.573 219.207C168.473 220.724 179.579 219.509 189.892 215.671L189.764 213.367H188.739L188.483 210.87C187.889 209.764 187.013 208.834 185.945 208.174C184.876 207.514 183.653 207.147 182.397 207.11C180.939 207.366 173.38 207.686 173.204 207.686C173.028 207.686 169.296 207.238 169.104 207.11L166.798 205.51C166.35 205.19 163.803 203.782 163.227 203.398C162.65 203.013 159.255 202.373 158.742 201.925C158.23 201.477 155.363 199.893 154.707 199.253C154.05 198.613 154.851 198.741 154.707 198.293C154.562 197.845 155.539 196.693 155.539 196.181C155.539 195.669 154.707 194.709 154.707 194.709C154.707 194.709 155.347 193.108 155.475 192.916C155.733 192.268 155.879 191.581 155.908 190.884C155.908 190.116 155.155 188.708 155.219 188.068C155.283 187.428 155.78 186.148 155.844 185.316C155.965 184.463 156.18 183.626 156.484 182.819C156.676 182.243 157.509 180.275 157.83 179.443C158.15 178.611 158.598 178.163 158.726 178.291C158.854 178.419 159.815 178.291 159.815 178.291C159.815 178.291 160.392 176.435 160.392 176.243C160.392 176.051 161.609 175.219 162.25 174.386C162.89 173.554 161.609 172.786 161.609 172.786C161.609 172.786 160.968 171.634 161.097 171.314C161.753 170.2 162.29 169.02 162.698 167.794C162.89 166.706 163.531 164.785 163.659 164.097C163.665 162.77 163.58 161.444 163.403 160.129C163.489 158.641 163.704 157.164 164.043 155.712C164.287 154.659 164.453 153.59 164.54 152.512C164.868 150.782 165.296 149.073 165.821 147.392C166.077 146.447 166.141 140.239 166.141 139.471C166.141 138.703 166.462 130.334 166.462 130.334V126.285C166.23 125.103 165.887 123.946 165.437 122.829C165.437 122.637 158.342 116.252 158.342 116.252C158.342 116.252 161.545 113.308 162.122 112.796C162.698 112.284 165.501 110.508 166.013 109.804C166.526 109.1 168.896 107.755 169.408 106.923C170.339 105.91 171.346 104.968 172.419 104.107C172.547 103.915 173.845 98.5544 173.845 98.5544L174.709 96.3142C174.709 96.2182 175.959 94.874 175.991 94.714C176.023 94.554 176.151 93.8499 176.824 93.9139C177.496 93.9779 177.592 93.6259 177.688 93.4659C178.006 93.2211 178.35 93.0118 178.713 92.8418L179.802 91.5937C179.802 91.5937 180.443 90.3135 180.507 90.0895C180.571 89.8655 181.564 89.0974 181.564 89.0974L181.98 87.5933L180.827 86.0891H181.34C182.333 85.837 183.211 85.2574 183.833 84.4443C184.455 83.6311 184.784 82.632 184.767 81.6086C185.102 81.5201 185.424 81.3911 185.728 81.2246C186.217 81.059 186.721 80.9411 187.233 80.8726C187.531 80.839 187.832 80.839 188.13 80.8726L189.347 81.2246L191.766 81.0646C192.197 81.032 192.625 80.9678 193.047 80.8726C193.335 80.7765 194.424 80.2325 194.648 80.1045C195.061 79.8433 195.447 79.5433 195.801 79.2084C195.801 79.1124 196.602 77.9602 196.666 77.8002C196.73 77.6402 197.115 76.2001 197.211 75.976C197.307 75.752 197.499 74.9999 197.595 74.6479C197.628 74.2325 197.628 73.8152 197.595 73.3998C197.595 73.2717 197.98 72.4717 197.98 72.4717C197.98 72.4717 198.348 70.5035 198.348 70.3914C198.348 70.2794 198.348 69.8634 198.348 69.4793C198.348 69.0953 198.06 68.2952 198.06 68.1992C198.06 68.1032 198.396 67.9112 198.428 67.7672C198.46 67.6231 199.021 66.167 199.021 66.167L199.533 65.5589C199.686 65.2522 199.737 64.9044 199.677 64.5668C199.677 64.3108 199.405 64.2308 199.197 64.0708C198.958 63.9271 198.699 63.8192 198.428 63.7507C198.428 63.7507 198.428 63.6387 198.716 63.3667C199.005 63.0947 199.005 62.1506 199.005 62.1506L199.261 62.0706C199.261 62.5986 200.35 63.0147 200.35 63.0147L249.997 61.9906C250.112 62.4708 250.353 62.9114 250.697 63.2662C251.041 63.6209 251.474 63.8767 251.951 64.0068L256.755 64.1668V64.4228C256.608 64.6095 256.509 64.8292 256.467 65.0629C256.467 65.3829 257.108 65.6069 257.108 65.6069L258.837 63.8148L259.99 62.5986L260.631 62.2786C260.974 62.1328 261.306 61.9617 261.624 61.7665C261.816 61.6065 261.271 60.8064 261.271 60.8064L261.592 60.3104L261.912 59.7183H266.412V60.0063L267.021 60.6464V63.2067H268.622V62.4706H270.512V60.9984L268.911 60.0704L269.295 59.6223L293.318 60.8064V61.0305H293.862L294.183 61.5105H295.112L295.272 60.9984H295.56L295.88 61.7025H296.281L296.473 61.0625H296.793L297.242 61.8305L303.856 62.6306L304.048 57.11L297.258 57.2861L297.049 57.9581H296.745L296.601 57.2381H295.928L295.624 57.8301L295.4 57.9101V57.3341H294.199L294.007 57.5581H293.382L292.998 58.0221L268.975 56.742L269.391 46.2129C269.322 45.8977 269.184 45.602 268.986 45.3473C268.787 45.0927 268.535 44.8857 268.246 44.7414C267.957 44.5971 267.64 44.5193 267.317 44.5137C266.994 44.508 266.674 44.5747 266.38 44.7087L259.638 52.5336V53.1096L259.045 52.9656L258.357 51.8295C258.357 51.8295 252.399 51.4294 251.951 51.5255C251.502 51.6215 250.573 53.2216 250.573 53.2216C249.724 53.1136 248.906 52.8302 248.171 52.3895L246.682 52.2935C246.393 52.7736 245.673 52.8536 244.792 52.8696C244.507 52.8526 244.23 52.7718 243.98 52.6334C243.731 52.4949 243.515 52.3022 243.351 52.0695L241.269 51.9415C240.744 52.2873 240.116 52.4401 239.491 52.3735C238.858 52.2671 238.265 51.9905 237.777 51.5735L236.176 51.4934C235.855 51.9735 235.151 51.9735 234.19 51.9735C233.586 51.9251 233.018 51.6643 232.588 51.2374L231.259 51.0934C230.923 51.4934 230.811 51.4774 229.658 51.6535C229.251 51.6856 228.842 51.634 228.457 51.5018C228.071 51.3697 227.717 51.1599 227.415 50.8854L225.894 50.7894C225.43 50.9494 225.734 51.1734 224.453 51.1894C223.665 51.186 222.904 50.9023 222.307 50.3893C222.307 50.3893 220.785 50.3893 220.577 50.3893C220.228 50.5227 219.895 50.6945 219.584 50.9014C218.415 51.2214 216.974 49.9893 216.974 49.9893H215.372C215.244 49.9893 214.763 50.5493 214.763 50.5493C214.271 50.605 213.772 50.5584 213.298 50.4125C212.824 50.2665 212.385 50.0244 212.009 49.7013H210.199C210.072 49.7421 209.956 49.8107 209.859 49.9021C209.762 49.9934 209.687 50.1052 209.639 50.2293C208.708 50.3106 207.779 50.0488 207.028 49.4932L199.741 49.2052C199.402 49.6434 199.092 50.103 198.812 50.5813C198.812 50.7094 198.428 50.8054 198.428 50.8054V50.5173H195.353L195.193 50.9334L194.488 50.7414L194.648 46.6609C194.328 43.0125 191.445 43.2686 191.445 43.2686L166.558 39.8442C165.864 39.6287 165.121 39.6287 164.428 39.8442C164.332 39.8442 158.983 47.9251 158.983 47.9251C158.983 47.9251 157.205 47.8291 156.596 47.9251C155.988 48.0211 155.924 48.7091 155.924 48.8532C155.924 48.9972 156.308 49.4612 156.308 49.4612L155.748 50.0693L155.107 50.1813L154.114 50.3253L153.73 50.1013L149.534 49.6052C149.534 49.6052 149.534 48.6611 149.534 47.7971C149.46 47.234 149.46 46.6639 149.534 46.1009C149.561 45.9355 149.641 45.7834 149.762 45.6679C149.884 45.5523 150.04 45.4796 150.206 45.4608C150.543 45.3554 150.836 45.1416 151.039 44.8527C151.199 44.5647 150.879 43.6366 150.847 43.3486C150.705 42.9712 150.511 42.6157 150.27 42.2925L151.071 42.1325C151.231 42.1325 151.648 42.0364 151.84 41.9724C152.045 41.897 152.216 41.749 152.32 41.5564C152.539 41.1201 152.7 40.6576 152.801 40.1802C152.833 39.7168 152.833 39.2516 152.801 38.7881L152.352 36.8039C152.795 36.4983 153.281 36.261 153.794 36.0998C154.274 36.0998 154.434 35.4917 154.434 35.2037C154.404 34.8253 154.34 34.4504 154.242 34.0836C154.242 33.8276 152.961 32.0354 152.801 31.7154C152.641 31.3953 151.199 28.851 151.199 28.755C151.199 28.659 151.199 27.6989 151.199 27.6989C151.355 27.4919 151.484 27.2661 151.584 27.0269C151.68 26.7388 152.929 26.3228 153.313 26.1308C154.397 25.7676 155.505 25.4789 156.628 25.2667C157.968 24.6761 159.236 23.9353 160.408 23.0584C160.958 22.502 161.413 21.8586 161.753 21.1542C161.797 20.7655 161.753 20.3718 161.625 20.0021C161.497 19.5221 160.728 19.298 160.376 19.138C160.024 18.978 155.571 18.0819 153.97 17.6659C152.791 17.4144 151.642 17.039 150.543 16.5458C150.543 16.3857 150.03 15.9697 149.998 15.7777C149.966 15.5856 150.318 15.2336 150.318 15.1376C150.318 15.0416 149.582 12.4333 149.55 12.3373C149.518 12.2413 148.685 11.3132 148.685 11.2172C148.685 11.1212 147.996 11.2012 147.996 11.2012C147.996 11.2012 148.156 8.19287 148.188 8.00085C148.22 7.80883 147.163 5.72861 147.099 5.28056C147.035 4.83251 146.058 4.08043 145.498 3.56838C144.937 3.05632 143.672 3.85641 143.32 3.85641C142.944 3.79712 142.578 3.68954 142.231 3.53637C142.007 3.53637 137.426 2.12823 137.026 1.9362C136.625 1.74418 130.203 0.336036 129.947 0.336036C129.691 0.336036 123.541 0.0480051 123.541 0.0480051C123.541 0.0480051 120.242 0.880093 120.05 0.976103L117.792 2.12823C117.407 2.32025 117.087 3.21634 116.959 3.60038C116.243 4.27606 115.447 4.86179 114.589 5.34456C114.492 5.34456 111.834 9.98506 111.834 10.1451C111.834 10.3051 111.321 13.8415 111.289 13.9375C111.257 14.0335 110.024 17.7139 109.8 18.1939C109.576 18.674 108.967 18.674 108.711 18.706C108.455 18.738 106.533 19.282 105.316 19.5061C104.331 19.6828 103.38 20.0122 102.497 20.4822C101.744 20.8662 100.623 21.6023 100.367 21.7623C100.085 22.7593 99.913 23.7842 99.8546 24.8186C99.8546 24.8186 100.335 26.8028 100.399 27.0269C101.145 28.2602 101.783 29.5559 102.305 30.8993C103.138 33.1235 107.302 33.8916 107.302 33.8916L106.565 34.1476L103.81 34.9477C103.618 34.9477 102.065 35.4917 101.744 35.5558C101.3 35.7945 100.872 36.0617 100.463 36.3558C100.367 36.3558 98.2851 36.7719 97.4843 36.8359C96.6836 36.8999 92.7599 37.508 92.3114 37.54C91.4613 37.7357 90.6263 37.9923 89.8131 38.308C89.685 38.308 83.7754 42.9005 83.6152 43.1086C83.176 43.466 82.7161 43.7973 82.2379 44.1007C82.1418 44.1967 82.3981 44.9007 82.3981 44.9007L81.6293 45.5408C80.878 46.3121 80.1823 47.1356 79.5473 48.0051C79.5473 48.2611 77.049 51.1254 77.017 51.2054C76.9849 51.2854 76.6646 52.9976 76.6646 52.9976C76.6646 52.9976 75.5275 54.5978 75.4955 54.5978C75.4635 54.5978 73.894 57.4141 73.894 57.4141C73.6399 57.7363 73.4046 58.0729 73.1893 58.4222C73.1893 58.5502 72.3565 59.2223 72.2605 59.4463C72.2702 59.9342 72.3456 60.4186 72.4847 60.8864C72.3574 61.0723 72.2399 61.2646 72.1323 61.4625C72.1323 61.5585 70.5308 63.9588 70.3066 64.2148C70.0824 64.4708 66.3829 72.2156 66.3829 72.2156L64.365 75.416L62.5072 77.7362C62.2101 78.24 61.9735 78.7771 61.8025 79.3364C61.8439 79.6229 61.8439 79.9139 61.8025 80.2005L61.258 81.0006L59.9768 83.2088L58.7917 85.273L58.2151 86.5852L57.1742 87.1612C57.0781 87.1612 56.3093 88.1853 56.3093 88.1853L54.7078 90.9056L53.4907 92.8578L53.3305 94.25L53.9391 95.4661L53.6508 96.0102L51.5689 99.3385L51.2485 95.5781C45.2749 92.6818 42.5843 95.4501 42.5843 95.4501L42.3922 98.2984L40.5344 99.8986L40.3422 102.699C40.3422 102.699 40.2141 107.115 40.2141 107.307C40.2141 107.499 40.3422 112.604 40.3422 112.604L37.988 112.924V114.908L37.2193 118.941L39.013 119.197C39.2408 119.798 39.4333 120.413 39.5895 121.037C39.5895 121.485 39.5895 124.813 39.5895 125.069C39.5895 125.325 40.0379 127.694 40.0379 127.694C40.2922 129.485 40.6776 131.255 41.191 132.99C41.5421 133.963 41.7524 134.982 41.8156 136.014L40.9828 137.038C40.9828 137.038 40.7266 138.431 40.7266 138.639C40.7266 138.847 41.8797 139.663 41.8797 139.663L41.6875 140.303C41.5013 140.911 41.3936 141.54 41.3672 142.175C41.4953 142.383 42.5843 143.631 42.9687 143.567C43.4595 143.543 43.9513 143.543 44.4421 143.567C44.4421 143.567 44.4421 146.319 44.4421 146.88C44.4421 147.44 46.444 154.016 46.444 154.016L47.6611 157.457L50.5279 157.009C50.1555 158.521 49.9197 160.063 49.8232 161.617C49.8232 162.961 50.8482 162.449 51.4247 162.577C52.0013 162.705 53.795 163.153 55.7808 163.473C57.2592 163.688 58.7129 164.047 60.121 164.545C60.9938 165.448 61.7473 166.459 62.3631 167.554C62.8115 168.258 66.3348 172.354 66.3348 172.354C66.3348 172.354 69.0094 176.307 69.5379 176.947C70.0664 177.587 73.4456 183.971 73.894 184.548C74.3424 185.124 75.4955 187.108 75.4955 187.108L74.6627 188.196C74.6627 188.196 70.5628 188.004 70.1144 187.876C69.666 187.748 65.6462 186.98 65.3099 186.98L61.0819 187.236C60.3951 186.872 59.7319 186.466 59.096 186.02C58.409 185.832 57.7071 185.703 56.998 185.636C56.998 185.636 53.0262 184.035 52.1934 183.651C51.3607 183.267 47.533 183.459 47.2768 183.331C47.0205 183.203 42.6004 183.331 40.7426 183.139C39.0605 182.826 37.4388 182.248 35.938 181.427L25.1919 175.923L22.0689 175.219L17.7768 176.051C17.7768 176.051 15.2785 178.931 15.2144 179.123C15.1504 179.315 14.3176 179.123 14.3176 179.123L12.8602 180.723L12.4758 183.075L11.8352 183.523L11.2106 185.252L11.4028 187.748L10.1856 188.068C9.91627 188.863 9.70222 189.676 9.54504 190.5C9.54504 190.948 10.8263 192.404 10.8263 192.404C10.2216 193.684 9.5369 194.923 8.77631 196.117L6.85449 197.973L4.22801 199.701L4.35613 201.621L3.65146 202.133L2.69055 202.581C2.69055 202.581 1.08903 204.438 0.96091 204.694C0.832789 204.95 1.85776 206.038 1.85776 206.038L0.96091 208.022L0.320303 209.622L0 211.766ZM54.4516 96.4262C54.4516 96.2982 54.6758 96.4262 54.6758 96.4262H54.9801L55.2043 96.5542C55.1145 96.7345 55.0395 96.9218 54.9801 97.1143C54.9801 97.1143 54.9801 97.4183 54.9 97.4023C54.7043 97.4433 54.5289 97.5507 54.4035 97.7063C54.2594 97.8864 54.1043 98.0574 53.9391 98.2184C53.8963 98.0824 53.8642 97.9433 53.843 97.8023C53.8301 97.739 53.8301 97.6737 53.843 97.6103L53.9391 97.3383C54.1329 97.0477 54.3042 96.7428 54.4516 96.4262ZM58.1671 88.4253L57.4144 90.7776L57.6866 91.0016L55.7808 94.954C55.7808 94.954 55.5246 94.954 55.4926 94.954C55.4083 94.6891 55.2899 94.4363 55.1402 94.202C55.0121 94.0739 54.7559 94.41 54.6278 94.442C54.4996 94.474 54.4195 94.266 54.4195 94.266C54.3144 94.118 54.2433 93.9486 54.2113 93.7699C54.2113 93.5939 54.4196 93.2899 54.4356 93.1138C54.4516 92.9378 54.852 92.2818 54.9 92.1377C54.948 91.9937 55.7328 90.9056 55.7328 90.9056L57.2222 88.5694L58.1671 88.4253ZM60.7135 87.0492C60.7135 87.0492 60.3131 87.9453 60.2331 87.8973C60.153 87.8493 59.9288 87.9773 59.9448 87.8973C59.9608 87.8173 59.4003 87.5453 59.4003 87.4652C59.2292 87.2134 59.0419 86.9729 58.8397 86.7452C58.8526 86.6285 58.8851 86.5149 58.9358 86.4091C58.997 86.3177 59.0506 86.2213 59.096 86.1211L59.8647 86.6972C60.1062 86.8484 60.3641 86.9719 60.6334 87.0652L60.7135 87.0492ZM298.202 59.6383L298.523 59.2863H301.085C302.334 59.4783 301.085 59.8943 301.085 59.8943H298.971L298.202 59.6383ZM174.117 69.4793C173.684 69.9017 173.118 70.1617 172.515 70.2154H168.864V69.1273L169.312 68.7113H169.761C169.761 68.7113 170.209 69.4793 170.658 69.5754L171.042 69.4793C171.042 69.4793 170.369 68.9993 170.369 68.4232L176.775 65.975C176.775 65.975 177.48 66.167 177.16 66.551C176.84 66.9351 175.75 67.6232 175.558 67.8152C175.245 68.0764 174.945 68.3541 174.661 68.6473C174.565 68.8073 174.309 69.2233 174.117 69.4793ZM155.203 83.8809H157.589H158.71C158.71 83.8809 160.152 83.4008 160.312 83.4008L161.433 83.2728H162.81C162.81 83.2728 163.835 82.4407 163.899 82.3447C164.099 81.9743 164.406 81.6731 164.78 81.4806C165.189 81.3516 165.57 81.1452 165.901 80.8726V79.7204L165.549 79.2084C165.549 79.2084 166.141 78.9523 166.157 78.8403C166.173 78.7283 166.59 77.7202 166.59 77.6722C166.59 77.6242 167.455 76.4561 167.455 76.4561C167.723 75.9679 167.953 75.4597 168.143 74.9359C168.191 74.532 168.191 74.1237 168.143 73.7198C168.203 72.925 168.337 72.1375 168.544 71.3675L168.896 70.7915L173.556 71.0635C173.556 71.0635 173.781 71.0635 173.733 71.4956C173.685 71.9276 173.733 72.6317 173.268 72.7917C172.804 72.9517 171.923 73.1117 171.827 73.2077C171.774 73.2619 171.736 73.3285 171.716 73.4013C171.696 73.4741 171.695 73.5508 171.712 73.6242C171.73 73.6976 171.766 73.7654 171.816 73.8213C171.867 73.8772 171.931 73.9193 172.003 73.9438C172.451 74.2158 173.412 74.4079 173.604 74.6159C173.797 74.8239 174.005 74.8879 173.957 75.176C173.874 75.4072 173.723 75.608 173.524 75.752C173.524 75.752 173.028 75.464 172.932 75.608C172.836 75.752 171.667 77.2082 171.667 77.2082L171.426 77.9122L171.747 78.3603L171.651 78.7443H170.802L169.761 80.0085C169.761 80.0885 166.638 84.6169 166.638 84.713C166.638 84.809 165.357 86.7932 165.357 86.7932C165.357 86.7932 165.229 87.0492 165.004 87.0492C164.369 87.251 163.753 87.508 163.163 87.8173C162.584 88.0081 162.017 88.2325 161.465 88.4894C161.273 88.6814 160.856 88.4894 160.728 89.0334C160.655 89.4888 160.548 89.938 160.408 90.3776C160.28 90.6336 160.632 90.7296 159.96 91.1456L158.358 92.1697C158.262 92.1697 157.461 92.5218 157.461 92.5218C157.461 92.5218 155.699 86.7612 155.635 86.3771L155.203 83.8809ZM149.277 65.1429C149.657 64.6023 149.929 63.9938 150.078 63.3507C150.078 62.8867 150.206 62.4546 150.078 62.1666C149.921 61.9659 149.732 61.7928 149.518 61.6545L154.322 60.7904L155.267 60.4544C155.918 60.6384 156.555 60.8684 157.173 61.1425C157.5 61.6463 157.773 62.1825 157.99 62.7426C157.99 62.7426 155.475 63.1267 155.267 63.2547C154.283 63.6076 153.325 64.0301 152.4 64.5188C151.888 64.9509 150.799 66.023 150.703 65.959C150.534 65.9258 150.359 65.9258 150.19 65.959L149.55 65.767C149.55 65.767 149.101 65.3029 149.277 65.0949V65.1429ZM128.538 111.9C128.538 111.196 130.508 108.331 130.7 107.307C130.892 106.283 132.558 102.139 132.75 101.627C132.942 101.115 134.351 97.0183 134.351 97.0183C134.874 97.7139 135.345 98.4466 135.761 99.2105C136.017 99.7866 137.859 102.091 138.964 103.803C139.949 105.608 141.062 107.341 142.295 108.988C143.32 110.076 146.891 113.58 146.891 113.58C146.891 113.58 147.724 114.524 146.587 114.54C146.331 114.54 141.974 114.54 141.462 114.54C140.229 114.278 138.984 114.081 137.73 113.948C136.33 113.722 134.903 113.722 133.502 113.948C132.519 114.293 131.513 114.571 130.492 114.78C130.235 114.78 129.787 115.036 129.723 114.78C130.043 114.023 130.429 113.294 130.876 112.604C130.876 112.412 131.645 110.892 131.132 110.7C130.62 110.508 130.62 109.484 129.979 110.38C129.339 111.276 128.602 112.604 128.538 111.9Z" fill="#231F20"/>
</g>
<defs>
<clipPath id="clip0_85_340">
<rect width="304" height="227" fill="white"/>
</clipPath>
</defs>
</svg>
